<svg id="Layer_1" data-name="Layer 1" xmlns="http://www.w3.org/2000/svg" viewBox="0 0 79.57 79.99"><defs><style>.cls-1{fill:#7e6bb0;}</style></defs><title>Acceso a la educacion</title><path class="cls-1" d="M544.39,150.51c1.36-.87,2.71-1.75,4.07-2.6a1.2,1.2,0,0,1,.61-0.12h8.44a0.73,0.73,0,0,1,.41,0,1,1,0,0,1,.43.55,1.08,1.08,0,0,1-.51.54,1,1,0,0,1-.47,0h-8v3.67h8a0.93,0.93,0,0,1,.46,0,0.87,0.87,0,0,1,.43.5,1.13,1.13,0,0,1-.4.59,0.6,0.6,0,0,1-.36,0c-2.85,0-5.7,0-8.54,0a1.39,1.39,0,0,1-.69-0.2c-1.17-.72-2.32-1.45-3.48-2.19-0.16-.1-0.3-0.23-0.45-0.35v-0.53Zm3.79-1.07-2.13,1.34,2.13,1.33v-2.67Z" transform="translate(-531.38 -132.02)"/><path class="cls-1" d="M568.63,144.08a3,3,0,0,1,4.61,0,2.93,2.93,0,0,1,2.7-1.08,2.77,2.77,0,0,1,2.41,2.48c0.07,1.1.05,2.21,0.05,3.32q0,4.59,0,9.18a0.91,0.91,0,0,1,0,.46,0.55,0.55,0,0,1-1.06,0,1.27,1.27,0,0,1-.05-0.62q0-5.72,0-11.44a6.31,6.31,0,0,0,0-.79,1.66,1.66,0,0,0-1.6-1.47,1.62,1.62,0,0,0-1.69,1.29c-0.11.63,0,1.3-.13,1.94a0.83,0.83,0,0,1-.48.57,1,1,0,0,1-.61-0.35,0.7,0.7,0,0,1,0-.41c0-.44,0-0.88,0-1.32a1.71,1.71,0,0,0-1.69-1.73,1.68,1.68,0,0,0-1.7,1.65c0,0.51,0,1-.06,1.53a0.58,0.58,0,0,1-.6.65,0.56,0.56,0,0,1-.56-0.64c0-.51,0-1,0-1.53a1.68,1.68,0,0,0-1.68-1.67,1.7,1.7,0,0,0-1.7,1.66c0,0.49,0,1,0,1.48a0.61,0.61,0,0,1-.61.75,0.59,0.59,0,0,1-.55-0.74c0-.4,0-0.81,0-1.21a1.62,1.62,0,1,0-3.22,0q-0.07,6.83-.13,13.66c0,0.63,0,1.27,0,1.89a3.14,3.14,0,0,0,.26,1,1.39,1.39,0,0,0,1.51,1c4.64-.08,9.28-0.07,13.92-0.1a0.64,0.64,0,0,0,.43-0.12,47.29,47.29,0,0,0,4.88-5.52,4.19,4.19,0,0,0,.83-2.71,1,1,0,0,1,.14-0.64,0.64,0.64,0,0,1,.58-0.17,1,1,0,0,1,.42.64,4.41,4.41,0,0,1-.87,3.28c-1,1.29-2,2.53-3.05,3.75-0.58.68-1.24,1.29-1.76,1.83a10.21,10.21,0,0,1,.86,1.89,2.45,2.45,0,0,1-1.66,2.87,0.6,0.6,0,0,0-.47.71c0,3.45,0,6.89,0,10.34,0,0.89-.15,1-1,1H561.79c-0.91,0-1-.13-1-1q0-5.11,0-10.23v-0.57a2.73,2.73,0,0,1-.91-4.87c-1-1.21-.94-2.67-0.92-4.14,0.07-4.55.1-9.1,0.15-13.66a2.82,2.82,0,0,1,2.08-2.94,2.66,2.66,0,0,1,2.51.59L564,144.1C565.81,142.59,567.12,142.58,568.63,144.08Zm-6.69,24.75v10.61h13V168.82h-13Zm6.6-4.19v0.08c-2.37,0-4.75,0-7.12,0a1.47,1.47,0,0,0-1.58,1.47,1.49,1.49,0,0,0,1.59,1.48q7.12,0,14.24-.08a1.43,1.43,0,0,0,1.4-.94,1.47,1.47,0,0,0-1.45-2C573.25,164.62,570.89,164.63,568.54,164.63Z" transform="translate(-531.38 -132.02)"/><path class="cls-1" d="M593.12,152.62v-3.67H580a0.83,0.83,0,0,1-.41,0,1,1,0,0,1-.47-0.51,0.88,0.88,0,0,1,.4-0.57,1.08,1.08,0,0,1,.56-0.05h12.76a0.85,0.85,0,0,0,.8-0.35,1.36,1.36,0,0,1,2.22,0,0.74,0.74,0,0,0,.7.34c0.4,0,.81,0,1.21,0a0.61,0.61,0,0,1,.66.67q0,2.32,0,4.64a0.62,0.62,0,0,1-.69.68H597a1.39,1.39,0,0,0-1.32.5,1.3,1.3,0,0,1-2.06-.15,0.79,0.79,0,0,0-.75-0.34H580.07a1,1,0,0,1-.52,0,0.56,0.56,0,0,1,0-1.11,1.1,1.1,0,0,1,.52,0h13Zm2-1.82h0q0-.9,0-1.79a0.8,0.8,0,0,0,0-.31c-0.1-.22-0.24-0.42-0.36-0.63a4.8,4.8,0,0,0-.38.6,1.07,1.07,0,0,0,0,.42c0,1,0,2,0,3.06a5.19,5.19,0,0,0,0,.94,1.3,1.3,0,0,0,.31.43,2,2,0,0,0,.35-0.4,1.14,1.14,0,0,0,0-.46C595.08,152,595.08,151.41,595.08,150.8Zm1.21-1.82v3.61h0.91V149h-0.91Z" transform="translate(-531.38 -132.02)"/><path class="cls-1" d="M585.79,151.25H580a0.9,0.9,0,0,1-.46,0,0.56,0.56,0,0,1,0-1.1,0.89,0.89,0,0,1,.46,0h11.6a0.91,0.91,0,0,1,.46,0,0.88,0.88,0,0,1,.42.51,1,1,0,0,1-.41.57,0.85,0.85,0,0,1-.46,0h-5.8Z" transform="translate(-531.38 -132.02)"/><path class="cls-1" d="M554.36,150.09h3.22c0.42,0,.78.1,0.78,0.57a0.61,0.61,0,0,1-.76.6H551a0.61,0.61,0,0,1-.76-0.6c0-.48.37-0.57,0.79-0.57h3.32Z" transform="translate(-531.38 -132.02)"/><path class="cls-1" d="M583.88,140.74a1.06,1.06,0,0,1,.41.38,0.72,0.72,0,0,1-.17.63c-0.82.53-1.67,1-2.54,1.46a0.79,0.79,0,0,1-.69-0.23,0.65,0.65,0,0,1,.08-0.63c0.87-.55,1.77-1.05,2.67-1.56A1.21,1.21,0,0,1,583.88,140.74Z" transform="translate(-531.38 -132.02)"/><path class="cls-1" d="M560,134.36a1.44,1.44,0,0,1,.41.34c0.46,0.74.89,1.51,1.32,2.27a0.58,0.58,0,1,1-1,.6c-0.44-.75-0.89-1.51-1.31-2.27A0.59,0.59,0,0,1,560,134.36Z" transform="translate(-531.38 -132.02)"/><path class="cls-1" d="M568,134c0-.44,0-0.88,0-1.31a0.58,0.58,0,1,1,1.15,0c0,0.88,0,1.75,0,2.63a0.58,0.58,0,1,1-1.15,0C568,134.86,568,134.41,568,134Z" transform="translate(-531.38 -132.02)"/><path class="cls-1" d="M578,134.84a5.13,5.13,0,0,1-.22.52l-1.23,2.14a0.6,0.6,0,1,1-1-.6c0.42-.72.82-1.47,1.28-2.17a0.91,0.91,0,0,1,.68-0.32A1.23,1.23,0,0,1,578,134.84Z" transform="translate(-531.38 -132.02)"/><path class="cls-1" d="M552.91,141.4a0.55,0.55,0,0,1,.78-0.59c0.87,0.45,1.72.94,2.54,1.47a0.69,0.69,0,0,1,.16.67,0.75,0.75,0,0,1-.67.28c-0.89-.45-1.75-1-2.6-1.47A0.83,0.83,0,0,1,552.91,141.4Z" transform="translate(-531.38 -132.02)"/><path class="cls-1" d="M539,190.94a0.89,0.89,0,0,1,.25.66v6.34a0.9,0.9,0,0,1-.25.65,0.86,0.86,0,0,1-.65.26,0.85,0.85,0,0,1-.64-0.25,1,1,0,0,1-.26-0.65,3.25,3.25,0,0,1-2.36,1.05,3.43,3.43,0,0,1-1.87-.53,3.73,3.73,0,0,1-1.33-1.48,4.61,4.61,0,0,1-.49-2.14,4.71,4.71,0,0,1,.48-2.15,3.7,3.7,0,0,1,1.31-1.49,3.35,3.35,0,0,1,1.84-.53,3.48,3.48,0,0,1,1.35.26,3.55,3.55,0,0,1,1.07.67h0a0.9,0.9,0,0,1,.25-0.65,0.86,0.86,0,0,1,.64-0.26A0.88,0.88,0,0,1,539,190.94Zm-2.08,5.71a2.65,2.65,0,0,0,.61-1.79,2.68,2.68,0,0,0-.61-1.8,2.1,2.1,0,0,0-3.17,0,2.94,2.94,0,0,0,0,3.59,2,2,0,0,0,1.58.71A2,2,0,0,0,536.88,196.64Z" transform="translate(-531.38 -132.02)"/><path class="cls-1" d="M546.72,191.08a1.19,1.19,0,0,1,.78,1.06,0.91,0.91,0,0,1-.19.58,0.62,0.62,0,0,1-.51.25,1,1,0,0,1-.39-0.07,1.39,1.39,0,0,1-.29-0.18,2,2,0,0,0-.28-0.19,1.88,1.88,0,0,0-.44-0.13,2.47,2.47,0,0,0-.47-0.06,2.26,2.26,0,0,0-1.76.7,2.87,2.87,0,0,0,0,3.61,2.12,2.12,0,0,0,1.65.71,2.55,2.55,0,0,0,1.09-.18l0.25-.16a1.73,1.73,0,0,1,.29-0.17,0.81,0.81,0,0,1,.33-0.06,0.76,0.76,0,0,1,.59.24,0.88,0.88,0,0,1,.22.62,0.87,0.87,0,0,1-.42.67,3.26,3.26,0,0,1-1.11.5,5.59,5.59,0,0,1-1.47.19,3.8,3.8,0,0,1-2-.54A3.63,3.63,0,0,1,541.2,197a4.64,4.64,0,0,1-.48-2.12,4.53,4.53,0,0,1,.5-2.16,3.7,3.7,0,0,1,1.4-1.48,3.94,3.94,0,0,1,2-.53A4.55,4.55,0,0,1,546.72,191.08Z" transform="translate(-531.38 -132.02)"/><path class="cls-1" d="M554.45,191.08a1.19,1.19,0,0,1,.78,1.06,0.91,0.91,0,0,1-.19.58,0.62,0.62,0,0,1-.51.25,1,1,0,0,1-.39-0.07,1.39,1.39,0,0,1-.29-0.18,2,2,0,0,0-.28-0.19,1.88,1.88,0,0,0-.44-0.13,2.47,2.47,0,0,0-.47-0.06,2.26,2.26,0,0,0-1.76.7,2.87,2.87,0,0,0,0,3.61,2.12,2.12,0,0,0,1.65.71,2.55,2.55,0,0,0,1.09-.18l0.25-.16a1.73,1.73,0,0,1,.29-0.17,0.81,0.81,0,0,1,.33-0.06,0.76,0.76,0,0,1,.59.24,0.88,0.88,0,0,1,.22.62,0.87,0.87,0,0,1-.42.67,3.26,3.26,0,0,1-1.11.5,5.59,5.59,0,0,1-1.47.19,3.8,3.8,0,0,1-2-.54,3.63,3.63,0,0,1-1.36-1.49,4.64,4.64,0,0,1-.48-2.12,4.53,4.53,0,0,1,.5-2.16,3.7,3.7,0,0,1,1.4-1.48,3.94,3.94,0,0,1,2-.53A4.55,4.55,0,0,1,554.45,191.08Z" transform="translate(-531.38 -132.02)"/><path class="cls-1" d="M563.54,195.24a1,1,0,0,1-.63.23h-5a2.26,2.26,0,0,0,.83,1.39,2.3,2.3,0,0,0,1.46.5,3.22,3.22,0,0,0,1-.11,2.5,2.5,0,0,0,.55-0.24l0.28-.17a1.14,1.14,0,0,1,.51-0.13,0.73,0.73,0,0,1,.54.23,0.72,0.72,0,0,1,.23.52,0.94,0.94,0,0,1-.42.74,3.6,3.6,0,0,1-1.12.58,4.65,4.65,0,0,1-3.62-.29,3.66,3.66,0,0,1-1.45-1.45,4.22,4.22,0,0,1-.51-2.08,4.6,4.6,0,0,1,.54-2.26,3.82,3.82,0,0,1,1.42-1.49,3.68,3.68,0,0,1,1.89-.52,3.5,3.5,0,0,1,1.87.54,4,4,0,0,1,1.4,1.46,3.91,3.91,0,0,1,.52,2A0.77,0.77,0,0,1,563.54,195.24ZM558,194h3.93v-0.11a1.55,1.55,0,0,0-.62-1.08,2,2,0,0,0-1.26-.45A1.86,1.86,0,0,0,558,194Z" transform="translate(-531.38 -132.02)"/><path class="cls-1" d="M564.72,197.16a0.85,0.85,0,0,1,.83-0.79,0.85,0.85,0,0,1,.6.29,3.16,3.16,0,0,0,.94.69,2.81,2.81,0,0,0,1.18.22q1.17,0,1.17-.88A0.72,0.72,0,0,0,569,196a5.61,5.61,0,0,0-1.24-.45,10.75,10.75,0,0,1-1.42-.48,2.5,2.5,0,0,1-.94-0.73,2,2,0,0,1-.4-1.31,2,2,0,0,1,.41-1.25,2.72,2.72,0,0,1,1.08-.83,3.5,3.5,0,0,1,1.42-.29,4.34,4.34,0,0,1,1.53.29,2.66,2.66,0,0,1,1.2.84,0.84,0.84,0,0,1,.2.54,0.7,0.7,0,0,1-.29.57,0.75,0.75,0,0,1-.48.17,0.73,0.73,0,0,1-.54-0.21,1.9,1.9,0,0,0-.7-0.52,2.31,2.31,0,0,0-1-.2q-1.14,0-1.14.83a0.7,0.7,0,0,0,.21.53,1.44,1.44,0,0,0,.53.32l0.91,0.28a9.83,9.83,0,0,1,1.35.46,2.32,2.32,0,0,1,.92.74,2.1,2.1,0,0,1,.38,1.3,2,2,0,0,1-.44,1.28,2.76,2.76,0,0,1-1.12.83,3.61,3.61,0,0,1-1.4.29,5.08,5.08,0,0,1-1.84-.33,3.06,3.06,0,0,1-1.4-1.07A0.73,0.73,0,0,1,564.72,197.16Z" transform="translate(-531.38 -132.02)"/><path class="cls-1" d="M579.72,197a3.81,3.81,0,0,1-1.48,1.48,4.33,4.33,0,0,1-4.13,0,3.82,3.82,0,0,1-1.47-1.48,4.56,4.56,0,0,1,0-4.3,3.88,3.88,0,0,1,1.47-1.49,4.28,4.28,0,0,1,4.13,0,3.87,3.87,0,0,1,1.48,1.49A4.56,4.56,0,0,1,579.72,197Zm-1.57-3.46a2.26,2.26,0,0,0-.82-0.89,2.25,2.25,0,0,0-2.3,0,2.26,2.26,0,0,0-.82.89,2.75,2.75,0,0,0-.31,1.31,2.7,2.7,0,0,0,.31,1.3,2.27,2.27,0,0,0,.82.88,2.25,2.25,0,0,0,2.3,0,2.28,2.28,0,0,0,.82-0.88,2.7,2.7,0,0,0,.31-1.3A2.75,2.75,0,0,0,578.15,193.54Z" transform="translate(-531.38 -132.02)"/><path class="cls-1" d="M593.1,190.94a0.89,0.89,0,0,1,.25.66v6.34a0.9,0.9,0,0,1-.25.65,0.86,0.86,0,0,1-.65.26,0.85,0.85,0,0,1-.64-0.25,1,1,0,0,1-.26-0.65A3.25,3.25,0,0,1,589.2,199a3.43,3.43,0,0,1-1.87-.53A3.73,3.73,0,0,1,586,197a4.61,4.61,0,0,1-.49-2.14,4.71,4.71,0,0,1,.48-2.15,3.7,3.7,0,0,1,1.31-1.49,3.35,3.35,0,0,1,1.84-.53,3.48,3.48,0,0,1,1.35.26,3.55,3.55,0,0,1,1.07.67h0a0.9,0.9,0,0,1,.25-0.65,0.86,0.86,0,0,1,.64-0.26A0.88,0.88,0,0,1,593.1,190.94ZM591,196.64a2.65,2.65,0,0,0,.61-1.79,2.68,2.68,0,0,0-.61-1.8,2.1,2.1,0,0,0-3.17,0,2.94,2.94,0,0,0,0,3.59,2,2,0,0,0,1.58.71A2,2,0,0,0,591,196.64Z" transform="translate(-531.38 -132.02)"/><path class="cls-1" d="M601.19,198.59a0.89,0.89,0,0,1-.65.26,0.84,0.84,0,0,1-.63-0.26,0.9,0.9,0,0,1-.25-0.65v-9.27a0.9,0.9,0,0,1,.92-0.92,0.84,0.84,0,0,1,.63.26,0.9,0.9,0,0,1,.25.65v9.27A0.89,0.89,0,0,1,601.19,198.59Z" transform="translate(-531.38 -132.02)"/><path class="cls-1" d="M610.7,190.94a0.89,0.89,0,0,1,.25.66v6.34a0.9,0.9,0,0,1-.25.65,0.86,0.86,0,0,1-.65.26,0.85,0.85,0,0,1-.64-0.25,1,1,0,0,1-.26-0.65A3.25,3.25,0,0,1,606.8,199a3.43,3.43,0,0,1-1.87-.53,3.73,3.73,0,0,1-1.33-1.48,4.61,4.61,0,0,1-.49-2.14,4.71,4.71,0,0,1,.48-2.15,3.7,3.7,0,0,1,1.31-1.49,3.35,3.35,0,0,1,1.84-.53,3.48,3.48,0,0,1,1.35.26,3.55,3.55,0,0,1,1.07.67h0a0.9,0.9,0,0,1,.25-0.65,0.86,0.86,0,0,1,.64-0.26A0.88,0.88,0,0,1,610.7,190.94Zm-2.08,5.71a2.65,2.65,0,0,0,.61-1.79,2.68,2.68,0,0,0-.61-1.8,2.1,2.1,0,0,0-3.17,0,2.94,2.94,0,0,0,0,3.59,2,2,0,0,0,1.58.71A2,2,0,0,0,608.61,196.64Z" transform="translate(-531.38 -132.02)"/><path class="cls-1" d="M542.59,208.24a1,1,0,0,1-.63.23h-5a2.26,2.26,0,0,0,.83,1.39,2.3,2.3,0,0,0,1.46.5,3.22,3.22,0,0,0,1-.11,2.5,2.5,0,0,0,.55-0.24l0.28-.17a1.14,1.14,0,0,1,.51-0.13,0.73,0.73,0,0,1,.54.23,0.72,0.72,0,0,1,.23.52,0.94,0.94,0,0,1-.42.74,3.6,3.6,0,0,1-1.12.58,4.65,4.65,0,0,1-3.62-.29,3.66,3.66,0,0,1-1.45-1.45,4.22,4.22,0,0,1-.51-2.08,4.6,4.6,0,0,1,.54-2.26,3.82,3.82,0,0,1,1.42-1.49,3.68,3.68,0,0,1,1.89-.52,3.5,3.5,0,0,1,1.87.54,4,4,0,0,1,1.4,1.46,3.91,3.91,0,0,1,.52,2A0.77,0.77,0,0,1,542.59,208.24ZM537,207H541v-0.11a1.55,1.55,0,0,0-.62-1.08,2,2,0,0,0-1.26-.45A1.86,1.86,0,0,0,537,207Z" transform="translate(-531.38 -132.02)"/><path class="cls-1" d="M551.52,201a0.89,0.89,0,0,1,.25.66v9.27a0.9,0.9,0,0,1-.25.65,0.86,0.86,0,0,1-.65.26,0.85,0.85,0,0,1-.64-0.25A1,1,0,0,1,550,211a3.25,3.25,0,0,1-2.36,1.05,3.43,3.43,0,0,1-1.87-.53,3.73,3.73,0,0,1-1.33-1.48,4.61,4.61,0,0,1-.49-2.14,4.71,4.71,0,0,1,.48-2.15,3.7,3.7,0,0,1,1.31-1.49,3.35,3.35,0,0,1,1.84-.53,3.48,3.48,0,0,1,1.35.26,3.55,3.55,0,0,1,1.07.67v-2.94a0.9,0.9,0,0,1,.25-0.65,0.86,0.86,0,0,1,.64-0.26A0.88,0.88,0,0,1,551.52,201Zm-2.08,8.63a2.65,2.65,0,0,0,.61-1.79,2.68,2.68,0,0,0-.61-1.8,2.1,2.1,0,0,0-3.17,0,2.94,2.94,0,0,0,0,3.59,2,2,0,0,0,1.58.71A2,2,0,0,0,549.43,209.64Z" transform="translate(-531.38 -132.02)"/><path class="cls-1" d="M560.56,204.09a0.9,0.9,0,0,1,.25.65v3.81a3.48,3.48,0,0,1-.89,2.54,4,4,0,0,1-5.08,0,3.49,3.49,0,0,1-.89-2.54v-3.81a0.9,0.9,0,0,1,.26-0.65,0.92,0.92,0,0,1,1.29,0,0.9,0.9,0,0,1,.26.65v3.81a2,2,0,0,0,.4,1.36,1.57,1.57,0,0,0,1.21.44,1.59,1.59,0,0,0,1.23-.44,2,2,0,0,0,.41-1.36v-3.81a0.9,0.9,0,0,1,.25-0.65A0.92,0.92,0,0,1,560.56,204.09Z" transform="translate(-531.38 -132.02)"/><path class="cls-1" d="M568.32,204.08a1.19,1.19,0,0,1,.78,1.06,0.91,0.91,0,0,1-.19.58,0.62,0.62,0,0,1-.51.25,1,1,0,0,1-.39-0.07,1.39,1.39,0,0,1-.29-0.18,2,2,0,0,0-.28-0.19,1.88,1.88,0,0,0-.44-0.13,2.47,2.47,0,0,0-.47-0.06,2.26,2.26,0,0,0-1.76.7,2.87,2.87,0,0,0,0,3.61,2.12,2.12,0,0,0,1.65.71,2.55,2.55,0,0,0,1.09-.18l0.25-.16a1.73,1.73,0,0,1,.29-0.17,0.81,0.81,0,0,1,.33-0.06,0.76,0.76,0,0,1,.59.24,0.88,0.88,0,0,1,.22.62,0.87,0.87,0,0,1-.42.67,3.26,3.26,0,0,1-1.11.5,5.59,5.59,0,0,1-1.47.19,3.8,3.8,0,0,1-2-.54A3.63,3.63,0,0,1,562.8,210a4.64,4.64,0,0,1-.48-2.12,4.53,4.53,0,0,1,.5-2.16,3.7,3.7,0,0,1,1.4-1.48,3.94,3.94,0,0,1,2-.53A4.55,4.55,0,0,1,568.32,204.08Z" transform="translate(-531.38 -132.02)"/><path class="cls-1" d="M577.63,203.94a0.89,0.89,0,0,1,.25.66v6.34a0.9,0.9,0,0,1-.25.65,0.86,0.86,0,0,1-.65.26,0.85,0.85,0,0,1-.64-0.25,1,1,0,0,1-.26-0.65,3.25,3.25,0,0,1-2.36,1.05,3.43,3.43,0,0,1-1.87-.53,3.73,3.73,0,0,1-1.33-1.48,4.61,4.61,0,0,1-.49-2.14,4.71,4.71,0,0,1,.48-2.15,3.7,3.7,0,0,1,1.31-1.49,3.35,3.35,0,0,1,1.84-.53,3.48,3.48,0,0,1,1.35.26,3.55,3.55,0,0,1,1.07.67h0a0.9,0.9,0,0,1,.25-0.65,0.86,0.86,0,0,1,.64-0.26A0.88,0.88,0,0,1,577.63,203.94Zm-2.08,5.71a2.65,2.65,0,0,0,.61-1.79,2.68,2.68,0,0,0-.61-1.8,2.1,2.1,0,0,0-3.17,0,2.94,2.94,0,0,0,0,3.59,2,2,0,0,0,1.58.71A2,2,0,0,0,575.55,209.64Z" transform="translate(-531.38 -132.02)"/><path class="cls-1" d="M585.39,204.08a1.19,1.19,0,0,1,.78,1.06,0.91,0.91,0,0,1-.19.58,0.62,0.62,0,0,1-.51.25,1,1,0,0,1-.39-0.07,1.39,1.39,0,0,1-.29-0.18,2,2,0,0,0-.28-0.19,1.88,1.88,0,0,0-.44-0.13,2.47,2.47,0,0,0-.47-0.06,2.26,2.26,0,0,0-1.76.7,2.87,2.87,0,0,0,0,3.61,2.12,2.12,0,0,0,1.65.71,2.55,2.55,0,0,0,1.09-.18l0.25-.16a1.73,1.73,0,0,1,.29-0.17,0.81,0.81,0,0,1,.33-0.06,0.76,0.76,0,0,1,.59.24,0.88,0.88,0,0,1,.22.62,0.87,0.87,0,0,1-.42.67,3.26,3.26,0,0,1-1.11.5,5.59,5.59,0,0,1-1.47.19,3.8,3.8,0,0,1-2-.54,3.63,3.63,0,0,1-1.36-1.49,4.64,4.64,0,0,1-.48-2.12,4.53,4.53,0,0,1,.5-2.16,3.7,3.7,0,0,1,1.4-1.48,3.94,3.94,0,0,1,2-.53A4.55,4.55,0,0,1,585.39,204.08Z" transform="translate(-531.38 -132.02)"/><path class="cls-1" d="M587.62,202.69a0.7,0.7,0,0,1-.21-0.58v-0.29a0.68,0.68,0,0,1,.22-0.58,1.69,1.69,0,0,1,1.46,0,0.71,0.71,0,0,1,.21.58v0.29a0.69,0.69,0,0,1-.22.59,1.31,1.31,0,0,1-.74.16A1.19,1.19,0,0,1,587.62,202.69Zm1.38,8.9a0.92,0.92,0,0,1-1.29,0,0.9,0.9,0,0,1-.25-0.65v-6.2a0.9,0.9,0,0,1,.25-0.65,0.92,0.92,0,0,1,1.29,0,0.9,0.9,0,0,1,.25.65v6.2A0.9,0.9,0,0,1,589,211.59Z" transform="translate(-531.38 -132.02)"/><path class="cls-1" d="M598.27,210a3.81,3.81,0,0,1-1.48,1.48,4.33,4.33,0,0,1-4.13,0,3.82,3.82,0,0,1-1.47-1.48,4.56,4.56,0,0,1,0-4.3,3.88,3.88,0,0,1,1.47-1.49,4.28,4.28,0,0,1,4.13,0,3.87,3.87,0,0,1,1.48,1.49A4.56,4.56,0,0,1,598.27,210Zm-1.57-3.46a2.26,2.26,0,0,0-.82-0.89,2.25,2.25,0,0,0-2.3,0,2.26,2.26,0,0,0-.82.89,2.75,2.75,0,0,0-.31,1.31,2.7,2.7,0,0,0,.31,1.3,2.27,2.27,0,0,0,.82.88,2.25,2.25,0,0,0,2.3,0,2.28,2.28,0,0,0,.82-0.88,2.7,2.7,0,0,0,.31-1.3A2.75,2.75,0,0,0,596.71,206.54Zm-2.22-3.35a0.4,0.4,0,0,1-.16-0.36,0.56,0.56,0,0,1,.09-0.29l0.87-1.53a1.42,1.42,0,0,1,.36-0.44,0.74,0.74,0,0,1,.47-0.17,0.81,0.81,0,0,1,.61.21,0.7,0.7,0,0,1,.19.54,1.14,1.14,0,0,1-.29.65l-1.14,1.26a0.88,0.88,0,0,1-.68.25A0.54,0.54,0,0,1,594.49,203.19Z" transform="translate(-531.38 -132.02)"/><path class="cls-1" d="M606.72,204.59a4.62,4.62,0,0,1,.58,2.51v3.84a0.9,0.9,0,0,1-.25.65,0.92,0.92,0,0,1-1.29,0,0.9,0.9,0,0,1-.25-0.65V207.1a2.17,2.17,0,0,0-.34-1.3,1.37,1.37,0,0,0-1.19-.47,1.83,1.83,0,0,0-1.37.5,1.74,1.74,0,0,0-.49,1.27v3.84a0.9,0.9,0,0,1-.26.65,0.92,0.92,0,0,1-1.29,0,0.9,0.9,0,0,1-.26-0.65v-6.2a0.9,0.9,0,0,1,.26-0.65,0.92,0.92,0,0,1,1.29,0,0.9,0.9,0,0,1,.26.65V205a3.64,3.64,0,0,1,1.06-.93,2.75,2.75,0,0,1,1.43-.39A2.32,2.32,0,0,1,606.72,204.59Z" transform="translate(-531.38 -132.02)"/></svg>