<svg id="Layer_1" data-name="Layer 1" xmlns="http://www.w3.org/2000/svg" viewBox="0 0 51.92 58.76"><defs><style>.cls-1{fill:#7e6bb0;}</style></defs><title>Amigos</title><path class="cls-1" d="M431.3,194.2a0.85,0.85,0,0,1-.25.64,0.82,0.82,0,0,1-.58.25,0.79,0.79,0,0,1-.49-0.17,1.08,1.08,0,0,1-.34-0.45l-0.78-1.82h-4.47l-0.78,1.83a0.93,0.93,0,0,1-.32.44,0.76,0.76,0,0,1-1.27-.62,1,1,0,0,1,0-.29l3.73-9a1,1,0,0,1,.36-0.46,0.78,0.78,0,0,1,.54-0.13,0.87,0.87,0,0,1,.5.16,0.89,0.89,0,0,1,.34.44l3.69,8.79A1,1,0,0,1,431.3,194.2Zm-6.18-3.27h3l-1.51-3.51Z" transform="translate(-422.01 -139.25)"/><path class="cls-1" d="M443.73,187.75a4.71,4.71,0,0,1,.57,2.51v3.84a0.9,0.9,0,0,1-.26.65,0.92,0.92,0,0,1-1.29,0,0.9,0.9,0,0,1-.25-0.65v-3.84a2.28,2.28,0,0,0-.32-1.3,1.27,1.27,0,0,0-1.13-.47,1.72,1.72,0,0,0-1.31.5,1.78,1.78,0,0,0-.47,1.27v3.84a0.9,0.9,0,0,1-.26.65,0.92,0.92,0,0,1-1.29,0,0.9,0.9,0,0,1-.25-0.65v-3.84a2.28,2.28,0,0,0-.32-1.3,1.27,1.27,0,0,0-1.13-.47,1.72,1.72,0,0,0-1.31.5,1.78,1.78,0,0,0-.47,1.27v3.84a0.9,0.9,0,0,1-.26.65,0.92,0.92,0,0,1-1.29,0,0.9,0.9,0,0,1-.26-0.65v-6.2a0.9,0.9,0,0,1,.26-0.65,0.92,0.92,0,0,1,1.29,0,0.9,0.9,0,0,1,.26.65v0.24a3.66,3.66,0,0,1,1-.92,2.6,2.6,0,0,1,1.39-.38,2.27,2.27,0,0,1,2.42,1.65,3.53,3.53,0,0,1,1-1.14,2.61,2.61,0,0,1,1.58-.51A2.23,2.23,0,0,1,443.73,187.75Z" transform="translate(-422.01 -139.25)"/><path class="cls-1" d="M446.31,185.85a0.7,0.7,0,0,1-.21-0.58V185a0.68,0.68,0,0,1,.22-0.58,1.69,1.69,0,0,1,1.46,0,0.71,0.71,0,0,1,.21.58v0.29a0.69,0.69,0,0,1-.22.59,1.31,1.31,0,0,1-.74.16A1.19,1.19,0,0,1,446.31,185.85Zm1.38,8.9a0.92,0.92,0,0,1-1.29,0,0.9,0.9,0,0,1-.25-0.65v-6.2a0.9,0.9,0,0,1,.25-0.65,0.92,0.92,0,0,1,1.29,0,0.9,0.9,0,0,1,.25.65v6.2A0.9,0.9,0,0,1,447.69,194.75Z" transform="translate(-422.01 -139.25)"/><path class="cls-1" d="M457.08,187.09a0.89,0.89,0,0,1,.25.66v6.67a3.21,3.21,0,0,1-1.13,2.71,4.55,4.55,0,0,1-2.87.88,7,7,0,0,1-1.24-.15,5.46,5.46,0,0,1-1.12-.3,1,1,0,0,1-.74-0.87,0.79,0.79,0,0,1,0-.24,0.94,0.94,0,0,1,.31-0.5,0.74,0.74,0,0,1,.47-0.17,0.92,0.92,0,0,1,.29,0l0.74,0.28a3.49,3.49,0,0,0,1.24.26,2.61,2.61,0,0,0,1.66-.44,1.52,1.52,0,0,0,.55-1.25v-0.72a3,3,0,0,1-1,.84,2.89,2.89,0,0,1-1.43.38,3.56,3.56,0,0,1-1.91-.53,3.73,3.73,0,0,1-1.36-1.48,4.56,4.56,0,0,1-.49-2.14,4.65,4.65,0,0,1,.49-2.15,3.7,3.7,0,0,1,1.33-1.49,3.47,3.47,0,0,1,1.88-.53,3.27,3.27,0,0,1,1.42.31,3.35,3.35,0,0,1,1.06.77v-0.17a0.9,0.9,0,0,1,.25-0.65,0.86,0.86,0,0,1,.65-0.26A0.87,0.87,0,0,1,457.08,187.09ZM455,192.8a2.59,2.59,0,0,0,.64-1.79,2.62,2.62,0,0,0-.64-1.8,2.09,2.09,0,0,0-1.64-.72,2.07,2.07,0,0,0-1.63.72,2.63,2.63,0,0,0-.63,1.8,2.61,2.61,0,0,0,.63,1.79,2.08,2.08,0,0,0,1.63.71A2.1,2.1,0,0,0,455,192.8Z" transform="translate(-422.01 -139.25)"/><path class="cls-1" d="M466.16,193.16a3.81,3.81,0,0,1-1.48,1.48,4.33,4.33,0,0,1-4.13,0,3.82,3.82,0,0,1-1.47-1.48,4.56,4.56,0,0,1,0-4.3,3.88,3.88,0,0,1,1.47-1.49,4.28,4.28,0,0,1,4.13,0,3.87,3.87,0,0,1,1.48,1.49A4.56,4.56,0,0,1,466.16,193.16Zm-1.57-3.46a2.26,2.26,0,0,0-.82-0.89,2.25,2.25,0,0,0-2.3,0,2.26,2.26,0,0,0-.82.89,2.75,2.75,0,0,0-.31,1.31,2.7,2.7,0,0,0,.31,1.3,2.27,2.27,0,0,0,.82.88,2.25,2.25,0,0,0,2.3,0,2.28,2.28,0,0,0,.82-0.88,2.7,2.7,0,0,0,.31-1.3A2.75,2.75,0,0,0,464.59,189.7Z" transform="translate(-422.01 -139.25)"/><path class="cls-1" d="M467.6,193.32a0.85,0.85,0,0,1,.83-0.79,0.85,0.85,0,0,1,.6.29,3.16,3.16,0,0,0,.94.69,2.81,2.81,0,0,0,1.18.22q1.17,0,1.17-.88a0.72,0.72,0,0,0-.4-0.66,5.61,5.61,0,0,0-1.24-.45,10.75,10.75,0,0,1-1.42-.48,2.5,2.5,0,0,1-.94-0.73,2,2,0,0,1-.4-1.31,2,2,0,0,1,.41-1.25,2.72,2.72,0,0,1,1.08-.83,3.5,3.5,0,0,1,1.42-.29,4.34,4.34,0,0,1,1.53.29,2.66,2.66,0,0,1,1.2.84,0.84,0.84,0,0,1,.2.54,0.7,0.7,0,0,1-.29.57,0.75,0.75,0,0,1-.48.17,0.73,0.73,0,0,1-.54-0.21,1.9,1.9,0,0,0-.7-0.52,2.31,2.31,0,0,0-1-.2q-1.14,0-1.14.83a0.7,0.7,0,0,0,.21.53,1.44,1.44,0,0,0,.53.32l0.91,0.28a9.83,9.83,0,0,1,1.35.46,2.32,2.32,0,0,1,.92.74,2.1,2.1,0,0,1,.38,1.3,2,2,0,0,1-.44,1.28,2.76,2.76,0,0,1-1.12.83,3.61,3.61,0,0,1-1.4.29,5.08,5.08,0,0,1-1.84-.33,3.06,3.06,0,0,1-1.4-1.07A0.73,0.73,0,0,1,467.6,193.32Z" transform="translate(-422.01 -139.25)"/><path class="cls-1" d="M467.34,147.58a0.58,0.58,0,0,0,.58-0.58v-1.61a4.14,4.14,0,0,0-4.14-4.14H463l-0.09-.22a3,3,0,0,0-2.72-1.79h-3.84a7.42,7.42,0,0,0-7.41,7.41v11.82a3.11,3.11,0,0,0,3.11,3.11h3.31v0.82H441.64v-1.1a7.23,7.23,0,0,0,4.09-5.61,2.13,2.13,0,0,0,2.13-2.13v-0.73a2.12,2.12,0,0,0-.5-1.37l1.33-5.27a0.58,0.58,0,0,0-1.12-.28l-1.23,4.88a2.12,2.12,0,0,0-.55-0.09v-2a0.58,0.58,0,0,0-.75-0.55c-3.17,1-6,.92-8-0.15a5.66,5.66,0,0,1-2.22-1.92,0.58,0.58,0,0,0-1.08.28c0,1.43-.31,1.74-1.82,1.85a0.58,0.58,0,0,0-.54.58v1.87a2.12,2.12,0,0,0-.61.11,18.85,18.85,0,0,1-.45-2c-0.09-.72,0-2.88,0-3.66v0a1.72,1.72,0,0,1,1.72-1.72h0.88a0.58,0.58,0,0,0,.41-0.17l2.07-2.07a1.73,1.73,0,0,1,1.61-.46l7.28,1.73a5.07,5.07,0,0,0,4.33-1,0.06,0.06,0,0,1,.09.06l-0.44,1.74a0.58,0.58,0,0,0,1.12.28l0.44-1.74a1.22,1.22,0,0,0-1.94-1.25,3.91,3.91,0,0,1-3.34.74l-7.28-1.73a2.89,2.89,0,0,0-2.7.76l-1.9,1.9H432a2.88,2.88,0,0,0-2.88,2.86,38.17,38.17,0,0,0,0,3.83,22.36,22.36,0,0,0,.59,2.58,2.12,2.12,0,0,0-.45,1.31v0.73a2.13,2.13,0,0,0,2.13,2.13,7.22,7.22,0,0,0,4.09,5.61v1.11h-1.21a4.73,4.73,0,0,0-1,.12,1.64,1.64,0,0,0-1.42-.83h-1.41a2,2,0,0,0-2,2v3.15a2,2,0,0,0,1.18,1.84v6.17a0.58,0.58,0,0,0,.58.58H447a0.58,0.58,0,0,0,.58-0.58v-7.75a4.71,4.71,0,0,0-1.63-3.56h9.41v0.29c0,1.67,2.51,3.11,2.79,3.27a0.58,0.58,0,0,0,.56,0c0.29-.16,2.79-1.6,2.79-3.27v-0.29h1.21a3.56,3.56,0,0,1,3.56,3.56v7.17h-1.62v-3.88a0.58,0.58,0,1,0-1.16,0v3.88H453.37v-6.66a0.58,0.58,0,0,0-.58-0.58h-3.47a0.58,0.58,0,1,0,0,1.16h2.89v6.66a0.58,0.58,0,0,0,.58.58h14.06a0.58,0.58,0,0,0,.58-0.58v-7.75a4.72,4.72,0,0,0-4.72-4.72H461.5v-0.82h3.31a3.11,3.11,0,0,0,3.11-3.11v-8.75a0.58,0.58,0,1,0-1.16,0V151a2.12,2.12,0,0,0-1.11-.35V147.9a6.44,6.44,0,0,0-1.16-3.7,0.58,0.58,0,0,0-.84-0.12,14.3,14.3,0,0,1-11.76,3,0.58,0.58,0,0,0-.69.54c0,0.09,0,.19,0,0.3v2.79a2.12,2.12,0,0,0-1.11.35v-4.38a6.26,6.26,0,0,1,6.25-6.25h3.84a1.81,1.81,0,0,1,1.66,1.09l0.25,0.57a0.58,0.58,0,0,0,.53.35h1.16a3,3,0,0,1,3,3V147A0.58,0.58,0,0,0,467.34,147.58Zm-34.83,7.5a0.58,0.58,0,0,0-.58-0.55h-0.53a1,1,0,0,1-1-1v-0.73a1,1,0,0,1,1-1h0.52a0.58,0.58,0,0,0,.58-0.58v-1.92a2.31,2.31,0,0,0,2.18-1.56A7.49,7.49,0,0,0,436.4,149c2.7,1.42,5.85,1.1,8.24.48v1.77a0.58,0.58,0,0,0,.58.58h0.52a1,1,0,0,1,1,1v0.73a1,1,0,0,1-1,1h-0.53a0.58,0.58,0,0,0-.58.55,6.07,6.07,0,0,1-3.79,5.31h0a6.09,6.09,0,0,1-4.52,0h0A6.06,6.06,0,0,1,432.51,155.08Zm8,6.65v2.12a1.92,1.92,0,0,1-3.83,0v-2.12A7.24,7.24,0,0,0,440.49,161.73Zm-10.93,5.14v-3.15a0.87,0.87,0,0,1,.86-0.86h1.41a0.48,0.48,0,0,1,.48.48v3.92a0.48,0.48,0,0,1-.48.48h-1.41A0.87,0.87,0,0,1,429.55,166.86Zm16.86,0.26v7.17h-1.62v-3.88a0.58,0.58,0,1,0-1.16,0v3.88H433.51v-3.88a0.58,0.58,0,1,0-1.16,0v3.88h-1.62v-5.41h1.1a1.64,1.64,0,0,0,1.64-1.64v-3.59a3.57,3.57,0,0,1,.83-0.1h1.21v0.29a3.07,3.07,0,1,0,6.15,0v-0.29h1.21A3.56,3.56,0,0,1,446.41,167.12Zm13.93-3.27c0,0.64-1,1.55-1.92,2.1-0.87-.55-1.92-1.45-1.92-2.1v-2.12a7.24,7.24,0,0,0,3.83,0v2.12Zm6.42-8.52v3.15h0a2,2,0,0,1-1.95,1.95H462.9q0.26-.21.5-0.44a7.2,7.2,0,0,0,2.18-4.31A2.12,2.12,0,0,0,466.76,155.34Zm-15.5-3.49h0.52a0.58,0.58,0,0,0,.58-0.58v-3a15.46,15.46,0,0,0,11.51-2.93,5.29,5.29,0,0,1,.63,2.51v3.37a0.58,0.58,0,0,0,.58.58h0.52a1,1,0,0,1,1,1v0.73a1,1,0,0,1-1,1h-0.53a0.58,0.58,0,0,0-.58.55,6.07,6.07,0,0,1-3.78,5.3h0a6.09,6.09,0,0,1-4.51,0h0a6.06,6.06,0,0,1-3.76-5.3,0.58,0.58,0,0,0-.58-0.55h-0.53a1,1,0,0,1-1-1v-0.73h0A1,1,0,0,1,451.26,151.85Zm0,3.84a7.2,7.2,0,0,0,2.69,4.74H452a2,2,0,0,1-1.95-1.95v-3.15A2.12,2.12,0,0,0,451.26,155.69Z" transform="translate(-422.01 -139.25)"/></svg>