<svg id="Layer_1" data-name="Layer 1" xmlns="http://www.w3.org/2000/svg" viewBox="0 0 72.27 72.39"><defs><style>.cls-1{fill:#7e6bb0;}</style></defs><title>Campo - zona rural</title><path class="cls-1" d="M178.14,384.15a1,1,0,0,1-.23.61,0.74,0.74,0,0,1-.62.32,1.08,1.08,0,0,1-.51-0.13,3.69,3.69,0,0,0-1.59-.35,3.65,3.65,0,0,0-1.83.44,3,3,0,0,0-1.2,1.24,3.9,3.9,0,0,0-.42,1.84,3.55,3.55,0,0,0,1,2.68,3.85,3.85,0,0,0,4.09.57,1.2,1.2,0,0,1,.48-0.12,0.83,0.83,0,0,1,.66.33,1,1,0,0,1,.22.62,0.81,0.81,0,0,1-.12.43,0.78,0.78,0,0,1-.34.3,5.5,5.5,0,0,1-2.49.58,5.89,5.89,0,0,1-2.7-.62,4.79,4.79,0,0,1-2-1.84,5.58,5.58,0,0,1-.74-2.94,5.41,5.41,0,0,1,.7-2.75,5,5,0,0,1,1.93-1.9,5.62,5.62,0,0,1,2.78-.68,5.34,5.34,0,0,1,2.47.58A0.8,0.8,0,0,1,178.14,384.15Z" transform="translate(-160.36 -334.14)"/><path class="cls-1" d="M186.72,385.46a0.89,0.89,0,0,1,.25.66v6.34a0.9,0.9,0,0,1-.25.65,0.86,0.86,0,0,1-.65.26,0.85,0.85,0,0,1-.64-0.25,1,1,0,0,1-.26-0.65,3.25,3.25,0,0,1-2.36,1.05,3.43,3.43,0,0,1-1.87-.53,3.73,3.73,0,0,1-1.33-1.48,4.61,4.61,0,0,1-.49-2.14,4.71,4.71,0,0,1,.48-2.15,3.7,3.7,0,0,1,1.31-1.49,3.35,3.35,0,0,1,1.84-.53,3.48,3.48,0,0,1,1.35.26,3.55,3.55,0,0,1,1.07.67h0a0.9,0.9,0,0,1,.25-0.65,0.86,0.86,0,0,1,.64-0.26A0.88,0.88,0,0,1,186.72,385.46Zm-2.08,5.71a2.65,2.65,0,0,0,.61-1.79,2.68,2.68,0,0,0-.61-1.8,2.1,2.1,0,0,0-3.17,0,2.94,2.94,0,0,0,0,3.59,2,2,0,0,0,1.58.71A2,2,0,0,0,184.63,391.17Z" transform="translate(-160.36 -334.14)"/><path class="cls-1" d="M200.23,386.11a4.71,4.71,0,0,1,.57,2.51v3.84a0.9,0.9,0,0,1-.26.65,0.92,0.92,0,0,1-1.29,0,0.9,0.9,0,0,1-.25-0.65v-3.84a2.28,2.28,0,0,0-.32-1.3,1.27,1.27,0,0,0-1.13-.47,1.72,1.72,0,0,0-1.31.5,1.78,1.78,0,0,0-.47,1.27v3.84a0.9,0.9,0,0,1-.26.65,0.92,0.92,0,0,1-1.29,0,0.9,0.9,0,0,1-.25-0.65v-3.84a2.28,2.28,0,0,0-.32-1.3,1.27,1.27,0,0,0-1.13-.47,1.72,1.72,0,0,0-1.31.5,1.78,1.78,0,0,0-.47,1.27v3.84a0.9,0.9,0,0,1-.26.65,0.92,0.92,0,0,1-1.29,0,0.9,0.9,0,0,1-.26-0.65v-6.2a0.9,0.9,0,0,1,.26-0.65,0.92,0.92,0,0,1,1.29,0,0.9,0.9,0,0,1,.26.65v0.24a3.66,3.66,0,0,1,1-.92,2.6,2.6,0,0,1,1.39-.38,2.27,2.27,0,0,1,2.42,1.65,3.53,3.53,0,0,1,1-1.14,2.61,2.61,0,0,1,1.58-.51A2.23,2.23,0,0,1,200.23,386.11Z" transform="translate(-160.36 -334.14)"/><path class="cls-1" d="M208.78,385.74a3.73,3.73,0,0,1,1.33,1.48,4.61,4.61,0,0,1,.49,2.15,4.71,4.71,0,0,1-.48,2.15,3.69,3.69,0,0,1-1.31,1.48,3.34,3.34,0,0,1-1.84.53,3.22,3.22,0,0,1-1.36-.29,3.59,3.59,0,0,1-1.06-.71v2.94a0.9,0.9,0,0,1-.26.65,0.86,0.86,0,0,1-.64.26,0.87,0.87,0,0,1-.64-0.25,0.89,0.89,0,0,1-.26-0.66v-9.2a0.9,0.9,0,0,1,.26-0.65,0.92,0.92,0,0,1,1.29,0,0.9,0.9,0,0,1,.26.65v0.06a3.1,3.1,0,0,1,1-.79,2.88,2.88,0,0,1,1.35-.34A3.43,3.43,0,0,1,208.78,385.74Zm-0.52,5.42a2.95,2.95,0,0,0,0-3.59,2.12,2.12,0,0,0-3.17,0,2.64,2.64,0,0,0-.62,1.79,2.67,2.67,0,0,0,.62,1.8A2.1,2.1,0,0,0,208.26,391.16Z" transform="translate(-160.36 -334.14)"/><path class="cls-1" d="M219.27,391.53a3.81,3.81,0,0,1-1.48,1.48,4.33,4.33,0,0,1-4.13,0,3.82,3.82,0,0,1-1.47-1.48,4.56,4.56,0,0,1,0-4.3,3.88,3.88,0,0,1,1.47-1.49,4.28,4.28,0,0,1,4.13,0,3.87,3.87,0,0,1,1.48,1.49A4.56,4.56,0,0,1,219.27,391.53Zm-1.57-3.46a2.26,2.26,0,0,0-.82-0.89,2.25,2.25,0,0,0-2.3,0,2.26,2.26,0,0,0-.82.89,2.75,2.75,0,0,0-.31,1.31,2.7,2.7,0,0,0,.31,1.3,2.27,2.27,0,0,0,.82.88,2.25,2.25,0,0,0,2.3,0,2.28,2.28,0,0,0,.82-0.88,2.7,2.7,0,0,0,.31-1.3A2.75,2.75,0,0,0,217.7,388.06Z" transform="translate(-160.36 -334.14)"/><path class="cls-1" d="M223.33,394.13a3.19,3.19,0,0,1-.66.92,1.21,1.21,0,0,1-.84.39,0.87,0.87,0,0,1-.53-0.14,0.53,0.53,0,0,1-.19-0.46,0.41,0.41,0,0,1,.12-0.34,0.8,0.8,0,0,1,.26-0.14l0.2-.07a0.68,0.68,0,0,0,.42-0.6,0.37,0.37,0,0,0-.16-0.29,0.64,0.64,0,0,0-.41-0.13,0.77,0.77,0,0,0-.42.11,0.68,0.68,0,0,1-.28-0.2,0.56,0.56,0,0,1-.1-0.36,0.86,0.86,0,0,1,.22-0.56,1.67,1.67,0,0,1,.56-0.42,1.5,1.5,0,0,1,.64-0.16,1.33,1.33,0,0,1,1,.41,1.69,1.69,0,0,1,.38,1.18A2.11,2.11,0,0,1,223.33,394.13Z" transform="translate(-160.36 -334.14)"/><path class="cls-1" d="M166.6,405a0.84,0.84,0,0,1,0,1.18,0.81,0.81,0,0,1-.6.24h-4.83a0.82,0.82,0,0,1-.81-0.78,1.31,1.31,0,0,1,.06-0.43,1.58,1.58,0,0,1,.23-0.4l3.57-4.62H161.3a0.82,0.82,0,0,1-.84-0.84,0.77,0.77,0,0,1,.24-0.58,0.83,0.83,0,0,1,.6-0.23h4.62a0.77,0.77,0,0,1,.56.23,0.78,0.78,0,0,1,.23.58,1.4,1.4,0,0,1,0,.38,1.11,1.11,0,0,1-.21.37l-3.6,4.67H166A0.83,0.83,0,0,1,166.6,405Z" transform="translate(-160.36 -334.14)"/><path class="cls-1" d="M175.16,404.53a3.81,3.81,0,0,1-1.48,1.48,4.33,4.33,0,0,1-4.13,0,3.82,3.82,0,0,1-1.47-1.48,4.56,4.56,0,0,1,0-4.3,3.88,3.88,0,0,1,1.47-1.49,4.28,4.28,0,0,1,4.13,0,3.87,3.87,0,0,1,1.48,1.49A4.56,4.56,0,0,1,175.16,404.53Zm-1.57-3.46a2.26,2.26,0,0,0-.82-0.89,2.25,2.25,0,0,0-2.3,0,2.26,2.26,0,0,0-.82.89,2.75,2.75,0,0,0-.31,1.31,2.7,2.7,0,0,0,.31,1.3,2.27,2.27,0,0,0,.82.88,2.25,2.25,0,0,0,2.3,0,2.28,2.28,0,0,0,.82-0.88,2.7,2.7,0,0,0,.31-1.3A2.75,2.75,0,0,0,173.59,401.06Z" transform="translate(-160.36 -334.14)"/><path class="cls-1" d="M183.61,399.11a4.62,4.62,0,0,1,.58,2.51v3.84a0.9,0.9,0,0,1-.25.65,0.92,0.92,0,0,1-1.29,0,0.9,0.9,0,0,1-.25-0.65v-3.84a2.17,2.17,0,0,0-.34-1.3,1.37,1.37,0,0,0-1.19-.47,1.83,1.83,0,0,0-1.37.5,1.74,1.74,0,0,0-.49,1.27v3.84a0.9,0.9,0,0,1-.26.65,0.92,0.92,0,0,1-1.29,0,0.9,0.9,0,0,1-.26-0.65v-6.2a0.9,0.9,0,0,1,.26-0.65,0.92,0.92,0,0,1,1.29,0,0.9,0.9,0,0,1,.26.65v0.25a3.64,3.64,0,0,1,1.06-.93,2.75,2.75,0,0,1,1.43-.39A2.32,2.32,0,0,1,183.61,399.11Z" transform="translate(-160.36 -334.14)"/><path class="cls-1" d="M193.28,398.46a0.89,0.89,0,0,1,.25.66v6.34a0.9,0.9,0,0,1-.25.65,0.86,0.86,0,0,1-.65.26,0.85,0.85,0,0,1-.64-0.25,1,1,0,0,1-.26-0.65,3.25,3.25,0,0,1-2.36,1.05,3.43,3.43,0,0,1-1.87-.53,3.73,3.73,0,0,1-1.33-1.48,4.61,4.61,0,0,1-.49-2.14,4.71,4.71,0,0,1,.48-2.15,3.7,3.7,0,0,1,1.31-1.49,3.35,3.35,0,0,1,1.84-.53,3.48,3.48,0,0,1,1.35.26,3.55,3.55,0,0,1,1.07.67h0a0.9,0.9,0,0,1,.25-0.65,0.86,0.86,0,0,1,.64-0.26A0.88,0.88,0,0,1,193.28,398.46Zm-2.08,5.71a2.65,2.65,0,0,0,.61-1.79,2.68,2.68,0,0,0-.61-1.8,2.1,2.1,0,0,0-3.17,0,2.94,2.94,0,0,0,0,3.59,2,2,0,0,0,1.58.71A2,2,0,0,0,191.2,404.17Z" transform="translate(-160.36 -334.14)"/><path class="cls-1" d="M204.61,398.46a0.76,0.76,0,0,1,.31.6,0.93,0.93,0,0,1-.24.7,0.79,0.79,0,0,1-.57.23,1.49,1.49,0,0,1-.51-0.11l-0.2-.06a1.22,1.22,0,0,0-.34,0,1.34,1.34,0,0,0-.75.24,1.76,1.76,0,0,0-.59.73,2.68,2.68,0,0,0-.23,1.16v3.55a0.9,0.9,0,0,1-.26.65,0.92,0.92,0,0,1-1.29,0,0.9,0.9,0,0,1-.26-0.65v-6.2a0.9,0.9,0,0,1,.26-0.65,0.92,0.92,0,0,1,1.29,0,0.9,0.9,0,0,1,.26.65v0.2a2.27,2.27,0,0,1,1-.94,3,3,0,0,1,1.38-.32A1.15,1.15,0,0,1,204.61,398.46Z" transform="translate(-160.36 -334.14)"/><path class="cls-1" d="M212.8,398.62a0.9,0.9,0,0,1,.25.65v3.81a3.48,3.48,0,0,1-.89,2.54,4,4,0,0,1-5.08,0,3.49,3.49,0,0,1-.89-2.54v-3.81a0.9,0.9,0,0,1,.26-0.65,0.92,0.92,0,0,1,1.29,0,0.9,0.9,0,0,1,.26.65v3.81a2,2,0,0,0,.4,1.36,1.57,1.57,0,0,0,1.21.44,1.59,1.59,0,0,0,1.23-.44,2,2,0,0,0,.41-1.36v-3.81a0.9,0.9,0,0,1,.25-0.65A0.92,0.92,0,0,1,212.8,398.62Z" transform="translate(-160.36 -334.14)"/><path class="cls-1" d="M219.93,398.46a0.76,0.76,0,0,1,.31.6,0.93,0.93,0,0,1-.24.7,0.79,0.79,0,0,1-.57.23,1.49,1.49,0,0,1-.51-0.11l-0.2-.06a1.22,1.22,0,0,0-.34,0,1.34,1.34,0,0,0-.75.24,1.76,1.76,0,0,0-.59.73,2.68,2.68,0,0,0-.23,1.16v3.55a0.9,0.9,0,0,1-.26.65,0.92,0.92,0,0,1-1.29,0,0.9,0.9,0,0,1-.26-0.65v-6.2a0.9,0.9,0,0,1,.26-0.65,0.92,0.92,0,0,1,1.29,0,0.9,0.9,0,0,1,.26.65v0.2a2.27,2.27,0,0,1,1-.94,3,3,0,0,1,1.38-.32A1.15,1.15,0,0,1,219.93,398.46Z" transform="translate(-160.36 -334.14)"/><path class="cls-1" d="M228.47,398.46a0.89,0.89,0,0,1,.25.66v6.34a0.9,0.9,0,0,1-.25.65,0.86,0.86,0,0,1-.65.26,0.85,0.85,0,0,1-.64-0.25,1,1,0,0,1-.26-0.65,3.25,3.25,0,0,1-2.36,1.05,3.43,3.43,0,0,1-1.87-.53,3.73,3.73,0,0,1-1.33-1.48,4.61,4.61,0,0,1-.49-2.14,4.71,4.71,0,0,1,.48-2.15,3.7,3.7,0,0,1,1.31-1.49,3.35,3.35,0,0,1,1.84-.53,3.48,3.48,0,0,1,1.35.26,3.55,3.55,0,0,1,1.07.67h0a0.9,0.9,0,0,1,.25-0.65,0.86,0.86,0,0,1,.64-0.26A0.88,0.88,0,0,1,228.47,398.46Zm-2.08,5.71a2.65,2.65,0,0,0,.61-1.79,2.68,2.68,0,0,0-.61-1.8,2.1,2.1,0,0,0-3.17,0,2.94,2.94,0,0,0,0,3.59,2,2,0,0,0,1.58.71A2,2,0,0,0,226.39,404.17Z" transform="translate(-160.36 -334.14)"/><path class="cls-1" d="M232.36,406.12a0.89,0.89,0,0,1-.65.26,0.84,0.84,0,0,1-.63-0.26,0.9,0.9,0,0,1-.25-0.65v-9.27a0.9,0.9,0,0,1,.92-0.92,0.84,0.84,0,0,1,.63.26,0.9,0.9,0,0,1,.25.65v9.27A0.89,0.89,0,0,1,232.36,406.12Z" transform="translate(-160.36 -334.14)"/><path class="cls-1" d="M214.65,367.85a26.86,26.86,0,0,0-18.91,7.9,0.84,0.84,0,0,0,1.19,1.19,25.17,25.17,0,0,1,17.71-7.41A0.84,0.84,0,1,0,214.65,367.85Z" transform="translate(-160.36 -334.14)"/><path class="cls-1" d="M197.12,367.07a0.84,0.84,0,0,0-1.17-.23,33.18,33.18,0,0,0-9,9,0.84,0.84,0,1,0,1.4.94,31.5,31.5,0,0,1,8.57-8.57A0.84,0.84,0,0,0,197.12,367.07Z" transform="translate(-160.36 -334.14)"/><path class="cls-1" d="M214.65,361.08A33.06,33.06,0,0,0,203.59,363a0.84,0.84,0,1,0,.56,1.58,31.39,31.39,0,0,1,10.5-1.81A0.84,0.84,0,1,0,214.65,361.08Z" transform="translate(-160.36 -334.14)"/><path class="cls-1" d="M187.35,371.42a38.32,38.32,0,0,1,22.37-14.09h0a37.47,37.47,0,0,1,7.78-.82,0.84,0.84,0,1,0,0-1.68,39.56,39.56,0,0,0-7.11.65v-1.81a12,12,0,0,0-.31-19.32,0.84,0.84,0,0,0-1.05,0,12,12,0,0,0-.31,19.32v2.16a39.81,39.81,0,0,0-4.71,1.38v-4.92a0.84,0.84,0,0,0-.24-0.59h0L199,346.94a0.84,0.84,0,0,0-.6-0.25h-9.61a0.84,0.84,0,0,0-.6.25l-4.71,4.74h0a0.84,0.84,0,0,0-.24.59v3.21q-0.88-.16-1.77-0.28v-3a9.3,9.3,0,0,0-.31-14.86,0.84,0.84,0,0,0-1.05,0,9.3,9.3,0,0,0-.31,14.86V355q-1.84-.17-3.7-0.17a0.84,0.84,0,0,0,0,1.68,37.92,37.92,0,0,1,19.09,5.15,39.69,39.69,0,0,0-4,3.08,33.45,33.45,0,0,0-15.12-3.66,0.84,0.84,0,0,0,0,1.68,31.74,31.74,0,0,1,13.8,3.19,39.73,39.73,0,0,0-3.58,4,26.3,26.3,0,0,0-10.23-2.07,0.84,0.84,0,0,0,0,1.68,24.6,24.6,0,0,1,9.18,1.77q-0.87,1.21-1.65,2.49l-1.28,2.1a0.84,0.84,0,1,0,1.44.88l1.28-2.1a37.32,37.32,0,0,1,2.16-3.16Zm18.34-27.3a10.73,10.73,0,0,1,3.87-8,10.73,10.73,0,0,1,3.87,8,10.47,10.47,0,0,1-3,7.22V344.9a0.84,0.84,0,0,0-1.68,0v6.44A10.46,10.46,0,0,1,205.69,344.12ZM178,344.9a7.87,7.87,0,0,1,2.72-5.8,7.87,7.87,0,0,1,2.72,5.8,7.6,7.6,0,0,1-1.88,4.92v-5.59a0.84,0.84,0,0,0-1.68,0v5.59A7.6,7.6,0,0,1,178,344.9Zm23.17,6.53H193.9l-3-3.05h7.24Zm-12.3-2.7,2.69,2.7h-5.37ZM185,353.11h7.73v5.35l-1.18-.52v-2.82a0.84,0.84,0,0,0-.84-0.84H187a0.84,0.84,0,0,0-.84.84v1l-1.18-.29v-2.71Zm4.88,4.16q-1-.37-2-0.68V356h2v1.32Zm4.54,2v-6.17h7.93v4.73a39.46,39.46,0,0,0-4.21,2q-0.65.37-1.29,0.76Q195.62,359.92,194.39,359.28Z" transform="translate(-160.36 -334.14)"/><path class="cls-1" d="M206.69,342.55a0.84,0.84,0,1,0-.59-0.25A0.85,0.85,0,0,0,206.69,342.55Z" transform="translate(-160.36 -334.14)"/><path class="cls-1" d="M199.4,364.85a0.84,0.84,0,1,0,.59-0.25A0.85,0.85,0,0,0,199.4,364.85Z" transform="translate(-160.36 -334.14)"/></svg>