<svg id="Layer_1" data-name="Layer 1" xmlns="http://www.w3.org/2000/svg" viewBox="0 0 70.07 52.69"><defs><style>.cls-1{fill:#7e6bb0;}.cls-2{fill:none;stroke:#7e6bb0;stroke-miterlimit:10;stroke-width:0.75px;}</style></defs><title>Deporte</title><path class="cls-1" d="M665.75,189.05a4.45,4.45,0,0,1,1.54,1.89,6.94,6.94,0,0,1,0,5.32,4.45,4.45,0,0,1-1.54,1.89,4.17,4.17,0,0,1-2.42.7h-3.58a0.9,0.9,0,0,1-.92-0.92v-8.67a0.9,0.9,0,0,1,.92-0.92h3.58A4.17,4.17,0,0,1,665.75,189.05Zm-0.55,7.08a5,5,0,0,0,0-5.05,2.29,2.29,0,0,0-2-1H660.7v7.05h2.47A2.28,2.28,0,0,0,665.2,196.13Z" transform="translate(-655.68 -149.16)"/><path class="cls-1" d="M676.43,195.24a1,1,0,0,1-.63.23h-5a2.27,2.27,0,0,0,.83,1.39,2.3,2.3,0,0,0,1.46.5,3.2,3.2,0,0,0,1-.11,2.51,2.51,0,0,0,.55-0.24l0.28-.17a1.14,1.14,0,0,1,.51-0.13,0.73,0.73,0,0,1,.54.23,0.72,0.72,0,0,1,.23.52,0.94,0.94,0,0,1-.42.74,3.63,3.63,0,0,1-1.12.58,4.65,4.65,0,0,1-3.62-.29,3.66,3.66,0,0,1-1.45-1.45,4.22,4.22,0,0,1-.51-2.08,4.61,4.61,0,0,1,.54-2.26A3.82,3.82,0,0,1,671,191.2a3.67,3.67,0,0,1,1.89-.52,3.5,3.5,0,0,1,1.87.54,4,4,0,0,1,1.4,1.46,3.91,3.91,0,0,1,.52,2A0.76,0.76,0,0,1,676.43,195.24ZM670.87,194h3.93v-0.11a1.54,1.54,0,0,0-.62-1.08,1.94,1.94,0,0,0-1.26-.45A1.86,1.86,0,0,0,670.87,194Z" transform="translate(-655.68 -149.16)"/><path class="cls-1" d="M684.25,191.21a3.74,3.74,0,0,1,1.33,1.48,4.6,4.6,0,0,1,.49,2.15,4.71,4.71,0,0,1-.48,2.15,3.69,3.69,0,0,1-1.31,1.48,3.34,3.34,0,0,1-1.84.53,3.22,3.22,0,0,1-1.36-.29A3.6,3.6,0,0,1,680,198v2.94a0.9,0.9,0,0,1-.26.65,0.86,0.86,0,0,1-.64.26,0.87,0.87,0,0,1-.64-0.25,0.89,0.89,0,0,1-.26-0.66v-9.2a0.9,0.9,0,0,1,.26-0.65,0.92,0.92,0,0,1,1.29,0,0.9,0.9,0,0,1,.26.65v0.06a3.11,3.11,0,0,1,1-.79,2.87,2.87,0,0,1,1.35-.34A3.44,3.44,0,0,1,684.25,191.21Zm-0.53,5.42a2.95,2.95,0,0,0,0-3.59,2.12,2.12,0,0,0-3.17,0,2.64,2.64,0,0,0-.62,1.79,2.67,2.67,0,0,0,.62,1.8A2.1,2.1,0,0,0,683.72,196.64Z" transform="translate(-655.68 -149.16)"/><path class="cls-1" d="M694.73,197a3.82,3.82,0,0,1-1.48,1.48,4.33,4.33,0,0,1-4.13,0,3.82,3.82,0,0,1-1.47-1.48,4.57,4.57,0,0,1,0-4.3,3.88,3.88,0,0,1,1.47-1.49,4.28,4.28,0,0,1,4.13,0,3.88,3.88,0,0,1,1.48,1.49A4.57,4.57,0,0,1,694.73,197Zm-1.57-3.46a2.26,2.26,0,0,0-.82-0.89,2.24,2.24,0,0,0-2.29,0,2.24,2.24,0,0,0-.82.89,2.75,2.75,0,0,0-.31,1.31,2.7,2.7,0,0,0,.31,1.3,2.25,2.25,0,0,0,.82.88,2.24,2.24,0,0,0,2.29,0,2.27,2.27,0,0,0,.82-0.88,2.7,2.7,0,0,0,.31-1.3A2.75,2.75,0,0,0,693.16,193.54Z" transform="translate(-655.68 -149.16)"/><path class="cls-1" d="M701.7,190.94a0.76,0.76,0,0,1,.31.6,0.93,0.93,0,0,1-.24.7,0.79,0.79,0,0,1-.57.23,1.49,1.49,0,0,1-.51-0.11l-0.2-.06a1.21,1.21,0,0,0-.34,0,1.34,1.34,0,0,0-.75.24,1.76,1.76,0,0,0-.59.73,2.69,2.69,0,0,0-.23,1.16v3.55a0.9,0.9,0,0,1-.26.65,0.92,0.92,0,0,1-1.29,0,0.9,0.9,0,0,1-.26-0.65v-6.2a0.9,0.9,0,0,1,.26-0.65,0.92,0.92,0,0,1,1.29,0,0.9,0.9,0,0,1,.26.65v0.2a2.28,2.28,0,0,1,1-.94,3,3,0,0,1,1.38-.32A1.15,1.15,0,0,1,701.7,190.94Z" transform="translate(-655.68 -149.16)"/><path class="cls-1" d="M707.54,197.36a0.79,0.79,0,0,1,.17.53,0.8,0.8,0,0,1-.44.68,1.84,1.84,0,0,1-1,.28,2.91,2.91,0,0,1-1.57-.4,1.86,1.86,0,0,1-.64-1.69v-4.14h-0.69a0.82,0.82,0,0,1-.84-0.84,0.77,0.77,0,0,1,.24-0.58,0.83,0.83,0,0,1,.6-0.23h0.69v-1a0.9,0.9,0,0,1,.91-0.92,0.85,0.85,0,0,1,.63.26,0.9,0.9,0,0,1,.25.65v1h1.07a0.82,0.82,0,0,1,.84.84,0.77,0.77,0,0,1-.24.58,0.83,0.83,0,0,1-.6.23h-1.07v4.06a0.57,0.57,0,0,0,.17.46,0.66,0.66,0,0,0,.45.14,1.3,1.3,0,0,0,.33-0.06,0.9,0.9,0,0,1,.35-0.08A0.5,0.5,0,0,1,707.54,197.36Z" transform="translate(-655.68 -149.16)"/><path class="cls-1" d="M716.26,195.24a1,1,0,0,1-.63.23h-5a2.27,2.27,0,0,0,.83,1.39,2.3,2.3,0,0,0,1.46.5,3.2,3.2,0,0,0,1-.11,2.51,2.51,0,0,0,.55-0.24l0.28-.17a1.14,1.14,0,0,1,.51-0.13,0.73,0.73,0,0,1,.54.23,0.72,0.72,0,0,1,.23.52,0.94,0.94,0,0,1-.42.74,3.63,3.63,0,0,1-1.12.58,4.65,4.65,0,0,1-3.62-.29A3.66,3.66,0,0,1,709.4,197a4.22,4.22,0,0,1-.51-2.08,4.61,4.61,0,0,1,.54-2.26,3.82,3.82,0,0,1,1.43-1.49,3.67,3.67,0,0,1,1.89-.52,3.5,3.5,0,0,1,1.87.54,4,4,0,0,1,1.4,1.46,3.91,3.91,0,0,1,.52,2A0.76,0.76,0,0,1,716.26,195.24ZM710.69,194h3.93v-0.11a1.54,1.54,0,0,0-.62-1.08,1.94,1.94,0,0,0-1.26-.45A1.86,1.86,0,0,0,710.69,194Z" transform="translate(-655.68 -149.16)"/><path class="cls-2" d="M688,178.25A14.36,14.36,0,1,1,702.4,164,14.36,14.36,0,0,1,688,178.25Zm1.09-9,0.18,0a40.3,40.3,0,0,1,8.84,1.25,0.28,0.28,0,0,0,.36-0.17,12,12,0,0,0,1.57-4c0.09-.44.14-0.89,0.21-1.35H689.1v4.24Zm-2.14,0V165H675.83a12.1,12.1,0,0,0,1.86,5.5A41.11,41.11,0,0,1,687,169.22Zm0-6.39v-4.21l-0.21,0a40.57,40.57,0,0,1-8.85-1.23,0.28,0.28,0,0,0-.36.18A12.22,12.22,0,0,0,676,161.6c-0.08.4-.12,0.81-0.17,1.23H687Zm13.25,0a1,1,0,0,0,0-.16,12.26,12.26,0,0,0-1.75-5.19,0.28,0.28,0,0,0-.39-0.09,39.05,39.05,0,0,1-7,1.1l-2,.12v4.23h11.11Zm-21.12-7.33a38.79,38.79,0,0,0,7.86,1v-4.81A12.34,12.34,0,0,0,679.11,155.5Zm0,16.77c1.2,1.8,5.85,4,7.81,3.78v-4.74A39.43,39.43,0,0,0,679.15,172.27Zm10-15.8a33.57,33.57,0,0,0,7.78-1c-1.37-1.84-5.78-4-7.78-3.74v4.74Zm0,19.64a12.28,12.28,0,0,0,7.82-3.77,38.74,38.74,0,0,0-7.82-1v4.78Z" transform="translate(-655.68 -149.16)"/><path class="cls-2" d="M689.1,169.21V165h11.16c-0.07.45-.12,0.9-0.21,1.35a12,12,0,0,1-1.57,4,0.28,0.28,0,0,1-.36.17,40.3,40.3,0,0,0-8.84-1.25Z" transform="translate(-655.68 -149.16)"/><path class="cls-2" d="M687,169.22a41.11,41.11,0,0,0-9.27,1.25,12.1,12.1,0,0,1-1.86-5.5H687v4.25Z" transform="translate(-655.68 -149.16)"/><path class="cls-2" d="M687,162.83H675.82c0.06-.42.1-0.83,0.17-1.23a12.22,12.22,0,0,1,1.56-4.06,0.28,0.28,0,0,1,.36-0.18,40.57,40.57,0,0,0,8.85,1.23l0.21,0v4.21Z" transform="translate(-655.68 -149.16)"/><path class="cls-2" d="M700.22,162.83H689.11v-4.23l2-.12a39.05,39.05,0,0,0,7-1.1,0.28,0.28,0,0,1,.39.09,12.26,12.26,0,0,1,1.75,5.19A1,1,0,0,1,700.22,162.83Z" transform="translate(-655.68 -149.16)"/><path class="cls-2" d="M679.11,155.5a12.34,12.34,0,0,1,7.86-3.82v4.81A38.79,38.79,0,0,1,679.11,155.5Z" transform="translate(-655.68 -149.16)"/><path class="cls-2" d="M679.15,172.27a39.43,39.43,0,0,1,7.81-1v4.74C685,176.32,680.36,174.08,679.15,172.27Z" transform="translate(-655.68 -149.16)"/><path class="cls-2" d="M689.11,156.47v-4.74c2-.23,6.41,1.9,7.78,3.74A33.57,33.57,0,0,1,689.11,156.47Z" transform="translate(-655.68 -149.16)"/><path class="cls-2" d="M689.11,176.11v-4.78a38.74,38.74,0,0,1,7.82,1A12.28,12.28,0,0,1,689.11,176.11Z" transform="translate(-655.68 -149.16)"/><path class="cls-2" d="M664.44,181.93a8.42,8.42,0,1,1,8.45-8.42A8.42,8.42,0,0,1,664.44,181.93Zm4.19-3.67a11.1,11.1,0,0,1-1.87-10.61,6.18,6.18,0,0,0-6.31,1,11.06,11.06,0,0,1,2,10.79A6.2,6.2,0,0,0,668.63,178.25Zm-8.13.13a8.59,8.59,0,0,0-1.46-8A6.18,6.18,0,0,0,660.5,178.38Zm8.11-9.62a8.92,8.92,0,0,0,1.37,7.78A6.2,6.2,0,0,0,668.61,168.76Z" transform="translate(-655.68 -149.16)"/><path class="cls-2" d="M668.63,178.25a6.2,6.2,0,0,1-6.22,1.21,11.06,11.06,0,0,0-2-10.79,6.18,6.18,0,0,1,6.31-1A11.1,11.1,0,0,0,668.63,178.25Z" transform="translate(-655.68 -149.16)"/><path class="cls-2" d="M660.5,178.38a6.18,6.18,0,0,1-1.46-8A8.59,8.59,0,0,1,660.5,178.38Z" transform="translate(-655.68 -149.16)"/><path class="cls-2" d="M668.61,168.76a6.2,6.2,0,0,1,1.37,7.78A8.92,8.92,0,0,1,668.61,168.76Z" transform="translate(-655.68 -149.16)"/><path class="cls-2" d="M720.11,178.88a19.19,19.19,0,0,1-6.49,4.35,11.65,11.65,0,0,1-5,.89,6.44,6.44,0,0,1-4.52-2,6.35,6.35,0,0,1-1.61-3.55,10.14,10.14,0,0,1,.33-4.1,17.85,17.85,0,0,1,4.3-7.43,19.76,19.76,0,0,1,5.6-4.28,12.92,12.92,0,0,1,6.08-1.56,6.84,6.84,0,0,1,3.92,1.19,6.07,6.07,0,0,1,2.49,3.88,9.77,9.77,0,0,1-.18,4.36,14.84,14.84,0,0,1-1.6,3.94A20.15,20.15,0,0,1,720.11,178.88Zm-15.32,1.88,0.18-.18c0.9-.9,1.8-1.8,2.7-2.69a1,1,0,0,1,.42-0.24,0.66,0.66,0,0,1,.73.35,0.67,0.67,0,0,1-.13.82L706,181.56l-0.17.17,0.12,0.09,0.14,0.1a5.78,5.78,0,0,0,3.28.81,12.29,12.29,0,0,0,5.95-1.86,19.11,19.11,0,0,0,6.56-6.37,14,14,0,0,0,1.94-4.66,7.61,7.61,0,0,0-.1-3.94,4.41,4.41,0,0,0-.7-1.36l-0.18.18-2.61,2.61a1.17,1.17,0,0,1-.23.19,0.69,0.69,0,0,1-.81-1.11l2.14-2.14,0.73-.73c-0.3-.17-0.56-0.33-0.83-0.46a6.77,6.77,0,0,0-3.87-.42,13.82,13.82,0,0,0-5.51,2.19,19.2,19.2,0,0,0-4.67,4.26,15.74,15.74,0,0,0-2.94,5.56,8.75,8.75,0,0,0-.26,4.09A5,5,0,0,0,704.79,180.76Z" transform="translate(-655.68 -149.16)"/><path class="cls-2" d="M713,172.52l0.52-.52-0.53-.53a0.69,0.69,0,0,1-.05-1,0.71,0.71,0,0,1,1,0l0.53,0.53,0.51-.51L714.5,170a0.71,0.71,0,0,1,0-1,0.7,0.7,0,0,1,1,.06l0.53,0.53c0.23-.23.44-0.45,0.67-0.67a0.69,0.69,0,0,1,1.08.15,0.67,0.67,0,0,1-.1.82l-0.67.68c0.2,0.2.41,0.4,0.6,0.6a0.69,0.69,0,0,1-.31,1.14,0.67,0.67,0,0,1-.7-0.18l-0.56-.56-0.51.51c0.19,0.19.38,0.37,0.56,0.56a0.69,0.69,0,0,1-.23,1.15,0.65,0.65,0,0,1-.74-0.15l-0.58-.58-0.52.52c0.2,0.2.4,0.39,0.59,0.6a0.69,0.69,0,0,1-.74,1.11,1.14,1.14,0,0,1-.32-0.22c-0.18-.16-0.34-0.33-0.52-0.51l-0.51.51,0.52,0.52a0.7,0.7,0,1,1-1,1l-0.53-.53-0.63.63a0.67,0.67,0,0,1-.8.12,0.66,0.66,0,0,1-.36-0.71,1,1,0,0,1,.22-0.41c0.18-.21.38-0.39,0.6-0.61l-0.53-.53a0.7,0.7,0,1,1,1-1l0.53,0.53,0.51-.51c-0.19-.19-0.38-0.37-0.56-0.57a0.69,0.69,0,0,1,.14-1.1,0.66,0.66,0,0,1,.8.09C712.62,172.11,712.81,172.31,713,172.52Z" transform="translate(-655.68 -149.16)"/></svg>