<svg id="Layer_1" data-name="Layer 1" xmlns="http://www.w3.org/2000/svg" viewBox="0 0 30.75 57.06"><defs><style>.cls-1{fill:#7e6bb0;}</style></defs><title>Dios</title><path class="cls-1" d="M328.63,85a4.44,4.44,0,0,1,1.54,1.89,6.92,6.92,0,0,1,0,5.32,4.44,4.44,0,0,1-1.54,1.89,4.17,4.17,0,0,1-2.42.7h-3.58a0.9,0.9,0,0,1-.92-0.92V85.19a0.9,0.9,0,0,1,.92-0.92h3.58A4.17,4.17,0,0,1,328.63,85Zm-0.55,7.08a5,5,0,0,0,0-5.05,2.29,2.29,0,0,0-2-1h-2.47v7.05h2.47A2.28,2.28,0,0,0,328.08,92.06Z" transform="translate(-320.51 -37.87)"/><path class="cls-1" d="M332.34,85.61a0.7,0.7,0,0,1-.21-0.58V84.74a0.68,0.68,0,0,1,.22-0.58,1.69,1.69,0,0,1,1.46,0,0.71,0.71,0,0,1,.21.58V85a0.69,0.69,0,0,1-.22.59,1.31,1.31,0,0,1-.74.16A1.19,1.19,0,0,1,332.34,85.61Zm1.38,8.9a0.92,0.92,0,0,1-1.29,0,0.9,0.9,0,0,1-.25-0.65v-6.2a0.9,0.9,0,0,1,.25-0.65,0.92,0.92,0,0,1,1.29,0,0.9,0.9,0,0,1,.25.65v6.2A0.9,0.9,0,0,1,333.72,94.52Z" transform="translate(-320.51 -37.87)"/><path class="cls-1" d="M343,92.93a3.81,3.81,0,0,1-1.48,1.48,4.33,4.33,0,0,1-4.13,0,3.82,3.82,0,0,1-1.47-1.48,4.56,4.56,0,0,1,0-4.3,3.88,3.88,0,0,1,1.47-1.49,4.28,4.28,0,0,1,4.13,0A3.87,3.87,0,0,1,343,88.62,4.56,4.56,0,0,1,343,92.93Zm-1.57-3.46a2.26,2.26,0,0,0-.82-0.89,2.25,2.25,0,0,0-2.3,0,2.26,2.26,0,0,0-.82.89,2.75,2.75,0,0,0-.31,1.31,2.7,2.7,0,0,0,.31,1.3,2.27,2.27,0,0,0,.82.88,2.25,2.25,0,0,0,2.3,0,2.28,2.28,0,0,0,.82-0.88,2.7,2.7,0,0,0,.31-1.3A2.75,2.75,0,0,0,341.42,89.46Z" transform="translate(-320.51 -37.87)"/><path class="cls-1" d="M344.43,93.08a0.85,0.85,0,0,1,.83-0.79,0.85,0.85,0,0,1,.6.29,3.16,3.16,0,0,0,.94.69,2.81,2.81,0,0,0,1.18.22q1.17,0,1.17-.88a0.72,0.72,0,0,0-.4-0.66,5.61,5.61,0,0,0-1.24-.45,10.75,10.75,0,0,1-1.42-.48,2.5,2.5,0,0,1-.94-0.73,2,2,0,0,1-.4-1.31,2,2,0,0,1,.41-1.25,2.72,2.72,0,0,1,1.08-.83,3.5,3.5,0,0,1,1.42-.29,4.34,4.34,0,0,1,1.53.29,2.66,2.66,0,0,1,1.2.84,0.84,0.84,0,0,1,.2.54,0.7,0.7,0,0,1-.29.57,0.75,0.75,0,0,1-.48.17,0.73,0.73,0,0,1-.54-0.21,1.9,1.9,0,0,0-.7-0.52,2.31,2.31,0,0,0-1-.2q-1.14,0-1.14.83a0.7,0.7,0,0,0,.21.53,1.44,1.44,0,0,0,.53.32L348.12,90a9.83,9.83,0,0,1,1.35.46,2.32,2.32,0,0,1,.92.74,2.1,2.1,0,0,1,.38,1.3,2,2,0,0,1-.44,1.28,2.76,2.76,0,0,1-1.12.83,3.61,3.61,0,0,1-1.4.29A5.08,5.08,0,0,1,346,94.6a3.06,3.06,0,0,1-1.4-1.07A0.73,0.73,0,0,1,344.43,93.08Z" transform="translate(-320.51 -37.87)"/><path class="cls-1" d="M335.88,37.87a15.37,15.37,0,0,0-11.22,25.88v1.63a8.24,8.24,0,0,0,8.23,8.23h6a8.24,8.24,0,0,0,8.23-8.23V63.75A15.37,15.37,0,0,0,335.88,37.87Zm8.73,27.51a5.74,5.74,0,0,1-5.74,5.74h-6a5.74,5.74,0,0,1-5.74-5.74V65A8.23,8.23,0,0,0,330.81,67l1.08,0.28,0.4-1a2.28,2.28,0,0,1,2.12-1.46h3a2.28,2.28,0,0,1,2.12,1.46l0.4,1L341,67A8.23,8.23,0,0,0,344.61,65v0.42h0Zm-16-10.06a8.55,8.55,0,0,0,7.3-4.1,8.55,8.55,0,0,0,7.3,4.1h1.43v3.74a5.74,5.74,0,0,1-3.39,5.23,4.79,4.79,0,0,0-3.86-2h-3a4.79,4.79,0,0,0-3.86,2,5.74,5.74,0,0,1-3.39-5.23V55.33h1.43Zm-1.42-2.49a5.74,5.74,0,0,1,5.72-5.32h1.7a6.06,6.06,0,0,1-6,5.32h-1.42Zm10-5.32h1.7a5.74,5.74,0,0,1,5.72,5.32h-1.42A6.06,6.06,0,0,1,337.18,47.51Zm1.7-2.49h-6a8.24,8.24,0,0,0-8.23,8.23v6.32a12.88,12.88,0,1,1,22.44,0V53.25A8.24,8.24,0,0,0,338.88,45Z" transform="translate(-320.51 -37.87)"/><circle class="cls-1" cx="9.74" cy="20.34" r="1.54"/><circle class="cls-1" cx="21.01" cy="20.34" r="1.54"/></svg>