<svg id="Layer_1" data-name="Layer 1" xmlns="http://www.w3.org/2000/svg" viewBox="0 0 69.93 79.16"><defs><style>.cls-1{fill:#7e6bb0;}</style></defs><title>Espacios culturales</title><path class="cls-1" d="M289.4,391.78a0.84,0.84,0,0,1,.26.61,0.79,0.79,0,0,1-.26.62,0.93,0.93,0,0,1-.65.24h-5a0.9,0.9,0,0,1-.92-0.92v-8.67a0.9,0.9,0,0,1,.92-0.92h5a0.92,0.92,0,0,1,.65.25,0.84,0.84,0,0,1,.26.64,0.78,0.78,0,0,1-.26.61,0.94,0.94,0,0,1-.66.23h-4.07V387h3.39a0.92,0.92,0,0,1,.65.25,0.84,0.84,0,0,1,.26.64,0.78,0.78,0,0,1-.25.61,0.94,0.94,0,0,1-.66.23h-3.39v2.78h4.07A0.89,0.89,0,0,1,289.4,391.78Z" transform="translate(-277.83 -332.23)"/><path class="cls-1" d="M290.64,391.55a0.85,0.85,0,0,1,.83-0.79,0.85,0.85,0,0,1,.6.29,3.16,3.16,0,0,0,.94.69,2.81,2.81,0,0,0,1.18.22q1.17,0,1.17-.88a0.72,0.72,0,0,0-.4-0.66,5.61,5.61,0,0,0-1.24-.45,10.75,10.75,0,0,1-1.42-.48,2.5,2.5,0,0,1-.94-0.73,2,2,0,0,1-.4-1.31,2,2,0,0,1,.41-1.25,2.72,2.72,0,0,1,1.08-.83,3.5,3.5,0,0,1,1.42-.29,4.34,4.34,0,0,1,1.53.29,2.66,2.66,0,0,1,1.2.84,0.84,0.84,0,0,1,.2.54,0.7,0.7,0,0,1-.29.57,0.75,0.75,0,0,1-.48.17,0.73,0.73,0,0,1-.54-0.21,1.9,1.9,0,0,0-.7-0.52,2.31,2.31,0,0,0-1-.2q-1.14,0-1.14.83a0.7,0.7,0,0,0,.21.53,1.44,1.44,0,0,0,.53.32l0.91,0.28a9.83,9.83,0,0,1,1.35.46,2.32,2.32,0,0,1,.92.74A2.1,2.1,0,0,1,297,391a2,2,0,0,1-.44,1.28,2.76,2.76,0,0,1-1.12.83,3.61,3.61,0,0,1-1.4.29,5.08,5.08,0,0,1-1.84-.33,3.06,3.06,0,0,1-1.4-1.07A0.73,0.73,0,0,1,290.64,391.55Z" transform="translate(-277.83 -332.23)"/><path class="cls-1" d="M304.5,385.6a3.73,3.73,0,0,1,1.33,1.48,4.61,4.61,0,0,1,.49,2.15,4.71,4.71,0,0,1-.48,2.15,3.69,3.69,0,0,1-1.31,1.48,3.34,3.34,0,0,1-1.84.53,3.22,3.22,0,0,1-1.36-.29,3.59,3.59,0,0,1-1.06-.71v2.94a0.9,0.9,0,0,1-.26.65,0.86,0.86,0,0,1-.64.26,0.87,0.87,0,0,1-.64-0.25,0.89,0.89,0,0,1-.26-0.66v-9.2a0.9,0.9,0,0,1,.26-0.65,0.92,0.92,0,0,1,1.29,0,0.9,0.9,0,0,1,.26.65v0.06a3.1,3.1,0,0,1,1-.79,2.88,2.88,0,0,1,1.35-.34A3.43,3.43,0,0,1,304.5,385.6ZM304,391a2.95,2.95,0,0,0,0-3.59,2.12,2.12,0,0,0-3.17,0,2.64,2.64,0,0,0-.62,1.79,2.67,2.67,0,0,0,.62,1.8A2.1,2.1,0,0,0,304,391Z" transform="translate(-277.83 -332.23)"/><path class="cls-1" d="M315,385.32a0.89,0.89,0,0,1,.25.66v6.34a0.9,0.9,0,0,1-.25.65,0.86,0.86,0,0,1-.65.26,0.85,0.85,0,0,1-.64-0.25,1,1,0,0,1-.26-0.65,3.25,3.25,0,0,1-2.36,1.05,3.43,3.43,0,0,1-1.87-.53,3.73,3.73,0,0,1-1.33-1.48,4.61,4.61,0,0,1-.49-2.14,4.71,4.71,0,0,1,.48-2.15,3.7,3.7,0,0,1,1.31-1.49,3.35,3.35,0,0,1,1.84-.53,3.48,3.48,0,0,1,1.35.26,3.55,3.55,0,0,1,1.07.67h0a0.9,0.9,0,0,1,.25-0.65,0.86,0.86,0,0,1,.64-0.26A0.88,0.88,0,0,1,315,385.32ZM312.87,391a2.65,2.65,0,0,0,.61-1.79,2.68,2.68,0,0,0-.61-1.8,2.1,2.1,0,0,0-3.17,0,2.94,2.94,0,0,0,0,3.59,2,2,0,0,0,1.58.71A2,2,0,0,0,312.87,391Z" transform="translate(-277.83 -332.23)"/><path class="cls-1" d="M322.71,385.47a1.19,1.19,0,0,1,.78,1.06,0.91,0.91,0,0,1-.19.58,0.62,0.62,0,0,1-.51.25,1,1,0,0,1-.39-0.07,1.39,1.39,0,0,1-.29-0.18,2,2,0,0,0-.28-0.19,1.88,1.88,0,0,0-.44-0.13,2.47,2.47,0,0,0-.47-0.06,2.26,2.26,0,0,0-1.76.7,2.87,2.87,0,0,0,0,3.61,2.12,2.12,0,0,0,1.65.71,2.55,2.55,0,0,0,1.09-.18l0.25-.16a1.73,1.73,0,0,1,.29-0.17,0.81,0.81,0,0,1,.33-0.06,0.76,0.76,0,0,1,.59.24,0.88,0.88,0,0,1,.22.62,0.87,0.87,0,0,1-.42.67,3.26,3.26,0,0,1-1.11.5,5.59,5.59,0,0,1-1.47.19,3.8,3.8,0,0,1-2-.54,3.63,3.63,0,0,1-1.36-1.49,4.64,4.64,0,0,1-.48-2.12,4.53,4.53,0,0,1,.5-2.16,3.7,3.7,0,0,1,1.4-1.48,3.94,3.94,0,0,1,2-.53A4.55,4.55,0,0,1,322.71,385.47Z" transform="translate(-277.83 -332.23)"/><path class="cls-1" d="M324.95,384.08a0.7,0.7,0,0,1-.21-0.58v-0.29a0.68,0.68,0,0,1,.22-0.58,1.69,1.69,0,0,1,1.46,0,0.71,0.71,0,0,1,.21.58v0.29a0.69,0.69,0,0,1-.22.59,1.31,1.31,0,0,1-.74.16A1.19,1.19,0,0,1,324.95,384.08Zm1.38,8.9a0.92,0.92,0,0,1-1.29,0,0.9,0.9,0,0,1-.25-0.65v-6.2a0.9,0.9,0,0,1,.25-0.65,0.92,0.92,0,0,1,1.29,0,0.9,0.9,0,0,1,.25.65v6.2A0.9,0.9,0,0,1,326.33,393Z" transform="translate(-277.83 -332.23)"/><path class="cls-1" d="M335.6,391.39a3.81,3.81,0,0,1-1.48,1.48,4.33,4.33,0,0,1-4.13,0,3.82,3.82,0,0,1-1.47-1.48,4.56,4.56,0,0,1,0-4.3A3.88,3.88,0,0,1,330,385.6a4.28,4.28,0,0,1,4.13,0,3.87,3.87,0,0,1,1.48,1.49A4.56,4.56,0,0,1,335.6,391.39ZM334,387.93a2.26,2.26,0,0,0-.82-0.89,2.25,2.25,0,0,0-2.3,0,2.26,2.26,0,0,0-.82.89,2.75,2.75,0,0,0-.31,1.31,2.7,2.7,0,0,0,.31,1.3,2.27,2.27,0,0,0,.82.88,2.25,2.25,0,0,0,2.3,0,2.28,2.28,0,0,0,.82-0.88,2.7,2.7,0,0,0,.31-1.3A2.75,2.75,0,0,0,334,387.93Z" transform="translate(-277.83 -332.23)"/><path class="cls-1" d="M337,391.55a0.85,0.85,0,0,1,.83-0.79,0.85,0.85,0,0,1,.6.29,3.16,3.16,0,0,0,.94.69,2.81,2.81,0,0,0,1.18.22q1.17,0,1.17-.88a0.72,0.72,0,0,0-.4-0.66,5.61,5.61,0,0,0-1.24-.45,10.75,10.75,0,0,1-1.42-.48,2.5,2.5,0,0,1-.94-0.73,2,2,0,0,1-.4-1.31,2,2,0,0,1,.41-1.25,2.72,2.72,0,0,1,1.08-.83,3.5,3.5,0,0,1,1.42-.29,4.34,4.34,0,0,1,1.53.29,2.66,2.66,0,0,1,1.2.84,0.84,0.84,0,0,1,.2.54,0.7,0.7,0,0,1-.29.57,0.75,0.75,0,0,1-.48.17,0.73,0.73,0,0,1-.54-0.21,1.9,1.9,0,0,0-.7-0.52,2.31,2.31,0,0,0-1-.2q-1.14,0-1.14.83a0.7,0.7,0,0,0,.21.53,1.44,1.44,0,0,0,.53.32l0.91,0.28a9.83,9.83,0,0,1,1.35.46,2.32,2.32,0,0,1,.92.74,2.1,2.1,0,0,1,.38,1.3,2,2,0,0,1-.44,1.28,2.76,2.76,0,0,1-1.12.83,3.61,3.61,0,0,1-1.4.29,5.08,5.08,0,0,1-1.84-.33,3.06,3.06,0,0,1-1.4-1.07A0.73,0.73,0,0,1,337,391.55Z" transform="translate(-277.83 -332.23)"/><path class="cls-1" d="M283.83,403.47a1.19,1.19,0,0,1,.78,1.06,0.91,0.91,0,0,1-.19.58,0.62,0.62,0,0,1-.51.25,1,1,0,0,1-.39-0.07,1.39,1.39,0,0,1-.29-0.18,2,2,0,0,0-.28-0.19,1.88,1.88,0,0,0-.44-0.13,2.47,2.47,0,0,0-.47-0.06,2.26,2.26,0,0,0-1.76.7,2.87,2.87,0,0,0,0,3.61,2.12,2.12,0,0,0,1.65.71,2.55,2.55,0,0,0,1.09-.18l0.25-.16a1.73,1.73,0,0,1,.29-0.17,0.81,0.81,0,0,1,.33-0.06,0.76,0.76,0,0,1,.59.24,0.88,0.88,0,0,1,.22.62,0.87,0.87,0,0,1-.42.67,3.26,3.26,0,0,1-1.11.5,5.59,5.59,0,0,1-1.47.19,3.8,3.8,0,0,1-2-.54,3.63,3.63,0,0,1-1.36-1.49,4.64,4.64,0,0,1-.48-2.12,4.53,4.53,0,0,1,.5-2.16,3.7,3.7,0,0,1,1.4-1.48,3.94,3.94,0,0,1,2-.53A4.55,4.55,0,0,1,283.83,403.47Z" transform="translate(-277.83 -332.23)"/><path class="cls-1" d="M292.6,403.48a0.9,0.9,0,0,1,.25.65v3.81a3.48,3.48,0,0,1-.89,2.54,4,4,0,0,1-5.08,0,3.49,3.49,0,0,1-.89-2.54v-3.81a0.9,0.9,0,0,1,.26-0.65,0.92,0.92,0,0,1,1.29,0,0.9,0.9,0,0,1,.26.65v3.81a2,2,0,0,0,.4,1.36,1.57,1.57,0,0,0,1.21.44,1.59,1.59,0,0,0,1.23-.44,2,2,0,0,0,.41-1.36v-3.81a0.9,0.9,0,0,1,.25-0.65A0.92,0.92,0,0,1,292.6,403.48Z" transform="translate(-277.83 -332.23)"/><path class="cls-1" d="M296.49,411a0.89,0.89,0,0,1-.65.26,0.84,0.84,0,0,1-.63-0.26,0.9,0.9,0,0,1-.25-0.65v-9.27a0.9,0.9,0,0,1,.92-0.92,0.84,0.84,0,0,1,.63.26,0.9,0.9,0,0,1,.25.65v9.27A0.89,0.89,0,0,1,296.49,411Z" transform="translate(-277.83 -332.23)"/><path class="cls-1" d="M303.06,409.75a0.79,0.79,0,0,1,.17.53,0.8,0.8,0,0,1-.44.68,1.84,1.84,0,0,1-1,.28,2.91,2.91,0,0,1-1.57-.4,1.85,1.85,0,0,1-.64-1.69V405H298.9a0.82,0.82,0,0,1-.84-0.84,0.77,0.77,0,0,1,.24-0.58,0.83,0.83,0,0,1,.6-0.23h0.69v-1a0.9,0.9,0,0,1,.92-0.92,0.84,0.84,0,0,1,.63.26,0.9,0.9,0,0,1,.25.65v1h1.07a0.82,0.82,0,0,1,.84.84,0.77,0.77,0,0,1-.24.58,0.83,0.83,0,0,1-.6.23h-1.07v4.06a0.58,0.58,0,0,0,.17.46,0.67,0.67,0,0,0,.45.14,1.3,1.3,0,0,0,.33-0.06,0.9,0.9,0,0,1,.34-0.08A0.5,0.5,0,0,1,303.06,409.75Z" transform="translate(-277.83 -332.23)"/><path class="cls-1" d="M311.54,403.48a0.9,0.9,0,0,1,.25.65v3.81a3.48,3.48,0,0,1-.89,2.54,4,4,0,0,1-5.08,0,3.49,3.49,0,0,1-.89-2.54v-3.81a0.9,0.9,0,0,1,.26-0.65,0.92,0.92,0,0,1,1.29,0,0.9,0.9,0,0,1,.26.65v3.81a2,2,0,0,0,.4,1.36,1.57,1.57,0,0,0,1.21.44,1.59,1.59,0,0,0,1.23-.44,2,2,0,0,0,.41-1.36v-3.81a0.9,0.9,0,0,1,.25-0.65A0.92,0.92,0,0,1,311.54,403.48Z" transform="translate(-277.83 -332.23)"/><path class="cls-1" d="M318.68,403.32a0.76,0.76,0,0,1,.31.6,0.93,0.93,0,0,1-.24.7,0.79,0.79,0,0,1-.57.23,1.49,1.49,0,0,1-.51-0.11l-0.2-.06a1.22,1.22,0,0,0-.34,0,1.34,1.34,0,0,0-.75.24,1.76,1.76,0,0,0-.59.73,2.68,2.68,0,0,0-.23,1.16v3.55a0.9,0.9,0,0,1-.26.65,0.92,0.92,0,0,1-1.29,0,0.9,0.9,0,0,1-.26-0.65v-6.2a0.9,0.9,0,0,1,.26-0.65,0.92,0.92,0,0,1,1.29,0,0.9,0.9,0,0,1,.26.65v0.2a2.27,2.27,0,0,1,1-.94,3,3,0,0,1,1.38-.32A1.15,1.15,0,0,1,318.68,403.32Z" transform="translate(-277.83 -332.23)"/><path class="cls-1" d="M327.22,403.32a0.89,0.89,0,0,1,.25.66v6.34a0.9,0.9,0,0,1-.25.65,0.86,0.86,0,0,1-.65.26,0.85,0.85,0,0,1-.64-0.25,1,1,0,0,1-.26-0.65,3.25,3.25,0,0,1-2.36,1.05,3.43,3.43,0,0,1-1.87-.53,3.73,3.73,0,0,1-1.33-1.48,4.61,4.61,0,0,1-.49-2.14,4.71,4.71,0,0,1,.48-2.15,3.7,3.7,0,0,1,1.31-1.49,3.35,3.35,0,0,1,1.84-.53,3.48,3.48,0,0,1,1.35.26,3.55,3.55,0,0,1,1.07.67h0a0.9,0.9,0,0,1,.25-0.65,0.86,0.86,0,0,1,.64-0.26A0.88,0.88,0,0,1,327.22,403.32ZM325.13,409a2.65,2.65,0,0,0,.61-1.79,2.68,2.68,0,0,0-.61-1.8,2.1,2.1,0,0,0-3.17,0,2.94,2.94,0,0,0,0,3.59,2,2,0,0,0,1.58.71A2,2,0,0,0,325.13,409Z" transform="translate(-277.83 -332.23)"/><path class="cls-1" d="M331.11,411a0.89,0.89,0,0,1-.65.26,0.84,0.84,0,0,1-.63-0.26,0.9,0.9,0,0,1-.25-0.65v-9.27a0.9,0.9,0,0,1,.92-0.92,0.84,0.84,0,0,1,.63.26,0.9,0.9,0,0,1,.25.65v9.27A0.89,0.89,0,0,1,331.11,411Z" transform="translate(-277.83 -332.23)"/><path class="cls-1" d="M340.24,407.63a1,1,0,0,1-.63.23h-5a2.26,2.26,0,0,0,.83,1.39,2.3,2.3,0,0,0,1.46.5,3.22,3.22,0,0,0,1-.11,2.5,2.5,0,0,0,.55-0.24l0.28-.17a1.14,1.14,0,0,1,.51-0.13,0.73,0.73,0,0,1,.54.23,0.72,0.72,0,0,1,.23.52,0.94,0.94,0,0,1-.42.74,3.6,3.6,0,0,1-1.12.58,4.65,4.65,0,0,1-3.62-.29,3.66,3.66,0,0,1-1.45-1.45,4.22,4.22,0,0,1-.51-2.08,4.6,4.6,0,0,1,.54-2.26,3.82,3.82,0,0,1,1.42-1.49,3.68,3.68,0,0,1,1.89-.52,3.5,3.5,0,0,1,1.87.54,4,4,0,0,1,1.4,1.46,3.91,3.91,0,0,1,.52,2A0.77,0.77,0,0,1,340.24,407.63Zm-5.56-1.27h3.93v-0.11a1.55,1.55,0,0,0-.62-1.08,2,2,0,0,0-1.26-.45A1.86,1.86,0,0,0,334.67,406.35Z" transform="translate(-277.83 -332.23)"/><path class="cls-1" d="M341.42,409.55a0.85,0.85,0,0,1,.83-0.79,0.85,0.85,0,0,1,.6.29,3.16,3.16,0,0,0,.94.69A2.81,2.81,0,0,0,345,410q1.17,0,1.17-.88a0.72,0.72,0,0,0-.4-0.66,5.61,5.61,0,0,0-1.24-.45,10.75,10.75,0,0,1-1.42-.48,2.5,2.5,0,0,1-.94-0.73,2,2,0,0,1-.4-1.31,2,2,0,0,1,.41-1.25,2.72,2.72,0,0,1,1.08-.83,3.5,3.5,0,0,1,1.42-.29,4.34,4.34,0,0,1,1.53.29,2.66,2.66,0,0,1,1.2.84,0.84,0.84,0,0,1,.2.54,0.7,0.7,0,0,1-.29.57,0.75,0.75,0,0,1-.48.17,0.73,0.73,0,0,1-.54-0.21,1.9,1.9,0,0,0-.7-0.52,2.31,2.31,0,0,0-1-.2q-1.14,0-1.14.83a0.7,0.7,0,0,0,.21.53,1.44,1.44,0,0,0,.53.32l0.91,0.28a9.83,9.83,0,0,1,1.35.46,2.32,2.32,0,0,1,.92.74,2.1,2.1,0,0,1,.38,1.3,2,2,0,0,1-.44,1.28,2.76,2.76,0,0,1-1.12.83,3.61,3.61,0,0,1-1.4.29,5.08,5.08,0,0,1-1.84-.33,3.06,3.06,0,0,1-1.4-1.07A0.73,0.73,0,0,1,341.42,409.55Z" transform="translate(-277.83 -332.23)"/><path class="cls-1" d="M332.91,338.61c-2.54-2.54-7.22-4.45-10.46-5.32a31.41,31.41,0,0,0-7.77-1.06,15.47,15.47,0,0,0-3.94.44,0.8,0.8,0,0,0-.56.56c-0.23.87-.43,1.78-0.6,2.71V336a38.23,38.23,0,0,0-.33,11.14,32.1,32.1,0,0,0-6.11,1c-3.24.87-7.92,2.78-10.46,5.32a0.8,0.8,0,0,0-.21.77c0.25,0.95.56,1.91,0.92,2.88h0a38.15,38.15,0,0,0,5,9.38c2.18,2.92,5.62,6.4,9.6,6.4a6.54,6.54,0,0,0,1.69-.22c2.43-.65,4.34-2.68,5.52-5.86a26.52,26.52,0,0,0,1.4-8.87,6.54,6.54,0,0,0,1,.07c4,0,7.42-3.48,9.6-6.4a38,38,0,0,0,5.95-12.27A0.8,0.8,0,0,0,332.91,338.61Zm-23.62,32.57a5,5,0,0,1-1.28.17c-2.59,0-5.55-2-8.32-5.76a36.35,36.35,0,0,1-4.61-8.46c0.43-.33,1.11-0.85,1.82-1.33a0.8,0.8,0,1,0-.89-1.32c-0.55.37-1.08,0.76-1.5,1.08q-0.21-.62-0.38-1.24a25,25,0,0,1,9.41-4.59,30.41,30.41,0,0,1,6-1,19.61,19.61,0,0,0,1,3.59h0l0.13,0.3v0a12.93,12.93,0,0,0,.72,1.43v0h0l0,0.08,0.1,0.16,0.06,0.1,0.14,0.21,0.07,0.1,0.14,0.2,0.06,0.08,0.16,0.21,0,0,0.32,0.38a2.55,2.55,0,0,1-4.2-.31,0.8,0.8,0,1,0-1.38.8,4.14,4.14,0,0,0,6.75.6,6.73,6.73,0,0,0,.81.51l0,0,0.22,0.11,0.06,0,0.22,0.1h0C315.05,363.48,313.57,370,309.29,371.18ZM325.9,350.7c-2.78,3.72-5.73,5.76-8.32,5.76a5,5,0,0,1-1.28-.17l-0.23-.07h0c-3.44-1.11-4.69-5.75-5.12-8.42v0l0-.14a35.79,35.79,0,0,1,.13-10.81c0.54-.07,1.39-0.18,2.25-0.24a0.8,0.8,0,1,0-.11-1.59c-0.66,0-1.31.12-1.83,0.18,0.08-.37.16-0.73,0.25-1.09a15,15,0,0,1,3.09-.28,29.75,29.75,0,0,1,7.36,1,25,25,0,0,1,9.41,4.6A36.47,36.47,0,0,1,325.9,350.7Z" transform="translate(-277.83 -332.23)"/><path class="cls-1" d="M327.9,344.56a4.14,4.14,0,0,0-7.17,0,0.8,0.8,0,0,0,1.38.8,2.55,2.55,0,0,1,4.41,0A0.8,0.8,0,0,0,327.9,344.56Z" transform="translate(-277.83 -332.23)"/><path class="cls-1" d="M316.1,340.15a4.15,4.15,0,0,0-4.14,0,0.8,0.8,0,0,0,.8,1.38,2.55,2.55,0,0,1,3.82,2.21,0.8,0.8,0,0,0,1.59,0A4.15,4.15,0,0,0,316.1,340.15Z" transform="translate(-277.83 -332.23)"/><path class="cls-1" d="M321.31,350.27a0.8,0.8,0,0,0-1.12,0,2.55,2.55,0,0,1-4.26-1.14,0.8,0.8,0,1,0-1.54.41,4.14,4.14,0,0,0,6.92,1.85A0.8,0.8,0,0,0,321.31,350.27Z" transform="translate(-277.83 -332.23)"/><path class="cls-1" d="M303,356.19h0a0.8,0.8,0,0,0-.8.8,2.55,2.55,0,0,1-3.82,2.21,0.8,0.8,0,0,0-.8,1.38,4.14,4.14,0,0,0,6.21-3.58A0.8,0.8,0,0,0,303,356.19Z" transform="translate(-277.83 -332.23)"/><path class="cls-1" d="M311.42,365.28a4.14,4.14,0,0,0-6.92,1.85,0.8,0.8,0,0,0,.56,1l0.21,0a0.8,0.8,0,0,0,.77-0.59,2.55,2.55,0,0,1,4.26-1.14A0.8,0.8,0,0,0,311.42,365.28Z" transform="translate(-277.83 -332.23)"/><path class="cls-1" d="M299.19,353.72a0.8,0.8,0,0,0-1-.46l-0.06,0a0.8,0.8,0,1,0,.59,1.48h0A0.8,0.8,0,0,0,299.19,353.72Z" transform="translate(-277.83 -332.23)"/></svg>