<svg id="Layer_1" data-name="Layer 1" xmlns="http://www.w3.org/2000/svg" viewBox="0 0 96.55 63.55"><defs><style>.cls-1{fill:#7e6bb0;}.cls-2{fill:none;stroke:#7e6bb0;stroke-miterlimit:10;stroke-width:1.04px;}</style></defs><title>Espiritualidad</title><path class="cls-1" d="M177.4,93.32a0.84,0.84,0,0,1,.26.61,0.79,0.79,0,0,1-.26.62,0.93,0.93,0,0,1-.65.24h-5a0.9,0.9,0,0,1-.92-0.92V85.19a0.9,0.9,0,0,1,.92-0.92h5a0.92,0.92,0,0,1,.65.25,0.84,0.84,0,0,1,.26.64,0.78,0.78,0,0,1-.26.61,0.94,0.94,0,0,1-.66.23h-4.07v2.55h3.39a0.92,0.92,0,0,1,.65.25,0.84,0.84,0,0,1,.26.64,0.78,0.78,0,0,1-.25.61,0.94,0.94,0,0,1-.66.23h-3.39v2.78h4.07A0.89,0.89,0,0,1,177.4,93.32Z" transform="translate(-170.81 -34.22)"/><path class="cls-1" d="M178.64,93.08a0.85,0.85,0,0,1,.83-0.79,0.85,0.85,0,0,1,.6.29,3.16,3.16,0,0,0,.94.69,2.81,2.81,0,0,0,1.18.22q1.17,0,1.17-.88a0.72,0.72,0,0,0-.4-0.66,5.61,5.61,0,0,0-1.24-.45A10.75,10.75,0,0,1,180.3,91a2.5,2.5,0,0,1-.94-0.73A2,2,0,0,1,179,89a2,2,0,0,1,.41-1.25,2.72,2.72,0,0,1,1.08-.83,3.5,3.5,0,0,1,1.42-.29,4.34,4.34,0,0,1,1.53.29,2.66,2.66,0,0,1,1.2.84,0.84,0.84,0,0,1,.2.54,0.7,0.7,0,0,1-.29.57A0.75,0.75,0,0,1,184,89a0.73,0.73,0,0,1-.54-0.21,1.9,1.9,0,0,0-.7-0.52,2.31,2.31,0,0,0-1-.2q-1.14,0-1.14.83a0.7,0.7,0,0,0,.21.53,1.44,1.44,0,0,0,.53.32L182.33,90a9.83,9.83,0,0,1,1.35.46,2.32,2.32,0,0,1,.92.74,2.1,2.1,0,0,1,.38,1.3,2,2,0,0,1-.44,1.28,2.76,2.76,0,0,1-1.12.83,3.61,3.61,0,0,1-1.4.29,5.08,5.08,0,0,1-1.84-.33,3.06,3.06,0,0,1-1.4-1.07A0.73,0.73,0,0,1,178.64,93.08Z" transform="translate(-170.81 -34.22)"/><path class="cls-1" d="M192.5,87.14a3.73,3.73,0,0,1,1.33,1.48,4.61,4.61,0,0,1,.49,2.15,4.71,4.71,0,0,1-.48,2.15,3.69,3.69,0,0,1-1.31,1.48,3.34,3.34,0,0,1-1.84.53,3.22,3.22,0,0,1-1.36-.29,3.59,3.59,0,0,1-1.06-.71v2.94a0.9,0.9,0,0,1-.26.65,0.86,0.86,0,0,1-.64.26,0.87,0.87,0,0,1-.64-0.25,0.89,0.89,0,0,1-.26-0.66v-9.2a0.9,0.9,0,0,1,.26-0.65A0.92,0.92,0,0,1,188,87a0.9,0.9,0,0,1,.26.65v0.06a3.1,3.1,0,0,1,1-.79,2.88,2.88,0,0,1,1.35-.34A3.43,3.43,0,0,1,192.5,87.14ZM192,92.56A2.95,2.95,0,0,0,192,89a2.12,2.12,0,0,0-3.17,0,2.64,2.64,0,0,0-.62,1.79,2.67,2.67,0,0,0,.62,1.8A2.1,2.1,0,0,0,192,92.56Z" transform="translate(-170.81 -34.22)"/><path class="cls-1" d="M195.87,85.61a0.7,0.7,0,0,1-.21-0.58V84.74a0.68,0.68,0,0,1,.22-0.58,1.69,1.69,0,0,1,1.46,0,0.71,0.71,0,0,1,.21.58V85a0.69,0.69,0,0,1-.22.59,1.31,1.31,0,0,1-.74.16A1.19,1.19,0,0,1,195.87,85.61Zm1.38,8.9a0.92,0.92,0,0,1-1.29,0,0.9,0.9,0,0,1-.25-0.65v-6.2A0.9,0.9,0,0,1,196,87a0.92,0.92,0,0,1,1.29,0,0.9,0.9,0,0,1,.25.65v6.2A0.9,0.9,0,0,1,197.25,94.52Z" transform="translate(-170.81 -34.22)"/><path class="cls-1" d="M204.28,86.86a0.76,0.76,0,0,1,.31.6,0.93,0.93,0,0,1-.24.7,0.79,0.79,0,0,1-.57.23,1.49,1.49,0,0,1-.51-0.11l-0.2-.06a1.22,1.22,0,0,0-.34,0,1.34,1.34,0,0,0-.75.24,1.76,1.76,0,0,0-.59.73,2.68,2.68,0,0,0-.23,1.16v3.55a0.9,0.9,0,0,1-.26.65,0.92,0.92,0,0,1-1.29,0,0.9,0.9,0,0,1-.26-0.65v-6.2a0.9,0.9,0,0,1,.26-0.65,0.92,0.92,0,0,1,1.29,0,0.9,0.9,0,0,1,.26.65v0.2a2.27,2.27,0,0,1,1-.94,3,3,0,0,1,1.38-.32A1.15,1.15,0,0,1,204.28,86.86Z" transform="translate(-170.81 -34.22)"/><path class="cls-1" d="M205.92,85.61a0.7,0.7,0,0,1-.21-0.58V84.74a0.68,0.68,0,0,1,.22-0.58,1.69,1.69,0,0,1,1.46,0,0.71,0.71,0,0,1,.21.58V85a0.69,0.69,0,0,1-.22.59,1.31,1.31,0,0,1-.74.16A1.19,1.19,0,0,1,205.92,85.61Zm1.38,8.9a0.92,0.92,0,0,1-1.29,0,0.9,0.9,0,0,1-.25-0.65v-6.2A0.9,0.9,0,0,1,206,87a0.92,0.92,0,0,1,1.29,0,0.9,0.9,0,0,1,.25.65v6.2A0.9,0.9,0,0,1,207.3,94.52Z" transform="translate(-170.81 -34.22)"/><path class="cls-1" d="M213.66,93.29a0.79,0.79,0,0,1,.17.53,0.8,0.8,0,0,1-.44.68,1.84,1.84,0,0,1-1,.28,2.91,2.91,0,0,1-1.57-.4,1.85,1.85,0,0,1-.64-1.69V88.55h-0.69a0.82,0.82,0,0,1-.84-0.84,0.77,0.77,0,0,1,.24-0.58,0.83,0.83,0,0,1,.6-0.23h0.69v-1A0.9,0.9,0,0,1,211.1,85a0.84,0.84,0,0,1,.63.26,0.9,0.9,0,0,1,.25.65v1H213a0.82,0.82,0,0,1,.84.84,0.77,0.77,0,0,1-.24.58,0.83,0.83,0,0,1-.6.23H212v4.06a0.58,0.58,0,0,0,.17.46,0.67,0.67,0,0,0,.45.14,1.3,1.3,0,0,0,.33-0.06,0.9,0.9,0,0,1,.34-0.08A0.5,0.5,0,0,1,213.66,93.29Z" transform="translate(-170.81 -34.22)"/><path class="cls-1" d="M222.14,87a0.9,0.9,0,0,1,.25.65v3.81A3.48,3.48,0,0,1,221.5,94a4,4,0,0,1-5.08,0,3.49,3.49,0,0,1-.89-2.54V87.67a0.9,0.9,0,0,1,.26-0.65,0.92,0.92,0,0,1,1.29,0,0.9,0.9,0,0,1,.26.65v3.81a2,2,0,0,0,.4,1.36,1.57,1.57,0,0,0,1.21.44,1.59,1.59,0,0,0,1.23-.44,2,2,0,0,0,.41-1.36V87.67a0.9,0.9,0,0,1,.25-0.65A0.92,0.92,0,0,1,222.14,87Z" transform="translate(-170.81 -34.22)"/><path class="cls-1" d="M231.48,86.86a0.89,0.89,0,0,1,.25.66v6.34a0.9,0.9,0,0,1-.25.65,0.86,0.86,0,0,1-.65.26,0.85,0.85,0,0,1-.64-0.25,1,1,0,0,1-.26-0.65,3.25,3.25,0,0,1-2.36,1.05,3.43,3.43,0,0,1-1.87-.53,3.73,3.73,0,0,1-1.33-1.48,4.61,4.61,0,0,1-.49-2.14,4.71,4.71,0,0,1,.48-2.15,3.7,3.7,0,0,1,1.31-1.49,3.35,3.35,0,0,1,1.84-.53,3.48,3.48,0,0,1,1.35.26,3.55,3.55,0,0,1,1.07.67h0a0.9,0.9,0,0,1,.25-0.65,0.86,0.86,0,0,1,.64-0.26A0.88,0.88,0,0,1,231.48,86.86Zm-2.08,5.71a2.65,2.65,0,0,0,.61-1.79,2.68,2.68,0,0,0-.61-1.8,2.1,2.1,0,0,0-3.17,0,2.94,2.94,0,0,0,0,3.59,2,2,0,0,0,1.58.71A2,2,0,0,0,229.4,92.57Z" transform="translate(-170.81 -34.22)"/><path class="cls-1" d="M235.38,94.52a0.89,0.89,0,0,1-.65.26,0.84,0.84,0,0,1-.63-0.26,0.9,0.9,0,0,1-.25-0.65V84.59a0.9,0.9,0,0,1,.92-0.92,0.84,0.84,0,0,1,.63.26,0.9,0.9,0,0,1,.25.65v9.27A0.89,0.89,0,0,1,235.38,94.52Z" transform="translate(-170.81 -34.22)"/><path class="cls-1" d="M237.8,85.61a0.7,0.7,0,0,1-.21-0.58V84.74a0.68,0.68,0,0,1,.22-0.58,1.69,1.69,0,0,1,1.46,0,0.71,0.71,0,0,1,.21.58V85a0.69,0.69,0,0,1-.22.59,1.31,1.31,0,0,1-.74.16A1.19,1.19,0,0,1,237.8,85.61Zm1.38,8.9a0.92,0.92,0,0,1-1.29,0,0.9,0.9,0,0,1-.25-0.65v-6.2a0.9,0.9,0,0,1,.25-0.65,0.92,0.92,0,0,1,1.29,0,0.9,0.9,0,0,1,.25.65v6.2A0.9,0.9,0,0,1,239.18,94.52Z" transform="translate(-170.81 -34.22)"/><path class="cls-1" d="M248.42,83.93a0.89,0.89,0,0,1,.25.66v9.27a0.9,0.9,0,0,1-.25.65,0.86,0.86,0,0,1-.65.26,0.85,0.85,0,0,1-.64-0.25,1,1,0,0,1-.26-0.65,3.25,3.25,0,0,1-2.36,1.05,3.43,3.43,0,0,1-1.87-.53,3.73,3.73,0,0,1-1.33-1.48,4.61,4.61,0,0,1-.49-2.14,4.71,4.71,0,0,1,.48-2.15,3.7,3.7,0,0,1,1.31-1.49,3.35,3.35,0,0,1,1.84-.53,3.48,3.48,0,0,1,1.35.26,3.55,3.55,0,0,1,1.07.67V84.59a0.9,0.9,0,0,1,.25-0.65,0.86,0.86,0,0,1,.64-0.26A0.88,0.88,0,0,1,248.42,83.93Zm-2.08,8.63a2.65,2.65,0,0,0,.61-1.79,2.68,2.68,0,0,0-.61-1.8,2.1,2.1,0,0,0-3.17,0,2.94,2.94,0,0,0,0,3.59,2,2,0,0,0,1.58.71A2,2,0,0,0,246.33,92.57Z" transform="translate(-170.81 -34.22)"/><path class="cls-1" d="M257.76,86.86a0.89,0.89,0,0,1,.25.66v6.34a0.9,0.9,0,0,1-.25.65,0.86,0.86,0,0,1-.65.26,0.85,0.85,0,0,1-.64-0.25,1,1,0,0,1-.26-0.65,3.25,3.25,0,0,1-2.36,1.05A3.43,3.43,0,0,1,252,94.4a3.73,3.73,0,0,1-1.33-1.48,4.61,4.61,0,0,1-.49-2.14,4.71,4.71,0,0,1,.48-2.15A3.7,3.7,0,0,1,252,87.14a3.35,3.35,0,0,1,1.84-.53,3.48,3.48,0,0,1,1.35.26,3.55,3.55,0,0,1,1.07.67h0a0.9,0.9,0,0,1,.25-0.65,0.86,0.86,0,0,1,.64-0.26A0.88,0.88,0,0,1,257.76,86.86Zm-2.08,5.71a2.65,2.65,0,0,0,.61-1.79,2.68,2.68,0,0,0-.61-1.8,2.1,2.1,0,0,0-3.17,0,2.94,2.94,0,0,0,0,3.59,2,2,0,0,0,1.58.71A2,2,0,0,0,255.68,92.57Z" transform="translate(-170.81 -34.22)"/><path class="cls-1" d="M267.11,83.93a0.89,0.89,0,0,1,.25.66v9.27a0.9,0.9,0,0,1-.25.65,0.86,0.86,0,0,1-.65.26,0.85,0.85,0,0,1-.64-0.25,1,1,0,0,1-.26-0.65,3.25,3.25,0,0,1-2.36,1.05,3.43,3.43,0,0,1-1.87-.53A3.73,3.73,0,0,1,260,92.92a4.61,4.61,0,0,1-.49-2.14,4.71,4.71,0,0,1,.48-2.15,3.7,3.7,0,0,1,1.31-1.49,3.35,3.35,0,0,1,1.84-.53,3.48,3.48,0,0,1,1.35.26,3.55,3.55,0,0,1,1.07.67V84.59a0.9,0.9,0,0,1,.25-0.65,0.86,0.86,0,0,1,.64-0.26A0.88,0.88,0,0,1,267.11,83.93ZM265,92.57a2.65,2.65,0,0,0,.61-1.79A2.68,2.68,0,0,0,265,89a2.1,2.1,0,0,0-3.17,0,2.94,2.94,0,0,0,0,3.59,2,2,0,0,0,1.58.71A2,2,0,0,0,265,92.57Z" transform="translate(-170.81 -34.22)"/><path class="cls-2" d="M218.6,49.79l0.93,0.5a0.22,0.22,0,0,1,.1.27,12,12,0,0,0-.48,5.84,0.22,0.22,0,0,0,.22.2c0.69,0,1.37,0,2,0A33.57,33.57,0,0,1,229,57.66a9.27,9.27,0,0,1,2.4,1,2.69,2.69,0,0,1,.56,4.36,0.83,0.83,0,0,0-.22.7c0,2.72,0,5.44,0,8.16a2.54,2.54,0,0,1-1.38,2.38,11.58,11.58,0,0,1-4.2,1.38,43.94,43.94,0,0,1-10.57.45,23.74,23.74,0,0,1-6.63-1.2,5.14,5.14,0,0,1-2.12-1.28,2,2,0,0,1-.55-1.38q0-4.29-.06-8.58a1.2,1.2,0,0,0-.34-0.75,2.32,2.32,0,0,1,.19-3.85,10.06,10.06,0,0,1,4.13-1.67,40.57,40.57,0,0,1,7-.79h0.24a0.22,0.22,0,0,0,.2-0.23c-0.14-2.19-.25-4.36.69-6.45A0.22,0.22,0,0,1,218.6,49.79Zm-10,11.47c4.43,1.62,16.73,1.61,20.74,0a0.22,0.22,0,0,0,0-.41,36,36,0,0,0-9.41-1.26,0.22,0.22,0,0,0-.21.27l0.3,1.33a0.22,0.22,0,0,1-.16.26l-1,.27a0.22,0.22,0,0,1-.27-0.16l-0.43-1.79a0.22,0.22,0,0,0-.21-0.17,35.93,35.93,0,0,0-9.27,1.26A0.22,0.22,0,0,0,208.64,61.26Z" transform="translate(-170.81 -34.22)"/><path class="cls-2" d="M214.94,53.48a7.33,7.33,0,0,1-2.09-4.12,8.24,8.24,0,0,1,1.52-5.68,13,13,0,0,1,3.13-3.19,19,19,0,0,0,5.15-5.2c0.47,0.89.91,1.69,1.33,2.51a30.09,30.09,0,0,1,2.9,7.78,10.52,10.52,0,0,1,.08,4.14,6,6,0,0,1-4.23,4.6c-0.38.14-.78,0.24-1.18,0.36,0.21-.84.44-1.62,0.58-2.42a6.75,6.75,0,0,0,.07-1.57A2.76,2.76,0,0,0,219.11,48a4.36,4.36,0,0,0-4.25,4.74C214.88,52.92,214.91,53.13,214.94,53.48Z" transform="translate(-170.81 -34.22)"/></svg>