<svg id="Layer_1" data-name="Layer 1" xmlns="http://www.w3.org/2000/svg" viewBox="0 0 49.68 60.23"><defs><style>.cls-1{fill:#7e6bb0;}</style></defs><title>Familia</title><path class="cls-1" d="M789.7,73.11a1.9,1.9,0,0,1-.05-0.32q0-4.33,0-8.66c0-.12,0-0.23,0-0.37h-0.93a1.43,1.43,0,0,1-1.39-1.21,2.76,2.76,0,0,1,0-.4q0-4.19,0-8.38c0-.66,0-1.32,0-2a4.17,4.17,0,0,1,1.4-2.77,4.53,4.53,0,0,1,2.11-1.19,1,1,0,0,1,.86.17,4.21,4.21,0,0,0,5.06-.06,0.88,0.88,0,0,1,.76-0.11A4.38,4.38,0,0,1,799.59,49a5.07,5.07,0,0,1,1,1.2,4.49,4.49,0,0,1,.53,2.05c0,1.1.1,2.2,0.21,3.29a4.81,4.81,0,0,0,1.38,2.83c0.83,0.88,1.69,1.73,2.53,2.6,0.49,0.5,1,1,1.49,1.51a2.48,2.48,0,0,0,1.93.76,2.55,2.55,0,0,0,1.84-.81c1.84-1.88,3.71-3.73,5.56-5.61a4.32,4.32,0,0,0,1.22-3,10.23,10.23,0,0,1,.15-1.89A5.18,5.18,0,0,1,820,48.53a6.32,6.32,0,0,1,.62-0.33,0.46,0.46,0,0,1,.66.29,3.18,3.18,0,0,1,.14.45,2.16,2.16,0,0,0,1.8,1.61,2,2,0,0,0,2.09-1.09,1.82,1.82,0,0,0,.25-0.84,0.49,0.49,0,0,1,.69-0.41,3.7,3.7,0,0,1,1.26.86,5.2,5.2,0,0,1,1.67,3.14,21.16,21.16,0,0,1,.07,2.43c0,2,0,4,0,6a2.71,2.71,0,0,1,0,.35,7.48,7.48,0,0,0,.48,2.69c0.19,0.83.34,1.66,0.51,2.49a0.56,0.56,0,0,1-.29.66,15.42,15.42,0,0,1-3,1.43,0.25,0.25,0,0,0-.13.18c-0.09,1.33-.17,2.65-0.25,4-0.05.81-.11,1.62-0.15,2.42a2.38,2.38,0,0,0,0,.32c0.06,0.08.12,0.16,0.19,0.23l0.9,0.89a1.21,1.21,0,0,1,0,1.23,0.92,0.92,0,0,1-.9.5h-6.46a1.06,1.06,0,0,1-1-1.38,2,2,0,0,1,1.18-1.49,0.26,0.26,0,0,0,.13-0.2c-0.1-1.77-.21-3.55-0.32-5.32,0-.38-0.05-0.75-0.07-1.13a0.25,0.25,0,0,0-.18-0.25q-1.07-.46-2.12-1c-0.25-.12-0.49-0.27-0.74-0.4a0.63,0.63,0,0,1-.39-0.78,19.37,19.37,0,0,1,1.58-5.5c0.48-1,1.08-1.91,1.63-2.86a1.05,1.05,0,0,0,.14-0.43c0-.33,0-0.66,0-1a0.76,0.76,0,0,0-.07.11,6,6,0,0,1-1.58,2.43q-2.32,2.37-4.66,4.71c-0.45.45-.94,0.86-1.36,1.34a3.11,3.11,0,0,0-.61,1.44,14.36,14.36,0,0,0-.14,2.92q0,3,0,6a0.61,0.61,0,0,0,.13.35,1.63,1.63,0,0,1,.08,2,1.19,1.19,0,0,1-.94.47c-1.53,0-3.07,0-4.6,0A1.24,1.24,0,0,1,805,76.72a1.72,1.72,0,0,1,.41-1.24,0.49,0.49,0,0,0,.09-0.3q0-1.59,0-3.18,0-2.39,0-4.78a4.53,4.53,0,0,0-.68-2.33,4.43,4.43,0,0,0-.71-0.75c-1-1-1.9-1.92-2.87-2.86-0.45-.44-1-0.84-1.41-1.28s-0.7-.75-1.07-1.15c0,0.07,0,.15,0,0.23q0,3,0,6.06,0,4.56,0,9.13a0.57,0.57,0,0,0,.15.42,1.93,1.93,0,0,1,.33,2,1.15,1.15,0,0,1-1.13.78c-1.31,0-2.61,0-3.92,0a0.68,0.68,0,0,1-.16,0l-0.9-.89a1.21,1.21,0,0,1,.22,0H798a0.31,0.31,0,0,0,.35-0.16,0.79,0.79,0,0,0-.75-1.18h-2.64l-0.2,0c-0.11.41-.25,0.58-0.51,0.57a0.56,0.56,0,0,1-.54-0.59h-1.49c-0.2,0-.4,0-0.6-0.07a1.12,1.12,0,0,0-.13-0.22l-0.65-.67,0.23,0h2.38l0.29,0c0-.51,0-1,0-1.48q0-4,0-8c0-.08,0-0.16,0-0.24a0.49,0.49,0,0,1,.47-0.47,0.49,0.49,0,0,1,.51.42,2,2,0,0,1,0,.26q0,4.61,0,9.22c0,0.33,0,.33.32,0.33h2.73V61.45h-7.12c0,0.15,0,.27,0,0.4q0,5.94,0,11.89a1.78,1.78,0,0,1,0,.27Zm0-13.12,0.9-.89a1.51,1.51,0,0,1,0,.24c0,0.36,0,.72,0,1.1h7.14c0-.13,0-0.24,0-0.35q0-3.64,0-7.29a2.2,2.2,0,0,1,0-.24,0.46,0.46,0,0,1,.54-0.41,0.43,0.43,0,0,1,.44.43c0,0.19,0,.38,0,0.57a21,21,0,0,0,.23,3.36,5,5,0,0,0,1.78,3l0.86-.86,0,0a5.89,5.89,0,0,1-1.24-2.68,20.83,20.83,0,0,1-.26-3.57,3.89,3.89,0,0,0,0-.66,3.58,3.58,0,0,0-2.63-2.83,0.35,0.35,0,0,0-.26,0,5.15,5.15,0,0,1-5.64.16,0.94,0.94,0,0,0-.95-0.07,3.65,3.65,0,0,0-2.27,3.33c0,2.6,0,5.2,0,7.81,0,0.09,0,.18,0,0.31h1c0.24,0,.42,0,0.37-0.33A0.29,0.29,0,0,1,789.7,60Zm36.25-2.4a2.57,2.57,0,0,1-.09-0.48c0-.55,0-1.1,0-1.65a8.09,8.09,0,0,1,.51-2.65,3.9,3.9,0,0,0,.2-0.65,3.31,3.31,0,0,0-.47-2.1,3.16,3.16,0,0,1-5.4-.06l-0.28.64a2.43,2.43,0,0,0-.1,1.92,12.06,12.06,0,0,1,.6,5,1,1,0,0,1-.17.5,17,17,0,0,0-2.53,5.21c-0.23.85-.39,1.71-0.58,2.57a0.23,0.23,0,0,0,.12.29c0.46,0.23.91,0.49,1.38,0.71a8.76,8.76,0,0,0,2.95.77,13.36,13.36,0,0,0,3.41-.11,10,10,0,0,0,3.52-1.4,0.27,0.27,0,0,0,.1-0.22c0-.29-0.1-0.57-0.16-0.86a17.78,17.78,0,0,0-1.11-3.71,19.4,19.4,0,0,0-1.77-3.16,0.55,0.55,0,0,1,0-.16C826.29,57.79,826,57.71,825.95,57.59Zm-19.37,6.09c-0.22.22-.43,0.44-0.65,0.65a0.24,0.24,0,0,0-.06.36,4.64,4.64,0,0,1,.58,1.92c0,0.81,0,1.62.06,2.43,0,0.11,0,.23,0,0.34h4.08c0-.32,0-0.62,0-0.91,0-.6,0-1.21.05-1.81a5.31,5.31,0,0,1,.58-2,0.36,0.36,0,0,0,0-.31c-0.21-.26-0.45-0.49-0.68-0.73A3.8,3.8,0,0,1,806.58,63.68Zm1.48,11.27c0-.09,0-0.16,0-0.23,0-.71,0-1.43,0-2.14a0.86,0.86,0,0,1,.09-0.4A0.44,0.44,0,0,1,808.7,72a0.48,0.48,0,0,1,.36.49c0,0.71,0,1.41,0,2.12,0,0.43,0,.39.37,0.38h0.92l0.23,0c0-.07,0-0.12,0-0.16,0-1.39,0-2.78,0-4.17,0-.19-0.07-0.22-0.24-0.22h-3.61l-0.21,0v4.54h1.51Zm13.43,0,1.47-.1V68.7l-1.88-.22Zm4.34-6.44L824,68.7v6.12l1.47,0.1Zm-9.55-9.07c0.52-.51,1.07-1,1.57-1.57a6.79,6.79,0,0,0,.8-1.07,4.35,4.35,0,0,0,.58-2,12.4,12.4,0,0,0,0-2.3,4.16,4.16,0,0,1,.3-2.23,1.13,1.13,0,0,0,0-.16,4.19,4.19,0,0,0-1.22,2,8.41,8.41,0,0,0-.15,1.85,4.88,4.88,0,0,1-.49,2.11,7,7,0,0,1-1.36,1.82c-0.28.28-.58,0.55-0.84,0.8Zm11.94,0.27c0-.11,0-0.14,0-0.18,0-2.06,0-4.12,0-6.17a9.81,9.81,0,0,0-.22-1.68,2.29,2.29,0,0,0-.52-1,0.45,0.45,0,0,0,0,.11,3.23,3.23,0,0,1-.09,2.23,11.13,11.13,0,0,0-.34,1.13,10.58,10.58,0,0,0-.22,3.09,0.85,0.85,0,0,0,.18.57,3.57,3.57,0,0,1,.32.49Zm-5.3,16.12c-0.67.06-1.34,0.09-2,.17a0.87,0.87,0,0,0-.76.73c-0.05.21,0,.27,0.21,0.27h6.1c0.21,0,.26-0.08.22-0.27A0.89,0.89,0,0,0,826,76a4.65,4.65,0,0,0-.49-0.06L824,75.81a0.55,0.55,0,0,1-.52.54A0.56,0.56,0,0,1,822.93,75.8ZM805.8,63l-0.09-.1L803.83,61c-0.42-.42-0.83-0.84-1.26-1.24a0.46,0.46,0,0,0-.71,0,0.47,0.47,0,0,0,0,.69l2,2,1.22,1.25Zm6.27,0.79a3.7,3.7,0,0,1,.28-0.36l2.9-2.91a0.5,0.5,0,0,0-.21-0.86,0.53,0.53,0,0,0-.57.19l-2,2.08L811.36,63ZM808.57,77h2.17a0.3,0.3,0,0,0,.36-0.35,0.61,0.61,0,0,0-.65-0.67h-1.15a0.21,0.21,0,0,0-.26.19,0.43,0.43,0,0,1-.46.32,0.42,0.42,0,0,1-.45-0.33,0.2,0.2,0,0,0-.25-0.18h-1a1.56,1.56,0,0,0-.39,0,0.64,0.64,0,0,0-.41.71c0,0.22.13,0.27,0.52,0.27h2ZM788.32,61.45c0,0.33,0,.64,0,1a0.32,0.32,0,0,0,.33.33l0.85,0a0.18,0.18,0,0,0,.13-0.11c0-.4,0-0.8,0-1.2h-1.31Z" transform="translate(-784.22 -38.54)"/><path class="cls-1" d="M794.11,49.46a3.89,3.89,0,0,1-3.39-2.36,4.67,4.67,0,0,1-.47-1.67,0.74,0.74,0,0,0-.12-0.32,3.81,3.81,0,0,1,.85-5.38,3.06,3.06,0,0,1,2.38-.52,6.33,6.33,0,0,0,3.76-.55,0.47,0.47,0,0,1,.68.19,2.62,2.62,0,0,1,.42,1.36,3.78,3.78,0,0,1-.48,2.29,0.32,0.32,0,0,0,0,.25,5,5,0,0,1-.39,4.94A3.74,3.74,0,0,1,794.11,49.46Zm2.76-6.13a4.3,4.3,0,0,1-4.89-.92,4.46,4.46,0,0,0-.38.6,4.08,4.08,0,0,0,.52,4.41,2.59,2.59,0,0,0,3.71.46A3.93,3.93,0,0,0,796.87,43.33Zm-6.45-.18,0.09-.19a4.87,4.87,0,0,1,1-1.45,0.63,0.63,0,0,1,1.1,0,3.45,3.45,0,0,0,2.86,1.19,1.87,1.87,0,0,0,1.77-1.47,2.75,2.75,0,0,0-.09-1.5l-0.21.07a7.22,7.22,0,0,1-3.47.4,4,4,0,0,0-1,0,2.31,2.31,0,0,0-1.62,1.25A2.59,2.59,0,0,0,790.42,43.15Z" transform="translate(-784.22 -38.54)"/><path class="cls-1" d="M824.23,39.59c-0.73,0-1.46-.05-2.18,0a2.91,2.91,0,0,0-2.3,1.57,7.74,7.74,0,0,0-.89,3.1,4.52,4.52,0,0,1-1.28,2.79,0.34,0.34,0,0,0-.05.29,2.33,2.33,0,0,0,1.4,1.49,0.51,0.51,0,0,1,.38.48,0.48,0.48,0,0,1-.68.47A3.39,3.39,0,0,1,816.44,47a0.69,0.69,0,0,1,.24-0.47,3.43,3.43,0,0,0,1-1.63,12,12,0,0,0,.25-1.44A6.87,6.87,0,0,1,819.36,40a3.86,3.86,0,0,1,2.47-1.38,3.59,3.59,0,0,1,.59-0.06c0.7,0,1.4,0,2.09,0A4.07,4.07,0,0,1,828.22,41a8.67,8.67,0,0,1,.78,2.84,3.84,3.84,0,0,0,1.3,2.71,0.7,0.7,0,0,1,.14.81,3.56,3.56,0,0,1-1.84,2.27,1.92,1.92,0,0,1-.33.13,0.48,0.48,0,0,1-.64-0.32,0.5,0.5,0,0,1,.32-0.62,2.37,2.37,0,0,0,1.1-.85,3.17,3.17,0,0,0,.2-0.32c0.24-.44.24-0.47-0.09-0.83A4.83,4.83,0,0,1,828,44a6.9,6.9,0,0,0-.9-2.87,3,3,0,0,0-2.21-1.49l-0.67-.07v0.07Z" transform="translate(-784.22 -38.54)"/><path class="cls-1" d="M806.8,43.25a2.91,2.91,0,0,1,1.55.43,0.39,0.39,0,0,0,.45,0,3.11,3.11,0,0,1,2.94-.13,3,3,0,0,1,1.34,1.14,3.36,3.36,0,0,1-.08,3.79,9.2,9.2,0,0,1-2.22,2.32c-0.56.44-1.15,0.84-1.74,1.25a0.76,0.76,0,0,1-.89,0A15,15,0,0,1,804.53,49a3.77,3.77,0,0,1-1-3.09,3.16,3.16,0,0,1,1.9-2.41A2.9,2.9,0,0,1,806.8,43.25Zm-2.28,3.11a3.61,3.61,0,0,0,.89,2.16,12.5,12.5,0,0,0,3,2.54,0.31,0.31,0,0,0,.42,0c0.61-.47,1.25-0.9,1.83-1.4a6.79,6.79,0,0,0,1.74-2.09,2.22,2.22,0,0,0-1.22-3.17,2.09,2.09,0,0,0-2.16.37,0.51,0.51,0,0,1-.76,0,4.24,4.24,0,0,0-.37-0.25,2.13,2.13,0,0,0-2.14,0A2.1,2.1,0,0,0,804.52,46.36Z" transform="translate(-784.22 -38.54)"/><path class="cls-1" d="M819.87,45.59a0.56,0.56,0,0,1-.57-0.44,0.54,0.54,0,0,1,.41-0.61,10.23,10.23,0,0,0,4-3.5,0.49,0.49,0,0,1,.65-0.2,0.51,0.51,0,0,1,.29.6,3.12,3.12,0,0,1-.33.51c-0.11.15-.22,0.3-0.35,0.46a6.68,6.68,0,0,0,1.49,1.45c0.53,0.36,1.11.67,1.68,1a0.54,0.54,0,0,1,.3.64,0.5,0.5,0,0,1-.62.34l-0.11,0c-0.13.42-.24,0.85-0.4,1.25a3.82,3.82,0,0,1-1.44,1.83,2.93,2.93,0,0,1-3.73-.41,4.81,4.81,0,0,1-1.27-2.58Zm1-.38a1.06,1.06,0,0,1,0,.14c0,0.06,0,.13,0,0.19A4,4,0,0,0,822,47.78a1.81,1.81,0,0,0,2.7,0,4,4,0,0,0,1-2.29,0.36,0.36,0,0,0-.13-0.27c-0.22-.18-0.48-0.31-0.7-0.49-0.55-.47-1.08-1-1.58-1.41Z" transform="translate(-784.22 -38.54)"/><path class="cls-1" d="M805.85,60.82c0.06-.49.1-1,0.2-1.47a2,2,0,0,1,1.45-1.61,3.71,3.71,0,0,1,2.25,0,1.94,1.94,0,0,1,1.31,1.41,5.57,5.57,0,0,1,.05,2.86,2.68,2.68,0,0,1-2.8,2,2.54,2.54,0,0,1-2-1.44A3.84,3.84,0,0,1,805.85,60.82Zm1-.13a2.64,2.64,0,0,0,.31,1.57,1.5,1.5,0,0,0,2.18.61,1.84,1.84,0,0,0,.8-1.21,5.32,5.32,0,0,0,0-2.1,1,1,0,0,0-.67-0.82,3.67,3.67,0,0,0-1.16-.14A1.25,1.25,0,0,0,807,59.85C806.91,60.12,806.91,60.41,806.89,60.69Z" transform="translate(-784.22 -38.54)"/><path class="cls-1" d="M793.14,76.56l0.9,0.89a1.28,1.28,0,0,1-.22,0c-1.12,0-2.25,0-3.37,0a1.33,1.33,0,0,1-1.4-1.37,1.89,1.89,0,0,1,.52-1.53,0.36,0.36,0,0,0,.07-0.24c0-.34,0-0.68,0-1a1.15,1.15,0,0,1,.05-0.24l0.9,0.9,0.21,0.19,0.65,0.67a1.12,1.12,0,0,1,.13.22c-0.24,0-.48.06-0.72,0.07a0.69,0.69,0,0,0-.83.77c0,0.43,0,.53.46,0.54,0.79,0,1.58,0,2.37,0A2.05,2.05,0,0,1,793.14,76.56Z" transform="translate(-784.22 -38.54)"/><path class="cls-1" d="M827.55,76.23l-0.9-.89c-0.07-.07-0.13-0.16-0.19-0.23a1.75,1.75,0,0,1,1.11,1.07A0.12,0.12,0,0,1,827.55,76.23Z" transform="translate(-784.22 -38.54)"/><path class="cls-1" d="M789.7,60a1.06,1.06,0,0,1-.05-0.24q0-3.43,0-6.86a0.49,0.49,0,0,1,.49-0.59,0.51,0.51,0,0,1,.51.6q0,2.95,0,5.89a2.08,2.08,0,0,1,0,.3Z" transform="translate(-784.22 -38.54)"/><path class="cls-1" d="M826.08,58a0.3,0.3,0,0,1-.14-0.42C826,57.71,826.29,57.79,826.08,58Z" transform="translate(-784.22 -38.54)"/><path class="cls-1" d="M786.1,89.84v2.64h3.24a0.91,0.91,0,0,1,.65.25,0.84,0.84,0,0,1,.26.64A0.8,0.8,0,0,1,790,94a0.9,0.9,0,0,1-.65.25H786.1v3.5a0.86,0.86,0,0,1-.28.65,0.92,0.92,0,0,1-.65.26,0.94,0.94,0,0,1-.68-0.25,0.88,0.88,0,0,1-.26-0.66V89a0.9,0.9,0,0,1,.92-0.92H790a0.91,0.91,0,0,1,.65.25,0.84,0.84,0,0,1,.26.64,0.79,0.79,0,0,1-.26.58,0.9,0.9,0,0,1-.65.25H786.1Z" transform="translate(-784.22 -38.54)"/><path class="cls-1" d="M799.34,90.7a0.89,0.89,0,0,1,.25.66V97.7a0.9,0.9,0,0,1-.25.65,0.86,0.86,0,0,1-.65.26,0.85,0.85,0,0,1-.64-0.25,1,1,0,0,1-.26-0.65,3.25,3.25,0,0,1-2.36,1.05,3.43,3.43,0,0,1-1.87-.53,3.73,3.73,0,0,1-1.33-1.48,4.61,4.61,0,0,1-.49-2.14,4.71,4.71,0,0,1,.48-2.15A3.7,3.7,0,0,1,793.54,91a3.35,3.35,0,0,1,1.84-.53,3.48,3.48,0,0,1,1.35.26,3.55,3.55,0,0,1,1.07.67h0a0.9,0.9,0,0,1,.25-0.65,0.86,0.86,0,0,1,.64-0.26A0.88,0.88,0,0,1,799.34,90.7Zm-2.08,5.71a2.65,2.65,0,0,0,.61-1.79,2.68,2.68,0,0,0-.61-1.8,2.1,2.1,0,0,0-3.17,0,2.94,2.94,0,0,0,0,3.59,2,2,0,0,0,1.58.71A2,2,0,0,0,797.26,96.41Z" transform="translate(-784.22 -38.54)"/><path class="cls-1" d="M812.86,91.35a4.71,4.71,0,0,1,.57,2.51V97.7a0.9,0.9,0,0,1-.26.65,0.92,0.92,0,0,1-1.29,0,0.9,0.9,0,0,1-.25-0.65V93.86a2.28,2.28,0,0,0-.32-1.3,1.27,1.27,0,0,0-1.13-.47,1.72,1.72,0,0,0-1.31.5,1.78,1.78,0,0,0-.47,1.27V97.7a0.9,0.9,0,0,1-.26.65,0.92,0.92,0,0,1-1.29,0,0.9,0.9,0,0,1-.25-0.65V93.86a2.28,2.28,0,0,0-.32-1.3,1.27,1.27,0,0,0-1.13-.47,1.72,1.72,0,0,0-1.31.5,1.78,1.78,0,0,0-.47,1.27V97.7a0.9,0.9,0,0,1-.26.65,0.92,0.92,0,0,1-1.29,0,0.9,0.9,0,0,1-.26-0.65v-6.2a0.9,0.9,0,0,1,.26-0.65,0.92,0.92,0,0,1,1.29,0,0.9,0.9,0,0,1,.26.65v0.24a3.66,3.66,0,0,1,1-.92,2.6,2.6,0,0,1,1.39-.38,2.27,2.27,0,0,1,2.42,1.65,3.53,3.53,0,0,1,1-1.14,2.61,2.61,0,0,1,1.58-.51A2.23,2.23,0,0,1,812.86,91.35Z" transform="translate(-784.22 -38.54)"/><path class="cls-1" d="M815.44,89.45a0.7,0.7,0,0,1-.21-0.58V88.58a0.68,0.68,0,0,1,.22-0.58,1.69,1.69,0,0,1,1.46,0,0.71,0.71,0,0,1,.21.58v0.29a0.69,0.69,0,0,1-.22.59,1.31,1.31,0,0,1-.74.16A1.19,1.19,0,0,1,815.44,89.45Zm1.38,8.9a0.92,0.92,0,0,1-1.29,0,0.9,0.9,0,0,1-.25-0.65v-6.2a0.9,0.9,0,0,1,.25-0.65,0.92,0.92,0,0,1,1.29,0,0.9,0.9,0,0,1,.25.65v6.2A0.9,0.9,0,0,1,816.82,98.36Z" transform="translate(-784.22 -38.54)"/><path class="cls-1" d="M820.6,98.36a0.89,0.89,0,0,1-.65.26,0.84,0.84,0,0,1-.63-0.26,0.9,0.9,0,0,1-.25-0.65V88.43a0.9,0.9,0,0,1,.92-0.92,0.84,0.84,0,0,1,.63.26,0.9,0.9,0,0,1,.25.65V97.7A0.89,0.89,0,0,1,820.6,98.36Z" transform="translate(-784.22 -38.54)"/><path class="cls-1" d="M823,89.45a0.7,0.7,0,0,1-.21-0.58V88.58A0.68,0.68,0,0,1,823,88a1.69,1.69,0,0,1,1.46,0,0.71,0.71,0,0,1,.21.58v0.29a0.69,0.69,0,0,1-.22.59,1.31,1.31,0,0,1-.74.16A1.19,1.19,0,0,1,823,89.45Zm1.38,8.9a0.92,0.92,0,0,1-1.29,0,0.9,0.9,0,0,1-.25-0.65v-6.2a0.9,0.9,0,0,1,.25-0.65,0.92,0.92,0,0,1,1.29,0,0.9,0.9,0,0,1,.25.65v6.2A0.9,0.9,0,0,1,824.41,98.36Z" transform="translate(-784.22 -38.54)"/><path class="cls-1" d="M833.65,90.7a0.89,0.89,0,0,1,.25.66V97.7a0.9,0.9,0,0,1-.25.65,0.86,0.86,0,0,1-.65.26,0.85,0.85,0,0,1-.64-0.25,1,1,0,0,1-.26-0.65,3.25,3.25,0,0,1-2.36,1.05,3.43,3.43,0,0,1-1.87-.53,3.73,3.73,0,0,1-1.33-1.48,4.61,4.61,0,0,1-.49-2.14,4.71,4.71,0,0,1,.48-2.15A3.7,3.7,0,0,1,827.85,91a3.35,3.35,0,0,1,1.84-.53,3.48,3.48,0,0,1,1.35.26,3.55,3.55,0,0,1,1.07.67h0a0.9,0.9,0,0,1,.25-0.65,0.86,0.86,0,0,1,.64-0.26A0.88,0.88,0,0,1,833.65,90.7Zm-2.08,5.71a2.65,2.65,0,0,0,.61-1.79,2.68,2.68,0,0,0-.61-1.8,2.1,2.1,0,0,0-3.17,0,2.94,2.94,0,0,0,0,3.59,2,2,0,0,0,1.58.71A2,2,0,0,0,831.56,96.41Z" transform="translate(-784.22 -38.54)"/></svg>