<svg id="Layer_1" data-name="Layer 1" xmlns="http://www.w3.org/2000/svg" viewBox="0 0 47.75 67.7"><defs><style>.cls-1{fill:none;stroke:#7e6bb0;stroke-miterlimit:10;stroke-width:1.07px;}.cls-2{fill:#7e6bb0;}</style></defs><title>Hogar</title><path class="cls-1" d="M575,78.29H557.81a2.2,2.2,0,0,1-2.33-1.93,7.44,7.44,0,0,1,0-.84q0-8.93,0-17.86a0.8,0.8,0,0,1,.34-0.75Q565.24,50,574.62,43a0.58,0.58,0,0,1,.84,0Q584.82,50,594.2,56.89a0.89,0.89,0,0,1,.4.82q0,9,0,18c0,1.79-.84,2.63-2.61,2.63H575Z" transform="translate(-551.14 -33.92)"/><path class="cls-1" d="M567.82,39.68L573,35.86c0.56-.41,1.14-0.81,1.67-1.25a0.48,0.48,0,0,1,.72,0q9,6.69,18.06,13.36c1.37,1,2.75,2,4.11,3a1.95,1.95,0,0,1-.67,3.46,2,2,0,0,1-1.77-.42l-11.31-8.36c-2.8-2.07-5.6-4.13-8.39-6.21a0.54,0.54,0,0,0-.79,0q-9.72,7.21-19.45,14.4a2.6,2.6,0,0,1-1.41.66,1.94,1.94,0,0,1-1.95-1.25,1.88,1.88,0,0,1,.63-2.22c1.31-1,2.63-2,4-2.93,2.05-1.52,4.1-3,6.16-4.54a0.79,0.79,0,0,0,.37-0.74c0-1.28,0-2.55,0-3.83a2.44,2.44,0,0,1,4.79-.62A9.23,9.23,0,0,1,567.82,39.68Z" transform="translate(-551.14 -33.92)"/><path class="cls-1" d="M570.22,57.7a6.18,6.18,0,0,1,2.63,1,9.56,9.56,0,0,1,1.88,1.46c0.24,0.24.36,0.2,0.59,0a8.83,8.83,0,0,1,4.07-2.37,3.69,3.69,0,0,1,3.79,1.28,4.71,4.71,0,0,1,.73,5.91,17.53,17.53,0,0,1-3.57,4.49,41.34,41.34,0,0,1-5,4.08,0.4,0.4,0,0,1-.56.05,34.13,34.13,0,0,1-7.51-6.84,8.08,8.08,0,0,1-1.85-4.06A5,5,0,0,1,570.22,57.7Z" transform="translate(-551.14 -33.92)"/><path class="cls-2" d="M562.44,88.37a0.89,0.89,0,0,1,.25.66V97.7a0.87,0.87,0,0,1-.27.65,1,1,0,0,1-.69.26,0.9,0.9,0,0,1-.65-0.26,0.87,0.87,0,0,1-.27-0.65v-3.5H556v3.5a0.85,0.85,0,0,1-.29.65,1,1,0,0,1-.66.26,0.9,0.9,0,0,1-.67-0.26,0.89,0.89,0,0,1-.26-0.65V89a0.87,0.87,0,0,1,.27-0.65,1,1,0,0,1,.69-0.26,0.9,0.9,0,0,1,.65.26A0.87,0.87,0,0,1,556,89v3.45h4.79V89a0.85,0.85,0,0,1,.29-0.65,0.94,0.94,0,0,1,.66-0.26A0.91,0.91,0,0,1,562.44,88.37Z" transform="translate(-551.14 -33.92)"/><path class="cls-2" d="M572,96.77a3.81,3.81,0,0,1-1.48,1.48,4.33,4.33,0,0,1-4.13,0,3.82,3.82,0,0,1-1.47-1.48,4.56,4.56,0,0,1,0-4.3A3.88,3.88,0,0,1,566.35,91a4.28,4.28,0,0,1,4.13,0A3.87,3.87,0,0,1,572,92.46,4.56,4.56,0,0,1,572,96.77Zm-1.57-3.46a2.26,2.26,0,0,0-.82-0.89,2.25,2.25,0,0,0-2.3,0,2.26,2.26,0,0,0-.82.89,2.75,2.75,0,0,0-.31,1.31,2.7,2.7,0,0,0,.31,1.3,2.27,2.27,0,0,0,.82.88,2.25,2.25,0,0,0,2.3,0,2.28,2.28,0,0,0,.82-0.88,2.7,2.7,0,0,0,.31-1.3A2.75,2.75,0,0,0,570.39,93.3Z" transform="translate(-551.14 -33.92)"/><path class="cls-2" d="M581.29,90.7a0.89,0.89,0,0,1,.25.66V98a3.21,3.21,0,0,1-1.13,2.71,4.55,4.55,0,0,1-2.87.88,7,7,0,0,1-1.24-.15,5.46,5.46,0,0,1-1.12-.3,1,1,0,0,1-.74-0.87,0.79,0.79,0,0,1,0-.24,0.94,0.94,0,0,1,.31-0.5,0.74,0.74,0,0,1,.47-0.17,0.92,0.92,0,0,1,.29,0l0.74,0.28a3.49,3.49,0,0,0,1.24.26,2.61,2.61,0,0,0,1.66-.44,1.52,1.52,0,0,0,.55-1.25V97.55a3,3,0,0,1-1,.84,2.89,2.89,0,0,1-1.43.38,3.56,3.56,0,0,1-1.91-.53A3.73,3.73,0,0,1,574,96.76a4.56,4.56,0,0,1-.49-2.14,4.65,4.65,0,0,1,.49-2.15A3.7,3.7,0,0,1,575.38,91a3.47,3.47,0,0,1,1.88-.53,3.27,3.27,0,0,1,1.42.31,3.35,3.35,0,0,1,1.06.77V91.36a0.9,0.9,0,0,1,.25-0.65,0.86,0.86,0,0,1,.65-0.26A0.87,0.87,0,0,1,581.29,90.7Zm-2.11,5.71a2.59,2.59,0,0,0,.64-1.79,2.62,2.62,0,0,0-.64-1.8,2.09,2.09,0,0,0-1.64-.72,2.07,2.07,0,0,0-1.63.72,2.63,2.63,0,0,0-.63,1.8,2.61,2.61,0,0,0,.63,1.79,2.08,2.08,0,0,0,1.63.71A2.1,2.1,0,0,0,579.18,96.41Z" transform="translate(-551.14 -33.92)"/><path class="cls-2" d="M590.56,90.7a0.89,0.89,0,0,1,.25.66V97.7a0.9,0.9,0,0,1-.25.65,0.86,0.86,0,0,1-.65.26,0.85,0.85,0,0,1-.64-0.25,1,1,0,0,1-.26-0.65,3.25,3.25,0,0,1-2.36,1.05,3.43,3.43,0,0,1-1.87-.53,3.73,3.73,0,0,1-1.33-1.48,4.61,4.61,0,0,1-.49-2.14,4.71,4.71,0,0,1,.48-2.15A3.7,3.7,0,0,1,584.76,91a3.35,3.35,0,0,1,1.84-.53,3.48,3.48,0,0,1,1.35.26,3.55,3.55,0,0,1,1.07.67h0a0.9,0.9,0,0,1,.25-0.65,0.86,0.86,0,0,1,.64-0.26A0.88,0.88,0,0,1,590.56,90.7Zm-2.08,5.71a2.65,2.65,0,0,0,.61-1.79,2.68,2.68,0,0,0-.61-1.8,2.1,2.1,0,0,0-3.17,0,2.94,2.94,0,0,0,0,3.59,2,2,0,0,0,1.58.71A2,2,0,0,0,588.48,96.41Z" transform="translate(-551.14 -33.92)"/><path class="cls-2" d="M597.69,90.7a0.76,0.76,0,0,1,.31.6,0.93,0.93,0,0,1-.24.7,0.79,0.79,0,0,1-.57.23,1.49,1.49,0,0,1-.51-0.11l-0.2-.06a1.22,1.22,0,0,0-.34,0,1.34,1.34,0,0,0-.75.24,1.76,1.76,0,0,0-.59.73,2.68,2.68,0,0,0-.23,1.16V97.7a0.9,0.9,0,0,1-.26.65,0.92,0.92,0,0,1-1.29,0,0.9,0.9,0,0,1-.26-0.65v-6.2a0.9,0.9,0,0,1,.26-0.65,0.92,0.92,0,0,1,1.29,0,0.9,0.9,0,0,1,.26.65v0.2a2.27,2.27,0,0,1,1-.94,3,3,0,0,1,1.38-.32A1.15,1.15,0,0,1,597.69,90.7Z" transform="translate(-551.14 -33.92)"/></svg>