<svg id="Layer_1" data-name="Layer 1" xmlns="http://www.w3.org/2000/svg" viewBox="0 0 63.25 41.96"><defs><style>.cls-1{fill:#7e6bb0;}.cls-2{fill:none;stroke:#7e6bb0;stroke-miterlimit:10;stroke-width:1.3px;}</style></defs><title>Libertad</title><path class="cls-1" d="M78.82,93.27a0.84,0.84,0,0,1,.26.64,0.82,0.82,0,0,1-.26.62,0.91,0.91,0,0,1-.65.25H73.29a0.9,0.9,0,0,1-.92-0.92V85.19a0.87,0.87,0,0,1,.27-0.65,1,1,0,0,1,.69-0.26,0.9,0.9,0,0,1,.65.26,0.87,0.87,0,0,1,.27.65V93h3.92A0.91,0.91,0,0,1,78.82,93.27Z" transform="translate(-70.21 -52.97)"/><path class="cls-1" d="M80.72,85.61A0.7,0.7,0,0,1,80.51,85V84.74a0.68,0.68,0,0,1,.22-0.58,1.69,1.69,0,0,1,1.46,0,0.71,0.71,0,0,1,.21.58V85a0.69,0.69,0,0,1-.22.59,1.31,1.31,0,0,1-.74.16A1.19,1.19,0,0,1,80.72,85.61Zm1.38,8.9a0.92,0.92,0,0,1-1.29,0,0.9,0.9,0,0,1-.25-0.65v-6.2A0.9,0.9,0,0,1,80.81,87a0.92,0.92,0,0,1,1.29,0,0.9,0.9,0,0,1,.25.65v6.2A0.9,0.9,0,0,1,82.1,94.52Z" transform="translate(-70.21 -52.97)"/><path class="cls-1" d="M90.23,87.14a3.73,3.73,0,0,1,1.33,1.48A4.61,4.61,0,0,1,92,90.76a4.71,4.71,0,0,1-.48,2.15,3.69,3.69,0,0,1-1.31,1.48,3.34,3.34,0,0,1-1.84.53,3.22,3.22,0,0,1-1.36-.29A3.59,3.59,0,0,1,86,93.92V94a0.9,0.9,0,0,1-.26.65,0.86,0.86,0,0,1-.64.26,0.87,0.87,0,0,1-.64-0.26A0.89,0.89,0,0,1,84.2,94V84.59a0.9,0.9,0,0,1,.26-0.65,0.92,0.92,0,0,1,1.29,0,0.9,0.9,0,0,1,.26.65v3.13a3.1,3.1,0,0,1,1-.79,2.88,2.88,0,0,1,1.35-.34A3.43,3.43,0,0,1,90.23,87.14ZM89.7,92.56a2.95,2.95,0,0,0,0-3.59,2.12,2.12,0,0,0-3.17,0,2.64,2.64,0,0,0-.62,1.79,2.67,2.67,0,0,0,.62,1.8A2.1,2.1,0,0,0,89.7,92.56Z" transform="translate(-70.21 -52.97)"/><path class="cls-1" d="M100.46,91.16a1,1,0,0,1-.63.23h-5a2.26,2.26,0,0,0,.83,1.39,2.3,2.3,0,0,0,1.46.5,3.22,3.22,0,0,0,1-.11,2.5,2.5,0,0,0,.55-0.24l0.28-.17a1.14,1.14,0,0,1,.51-0.13,0.73,0.73,0,0,1,.54.23,0.72,0.72,0,0,1,.23.52,0.94,0.94,0,0,1-.42.74,3.6,3.6,0,0,1-1.12.58,4.65,4.65,0,0,1-3.62-.29A3.66,3.66,0,0,1,93.6,93a4.22,4.22,0,0,1-.51-2.08,4.6,4.6,0,0,1,.54-2.26,3.82,3.82,0,0,1,1.42-1.49,3.68,3.68,0,0,1,1.89-.52,3.5,3.5,0,0,1,1.87.54,4,4,0,0,1,1.4,1.46,3.91,3.91,0,0,1,.52,2A0.77,0.77,0,0,1,100.46,91.16Zm-5.56-1.27h3.93V89.78a1.55,1.55,0,0,0-.62-1.08,2,2,0,0,0-1.26-.45A1.86,1.86,0,0,0,94.89,89.89Z" transform="translate(-70.21 -52.97)"/><path class="cls-1" d="M107.17,86.86a0.76,0.76,0,0,1,.31.6,0.93,0.93,0,0,1-.24.7,0.79,0.79,0,0,1-.57.23,1.49,1.49,0,0,1-.51-0.11l-0.2-.06a1.22,1.22,0,0,0-.34,0,1.34,1.34,0,0,0-.75.24,1.76,1.76,0,0,0-.59.73,2.68,2.68,0,0,0-.23,1.16v3.55a0.9,0.9,0,0,1-.26.65,0.92,0.92,0,0,1-1.29,0,0.9,0.9,0,0,1-.26-0.65v-6.2A0.9,0.9,0,0,1,102.5,87a0.92,0.92,0,0,1,1.29,0,0.9,0.9,0,0,1,.26.65v0.2a2.27,2.27,0,0,1,1-.94,3,3,0,0,1,1.38-.32A1.15,1.15,0,0,1,107.17,86.86Z" transform="translate(-70.21 -52.97)"/><path class="cls-1" d="M113,93.29a0.79,0.79,0,0,1,.17.53,0.8,0.8,0,0,1-.44.68,1.84,1.84,0,0,1-1,.28,2.91,2.91,0,0,1-1.57-.4,1.85,1.85,0,0,1-.64-1.69V88.55h-0.69a0.82,0.82,0,0,1-.84-0.84,0.77,0.77,0,0,1,.24-0.58,0.83,0.83,0,0,1,.6-0.23h0.69v-1a0.9,0.9,0,0,1,.92-0.92,0.84,0.84,0,0,1,.63.26,0.9,0.9,0,0,1,.25.65v1h1.07a0.82,0.82,0,0,1,.84.84,0.77,0.77,0,0,1-.24.58,0.83,0.83,0,0,1-.6.23h-1.07v4.06a0.58,0.58,0,0,0,.17.46,0.67,0.67,0,0,0,.45.14,1.3,1.3,0,0,0,.33-0.06,0.9,0.9,0,0,1,.34-0.08A0.5,0.5,0,0,1,113,93.29Z" transform="translate(-70.21 -52.97)"/><path class="cls-1" d="M122,86.86a0.89,0.89,0,0,1,.25.66v6.34a0.9,0.9,0,0,1-.25.65,0.86,0.86,0,0,1-.65.26,0.85,0.85,0,0,1-.64-0.25,1,1,0,0,1-.26-0.65,3.25,3.25,0,0,1-2.36,1.05,3.43,3.43,0,0,1-1.87-.53,3.73,3.73,0,0,1-1.33-1.48,4.61,4.61,0,0,1-.49-2.14,4.71,4.71,0,0,1,.48-2.15,3.7,3.7,0,0,1,1.31-1.49,3.35,3.35,0,0,1,1.84-.53,3.48,3.48,0,0,1,1.35.26,3.55,3.55,0,0,1,1.07.67h0a0.9,0.9,0,0,1,.25-0.65,0.86,0.86,0,0,1,.64-0.26A0.88,0.88,0,0,1,122,86.86Zm-2.08,5.71a2.65,2.65,0,0,0,.61-1.79,2.68,2.68,0,0,0-.61-1.8,2.1,2.1,0,0,0-3.17,0,2.94,2.94,0,0,0,0,3.59,2,2,0,0,0,1.58.71A2,2,0,0,0,119.94,92.57Z" transform="translate(-70.21 -52.97)"/><path class="cls-1" d="M131.37,83.93a0.89,0.89,0,0,1,.25.66v9.27a0.9,0.9,0,0,1-.25.65,0.86,0.86,0,0,1-.65.26,0.85,0.85,0,0,1-.64-0.25,1,1,0,0,1-.26-0.65,3.25,3.25,0,0,1-2.36,1.05,3.43,3.43,0,0,1-1.87-.53,3.73,3.73,0,0,1-1.33-1.48,4.61,4.61,0,0,1-.49-2.14,4.71,4.71,0,0,1,.48-2.15,3.7,3.7,0,0,1,1.31-1.49,3.35,3.35,0,0,1,1.84-.53,3.48,3.48,0,0,1,1.35.26,3.55,3.55,0,0,1,1.07.67V84.59a0.9,0.9,0,0,1,.25-0.65,0.86,0.86,0,0,1,.64-0.26A0.88,0.88,0,0,1,131.37,83.93Zm-2.08,8.63a2.65,2.65,0,0,0,.61-1.79,2.68,2.68,0,0,0-.61-1.8,2.1,2.1,0,0,0-3.17,0,2.94,2.94,0,0,0,0,3.59,2,2,0,0,0,1.58.71A2,2,0,0,0,129.29,92.57Z" transform="translate(-70.21 -52.97)"/><path class="cls-2" d="M99.4,62.39c0.44-2.92-3.65-8.92-6.34-8.77s-5.22,3.71-8.15,4-11.15-1.18-13.29-3.16-0.16,9.65,10.12,9.33c0,0-5.54,1.27-7.59.71s1.27,5.62,9.81,2.93a3.85,3.85,0,0,1-1.58,2.69c-1.34.71,2.29,1.82,5.85-.47a6.73,6.73,0,0,1-.87,3c-0.47.87,3.16,0.08,4.46-2.06,0,0,.35,2.37,0,2.93S97.66,73.86,99.4,62.39Z" transform="translate(-70.21 -52.97)"/><path class="cls-2" d="M104.26,62.39c-0.44-2.92,3.65-8.92,6.34-8.77s5.22,3.71,8.15,4S129.9,56.39,132,54.42s0.16,9.65-10.12,9.33c0,0,5.54,1.27,7.59.71s-1.26,5.62-9.81,2.93a3.85,3.85,0,0,0,1.58,2.69c1.34,0.71-2.29,1.82-5.85-.47a6.75,6.75,0,0,0,.87,3c0.47,0.87-3.15.08-4.46-2.06,0,0-.35,2.37,0,2.93S106,73.86,104.26,62.39Z" transform="translate(-70.21 -52.97)"/></svg>