<svg id="Layer_1" data-name="Layer 1" xmlns="http://www.w3.org/2000/svg" viewBox="0 0 96.13 64.87"><defs><style>.cls-1{font-size:14.95px;fill:#7e6bb0;font-family:Quicksand;font-weight:700;}.cls-2{fill:none;stroke:#7e6bb0;stroke-miterlimit:10;}</style></defs><title>Musica arte cultura</title><text class="cls-1" transform="translate(0 47.34)">Música, Ar<tspan x="73.12" y="0">t</tspan><tspan x="79.16" y="0">e, </tspan><tspan x="21.73" y="13">Cu</tspan><tspan x="39.89" y="13">l</tspan><tspan x="43.88" y="13">tu</tspan><tspan x="58.77" y="13">r</tspan><tspan x="65.08" y="13">a</tspan></text><path class="cls-2" d="M220.58,150a1.77,1.77,0,0,0-2.42-1.73,18.21,18.21,0,0,0-1.79.67,9.75,9.75,0,0,1-7.95-.06,13.36,13.36,0,0,0-1.6-.58,1.73,1.73,0,0,0-2.45,1.84c0,3.76,0,7.52,0,11.28a9.56,9.56,0,0,0,.32,2.2,11,11,0,0,1,2.43.62,19.26,19.26,0,0,1,6.53,4,10.19,10.19,0,0,1-.38-2.67l0-1.3h-5.74c1.23-2.69,3.27-3.4,5.73-3.15,0-2.28,0-4.56,0-6.84a1.75,1.75,0,0,1,2.41-1.84,21.86,21.86,0,0,1,2.19.81,9.73,9.73,0,0,0,2.7.65C220.6,152.57,220.61,151.28,220.58,150Zm-11.77,7.85a2.09,2.09,0,0,1-2.06-2,2.12,2.12,0,0,1,2-2.05,2,2,0,0,1,2,2A2,2,0,0,1,208.82,157.85Z" transform="translate(-168.04 -147.68)"/><path class="cls-2" d="M216.5,172.18a8.65,8.65,0,0,0-1.37-2.27,18.24,18.24,0,0,0-1.3-1.42l-0.26-.24a19.26,19.26,0,0,0-6.53-4,11,11,0,0,0-2.43-.62,9.87,9.87,0,0,0-6.74,1.58c-3.22,2.06-3.1,5.65.2,7.51,2,1.1,2.26,1.9,1.48,4a4.06,4.06,0,0,0,2.13,5.43,20.48,20.48,0,0,0,4.37,1.58c6.68,1.42,10.9-2.73,11.06-8.38A8.23,8.23,0,0,0,216.5,172.18Zm-16.92-1.68a1.54,1.54,0,0,1-1.5-1.58,1.58,1.58,0,0,1,1.57-1.53,1.56,1.56,0,0,1,1.49,1.6A1.52,1.52,0,0,1,199.58,170.5Zm3.94,9.59a1.84,1.84,0,0,1-1.8-2,1.84,1.84,0,1,1,3.68.18A1.85,1.85,0,0,1,203.52,180.09Zm1.62-10.91a1.59,1.59,0,0,1-1.52-1.58,1.53,1.53,0,1,1,3.06,0A1.57,1.57,0,0,1,205.14,169.18Zm4.46,2.19a1.55,1.55,0,0,1-1.6-1.47,1.59,1.59,0,0,1,1.52-1.58,1.53,1.53,0,0,1,.71.15,1.38,1.38,0,0,1,.35.23,1.53,1.53,0,0,1,.53,1.12A1.5,1.5,0,0,1,209.6,171.37Zm3.24,4.46a1.52,1.52,0,0,1-1.52-1.55,1.53,1.53,0,1,1,3.06,0A1.51,1.51,0,0,1,212.84,175.83Z" transform="translate(-168.04 -147.68)"/><path class="cls-2" d="M229.49,154.24a1.73,1.73,0,0,0-2.35-1.79,14.61,14.61,0,0,0-1.89.71,9.92,9.92,0,0,1-4.66.76,9.73,9.73,0,0,1-2.7-.65,21.86,21.86,0,0,0-2.19-.81,1.75,1.75,0,0,0-2.41,1.84c0,2.28,0,4.56,0,6.84q0,1.58,0,3.15l0,1.3a10.19,10.19,0,0,0,.38,2.67l0.26,0.24a18.24,18.24,0,0,1,1.3,1.42,8.65,8.65,0,0,1,1.37,2.27,6.71,6.71,0,0,0,1.93.76,13.58,13.58,0,0,0,4.85.19,6.4,6.4,0,0,0,5.9-6,66.3,66.3,0,0,0,0-7h0.17C229.5,158.15,229.52,156.2,229.49,154.24ZM215.71,160a2.1,2.1,0,0,1,2.06-2,2.07,2.07,0,0,1,2,2,2,2,0,0,1-2.06,2A2.05,2.05,0,0,1,215.71,160Zm5.5,10.13c-2.12,0-4.29-1.47-4.54-3.24h9.53C225.52,169.07,223.79,170.12,221.2,170.14Zm3.92-8.1a2,2,0,0,1-2.08-2A2,2,0,0,1,225,158a2.1,2.1,0,0,1,2.11,2A2,2,0,0,1,225.12,162Z" transform="translate(-168.04 -147.68)"/></svg>