<svg id="Layer_1" data-name="Layer 1" xmlns="http://www.w3.org/2000/svg" viewBox="0 0 125.29 57.06"><defs><style>.cls-1{fill:#7e6bb0;}.cls-2{fill:none;stroke:#7e6bb0;stroke-miterlimit:10;stroke-width:1.16px;}</style></defs><title>No discriminacion</title><path class="cls-1" d="M391.17,292a0.84,0.84,0,0,1,.23.6v8.75a0.9,0.9,0,0,1-.92.92,1.3,1.3,0,0,1-.41-0.07,0.58,0.58,0,0,1-.29-0.19l-5.5-7v6.41a0.83,0.83,0,0,1-.23.6,0.81,0.81,0,0,1-.61.24,0.76,0.76,0,0,1-.58-0.24,0.84,0.84,0,0,1-.23-0.6V292.7a0.9,0.9,0,0,1,.92-0.92,1.16,1.16,0,0,1,.44.09,0.72,0.72,0,0,1,.32.24l5.46,7v-6.45A0.83,0.83,0,0,1,390,292a0.79,0.79,0,0,1,.59-0.24A0.76,0.76,0,0,1,391.17,292Z" transform="translate(-382.62 -245.38)"/><path class="cls-1" d="M400.66,300.44a3.81,3.81,0,0,1-1.48,1.48,4.33,4.33,0,0,1-4.13,0,3.82,3.82,0,0,1-1.47-1.48,4.56,4.56,0,0,1,0-4.3,3.89,3.89,0,0,1,1.47-1.49,4.28,4.28,0,0,1,4.13,0,3.87,3.87,0,0,1,1.48,1.49A4.56,4.56,0,0,1,400.66,300.44ZM399.1,297a2.26,2.26,0,0,0-.83-0.89,2.25,2.25,0,0,0-2.29,0,2.26,2.26,0,0,0-.83.89,2.75,2.75,0,0,0-.31,1.31,2.7,2.7,0,0,0,.31,1.3,2.27,2.27,0,0,0,.83.89,2.25,2.25,0,0,0,2.29,0,2.27,2.27,0,0,0,.83-0.89,2.71,2.71,0,0,0,.31-1.3A2.76,2.76,0,0,0,399.1,297Z" transform="translate(-382.62 -245.38)"/><path class="cls-1" d="M414,291.44a0.89,0.89,0,0,1,.25.66v9.27a0.9,0.9,0,0,1-.25.65,0.86,0.86,0,0,1-.65.26,0.85,0.85,0,0,1-.64-0.25,0.94,0.94,0,0,1-.26-0.64,3.25,3.25,0,0,1-2.35,1,3.43,3.43,0,0,1-1.87-.53,3.73,3.73,0,0,1-1.33-1.48,4.61,4.61,0,0,1-.49-2.15,4.72,4.72,0,0,1,.48-2.15,3.69,3.69,0,0,1,1.31-1.49,3.35,3.35,0,0,1,1.84-.53,3.48,3.48,0,0,1,1.35.26,3.55,3.55,0,0,1,1.06.67V292.1a0.9,0.9,0,0,1,.26-0.65,0.86,0.86,0,0,1,.65-0.26A0.88,0.88,0,0,1,414,291.44ZM412,300.08a2.93,2.93,0,0,0,0-3.59,2.1,2.1,0,0,0-3.16,0,2.95,2.95,0,0,0,0,3.59,2,2,0,0,0,1.58.71A2,2,0,0,0,412,300.08Z" transform="translate(-382.62 -245.38)"/><path class="cls-1" d="M416.31,293.12a0.7,0.7,0,0,1-.21-0.58v-0.29a0.68,0.68,0,0,1,.22-0.58,1.69,1.69,0,0,1,1.46,0,0.71,0.71,0,0,1,.21.58v0.29a0.69,0.69,0,0,1-.22.59,1.31,1.31,0,0,1-.74.16A1.19,1.19,0,0,1,416.31,293.12Zm1.38,8.9a0.92,0.92,0,0,1-1.29,0,0.9,0.9,0,0,1-.25-0.65v-6.19a0.9,0.9,0,0,1,.25-0.65,0.93,0.93,0,0,1,1.29,0,0.9,0.9,0,0,1,.25.65v6.19A0.9,0.9,0,0,1,417.69,302Z" transform="translate(-382.62 -245.38)"/><path class="cls-1" d="M419.19,300.59a0.79,0.79,0,0,1,.39-0.66,0.79,0.79,0,0,1,.44-0.14,0.85,0.85,0,0,1,.6.29,3.17,3.17,0,0,0,.94.69,2.81,2.81,0,0,0,1.18.22q1.17,0,1.17-.88a0.72,0.72,0,0,0-.4-0.66,5.67,5.67,0,0,0-1.24-.45,10.58,10.58,0,0,1-1.42-.48,2.51,2.51,0,0,1-.95-0.73,2,2,0,0,1-.4-1.31,2,2,0,0,1,.41-1.25,2.71,2.71,0,0,1,1.08-.82,3.49,3.49,0,0,1,1.42-.29,4.35,4.35,0,0,1,1.53.29,2.66,2.66,0,0,1,1.2.84,0.83,0.83,0,0,1,.19.54,0.7,0.7,0,0,1-.28.57,0.76,0.76,0,0,1-.48.17,0.73,0.73,0,0,1-.54-0.21,1.9,1.9,0,0,0-.7-0.53,2.31,2.31,0,0,0-1-.2q-1.14,0-1.14.83a0.7,0.7,0,0,0,.21.53,1.43,1.43,0,0,0,.53.32l0.91,0.28a10.08,10.08,0,0,1,1.35.46,2.32,2.32,0,0,1,.92.74,2.1,2.1,0,0,1,.38,1.3,2,2,0,0,1-.44,1.28,2.75,2.75,0,0,1-1.12.83,3.62,3.62,0,0,1-1.4.29,5.09,5.09,0,0,1-1.85-.33,3.07,3.07,0,0,1-1.4-1.07A0.73,0.73,0,0,1,419.19,300.59Z" transform="translate(-382.62 -245.38)"/><path class="cls-1" d="M432.57,294.51a1.19,1.19,0,0,1,.78,1.06,0.91,0.91,0,0,1-.2.58,0.62,0.62,0,0,1-.51.25,1,1,0,0,1-.39-0.07,1.38,1.38,0,0,1-.29-0.18l-0.28-.19a1.9,1.9,0,0,0-.44-0.13,2.45,2.45,0,0,0-.47-0.06,2.27,2.27,0,0,0-1.76.7,2.87,2.87,0,0,0,0,3.62,2.13,2.13,0,0,0,1.65.71,2.55,2.55,0,0,0,1.09-.18l0.25-.16a1.7,1.7,0,0,1,.29-0.17,0.81,0.81,0,0,1,.33-0.06,0.76,0.76,0,0,1,.59.24,0.88,0.88,0,0,1,.22.62,0.87,0.87,0,0,1-.42.67,3.28,3.28,0,0,1-1.11.5,5.59,5.59,0,0,1-1.47.19,3.8,3.8,0,0,1-2-.54,3.63,3.63,0,0,1-1.36-1.49,4.66,4.66,0,0,1-.48-2.12,4.53,4.53,0,0,1,.5-2.16,3.7,3.7,0,0,1,1.4-1.48,3.93,3.93,0,0,1,2-.53A4.55,4.55,0,0,1,432.57,294.51Z" transform="translate(-382.62 -245.38)"/><path class="cls-1" d="M439.67,294.37a0.76,0.76,0,0,1,.31.6,0.93,0.93,0,0,1-.24.7,0.79,0.79,0,0,1-.57.23,1.49,1.49,0,0,1-.51-0.11l-0.2-.06a1.21,1.21,0,0,0-.34,0,1.33,1.33,0,0,0-.75.24,1.75,1.75,0,0,0-.59.73,2.68,2.68,0,0,0-.23,1.16v3.55a0.9,0.9,0,0,1-.25.65,0.92,0.92,0,0,1-1.29,0,0.9,0.9,0,0,1-.25-0.65v-6.19a0.9,0.9,0,0,1,.25-0.65,0.93,0.93,0,0,1,1.29,0,0.9,0.9,0,0,1,.25.65v0.19a2.28,2.28,0,0,1,1-.94,3,3,0,0,1,1.38-.32A1.15,1.15,0,0,1,439.67,294.37Z" transform="translate(-382.62 -245.38)"/><path class="cls-1" d="M441.31,293.12a0.7,0.7,0,0,1-.21-0.58v-0.29a0.68,0.68,0,0,1,.22-0.58,1.69,1.69,0,0,1,1.46,0,0.71,0.71,0,0,1,.21.58v0.29a0.69,0.69,0,0,1-.22.59,1.31,1.31,0,0,1-.74.16A1.19,1.19,0,0,1,441.31,293.12Zm1.38,8.9a0.92,0.92,0,0,1-1.29,0,0.9,0.9,0,0,1-.25-0.65v-6.19a0.9,0.9,0,0,1,.25-0.65,0.93,0.93,0,0,1,1.29,0,0.9,0.9,0,0,1,.25.65v6.19A0.9,0.9,0,0,1,442.69,302Z" transform="translate(-382.62 -245.38)"/><path class="cls-1" d="M456.1,295a4.71,4.71,0,0,1,.57,2.51v3.84a0.9,0.9,0,0,1-.25.65,0.92,0.92,0,0,1-1.29,0,0.9,0.9,0,0,1-.25-0.65v-3.84a2.28,2.28,0,0,0-.32-1.3,1.27,1.27,0,0,0-1.13-.47,1.71,1.71,0,0,0-1.31.5,1.78,1.78,0,0,0-.47,1.27v3.84a0.9,0.9,0,0,1-.25.65,0.92,0.92,0,0,1-1.29,0,0.9,0.9,0,0,1-.25-0.65v-3.84a2.28,2.28,0,0,0-.32-1.3,1.27,1.27,0,0,0-1.13-.47,1.71,1.71,0,0,0-1.31.5,1.78,1.78,0,0,0-.47,1.27v3.84a0.9,0.9,0,0,1-.25.65,0.92,0.92,0,0,1-1.29,0,0.9,0.9,0,0,1-.25-0.65v-6.19a0.9,0.9,0,0,1,.25-0.65,0.93,0.93,0,0,1,1.29,0,0.9,0.9,0,0,1,.25.65v0.24a3.66,3.66,0,0,1,1-.92,2.6,2.6,0,0,1,1.39-.38,2.27,2.27,0,0,1,2.42,1.65,3.54,3.54,0,0,1,1-1.14,2.61,2.61,0,0,1,1.58-.51A2.23,2.23,0,0,1,456.1,295Z" transform="translate(-382.62 -245.38)"/><path class="cls-1" d="M458.68,293.12a0.7,0.7,0,0,1-.21-0.58v-0.29a0.68,0.68,0,0,1,.22-0.58,1.69,1.69,0,0,1,1.46,0,0.71,0.71,0,0,1,.21.58v0.29a0.69,0.69,0,0,1-.22.59,1.31,1.31,0,0,1-.74.16A1.19,1.19,0,0,1,458.68,293.12Zm1.38,8.9a0.92,0.92,0,0,1-1.29,0,0.9,0.9,0,0,1-.25-0.65v-6.19a0.9,0.9,0,0,1,.25-0.65,0.93,0.93,0,0,1,1.29,0,0.9,0.9,0,0,1,.25.65v6.19A0.9,0.9,0,0,1,460.06,302Z" transform="translate(-382.62 -245.38)"/><path class="cls-1" d="M468.57,295a4.61,4.61,0,0,1,.58,2.51v3.84a0.9,0.9,0,0,1-.25.65,0.92,0.92,0,0,1-1.29,0,0.9,0.9,0,0,1-.25-0.65v-3.84a2.16,2.16,0,0,0-.35-1.3,1.37,1.37,0,0,0-1.19-.47,1.83,1.83,0,0,0-1.36.5,1.73,1.73,0,0,0-.5,1.27v3.84a0.9,0.9,0,0,1-.25.65,0.92,0.92,0,0,1-1.29,0,0.9,0.9,0,0,1-.25-0.65v-6.19a0.9,0.9,0,0,1,.25-0.65,0.93,0.93,0,0,1,1.29,0,0.9,0.9,0,0,1,.25.65v0.25a3.63,3.63,0,0,1,1.06-.93,2.74,2.74,0,0,1,1.43-.39A2.32,2.32,0,0,1,468.57,295Z" transform="translate(-382.62 -245.38)"/><path class="cls-1" d="M478.24,294.37a0.89,0.89,0,0,1,.25.66v6.34a0.9,0.9,0,0,1-.25.65,0.86,0.86,0,0,1-.65.26A0.85,0.85,0,0,1,477,302a0.94,0.94,0,0,1-.26-0.64,3.25,3.25,0,0,1-2.35,1,3.43,3.43,0,0,1-1.87-.53,3.73,3.73,0,0,1-1.33-1.48,4.61,4.61,0,0,1-.49-2.15,4.72,4.72,0,0,1,.48-2.15,3.69,3.69,0,0,1,1.31-1.49,3.35,3.35,0,0,1,1.84-.53,3.48,3.48,0,0,1,1.35.26,3.55,3.55,0,0,1,1.06.67h0a0.9,0.9,0,0,1,.26-0.65,0.86,0.86,0,0,1,.65-0.26A0.88,0.88,0,0,1,478.24,294.37Zm-2.09,5.71a2.93,2.93,0,0,0,0-3.59,2.1,2.1,0,0,0-3.16,0,2.95,2.95,0,0,0,0,3.59,2,2,0,0,0,1.58.71A2,2,0,0,0,476.16,300.08Z" transform="translate(-382.62 -245.38)"/><path class="cls-1" d="M486,294.51a1.19,1.19,0,0,1,.78,1.06,0.91,0.91,0,0,1-.2.58,0.62,0.62,0,0,1-.51.25,1,1,0,0,1-.39-0.07,1.38,1.38,0,0,1-.29-0.18l-0.28-.19a1.9,1.9,0,0,0-.44-0.13,2.45,2.45,0,0,0-.47-0.06,2.27,2.27,0,0,0-1.76.7,2.87,2.87,0,0,0,0,3.62,2.13,2.13,0,0,0,1.65.71,2.55,2.55,0,0,0,1.09-.18l0.25-.16a1.7,1.7,0,0,1,.29-0.17,0.81,0.81,0,0,1,.33-0.06,0.76,0.76,0,0,1,.59.24,0.88,0.88,0,0,1,.22.62,0.87,0.87,0,0,1-.42.67,3.28,3.28,0,0,1-1.11.5,5.59,5.59,0,0,1-1.47.19,3.8,3.8,0,0,1-2-.54,3.63,3.63,0,0,1-1.36-1.49,4.66,4.66,0,0,1-.48-2.12,4.53,4.53,0,0,1,.5-2.16,3.7,3.7,0,0,1,1.4-1.48,3.93,3.93,0,0,1,2-.53A4.55,4.55,0,0,1,486,294.51Z" transform="translate(-382.62 -245.38)"/><path class="cls-1" d="M488.23,293.12a0.7,0.7,0,0,1-.21-0.58v-0.29a0.68,0.68,0,0,1,.22-0.58,1.69,1.69,0,0,1,1.46,0,0.71,0.71,0,0,1,.21.58v0.29a0.69,0.69,0,0,1-.22.59,1.31,1.31,0,0,1-.74.16A1.19,1.19,0,0,1,488.23,293.12Zm1.38,8.9a0.92,0.92,0,0,1-1.29,0,0.9,0.9,0,0,1-.25-0.65v-6.19a0.9,0.9,0,0,1,.25-0.65,0.93,0.93,0,0,1,1.29,0,0.9,0.9,0,0,1,.25.65v6.19A0.9,0.9,0,0,1,489.61,302Z" transform="translate(-382.62 -245.38)"/><path class="cls-1" d="M498.88,300.44a3.81,3.81,0,0,1-1.48,1.48,4.33,4.33,0,0,1-4.13,0,3.82,3.82,0,0,1-1.47-1.48,4.56,4.56,0,0,1,0-4.3,3.89,3.89,0,0,1,1.47-1.49,4.28,4.28,0,0,1,4.13,0,3.87,3.87,0,0,1,1.48,1.49A4.56,4.56,0,0,1,498.88,300.44ZM497.32,297a2.26,2.26,0,0,0-.83-0.89,2.25,2.25,0,0,0-2.29,0,2.26,2.26,0,0,0-.83.89,2.75,2.75,0,0,0-.31,1.31,2.7,2.7,0,0,0,.31,1.3,2.27,2.27,0,0,0,.83.89,2.25,2.25,0,0,0,2.29,0,2.27,2.27,0,0,0,.83-0.89,2.71,2.71,0,0,0,.31-1.3A2.76,2.76,0,0,0,497.32,297Zm-2.22-3.35a0.4,0.4,0,0,1-.16-0.36A0.55,0.55,0,0,1,495,293l0.87-1.53a1.41,1.41,0,0,1,.36-0.43,0.73,0.73,0,0,1,.46-0.17,0.8,0.8,0,0,1,.61.21,0.69,0.69,0,0,1,.19.54,1.14,1.14,0,0,1-.28.64l-1.14,1.26a0.88,0.88,0,0,1-.67.25A0.54,0.54,0,0,1,495.1,293.62Z" transform="translate(-382.62 -245.38)"/><path class="cls-1" d="M507.33,295a4.61,4.61,0,0,1,.59,2.51v3.84a0.9,0.9,0,0,1-.26.65,0.92,0.92,0,0,1-1.29,0,0.9,0.9,0,0,1-.25-0.65v-3.84a2.16,2.16,0,0,0-.35-1.3,1.37,1.37,0,0,0-1.19-.47,1.83,1.83,0,0,0-1.36.5,1.73,1.73,0,0,0-.5,1.27v3.84a0.9,0.9,0,0,1-.25.65,0.92,0.92,0,0,1-1.29,0,0.9,0.9,0,0,1-.25-0.65v-6.19a0.9,0.9,0,0,1,.25-0.65,0.93,0.93,0,0,1,1.29,0,0.9,0.9,0,0,1,.25.65v0.25a3.63,3.63,0,0,1,1.06-.93,2.74,2.74,0,0,1,1.43-.39A2.32,2.32,0,0,1,507.33,295Z" transform="translate(-382.62 -245.38)"/><path class="cls-2" d="M427.18,260.77a2.38,2.38,0,0,1,2.47,2.42,2.22,2.22,0,0,1-2.38,2.28,2.3,2.3,0,0,1-2.58-2.4A2.2,2.2,0,0,1,427.18,260.77Z" transform="translate(-382.62 -245.38)"/><path class="cls-2" d="M438.81,269.26a2.71,2.71,0,0,1-1.64-.45c-0.4-.27-0.79-0.55-1.21-0.77-3-1.6-3.15-1.55-5.37,1-1,1.12-2.06,2.15-3.12,3.2a1.33,1.33,0,0,1-2,.13c-0.65-.73.05-1.35,0.6-1.8a16.53,16.53,0,0,0,4.19-4.89,11,11,0,0,0,.65-9c-0.26-.8-1.06-1.93.26-2.3,1.13-.32,1.56.83,1.82,1.79a22.35,22.35,0,0,1,.81,5.26,2.32,2.32,0,0,0,1.95,2.33c1.34,0.37,2.71.63,4,1.07a2.11,2.11,0,0,1,1.47,2.62A2.22,2.22,0,0,1,438.81,269.26Z" transform="translate(-382.62 -245.38)"/><path class="cls-2" d="M435.55,282.29a17.82,17.82,0,0,1,4.18-2.55c3.25-1.56,3.26-1.55,2.85-5.22-0.13-1.23-.44-2.53.46-3.57a2.1,2.1,0,0,1,2.83-.52,2.53,2.53,0,0,1,1.26,3,16.85,16.85,0,0,0-.55,3.54,2,2,0,0,0,1.5,2.27,27.55,27.55,0,0,1,5.36,2.44c0.71,0.43,1.36,1,.84,1.84s-1.32.4-2,0c-4.13-2.47-8.39-3.52-13-1.19a9.94,9.94,0,0,0-2.23,1.55,1.15,1.15,0,0,1-1.65.29C434.86,283.59,435.21,283,435.55,282.29Z" transform="translate(-382.62 -245.38)"/><path class="cls-2" d="M446.11,282.84c1,0.69,1.62,2.36,1.16,3-1.1,1.57-2.41,1.94-3.66,1a2.87,2.87,0,0,1-.85-3.72C443.55,282,444.8,281.92,446.11,282.84Z" transform="translate(-382.62 -245.38)"/><path class="cls-2" d="M462.63,274.26a17.82,17.82,0,0,1-3.37-3.56c-2.2-2.86-2.2-2.86-5.7-1.71-1.17.39-2.39,1-3.59,0.29a2.1,2.1,0,0,1-1.1-2.66,2.53,2.53,0,0,1,2.62-1.84,16.85,16.85,0,0,0,3.58-.2,2,2,0,0,0,1.91-1.94,27.55,27.55,0,0,1,1.27-5.75c0.27-.78.7-1.54,1.63-1.21s0.66,1.2.41,2c-1.56,4.55-1.7,8.94,1.53,12.93a9.94,9.94,0,0,0,2,1.86,1.15,1.15,0,0,1,.63,1.56C464.05,274.66,463.36,274.45,462.63,274.26Z" transform="translate(-382.62 -245.38)"/><path class="cls-2" d="M461,263.82c0.47-1.1,2-2.08,2.71-1.76,1.77,0.75,2.4,1.95,1.78,3.36A2.87,2.87,0,0,1,462,267C460.73,266.49,460.34,265.3,461,263.82Z" transform="translate(-382.62 -245.38)"/><path class="cls-2" d="M443,261.55a2.71,2.71,0,0,1-.17-1.7c0.1-.47.23-0.93,0.29-1.41,0.41-3.39.31-3.49-2.87-4.65-1.4-.51-2.75-1.15-4.11-1.76a1.33,1.33,0,0,1-.85-1.86c0.45-.87,1.28-0.44,1.89-0.09a16.53,16.53,0,0,0,6.07,2.16,11,11,0,0,0,8.68-2.64c0.65-.53,1.42-1.68,2.24-0.58,0.71,0.94-.21,1.75-1,2.34A22.35,22.35,0,0,1,448.5,254a2.32,2.32,0,0,0-1.47,2.65c0.13,1.38.38,2.76,0.45,4.14a2.11,2.11,0,0,1-1.92,2.32A2.22,2.22,0,0,1,443,261.55Z" transform="translate(-382.62 -245.38)"/><path class="cls-2" d="M446.72,247.65a2.38,2.38,0,0,1-1.37,3.17,2.22,2.22,0,0,1-3-1.41,2.3,2.3,0,0,1,1.32-3.27A2.2,2.2,0,0,1,446.72,247.65Z" transform="translate(-382.62 -245.38)"/></svg>