<svg id="Layer_1" data-name="Layer 1" xmlns="http://www.w3.org/2000/svg" viewBox="0 0 85.66 60.28"><defs><style>.cls-1{fill:#7e6bb0;}</style></defs><title>No violencia</title><path class="cls-1" d="M47.85,283.82a0.84,0.84,0,0,1,.23.6v8.75a0.9,0.9,0,0,1-.92.92,1.3,1.3,0,0,1-.41-0.07,0.58,0.58,0,0,1-.29-0.19l-5.5-7v6.41a0.83,0.83,0,0,1-.23.6,0.81,0.81,0,0,1-.61.24,0.77,0.77,0,0,1-.58-0.24,0.84,0.84,0,0,1-.22-0.6V284.5a0.9,0.9,0,0,1,.92-0.92,1.15,1.15,0,0,1,.44.09,0.72,0.72,0,0,1,.32.24l5.46,7v-6.45a0.83,0.83,0,0,1,.23-0.6,0.79,0.79,0,0,1,.59-0.24A0.76,0.76,0,0,1,47.85,283.82Z" transform="translate(-39.3 -233.95)"/><path class="cls-1" d="M57.34,292.23a3.81,3.81,0,0,1-1.48,1.48,4.33,4.33,0,0,1-4.13,0,3.82,3.82,0,0,1-1.47-1.48,4.56,4.56,0,0,1,0-4.3,3.88,3.88,0,0,1,1.47-1.49,4.28,4.28,0,0,1,4.13,0,3.87,3.87,0,0,1,1.48,1.49A4.56,4.56,0,0,1,57.34,292.23Zm-1.57-3.46a2.26,2.26,0,0,0-.82-0.89,2.25,2.25,0,0,0-2.3,0,2.26,2.26,0,0,0-.82.89,2.75,2.75,0,0,0-.31,1.31,2.7,2.7,0,0,0,.31,1.3,2.27,2.27,0,0,0,.82.88,2.25,2.25,0,0,0,2.3,0,2.28,2.28,0,0,0,.82-0.88,2.7,2.7,0,0,0,.31-1.3A2.75,2.75,0,0,0,55.77,288.76Z" transform="translate(-39.3 -233.95)"/><path class="cls-1" d="M70.35,286.3a0.78,0.78,0,0,1,.24.58,1.18,1.18,0,0,1-.12.45l-2.81,6.18a0.92,0.92,0,0,1-.31.41,0.83,0.83,0,0,1-.46.17H66.76a0.78,0.78,0,0,1-.47-0.16,1,1,0,0,1-.34-0.43l-2.79-6.18a1.2,1.2,0,0,1-.1-0.48,0.75,0.75,0,0,1,.25-0.55,0.87,0.87,0,0,1,.63-0.25,1,1,0,0,1,.53.15,0.93,0.93,0,0,1,.36.42l2.07,4.74,2.05-4.73a1,1,0,0,1,.33-0.43,0.71,0.71,0,0,1,.46-0.13A0.83,0.83,0,0,1,70.35,286.3Z" transform="translate(-39.3 -233.95)"/><path class="cls-1" d="M72.07,284.92a0.7,0.7,0,0,1-.21-0.58V284a0.68,0.68,0,0,1,.22-0.58,1.69,1.69,0,0,1,1.46,0,0.71,0.71,0,0,1,.21.58v0.29a0.69,0.69,0,0,1-.22.59,1.31,1.31,0,0,1-.74.16A1.19,1.19,0,0,1,72.07,284.92Zm1.38,8.9a0.92,0.92,0,0,1-1.29,0,0.9,0.9,0,0,1-.25-0.65V287a0.9,0.9,0,0,1,.25-0.65,0.92,0.92,0,0,1,1.29,0,0.9,0.9,0,0,1,.25.65v6.2A0.9,0.9,0,0,1,73.45,293.82Z" transform="translate(-39.3 -233.95)"/><path class="cls-1" d="M82.72,292.23a3.81,3.81,0,0,1-1.48,1.48,4.33,4.33,0,0,1-4.13,0,3.82,3.82,0,0,1-1.47-1.48,4.56,4.56,0,0,1,0-4.3,3.88,3.88,0,0,1,1.47-1.49,4.28,4.28,0,0,1,4.13,0,3.87,3.87,0,0,1,1.48,1.49A4.56,4.56,0,0,1,82.72,292.23Zm-1.57-3.46a2.26,2.26,0,0,0-.82-0.89,2.25,2.25,0,0,0-2.3,0,2.26,2.26,0,0,0-.82.89,2.75,2.75,0,0,0-.31,1.31,2.7,2.7,0,0,0,.31,1.3,2.27,2.27,0,0,0,.82.88,2.25,2.25,0,0,0,2.3,0,2.28,2.28,0,0,0,.82-0.88,2.7,2.7,0,0,0,.31-1.3A2.75,2.75,0,0,0,81.15,288.76Z" transform="translate(-39.3 -233.95)"/><path class="cls-1" d="M86.45,293.82a0.89,0.89,0,0,1-.65.26,0.84,0.84,0,0,1-.63-0.26,0.9,0.9,0,0,1-.25-0.65V283.9a0.9,0.9,0,0,1,.92-0.92,0.84,0.84,0,0,1,.63.26,0.9,0.9,0,0,1,.25.65v9.27A0.89,0.89,0,0,1,86.45,293.82Z" transform="translate(-39.3 -233.95)"/><path class="cls-1" d="M95.57,290.47a1,1,0,0,1-.63.23H90a2.26,2.26,0,0,0,.83,1.39,2.3,2.3,0,0,0,1.46.5,3.22,3.22,0,0,0,1-.11,2.5,2.5,0,0,0,.55-0.24l0.28-.17a1.14,1.14,0,0,1,.51-0.13,0.73,0.73,0,0,1,.54.23,0.72,0.72,0,0,1,.23.52,0.94,0.94,0,0,1-.42.74,3.6,3.6,0,0,1-1.12.58,4.65,4.65,0,0,1-3.62-.29,3.66,3.66,0,0,1-1.45-1.45,4.22,4.22,0,0,1-.51-2.08,4.6,4.6,0,0,1,.54-2.26,3.82,3.82,0,0,1,1.42-1.49,3.68,3.68,0,0,1,1.89-.52,3.5,3.5,0,0,1,1.87.54,4,4,0,0,1,1.4,1.46,3.91,3.91,0,0,1,.52,2A0.77,0.77,0,0,1,95.57,290.47ZM90,289.19h3.93v-0.11a1.55,1.55,0,0,0-.62-1.08,2,2,0,0,0-1.26-.45A1.86,1.86,0,0,0,90,289.19Z" transform="translate(-39.3 -233.95)"/><path class="cls-1" d="M103.76,286.81a4.62,4.62,0,0,1,.58,2.51v3.84a0.9,0.9,0,0,1-.25.65,0.92,0.92,0,0,1-1.29,0,0.9,0.9,0,0,1-.25-0.65v-3.84a2.17,2.17,0,0,0-.34-1.3,1.37,1.37,0,0,0-1.19-.47,1.83,1.83,0,0,0-1.37.5,1.74,1.74,0,0,0-.49,1.27v3.84a0.9,0.9,0,0,1-.26.65,0.92,0.92,0,0,1-1.29,0,0.9,0.9,0,0,1-.26-0.65V287a0.9,0.9,0,0,1,.26-0.65,0.92,0.92,0,0,1,1.29,0,0.9,0.9,0,0,1,.26.65v0.25a3.64,3.64,0,0,1,1.06-.93,2.75,2.75,0,0,1,1.43-.39A2.32,2.32,0,0,1,103.76,286.81Z" transform="translate(-39.3 -233.95)"/><path class="cls-1" d="M111.85,286.3a1.19,1.19,0,0,1,.78,1.06,0.91,0.91,0,0,1-.19.58,0.62,0.62,0,0,1-.51.25,1,1,0,0,1-.39-0.07,1.39,1.39,0,0,1-.29-0.18,2,2,0,0,0-.28-0.19,1.88,1.88,0,0,0-.44-0.13,2.47,2.47,0,0,0-.47-0.06,2.26,2.26,0,0,0-1.76.7,2.87,2.87,0,0,0,0,3.61,2.12,2.12,0,0,0,1.65.71,2.55,2.55,0,0,0,1.09-.18l0.25-.16a1.73,1.73,0,0,1,.29-0.17,0.81,0.81,0,0,1,.33-0.06,0.76,0.76,0,0,1,.59.24,0.88,0.88,0,0,1,.22.62,0.87,0.87,0,0,1-.42.67,3.26,3.26,0,0,1-1.11.5,5.59,5.59,0,0,1-1.47.19,3.8,3.8,0,0,1-2-.54,3.63,3.63,0,0,1-1.36-1.49,4.64,4.64,0,0,1-.48-2.12,4.53,4.53,0,0,1,.5-2.16,3.7,3.7,0,0,1,1.4-1.48,3.94,3.94,0,0,1,2-.53A4.55,4.55,0,0,1,111.85,286.3Z" transform="translate(-39.3 -233.95)"/><path class="cls-1" d="M114.08,284.92a0.7,0.7,0,0,1-.21-0.58V284a0.68,0.68,0,0,1,.22-0.58,1.69,1.69,0,0,1,1.46,0,0.71,0.71,0,0,1,.21.58v0.29a0.69,0.69,0,0,1-.22.59,1.31,1.31,0,0,1-.74.16A1.19,1.19,0,0,1,114.08,284.92Zm1.38,8.9a0.92,0.92,0,0,1-1.29,0,0.9,0.9,0,0,1-.25-0.65V287a0.9,0.9,0,0,1,.25-0.65,0.92,0.92,0,0,1,1.29,0,0.9,0.9,0,0,1,.25.65v6.2A0.9,0.9,0,0,1,115.46,293.82Z" transform="translate(-39.3 -233.95)"/><path class="cls-1" d="M124.7,286.16a0.89,0.89,0,0,1,.25.66v6.34a0.9,0.9,0,0,1-.25.65,0.86,0.86,0,0,1-.65.26,0.85,0.85,0,0,1-.64-0.25,1,1,0,0,1-.26-0.65,3.25,3.25,0,0,1-2.36,1.05,3.43,3.43,0,0,1-1.87-.53,3.73,3.73,0,0,1-1.33-1.48,4.61,4.61,0,0,1-.49-2.14,4.71,4.71,0,0,1,.48-2.15,3.7,3.7,0,0,1,1.31-1.49,3.35,3.35,0,0,1,1.84-.53,3.48,3.48,0,0,1,1.35.26,3.55,3.55,0,0,1,1.07.67h0a0.9,0.9,0,0,1,.25-0.65,0.86,0.86,0,0,1,.64-0.26A0.88,0.88,0,0,1,124.7,286.16Zm-2.08,5.71a2.65,2.65,0,0,0,.61-1.79,2.68,2.68,0,0,0-.61-1.8,2.1,2.1,0,0,0-3.17,0,2.94,2.94,0,0,0,0,3.59,2,2,0,0,0,1.58.71A2,2,0,0,0,122.62,291.87Z" transform="translate(-39.3 -233.95)"/><path class="cls-1" d="M83.32,245.28H81.58a0.65,0.65,0,0,0-.65.65v0.44a0.65,0.65,0,0,0,1.27.22h1.13A0.65,0.65,0,1,0,83.32,245.28Z" transform="translate(-39.3 -233.95)"/><path class="cls-1" d="M88.21,243.12a0.65,0.65,0,0,0-.62-0.46H85.94a8,8,0,0,1-6.17-2.87,0.65,0.65,0,0,0-1,0,8,8,0,0,1-6.17,2.87H71a0.65,0.65,0,0,0-.62.46,9.37,9.37,0,0,0-.43,2.81v2.18a9.37,9.37,0,0,0,18.74,0v-2.18A9.37,9.37,0,0,0,88.21,243.12Zm-0.88,5a8.06,8.06,0,0,1-16.12,0v-2.18a8.09,8.09,0,0,1,.24-2H72.6a9.35,9.35,0,0,0,6.67-2.79A9.35,9.35,0,0,0,85.94,244h1.15a8.09,8.09,0,0,1,.24,2v2.18Z" transform="translate(-39.3 -233.95)"/><path class="cls-1" d="M102.5,253.24a2.25,2.25,0,0,0-1,.21V252a2.26,2.26,0,0,0-3.22-2.05V249.7a2.27,2.27,0,1,0-4.53,0v0.21a2.25,2.25,0,0,0-.54-0.17,4.14,4.14,0,0,0-2-2.2v-1.61a12,12,0,0,0-24,0v1.61A4.16,4.16,0,0,0,65,251.23a4.1,4.1,0,0,0,.6,2.14A6.75,6.75,0,0,0,68.68,263a15.43,15.43,0,0,0-4.88,11.26,0.65,0.65,0,1,0,1.31,0,14.17,14.17,0,0,1,7.51-12.5,8,8,0,0,0,1,2.5l0.06,0.1a21.64,21.64,0,0,0,5.19,5.38,0.65,0.65,0,0,0,.76,0c0.24-.17,5.48-4,6.27-8a14.2,14.2,0,0,1,1.41.86v3.58a8.74,8.74,0,0,0,8.75,8.71,8.65,8.65,0,0,0,8.67-8.67V255.5A2.27,2.27,0,0,0,102.5,253.24ZM98.31,252a1,1,0,0,1,1.92,0v8.68H98.31V252Zm-3.22-2.29a1,1,0,0,1,1.92,0v11H95.09v-11ZM92.76,251h0.06a1,1,0,0,1,1,1v8.71H91.86V252A1,1,0,0,1,92.76,251ZM79.27,268.38a22.1,22.1,0,0,1-3.81-3.76h7.63A22.18,22.18,0,0,1,79.27,268.38Zm4.68-5.06H74.59a5.84,5.84,0,0,1-.75-2.14,14.2,14.2,0,0,1,10.85,0A5.83,5.83,0,0,1,83.95,263.32Zm3.38-5.16V261A15.47,15.47,0,0,0,73,260.12l-0.15.07a15.49,15.49,0,0,0-3,1.83,5.44,5.44,0,0,1-2.87-8.29,0.65,0.65,0,0,0,0-.77,2.8,2.8,0,0,1-.59-1.73,2.85,2.85,0,0,1,1.84-2.65A0.65,0.65,0,0,0,68.6,248v-2a10.68,10.68,0,0,1,21.35,0v2a0.65,0.65,0,0,0,.42.61,2.83,2.83,0,0,1,1.51,1.33A2.27,2.27,0,0,0,90.56,252v4.14A2.26,2.26,0,0,0,87.33,258.16Zm16.12,8.07h0a7.4,7.4,0,0,1-14.81,0v-3.88a0.65,0.65,0,0,0,0-.09v-4.07a1,1,0,0,1,1.92,0v5.79a0.66,0.66,0,0,0,.66.65,4.26,4.26,0,0,1,4.22,4.3,0.65,0.65,0,0,0,1.31,0,5.58,5.58,0,0,0-1.6-4,5.48,5.48,0,0,0-3.28-1.62V262h9.62a0.65,0.65,0,0,0,.09-1.3v-5.42a1,1,0,0,1,1.89.24v10.73h0Z" transform="translate(-39.3 -233.95)"/></svg>