<svg id="Layer_1" data-name="Layer 1" xmlns="http://www.w3.org/2000/svg" viewBox="0 0 67.63 58.41"><defs><style>.cls-1{fill:#7e6bb0;}</style></defs><title>Recursos naturales</title><path class="cls-1" d="M71.83,193.86a0.81,0.81,0,0,1,.11.41,0.78,0.78,0,0,1-.18.5,0.85,0.85,0,0,1-.69.27,1.34,1.34,0,0,1-.66-0.17,2.63,2.63,0,0,1-1.08-2.5A1.09,1.09,0,0,0,69,191.5a1.47,1.47,0,0,0-1-.32h-2.8v2.91a1,1,0,0,1-.22.66,0.72,0.72,0,0,1-.58.25,1.17,1.17,0,0,1-.76-0.26,0.81,0.81,0,0,1-.32-0.65v-8.67a0.9,0.9,0,0,1,.92-0.92h4.32a2.79,2.79,0,0,1,1.47.42,3.1,3.1,0,0,1,1.1,1.16,3.32,3.32,0,0,1,.41,1.65,2.93,2.93,0,0,1-.4,1.46A3.23,3.23,0,0,1,70,190.33a2.3,2.3,0,0,1,1,1.77,2.5,2.5,0,0,1,0,.46,4.76,4.76,0,0,0,.12.67,0.5,0.5,0,0,0,.27.31A0.89,0.89,0,0,1,71.83,193.86ZM69,189.39a1.94,1.94,0,0,0,.42-0.68,2.56,2.56,0,0,0,.16-0.92,1.81,1.81,0,0,0-.16-0.77,1.6,1.6,0,0,0-.42-0.56,0.82,0.82,0,0,0-.52-0.21H65.16v3.41h3.29A0.75,0.75,0,0,0,69,189.39Z" transform="translate(-63.28 -149.76)"/><path class="cls-1" d="M80.28,191.4a1,1,0,0,1-.63.23h-5a2.26,2.26,0,0,0,.83,1.39,2.3,2.3,0,0,0,1.46.5,3.22,3.22,0,0,0,1-.11,2.5,2.5,0,0,0,.55-0.24l0.28-.17a1.14,1.14,0,0,1,.51-0.13,0.73,0.73,0,0,1,.54.23,0.72,0.72,0,0,1,.23.52,0.94,0.94,0,0,1-.42.74,3.6,3.6,0,0,1-1.12.58,4.65,4.65,0,0,1-3.62-.29,3.66,3.66,0,0,1-1.45-1.45,4.22,4.22,0,0,1-.51-2.08,4.6,4.6,0,0,1,.54-2.26,3.82,3.82,0,0,1,1.42-1.49,3.68,3.68,0,0,1,1.89-.52,3.5,3.5,0,0,1,1.87.54,4,4,0,0,1,1.4,1.46,3.91,3.91,0,0,1,.52,2A0.77,0.77,0,0,1,80.28,191.4Zm-5.56-1.27h3.93V190a1.55,1.55,0,0,0-.62-1.08,2,2,0,0,0-1.26-.45A1.86,1.86,0,0,0,74.71,190.12Z" transform="translate(-63.28 -149.76)"/><path class="cls-1" d="M87.61,187.24a1.19,1.19,0,0,1,.78,1.06,0.91,0.91,0,0,1-.19.58,0.62,0.62,0,0,1-.51.25,1,1,0,0,1-.39-0.07,1.39,1.39,0,0,1-.29-0.18,2,2,0,0,0-.28-0.19,1.88,1.88,0,0,0-.44-0.13,2.47,2.47,0,0,0-.47-0.06,2.26,2.26,0,0,0-1.76.7,2.87,2.87,0,0,0,0,3.61,2.12,2.12,0,0,0,1.65.71,2.55,2.55,0,0,0,1.09-.18l0.25-.16a1.73,1.73,0,0,1,.29-0.17,0.81,0.81,0,0,1,.33-0.06,0.76,0.76,0,0,1,.59.24,0.88,0.88,0,0,1,.22.62,0.87,0.87,0,0,1-.42.67A3.26,3.26,0,0,1,87,195a5.59,5.59,0,0,1-1.47.19,3.8,3.8,0,0,1-2-.54,3.63,3.63,0,0,1-1.36-1.49,4.64,4.64,0,0,1-.48-2.12,4.53,4.53,0,0,1,.5-2.16,3.7,3.7,0,0,1,1.4-1.48,3.94,3.94,0,0,1,2-.53A4.55,4.55,0,0,1,87.61,187.24Z" transform="translate(-63.28 -149.76)"/><path class="cls-1" d="M96.39,187.25a0.9,0.9,0,0,1,.25.65v3.81a3.48,3.48,0,0,1-.89,2.54,4,4,0,0,1-5.08,0,3.49,3.49,0,0,1-.89-2.54V187.9a0.9,0.9,0,0,1,.26-0.65,0.92,0.92,0,0,1,1.29,0,0.9,0.9,0,0,1,.26.65v3.81a2,2,0,0,0,.4,1.36,1.57,1.57,0,0,0,1.21.44,1.59,1.59,0,0,0,1.23-.44,2,2,0,0,0,.41-1.36V187.9a0.9,0.9,0,0,1,.25-0.65A0.92,0.92,0,0,1,96.39,187.25Z" transform="translate(-63.28 -149.76)"/><path class="cls-1" d="M103.52,187.09a0.76,0.76,0,0,1,.31.6,0.93,0.93,0,0,1-.24.7,0.79,0.79,0,0,1-.57.23,1.49,1.49,0,0,1-.51-0.11l-0.2-.06a1.22,1.22,0,0,0-.34,0,1.34,1.34,0,0,0-.75.24,1.76,1.76,0,0,0-.59.73,2.68,2.68,0,0,0-.23,1.16v3.55a0.9,0.9,0,0,1-.26.65,0.92,0.92,0,0,1-1.29,0,0.9,0.9,0,0,1-.26-0.65v-6.2a0.9,0.9,0,0,1,.26-0.65,0.92,0.92,0,0,1,1.29,0,0.9,0.9,0,0,1,.26.65v0.2a2.27,2.27,0,0,1,1-.94,3,3,0,0,1,1.38-.32A1.15,1.15,0,0,1,103.52,187.09Z" transform="translate(-63.28 -149.76)"/><path class="cls-1" d="M104.5,193.32a0.85,0.85,0,0,1,.83-0.79,0.85,0.85,0,0,1,.6.29,3.16,3.16,0,0,0,.94.69,2.81,2.81,0,0,0,1.18.22q1.17,0,1.17-.88a0.72,0.72,0,0,0-.4-0.66,5.61,5.61,0,0,0-1.24-.45,10.75,10.75,0,0,1-1.42-.48,2.5,2.5,0,0,1-.94-0.73,2,2,0,0,1-.4-1.31,2,2,0,0,1,.41-1.25,2.72,2.72,0,0,1,1.08-.83,3.5,3.5,0,0,1,1.42-.29,4.34,4.34,0,0,1,1.53.29,2.66,2.66,0,0,1,1.2.84,0.84,0.84,0,0,1,.2.54,0.7,0.7,0,0,1-.29.57,0.75,0.75,0,0,1-.48.17,0.73,0.73,0,0,1-.54-0.21,1.9,1.9,0,0,0-.7-0.52,2.31,2.31,0,0,0-1-.2q-1.14,0-1.14.83a0.7,0.7,0,0,0,.21.53,1.44,1.44,0,0,0,.53.32l0.91,0.28a9.83,9.83,0,0,1,1.35.46,2.32,2.32,0,0,1,.92.74,2.1,2.1,0,0,1,.38,1.3,2,2,0,0,1-.44,1.28,2.76,2.76,0,0,1-1.12.83,3.61,3.61,0,0,1-1.4.29,5.08,5.08,0,0,1-1.84-.33,3.06,3.06,0,0,1-1.4-1.07A0.73,0.73,0,0,1,104.5,193.32Z" transform="translate(-63.28 -149.76)"/><path class="cls-1" d="M119.5,193.16a3.81,3.81,0,0,1-1.48,1.48,4.33,4.33,0,0,1-4.13,0,3.82,3.82,0,0,1-1.47-1.48,4.56,4.56,0,0,1,0-4.3,3.88,3.88,0,0,1,1.47-1.49,4.28,4.28,0,0,1,4.13,0,3.87,3.87,0,0,1,1.48,1.49A4.56,4.56,0,0,1,119.5,193.16Zm-1.57-3.46a2.26,2.26,0,0,0-.82-0.89,2.25,2.25,0,0,0-2.3,0,2.26,2.26,0,0,0-.82.89,2.75,2.75,0,0,0-.31,1.31,2.7,2.7,0,0,0,.31,1.3,2.27,2.27,0,0,0,.82.88,2.25,2.25,0,0,0,2.3,0,2.28,2.28,0,0,0,.82-0.88,2.7,2.7,0,0,0,.31-1.3A2.75,2.75,0,0,0,117.93,189.7Z" transform="translate(-63.28 -149.76)"/><path class="cls-1" d="M120.94,193.32a0.85,0.85,0,0,1,.83-0.79,0.85,0.85,0,0,1,.6.29,3.16,3.16,0,0,0,.94.69,2.81,2.81,0,0,0,1.18.22q1.17,0,1.17-.88a0.72,0.72,0,0,0-.4-0.66,5.61,5.61,0,0,0-1.24-.45,10.75,10.75,0,0,1-1.42-.48,2.5,2.5,0,0,1-.94-0.73,2,2,0,0,1-.4-1.31,2,2,0,0,1,.41-1.25,2.72,2.72,0,0,1,1.08-.83,3.5,3.5,0,0,1,1.42-.29,4.34,4.34,0,0,1,1.53.29,2.66,2.66,0,0,1,1.2.84,0.84,0.84,0,0,1,.2.54,0.7,0.7,0,0,1-.29.57,0.75,0.75,0,0,1-.48.17,0.73,0.73,0,0,1-.54-0.21,1.9,1.9,0,0,0-.7-0.52,2.31,2.31,0,0,0-1-.2q-1.14,0-1.14.83a0.7,0.7,0,0,0,.21.53,1.44,1.44,0,0,0,.53.32l0.91,0.28a9.83,9.83,0,0,1,1.35.46,2.32,2.32,0,0,1,.92.74,2.1,2.1,0,0,1,.38,1.3,2,2,0,0,1-.44,1.28,2.76,2.76,0,0,1-1.12.83,3.61,3.61,0,0,1-1.4.29,5.08,5.08,0,0,1-1.84-.33,3.06,3.06,0,0,1-1.4-1.07A0.73,0.73,0,0,1,120.94,193.32Z" transform="translate(-63.28 -149.76)"/><path class="cls-1" d="M70.09,200.75a4.62,4.62,0,0,1,.58,2.51v3.84a0.9,0.9,0,0,1-.25.65,0.92,0.92,0,0,1-1.29,0,0.9,0.9,0,0,1-.25-0.65v-3.84a2.17,2.17,0,0,0-.34-1.3,1.37,1.37,0,0,0-1.19-.47A1.83,1.83,0,0,0,66,202a1.74,1.74,0,0,0-.49,1.27v3.84a0.9,0.9,0,0,1-.26.65,0.92,0.92,0,0,1-1.29,0,0.9,0.9,0,0,1-.26-0.65v-6.2a0.9,0.9,0,0,1,.26-0.65,0.92,0.92,0,0,1,1.29,0,0.9,0.9,0,0,1,.26.65v0.25a3.64,3.64,0,0,1,1.06-.93,2.75,2.75,0,0,1,1.43-.39A2.32,2.32,0,0,1,70.09,200.75Z" transform="translate(-63.28 -149.76)"/><path class="cls-1" d="M79.77,200.09a0.89,0.89,0,0,1,.25.66v6.34a0.9,0.9,0,0,1-.25.65,0.86,0.86,0,0,1-.65.26,0.85,0.85,0,0,1-.64-0.25,1,1,0,0,1-.26-0.65,3.25,3.25,0,0,1-2.36,1.05,3.43,3.43,0,0,1-1.87-.53,3.73,3.73,0,0,1-1.33-1.48,4.61,4.61,0,0,1-.49-2.14,4.71,4.71,0,0,1,.48-2.15A3.7,3.7,0,0,1,74,200.37a3.35,3.35,0,0,1,1.84-.53,3.48,3.48,0,0,1,1.35.26,3.55,3.55,0,0,1,1.07.67h0a0.9,0.9,0,0,1,.25-0.65,0.86,0.86,0,0,1,.64-0.26A0.88,0.88,0,0,1,79.77,200.09Zm-2.08,5.71A2.65,2.65,0,0,0,78.3,204a2.68,2.68,0,0,0-.61-1.8,2.1,2.1,0,0,0-3.17,0,2.94,2.94,0,0,0,0,3.59,2,2,0,0,0,1.58.71A2,2,0,0,0,77.68,205.8Z" transform="translate(-63.28 -149.76)"/><path class="cls-1" d="M86.23,206.52a0.79,0.79,0,0,1,.17.53,0.8,0.8,0,0,1-.44.68,1.84,1.84,0,0,1-1,.28,2.91,2.91,0,0,1-1.57-.4,1.85,1.85,0,0,1-.64-1.69v-4.14H82.06a0.82,0.82,0,0,1-.84-0.84,0.77,0.77,0,0,1,.24-0.58,0.83,0.83,0,0,1,.6-0.23h0.69v-1a0.9,0.9,0,0,1,.92-0.92,0.84,0.84,0,0,1,.63.26,0.9,0.9,0,0,1,.25.65v1h1.07a0.82,0.82,0,0,1,.84.84,0.77,0.77,0,0,1-.24.58,0.83,0.83,0,0,1-.6.23H84.55v4.06a0.58,0.58,0,0,0,.17.46,0.67,0.67,0,0,0,.45.14,1.3,1.3,0,0,0,.33-0.06,0.9,0.9,0,0,1,.34-0.08A0.5,0.5,0,0,1,86.23,206.52Z" transform="translate(-63.28 -149.76)"/><path class="cls-1" d="M94.71,200.25a0.9,0.9,0,0,1,.25.65v3.81a3.48,3.48,0,0,1-.89,2.54,4,4,0,0,1-5.08,0,3.49,3.49,0,0,1-.89-2.54V200.9a0.9,0.9,0,0,1,.26-0.65,0.92,0.92,0,0,1,1.29,0,0.9,0.9,0,0,1,.26.65v3.81a2,2,0,0,0,.4,1.36,1.57,1.57,0,0,0,1.21.44,1.59,1.59,0,0,0,1.23-.44,2,2,0,0,0,.41-1.36V200.9a0.9,0.9,0,0,1,.25-0.65A0.92,0.92,0,0,1,94.71,200.25Z" transform="translate(-63.28 -149.76)"/><path class="cls-1" d="M101.84,200.09a0.76,0.76,0,0,1,.31.6,0.93,0.93,0,0,1-.24.7,0.79,0.79,0,0,1-.57.23,1.49,1.49,0,0,1-.51-0.11l-0.2-.06a1.22,1.22,0,0,0-.34,0,1.34,1.34,0,0,0-.75.24,1.76,1.76,0,0,0-.59.73,2.68,2.68,0,0,0-.23,1.16v3.55a0.9,0.9,0,0,1-.26.65,0.92,0.92,0,0,1-1.29,0,0.9,0.9,0,0,1-.26-0.65v-6.2a0.9,0.9,0,0,1,.26-0.65,0.92,0.92,0,0,1,1.29,0,0.9,0.9,0,0,1,.26.65v0.2a2.27,2.27,0,0,1,1-.94,3,3,0,0,1,1.38-.32A1.15,1.15,0,0,1,101.84,200.09Z" transform="translate(-63.28 -149.76)"/><path class="cls-1" d="M110.38,200.09a0.89,0.89,0,0,1,.25.66v6.34a0.9,0.9,0,0,1-.25.65,0.86,0.86,0,0,1-.65.26,0.85,0.85,0,0,1-.64-0.25,1,1,0,0,1-.26-0.65,3.25,3.25,0,0,1-2.36,1.05,3.43,3.43,0,0,1-1.87-.53,3.73,3.73,0,0,1-1.33-1.48,4.61,4.61,0,0,1-.49-2.14,4.71,4.71,0,0,1,.48-2.15,3.7,3.7,0,0,1,1.31-1.49,3.35,3.35,0,0,1,1.84-.53,3.48,3.48,0,0,1,1.35.26,3.55,3.55,0,0,1,1.07.67h0a0.9,0.9,0,0,1,.25-0.65,0.86,0.86,0,0,1,.64-0.26A0.88,0.88,0,0,1,110.38,200.09Zm-2.08,5.71a2.65,2.65,0,0,0,.61-1.79,2.68,2.68,0,0,0-.61-1.8,2.1,2.1,0,0,0-3.17,0,2.94,2.94,0,0,0,0,3.59,2,2,0,0,0,1.58.71A2,2,0,0,0,108.3,205.8Z" transform="translate(-63.28 -149.76)"/><path class="cls-1" d="M114.27,207.75a0.89,0.89,0,0,1-.65.26,0.84,0.84,0,0,1-.63-0.26,0.9,0.9,0,0,1-.25-0.65v-9.27a0.9,0.9,0,0,1,.92-0.92,0.84,0.84,0,0,1,.63.26,0.9,0.9,0,0,1,.25.65v9.27A0.89,0.89,0,0,1,114.27,207.75Z" transform="translate(-63.28 -149.76)"/><path class="cls-1" d="M123.4,204.4a1,1,0,0,1-.63.23h-5a2.26,2.26,0,0,0,.83,1.39,2.3,2.3,0,0,0,1.46.5,3.22,3.22,0,0,0,1-.11,2.5,2.5,0,0,0,.55-0.24l0.28-.17a1.14,1.14,0,0,1,.51-0.13,0.73,0.73,0,0,1,.54.23,0.72,0.72,0,0,1,.23.52,0.94,0.94,0,0,1-.42.74,3.6,3.6,0,0,1-1.12.58,4.65,4.65,0,0,1-3.62-.29,3.66,3.66,0,0,1-1.45-1.45,4.22,4.22,0,0,1-.51-2.08,4.6,4.6,0,0,1,.54-2.26,3.82,3.82,0,0,1,1.42-1.49,3.68,3.68,0,0,1,1.89-.52,3.5,3.5,0,0,1,1.87.54,4,4,0,0,1,1.4,1.46,3.91,3.91,0,0,1,.52,2A0.77,0.77,0,0,1,123.4,204.4Zm-5.56-1.27h3.93V203a1.55,1.55,0,0,0-.62-1.08,2,2,0,0,0-1.26-.45A1.86,1.86,0,0,0,117.84,203.12Z" transform="translate(-63.28 -149.76)"/><path class="cls-1" d="M124.59,206.32a0.85,0.85,0,0,1,.83-0.79,0.85,0.85,0,0,1,.6.29,3.16,3.16,0,0,0,.94.69,2.81,2.81,0,0,0,1.18.22q1.17,0,1.17-.88a0.72,0.72,0,0,0-.4-0.66,5.61,5.61,0,0,0-1.24-.45,10.75,10.75,0,0,1-1.42-.48,2.5,2.5,0,0,1-.94-0.73,2,2,0,0,1-.4-1.31,2,2,0,0,1,.41-1.25,2.72,2.72,0,0,1,1.08-.83,3.5,3.5,0,0,1,1.42-.29,4.34,4.34,0,0,1,1.53.29,2.66,2.66,0,0,1,1.2.84,0.84,0.84,0,0,1,.2.54,0.7,0.7,0,0,1-.29.57,0.75,0.75,0,0,1-.48.17,0.73,0.73,0,0,1-.54-0.21,1.9,1.9,0,0,0-.7-0.52,2.31,2.31,0,0,0-1-.2q-1.14,0-1.14.83a0.7,0.7,0,0,0,.21.53,1.44,1.44,0,0,0,.53.32l0.91,0.28a9.83,9.83,0,0,1,1.35.46,2.32,2.32,0,0,1,.92.74,2.1,2.1,0,0,1,.38,1.3,2,2,0,0,1-.44,1.28,2.76,2.76,0,0,1-1.12.83,3.61,3.61,0,0,1-1.4.29,5.08,5.08,0,0,1-1.84-.33,3.06,3.06,0,0,1-1.4-1.07A0.73,0.73,0,0,1,124.59,206.32Z" transform="translate(-63.28 -149.76)"/><path class="cls-1" d="M113,163.78c-0.15.72-.3,1.43-0.43,2.15-0.61,3.23-1.2,6.46-1.82,9.69a1.17,1.17,0,0,1-.3.56c-0.84.86-1.7,1.7-2.54,2.56a1.12,1.12,0,0,1-.87.32L98.16,179a0.67,0.67,0,0,0-.54.22c-0.63.65-1.28,1.29-1.93,1.94a0.77,0.77,0,0,1-.78.26,0.7,0.7,0,0,1-.44-1,1.8,1.8,0,0,1,.27-0.33c0.63-.63,1.26-1.25,1.88-1.9a0.67,0.67,0,0,0,.18-0.42q0-4.44-.08-8.88a1.29,1.29,0,0,1,.41-1c0.81-.79,1.59-1.6,2.41-2.38a1.51,1.51,0,0,1,.72-0.37c3.72-.71,7.44-1.4,11.16-2.1l0.52-.09a0.79,0.79,0,0,1,1,.5v0.43ZM99.3,177.5l0.23,0,7.24,0.06a0.59,0.59,0,0,0,.37-0.16q1-1,2-2a0.87,0.87,0,0,0,.22-0.42q0.84-4.42,1.66-8.84c0.1-.55.2-1.11,0.31-1.69l-0.29,0-10.3,1.93a0.82,0.82,0,0,0-.39.22c-0.67.65-1.33,1.31-2,2a0.76,0.76,0,0,0-.2.48c0,2.39,0,4.78.06,7.17,0,0.06,0,.11,0,0.24,0.62-.63,1.2-1.2,1.76-1.79a0.8,0.8,0,0,0,.19-0.46c0.07-.85.1-1.69,0.16-2.54a6.45,6.45,0,0,1,.11-1,0.66,0.66,0,0,1,.68-0.48,0.7,0.7,0,0,1,.67.51,1.62,1.62,0,0,1,0,.43c0,0.56-.06,1.12-0.09,1.79,0.56-.57,1.06-1.06,1.54-1.57a0.76,0.76,0,0,0,.19-0.43c0.06-.75.1-1.51,0.15-2.26a0.74,0.74,0,0,1,.74-0.79,0.75,0.75,0,0,1,.7.86c0,0.27,0,.55-0.05.88l0.26-.24c0.67-.67,1.33-1.34,2-2a1.3,1.3,0,0,1,.48-0.32,0.66,0.66,0,0,1,.79.34,0.72,0.72,0,0,1-.16.9q-1,1-2,2a2.14,2.14,0,0,1-.33.22l0.08,0.11,0.82-.05a0.75,0.75,0,0,1,.85.67,0.72,0.72,0,0,1-.73.76,9.51,9.51,0,0,1-1.46.09,2.06,2.06,0,0,0-1.9.84,10.35,10.35,0,0,1-1,1c0.7,0,1.29-.1,1.89-0.1a1.15,1.15,0,0,1,.64.22,0.6,0.6,0,0,1,.16.74,0.73,0.73,0,0,1-.7.47l-3.16.19a0.7,0.7,0,0,0-.41.1C100.56,176.23,100,176.85,99.3,177.5Z" transform="translate(-63.28 -149.76)"/><path class="cls-1" d="M85.24,165.09a1.65,1.65,0,0,0,2-.89,0.72,0.72,0,0,1,.67-0.47,0.66,0.66,0,0,1,.68.49c0.34,1.14,2,1.26,2.75.66a2,2,0,0,0,.45-0.65,0.75,0.75,0,0,1,.69-0.49,0.66,0.66,0,0,1,.68.49,1.73,1.73,0,0,0,2.14.94l0.47-.14a0.71,0.71,0,0,1,.54,1.29,3.09,3.09,0,0,1-1.65.37,3.27,3.27,0,0,1-2.2-.87,3.29,3.29,0,0,1-2.29.88,3.35,3.35,0,0,1-2.28-.88,3.62,3.62,0,0,1-2.63.79l0.42,2.16c0,0.06,0,.12.05,0.18,0.17,0.58.24,0.65,0.84,0.62a2.8,2.8,0,0,0,1-.23,1.67,1.67,0,0,0,.63-0.59,0.81,0.81,0,0,1,.68-0.46,0.67,0.67,0,0,1,.68.5c0.35,1.15,2.06,1.23,2.76.64a1.86,1.86,0,0,0,.44-0.63,0.75,0.75,0,0,1,.71-0.51,0.7,0.7,0,0,1,.68.5,1.52,1.52,0,0,0,.72.82,0.72,0.72,0,0,1,.33,1,0.72,0.72,0,0,1-1.05.21c-0.23-.13-0.45-0.29-0.68-0.44a3.5,3.5,0,0,1-4.66-.09,4,4,0,0,1-2.23.71,2.32,2.32,0,0,0,.09.23,11.46,11.46,0,0,0,1.74,2.45,1.81,1.81,0,0,0,2.82-.45l0.11-.22a0.68,0.68,0,0,1,.65-0.39,0.63,0.63,0,0,1,.61.4,1.63,1.63,0,0,0,1.72,1.1,0.74,0.74,0,0,1,.82.74,0.75,0.75,0,0,1-.85.7,4.47,4.47,0,0,1-.71-0.06,3.08,3.08,0,0,1-1.56-.76l-1.44.82,1.52,0.8c0.17,0.09.36,0.17,0.52,0.28a0.7,0.7,0,0,1,.28.89,0.66,0.66,0,0,1-.85.37,13.46,13.46,0,0,1-1.8-.89,13,13,0,0,1-6.17-8.87c-0.11-.56-0.16-1.14-0.25-1.74H82.71c-0.28,0-.56,0-0.84,0a0.73,0.73,0,0,1-.69-0.74,0.71,0.71,0,0,1,.74-0.69c0.63,0,1.26,0,1.84,0l0.77-3.82-1.61-.69a0.72,0.72,0,0,1-.52-0.79,0.67,0.67,0,0,1,.84-0.6c0.5,0.16,1,.38,1.47.58l0.4,0.17,2.05-3c-0.37-.37-0.79-0.78-1.2-1.2a1.34,1.34,0,0,1-.31-0.46,0.66,0.66,0,0,1,.27-0.76,0.63,0.63,0,0,1,.81,0c0.3,0.25.58,0.53,0.85,0.81s0.4,0.42.56,0.59l3.26-2.16-0.5-1.25c-0.06-.14-0.12-0.28-0.17-0.43a0.72,0.72,0,1,1,1.34-.52c0.24,0.57.47,1.14,0.68,1.67l3.59-.7c0-.49,0-1,0-1.56a2.48,2.48,0,0,1,0-.43,0.7,0.7,0,0,1,.69-0.6,0.66,0.66,0,0,1,.69.59,14.92,14.92,0,0,1,0,1.7,0.34,0.34,0,0,0,.39.42,11.43,11.43,0,0,1,3,.59l0.43,0.13c0.25-.58.48-1.15,0.73-1.7a0.72,0.72,0,1,1,1.33.56c-0.23.57-.47,1.12-0.7,1.65l3,2.05c0.4-.4.83-0.85,1.27-1.28a0.72,0.72,0,0,1,1.19.1,0.75,0.75,0,0,1-.18.93L107,156.76l2.16,3.24c0.48-.19,1-0.42,1.57-0.62a1.34,1.34,0,0,1,.63-0.07,0.61,0.61,0,0,1,.5.56,0.66,0.66,0,0,1-.28.68,1.46,1.46,0,0,1-.3.16l-2.16.87a0.76,0.76,0,0,1-1.14-.44,13.18,13.18,0,0,0-1.58-2.7,11.73,11.73,0,0,0-5-3.75,11.8,11.8,0,0,0-15.73,8C85.46,163.48,85.38,164.29,85.24,165.09Z" transform="translate(-63.28 -149.76)"/></svg>