<svg id="Layer_1" data-name="Layer 1" xmlns="http://www.w3.org/2000/svg" viewBox="0 0 74.47 61"><defs><style>.cls-1{fill:#7e6bb0;}</style></defs><title>Recuerdos</title><path class="cls-1" d="M293.16,292.93a0.81,0.81,0,0,1,.11.41,0.78,0.78,0,0,1-.18.5,0.85,0.85,0,0,1-.69.27,1.34,1.34,0,0,1-.66-0.17,2.63,2.63,0,0,1-1.08-2.5,1.09,1.09,0,0,0-.35-0.85,1.47,1.47,0,0,0-1-.32h-2.8v2.91a1,1,0,0,1-.22.66,0.72,0.72,0,0,1-.58.25,1.17,1.17,0,0,1-.76-0.26,0.81,0.81,0,0,1-.32-0.65V284.5a0.9,0.9,0,0,1,.92-0.92h4.32a2.79,2.79,0,0,1,1.47.42,3.1,3.1,0,0,1,1.1,1.16,3.32,3.32,0,0,1,.41,1.65,2.93,2.93,0,0,1-.4,1.46,3.23,3.23,0,0,1-1.05,1.13,2.3,2.3,0,0,1,1,1.77,2.5,2.5,0,0,1,0,.46,4.76,4.76,0,0,0,.12.67,0.5,0.5,0,0,0,.27.31A0.89,0.89,0,0,1,293.16,292.93Zm-2.86-4.47a1.94,1.94,0,0,0,.42-0.68,2.56,2.56,0,0,0,.16-0.92,1.81,1.81,0,0,0-.16-0.77,1.6,1.6,0,0,0-.42-0.56,0.82,0.82,0,0,0-.52-0.21H286.5v3.41h3.29A0.75,0.75,0,0,0,290.31,288.46Z" transform="translate(-284.62 -233.23)"/><path class="cls-1" d="M301.62,290.47a1,1,0,0,1-.63.23h-5a2.26,2.26,0,0,0,.83,1.39,2.3,2.3,0,0,0,1.46.5,3.22,3.22,0,0,0,1-.11,2.5,2.5,0,0,0,.55-0.24l0.28-.17a1.14,1.14,0,0,1,.51-0.13,0.73,0.73,0,0,1,.54.23,0.72,0.72,0,0,1,.23.52,0.94,0.94,0,0,1-.42.74,3.6,3.6,0,0,1-1.12.58,4.65,4.65,0,0,1-3.62-.29,3.66,3.66,0,0,1-1.45-1.45,4.22,4.22,0,0,1-.51-2.08,4.6,4.6,0,0,1,.54-2.26,3.82,3.82,0,0,1,1.42-1.49,3.68,3.68,0,0,1,1.89-.52,3.5,3.5,0,0,1,1.87.54,4,4,0,0,1,1.4,1.46,3.91,3.91,0,0,1,.52,2A0.77,0.77,0,0,1,301.62,290.47Zm-5.56-1.27H300v-0.11a1.55,1.55,0,0,0-.62-1.08,2,2,0,0,0-1.26-.45A1.86,1.86,0,0,0,296.05,289.19Z" transform="translate(-284.62 -233.23)"/><path class="cls-1" d="M309,286.3a1.19,1.19,0,0,1,.78,1.06,0.91,0.91,0,0,1-.19.58,0.62,0.62,0,0,1-.51.25,1,1,0,0,1-.39-0.07,1.39,1.39,0,0,1-.29-0.18,2,2,0,0,0-.28-0.19,1.88,1.88,0,0,0-.44-0.13,2.47,2.47,0,0,0-.47-0.06,2.26,2.26,0,0,0-1.76.7,2.87,2.87,0,0,0,0,3.61,2.12,2.12,0,0,0,1.65.71,2.55,2.55,0,0,0,1.09-.18l0.25-.16a1.73,1.73,0,0,1,.29-0.17A0.81,0.81,0,0,1,309,292a0.76,0.76,0,0,1,.59.24,0.88,0.88,0,0,1,.22.62,0.87,0.87,0,0,1-.42.67,3.26,3.26,0,0,1-1.11.5,5.59,5.59,0,0,1-1.47.19,3.8,3.8,0,0,1-2-.54,3.63,3.63,0,0,1-1.36-1.49,4.64,4.64,0,0,1-.48-2.12,4.53,4.53,0,0,1,.5-2.16,3.7,3.7,0,0,1,1.4-1.48,3.94,3.94,0,0,1,2-.53A4.55,4.55,0,0,1,309,286.3Z" transform="translate(-284.62 -233.23)"/><path class="cls-1" d="M317.73,286.32a0.9,0.9,0,0,1,.25.65v3.81a3.48,3.48,0,0,1-.89,2.54,4,4,0,0,1-5.08,0,3.49,3.49,0,0,1-.89-2.54V287a0.9,0.9,0,0,1,.26-0.65,0.92,0.92,0,0,1,1.29,0,0.9,0.9,0,0,1,.26.65v3.81a2,2,0,0,0,.4,1.36,1.57,1.57,0,0,0,1.21.44,1.59,1.59,0,0,0,1.23-.44,2,2,0,0,0,.41-1.36V287a0.9,0.9,0,0,1,.25-0.65A0.92,0.92,0,0,1,317.73,286.32Z" transform="translate(-284.62 -233.23)"/><path class="cls-1" d="M326.84,290.47a1,1,0,0,1-.63.23h-5a2.26,2.26,0,0,0,.83,1.39,2.3,2.3,0,0,0,1.46.5,3.22,3.22,0,0,0,1-.11,2.5,2.5,0,0,0,.55-0.24l0.28-.17a1.14,1.14,0,0,1,.51-0.13,0.73,0.73,0,0,1,.54.23,0.72,0.72,0,0,1,.23.52,0.94,0.94,0,0,1-.42.74,3.6,3.6,0,0,1-1.12.58,4.65,4.65,0,0,1-3.62-.29,3.66,3.66,0,0,1-1.45-1.45,4.22,4.22,0,0,1-.51-2.08,4.6,4.6,0,0,1,.54-2.26,3.82,3.82,0,0,1,1.42-1.49,3.68,3.68,0,0,1,1.89-.52,3.5,3.5,0,0,1,1.87.54,4,4,0,0,1,1.4,1.46,3.91,3.91,0,0,1,.52,2A0.77,0.77,0,0,1,326.84,290.47Zm-5.56-1.27h3.93v-0.11a1.55,1.55,0,0,0-.62-1.08,2,2,0,0,0-1.26-.45A1.86,1.86,0,0,0,321.28,289.19Z" transform="translate(-284.62 -233.23)"/><path class="cls-1" d="M333.56,286.16a0.76,0.76,0,0,1,.31.6,0.93,0.93,0,0,1-.24.7,0.79,0.79,0,0,1-.57.23,1.49,1.49,0,0,1-.51-0.11l-0.2-.06a1.22,1.22,0,0,0-.34,0,1.34,1.34,0,0,0-.75.24,1.76,1.76,0,0,0-.59.73,2.68,2.68,0,0,0-.23,1.16v3.55a0.9,0.9,0,0,1-.26.65,0.92,0.92,0,0,1-1.29,0,0.9,0.9,0,0,1-.26-0.65V287a0.9,0.9,0,0,1,.26-0.65,0.92,0.92,0,0,1,1.29,0,0.9,0.9,0,0,1,.26.65v0.2a2.27,2.27,0,0,1,1-.94,3,3,0,0,1,1.38-.32A1.15,1.15,0,0,1,333.56,286.16Z" transform="translate(-284.62 -233.23)"/><path class="cls-1" d="M342,283.24a0.89,0.89,0,0,1,.25.66v9.27a0.9,0.9,0,0,1-.25.65,0.86,0.86,0,0,1-.65.26,0.85,0.85,0,0,1-.64-0.25,1,1,0,0,1-.26-0.65,3.25,3.25,0,0,1-2.36,1.05,3.43,3.43,0,0,1-1.87-.53,3.73,3.73,0,0,1-1.33-1.48,4.61,4.61,0,0,1-.49-2.14,4.71,4.71,0,0,1,.48-2.15,3.7,3.7,0,0,1,1.31-1.49,3.35,3.35,0,0,1,1.84-.53,3.48,3.48,0,0,1,1.35.26,3.55,3.55,0,0,1,1.07.67V283.9a0.9,0.9,0,0,1,.25-0.65,0.86,0.86,0,0,1,.64-0.26A0.88,0.88,0,0,1,342,283.24Zm-2.08,8.63a2.65,2.65,0,0,0,.61-1.79,2.68,2.68,0,0,0-.61-1.8,2.1,2.1,0,0,0-3.17,0,2.94,2.94,0,0,0,0,3.59,2,2,0,0,0,1.58.71A2,2,0,0,0,339.87,291.87Z" transform="translate(-284.62 -233.23)"/><path class="cls-1" d="M351.33,292.23a3.81,3.81,0,0,1-1.48,1.48,4.33,4.33,0,0,1-4.13,0,3.82,3.82,0,0,1-1.47-1.48,4.56,4.56,0,0,1,0-4.3,3.88,3.88,0,0,1,1.47-1.49,4.28,4.28,0,0,1,4.13,0,3.87,3.87,0,0,1,1.48,1.49A4.56,4.56,0,0,1,351.33,292.23Zm-1.57-3.46a2.26,2.26,0,0,0-.82-0.89,2.25,2.25,0,0,0-2.3,0,2.26,2.26,0,0,0-.82.89,2.75,2.75,0,0,0-.31,1.31,2.7,2.7,0,0,0,.31,1.3,2.27,2.27,0,0,0,.82.88,2.25,2.25,0,0,0,2.3,0,2.28,2.28,0,0,0,.82-0.88,2.7,2.7,0,0,0,.31-1.3A2.75,2.75,0,0,0,349.76,288.76Z" transform="translate(-284.62 -233.23)"/><path class="cls-1" d="M352.77,292.39a0.85,0.85,0,0,1,.83-0.79,0.85,0.85,0,0,1,.6.29,3.16,3.16,0,0,0,.94.69,2.81,2.81,0,0,0,1.18.22q1.17,0,1.17-.88a0.72,0.72,0,0,0-.4-0.66,5.61,5.61,0,0,0-1.24-.45,10.75,10.75,0,0,1-1.42-.48,2.5,2.5,0,0,1-.94-0.73,2,2,0,0,1-.4-1.31,2,2,0,0,1,.41-1.25,2.72,2.72,0,0,1,1.08-.83,3.5,3.5,0,0,1,1.42-.29,4.34,4.34,0,0,1,1.53.29,2.66,2.66,0,0,1,1.2.84,0.84,0.84,0,0,1,.2.54,0.7,0.7,0,0,1-.29.57,0.75,0.75,0,0,1-.48.17,0.73,0.73,0,0,1-.54-0.21,1.9,1.9,0,0,0-.7-0.52,2.31,2.31,0,0,0-1-.2q-1.14,0-1.14.83a0.7,0.7,0,0,0,.21.53,1.44,1.44,0,0,0,.53.32l0.91,0.28a9.83,9.83,0,0,1,1.35.46,2.32,2.32,0,0,1,.92.74,2.1,2.1,0,0,1,.38,1.3,2,2,0,0,1-.44,1.28,2.76,2.76,0,0,1-1.12.83,3.61,3.61,0,0,1-1.4.29,5.08,5.08,0,0,1-1.84-.33,3.06,3.06,0,0,1-1.4-1.07A0.73,0.73,0,0,1,352.77,292.39Z" transform="translate(-284.62 -233.23)"/><path class="cls-1" d="M332.05,241.66c2.53-.8,4.74-0.43,6.45,1.58a5.52,5.52,0,0,1,.59,6.45,6.31,6.31,0,0,1,4.73,6h-1.43a4.94,4.94,0,0,0-1.64-3.5,4.84,4.84,0,0,0-3.64-1.18,1.26,1.26,0,0,1,.21-1.45,4,4,0,0,0-.29-5.78,4.15,4.15,0,0,0-5.72.13,12.12,12.12,0,0,0-.88,1.08l-0.91-1.12a4,4,0,0,0,.29-5.28,3.94,3.94,0,0,0-4.36-1.55,4.19,4.19,0,0,0-3.13,3.92h-1.5c0.2-.77.4-1.48,0.57-2.21a2.2,2.2,0,0,0,.08-0.91,4.08,4.08,0,0,0-8,0,1.34,1.34,0,0,0,.11.82,5.82,5.82,0,0,1,.67,2.69h-1.37c-0.3-2.12-1.33-3.61-3.51-4a4,4,0,0,0-4.21,1.93c-1,1.58-.78,3.19.55,5l-1,1c-0.18-.21-0.36-0.4-0.52-0.61a4,4,0,0,0-5.82-.81,4.12,4.12,0,0,0-.55,5.91,2,2,0,0,1,.42.74c0.12,0.47,0,.7-0.61.73a4.3,4.3,0,0,0-4.12,3.83,4.34,4.34,0,0,0,6.1,4.43c0.17-.08.34-0.17,0.57-0.29l0.78,1.14a4.89,4.89,0,0,1-2.53.94,4.32,4.32,0,0,0-4,4.44,4.57,4.57,0,0,0,4.27,4.23,5.73,5.73,0,0,1,2.37.91c2.7,1.71,3.8,4.32,4,7.49h-1.39c-0.12-.67-0.19-1.36-0.36-2a6.76,6.76,0,0,0-3.73-4.67,4.14,4.14,0,0,0-1.21-.33,5.71,5.71,0,0,1-5.09-4,5.54,5.54,0,0,1,1.88-6.24c0.06-.05.11-0.12,0.2-0.21a5.85,5.85,0,0,1,.73-10.87c-1.11-2.29-1.12-4.51.56-6.5s3.87-2.39,6.38-1.62a5.65,5.65,0,0,1,9-4.94,5.68,5.68,0,0,1,10.6-.09A5.62,5.62,0,0,1,332.05,241.66Z" transform="translate(-284.62 -233.23)"/><path class="cls-1" d="M325.37,273.78l-3,3.82a0.79,0.79,0,0,1-.2.24,1.68,1.68,0,0,1-.9.34,1,1,0,0,1-.49-0.81c0-1.89,0-3.79,0-5.69a1.07,1.07,0,0,0-.61-1.1c-1.68-1-3.34-2-5-3a1.13,1.13,0,0,1-.56-0.79,1.24,1.24,0,0,1,.71-0.74c2.49-1,5-2,7.49-3L347,253.39l2.52-1a0.83,0.83,0,0,1,1.1.1,0.85,0.85,0,0,1-.14,1.14l-9.18,12.06-8.52,11.21c-0.58.76-.8,0.8-1.63,0.3L326,274.1C325.79,274,325.61,273.9,325.37,273.78Zm22.32-18.94-0.11-.12L317,266.92a2.26,2.26,0,0,0,.29.27c1.3,0.78,2.59,1.57,3.91,2.32a1,1,0,0,0,.79-0.05q5.22-2.69,10.41-5.42a0.84,0.84,0,0,1,1.19.05,0.82,0.82,0,0,1-.24,1.16q-1.7,1.78-3.38,3.58l-3.58,3.81,5.34,3.2Zm-18.49,12.5c-1.93,1-3.72,2-5.59,2.88a2,2,0,0,0-1.47,2.41,18.32,18.32,0,0,1,0,2.62Z" transform="translate(-284.62 -233.23)"/></svg>