<svg id="Layer_1" data-name="Layer 1" xmlns="http://www.w3.org/2000/svg" viewBox="0 0 64.56 51.78"><defs><style>.cls-1{fill:#7e6bb0;}</style></defs><title>Sueños</title><path class="cls-1" d="M535.49,296.47a4.43,4.43,0,0,1-1.58-.92,1.06,1.06,0,0,1-.41-0.79,0.84,0.84,0,0,1,.26-0.61,0.83,0.83,0,0,1,.61-0.26,0.8,0.8,0,0,1,.51.18,4.42,4.42,0,0,0,1.17.72,3.68,3.68,0,0,0,1.35.22,2.7,2.7,0,0,0,1.45-.37,1.09,1.09,0,0,0,.61-0.93,1.19,1.19,0,0,0-.6-1.06,5.09,5.09,0,0,0-1.91-.58q-3.28-.48-3.29-3.06a2.76,2.76,0,0,1,.5-1.64,3.13,3.13,0,0,1,1.35-1.06,4.77,4.77,0,0,1,1.9-.37,5.47,5.47,0,0,1,1.78.29,4.33,4.33,0,0,1,1.39.75,1,1,0,0,1,.44.79,0.84,0.84,0,0,1-.25.61,0.81,0.81,0,0,1-.6.26,0.66,0.66,0,0,1-.4-0.13,4,4,0,0,0-1.09-.58,3.61,3.61,0,0,0-1.25-.26A2.58,2.58,0,0,0,536,288a1.12,1.12,0,0,0,0,1.9,5.06,5.06,0,0,0,1.67.54,8.7,8.7,0,0,1,2.06.58,2.63,2.63,0,0,1,1.16,1,3,3,0,0,1,.39,1.61,2.69,2.69,0,0,1-.53,1.66,3.42,3.42,0,0,1-1.42,1.09,4.76,4.76,0,0,1-1.91.38A6.28,6.28,0,0,1,535.49,296.47Z" transform="translate(-519.66 -244.96)"/><path class="cls-1" d="M549.44,288.83a0.9,0.9,0,0,1,.25.65v3.81a3.48,3.48,0,0,1-.89,2.54,4,4,0,0,1-5.08,0,3.49,3.49,0,0,1-.89-2.54v-3.81a0.9,0.9,0,0,1,.26-0.65,0.92,0.92,0,0,1,1.29,0,0.9,0.9,0,0,1,.26.65v3.81a2,2,0,0,0,.4,1.36,1.57,1.57,0,0,0,1.21.44,1.59,1.59,0,0,0,1.23-.44,2,2,0,0,0,.41-1.36v-3.81a0.9,0.9,0,0,1,.25-0.65A0.92,0.92,0,0,1,549.44,288.83Z" transform="translate(-519.66 -244.96)"/><path class="cls-1" d="M558.56,293a1,1,0,0,1-.63.23h-5a2.27,2.27,0,0,0,.83,1.39,2.3,2.3,0,0,0,1.46.5,3.2,3.2,0,0,0,1-.11,2.51,2.51,0,0,0,.55-0.24l0.28-.17a1.14,1.14,0,0,1,.51-0.13,0.73,0.73,0,0,1,.54.23,0.72,0.72,0,0,1,.23.52,0.94,0.94,0,0,1-.42.74,3.63,3.63,0,0,1-1.12.58,4.65,4.65,0,0,1-3.62-.29,3.66,3.66,0,0,1-1.45-1.45,4.22,4.22,0,0,1-.51-2.08,4.61,4.61,0,0,1,.54-2.26,3.82,3.82,0,0,1,1.43-1.49,3.67,3.67,0,0,1,1.89-.52,3.5,3.5,0,0,1,1.87.54,4,4,0,0,1,1.4,1.46,3.91,3.91,0,0,1,.52,2A0.76,0.76,0,0,1,558.56,293ZM553,291.7h3.93v-0.11a1.54,1.54,0,0,0-.62-1.08,1.94,1.94,0,0,0-1.26-.45A1.86,1.86,0,0,0,553,291.7Z" transform="translate(-519.66 -244.96)"/><path class="cls-1" d="M566.75,289.32a4.63,4.63,0,0,1,.58,2.51v3.84a0.9,0.9,0,0,1-.25.65,0.92,0.92,0,0,1-1.29,0,0.9,0.9,0,0,1-.25-0.65v-3.84a2.16,2.16,0,0,0-.35-1.3,1.37,1.37,0,0,0-1.19-.47,1.83,1.83,0,0,0-1.37.5,1.74,1.74,0,0,0-.49,1.27v3.84a0.9,0.9,0,0,1-.26.65,0.92,0.92,0,0,1-1.29,0,0.9,0.9,0,0,1-.26-0.65v-6.2a0.9,0.9,0,0,1,.26-0.65,0.92,0.92,0,0,1,1.29,0,0.9,0.9,0,0,1,.26.65v0.25a3.65,3.65,0,0,1,1.06-.93,2.75,2.75,0,0,1,1.43-.39A2.32,2.32,0,0,1,566.75,289.32Zm-5.51-1.86a1.09,1.09,0,0,1-.24-0.74,1.18,1.18,0,0,1,.48-0.92,2.09,2.09,0,0,1,1.37-.4,1.6,1.6,0,0,1,.71.16,6.06,6.06,0,0,1,.74.44,3.18,3.18,0,0,0,.43.29,0.71,0.71,0,0,0,.32.09,0.35,0.35,0,0,0,.26-0.09,0.21,0.21,0,0,0,0-.23,0.55,0.55,0,0,1,0-.21,0.49,0.49,0,0,1,.16-0.38,0.56,0.56,0,0,1,.4-0.14,0.76,0.76,0,0,1,.59.27,1,1,0,0,1,.24.72,1.22,1.22,0,0,1-.18.6,1.46,1.46,0,0,1-.56.53,1.94,1.94,0,0,1-1,.22,1.51,1.51,0,0,1-.63-0.15,8,8,0,0,1-.78-0.42l-0.56-.31a0.87,0.87,0,0,0-.37-0.1,0.34,0.34,0,0,0-.25.09,0.2,0.2,0,0,0,0,.22,0.6,0.6,0,0,1,0,.21,0.49,0.49,0,0,1-.16.38,0.57,0.57,0,0,1-.4.14A0.75,0.75,0,0,1,561.24,287.46Z" transform="translate(-519.66 -244.96)"/><path class="cls-1" d="M576.45,294.74a3.81,3.81,0,0,1-1.48,1.48,4.33,4.33,0,0,1-4.13,0,3.83,3.83,0,0,1-1.47-1.48,4.55,4.55,0,0,1,0-4.3,3.89,3.89,0,0,1,1.47-1.49,4.28,4.28,0,0,1,4.13,0,3.87,3.87,0,0,1,1.48,1.49A4.55,4.55,0,0,1,576.45,294.74Zm-1.57-3.46a2.27,2.27,0,0,0-.82-0.89,2.25,2.25,0,0,0-2.3,0,2.27,2.27,0,0,0-.82.89,2.75,2.75,0,0,0-.31,1.31,2.7,2.7,0,0,0,.31,1.3,2.28,2.28,0,0,0,.82.88,2.25,2.25,0,0,0,2.3,0,2.28,2.28,0,0,0,.82-0.88,2.7,2.7,0,0,0,.31-1.3A2.75,2.75,0,0,0,574.89,291.27Z" transform="translate(-519.66 -244.96)"/><path class="cls-1" d="M577.89,294.89a0.79,0.79,0,0,1,.39-0.66,0.8,0.8,0,0,1,.44-0.13,0.85,0.85,0,0,1,.6.29,3.18,3.18,0,0,0,.94.69,2.81,2.81,0,0,0,1.18.22c0.78,0,1.17-.33,1.17-0.88a0.72,0.72,0,0,0-.4-0.66,5.62,5.62,0,0,0-1.24-.45,10.75,10.75,0,0,1-1.42-.48,2.49,2.49,0,0,1-.94-0.73,2,2,0,0,1-.4-1.31,2,2,0,0,1,.41-1.25,2.72,2.72,0,0,1,1.08-.83,3.51,3.51,0,0,1,1.42-.29,4.34,4.34,0,0,1,1.53.29,2.67,2.67,0,0,1,1.2.84,0.84,0.84,0,0,1,.2.54,0.7,0.7,0,0,1-.29.57,0.76,0.76,0,0,1-.48.17,0.73,0.73,0,0,1-.54-0.21,1.9,1.9,0,0,0-.7-0.52,2.31,2.31,0,0,0-1-.2q-1.14,0-1.14.83a0.7,0.7,0,0,0,.21.53,1.43,1.43,0,0,0,.53.32l0.91,0.28a9.74,9.74,0,0,1,1.35.46,2.31,2.31,0,0,1,.92.74,2.1,2.1,0,0,1,.38,1.3,2,2,0,0,1-.44,1.28,2.76,2.76,0,0,1-1.12.83,3.61,3.61,0,0,1-1.4.29,5.09,5.09,0,0,1-1.85-.33,3.06,3.06,0,0,1-1.39-1.07A0.73,0.73,0,0,1,577.89,294.89Z" transform="translate(-519.66 -244.96)"/><path class="cls-1" d="M543.94,270.91a0.93,0.93,0,1,0,.93.93A0.93,0.93,0,0,0,543.94,270.91Z" transform="translate(-519.66 -244.96)"/><path class="cls-1" d="M560.5,254.72a8.34,8.34,0,0,0-14.71-6.66,8.34,8.34,0,0,0-14.71,6.66,7.42,7.42,0,0,0,4.81,14,10.2,10.2,0,0,0,19.79,0A7.42,7.42,0,0,0,560.5,254.72Zm-2.66,12.48a5.51,5.51,0,0,1-2.45-.57,0.93,0.93,0,0,0-1.33.71,8.34,8.34,0,0,1-16.54,0,0.93,0.93,0,0,0-1.33-.71,5.5,5.5,0,0,1-2.45.57,5.56,5.56,0,0,1-1.34-11,0.93,0.93,0,0,0,.67-1.15A6.49,6.49,0,0,1,545,250.16a0.93,0.93,0,0,0,1.62,0,6.49,6.49,0,0,1,11.91,4.93,0.93,0.93,0,0,0,.67,1.15A5.56,5.56,0,0,1,557.84,267.2Z" transform="translate(-519.66 -244.96)"/><path class="cls-1" d="M551.43,266.08a0.93,0.93,0,0,0-1,.8,4.66,4.66,0,0,1-3.06,3.77,0.93,0.93,0,1,0,.62,1.75,6.45,6.45,0,0,0,4.29-5.28A0.93,0.93,0,0,0,551.43,266.08Z" transform="translate(-519.66 -244.96)"/><path class="cls-1" d="M519.66,288.7a3.71,3.71,0,1,0,3.71-3.71A3.71,3.71,0,0,0,519.66,288.7Zm3.71-1.85a1.85,1.85,0,1,1-1.85,1.85A1.86,1.86,0,0,1,523.37,286.85Z" transform="translate(-519.66 -244.96)"/><path class="cls-1" d="M536.9,278.88a5.56,5.56,0,1,0-5.56,5.56A5.57,5.57,0,0,0,536.9,278.88Zm-5.56,3.71a3.71,3.71,0,1,1,3.71-3.71A3.71,3.71,0,0,1,531.34,282.59Z" transform="translate(-519.66 -244.96)"/></svg>