<svg id="Layer_1" data-name="Layer 1" xmlns="http://www.w3.org/2000/svg" viewBox="0 0 63.82 72.65"><defs><style>.cls-1{fill:#7e6bb0;}</style></defs><title>Trabajo - empleo</title><path class="cls-1" d="M429.24,84.52a0.83,0.83,0,0,1,.26.63,0.8,0.8,0,0,1-.26.62,0.94,0.94,0,0,1-.66.23h-2.36v7.86a0.85,0.85,0,0,1-.29.65,1,1,0,0,1-.71.26,1,1,0,0,1-.69-0.26,0.87,0.87,0,0,1-.27-0.65V86h-2.35a0.92,0.92,0,0,1-.66-0.24,0.83,0.83,0,0,1-.25-0.63,0.79,0.79,0,0,1,.26-0.62,0.93,0.93,0,0,1,.65-0.24h6.66A0.92,0.92,0,0,1,429.24,84.52Z" transform="translate(-421.01 -37.13)"/><path class="cls-1" d="M434.95,86.86a0.76,0.76,0,0,1,.31.6,0.93,0.93,0,0,1-.24.7,0.79,0.79,0,0,1-.57.23,1.49,1.49,0,0,1-.51-0.11l-0.2-.06a1.22,1.22,0,0,0-.34,0,1.34,1.34,0,0,0-.75.24,1.76,1.76,0,0,0-.59.73,2.68,2.68,0,0,0-.23,1.16v3.55a0.9,0.9,0,0,1-.26.65,0.92,0.92,0,0,1-1.29,0,0.9,0.9,0,0,1-.26-0.65v-6.2a0.9,0.9,0,0,1,.26-0.65,0.92,0.92,0,0,1,1.29,0,0.9,0.9,0,0,1,.26.65v0.2a2.27,2.27,0,0,1,1-.94,3,3,0,0,1,1.38-.32A1.15,1.15,0,0,1,434.95,86.86Z" transform="translate(-421.01 -37.13)"/><path class="cls-1" d="M443.49,86.86a0.89,0.89,0,0,1,.25.66v6.34a0.9,0.9,0,0,1-.25.65,0.86,0.86,0,0,1-.65.26,0.85,0.85,0,0,1-.64-0.25,1,1,0,0,1-.26-0.65,3.25,3.25,0,0,1-2.36,1.05,3.43,3.43,0,0,1-1.87-.53,3.73,3.73,0,0,1-1.33-1.48,4.61,4.61,0,0,1-.49-2.14,4.71,4.71,0,0,1,.48-2.15,3.7,3.7,0,0,1,1.31-1.49,3.35,3.35,0,0,1,1.84-.53,3.48,3.48,0,0,1,1.35.26,3.55,3.55,0,0,1,1.07.67h0a0.9,0.9,0,0,1,.25-0.65,0.86,0.86,0,0,1,.64-0.26A0.88,0.88,0,0,1,443.49,86.86Zm-2.08,5.71a2.65,2.65,0,0,0,.61-1.79,2.68,2.68,0,0,0-.61-1.8,2.1,2.1,0,0,0-3.17,0,2.94,2.94,0,0,0,0,3.59,2,2,0,0,0,1.58.71A2,2,0,0,0,441.41,92.57Z" transform="translate(-421.01 -37.13)"/><path class="cls-1" d="M451.73,87.14a3.73,3.73,0,0,1,1.33,1.48,4.61,4.61,0,0,1,.49,2.15,4.71,4.71,0,0,1-.48,2.15,3.69,3.69,0,0,1-1.31,1.48,3.34,3.34,0,0,1-1.84.53,3.22,3.22,0,0,1-1.36-.29,3.59,3.59,0,0,1-1.06-.71V94a0.9,0.9,0,0,1-.26.65,0.86,0.86,0,0,1-.64.26,0.87,0.87,0,0,1-.64-0.26,0.89,0.89,0,0,1-.26-0.66V84.59a0.9,0.9,0,0,1,.26-0.65,0.92,0.92,0,0,1,1.29,0,0.9,0.9,0,0,1,.26.65v3.13a3.1,3.1,0,0,1,1-.79,2.88,2.88,0,0,1,1.35-.34A3.43,3.43,0,0,1,451.73,87.14Zm-0.52,5.42a2.95,2.95,0,0,0,0-3.59A2.12,2.12,0,0,0,448,89a2.64,2.64,0,0,0-.62,1.79,2.67,2.67,0,0,0,.62,1.8A2.1,2.1,0,0,0,451.2,92.56Z" transform="translate(-421.01 -37.13)"/><path class="cls-1" d="M462.18,86.86a0.89,0.89,0,0,1,.25.66v6.34a0.9,0.9,0,0,1-.25.65,0.86,0.86,0,0,1-.65.26,0.85,0.85,0,0,1-.64-0.25,1,1,0,0,1-.26-0.65,3.25,3.25,0,0,1-2.36,1.05,3.43,3.43,0,0,1-1.87-.53,3.73,3.73,0,0,1-1.33-1.48,4.61,4.61,0,0,1-.49-2.14,4.71,4.71,0,0,1,.48-2.15,3.7,3.7,0,0,1,1.31-1.49,3.35,3.35,0,0,1,1.84-.53,3.48,3.48,0,0,1,1.35.26,3.55,3.55,0,0,1,1.07.67h0a0.9,0.9,0,0,1,.25-0.65,0.86,0.86,0,0,1,.64-0.26A0.88,0.88,0,0,1,462.18,86.86Zm-2.08,5.71a2.65,2.65,0,0,0,.61-1.79,2.68,2.68,0,0,0-.61-1.8,2.1,2.1,0,0,0-3.17,0,2.94,2.94,0,0,0,0,3.59,2,2,0,0,0,1.58.71A2,2,0,0,0,460.1,92.57Z" transform="translate(-421.01 -37.13)"/><path class="cls-1" d="M463.35,97.48a0.81,0.81,0,0,1-.24-0.6V96.71a0.87,0.87,0,0,1,.76-0.82,0.86,0.86,0,0,0,.61-0.5,3,3,0,0,0,.13-1V87.67a0.9,0.9,0,0,1,.25-0.65,0.92,0.92,0,0,1,1.29,0,0.9,0.9,0,0,1,.25.65v7.26a3.19,3.19,0,0,1-.32,1.47,2.39,2.39,0,0,1-.88,1,2.35,2.35,0,0,1-1.25.35A0.81,0.81,0,0,1,463.35,97.48Zm1.41-11.87a0.71,0.71,0,0,1-.21-0.58V84.74a0.68,0.68,0,0,1,.23-0.58,1.69,1.69,0,0,1,1.46,0,0.71,0.71,0,0,1,.21.58V85a0.69,0.69,0,0,1-.22.59,1.32,1.32,0,0,1-.74.16A1.19,1.19,0,0,1,464.76,85.61Z" transform="translate(-421.01 -37.13)"/><path class="cls-1" d="M475.68,92.93a3.81,3.81,0,0,1-1.48,1.48,4.33,4.33,0,0,1-4.13,0,3.82,3.82,0,0,1-1.47-1.48,4.56,4.56,0,0,1,0-4.3,3.88,3.88,0,0,1,1.47-1.49,4.28,4.28,0,0,1,4.13,0,3.87,3.87,0,0,1,1.48,1.49A4.56,4.56,0,0,1,475.68,92.93Zm-1.57-3.46a2.26,2.26,0,0,0-.82-0.89,2.25,2.25,0,0,0-2.3,0,2.26,2.26,0,0,0-.82.89,2.75,2.75,0,0,0-.31,1.31,2.7,2.7,0,0,0,.31,1.3A2.27,2.27,0,0,0,471,93a2.25,2.25,0,0,0,2.3,0,2.28,2.28,0,0,0,.82-0.88,2.7,2.7,0,0,0,.31-1.3A2.75,2.75,0,0,0,474.11,89.46Z" transform="translate(-421.01 -37.13)"/><path class="cls-1" d="M477.46,96.57a0.68,0.68,0,0,1-.25-0.53,0.8,0.8,0,0,1,.09-0.36l6.09-12.47a0.86,0.86,0,0,1,.28-0.33,0.65,0.65,0,0,1,.38-0.12,0.8,0.8,0,0,1,.53.22,0.68,0.68,0,0,1,.25.53,0.8,0.8,0,0,1-.09.36l-6.08,12.46a0.86,0.86,0,0,1-.28.33,0.65,0.65,0,0,1-.38.12A0.82,0.82,0,0,1,477.46,96.57Z" transform="translate(-421.01 -37.13)"/><path class="cls-1" d="M434,103.16a1,1,0,0,1-.63.23h-5a2.26,2.26,0,0,0,.83,1.39,2.3,2.3,0,0,0,1.46.5,3.22,3.22,0,0,0,1-.11,2.5,2.5,0,0,0,.55-0.24l0.28-.17a1.14,1.14,0,0,1,.51-0.13,0.73,0.73,0,0,1,.54.23,0.72,0.72,0,0,1,.23.52,0.94,0.94,0,0,1-.42.74,3.6,3.6,0,0,1-1.12.58,4.65,4.65,0,0,1-3.62-.29A3.66,3.66,0,0,1,427.1,105a4.22,4.22,0,0,1-.51-2.08,4.6,4.6,0,0,1,.54-2.26,3.82,3.82,0,0,1,1.42-1.49,3.68,3.68,0,0,1,1.89-.52,3.5,3.5,0,0,1,1.87.54,4,4,0,0,1,1.4,1.46,3.91,3.91,0,0,1,.52,2A0.77,0.77,0,0,1,434,103.16Zm-5.56-1.27h3.93v-0.11a1.55,1.55,0,0,0-.62-1.08,2,2,0,0,0-1.26-.45A1.86,1.86,0,0,0,428.39,101.89Z" transform="translate(-421.01 -37.13)"/><path class="cls-1" d="M447.05,99.51a4.71,4.71,0,0,1,.57,2.51v3.84a0.9,0.9,0,0,1-.26.65,0.92,0.92,0,0,1-1.29,0,0.9,0.9,0,0,1-.25-0.65V102a2.28,2.28,0,0,0-.32-1.3,1.27,1.27,0,0,0-1.13-.47,1.72,1.72,0,0,0-1.31.5,1.78,1.78,0,0,0-.47,1.27v3.84a0.9,0.9,0,0,1-.26.65,0.92,0.92,0,0,1-1.29,0,0.9,0.9,0,0,1-.25-0.65V102a2.28,2.28,0,0,0-.32-1.3,1.27,1.27,0,0,0-1.13-.47,1.72,1.72,0,0,0-1.31.5,1.78,1.78,0,0,0-.47,1.27v3.84a0.9,0.9,0,0,1-.26.65,0.92,0.92,0,0,1-1.29,0,0.9,0.9,0,0,1-.26-0.65v-6.2A0.9,0.9,0,0,1,436,99a0.92,0.92,0,0,1,1.29,0,0.9,0.9,0,0,1,.26.65v0.24a3.66,3.66,0,0,1,1-.92A2.6,2.6,0,0,1,440,98.6a2.27,2.27,0,0,1,2.42,1.65,3.53,3.53,0,0,1,1-1.14A2.61,2.61,0,0,1,445,98.6,2.23,2.23,0,0,1,447.05,99.51Z" transform="translate(-421.01 -37.13)"/><path class="cls-1" d="M455.6,99.14a3.73,3.73,0,0,1,1.33,1.48,4.61,4.61,0,0,1,.49,2.15,4.71,4.71,0,0,1-.48,2.15,3.69,3.69,0,0,1-1.31,1.48,3.34,3.34,0,0,1-1.84.53,3.22,3.22,0,0,1-1.36-.29,3.59,3.59,0,0,1-1.06-.71v2.94a0.9,0.9,0,0,1-.26.65,0.86,0.86,0,0,1-.64.26,0.87,0.87,0,0,1-.64-0.25,0.89,0.89,0,0,1-.26-0.66v-9.2a0.9,0.9,0,0,1,.26-0.65,0.92,0.92,0,0,1,1.29,0,0.9,0.9,0,0,1,.26.65v0.06a3.1,3.1,0,0,1,1-.79,2.88,2.88,0,0,1,1.35-.34A3.43,3.43,0,0,1,455.6,99.14Zm-0.52,5.42a2.95,2.95,0,0,0,0-3.59,2.12,2.12,0,0,0-3.17,0,2.64,2.64,0,0,0-.62,1.79,2.67,2.67,0,0,0,.62,1.8A2.1,2.1,0,0,0,455.08,104.56Z" transform="translate(-421.01 -37.13)"/><path class="cls-1" d="M460.61,106.52a0.89,0.89,0,0,1-.65.26,0.84,0.84,0,0,1-.63-0.26,0.9,0.9,0,0,1-.25-0.65V96.59a0.9,0.9,0,0,1,.92-0.92,0.84,0.84,0,0,1,.63.26,0.9,0.9,0,0,1,.25.65v9.27A0.89,0.89,0,0,1,460.61,106.52Z" transform="translate(-421.01 -37.13)"/><path class="cls-1" d="M469.73,103.16a1,1,0,0,1-.63.23h-5a2.26,2.26,0,0,0,.83,1.39,2.3,2.3,0,0,0,1.46.5,3.22,3.22,0,0,0,1-.11,2.5,2.5,0,0,0,.55-0.24l0.28-.17a1.14,1.14,0,0,1,.51-0.13,0.73,0.73,0,0,1,.54.23,0.72,0.72,0,0,1,.23.52,0.94,0.94,0,0,1-.42.74,3.6,3.6,0,0,1-1.12.58,4.65,4.65,0,0,1-3.62-.29,3.66,3.66,0,0,1-1.45-1.45,4.22,4.22,0,0,1-.51-2.08,4.6,4.6,0,0,1,.54-2.26,3.82,3.82,0,0,1,1.42-1.49,3.68,3.68,0,0,1,1.89-.52,3.5,3.5,0,0,1,1.87.54,4,4,0,0,1,1.4,1.46,3.91,3.91,0,0,1,.52,2A0.77,0.77,0,0,1,469.73,103.16Zm-5.56-1.27h3.93v-0.11a1.55,1.55,0,0,0-.62-1.08,2,2,0,0,0-1.26-.45A1.86,1.86,0,0,0,464.17,101.89Z" transform="translate(-421.01 -37.13)"/><path class="cls-1" d="M478.69,104.93a3.81,3.81,0,0,1-1.48,1.48,4.33,4.33,0,0,1-4.13,0,3.82,3.82,0,0,1-1.47-1.48,4.56,4.56,0,0,1,0-4.3,3.88,3.88,0,0,1,1.47-1.49,4.28,4.28,0,0,1,4.13,0,3.87,3.87,0,0,1,1.48,1.49A4.56,4.56,0,0,1,478.69,104.93Zm-1.57-3.46a2.26,2.26,0,0,0-.82-0.89,2.25,2.25,0,0,0-2.3,0,2.26,2.26,0,0,0-.82.89,2.75,2.75,0,0,0-.31,1.31,2.7,2.7,0,0,0,.31,1.3,2.27,2.27,0,0,0,.82.88,2.25,2.25,0,0,0,2.3,0,2.28,2.28,0,0,0,.82-0.88,2.7,2.7,0,0,0,.31-1.3A2.75,2.75,0,0,0,477.12,101.46Z" transform="translate(-421.01 -37.13)"/><path class="cls-1" d="M471.53,43.33h-9V40.57a3.45,3.45,0,0,0-3.45-3.45H446.7a3.45,3.45,0,0,0-3.45,3.45v2.76h-9a2.07,2.07,0,0,0-2.07,2.07V60.75a2.08,2.08,0,0,0,1.38,1.95v9.6a2.07,2.07,0,0,0,2.07,2.07h34.48a2.07,2.07,0,0,0,2.07-2.07V62.7a2.08,2.08,0,0,0,1.38-1.95V45.4A2.07,2.07,0,0,0,471.53,43.33Zm-26.89-2.76a2.07,2.07,0,0,1,2.07-2.07h12.41a2.07,2.07,0,0,1,2.07,2.07v2.76h-1.38V40.57a0.69,0.69,0,0,0-.69-0.69H446.7a0.69,0.69,0,0,0-.69.69v2.76h-1.38V40.57Zm13.79,2.76h-11V41.26h11v2.07Zm12.41,29a0.69,0.69,0,0,1-.69.69H435.67a0.69,0.69,0,0,1-.69-0.69V62.93L450.15,65v1.75a2.07,2.07,0,0,0,2.07,2.07h1.38a2.07,2.07,0,0,0,2.07-2.07V65l15.17-2.09v9.36Zm-16.55-5.52a0.69,0.69,0,0,1-.69.69h-1.38a0.69,0.69,0,0,1-.69-0.69V62.64a0.69,0.69,0,0,1,.69-0.69h1.38a0.69,0.69,0,0,1,.69.69v4.14Zm17.93-6a0.69,0.69,0,0,1-.59.68l-0.19,0-15.76,2.17v-1a2.07,2.07,0,0,0-2.07-2.07h-1.38a2.07,2.07,0,0,0-2.07,2.07v1l-16-2.2a0.69,0.69,0,0,1-.59-0.68V45.4a0.69,0.69,0,0,1,.69-0.69h37.23a0.69,0.69,0,0,1,.69.69V60.75Z" transform="translate(-421.01 -37.13)"/></svg>