<svg id="Layer_1" data-name="Layer 1" xmlns="http://www.w3.org/2000/svg" viewBox="0 0 81.42 72.3"><defs><style>.cls-1{fill:#7e6bb0;}</style></defs><title>Tradiciones familiares</title><path class="cls-1" d="M301.92,184.75a0.83,0.83,0,0,1,.26.63,0.8,0.8,0,0,1-.26.62,0.94,0.94,0,0,1-.66.23H298.9v7.86a0.85,0.85,0,0,1-.29.65,1,1,0,0,1-.71.26,1,1,0,0,1-.69-0.26,0.87,0.87,0,0,1-.27-0.65v-7.86H294.6a0.92,0.92,0,0,1-.66-0.24,0.83,0.83,0,0,1-.25-0.63,0.79,0.79,0,0,1,.26-0.62,0.93,0.93,0,0,1,.65-0.24h6.66A0.92,0.92,0,0,1,301.92,184.75Z" transform="translate(-293.68 -136.86)"/><path class="cls-1" d="M307.62,187.09a0.76,0.76,0,0,1,.31.6,0.93,0.93,0,0,1-.24.7,0.79,0.79,0,0,1-.57.23,1.49,1.49,0,0,1-.51-0.11l-0.2-.06a1.22,1.22,0,0,0-.34,0,1.34,1.34,0,0,0-.75.24,1.76,1.76,0,0,0-.59.73,2.68,2.68,0,0,0-.23,1.16v3.55a0.9,0.9,0,0,1-.26.65,0.92,0.92,0,0,1-1.29,0,0.9,0.9,0,0,1-.26-0.65v-6.2a0.9,0.9,0,0,1,.26-0.65,0.92,0.92,0,0,1,1.29,0,0.9,0.9,0,0,1,.26.65v0.2a2.27,2.27,0,0,1,1-.94,3,3,0,0,1,1.38-.32A1.15,1.15,0,0,1,307.62,187.09Z" transform="translate(-293.68 -136.86)"/><path class="cls-1" d="M316.17,187.09a0.89,0.89,0,0,1,.25.66v6.34a0.9,0.9,0,0,1-.25.65,0.86,0.86,0,0,1-.65.26,0.85,0.85,0,0,1-.64-0.25,1,1,0,0,1-.26-0.65,3.25,3.25,0,0,1-2.36,1.05,3.43,3.43,0,0,1-1.87-.53,3.73,3.73,0,0,1-1.33-1.48,4.61,4.61,0,0,1-.49-2.14,4.71,4.71,0,0,1,.48-2.15,3.7,3.7,0,0,1,1.31-1.49,3.35,3.35,0,0,1,1.84-.53,3.48,3.48,0,0,1,1.35.26,3.55,3.55,0,0,1,1.07.67h0a0.9,0.9,0,0,1,.25-0.65,0.86,0.86,0,0,1,.64-0.26A0.88,0.88,0,0,1,316.17,187.09Zm-2.08,5.71a2.65,2.65,0,0,0,.61-1.79,2.68,2.68,0,0,0-.61-1.8,2.1,2.1,0,0,0-3.17,0,2.94,2.94,0,0,0,0,3.59,2,2,0,0,0,1.58.71A2,2,0,0,0,314.08,192.8Z" transform="translate(-293.68 -136.86)"/><path class="cls-1" d="M325.51,184.17a0.89,0.89,0,0,1,.25.66v9.27a0.9,0.9,0,0,1-.25.65,0.86,0.86,0,0,1-.65.26,0.85,0.85,0,0,1-.64-0.25,1,1,0,0,1-.26-0.65,3.25,3.25,0,0,1-2.36,1.05,3.43,3.43,0,0,1-1.87-.53,3.73,3.73,0,0,1-1.33-1.48,4.61,4.61,0,0,1-.49-2.14,4.71,4.71,0,0,1,.48-2.15,3.7,3.7,0,0,1,1.31-1.49,3.35,3.35,0,0,1,1.84-.53,3.48,3.48,0,0,1,1.35.26,3.55,3.55,0,0,1,1.07.67v-2.94a0.9,0.9,0,0,1,.25-0.65,0.86,0.86,0,0,1,.64-0.26A0.88,0.88,0,0,1,325.51,184.17Zm-2.08,8.63A2.65,2.65,0,0,0,324,191a2.68,2.68,0,0,0-.61-1.8,2.1,2.1,0,0,0-3.17,0,2.94,2.94,0,0,0,0,3.59,2,2,0,0,0,1.58.71A2,2,0,0,0,323.43,192.8Z" transform="translate(-293.68 -136.86)"/><path class="cls-1" d="M327.77,185.85a0.7,0.7,0,0,1-.21-0.58V185a0.68,0.68,0,0,1,.22-0.58,1.69,1.69,0,0,1,1.46,0,0.71,0.71,0,0,1,.21.58v0.29a0.69,0.69,0,0,1-.22.59,1.31,1.31,0,0,1-.74.16A1.19,1.19,0,0,1,327.77,185.85Zm1.38,8.9a0.92,0.92,0,0,1-1.29,0,0.9,0.9,0,0,1-.25-0.65v-6.2a0.9,0.9,0,0,1,.25-0.65,0.92,0.92,0,0,1,1.29,0,0.9,0.9,0,0,1,.25.65v6.2A0.9,0.9,0,0,1,329.15,194.75Z" transform="translate(-293.68 -136.86)"/><path class="cls-1" d="M336.81,187.24a1.19,1.19,0,0,1,.78,1.06,0.91,0.91,0,0,1-.19.58,0.62,0.62,0,0,1-.51.25,1,1,0,0,1-.39-0.07,1.39,1.39,0,0,1-.29-0.18,2,2,0,0,0-.28-0.19,1.88,1.88,0,0,0-.44-0.13,2.47,2.47,0,0,0-.47-0.06,2.26,2.26,0,0,0-1.76.7,2.87,2.87,0,0,0,0,3.61,2.12,2.12,0,0,0,1.65.71,2.55,2.55,0,0,0,1.09-.18l0.25-.16a1.73,1.73,0,0,1,.29-0.17,0.81,0.81,0,0,1,.33-0.06,0.76,0.76,0,0,1,.59.24,0.88,0.88,0,0,1,.22.62,0.87,0.87,0,0,1-.42.67,3.26,3.26,0,0,1-1.11.5,5.59,5.59,0,0,1-1.47.19,3.8,3.8,0,0,1-2-.54,3.63,3.63,0,0,1-1.36-1.49,4.64,4.64,0,0,1-.48-2.12,4.53,4.53,0,0,1,.5-2.16,3.7,3.7,0,0,1,1.4-1.48,3.94,3.94,0,0,1,2-.53A4.55,4.55,0,0,1,336.81,187.24Z" transform="translate(-293.68 -136.86)"/><path class="cls-1" d="M339,185.85a0.7,0.7,0,0,1-.21-0.58V185a0.68,0.68,0,0,1,.22-0.58,1.69,1.69,0,0,1,1.46,0,0.71,0.71,0,0,1,.21.58v0.29a0.69,0.69,0,0,1-.22.59,1.31,1.31,0,0,1-.74.16A1.19,1.19,0,0,1,339,185.85Zm1.38,8.9a0.92,0.92,0,0,1-1.29,0,0.9,0.9,0,0,1-.25-0.65v-6.2a0.9,0.9,0,0,1,.25-0.65,0.92,0.92,0,0,1,1.29,0,0.9,0.9,0,0,1,.25.65v6.2A0.9,0.9,0,0,1,340.42,194.75Z" transform="translate(-293.68 -136.86)"/><path class="cls-1" d="M349.69,193.16a3.81,3.81,0,0,1-1.48,1.48,4.33,4.33,0,0,1-4.13,0,3.82,3.82,0,0,1-1.47-1.48,4.56,4.56,0,0,1,0-4.3,3.88,3.88,0,0,1,1.47-1.49,4.28,4.28,0,0,1,4.13,0,3.87,3.87,0,0,1,1.48,1.49A4.56,4.56,0,0,1,349.69,193.16Zm-1.57-3.46a2.26,2.26,0,0,0-.82-0.89,2.25,2.25,0,0,0-2.3,0,2.26,2.26,0,0,0-.82.89,2.75,2.75,0,0,0-.31,1.31,2.7,2.7,0,0,0,.31,1.3,2.27,2.27,0,0,0,.82.88,2.25,2.25,0,0,0,2.3,0,2.28,2.28,0,0,0,.82-0.88,2.7,2.7,0,0,0,.31-1.3A2.75,2.75,0,0,0,348.12,189.7Z" transform="translate(-293.68 -136.86)"/><path class="cls-1" d="M358.13,187.75a4.62,4.62,0,0,1,.58,2.51v3.84a0.9,0.9,0,0,1-.25.65,0.92,0.92,0,0,1-1.29,0,0.9,0.9,0,0,1-.25-0.65v-3.84a2.17,2.17,0,0,0-.34-1.3,1.37,1.37,0,0,0-1.19-.47,1.83,1.83,0,0,0-1.37.5,1.74,1.74,0,0,0-.49,1.27v3.84a0.9,0.9,0,0,1-.26.65,0.92,0.92,0,0,1-1.29,0,0.9,0.9,0,0,1-.26-0.65v-6.2a0.9,0.9,0,0,1,.26-0.65,0.92,0.92,0,0,1,1.29,0,0.9,0.9,0,0,1,.26.65v0.25a3.64,3.64,0,0,1,1.06-.93,2.75,2.75,0,0,1,1.43-.39A2.32,2.32,0,0,1,358.13,187.75Z" transform="translate(-293.68 -136.86)"/><path class="cls-1" d="M367.58,191.4a1,1,0,0,1-.63.23h-5a2.26,2.26,0,0,0,.83,1.39,2.3,2.3,0,0,0,1.46.5,3.22,3.22,0,0,0,1-.11,2.5,2.5,0,0,0,.55-0.24l0.28-.17a1.14,1.14,0,0,1,.51-0.13,0.73,0.73,0,0,1,.54.23,0.72,0.72,0,0,1,.23.52,0.94,0.94,0,0,1-.42.74,3.6,3.6,0,0,1-1.12.58,4.65,4.65,0,0,1-3.62-.29,3.66,3.66,0,0,1-1.45-1.45,4.22,4.22,0,0,1-.51-2.08,4.6,4.6,0,0,1,.54-2.26,3.82,3.82,0,0,1,1.42-1.49,3.68,3.68,0,0,1,1.89-.52,3.5,3.5,0,0,1,1.87.54,4,4,0,0,1,1.4,1.46,3.91,3.91,0,0,1,.52,2A0.77,0.77,0,0,1,367.58,191.4ZM362,190.12h3.93V190a1.55,1.55,0,0,0-.62-1.08,2,2,0,0,0-1.26-.45A1.86,1.86,0,0,0,362,190.12Z" transform="translate(-293.68 -136.86)"/><path class="cls-1" d="M368.77,193.32a0.85,0.85,0,0,1,.83-0.79,0.85,0.85,0,0,1,.6.29,3.16,3.16,0,0,0,.94.69,2.81,2.81,0,0,0,1.18.22q1.17,0,1.17-.88a0.72,0.72,0,0,0-.4-0.66,5.61,5.61,0,0,0-1.24-.45,10.75,10.75,0,0,1-1.42-.48,2.5,2.5,0,0,1-.94-0.73,2,2,0,0,1-.4-1.31,2,2,0,0,1,.41-1.25,2.72,2.72,0,0,1,1.08-.83,3.5,3.5,0,0,1,1.42-.29,4.34,4.34,0,0,1,1.53.29,2.66,2.66,0,0,1,1.2.84,0.84,0.84,0,0,1,.2.54,0.7,0.7,0,0,1-.29.57,0.75,0.75,0,0,1-.48.17,0.73,0.73,0,0,1-.54-0.21,1.9,1.9,0,0,0-.7-0.52,2.31,2.31,0,0,0-1-.2q-1.14,0-1.14.83a0.7,0.7,0,0,0,.21.53,1.44,1.44,0,0,0,.53.32l0.91,0.28a9.83,9.83,0,0,1,1.35.46,2.32,2.32,0,0,1,.92.74,2.1,2.1,0,0,1,.38,1.3,2,2,0,0,1-.44,1.28,2.76,2.76,0,0,1-1.12.83,3.61,3.61,0,0,1-1.4.29,5.08,5.08,0,0,1-1.84-.33,3.06,3.06,0,0,1-1.4-1.07A0.73,0.73,0,0,1,368.77,193.32Z" transform="translate(-293.68 -136.86)"/><path class="cls-1" d="M300.48,200.24v2.64h3.24a0.91,0.91,0,0,1,.65.25,0.84,0.84,0,0,1,.26.64,0.8,0.8,0,0,1-.26.58,0.9,0.9,0,0,1-.65.25h-3.24v3.5a0.86,0.86,0,0,1-.28.65,0.92,0.92,0,0,1-.65.26,0.94,0.94,0,0,1-.68-0.25,0.88,0.88,0,0,1-.26-0.66v-8.67a0.9,0.9,0,0,1,.92-0.92h4.88a0.91,0.91,0,0,1,.65.25,0.84,0.84,0,0,1,.26.64,0.79,0.79,0,0,1-.26.58,0.9,0.9,0,0,1-.65.25h-3.92Z" transform="translate(-293.68 -136.86)"/><path class="cls-1" d="M313.73,201.09a0.89,0.89,0,0,1,.25.66v6.34a0.9,0.9,0,0,1-.25.65,0.86,0.86,0,0,1-.65.26,0.85,0.85,0,0,1-.64-0.25,1,1,0,0,1-.26-0.65,3.25,3.25,0,0,1-2.36,1.05,3.43,3.43,0,0,1-1.87-.53,3.73,3.73,0,0,1-1.33-1.48,4.61,4.61,0,0,1-.49-2.14,4.71,4.71,0,0,1,.48-2.15,3.7,3.7,0,0,1,1.31-1.49,3.35,3.35,0,0,1,1.84-.53,3.48,3.48,0,0,1,1.35.26,3.55,3.55,0,0,1,1.07.67h0a0.9,0.9,0,0,1,.25-0.65,0.86,0.86,0,0,1,.64-0.26A0.88,0.88,0,0,1,313.73,201.09Zm-2.08,5.71a2.65,2.65,0,0,0,.61-1.79,2.68,2.68,0,0,0-.61-1.8,2.1,2.1,0,0,0-3.17,0,2.94,2.94,0,0,0,0,3.59,2,2,0,0,0,1.58.71A2,2,0,0,0,311.64,206.8Z" transform="translate(-293.68 -136.86)"/><path class="cls-1" d="M327.24,201.75a4.71,4.71,0,0,1,.57,2.51v3.84a0.9,0.9,0,0,1-.26.65,0.92,0.92,0,0,1-1.29,0,0.9,0.9,0,0,1-.25-0.65v-3.84a2.28,2.28,0,0,0-.32-1.3,1.27,1.27,0,0,0-1.13-.47,1.72,1.72,0,0,0-1.31.5,1.78,1.78,0,0,0-.47,1.27v3.84a0.9,0.9,0,0,1-.26.65,0.92,0.92,0,0,1-1.29,0,0.9,0.9,0,0,1-.25-0.65v-3.84a2.28,2.28,0,0,0-.32-1.3,1.27,1.27,0,0,0-1.13-.47,1.72,1.72,0,0,0-1.31.5,1.78,1.78,0,0,0-.47,1.27v3.84a0.9,0.9,0,0,1-.26.65,0.92,0.92,0,0,1-1.29,0,0.9,0.9,0,0,1-.26-0.65v-6.2a0.9,0.9,0,0,1,.26-0.65,0.92,0.92,0,0,1,1.29,0,0.9,0.9,0,0,1,.26.65v0.24a3.66,3.66,0,0,1,1-.92,2.6,2.6,0,0,1,1.39-.38,2.27,2.27,0,0,1,2.42,1.65,3.53,3.53,0,0,1,1-1.14,2.61,2.61,0,0,1,1.58-.51A2.23,2.23,0,0,1,327.24,201.75Z" transform="translate(-293.68 -136.86)"/><path class="cls-1" d="M329.82,199.85a0.7,0.7,0,0,1-.21-0.58V199a0.68,0.68,0,0,1,.22-0.58,1.69,1.69,0,0,1,1.46,0,0.71,0.71,0,0,1,.21.58v0.29a0.69,0.69,0,0,1-.22.59,1.31,1.31,0,0,1-.74.16A1.19,1.19,0,0,1,329.82,199.85Zm1.38,8.9a0.92,0.92,0,0,1-1.29,0,0.9,0.9,0,0,1-.25-0.65v-6.2a0.9,0.9,0,0,1,.25-0.65,0.92,0.92,0,0,1,1.29,0,0.9,0.9,0,0,1,.25.65v6.2A0.9,0.9,0,0,1,331.2,208.75Z" transform="translate(-293.68 -136.86)"/><path class="cls-1" d="M335,208.75a0.89,0.89,0,0,1-.65.26,0.84,0.84,0,0,1-.63-0.26,0.9,0.9,0,0,1-.25-0.65v-9.27a0.9,0.9,0,0,1,.92-0.92,0.84,0.84,0,0,1,.63.26,0.9,0.9,0,0,1,.25.65v9.27A0.89,0.89,0,0,1,335,208.75Z" transform="translate(-293.68 -136.86)"/><path class="cls-1" d="M337.41,199.85a0.7,0.7,0,0,1-.21-0.58V199a0.68,0.68,0,0,1,.22-0.58,1.69,1.69,0,0,1,1.46,0,0.71,0.71,0,0,1,.21.58v0.29a0.69,0.69,0,0,1-.22.59,1.31,1.31,0,0,1-.74.16A1.19,1.19,0,0,1,337.41,199.85Zm1.38,8.9a0.92,0.92,0,0,1-1.29,0,0.9,0.9,0,0,1-.25-0.65v-6.2a0.9,0.9,0,0,1,.25-0.65,0.92,0.92,0,0,1,1.29,0,0.9,0.9,0,0,1,.25.65v6.2A0.9,0.9,0,0,1,338.79,208.75Z" transform="translate(-293.68 -136.86)"/><path class="cls-1" d="M348,201.09a0.89,0.89,0,0,1,.25.66v6.34a0.9,0.9,0,0,1-.25.65,0.86,0.86,0,0,1-.65.26,0.85,0.85,0,0,1-.64-0.25,1,1,0,0,1-.26-0.65,3.25,3.25,0,0,1-2.36,1.05,3.43,3.43,0,0,1-1.87-.53,3.73,3.73,0,0,1-1.33-1.48,4.61,4.61,0,0,1-.49-2.14,4.71,4.71,0,0,1,.48-2.15,3.7,3.7,0,0,1,1.31-1.49,3.35,3.35,0,0,1,1.84-.53,3.48,3.48,0,0,1,1.35.26,3.55,3.55,0,0,1,1.07.67h0a0.9,0.9,0,0,1,.25-0.65,0.86,0.86,0,0,1,.64-0.26A0.88,0.88,0,0,1,348,201.09Zm-2.08,5.71a2.65,2.65,0,0,0,.61-1.79,2.68,2.68,0,0,0-.61-1.8,2.1,2.1,0,0,0-3.17,0,2.94,2.94,0,0,0,0,3.59,2,2,0,0,0,1.58.71A2,2,0,0,0,345.95,206.8Z" transform="translate(-293.68 -136.86)"/><path class="cls-1" d="M355.17,201.09a0.76,0.76,0,0,1,.31.6,0.93,0.93,0,0,1-.24.7,0.79,0.79,0,0,1-.57.23,1.49,1.49,0,0,1-.51-0.11l-0.2-.06a1.22,1.22,0,0,0-.34,0,1.34,1.34,0,0,0-.75.24,1.76,1.76,0,0,0-.59.73,2.68,2.68,0,0,0-.23,1.16v3.55a0.9,0.9,0,0,1-.26.65,0.92,0.92,0,0,1-1.29,0,0.9,0.9,0,0,1-.26-0.65v-6.2a0.9,0.9,0,0,1,.26-0.65,0.92,0.92,0,0,1,1.29,0,0.9,0.9,0,0,1,.26.65v0.2a2.27,2.27,0,0,1,1-.94,3,3,0,0,1,1.38-.32A1.15,1.15,0,0,1,355.17,201.09Z" transform="translate(-293.68 -136.86)"/><path class="cls-1" d="M363.33,205.4a1,1,0,0,1-.63.23h-5a2.26,2.26,0,0,0,.83,1.39,2.3,2.3,0,0,0,1.46.5,3.22,3.22,0,0,0,1-.11,2.5,2.5,0,0,0,.55-0.24l0.28-.17a1.14,1.14,0,0,1,.51-0.13,0.73,0.73,0,0,1,.54.23,0.72,0.72,0,0,1,.23.52,0.94,0.94,0,0,1-.42.74,3.6,3.6,0,0,1-1.12.58,4.65,4.65,0,0,1-3.62-.29,3.66,3.66,0,0,1-1.45-1.45,4.22,4.22,0,0,1-.51-2.08,4.6,4.6,0,0,1,.54-2.26,3.82,3.82,0,0,1,1.42-1.49,3.68,3.68,0,0,1,1.89-.52,3.5,3.5,0,0,1,1.87.54,4,4,0,0,1,1.4,1.46,3.91,3.91,0,0,1,.52,2A0.77,0.77,0,0,1,363.33,205.4Zm-5.56-1.27h3.93V204a1.55,1.55,0,0,0-.62-1.08,2,2,0,0,0-1.26-.45A1.86,1.86,0,0,0,357.77,204.12Z" transform="translate(-293.68 -136.86)"/><path class="cls-1" d="M364.52,207.32a0.85,0.85,0,0,1,.83-0.79,0.85,0.85,0,0,1,.6.29,3.16,3.16,0,0,0,.94.69,2.81,2.81,0,0,0,1.18.22q1.17,0,1.17-.88a0.72,0.72,0,0,0-.4-0.66,5.61,5.61,0,0,0-1.24-.45,10.75,10.75,0,0,1-1.42-.48,2.5,2.5,0,0,1-.94-0.73,2,2,0,0,1-.4-1.31,2,2,0,0,1,.41-1.25,2.72,2.72,0,0,1,1.08-.83,3.5,3.5,0,0,1,1.42-.29,4.34,4.34,0,0,1,1.53.29,2.66,2.66,0,0,1,1.2.84,0.84,0.84,0,0,1,.2.54,0.7,0.7,0,0,1-.29.57,0.75,0.75,0,0,1-.48.17,0.73,0.73,0,0,1-.54-0.21,1.9,1.9,0,0,0-.7-0.52,2.31,2.31,0,0,0-1-.2q-1.14,0-1.14.83a0.7,0.7,0,0,0,.21.53,1.44,1.44,0,0,0,.53.32l0.91,0.28a9.83,9.83,0,0,1,1.35.46,2.32,2.32,0,0,1,.92.74,2.1,2.1,0,0,1,.38,1.3,2,2,0,0,1-.44,1.28,2.76,2.76,0,0,1-1.12.83,3.61,3.61,0,0,1-1.4.29,5.08,5.08,0,0,1-1.84-.33,3.06,3.06,0,0,1-1.4-1.07A0.73,0.73,0,0,1,364.52,207.32Z" transform="translate(-293.68 -136.86)"/><path class="cls-1" d="M315.22,171.43a1.9,1.9,0,0,1-.05-0.32q0-4.33,0-8.66c0-.12,0-0.23,0-0.37h-0.93a1.43,1.43,0,0,1-1.39-1.21,2.76,2.76,0,0,1,0-.4q0-4.19,0-8.38c0-.66,0-1.32,0-2a4.17,4.17,0,0,1,1.4-2.77,4.53,4.53,0,0,1,2.11-1.19,1,1,0,0,1,.86.17,4.21,4.21,0,0,0,5.06-.06,0.88,0.88,0,0,1,.76-0.11,4.38,4.38,0,0,1,2.05,1.14,5.07,5.07,0,0,1,1,1.2,4.49,4.49,0,0,1,.53,2.05c0,1.1.1,2.2,0.21,3.29a4.81,4.81,0,0,0,1.38,2.83c0.83,0.88,1.69,1.73,2.53,2.6,0.49,0.5,1,1,1.49,1.51a2.48,2.48,0,0,0,1.93.76,2.55,2.55,0,0,0,1.84-.81c1.84-1.88,3.71-3.73,5.56-5.61a4.32,4.32,0,0,0,1.22-3,10.23,10.23,0,0,1,.15-1.89,5.18,5.18,0,0,1,2.56-3.42,6.32,6.32,0,0,1,.62-0.33,0.46,0.46,0,0,1,.66.29,3.18,3.18,0,0,1,.14.45,2.16,2.16,0,0,0,1.8,1.61,2,2,0,0,0,2.09-1.09,1.82,1.82,0,0,0,.25-0.84,0.49,0.49,0,0,1,.69-0.41,3.7,3.7,0,0,1,1.26.86,5.2,5.2,0,0,1,1.67,3.14,21.16,21.16,0,0,1,.07,2.43c0,2,0,4,0,6a2.71,2.71,0,0,1,0,.35,7.48,7.48,0,0,0,.48,2.69c0.19,0.83.34,1.66,0.51,2.49a0.56,0.56,0,0,1-.29.66,15.42,15.42,0,0,1-3,1.43,0.25,0.25,0,0,0-.13.18c-0.09,1.33-.17,2.65-0.25,4-0.05.81-.11,1.62-0.15,2.42a2.38,2.38,0,0,0,0,.32c0.06,0.08.12,0.16,0.19,0.23l0.9,0.89a1.21,1.21,0,0,1,0,1.23,0.92,0.92,0,0,1-.9.5h-6.46a1.06,1.06,0,0,1-1-1.38,2,2,0,0,1,1.18-1.49,0.26,0.26,0,0,0,.13-0.2c-0.1-1.77-.21-3.55-0.32-5.32,0-.38-0.05-0.75-0.07-1.13a0.25,0.25,0,0,0-.18-0.25q-1.07-.46-2.12-1c-0.25-.12-0.49-0.27-0.74-0.4a0.63,0.63,0,0,1-.39-0.78,19.37,19.37,0,0,1,1.58-5.5c0.48-1,1.08-1.91,1.63-2.86a1.05,1.05,0,0,0,.14-0.43c0-.33,0-0.66,0-1a0.76,0.76,0,0,0-.07.11,6,6,0,0,1-1.58,2.43q-2.32,2.37-4.66,4.71c-0.45.45-.94,0.86-1.36,1.34a3.11,3.11,0,0,0-.61,1.44,14.36,14.36,0,0,0-.14,2.92q0,3,0,6a0.61,0.61,0,0,0,.13.35,1.63,1.63,0,0,1,.08,2,1.19,1.19,0,0,1-.94.47c-1.53,0-3.07,0-4.6,0a1.24,1.24,0,0,1-1.23-1.24,1.72,1.72,0,0,1,.41-1.24,0.49,0.49,0,0,0,.09-0.3q0-1.59,0-3.18,0-2.39,0-4.78a4.53,4.53,0,0,0-.68-2.33,4.43,4.43,0,0,0-.71-0.75c-1-1-1.9-1.92-2.87-2.86-0.45-.44-1-0.84-1.41-1.28s-0.7-.75-1.07-1.15c0,0.07,0,.15,0,0.23q0,3,0,6.06,0,4.56,0,9.13a0.57,0.57,0,0,0,.15.42,1.93,1.93,0,0,1,.33,2,1.15,1.15,0,0,1-1.13.78c-1.31,0-2.61,0-3.92,0a0.68,0.68,0,0,1-.16,0l-0.9-.89a1.21,1.21,0,0,1,.22,0h4.6a0.31,0.31,0,0,0,.35-0.16,0.79,0.79,0,0,0-.75-1.18h-2.64l-0.2,0c-0.11.41-.25,0.58-0.51,0.57a0.56,0.56,0,0,1-.54-0.59h-1.49c-0.2,0-.4,0-0.6-0.07a1.12,1.12,0,0,0-.13-0.22l-0.65-.67,0.23,0h2.38l0.29,0c0-.51,0-1,0-1.48q0-4,0-8c0-.08,0-0.16,0-0.24a0.49,0.49,0,0,1,.47-0.47,0.49,0.49,0,0,1,.51.42,2,2,0,0,1,0,.26q0,4.61,0,9.22c0,0.33,0,.33.32,0.33h2.73V159.77h-7.12c0,0.15,0,.27,0,0.4q0,5.94,0,11.89a1.78,1.78,0,0,1,0,.27Zm0-13.12,0.9-.89a1.51,1.51,0,0,1,0,.24c0,0.36,0,.72,0,1.1h7.14c0-.13,0-0.24,0-0.35q0-3.64,0-7.29a2.2,2.2,0,0,1,0-.24,0.46,0.46,0,0,1,.54-0.41,0.43,0.43,0,0,1,.44.43c0,0.19,0,.38,0,0.57a21,21,0,0,0,.23,3.36,5,5,0,0,0,1.78,3l0.86-.86,0,0a5.89,5.89,0,0,1-1.24-2.68,20.83,20.83,0,0,1-.26-3.57,3.89,3.89,0,0,0,0-.66,3.58,3.58,0,0,0-2.63-2.83,0.35,0.35,0,0,0-.26,0,5.15,5.15,0,0,1-5.64.16,0.94,0.94,0,0,0-.95-0.07,3.65,3.65,0,0,0-2.27,3.33c0,2.6,0,5.2,0,7.81,0,0.09,0,.18,0,0.31h1c0.24,0,.42,0,0.37-0.33A0.29,0.29,0,0,1,315.22,158.31Zm36.25-2.4a2.57,2.57,0,0,1-.09-0.48c0-.55,0-1.1,0-1.65a8.09,8.09,0,0,1,.51-2.65,3.9,3.9,0,0,0,.2-0.65,3.31,3.31,0,0,0-.47-2.1,3.16,3.16,0,0,1-5.4-.06L346,149a2.43,2.43,0,0,0-.1,1.92,12.06,12.06,0,0,1,.6,5,1,1,0,0,1-.17.5,17,17,0,0,0-2.53,5.21c-0.23.85-.39,1.71-0.58,2.57a0.23,0.23,0,0,0,.12.29c0.46,0.23.91,0.49,1.38,0.71a8.76,8.76,0,0,0,2.95.77,13.36,13.36,0,0,0,3.41-.11,10,10,0,0,0,3.52-1.4,0.27,0.27,0,0,0,.1-0.22c0-.29-0.1-0.57-0.16-0.86a17.78,17.78,0,0,0-1.11-3.71,19.4,19.4,0,0,0-1.77-3.16,0.55,0.55,0,0,1,0-.16C351.82,156.11,351.57,156,351.47,155.91ZM332.1,162c-0.22.22-.43,0.44-0.65,0.65a0.24,0.24,0,0,0-.06.36,4.64,4.64,0,0,1,.58,1.92c0,0.81,0,1.62.06,2.43,0,0.11,0,.23,0,0.34h4.08c0-.32,0-0.62,0-0.91,0-.6,0-1.21.05-1.81a5.31,5.31,0,0,1,.58-2,0.36,0.36,0,0,0,0-.31c-0.21-.26-0.45-0.49-0.68-0.73A3.8,3.8,0,0,1,332.1,162Zm1.48,11.27c0-.09,0-0.16,0-0.23,0-.71,0-1.43,0-2.14a0.86,0.86,0,0,1,.09-0.4,0.44,0.44,0,0,1,.53-0.21,0.48,0.48,0,0,1,.36.49c0,0.71,0,1.41,0,2.12,0,0.43,0,.39.37,0.38h0.92l0.23,0c0-.07,0-0.12,0-0.16,0-1.39,0-2.78,0-4.17,0-.19-0.07-0.22-0.24-0.22h-3.61l-0.21,0v4.54h1.51Zm13.43,0,1.47-.1V167l-1.88-.22Zm4.34-6.44-1.87.22v6.12l1.47,0.1Zm-9.55-9.07c0.52-.51,1.07-1,1.57-1.57a6.79,6.79,0,0,0,.8-1.07,4.35,4.35,0,0,0,.58-2,12.4,12.4,0,0,0,0-2.3,4.16,4.16,0,0,1,.3-2.23,1.13,1.13,0,0,0,0-.16,4.19,4.19,0,0,0-1.22,2,8.41,8.41,0,0,0-.15,1.85,4.88,4.88,0,0,1-.49,2.11,7,7,0,0,1-1.36,1.82c-0.28.28-.58,0.55-0.84,0.8ZM353.76,158c0-.11,0-0.14,0-0.18,0-2.06,0-4.12,0-6.17a9.81,9.81,0,0,0-.22-1.68,2.29,2.29,0,0,0-.52-1,0.45,0.45,0,0,0,0,.11,3.23,3.23,0,0,1-.09,2.23,11.13,11.13,0,0,0-.34,1.13,10.58,10.58,0,0,0-.22,3.09,0.85,0.85,0,0,0,.18.57,3.57,3.57,0,0,1,.32.49Zm-5.3,16.12c-0.67.06-1.34,0.09-2,.17a0.87,0.87,0,0,0-.76.73c-0.05.21,0,.27,0.21,0.27H352c0.21,0,.26-0.08.22-0.27a0.89,0.89,0,0,0-.74-0.73,4.65,4.65,0,0,0-.49-0.06l-1.49-.11a0.55,0.55,0,0,1-.52.54A0.56,0.56,0,0,1,348.46,174.12Zm-17.13-12.84-0.09-.1-1.88-1.89c-0.42-.42-0.83-0.84-1.26-1.24a0.46,0.46,0,0,0-.71,0,0.47,0.47,0,0,0,0,.69l2,2,1.22,1.25Zm6.27,0.79a3.7,3.7,0,0,1,.28-0.36l2.9-2.91a0.5,0.5,0,0,0-.21-0.86,0.53,0.53,0,0,0-.57.19l-2,2.08-1.07,1.11Zm-3.5,13.22h2.17a0.3,0.3,0,0,0,.36-0.35,0.61,0.61,0,0,0-.65-0.67h-1.15a0.21,0.21,0,0,0-.26.19,0.43,0.43,0,0,1-.46.32,0.42,0.42,0,0,1-.45-0.33,0.2,0.2,0,0,0-.25-0.18h-1a1.56,1.56,0,0,0-.39,0,0.64,0.64,0,0,0-.41.71c0,0.22.13,0.27,0.52,0.27h2Zm-20.25-15.52c0,0.33,0,.64,0,1a0.32,0.32,0,0,0,.33.33l0.85,0a0.18,0.18,0,0,0,.13-0.11c0-.4,0-0.8,0-1.2h-1.31Z" transform="translate(-293.68 -136.86)"/><path class="cls-1" d="M319.64,147.78a3.89,3.89,0,0,1-3.39-2.36,4.67,4.67,0,0,1-.47-1.67,0.74,0.74,0,0,0-.12-0.32,3.81,3.81,0,0,1,.85-5.38,3.06,3.06,0,0,1,2.38-.52,6.33,6.33,0,0,0,3.76-.55,0.47,0.47,0,0,1,.68.19,2.62,2.62,0,0,1,.42,1.36,3.78,3.78,0,0,1-.48,2.29,0.32,0.32,0,0,0,0,.25,5,5,0,0,1-.39,4.94A3.74,3.74,0,0,1,319.64,147.78Zm2.76-6.13a4.3,4.3,0,0,1-4.89-.92,4.46,4.46,0,0,0-.38.6,4.08,4.08,0,0,0,.52,4.41,2.59,2.59,0,0,0,3.71.46A3.93,3.93,0,0,0,322.4,141.65Zm-6.45-.18,0.09-.19a4.87,4.87,0,0,1,1-1.45,0.63,0.63,0,0,1,1.1,0,3.45,3.45,0,0,0,2.86,1.19,1.87,1.87,0,0,0,1.77-1.47,2.75,2.75,0,0,0-.09-1.5l-0.21.07a7.22,7.22,0,0,1-3.47.4,4,4,0,0,0-1,0,2.31,2.31,0,0,0-1.62,1.25A2.59,2.59,0,0,0,315.94,141.47Z" transform="translate(-293.68 -136.86)"/><path class="cls-1" d="M349.76,137.91c-0.73,0-1.46-.05-2.18,0a2.91,2.91,0,0,0-2.3,1.57,7.74,7.74,0,0,0-.89,3.1,4.52,4.52,0,0,1-1.28,2.79,0.34,0.34,0,0,0-.05.29,2.33,2.33,0,0,0,1.4,1.49,0.51,0.51,0,0,1,.38.48,0.48,0.48,0,0,1-.68.47,3.39,3.39,0,0,1-2.19-2.78,0.69,0.69,0,0,1,.24-0.47,3.43,3.43,0,0,0,1-1.63,12,12,0,0,0,.25-1.44,6.87,6.87,0,0,1,1.39-3.48,3.86,3.86,0,0,1,2.47-1.38,3.59,3.59,0,0,1,.59-0.06c0.7,0,1.4,0,2.09,0a4.07,4.07,0,0,1,3.71,2.47,8.67,8.67,0,0,1,.78,2.84,3.84,3.84,0,0,0,1.3,2.71,0.7,0.7,0,0,1,.14.81,3.56,3.56,0,0,1-1.84,2.27,1.92,1.92,0,0,1-.33.13,0.48,0.48,0,0,1-.64-0.32,0.5,0.5,0,0,1,.32-0.62,2.37,2.37,0,0,0,1.1-.85,3.17,3.17,0,0,0,.2-0.32c0.24-.44.24-0.47-0.09-0.83a4.83,4.83,0,0,1-1.14-2.9,6.9,6.9,0,0,0-.9-2.87,3,3,0,0,0-2.21-1.49l-0.67-.07v0.07Z" transform="translate(-293.68 -136.86)"/><path class="cls-1" d="M345.39,143.91a0.56,0.56,0,0,1-.57-0.44,0.54,0.54,0,0,1,.41-0.61,10.23,10.23,0,0,0,4-3.5,0.49,0.49,0,0,1,.65-0.2,0.51,0.51,0,0,1,.29.6,3.12,3.12,0,0,1-.33.51c-0.11.15-.22,0.3-0.35,0.46a6.68,6.68,0,0,0,1.49,1.45c0.53,0.36,1.11.67,1.68,1a0.54,0.54,0,0,1,.3.64,0.5,0.5,0,0,1-.62.34l-0.11,0c-0.13.42-.24,0.85-0.4,1.25a3.82,3.82,0,0,1-1.44,1.83,2.93,2.93,0,0,1-3.73-.41,4.81,4.81,0,0,1-1.27-2.58Zm1-.38a1.06,1.06,0,0,1,0,.14c0,0.06,0,.13,0,0.19a4,4,0,0,0,1.08,2.24,1.81,1.81,0,0,0,2.7,0,4,4,0,0,0,1-2.29,0.36,0.36,0,0,0-.13-0.27c-0.22-.18-0.48-0.31-0.7-0.49-0.55-.47-1.08-1-1.58-1.41Z" transform="translate(-293.68 -136.86)"/><path class="cls-1" d="M331.37,159.14c0.06-.49.1-1,0.2-1.47a2,2,0,0,1,1.45-1.61,3.71,3.71,0,0,1,2.25,0,1.94,1.94,0,0,1,1.31,1.41,5.57,5.57,0,0,1,.05,2.86,2.68,2.68,0,0,1-2.8,2,2.54,2.54,0,0,1-2-1.44A3.84,3.84,0,0,1,331.37,159.14Zm1-.13a2.64,2.64,0,0,0,.31,1.57,1.5,1.5,0,0,0,2.18.61,1.84,1.84,0,0,0,.8-1.21,5.32,5.32,0,0,0,0-2.1,1,1,0,0,0-.67-0.82,3.67,3.67,0,0,0-1.16-.14,1.25,1.25,0,0,0-1.36,1.24C332.43,158.44,332.43,158.73,332.41,159Z" transform="translate(-293.68 -136.86)"/><path class="cls-1" d="M318.67,174.87l0.9,0.89a1.28,1.28,0,0,1-.22,0c-1.12,0-2.25,0-3.37,0a1.33,1.33,0,0,1-1.4-1.37,1.89,1.89,0,0,1,.52-1.53,0.36,0.36,0,0,0,.07-0.24c0-.34,0-0.68,0-1a1.15,1.15,0,0,1,.05-0.24l0.9,0.9,0.21,0.19,0.65,0.67a1.12,1.12,0,0,1,.13.22c-0.24,0-.48.06-0.72,0.07a0.69,0.69,0,0,0-.83.77c0,0.43,0,.53.46,0.54,0.79,0,1.58,0,2.37,0A2.05,2.05,0,0,1,318.67,174.87Z" transform="translate(-293.68 -136.86)"/><path class="cls-1" d="M353.08,174.55l-0.9-.89c-0.07-.07-0.13-0.16-0.19-0.23a1.75,1.75,0,0,1,1.11,1.07A0.12,0.12,0,0,1,353.08,174.55Z" transform="translate(-293.68 -136.86)"/><path class="cls-1" d="M315.22,158.31a1.06,1.06,0,0,1-.05-0.24q0-3.43,0-6.86a0.49,0.49,0,0,1,.49-0.59,0.51,0.51,0,0,1,.51.6q0,2.95,0,5.89a2.08,2.08,0,0,1,0,.3Z" transform="translate(-293.68 -136.86)"/><path class="cls-1" d="M351.61,156.33a0.3,0.3,0,0,1-.14-0.42C351.57,156,351.82,156.11,351.61,156.33Z" transform="translate(-293.68 -136.86)"/></svg>