<svg id="Layer_1" data-name="Layer 1" xmlns="http://www.w3.org/2000/svg" viewBox="0 0 88.99 57.62"><defs><style>.cls-1{fill:#7e6bb0;}</style></defs><title>Tranquilidad</title><path class="cls-1" d="M656.19,88.36a0.83,0.83,0,0,1,.26.63,0.8,0.8,0,0,1-.26.62,0.94,0.94,0,0,1-.66.23h-2.36V97.7a0.85,0.85,0,0,1-.29.65,1,1,0,0,1-.71.26,1,1,0,0,1-.69-0.26,0.87,0.87,0,0,1-.27-0.65V89.84h-2.35a0.92,0.92,0,0,1-.66-0.24A0.83,0.83,0,0,1,648,89a0.79,0.79,0,0,1,.26-0.62,0.93,0.93,0,0,1,.65-0.24h6.66A0.92,0.92,0,0,1,656.19,88.36Z" transform="translate(-647.96 -44)"/><path class="cls-1" d="M661.9,90.7a0.76,0.76,0,0,1,.31.6,0.93,0.93,0,0,1-.24.7,0.79,0.79,0,0,1-.57.23,1.49,1.49,0,0,1-.51-0.11l-0.2-.06a1.22,1.22,0,0,0-.34,0,1.34,1.34,0,0,0-.75.24A1.76,1.76,0,0,0,659,93a2.68,2.68,0,0,0-.23,1.16V97.7a0.9,0.9,0,0,1-.26.65,0.92,0.92,0,0,1-1.29,0A0.9,0.9,0,0,1,657,97.7v-6.2a0.9,0.9,0,0,1,.26-0.65,0.92,0.92,0,0,1,1.29,0,0.9,0.9,0,0,1,.26.65v0.2a2.27,2.27,0,0,1,1-.94,3,3,0,0,1,1.38-.32A1.15,1.15,0,0,1,661.9,90.7Z" transform="translate(-647.96 -44)"/><path class="cls-1" d="M670.44,90.7a0.89,0.89,0,0,1,.25.66V97.7a0.9,0.9,0,0,1-.25.65,0.86,0.86,0,0,1-.65.26,0.85,0.85,0,0,1-.64-0.25,1,1,0,0,1-.26-0.65,3.25,3.25,0,0,1-2.36,1.05,3.43,3.43,0,0,1-1.87-.53,3.73,3.73,0,0,1-1.33-1.48,4.61,4.61,0,0,1-.49-2.14,4.71,4.71,0,0,1,.48-2.15A3.7,3.7,0,0,1,664.65,91a3.35,3.35,0,0,1,1.84-.53,3.48,3.48,0,0,1,1.35.26,3.55,3.55,0,0,1,1.07.67h0a0.9,0.9,0,0,1,.25-0.65,0.86,0.86,0,0,1,.64-0.26A0.88,0.88,0,0,1,670.44,90.7Zm-2.08,5.71a2.65,2.65,0,0,0,.61-1.79,2.68,2.68,0,0,0-.61-1.8,2.1,2.1,0,0,0-3.17,0,2.94,2.94,0,0,0,0,3.59,2,2,0,0,0,1.58.71A2,2,0,0,0,668.36,96.41Z" transform="translate(-647.96 -44)"/><path class="cls-1" d="M679.05,91.35a4.62,4.62,0,0,1,.58,2.51V97.7a0.9,0.9,0,0,1-.25.65,0.92,0.92,0,0,1-1.29,0,0.9,0.9,0,0,1-.25-0.65V93.86a2.17,2.17,0,0,0-.34-1.3,1.37,1.37,0,0,0-1.19-.47,1.83,1.83,0,0,0-1.37.5,1.74,1.74,0,0,0-.49,1.27V97.7a0.9,0.9,0,0,1-.26.65,0.92,0.92,0,0,1-1.29,0,0.9,0.9,0,0,1-.26-0.65v-6.2a0.9,0.9,0,0,1,.26-0.65,0.92,0.92,0,0,1,1.29,0,0.9,0.9,0,0,1,.26.65v0.25a3.64,3.64,0,0,1,1.06-.93,2.75,2.75,0,0,1,1.43-.39A2.32,2.32,0,0,1,679.05,91.35Z" transform="translate(-647.96 -44)"/><path class="cls-1" d="M688.73,90.85a0.89,0.89,0,0,1,.25.66v9.2a0.9,0.9,0,0,1-.25.65,0.92,0.92,0,0,1-1.29,0,0.9,0.9,0,0,1-.25-0.65v-3a3.2,3.2,0,0,1-1,.73,3.07,3.07,0,0,1-1.34.31,3.43,3.43,0,0,1-1.87-.53,3.73,3.73,0,0,1-1.33-1.48,4.61,4.61,0,0,1-.49-2.14,4.71,4.71,0,0,1,.48-2.15A3.7,3.7,0,0,1,682.93,91a3.35,3.35,0,0,1,1.84-.53,3.43,3.43,0,0,1,1.36.27,3.47,3.47,0,0,1,1.05.67,0.9,0.9,0,0,1,.29-0.57A0.94,0.94,0,0,1,688.73,90.85Zm-2.08,5.56a2.65,2.65,0,0,0,.61-1.79,2.68,2.68,0,0,0-.61-1.8,2.1,2.1,0,0,0-3.17,0,2.94,2.94,0,0,0,0,3.59,2,2,0,0,0,1.58.71A2,2,0,0,0,686.64,96.41Z" transform="translate(-647.96 -44)"/><path class="cls-1" d="M697.53,90.86a0.9,0.9,0,0,1,.25.65v3.81a3.48,3.48,0,0,1-.89,2.54,4,4,0,0,1-5.08,0,3.49,3.49,0,0,1-.89-2.54V91.51a0.9,0.9,0,0,1,.26-0.65,0.92,0.92,0,0,1,1.29,0,0.9,0.9,0,0,1,.26.65v3.81a2,2,0,0,0,.4,1.36,1.57,1.57,0,0,0,1.21.44,1.59,1.59,0,0,0,1.23-.44,2,2,0,0,0,.41-1.36V91.51a0.9,0.9,0,0,1,.25-0.65A0.92,0.92,0,0,1,697.53,90.86Z" transform="translate(-647.96 -44)"/><path class="cls-1" d="M699.8,89.45a0.7,0.7,0,0,1-.21-0.58V88.58a0.68,0.68,0,0,1,.22-0.58,1.69,1.69,0,0,1,1.46,0,0.71,0.71,0,0,1,.21.58v0.29a0.69,0.69,0,0,1-.22.59,1.31,1.31,0,0,1-.74.16A1.19,1.19,0,0,1,699.8,89.45Zm1.38,8.9a0.92,0.92,0,0,1-1.29,0,0.9,0.9,0,0,1-.25-0.65v-6.2a0.9,0.9,0,0,1,.25-0.65,0.92,0.92,0,0,1,1.29,0,0.9,0.9,0,0,1,.25.65v6.2A0.9,0.9,0,0,1,701.18,98.36Z" transform="translate(-647.96 -44)"/><path class="cls-1" d="M705,98.36a0.89,0.89,0,0,1-.65.26,0.84,0.84,0,0,1-.63-0.26,0.9,0.9,0,0,1-.25-0.65V88.43a0.9,0.9,0,0,1,.92-0.92,0.84,0.84,0,0,1,.63.26,0.9,0.9,0,0,1,.25.65V97.7A0.89,0.89,0,0,1,705,98.36Z" transform="translate(-647.96 -44)"/><path class="cls-1" d="M707.39,89.45a0.7,0.7,0,0,1-.21-0.58V88.58A0.68,0.68,0,0,1,707.4,88a1.69,1.69,0,0,1,1.46,0,0.71,0.71,0,0,1,.21.58v0.29a0.69,0.69,0,0,1-.22.59,1.31,1.31,0,0,1-.74.16A1.19,1.19,0,0,1,707.39,89.45Zm1.38,8.9a0.92,0.92,0,0,1-1.29,0,0.9,0.9,0,0,1-.25-0.65v-6.2a0.9,0.9,0,0,1,.25-0.65,0.92,0.92,0,0,1,1.29,0,0.9,0.9,0,0,1,.25.65v6.2A0.9,0.9,0,0,1,708.77,98.36Z" transform="translate(-647.96 -44)"/><path class="cls-1" d="M718,87.77a0.89,0.89,0,0,1,.25.66V97.7a0.9,0.9,0,0,1-.25.65,0.86,0.86,0,0,1-.65.26,0.85,0.85,0,0,1-.64-0.25,1,1,0,0,1-.26-0.65,3.25,3.25,0,0,1-2.36,1.05,3.43,3.43,0,0,1-1.87-.53,3.73,3.73,0,0,1-1.33-1.48,4.61,4.61,0,0,1-.49-2.14,4.71,4.71,0,0,1,.48-2.15A3.7,3.7,0,0,1,712.21,91a3.35,3.35,0,0,1,1.84-.53,3.48,3.48,0,0,1,1.35.26,3.55,3.55,0,0,1,1.07.67V88.43a0.9,0.9,0,0,1,.25-0.65,0.86,0.86,0,0,1,.64-0.26A0.88,0.88,0,0,1,718,87.77Zm-2.08,8.63a2.65,2.65,0,0,0,.61-1.79,2.68,2.68,0,0,0-.61-1.8,2.1,2.1,0,0,0-3.17,0,2.94,2.94,0,0,0,0,3.59,2,2,0,0,0,1.58.71A2,2,0,0,0,715.92,96.41Z" transform="translate(-647.96 -44)"/><path class="cls-1" d="M727.35,90.7a0.89,0.89,0,0,1,.25.66V97.7a0.9,0.9,0,0,1-.25.65,0.86,0.86,0,0,1-.65.26,0.85,0.85,0,0,1-.64-0.25,1,1,0,0,1-.26-0.65,3.25,3.25,0,0,1-2.36,1.05,3.43,3.43,0,0,1-1.87-.53,3.73,3.73,0,0,1-1.33-1.48,4.61,4.61,0,0,1-.49-2.14,4.71,4.71,0,0,1,.48-2.15A3.7,3.7,0,0,1,721.55,91a3.35,3.35,0,0,1,1.84-.53,3.48,3.48,0,0,1,1.35.26,3.55,3.55,0,0,1,1.07.67h0a0.9,0.9,0,0,1,.25-0.65,0.86,0.86,0,0,1,.64-0.26A0.88,0.88,0,0,1,727.35,90.7Zm-2.08,5.71a2.65,2.65,0,0,0,.61-1.79,2.68,2.68,0,0,0-.61-1.8,2.1,2.1,0,0,0-3.17,0,2.94,2.94,0,0,0,0,3.59,2,2,0,0,0,1.58.71A2,2,0,0,0,725.27,96.41Z" transform="translate(-647.96 -44)"/><path class="cls-1" d="M736.7,87.77a0.89,0.89,0,0,1,.25.66V97.7a0.9,0.9,0,0,1-.25.65,0.86,0.86,0,0,1-.65.26,0.85,0.85,0,0,1-.64-0.25,1,1,0,0,1-.26-0.65,3.25,3.25,0,0,1-2.36,1.05,3.43,3.43,0,0,1-1.87-.53,3.73,3.73,0,0,1-1.33-1.48,4.61,4.61,0,0,1-.49-2.14,4.71,4.71,0,0,1,.48-2.15A3.7,3.7,0,0,1,730.9,91a3.35,3.35,0,0,1,1.84-.53,3.48,3.48,0,0,1,1.35.26,3.55,3.55,0,0,1,1.07.67V88.43a0.9,0.9,0,0,1,.25-0.65,0.86,0.86,0,0,1,.64-0.26A0.88,0.88,0,0,1,736.7,87.77Zm-2.08,8.63a2.65,2.65,0,0,0,.61-1.79,2.68,2.68,0,0,0-.61-1.8,2.1,2.1,0,0,0-3.17,0,2.94,2.94,0,0,0,0,3.59,2,2,0,0,0,1.58.71A2,2,0,0,0,734.61,96.41Z" transform="translate(-647.96 -44)"/><path class="cls-1" d="M710.47,53.64a1.1,1.1,0,0,1-1-1.09,13.39,13.39,0,0,0-.27-1.39c-0.74-2.91-2.57-3.94-5.41-3a13.48,13.48,0,0,0-3.17,1.32c-1.22.8-1.73,0.31-2.42-.69a27,27,0,0,0-2.82-3.38c-1.83-1.92-3.89-1.88-5.75.05-0.66.68-1.27,1.4-1.86,2.14s-1,2-1.83,2.28-1.86-.67-2.79-1.08c-4-1.76-6.78-1.52-7.58,3.84a0.92,0.92,0,0,1-.77,1c-2.13.62-3,1.81-3.05,4a25.84,25.84,0,0,0,.32,4.71c0.81,5.86,3.41,10.53,8.94,13.19a21.73,21.73,0,0,0,11,2.27c5.87,0,9.11-.67,12.65-2.52,6.19-3.23,10.15-12,8.52-19A3.31,3.31,0,0,0,710.47,53.64Zm-9.32-1.46c0.87-.33,1.71-0.76,2.57-1.13,2.51-1.09,2.58-.53,3,2.14,0.17,0.48-.06.63-0.58,0.76-1.32.31-2.59,0.79-3.91,1.08s-0.9-1.08-1.37-1.63C700.57,53,700.37,52.48,701.15,52.18Zm-23,1.13c0.19-.75.34-1.25,0.44-1.76a1,1,0,0,1,1.56-.88c1.15,0.47,2.3,1,3.48,1.39s0.77,1,.35,1.56,0,1.94-1.5,1.33a24,24,0,0,0-3.61-1C678.35,53.82,678,53.74,678.17,53.3Zm7.3,21c-6.12-1.83-10.36-5.28-10.92-14.17,0-.26,0-0.53,0-0.79-0.07-3.44.05-3.54,3.37-2.84,0.41,0.09.83,0.13,1.23,0.25a10.66,10.66,0,0,1,3.11,1c1,0.71.11,1.92,0.15,2.91a21.92,21.92,0,0,0,5.08,12.62l1.38,1.75C687.51,74.79,686.47,74.63,685.47,74.34Zm6.43-.1c-8.19-8.61-9-16.43-1.78-25.26,2.35-2.89,2.46-2.88,4.78,0,2.75,3.41,4.84,7.1,5,12-0.23,5.25-3.17,9.49-6.83,13.39C692.51,74.9,692.24,74.6,691.9,74.24Zm4.38,0.69a30.63,30.63,0,0,0,4.34-6.43,16.65,16.65,0,0,0,1.81-9.59,1,1,0,0,1,.7-1.3,28.69,28.69,0,0,1,6.12-1.35,1,1,0,0,1,1.29,1.17C710.73,66.17,707.79,73.48,696.28,74.92Z" transform="translate(-647.96 -44)"/></svg>