<svg id="Layer_1" data-name="Layer 1" xmlns="http://www.w3.org/2000/svg" viewBox="0 0 76.71 58.97"><defs><style>.cls-1{fill:#7e6bb0;}.cls-2{fill:none;stroke:#7e6bb0;stroke-miterlimit:10;}</style></defs><title>Vecinos</title><path class="cls-1" d="M787.95,193.58a0.8,0.8,0,0,1,.28.62,1,1,0,0,1-.09.41l-3.71,8.67a1,1,0,0,1-.37.43,0.86,0.86,0,0,1-1,0,0.91,0.91,0,0,1-.34-0.41l-3.71-8.7a0.83,0.83,0,0,1-.08-0.37,0.8,0.8,0,0,1,.3-0.65,1,1,0,0,1,.62-0.25,0.84,0.84,0,0,1,.48.15,1,1,0,0,1,.35.43l3,7.09,2.76-7.09a1,1,0,0,1,.34-0.42,0.86,0.86,0,0,1,.48-0.15A0.93,0.93,0,0,1,787.95,193.58Z" transform="translate(-766.75 -145.03)"/><path class="cls-1" d="M796.22,200.24a1,1,0,0,1-.63.23h-4.95a2.26,2.26,0,0,0,.82,1.39,2.3,2.3,0,0,0,1.46.5,3.23,3.23,0,0,0,1-.11,2.49,2.49,0,0,0,.55-0.24l0.28-.17a1.14,1.14,0,0,1,.51-0.13,0.74,0.74,0,0,1,.54.23,0.72,0.72,0,0,1,.22.52,0.94,0.94,0,0,1-.42.74,3.58,3.58,0,0,1-1.12.58,4.65,4.65,0,0,1-3.62-.29,3.66,3.66,0,0,1-1.45-1.45,4.22,4.22,0,0,1-.51-2.08,4.59,4.59,0,0,1,.54-2.26,3.83,3.83,0,0,1,1.42-1.49,3.68,3.68,0,0,1,1.89-.52,3.5,3.5,0,0,1,1.87.54,4,4,0,0,1,1.4,1.46,3.91,3.91,0,0,1,.53,2A0.77,0.77,0,0,1,796.22,200.24ZM790.66,199h3.93v-0.11a1.56,1.56,0,0,0-.62-1.08,2,2,0,0,0-1.26-.45A1.86,1.86,0,0,0,790.66,199Z" transform="translate(-766.75 -145.03)"/><path class="cls-1" d="M803.56,196.08a1.19,1.19,0,0,1,.78,1.06,0.9,0.9,0,0,1-.2.58,0.62,0.62,0,0,1-.51.25,1,1,0,0,1-.39-0.07,1.36,1.36,0,0,1-.29-0.18,2,2,0,0,0-.28-0.19,1.87,1.87,0,0,0-.44-0.13,2.49,2.49,0,0,0-.47-0.06,2.26,2.26,0,0,0-1.76.7,2.87,2.87,0,0,0,0,3.61,2.12,2.12,0,0,0,1.65.71,2.56,2.56,0,0,0,1.1-.18L803,202a1.69,1.69,0,0,1,.29-0.17,0.81,0.81,0,0,1,.33-0.06,0.76,0.76,0,0,1,.59.24,0.88,0.88,0,0,1,.22.62,0.87,0.87,0,0,1-.42.67,3.27,3.27,0,0,1-1.11.5,5.6,5.6,0,0,1-1.47.19,3.81,3.81,0,0,1-2-.54A3.64,3.64,0,0,1,798,202a4.64,4.64,0,0,1-.48-2.12,4.52,4.52,0,0,1,.5-2.16,3.7,3.7,0,0,1,1.4-1.48,3.93,3.93,0,0,1,2-.53A4.55,4.55,0,0,1,803.56,196.08Z" transform="translate(-766.75 -145.03)"/><path class="cls-1" d="M805.79,194.69a0.7,0.7,0,0,1-.21-0.58v-0.29a0.69,0.69,0,0,1,.22-0.58,1.24,1.24,0,0,1,.72-0.17,1.22,1.22,0,0,1,.73.17,0.7,0.7,0,0,1,.21.58v0.29a0.69,0.69,0,0,1-.22.59,1.31,1.31,0,0,1-.74.16A1.18,1.18,0,0,1,805.79,194.69Zm1.38,8.9a0.92,0.92,0,0,1-1.29,0,0.9,0.9,0,0,1-.26-0.65v-6.2a0.9,0.9,0,0,1,.26-0.65,0.92,0.92,0,0,1,1.29,0,0.9,0.9,0,0,1,.26.65v6.2A0.9,0.9,0,0,1,807.17,203.59Z" transform="translate(-766.75 -145.03)"/><path class="cls-1" d="M815.68,196.59a4.63,4.63,0,0,1,.58,2.51v3.84a0.9,0.9,0,0,1-.25.65,0.92,0.92,0,0,1-1.29,0,0.9,0.9,0,0,1-.25-0.65V199.1a2.16,2.16,0,0,0-.35-1.3,1.37,1.37,0,0,0-1.19-.47,1.83,1.83,0,0,0-1.37.5,1.74,1.74,0,0,0-.49,1.27v3.84a0.9,0.9,0,0,1-.26.65,0.92,0.92,0,0,1-1.29,0,0.9,0.9,0,0,1-.26-0.65v-6.2a0.9,0.9,0,0,1,.26-0.65,0.92,0.92,0,0,1,1.29,0,0.9,0.9,0,0,1,.26.65V197a3.65,3.65,0,0,1,1.06-.93,2.75,2.75,0,0,1,1.43-.39A2.32,2.32,0,0,1,815.68,196.59Z" transform="translate(-766.75 -145.03)"/><path class="cls-1" d="M825.38,202a3.81,3.81,0,0,1-1.48,1.48,4.33,4.33,0,0,1-4.13,0A3.83,3.83,0,0,1,818.3,202a4.55,4.55,0,0,1,0-4.3,3.89,3.89,0,0,1,1.47-1.49,4.28,4.28,0,0,1,4.13,0,3.87,3.87,0,0,1,1.48,1.49A4.55,4.55,0,0,1,825.38,202Zm-1.57-3.46a2.27,2.27,0,0,0-.82-0.89,2.25,2.25,0,0,0-2.3,0,2.27,2.27,0,0,0-.82.89,2.75,2.75,0,0,0-.31,1.31,2.7,2.7,0,0,0,.31,1.3,2.28,2.28,0,0,0,.82.88,2.25,2.25,0,0,0,2.3,0,2.28,2.28,0,0,0,.82-0.88,2.7,2.7,0,0,0,.31-1.3A2.75,2.75,0,0,0,823.81,198.54Z" transform="translate(-766.75 -145.03)"/><path class="cls-1" d="M826.82,202.16a0.79,0.79,0,0,1,.39-0.66,0.8,0.8,0,0,1,.44-0.13,0.85,0.85,0,0,1,.6.29,3.18,3.18,0,0,0,.94.69,2.81,2.81,0,0,0,1.18.22c0.78,0,1.17-.33,1.17-0.88a0.72,0.72,0,0,0-.4-0.66,5.62,5.62,0,0,0-1.24-.45,10.75,10.75,0,0,1-1.42-.48,2.49,2.49,0,0,1-.94-0.73,2,2,0,0,1-.4-1.31,2,2,0,0,1,.41-1.25,2.72,2.72,0,0,1,1.08-.83,3.51,3.51,0,0,1,1.42-.29,4.34,4.34,0,0,1,1.53.29,2.67,2.67,0,0,1,1.2.84,0.84,0.84,0,0,1,.2.54,0.7,0.7,0,0,1-.29.57,0.76,0.76,0,0,1-.48.17,0.73,0.73,0,0,1-.54-0.21,1.9,1.9,0,0,0-.7-0.52,2.31,2.31,0,0,0-1-.2q-1.14,0-1.14.83a0.7,0.7,0,0,0,.21.53,1.43,1.43,0,0,0,.53.32l0.91,0.28a9.74,9.74,0,0,1,1.35.46,2.31,2.31,0,0,1,.92.74,2.1,2.1,0,0,1,.38,1.3,2,2,0,0,1-.44,1.28,2.76,2.76,0,0,1-1.12.83,3.61,3.61,0,0,1-1.4.29,5.09,5.09,0,0,1-1.85-.33,3.06,3.06,0,0,1-1.39-1.07A0.73,0.73,0,0,1,826.82,202.16Z" transform="translate(-766.75 -145.03)"/><path class="cls-2" d="M785.53,145.7l5.56,4.95c0-.16,0-0.26,0-0.36,0-1,0-1.92,0-2.87a0.16,0.16,0,0,1,.19-0.2h6.39c0,0.09,0,.17,0,0.25q0,4.39,0,8.79a0.45,0.45,0,0,0,.17.38l5.71,5.07,0.18,0.17h-4v18H788.57v-0.22q0-7.3,0-14.6a0.37,0.37,0,0,1,.17-0.33l3.92-3a1.13,1.13,0,0,0,.47-1c0-1.82,0-3.63,0-5.45a1,1,0,1,0-2,0c0,1.44,0,2.89,0,4.33,0,0.18,0,.36,0,0.55a0.19,0.19,0,0,1-.14.21l-2.32.91a0.84,0.84,0,0,1-.3,0h-6.9a1.88,1.88,0,0,0-2,2c0,2,0,4.06,0,6.09a1,1,0,1,0,2,0c0-1.55,0-3.1,0-4.66,0-.12,0-0.24,0-0.38h1v15.5H771.36v-18h-4l0-.05Zm0,14.68a2.27,2.27,0,1,0-2.27-2.28A2.26,2.26,0,0,0,785.53,160.38Z" transform="translate(-766.75 -145.03)"/><path class="cls-2" d="M784.79,170.34h1.49v9.61h-1.49v-9.61Z" transform="translate(-766.75 -145.03)"/><path class="cls-2" d="M824,145.7l5.56,4.95c0-.16,0-0.26,0-0.36,0-1,0-1.92,0-2.87a0.16,0.16,0,0,1,.19-0.2h6.39c0,0.09,0,.17,0,0.25q0,4.39,0,8.79a0.45,0.45,0,0,0,.17.38l5.71,5.07,0.18,0.17h-4v18H827v-0.22q0-7.3,0-14.6a0.37,0.37,0,0,1,.17-0.33l3.92-3a1.13,1.13,0,0,0,.47-1c0-1.82,0-3.63,0-5.45a1,1,0,1,0-2,0c0,1.44,0,2.89,0,4.33,0,0.18,0,.36,0,0.55a0.19,0.19,0,0,1-.14.21l-2.32.91a0.84,0.84,0,0,1-.3,0h-6.9a1.88,1.88,0,0,0-2,2c0,2,0,4.06,0,6.09a1,1,0,1,0,2,0c0-1.55,0-3.1,0-4.66,0-.12,0-0.24,0-0.38h1v15.5H809.84v-18h-4l0-.05Zm0,14.68a2.27,2.27,0,1,0-2.27-2.28A2.26,2.26,0,0,0,824,160.38Z" transform="translate(-766.75 -145.03)"/><path class="cls-2" d="M823.27,170.34h1.49v9.61h-1.49v-9.61Z" transform="translate(-766.75 -145.03)"/></svg>