<svg id="Layer_1" data-name="Layer 1" xmlns="http://www.w3.org/2000/svg" viewBox="0 0 85 66.23"><defs><style>.cls-1{fill:#7e6bb0;}.cls-2{fill:none;stroke:#7e6bb0;stroke-miterlimit:10;}</style></defs><title>Via publica</title><path class="cls-1" d="M46.6,386.06a0.81,0.81,0,0,1,.28.62,1,1,0,0,1-.09.41l-3.71,8.67a1,1,0,0,1-.37.43,0.86,0.86,0,0,1-1,0,0.92,0.92,0,0,1-.34-0.41l-3.71-8.7a0.83,0.83,0,0,1-.08-0.37,0.8,0.8,0,0,1,.3-0.65,1,1,0,0,1,.62-0.25,0.84,0.84,0,0,1,.48.15,1,1,0,0,1,.35.43l3,7.09,2.76-7.09a1,1,0,0,1,.34-0.42A0.86,0.86,0,0,1,46,385.8,0.93,0.93,0,0,1,46.6,386.06Z" transform="translate(-34.24 -333.1)"/><path class="cls-1" d="M49.75,396.07a0.92,0.92,0,0,1-1.29,0,0.9,0.9,0,0,1-.25-0.65v-6.2a0.9,0.9,0,0,1,.25-0.65,0.92,0.92,0,0,1,1.29,0,0.9,0.9,0,0,1,.25.65v6.2A0.9,0.9,0,0,1,49.75,396.07Zm-0.89-8.41a0.4,0.4,0,0,1-.16-0.36,0.55,0.55,0,0,1,.09-0.29l0.87-1.53a1.42,1.42,0,0,1,.36-0.44,0.74,0.74,0,0,1,.47-0.17,0.81,0.81,0,0,1,.61.21,0.7,0.7,0,0,1,.19.54,1.14,1.14,0,0,1-.29.65l-1.14,1.26a0.88,0.88,0,0,1-.67.25A0.54,0.54,0,0,1,48.85,387.66Z" transform="translate(-34.24 -333.1)"/><path class="cls-1" d="M59,388.41a0.89,0.89,0,0,1,.25.66v6.34a0.9,0.9,0,0,1-.25.65,0.86,0.86,0,0,1-.65.26,0.85,0.85,0,0,1-.64-0.25,1,1,0,0,1-.26-0.65,3.25,3.25,0,0,1-2.36,1.05,3.43,3.43,0,0,1-1.87-.53,3.73,3.73,0,0,1-1.33-1.48,4.61,4.61,0,0,1-.49-2.14,4.71,4.71,0,0,1,.48-2.15,3.7,3.7,0,0,1,1.31-1.49,3.35,3.35,0,0,1,1.84-.53,3.48,3.48,0,0,1,1.35.26,3.55,3.55,0,0,1,1.07.67h0a0.9,0.9,0,0,1,.25-0.65,0.86,0.86,0,0,1,.64-0.26A0.88,0.88,0,0,1,59,388.41Zm-2.08,5.71a2.65,2.65,0,0,0,.61-1.79,2.68,2.68,0,0,0-.61-1.8,2.1,2.1,0,0,0-3.17,0,2.94,2.94,0,0,0,0,3.59,2,2,0,0,0,1.58.71A2,2,0,0,0,56.9,394.12Z" transform="translate(-34.24 -333.1)"/><path class="cls-1" d="M71.42,388.69a3.73,3.73,0,0,1,1.33,1.48,4.61,4.61,0,0,1,.49,2.15,4.71,4.71,0,0,1-.48,2.15,3.69,3.69,0,0,1-1.31,1.48,3.34,3.34,0,0,1-1.84.53,3.22,3.22,0,0,1-1.36-.29,3.59,3.59,0,0,1-1.06-.71v2.94a0.9,0.9,0,0,1-.26.65,0.86,0.86,0,0,1-.64.26,0.87,0.87,0,0,1-.64-0.25,0.89,0.89,0,0,1-.26-0.66v-9.2a0.9,0.9,0,0,1,.26-0.65,0.92,0.92,0,0,1,1.29,0,0.9,0.9,0,0,1,.26.65v0.06a3.1,3.1,0,0,1,1-.79,2.88,2.88,0,0,1,1.35-.34A3.43,3.43,0,0,1,71.42,388.69Zm-0.52,5.42a2.95,2.95,0,0,0,0-3.59,2.12,2.12,0,0,0-3.17,0,2.64,2.64,0,0,0-.62,1.79,2.67,2.67,0,0,0,.62,1.8A2.1,2.1,0,0,0,70.9,394.11Z" transform="translate(-34.24 -333.1)"/><path class="cls-1" d="M81.33,388.57a0.9,0.9,0,0,1,.25.65V393a3.48,3.48,0,0,1-.89,2.54,4,4,0,0,1-5.08,0,3.49,3.49,0,0,1-.89-2.54v-3.81a0.9,0.9,0,0,1,.26-0.65,0.92,0.92,0,0,1,1.29,0,0.9,0.9,0,0,1,.26.65V393a2,2,0,0,0,.4,1.36,1.57,1.57,0,0,0,1.21.44,1.59,1.59,0,0,0,1.23-.44,2,2,0,0,0,.41-1.36v-3.81a0.9,0.9,0,0,1,.25-0.65A0.92,0.92,0,0,1,81.33,388.57Zm-3.41-.91a0.4,0.4,0,0,1-.16-0.36,0.56,0.56,0,0,1,.09-0.29l0.87-1.53a1.41,1.41,0,0,1,.36-0.44,0.74,0.74,0,0,1,.46-0.17,0.81,0.81,0,0,1,.61.21,0.7,0.7,0,0,1,.19.54,1.14,1.14,0,0,1-.29.65l-1.14,1.26a0.88,0.88,0,0,1-.67.25A0.54,0.54,0,0,1,77.92,387.66Z" transform="translate(-34.24 -333.1)"/><path class="cls-1" d="M89.57,388.69a3.73,3.73,0,0,1,1.33,1.48,4.61,4.61,0,0,1,.49,2.15,4.71,4.71,0,0,1-.48,2.15,3.69,3.69,0,0,1-1.31,1.48,3.34,3.34,0,0,1-1.84.53,3.22,3.22,0,0,1-1.36-.29,3.59,3.59,0,0,1-1.06-.71v0.09a0.9,0.9,0,0,1-.26.65,0.86,0.86,0,0,1-.64.26,0.87,0.87,0,0,1-.64-0.26,0.89,0.89,0,0,1-.26-0.66v-9.42a0.9,0.9,0,0,1,.26-0.65,0.92,0.92,0,0,1,1.29,0,0.9,0.9,0,0,1,.26.65v3.13a3.1,3.1,0,0,1,1-.79,2.88,2.88,0,0,1,1.35-.34A3.43,3.43,0,0,1,89.57,388.69ZM89,394.11a2.95,2.95,0,0,0,0-3.59,2.12,2.12,0,0,0-3.17,0,2.64,2.64,0,0,0-.62,1.79,2.67,2.67,0,0,0,.62,1.8A2.1,2.1,0,0,0,89,394.11Z" transform="translate(-34.24 -333.1)"/><path class="cls-1" d="M94.57,396.07a0.89,0.89,0,0,1-.65.26,0.84,0.84,0,0,1-.63-0.26,0.9,0.9,0,0,1-.25-0.65v-9.27a0.9,0.9,0,0,1,.92-0.92,0.84,0.84,0,0,1,.63.26,0.9,0.9,0,0,1,.25.65v9.27A0.89,0.89,0,0,1,94.57,396.07Z" transform="translate(-34.24 -333.1)"/><path class="cls-1" d="M97,387.17a0.7,0.7,0,0,1-.21-0.58V386.3a0.68,0.68,0,0,1,.22-0.58,1.69,1.69,0,0,1,1.46,0,0.71,0.71,0,0,1,.21.58v0.29a0.69,0.69,0,0,1-.22.59,1.31,1.31,0,0,1-.74.16A1.19,1.19,0,0,1,97,387.17Zm1.38,8.9a0.92,0.92,0,0,1-1.29,0,0.9,0.9,0,0,1-.25-0.65v-6.2a0.9,0.9,0,0,1,.25-0.65,0.92,0.92,0,0,1,1.29,0,0.9,0.9,0,0,1,.25.65v6.2A0.9,0.9,0,0,1,98.37,396.07Z" transform="translate(-34.24 -333.1)"/><path class="cls-1" d="M106,388.55a1.19,1.19,0,0,1,.78,1.06,0.91,0.91,0,0,1-.19.58,0.62,0.62,0,0,1-.51.25,1,1,0,0,1-.39-0.07,1.39,1.39,0,0,1-.29-0.18,2,2,0,0,0-.28-0.19,1.88,1.88,0,0,0-.44-0.13,2.47,2.47,0,0,0-.47-0.06,2.26,2.26,0,0,0-1.76.7,2.87,2.87,0,0,0,0,3.61,2.12,2.12,0,0,0,1.65.71,2.55,2.55,0,0,0,1.09-.18l0.25-.16a1.73,1.73,0,0,1,.29-0.17,0.81,0.81,0,0,1,.33-0.06,0.76,0.76,0,0,1,.59.24,0.88,0.88,0,0,1,.22.62,0.87,0.87,0,0,1-.42.67,3.26,3.26,0,0,1-1.11.5,5.59,5.59,0,0,1-1.47.19,3.8,3.8,0,0,1-2-.54,3.63,3.63,0,0,1-1.36-1.49,4.64,4.64,0,0,1-.48-2.12,4.53,4.53,0,0,1,.5-2.16,3.7,3.7,0,0,1,1.4-1.48,3.94,3.94,0,0,1,2-.53A4.55,4.55,0,0,1,106,388.55Z" transform="translate(-34.24 -333.1)"/><path class="cls-1" d="M115.34,388.41a0.89,0.89,0,0,1,.25.66v6.34a0.9,0.9,0,0,1-.25.65,0.86,0.86,0,0,1-.65.26,0.85,0.85,0,0,1-.64-0.25,1,1,0,0,1-.26-0.65,3.25,3.25,0,0,1-2.36,1.05,3.43,3.43,0,0,1-1.87-.53,3.73,3.73,0,0,1-1.33-1.48,4.61,4.61,0,0,1-.49-2.14,4.71,4.71,0,0,1,.48-2.15,3.7,3.7,0,0,1,1.31-1.49,3.35,3.35,0,0,1,1.84-.53,3.48,3.48,0,0,1,1.35.26,3.55,3.55,0,0,1,1.07.67h0a0.9,0.9,0,0,1,.25-0.65,0.86,0.86,0,0,1,.64-0.26A0.88,0.88,0,0,1,115.34,388.41Zm-2.08,5.71a2.65,2.65,0,0,0,.61-1.79,2.68,2.68,0,0,0-.61-1.8,2.1,2.1,0,0,0-3.17,0,2.94,2.94,0,0,0,0,3.59,2,2,0,0,0,1.58.71A2,2,0,0,0,113.25,394.12Z" transform="translate(-34.24 -333.1)"/><path class="cls-2" d="M60.27,339.74a2.86,2.86,0,0,0,2.1-1,3,3,0,0,0,.81-2.18,3.07,3.07,0,0,0-.93-2.14,2.78,2.78,0,0,0-2.14-.85,2.86,2.86,0,0,0-2.1,1,3.13,3.13,0,0,0-.85,2.18,2.86,2.86,0,0,0,.93,2.14A2.91,2.91,0,0,0,60.27,339.74Z" transform="translate(-34.24 -333.1)"/><path class="cls-2" d="M70.49,350L66,347.54l-3.64-5.82a3.21,3.21,0,0,0-2.59-1.29,3,3,0,0,0-2,.89l-5.49,5.57a1.78,1.78,0,0,0-.32.73l-0.73,6.22V354a1.38,1.38,0,0,0,1.37,1.37,1.19,1.19,0,0,0,.93-0.4,1.74,1.74,0,0,0,.44-0.89l0.57-5.33,1.94-1.94-1.78,14.86-3.15,7a2.83,2.83,0,0,0-.16.89,2,2,0,0,0,.61,1.49,1.79,1.79,0,0,0,1.49.53,1.87,1.87,0,0,0,1.78-1.13l3.39-7.59a0.92,0.92,0,0,1,.08-0.28q0.08-.2.16-0.36a0.72,0.72,0,0,0,.08-0.32l0.4-3.64,3.47,12a1.91,1.91,0,0,0,2,1.37,1.94,1.94,0,0,0,1.41-.61,2,2,0,0,0,.61-1.49,0.66,0.66,0,0,0,0-.2,0.67,0.67,0,0,1,0-.2L62,352.55l0.57-5.41,1.37,2.18a1.44,1.44,0,0,0,.4.4l4.77,2.67a2.65,2.65,0,0,0,.65.16,1.27,1.27,0,0,0,1-.44,1.46,1.46,0,0,0,.4-1A1.27,1.27,0,0,0,70.49,350Z" transform="translate(-34.24 -333.1)"/><rect class="cls-2" x="0.5" y="40.29" width="84" height="3.67" rx="1.83" ry="1.83"/></svg>