<svg id="Layer_1" data-name="Layer 1" xmlns="http://www.w3.org/2000/svg" viewBox="0 0 42.28 60.84"><defs><style>.cls-1{fill:#7e6bb0;}.cls-2{fill:none;stroke:#7e6bb0;stroke-miterlimit:10;stroke-width:1.12px;}</style></defs><title>Viajar</title><path class="cls-1" d="M192.75,288.81a0.81,0.81,0,0,1,.28.62,1,1,0,0,1-.09.41l-3.71,8.67a1,1,0,0,1-.37.43,0.86,0.86,0,0,1-1,0,0.92,0.92,0,0,1-.34-0.41l-3.71-8.7a0.83,0.83,0,0,1-.08-0.37,0.8,0.8,0,0,1,.3-0.65,1,1,0,0,1,.62-0.25,0.84,0.84,0,0,1,.48.15,1,1,0,0,1,.35.43l3,7.09,2.76-7.09a1,1,0,0,1,.34-0.42,0.86,0.86,0,0,1,.48-0.15A0.93,0.93,0,0,1,192.75,288.81Z" transform="translate(-183.76 -241.18)"/><path class="cls-1" d="M194.51,289.92a0.7,0.7,0,0,1-.21-0.58V289a0.68,0.68,0,0,1,.22-0.58,1.69,1.69,0,0,1,1.46,0,0.71,0.71,0,0,1,.21.58v0.29a0.69,0.69,0,0,1-.22.59,1.31,1.31,0,0,1-.74.16A1.19,1.19,0,0,1,194.51,289.92Zm1.38,8.9a0.92,0.92,0,0,1-1.29,0,0.9,0.9,0,0,1-.25-0.65V292a0.9,0.9,0,0,1,.25-0.65,0.92,0.92,0,0,1,1.29,0,0.9,0.9,0,0,1,.25.65v6.2A0.9,0.9,0,0,1,195.89,298.82Z" transform="translate(-183.76 -241.18)"/><path class="cls-1" d="M205.13,291.16a0.89,0.89,0,0,1,.25.66v6.34a0.9,0.9,0,0,1-.25.65,0.86,0.86,0,0,1-.65.26,0.85,0.85,0,0,1-.64-0.25,1,1,0,0,1-.26-0.65,3.25,3.25,0,0,1-2.36,1.05,3.43,3.43,0,0,1-1.87-.53,3.73,3.73,0,0,1-1.33-1.48,4.61,4.61,0,0,1-.49-2.14,4.71,4.71,0,0,1,.48-2.15,3.7,3.7,0,0,1,1.31-1.49,3.35,3.35,0,0,1,1.84-.53,3.48,3.48,0,0,1,1.35.26,3.55,3.55,0,0,1,1.07.67h0a0.9,0.9,0,0,1,.25-0.65,0.86,0.86,0,0,1,.64-0.26A0.88,0.88,0,0,1,205.13,291.16ZM203,296.87a2.65,2.65,0,0,0,.61-1.79,2.68,2.68,0,0,0-.61-1.8,2.1,2.1,0,0,0-3.17,0,2.94,2.94,0,0,0,0,3.59,2,2,0,0,0,1.58.71A2,2,0,0,0,203,296.87Z" transform="translate(-183.76 -241.18)"/><path class="cls-1" d="M206.3,301.78a0.81,0.81,0,0,1-.24-0.6V301a0.87,0.87,0,0,1,.76-0.82,0.86,0.86,0,0,0,.61-0.5,3,3,0,0,0,.13-1V292a0.9,0.9,0,0,1,.25-0.65,0.92,0.92,0,0,1,1.29,0,0.9,0.9,0,0,1,.25.65v7.26a3.19,3.19,0,0,1-.32,1.47,2.39,2.39,0,0,1-.88,1,2.35,2.35,0,0,1-1.25.35A0.81,0.81,0,0,1,206.3,301.78Zm1.41-11.87a0.71,0.71,0,0,1-.21-0.58V289a0.68,0.68,0,0,1,.23-0.58,1.69,1.69,0,0,1,1.46,0,0.71,0.71,0,0,1,.21.58v0.29a0.69,0.69,0,0,1-.22.59,1.32,1.32,0,0,1-.74.16A1.19,1.19,0,0,1,207.71,289.92Z" transform="translate(-183.76 -241.18)"/><path class="cls-1" d="M218.6,291.16a0.89,0.89,0,0,1,.25.66v6.34a0.9,0.9,0,0,1-.25.65,0.86,0.86,0,0,1-.65.26,0.85,0.85,0,0,1-.64-0.25,1,1,0,0,1-.26-0.65,3.25,3.25,0,0,1-2.36,1.05,3.43,3.43,0,0,1-1.87-.53,3.73,3.73,0,0,1-1.33-1.48,4.61,4.61,0,0,1-.49-2.14,4.71,4.71,0,0,1,.48-2.15,3.7,3.7,0,0,1,1.31-1.49,3.35,3.35,0,0,1,1.84-.53,3.48,3.48,0,0,1,1.35.26,3.55,3.55,0,0,1,1.07.67h0a0.9,0.9,0,0,1,.25-0.65,0.86,0.86,0,0,1,.64-0.26A0.88,0.88,0,0,1,218.6,291.16Zm-2.08,5.71a2.65,2.65,0,0,0,.61-1.79,2.68,2.68,0,0,0-.61-1.8,2.1,2.1,0,0,0-3.17,0,2.94,2.94,0,0,0,0,3.59,2,2,0,0,0,1.58.71A2,2,0,0,0,216.52,296.87Z" transform="translate(-183.76 -241.18)"/><path class="cls-1" d="M225.73,291.16a0.76,0.76,0,0,1,.31.6,0.93,0.93,0,0,1-.24.7,0.79,0.79,0,0,1-.57.23,1.49,1.49,0,0,1-.51-0.11l-0.2-.06a1.22,1.22,0,0,0-.34,0,1.34,1.34,0,0,0-.75.24,1.76,1.76,0,0,0-.59.73,2.68,2.68,0,0,0-.23,1.16v3.55a0.9,0.9,0,0,1-.26.65,0.92,0.92,0,0,1-1.29,0,0.9,0.9,0,0,1-.26-0.65V292a0.9,0.9,0,0,1,.26-0.65,0.92,0.92,0,0,1,1.29,0,0.9,0.9,0,0,1,.26.65v0.2a2.27,2.27,0,0,1,1-.94,3,3,0,0,1,1.38-.32A1.15,1.15,0,0,1,225.73,291.16Z" transform="translate(-183.76 -241.18)"/><path class="cls-2" d="M194.65,277.5c-0.22.78-.38,1.42-0.59,2.06a1.9,1.9,0,0,0,.41,2c0.45,0.51.88,1.06,1.35,1.63a9.84,9.84,0,0,1-2,.13,2,2,0,0,0-1.88,1.06c-0.33.58-.71,1.13-1.12,1.78-0.27-.72-0.53-1.36-0.75-2a1.93,1.93,0,0,0-1.54-1.37c-0.65-.14-1.29-0.33-2.05-0.53,0.6-.48,1.09-0.91,1.63-1.29a2,2,0,0,0,.87-2c-0.08-.63-0.09-1.26-0.13-2,0.63,0.42,1.19.77,1.72,1.16a1.93,1.93,0,0,0,2.09.24C193.28,278,193.91,277.79,194.65,277.5Z" transform="translate(-183.76 -241.18)"/><path class="cls-2" d="M218.75,286.13c-0.38-.59-0.74-1.08-1-1.6a2.15,2.15,0,0,0-2.16-1.24,7.4,7.4,0,0,1-1.84-.11c0.47-.57.89-1.12,1.35-1.63a1.91,1.91,0,0,0,.41-2c-0.21-.63-0.36-1.28-0.57-2,0.69,0.27,1.29.47,1.85,0.73a2,2,0,0,0,2.29-.23c0.5-.38,1-0.7,1.66-1.1,0,0.72-.06,1.35-0.14,2a2,2,0,0,0,.88,2.08c0.53,0.38,1,.8,1.62,1.28-0.73.19-1.37,0.39-2,.52a2,2,0,0,0-1.6,1.44C219.26,284.81,219,285.44,218.75,286.13Z" transform="translate(-183.76 -241.18)"/><path class="cls-2" d="M204.94,241.74A17,17,0,0,1,221.4,255a16.53,16.53,0,0,1-3.31,14.45,16.76,16.76,0,0,1-9.38,6c-1.62.4-1.62,0.41-2.37-1.07a1.66,1.66,0,0,0-3.11,0l-0.12.25c-0.56,1.16-.58,1.2-1.84.89-6.89-1.7-11.4-5.95-13.06-12.86a16.24,16.24,0,0,1,4.52-15.87A16.66,16.66,0,0,1,204.94,241.74Zm5.69,14.21c-0.75-.4-1.5-0.82-2.27-1.17a0.75,0.75,0,0,1-.49-0.84q0-1.66,0-3.33a11.15,11.15,0,0,0-1.32-5.55,1.91,1.91,0,0,0-3.54,0,9.39,9.39,0,0,0-1.13,3.33,36.66,36.66,0,0,0-.17,5.61,0.72,0.72,0,0,1-.46.75c-2.81,1.44-5.6,2.91-8.4,4.37-2,1.06-2.1,1.17-2,3.47a1.6,1.6,0,0,0,1.49,1.53,3,3,0,0,0,1.12-.17c2.58-.75,5.16-1.48,7.73-2.25,0.46-.14.55,0,0.55,0.41a19.52,19.52,0,0,0,.2,2.5c0.12,1,.12,1-0.85,1.24l-0.58.16a3,3,0,0,0-2.06,2.68,1.3,1.3,0,0,0,1.62,1.51c0.7-.08,1.41-0.16,2.11-0.27a0.5,0.5,0,0,1,.67.34,2,2,0,0,0,3.82,0,0.5,0.5,0,0,1,.67-0.34c0.72,0.11,1.44.2,2.16,0.28a1.29,1.29,0,0,0,1.59-1.24,2.64,2.64,0,0,0-1.87-2.85c-0.47-.15-0.94-0.28-1.41-0.4a0.35,0.35,0,0,1-.3-0.46,28.25,28.25,0,0,0,.27-3.2c0-.42.13-0.46,0.51-0.35,2.45,0.73,4.91,1.43,7.37,2.14a6.69,6.69,0,0,0,1.22.28,1.6,1.6,0,0,0,1.8-1.65c0-.4,0-0.8,0-1.2a1.64,1.64,0,0,0-1-1.62l-3.52-1.84Z" transform="translate(-183.76 -241.18)"/><path class="cls-2" d="M209.5,278.36c-0.54.53-1,1-1.47,1.43a2,2,0,0,0-.69,2.1c0.14,0.63.23,1.28,0.36,2-0.69-.36-1.3-0.65-1.89-1a1.91,1.91,0,0,0-2.06,0c-0.58.33-1.18,0.62-1.88,1,0.11-.67.17-1.25,0.31-1.81a2.18,2.18,0,0,0-.77-2.43c-0.46-.37-0.86-0.82-1.38-1.32,0.77-.12,1.41-0.24,2.05-0.3a2,2,0,0,0,1.76-1.25c0.28-.61.6-1.2,0.94-1.88,0.33,0.67.65,1.27,0.93,1.88a2,2,0,0,0,1.76,1.25C208.12,278.13,208.76,278.25,209.5,278.36Z" transform="translate(-183.76 -241.18)"/></svg>