<svg id="Layer_1" data-name="Layer 1" xmlns="http://www.w3.org/2000/svg" viewBox="0 0 76.71 72"><defs><style>.cls-1{fill:#7e6bb0;}.cls-2,.cls-3{fill:none;stroke:#7e6bb0;stroke-miterlimit:10;}.cls-2{stroke-width:0.25px;}</style></defs><title>Zonas deportivas</title><path class="cls-1" d="M415.22,386l-5.7,7.32h4.79a0.94,0.94,0,0,1,.66.23,0.8,0.8,0,0,1,.25.62,0.82,0.82,0,0,1-.26.62,0.91,0.91,0,0,1-.65.25h-6.58a1,1,0,0,1-.68-0.27,0.83,0.83,0,0,1-.28-0.62,1,1,0,0,1,.21-0.57l5.68-7.32h-4.33a0.92,0.92,0,0,1-.66-0.24,0.83,0.83,0,0,1-.25-0.63,0.8,0.8,0,0,1,.26-0.62,0.93,0.93,0,0,1,.65-0.24h6.13a1,1,0,0,1,.67.25,0.79,0.79,0,0,1,.31.63A1,1,0,0,1,415.22,386Z" transform="translate(-390.06 -344.02)"/><path class="cls-1" d="M424,393.16a3.81,3.81,0,0,1-1.48,1.48,4.33,4.33,0,0,1-4.13,0,3.82,3.82,0,0,1-1.47-1.48,4.56,4.56,0,0,1,0-4.3,3.88,3.88,0,0,1,1.47-1.49,4.28,4.28,0,0,1,4.13,0,3.87,3.87,0,0,1,1.48,1.49A4.56,4.56,0,0,1,424,393.16Zm-1.57-3.46a2.26,2.26,0,0,0-.82-0.89,2.25,2.25,0,0,0-2.3,0,2.26,2.26,0,0,0-.82.89,2.75,2.75,0,0,0-.31,1.31,2.7,2.7,0,0,0,.31,1.3,2.27,2.27,0,0,0,.82.88,2.25,2.25,0,0,0,2.3,0,2.28,2.28,0,0,0,.82-0.88,2.7,2.7,0,0,0,.31-1.3A2.75,2.75,0,0,0,422.46,389.7Z" transform="translate(-390.06 -344.02)"/><path class="cls-1" d="M432.47,387.75a4.62,4.62,0,0,1,.58,2.51v3.84a0.9,0.9,0,0,1-.25.65,0.92,0.92,0,0,1-1.29,0,0.9,0.9,0,0,1-.25-0.65v-3.84a2.17,2.17,0,0,0-.34-1.3,1.37,1.37,0,0,0-1.19-.47,1.83,1.83,0,0,0-1.37.5,1.74,1.74,0,0,0-.49,1.27v3.84a0.9,0.9,0,0,1-.26.65,0.92,0.92,0,0,1-1.29,0,0.9,0.9,0,0,1-.26-0.65v-6.2a0.9,0.9,0,0,1,.26-0.65,0.92,0.92,0,0,1,1.29,0,0.9,0.9,0,0,1,.26.65v0.25a3.64,3.64,0,0,1,1.06-.93,2.75,2.75,0,0,1,1.43-.39A2.32,2.32,0,0,1,432.47,387.75Z" transform="translate(-390.06 -344.02)"/><path class="cls-1" d="M442.14,387.09a0.89,0.89,0,0,1,.25.66v6.34a0.9,0.9,0,0,1-.25.65,0.86,0.86,0,0,1-.65.26,0.85,0.85,0,0,1-.64-0.25,1,1,0,0,1-.26-0.65,3.25,3.25,0,0,1-2.36,1.05,3.43,3.43,0,0,1-1.87-.53,3.73,3.73,0,0,1-1.33-1.48,4.61,4.61,0,0,1-.49-2.14,4.71,4.71,0,0,1,.48-2.15,3.7,3.7,0,0,1,1.31-1.49,3.35,3.35,0,0,1,1.84-.53,3.48,3.48,0,0,1,1.35.26,3.55,3.55,0,0,1,1.07.67h0a0.9,0.9,0,0,1,.25-0.65,0.86,0.86,0,0,1,.64-0.26A0.88,0.88,0,0,1,442.14,387.09Zm-2.08,5.71a2.65,2.65,0,0,0,.61-1.79,2.68,2.68,0,0,0-.61-1.8,2.1,2.1,0,0,0-3.17,0,2.94,2.94,0,0,0,0,3.59,2,2,0,0,0,1.58.71A2,2,0,0,0,440.06,392.8Z" transform="translate(-390.06 -344.02)"/><path class="cls-1" d="M443.75,393.32a0.85,0.85,0,0,1,.83-0.79,0.85,0.85,0,0,1,.6.29,3.16,3.16,0,0,0,.94.69,2.81,2.81,0,0,0,1.18.22q1.17,0,1.17-.88a0.72,0.72,0,0,0-.4-0.66,5.61,5.61,0,0,0-1.24-.45,10.75,10.75,0,0,1-1.42-.48,2.5,2.5,0,0,1-.94-0.73,2,2,0,0,1-.4-1.31,2,2,0,0,1,.41-1.25,2.72,2.72,0,0,1,1.08-.83,3.5,3.5,0,0,1,1.42-.29,4.34,4.34,0,0,1,1.53.29,2.66,2.66,0,0,1,1.2.84,0.84,0.84,0,0,1,.2.54,0.7,0.7,0,0,1-.29.57,0.75,0.75,0,0,1-.48.17,0.73,0.73,0,0,1-.54-0.21,1.9,1.9,0,0,0-.7-0.52,2.31,2.31,0,0,0-1-.2q-1.14,0-1.14.83a0.7,0.7,0,0,0,.21.53,1.44,1.44,0,0,0,.53.32l0.91,0.28a9.83,9.83,0,0,1,1.35.46,2.32,2.32,0,0,1,.92.74,2.1,2.1,0,0,1,.38,1.3,2,2,0,0,1-.44,1.28,2.76,2.76,0,0,1-1.12.83,3.61,3.61,0,0,1-1.4.29,5.08,5.08,0,0,1-1.84-.33,3.06,3.06,0,0,1-1.4-1.07A0.73,0.73,0,0,1,443.75,393.32Z" transform="translate(-390.06 -344.02)"/><path class="cls-1" d="M397.65,402.17a0.89,0.89,0,0,1,.25.66v9.27a0.9,0.9,0,0,1-.25.65,0.86,0.86,0,0,1-.65.26,0.85,0.85,0,0,1-.64-0.25,1,1,0,0,1-.26-0.65,3.25,3.25,0,0,1-2.36,1.05,3.43,3.43,0,0,1-1.87-.53,3.73,3.73,0,0,1-1.33-1.48,4.61,4.61,0,0,1-.49-2.14,4.71,4.71,0,0,1,.48-2.15,3.7,3.7,0,0,1,1.31-1.49,3.35,3.35,0,0,1,1.84-.53,3.48,3.48,0,0,1,1.35.26,3.55,3.55,0,0,1,1.07.67v-2.94a0.9,0.9,0,0,1,.25-0.65,0.86,0.86,0,0,1,.64-0.26A0.88,0.88,0,0,1,397.65,402.17Zm-2.08,8.63a2.65,2.65,0,0,0,.61-1.79,2.68,2.68,0,0,0-.61-1.8,2.1,2.1,0,0,0-3.17,0,2.94,2.94,0,0,0,0,3.59,2,2,0,0,0,1.58.71A2,2,0,0,0,395.57,410.8Z" transform="translate(-390.06 -344.02)"/><path class="cls-1" d="M406.77,409.4a1,1,0,0,1-.63.23h-5A2.26,2.26,0,0,0,402,411a2.3,2.3,0,0,0,1.46.5,3.22,3.22,0,0,0,1-.11,2.5,2.5,0,0,0,.55-0.24l0.28-.17a1.14,1.14,0,0,1,.51-0.13,0.73,0.73,0,0,1,.54.23,0.72,0.72,0,0,1,.23.52,0.94,0.94,0,0,1-.42.74,3.6,3.6,0,0,1-1.12.58,4.65,4.65,0,0,1-3.62-.29,3.66,3.66,0,0,1-1.45-1.45,4.22,4.22,0,0,1-.51-2.08,4.6,4.6,0,0,1,.54-2.26,3.82,3.82,0,0,1,1.42-1.49,3.68,3.68,0,0,1,1.89-.52,3.5,3.5,0,0,1,1.87.54,4,4,0,0,1,1.4,1.46,3.91,3.91,0,0,1,.52,2A0.77,0.77,0,0,1,406.77,409.4Zm-5.56-1.27h3.93V408a1.55,1.55,0,0,0-.62-1.08,2,2,0,0,0-1.26-.45A1.86,1.86,0,0,0,401.21,408.12Z" transform="translate(-390.06 -344.02)"/><path class="cls-1" d="M414.59,405.37a3.73,3.73,0,0,1,1.33,1.48,4.61,4.61,0,0,1,.49,2.15,4.71,4.71,0,0,1-.48,2.15,3.69,3.69,0,0,1-1.31,1.48,3.34,3.34,0,0,1-1.84.53,3.22,3.22,0,0,1-1.36-.29,3.59,3.59,0,0,1-1.06-.71v2.94a0.9,0.9,0,0,1-.26.65,0.86,0.86,0,0,1-.64.26,0.87,0.87,0,0,1-.64-0.25,0.89,0.89,0,0,1-.26-0.66v-9.2a0.9,0.9,0,0,1,.26-0.65,0.92,0.92,0,0,1,1.29,0,0.9,0.9,0,0,1,.26.65V406a3.1,3.1,0,0,1,1-.79,2.88,2.88,0,0,1,1.35-.34A3.43,3.43,0,0,1,414.59,405.37Zm-0.52,5.42a2.95,2.95,0,0,0,0-3.59,2.12,2.12,0,0,0-3.17,0,2.64,2.64,0,0,0-.62,1.79,2.67,2.67,0,0,0,.62,1.8A2.1,2.1,0,0,0,414.06,410.79Z" transform="translate(-390.06 -344.02)"/><path class="cls-1" d="M425.07,411.16a3.81,3.81,0,0,1-1.48,1.48,4.33,4.33,0,0,1-4.13,0,3.82,3.82,0,0,1-1.47-1.48,4.56,4.56,0,0,1,0-4.3,3.88,3.88,0,0,1,1.47-1.49,4.28,4.28,0,0,1,4.13,0,3.87,3.87,0,0,1,1.48,1.49A4.56,4.56,0,0,1,425.07,411.16Zm-1.57-3.46a2.26,2.26,0,0,0-.82-0.89,2.25,2.25,0,0,0-2.3,0,2.26,2.26,0,0,0-.82.89,2.75,2.75,0,0,0-.31,1.31,2.7,2.7,0,0,0,.31,1.3,2.27,2.27,0,0,0,.82.88,2.25,2.25,0,0,0,2.3,0,2.28,2.28,0,0,0,.82-0.88,2.7,2.7,0,0,0,.31-1.3A2.75,2.75,0,0,0,423.51,407.7Z" transform="translate(-390.06 -344.02)"/><path class="cls-1" d="M432,405.09a0.76,0.76,0,0,1,.31.6,0.93,0.93,0,0,1-.24.7,0.79,0.79,0,0,1-.57.23,1.49,1.49,0,0,1-.51-0.11l-0.2-.06a1.22,1.22,0,0,0-.34,0,1.34,1.34,0,0,0-.75.24,1.76,1.76,0,0,0-.59.73,2.68,2.68,0,0,0-.23,1.16v3.55a0.9,0.9,0,0,1-.26.65,0.92,0.92,0,0,1-1.29,0,0.9,0.9,0,0,1-.26-0.65v-6.2a0.9,0.9,0,0,1,.26-0.65,0.92,0.92,0,0,1,1.29,0,0.9,0.9,0,0,1,.26.65v0.2a2.27,2.27,0,0,1,1-.94,3,3,0,0,1,1.38-.32A1.15,1.15,0,0,1,432,405.09Z" transform="translate(-390.06 -344.02)"/><path class="cls-1" d="M437.88,411.52a0.79,0.79,0,0,1,.17.53,0.8,0.8,0,0,1-.44.68,1.84,1.84,0,0,1-1,.28,2.91,2.91,0,0,1-1.57-.4,1.85,1.85,0,0,1-.64-1.69v-4.14h-0.69a0.82,0.82,0,0,1-.84-0.84,0.77,0.77,0,0,1,.24-0.58,0.83,0.83,0,0,1,.6-0.23h0.69v-1a0.9,0.9,0,0,1,.92-0.92,0.84,0.84,0,0,1,.63.26,0.9,0.9,0,0,1,.25.65v1h1.07a0.82,0.82,0,0,1,.84.84,0.77,0.77,0,0,1-.24.58,0.83,0.83,0,0,1-.6.23H436.2v4.06a0.58,0.58,0,0,0,.17.46,0.67,0.67,0,0,0,.45.14,1.3,1.3,0,0,0,.33-0.06,0.9,0.9,0,0,1,.34-0.08A0.5,0.5,0,0,1,437.88,411.52Z" transform="translate(-390.06 -344.02)"/><path class="cls-1" d="M439.82,403.85a0.7,0.7,0,0,1-.21-0.58V403a0.68,0.68,0,0,1,.22-0.58,1.69,1.69,0,0,1,1.46,0,0.71,0.71,0,0,1,.21.58v0.29a0.69,0.69,0,0,1-.22.59,1.31,1.31,0,0,1-.74.16A1.19,1.19,0,0,1,439.82,403.85Zm1.38,8.9a0.92,0.92,0,0,1-1.29,0,0.9,0.9,0,0,1-.25-0.65v-6.2a0.9,0.9,0,0,1,.25-0.65,0.92,0.92,0,0,1,1.29,0,0.9,0.9,0,0,1,.25.65v6.2A0.9,0.9,0,0,1,441.2,412.75Z" transform="translate(-390.06 -344.02)"/><path class="cls-1" d="M450.06,405.24a0.78,0.78,0,0,1,.24.58,1.18,1.18,0,0,1-.12.45l-2.81,6.18a0.92,0.92,0,0,1-.31.41,0.83,0.83,0,0,1-.46.17h-0.13a0.78,0.78,0,0,1-.47-0.16,1,1,0,0,1-.34-0.43l-2.79-6.18a1.2,1.2,0,0,1-.1-0.48,0.75,0.75,0,0,1,.25-0.55,0.87,0.87,0,0,1,.63-0.25,1,1,0,0,1,.53.15,0.93,0.93,0,0,1,.36.42l2.07,4.74,2.05-4.73a1,1,0,0,1,.33-0.43,0.71,0.71,0,0,1,.46-0.13A0.83,0.83,0,0,1,450.06,405.24Z" transform="translate(-390.06 -344.02)"/><path class="cls-1" d="M458.84,405.09a0.89,0.89,0,0,1,.25.66v6.34a0.9,0.9,0,0,1-.25.65,0.86,0.86,0,0,1-.65.26,0.85,0.85,0,0,1-.64-0.25,1,1,0,0,1-.26-0.65,3.25,3.25,0,0,1-2.36,1.05,3.43,3.43,0,0,1-1.87-.53,3.73,3.73,0,0,1-1.33-1.48,4.61,4.61,0,0,1-.49-2.14,4.71,4.71,0,0,1,.48-2.15,3.7,3.7,0,0,1,1.31-1.49,3.35,3.35,0,0,1,1.84-.53,3.48,3.48,0,0,1,1.35.26,3.55,3.55,0,0,1,1.07.67h0a0.9,0.9,0,0,1,.25-0.65,0.86,0.86,0,0,1,.64-0.26A0.88,0.88,0,0,1,458.84,405.09Zm-2.08,5.71a2.65,2.65,0,0,0,.61-1.79,2.68,2.68,0,0,0-.61-1.8,2.1,2.1,0,0,0-3.17,0,2.94,2.94,0,0,0,0,3.59,2,2,0,0,0,1.58.71A2,2,0,0,0,456.75,410.8Z" transform="translate(-390.06 -344.02)"/><path class="cls-1" d="M460.44,411.32a0.85,0.85,0,0,1,.83-0.79,0.85,0.85,0,0,1,.6.29,3.16,3.16,0,0,0,.94.69,2.81,2.81,0,0,0,1.18.22q1.17,0,1.17-.88a0.72,0.72,0,0,0-.4-0.66,5.61,5.61,0,0,0-1.24-.45,10.75,10.75,0,0,1-1.42-.48,2.5,2.5,0,0,1-.94-0.73,2,2,0,0,1-.4-1.31,2,2,0,0,1,.41-1.25,2.72,2.72,0,0,1,1.08-.83,3.5,3.5,0,0,1,1.42-.29,4.34,4.34,0,0,1,1.53.29,2.66,2.66,0,0,1,1.2.84,0.84,0.84,0,0,1,.2.54,0.7,0.7,0,0,1-.29.57,0.75,0.75,0,0,1-.48.17,0.73,0.73,0,0,1-.54-0.21,1.9,1.9,0,0,0-.7-0.52,2.31,2.31,0,0,0-1-.2q-1.14,0-1.14.83a0.7,0.7,0,0,0,.21.53,1.44,1.44,0,0,0,.53.32l0.91,0.28a9.83,9.83,0,0,1,1.35.46,2.32,2.32,0,0,1,.92.74,2.1,2.1,0,0,1,.38,1.3,2,2,0,0,1-.44,1.28,2.76,2.76,0,0,1-1.12.83,3.61,3.61,0,0,1-1.4.29,5.08,5.08,0,0,1-1.84-.33,3.06,3.06,0,0,1-1.4-1.07A0.73,0.73,0,0,1,460.44,411.32Z" transform="translate(-390.06 -344.02)"/><path class="cls-2" d="M447.09,344.14h-3.83a0.7,0.7,0,0,0,0,1.41h3.83a3.93,3.93,0,0,1,3.92,3.92v0.75h-6.84a2.11,2.11,0,0,0-2.11,2.11v1.77a6.28,6.28,0,0,0,0,12.19v1.77a2.11,2.11,0,0,0,2.11,2.11H451v0.75a3.93,3.93,0,0,1-3.92,3.92H430.53V367a7.13,7.13,0,0,0,0-13.62v-7.83h9.75a0.7,0.7,0,0,0,0-1.41H409.75a5.34,5.34,0,0,0-5.33,5.33v21.44a5.34,5.34,0,0,0,5.33,5.33H412a0.7,0.7,0,0,0,0-1.41h-2.28a3.93,3.93,0,0,1-3.92-3.92v-0.75h6.84a2.11,2.11,0,0,0,2.11-2.11v-1.77a6.28,6.28,0,0,0,0-12.19v-1.77a2.11,2.11,0,0,0-2.11-2.11h-6.84v-0.75a3.93,3.93,0,0,1,3.92-3.92h16.56v7.83a7.13,7.13,0,0,0,0,13.62v7.83H415.06a0.7,0.7,0,0,0,0,1.41h32a5.34,5.34,0,0,0,5.33-5.33V349.47A5.34,5.34,0,0,0,447.09,344.14Zm-41.26,12.73h1.44a0.67,0.67,0,0,1,.7.63v5.39a0.67,0.67,0,0,1-.7.63h-1.44v-6.64Zm0,8h1.44a2.07,2.07,0,0,0,2.11-2V357.5a2.07,2.07,0,0,0-2.11-2h-1.44v-1h4.73v11.51h-4.73v-1Zm8.95-6.11a2.07,2.07,0,0,1,0,2.77V358.8Zm3.35,1.39a4.91,4.91,0,0,1-3.35,4.63V363.3a3.47,3.47,0,0,0,0-6.23v-1.51A4.91,4.91,0,0,1,418.12,360.19Zm-5.46-8.57a0.7,0.7,0,0,1,.7.7v15.72a0.7,0.7,0,0,1-.7.7h-6.84v-1.41h5.43a0.7,0.7,0,0,0,.7-0.7V353.73a0.7,0.7,0,0,0-.7-0.7h-5.43v-1.41h6.84Zm15.05-6.08h1.41v7.55c-0.23,0-1.17,0-1.41,0v-7.55Zm-5,14.64a5.72,5.72,0,1,1,5.72,5.72A5.73,5.73,0,0,1,422.7,360.19Zm5,7.09c0.23,0,1.17,0,1.41,0v7.55h-1.41v-7.55Zm23.3-3.77h-1.44a0.67,0.67,0,0,1-.7-0.63V357.5a0.67,0.67,0,0,1,.7-0.63H451v6.64Zm-1.44-8a2.07,2.07,0,0,0-2.11,2v5.39a2.07,2.07,0,0,0,2.11,2H451v1h-4.73V354.44H451v1h-1.44Zm-7.51,6.11a2.07,2.07,0,0,1,0-2.77v2.77Zm-3.35-1.39a4.91,4.91,0,0,1,3.35-4.63v1.51a3.47,3.47,0,0,0,0,6.23v1.51A4.91,4.91,0,0,1,438.72,360.19Zm5.46,8.56a0.7,0.7,0,0,1-.7-0.7V352.33a0.7,0.7,0,0,1,.7-0.7H451V353h-5.43a0.7,0.7,0,0,0-.7.7v12.91a0.7,0.7,0,0,0,.7.7H451v1.41h-6.84Z" transform="translate(-390.06 -344.02)"/><path class="cls-3" d="M432.73,360.19a4.31,4.31,0,1,0-4.31,4.31A4.32,4.32,0,0,0,432.73,360.19Zm-7.22,0a2.91,2.91,0,1,1,2.91,2.91A2.91,2.91,0,0,1,425.51,360.19Z" transform="translate(-390.06 -344.02)"/><path class="cls-3" d="M430.53,360.19a2.11,2.11,0,1,0-2.11,2.11A2.11,2.11,0,0,0,430.53,360.19Zm-2.81,0a0.7,0.7,0,1,1,.7.7A0.7,0.7,0,0,1,427.71,360.19Z" transform="translate(-390.06 -344.02)"/></svg>