<svg id="Layer_1" data-name="Layer 1" xmlns="http://www.w3.org/2000/svg" xmlns:xlink="http://www.w3.org/1999/xlink" viewBox="0 0 340.63 330.93"><defs><style>.cls-1{fill:none;}.cls-2,.cls-29{fill:#d76ba4;}.cls-3{fill:#cbc5dd;}.cls-4{fill:#5c4d8c;}.cls-13,.cls-15,.cls-16,.cls-29,.cls-31,.cls-4,.cls-6{fill-rule:evenodd;}.cls-5{fill:#fcd380;}.cls-6,.cls-7{fill:#f7bb63;}.cls-8{fill:#eb619e;}.cls-9{fill:#e3589a;}.cls-10{fill:#eb91bc;}.cls-11{fill:#e24d94;}.cls-12{fill:#fff;}.cls-13{fill:#f6b247;}.cls-14{fill:#29233f;}.cls-15{fill:#6d59a2;}.cls-16{fill:#7867aa;}.cls-17{fill:#ff7701;}.cls-18{fill:#ef67a5;}.cls-19{fill:#d75ea2;}.cls-20{fill:#fdce80;}.cls-21{fill:#e1ba79;}.cls-22{clip-path:url(#clip-path);}.cls-23{fill:#b9b9b9;}.cls-24{clip-path:url(#clip-path-2);}.cls-25{clip-path:url(#clip-path-3);}.cls-26{clip-path:url(#clip-path-4);}.cls-27{fill:#7362aa;}.cls-28{fill:#6960a9;}.cls-30{fill:#282828;}.cls-31{fill:#3d3d3d;}.cls-32{fill:#53c6de;}.cls-33{fill:#1da5b7;}.cls-34{fill:#4ca2ae;}</style><clipPath id="clip-path" transform="translate(0 31.93)"><path class="cls-1" d="M107.49,134.23c3,.58,5.47,2.83,7.54,5.25a56.65,56.65,0,0,1,7.84,12.46c2,4.3,3.73,8.8,5.4,13.3q3.29,8.89,6.53,17.8a106.59,106.59,0,0,1,3.65,11.33c1,4.18,3,9.78,1.46,13.79s-7.2,6-11,4.78c-3.28-1.11-5.09-4.85-6.57-8.25L105.21,165c-1.22-2.81-6.16-14.13-6.89-17.14C96.69,141.28,98.39,132.47,107.49,134.23Z"/></clipPath><clipPath id="clip-path-2" transform="translate(0 31.93)"><path class="cls-1" d="M30.23,262.31c.07,1,.14,2,.23,3.16.51.1,1,.15,1.53.24a34,34,0,0,0,11.65-2c1-11.79,2.75-24.5,3.8-42.13.2-3.35,1-16.87.8-20.33-.52-7.62-4.29-16.9-11.07-12.94-2.23,1.3-3.59,4.32-4.57,7.44-1.5,4.75-1.85,10-2.33,15.43-.46,5.17-.59,10.49-.69,15.8-.13,7,.18,16.39.18,18.52C29.76,249.86,29.92,257.85,30.23,262.31Z"/></clipPath><clipPath id="clip-path-3" transform="translate(0 31.93)"><path class="cls-1" d="M64.89,134c-3,.58-5.47,2.83-7.54,5.25a56.65,56.65,0,0,0-7.84,12.46c-2,4.3-3.73,8.8-5.4,13.3q-3.29,8.89-6.53,17.8A106.59,106.59,0,0,0,34,194.13c-1,4.18-3,9.78-1.46,13.79s7.2,6,11,4.78c3.28-1.11,5.09-4.85,6.57-8.25L67.17,164.8c1.22-2.81,6.16-14.13,6.89-17.14C75.69,141,74,132.24,64.89,134Z"/></clipPath><clipPath id="clip-path-4" transform="translate(0 31.93)"><path class="cls-1" d="M120.35,259.83c.38-1,.26-16.23.31-17.39.31-6.86.11-22.31.08-37.34,0-12.66-.16-34.53-.57-42-.39-6.93.13-14-.47-15.86-.29-.88-3.19-6-5.88-7.3a27.94,27.94,0,0,0-6.35-2.53c-2.45-.45-5.17-1.59-9.53-2.28-1.17,4.35-9.69,5.84-13.08,6-3.32-.15-11.2-2.41-11.56-5.88-2.06.57-4.57,1.72-7,2.17A30.62,30.62,0,0,0,59.82,140c-2.63,1.33-5.48,6.42-5.76,7.3-.58,1.82-.08,8.93-.46,15.86-.41,7.44,1.47,34.94,1.25,47.6-.15,8.86.27,22,0,30.64,0,1.16-.27,16.9.11,17.88s3.19,2.38,4.87,3.05a100.18,100.18,0,0,0,27.93,4.13C103.62,266.56,120.35,259.83,120.35,259.83Z"/></clipPath></defs><title>colectivo</title><path class="cls-2" d="M301-28.76q.07-1,.14-2.05c-.06-.37-.13-.75-.2-1.12q0,1.07,0,2.13C301-29.45,301-29.11,301-28.76Z" transform="translate(0 31.93)"/><circle class="cls-3" cx="165.52" cy="161.93" r="130"/><path class="cls-4" d="M235.22,218c-17.6,0-32-30.42-32-67.71s14.36-67.71,32-67.71,32,30.42,32,67.71S252.82,218,235.22,218Z" transform="translate(0 31.93)"/><path class="cls-5" d="M222.17,243h20.35a29.83,29.83,0,0,0-20.35,0Z" transform="translate(0 31.93)"/><path class="cls-5" d="M262.09,145.36c2.91.6,5.33,2.95,7.34,5.48a59.76,59.76,0,0,1,7.63,13c2,4.49,3.63,9.18,5.25,13.88q3.2,9.27,6.35,18.58a116.81,116.81,0,0,1,3.54,11.82c1,4.36,2.92,10.21,1.41,14.39s-7,6.32-10.69,5c-3.2-1.16-5-5.06-6.39-8.61l-16.69-41.37c-1.18-2.93-6-14.74-6.71-17.89C251.55,152.73,253.22,143.53,262.09,145.36Z" transform="translate(0 31.93)"/><path class="cls-5" d="M329.73,169.19c.25.16.7,0,1.39-1.1s.08-1.66.25-1.88c4.33-5.74,6.32-10.25,8.63-17.12.52-1.56,1-3.32.29-4.79-.35-.75-.57-2.82-1.18-3.36-1.49-1.32-3.76-1.15-5.67-.64a5.58,5.58,0,0,0-3.1,2.86c-.72,1.27-1.25,3.72-2,4.94-.68,1-1.48,2.5-1.85,2.55s.78-2.81-.19-3.2-1.64,1.08-2.06,2c-1.31,3-1,7.68-2.29,10.69-1.2,2.76-1.37,1.49.28,3.09A54.2,54.2,0,0,0,329.73,169.19Z" transform="translate(0 31.93)"/><path class="cls-5" d="M286.21,229.55c2.44.08,5-1.61,7.29-3.57,3.49-3,6.3-7,9.26-11,2.84-3.83,5.49-7.95,8.1-12.06,3.44-5.42,7.67-13,8.69-14.63,2.09-3.44,5.76-9.79,7.63-13.45,2-3.95,5.27-10,5.58-14.35a4.13,4.13,0,0,0-4-4.27c-2.82.28-9,7-11.2,10-6.54,9-14.26,18.3-23.82,32.05-1.76,2.53-8.89,12.73-10.35,15.57C280.13,220.13,278.78,229.29,286.21,229.55Z" transform="translate(0 31.93)"/><path class="cls-6" d="M281.52,192.89s5.13,13.07,1.81,21l7.39-11.3-3.64-11Z" transform="translate(0 31.93)"/><path class="cls-6" d="M199.88,194.69s-9.74,27.31-13,29.68Z" transform="translate(0 31.93)"/><path class="cls-5" d="M205.06,143.77c-2.87.6-5.25,2.94-7.23,5.47a59.76,59.76,0,0,0-7.5,13c-2,4.48-3.57,9.18-5.16,13.87q-3.14,9.27-6.23,18.57a117.84,117.84,0,0,0-3.48,11.82c-1,4.36-2.86,10.2-1.37,14.39s6.93,6.33,10.54,5c3.15-1.15,4.88-5.05,6.29-8.6l16.39-41.35c1.16-2.93,5.88-14.74,6.59-17.87C215.46,151.14,213.8,141.95,205.06,143.77Z" transform="translate(0 31.93)"/><path class="cls-5" d="M171.47,236.67c.12,2.1.3,4.21.52,6.33h17.07c-.34-3.92-1.3-15-2-17.9-.05-.24-.11-.49-.17-.73h0c-1.69-6.66-6.39-13.85-12.05-9.46a6.25,6.25,0,0,0-1.29,1.41h0v0a16.07,16.07,0,0,0-2,6C170.79,226.85,171.18,231.7,171.47,236.67Z" transform="translate(0 31.93)"/><path class="cls-5" d="M201.94,183.36h0q.35,1.66.72,3.39c0,.2.08.4.13.6s.14.7.22,1h0c.14.65.28,1.3.41,2h0c.11.47.21.94.3,1.42h0c.07.29.13.59.2.88h0c1.67,8,3.19,16.25,3.18,22,0,12.21-3.41,20.86-5,28.33H263c-1.25-7.45-4.41-15.63-4.43-28.33,0-6.85,2.5-17.27,4.81-26.72h0l0-.13c.08-.31.15-.61.22-.92.25-1,.49-2,.72-2.92s.5-2,.73-3h0c1.31-5.53,2.24-10.17,2.1-12.75v0c-.21-3.91-.15-7.85-.15-10.93v0a24.45,24.45,0,0,0-.31-5.26,18.51,18.51,0,0,0-1.85-3.29s0,0,0,0a18,18,0,0,0-2.63-3.22h0a6.85,6.85,0,0,0-1.33-1,41.82,41.82,0,0,0-4.63-2,13.44,13.44,0,0,0-2-.56c-1.93-.36-5.09-2-8.91-2.6l-.49-.07h-.06l-.23,0a17,17,0,0,0-2.39-.13c-3.87-.06-5-.83-8.39-.67-3.44-.16-4.43.27-8.39.33a14.63,14.63,0,0,0-2.1.11h-.12l-.2,0-.3,0a20.8,20.8,0,0,0-2.3.46l-.1,0c-2.71.69-5.11,1.74-6.8,2.25a7.61,7.61,0,0,1-1,.25,20.62,20.62,0,0,0-4.69,1.74h0c-.85.4-1.5.74-1.72.86a6.15,6.15,0,0,0-1.08.72,12.28,12.28,0,0,0-1.71,1.74,23.87,23.87,0,0,0-1.6,2.19,16.82,16.82,0,0,0-1.58,2.84,25.94,25.94,0,0,0-.31,5.65c0,2.21,0,4.84,0,7.56,0,1,0,2-.11,3C199.48,171.13,200.56,176.78,201.94,183.36Z" transform="translate(0 31.93)"/><path class="cls-7" d="M223.13,132.32A21.84,21.84,0,0,1,223,140a6.21,6.21,0,0,0,1,.68c4.61,2.67,13.27,1.38,17.82.12,1.89-.53,3.07-1,3-1.28-.92-2-.74-4.84-.45-6.76,0,0,0,0,0-.06h0a20.83,20.83,0,0,1,.44-2.13h-22c.08.24.15.48.21.72S223.08,132,223.13,132.32Z" transform="translate(0 31.93)"/><path class="cls-5" d="M257.24,93.48c0-11.9-10.38-21.55-23.17-21.55s-23.17,9.65-23.17,21.55a20.11,20.11,0,0,0,.85,5.73c0,.47,0,.95,0,1.45a61.07,61.07,0,0,0,1,12.85c1.63,8.24,5.9,15.91,14,20.59a17.94,17.94,0,0,0,9,2.73c4.32,0,8.28-2.25,11.29-5,9.92-9.11,10.77-22.8,10.07-35.72A20.12,20.12,0,0,0,257.24,93.48Z" transform="translate(0 31.93)"/><path class="cls-8" d="M192.21,157.86c8.67-17.59,31.21-19.58,31.21-19.58l-7.7,9.3-2.59,7.78-11.58,34.74-21.61-2A311.15,311.15,0,0,1,192.21,157.86Z" transform="translate(0 31.93)"/><polygon class="cls-9" points="212.59 186.38 203.02 226.7 197.87 226.33 212.59 186.38"/><path class="cls-10" d="M192.34,157.28c8.57-17.17,31.07-19,31.07-19s-22.73,6.67-28.33,18.58c-1.35,2.87-6.55,16.36-11.49,30.27l-3.34-.32A297.55,297.55,0,0,1,192.34,157.28Z" transform="translate(0 31.93)"/><path class="cls-11" d="M179.61,184l24.92,6.64-1.41,4.67-25.26-5.12a1.93,1.93,0,0,1-1.48-2.4l.62-2.29A2.13,2.13,0,0,1,179.61,184Z" transform="translate(0 31.93)"/><path class="cls-8" d="M276,158.63c-8.67-17.59-31.21-19.58-31.21-19.58l7.7,9.3,2.59,7.78,11.58,34.74,21.61-2A311.15,311.15,0,0,0,276,158.63Z" transform="translate(0 31.93)"/><polygon class="cls-9" points="255.58 187.14 265.16 227.46 270.3 227.1 255.58 187.14"/><path class="cls-10" d="M275.83,158c-8.57-17.17-31.07-19-31.07-19s22.73,6.67,28.33,18.58c1.35,2.87,6.55,16.36,11.49,30.27l3.34-.32A297.55,297.55,0,0,0,275.83,158Z" transform="translate(0 31.93)"/><path class="cls-11" d="M288.56,184.81l-24.92,6.64,1.41,4.67L290.31,191a1.93,1.93,0,0,0,1.48-2.4l-.62-2.29A2.13,2.13,0,0,0,288.56,184.81Z" transform="translate(0 31.93)"/><path class="cls-8" d="M201.62,243h61.87c-5.3-29.56.38-52.88.38-52.88l0-.16-.45-2.15-.63-3h0l0-.13-2.24-10.77-.47-2.26-.3-1.46h0v0l-1.77-8.48h0l-2.36-11.34L254,148.62l-9.12-9.46-.07-.07h0a.13.13,0,0,0,0,.07c.49,1.05,4.23,10-9.84,11.12-11.43.93-12.14-6.58-11.84-10.15,0-.57.12-1,.18-1.36s.1-.47.1-.47h0l-.15.12-.55.42-8.8,6.73-.53,2.1h0l-3.84,15.1h0L208.44,167l-1.38,5.42L205.9,177h0v.07L204.15,184v0L203,188.41h0q.2,1,.36,2c.11.57.2,1.13.29,1.7l.15,1C206.65,212.23,203.8,232,201.62,243Z" transform="translate(0 31.93)"/><path class="cls-11" d="M220.72,197.58l1-.05,2.8-.17a28.08,28.08,0,0,1,8.81.57c.83.22,1.66.48,2.5.7a20.35,20.35,0,0,0,2.48.52,19.24,19.24,0,0,0,4.28.14,7.32,7.32,0,0,0,1.66-.31,3.75,3.75,0,0,0,1.15-.58,2.53,2.53,0,0,0,.55-.58l.14-.24-.2.18a2.6,2.6,0,0,1-.64.36,5.32,5.32,0,0,1-2.62.14,31.2,31.2,0,0,1-4-.81c-.73-.2-1.47-.43-2.26-.71s-1.63-.57-2.55-.81a15.19,15.19,0,0,0-5.33-.4,23.55,23.55,0,0,0-4.18.8c-1.16.33-2.07.65-2.69.88Z" transform="translate(0 31.93)"/><path class="cls-10" d="M239.19,123.36c-1,.38-3.77-1.1-5.1-1s-1.16-.24-2.13-.41-3.3.08-4.84-.75a9.83,9.83,0,0,0,2.85,4.3,5.65,5.65,0,0,0,5.12.89A8.8,8.8,0,0,0,239.19,123.36Z" transform="translate(0 31.93)"/><path class="cls-10" d="M240.32,122.87l-.17,0-.45.16c-.38.16-.94.36-1.61.56a10,10,0,0,1-1.1.25,10.27,10.27,0,0,1-1.24.13,8.85,8.85,0,0,1-1.33,0,11.27,11.27,0,0,1-1.37-.22,14.53,14.53,0,0,1-4.78-1.77c-.29-.19-.56-.37-.78-.55a6.28,6.28,0,0,1-.56-.48l-.34-.34-.12-.12.1.14a4.45,4.45,0,0,0,.29.39,6.48,6.48,0,0,0,.51.55,6.22,6.22,0,0,0,.74.64,10,10,0,0,0,2.14,1.21,14.88,14.88,0,0,0,2.69.82,12,12,0,0,0,1.42.21,8.13,8.13,0,0,0,1.4,0,7.69,7.69,0,0,0,1.29-.21,10.7,10.7,0,0,0,1.11-.34,12.39,12.39,0,0,0,1.56-.73l.42-.22Z" transform="translate(0 31.93)"/><path class="cls-12" d="M238.59,123.59a14.65,14.65,0,0,1-10.83-2,7.48,7.48,0,0,0,5.53,3.42A7.22,7.22,0,0,0,238.59,123.59Z" transform="translate(0 31.93)"/><path class="cls-13" d="M236.93,115.62c-3.88.81-5.47-1.56-5.5-3.55C230.44,115.73,233.09,117.71,236.93,115.62Z" transform="translate(0 31.93)"/><path class="cls-14" d="M225.27,102.76a1.64,1.64,0,0,1,.39.86c.16,1.11.37,3.13-.87,3.74-1.49.74-2.18-1.23-2.22-2.37a3.19,3.19,0,0,1,.56-2.11A1.35,1.35,0,0,1,225.27,102.76Z" transform="translate(0 31.93)"/><path class="cls-14" d="M226.63,103.34s-1.82-2.25-6.06,0C220.57,103.34,224.55,100.05,226.63,103.34Z" transform="translate(0 31.93)"/><path class="cls-14" d="M243.06,102.76a1.64,1.64,0,0,0-.39.86c-.16,1.11-.37,3.13.87,3.74,1.49.74,2.18-1.23,2.22-2.37a3.19,3.19,0,0,0-.56-2.11A1.35,1.35,0,0,0,243.06,102.76Z" transform="translate(0 31.93)"/><path class="cls-14" d="M241.71,103.34s1.82-2.25,6.06,0C247.77,103.34,243.79,100.05,241.71,103.34Z" transform="translate(0 31.93)"/><path class="cls-6" d="M269.59,109.51a5.38,5.38,0,0,0,.56-1.2,15.89,15.89,0,0,1,.71,4.21c-.34-.29-.69-.58-1.07-.85a3.63,3.63,0,0,0-1-.51A10.69,10.69,0,0,1,269.59,109.51Z" transform="translate(0 31.93)"/><path class="cls-6" d="M234.17,73.26c9.34-5.26,24.46,3.49,27.24,16.12a32.54,32.54,0,0,0,3.7,9.42l-.41.39c-2.95-1.4-7.38,0-7.42,4.31a86.14,86.14,0,0,1-.77,9.14,9.88,9.88,0,0,0-2.81-3.93c-5-3.8-3.88-5.88-4.75-14.75s-9.15-3.34-15.65-11.06C230.67,79.68,224.83,78.52,234.17,73.26Z" transform="translate(0 31.93)"/><path class="cls-6" d="M252.29,107.53a37.94,37.94,0,0,1-8.13,26.42s9.82-5.18,12.34-21.31A5.57,5.57,0,0,0,252.29,107.53Z" transform="translate(0 31.93)"/><path class="cls-15" d="M229.15,94.61c-2-.45-5.35-1.37-8.87,1.69-1.59,1.38-1.29,2,.47.75,3-2.2,5-1.47,8.2-.84C230.19,96.46,230.53,94.92,229.15,94.61Z" transform="translate(0 31.93)"/><path class="cls-15" d="M240.24,94.61c2-.45,5.35-1.37,8.87,1.69,1.59,1.38,1.29,2-.47.75-3-2.2-5-1.47-8.2-.84C239.19,96.46,238.86,94.92,240.24,94.61Z" transform="translate(0 31.93)"/><path class="cls-15" d="M234.54,79.77C241,87.49,249.32,82,250.18,90.83s-.22,11,4.75,14.75,6.2,16.5,3.28,25.55-2.65,14.34.85,20.47,3.63,10.5,1.88,16.63-2.85,9.38,7.46-1.38,7.88-22,3.8-32.48-2-9.64-.3-21.35-6.47-14.14-9.25-26.76-17.89-21.37-27.24-16.12S231.91,76.56,234.54,79.77Z" transform="translate(0 31.93)"/><path class="cls-16" d="M238.48,71.9c1.12,5,7.84,6.91,11.95,8.22s7.13,4.45,6.38,10,3.33,12.92,6.13,15.72,2,14.93-.19,22.41c-2,6.93,1.85,17.21,3.67,21.18,1.94,4.25,2.87,9.63.63,13.17,3.86-3.4,3.71-8.78,1.31-14.56s-5.19-9.38-3-19.57c2.79-12.9,4.56-17.59-.92-24.78-4.33-5.68-5.38-6.42-5.25-13.16.14-6.92-.93-10.08-6.91-12.14S240.91,76.76,238.48,71.9Z" transform="translate(0 31.93)"/><path class="cls-15" d="M235.17,79.77c-6.49,7.72-14.78,2.19-15.65,11.06s.22,11-4.75,14.75-6.2,16.5-3.28,25.55,2.65,14.34-.85,20.47-3.63,10.5-1.88,16.63,2.85,9.38-7.46-1.38-7.88-22-3.8-32.48,2-9.64.3-21.35,6.47-14.14,9.25-26.76,17.89-21.37,27.24-16.12S237.79,76.56,235.17,79.77Z" transform="translate(0 31.93)"/><path class="cls-16" d="M231.22,71.9c-1.12,5-7.84,6.91-11.95,8.22s-7.13,4.45-6.38,10-3.33,12.92-6.13,15.72-2,14.93.19,22.41c2,6.93-1.85,17.21-3.67,21.18-1.94,4.25-2.87,9.63-.63,13.17-3.86-3.4-3.71-8.78-1.31-14.56s5.19-9.38,3-19.57c-2.79-12.9-4.56-17.59.92-24.78,4.33-5.68,5.38-6.42,5.25-13.16-.14-6.92.93-10.08,6.91-12.14S228.79,76.76,231.22,71.9Z" transform="translate(0 31.93)"/><path class="cls-17" d="M317.59,214.12l.17.25a2.43,2.43,0,0,0-.14-.28Z" transform="translate(0 31.93)"/><path class="cls-17" d="M316.09,212.12l.56.7h0C316.47,212.58,316.29,212.35,316.09,212.12Z" transform="translate(0 31.93)"/><path class="cls-17" d="M289.46,239.45a1,1,0,0,0-.15-.2c0,.33,0,.66,0,1,.06.1.11.2.16.3Z" transform="translate(0 31.93)"/><path class="cls-17" d="M281.55,216.76c0,1.24.08,2.6.11,4,0-1.36,0-2.72-.08-4C281.57,216.75,281.56,216.76,281.55,216.76Z" transform="translate(0 31.93)"/><path class="cls-17" d="M254.33,213.75c.06-.1.13-.2.2-.3v-.26A3.73,3.73,0,0,0,254.33,213.75Z" transform="translate(0 31.93)"/><path class="cls-18" d="M49.11,211.12a.7.7,0,0,1-.2-.21A.28.28,0,0,1,49.11,211.12Z" transform="translate(0 31.93)"/><path class="cls-18" d="M110.8,141.17c2.76.55,5.06,2.68,7,5a53.94,53.94,0,0,1,7.28,11.74c1.91,4,3.48,8.29,5,12.52q3.07,8.37,6.09,16.76a102.14,102.14,0,0,1,3.41,10.67c.95,3.94,2.81,9.21,1.39,13s-6.63,5.66-10.11,4.46c-3-1.05-4.72-4.58-6.09-7.78l-16-37.34c-1.13-2.65-5.73-13.31-6.43-16.14C100.85,147.76,102.39,139.48,110.8,141.17Z" transform="translate(0 31.93)"/><path class="cls-18" d="M31.75,254.82c-.27,0-.55.3-.55,1.49s.72,1.32.69,1.57c-.65,6.44-.07,10.85,1.36,17.21.33,1.44.8,3,2,3.82.62.41,1.75,1.9,2.48,2,1.76.32,3.43-.87,4.66-2.16a5,5,0,0,0,1-3.65c0-1.31-.78-3.45-.74-4.75,0-1.12,0-2.62.24-2.83s.71,2.53,1.65,2.38.76-1.6.63-2.53c-.4-2.93-2.84-6.37-3.24-9.3-.36-2.68.36-1.79-1.66-2.24A48.8,48.8,0,0,0,31.75,254.82Z" transform="translate(0 31.93)"/><path class="cls-18" d="M62.32,141.17c-2.76.55-5.06,2.68-7,5a53.94,53.94,0,0,0-7.28,11.74c-1.91,4-3.48,8.29-5,12.52q-3.07,8.37-6.09,16.76a102.14,102.14,0,0,0-3.41,10.67c-.95,3.94-2.81,9.21-1.39,13s6.63,5.66,10.11,4.46c3-1.05,4.72-4.58,6.09-7.78l16-37.34c1.13-2.65,5.73-13.31,6.43-16.14C72.27,147.76,70.73,139.48,62.32,141.17Z" transform="translate(0 31.93)"/><path class="cls-18" d="M37,202c-1.92,1.08-3.09,3.57-3.94,6.15-1.29,3.93-1.6,8.3-2,12.77-.39,4.28-.51,8.68-.59,13.07-.11,5.78.15,13.56.15,15.32,0,3.63.14,10.23.41,13.92.29,4,.62,10.16,2.42,13.66a3.72,3.72,0,0,0,5.11,1.4c2-1.53,3.66-9.6,3.93-13,.81-10,2.42-20.75,3.35-35.8.17-2.77.89-14,.69-16.82C46.11,206.42,42.86,198.74,37,202Z" transform="translate(0 31.93)"/><path class="cls-18" d="M84.44,264.47c5.6-.79,11.62.06,13.82-.71.14-.05,6-.93,6.9-1.15.3-.06,5.93-.46,5.93-.51l5.1-.83c1.71-.68,2.66,1.32,3.07.27s-.76-17.8-.8-19c-.28-8.64-.84-18.11-.87-33.14,0-12.66,3-37.89,2.61-45.33-.39-6.93.13-14-.47-15.86-.29-.88-3.19-6-5.88-7.3a27.94,27.94,0,0,0-6.35-2.53c-2.45-.45-7.45-3.2-12.7-3.11-3.9-.05-4.88-.47-8.27-.32-3.32-.15-4.46.6-8.27.65-5.13-.09-9.5,2.32-11.9,2.77a30.62,30.62,0,0,0-6.49,2.54c-2.63,1.33-5.48,6.42-5.76,7.3-.58,1.82-.08,8.93-.46,15.86-.41,7.44,3.65,32.31,3.62,45,0,15,.27,23.91,0,32.55,0,1.16-1.37,17.67-1,18.66a6.75,6.75,0,0,0,3.6,3l2.69-1.18c0,.05,5.51.45,5.8.51.84.22,6.61,1.1,6.75,1.15,2.15.77,3.84-.08,9.32.71" transform="translate(0 31.93)"/><path class="cls-18" d="M78.25,129.25v16.12s8.27,3.23,16.54,0V127.25S78.25,119.84,78.25,129.25Z" transform="translate(0 31.93)"/><path class="cls-18" d="M120.6,260.27c-1.08-46.63-32.66-46.63-32.66-46.63S55.22,211.85,55,261.42c0,4.5,4.45,2.94,14.8,4l14.36,2.78s.51-2.52,3.87-2.39a3.57,3.57,0,0,1,3.76,3.11l14.35-3.43C116.5,264.44,120.7,264.76,120.6,260.27Z" transform="translate(0 31.93)"/><path class="cls-18" d="M72.86,126.71s1.79,6,0,9.65c-.45.92,18.57,5.81,25.43.52,0,0-1.33-5.43.32-10.17Z" transform="translate(0 31.93)"/><path class="cls-19" d="M73.81,134.77a5.82,5.82,0,0,1,6.4-.68c3.26,1.56,8.25,1.38,11.65,0,2.48-1,5.37.8,6.44,3.07.13-.09.27-.18.4-.28s-1.33-5.43.32-10.17H73.27S74.61,131.18,73.81,134.77Z" transform="translate(0 31.93)"/><path class="cls-18" d="M66.35,95.91c0-10.36,9-18.76,20.18-18.76s20.18,8.4,20.18,18.76a17.51,17.51,0,0,1-.74,5c0,.41,0,.82,0,1.26a53.17,53.17,0,0,1-.84,11.19c-1.42,7.17-5.14,13.85-12.16,17.93a15.62,15.62,0,0,1-7.82,2.37c-3.76,0-7.21-2-9.83-4.36-8.63-7.93-9.38-19.85-8.77-31.09A17.51,17.51,0,0,1,66.35,95.91Z" transform="translate(0 31.93)"/><path class="cls-19" d="M78.79,129.4c-6.48-5.33-9.11-13.33-9.64-21.48-.56-8.7-.1-17.61,3.71-25.46a18.08,18.08,0,0,0-6.12,13.45,17.52,17.52,0,0,0,.16,2.29c-.61,11.25.14,23.16,8.77,31.09,2.61,2.4,6.06,4.33,9.83,4.36l.64,0A24.3,24.3,0,0,1,78.79,129.4Z" transform="translate(0 31.93)"/><path class="cls-20" d="M109.13,138.46c3,.58,5.47,2.83,7.54,5.25a56.65,56.65,0,0,1,7.84,12.46c2,4.3,3.73,8.8,5.4,13.3q3.29,8.89,6.53,17.8a106.59,106.59,0,0,1,3.65,11.33c1,4.18,3,9.78,1.46,13.79s-7.2,6-11,4.78c-3.28-1.11-5.09-4.85-6.57-8.25l-17.16-39.65c-1.22-2.81-6.16-14.13-6.89-17.14C98.33,145.5,100,136.69,109.13,138.46Z" transform="translate(0 31.93)"/><path class="cls-20" d="M30.38,266.77c.07,1,.14,2,.23,3.16.51.1,1,.15,1.53.24a34,34,0,0,0,11.65-2c1-11.79,2.75-24.5,3.8-42.13.2-3.35,1-16.87.8-20.33-.52-7.62-4.29-16.9-11.07-12.94-2.23,1.3-3.59,4.32-4.57,7.44-1.5,4.75-1.85,10-2.33,15.43-.46,5.17-.59,10.49-.69,15.8-.13,7,.18,16.39.18,18.52C29.9,254.32,30.06,262.31,30.38,266.77Z" transform="translate(0 31.93)"/><path class="cls-21" d="M41.4,265.19c-10.34-9.13-7.17-28.06-7.07-40.25,0-3.79,3.2-5.53,6.12-5.25a5.72,5.72,0,0,1,3.76.53,7.07,7.07,0,0,1,3.23,3.09c.31-5.23.83-14.73.64-17.56-.52-7.62-4.29-16.9-11.07-12.94-2.23,1.3-3.59,4.32-4.57,7.44-1.5,4.75-1.85,10-2.33,15.43-.46,5.17-.59,10.49-.69,15.8-.13,7,.18,16.39.18,18.52,0,4.38.17,12.37.48,16.83.07,1,.14,2,.23,3.16.51.1,1,.15,1.53.24a34,34,0,0,0,11.65-2q.07-.91.16-1.84A5.79,5.79,0,0,1,41.4,265.19Z" transform="translate(0 31.93)"/><path class="cls-20" d="M64,138.46c-3,.58-5.47,2.83-7.54,5.25a56.65,56.65,0,0,0-7.84,12.46c-2,4.3-3.73,8.8-5.4,13.3q-3.29,8.89-6.53,17.8a106.59,106.59,0,0,0-3.65,11.33c-1,4.18-3,9.78-1.46,13.79s7.2,6,11,4.78c3.28-1.11,5.09-4.85,6.57-8.25l17.16-39.65c1.22-2.81,6.16-14.13,6.89-17.14C74.79,145.5,73.09,136.69,64,138.46Z" transform="translate(0 31.93)"/><path class="cls-21" d="M63.76,138.51A10.73,10.73,0,0,0,59,141a7.14,7.14,0,0,1,1.62.46c9.29,3.87,5,18.64,2.52,25.23a228.31,228.31,0,0,1-20.22,40.22,5.62,5.62,0,0,1-7.49,2,7,7,0,0,1-4-4.78c-.65,2.92-1,5.91-.08,8.33,1.55,4,7.2,6,11,4.78,3.28-1.11,5.09-4.85,6.57-8.25L66,169.31c1.22-2.81,6.16-14.13,6.89-17.14C74.55,145.56,72.86,136.75,63.76,138.51Z" transform="translate(0 31.93)"/><path class="cls-21" d="M109,138.51a10.73,10.73,0,0,1,4.8,2.49,7.14,7.14,0,0,0-1.62.46c-9.29,3.87-5,18.64-2.52,25.23a228.31,228.31,0,0,0,20.22,40.22,5.62,5.62,0,0,0,7.49,2,7,7,0,0,0,4-4.78c.65,2.92,1,5.91.08,8.33-1.55,4-7.2,6-11,4.78-3.28-1.11-5.09-4.85-6.57-8.25l-17.16-39.65c-1.22-2.81-6.16-14.13-6.89-17.14C98.25,145.56,99.95,136.75,109,138.51Z" transform="translate(0 31.93)"/><path class="cls-20" d="M120.64,260.35c.38-1,.26-16.23.31-17.39.31-6.86.11-22.31.08-37.34,0-12.66-.16-34.53-.57-42-.39-6.93.13-14-.47-15.86-.29-.88-3.19-6-5.88-7.3a27.94,27.94,0,0,0-6.35-2.53c-2.45-.45-5.17-1.59-9.53-2.28-1.17,4.35-9.69,5.84-13.08,6-3.32-.15-11.2-2.41-11.56-5.88-2.06.57-4.57,1.72-7,2.17a30.62,30.62,0,0,0-6.49,2.54c-2.63,1.33-5.48,6.42-5.76,7.3-.58,1.82-.08,8.93-.46,15.86-.41,7.44,1.47,34.94,1.25,47.6-.15,8.86.27,22,0,30.64,0,1.16-.27,16.9.11,17.88s3.19,2.38,4.87,3.05A100.18,100.18,0,0,0,88.06,267C103.92,267.08,120.64,260.35,120.64,260.35Z" transform="translate(0 31.93)"/><path class="cls-21" d="M92.35,257.14c-7.48-1.76-18.74-5.22-23.86-12a6.18,6.18,0,0,1-.68-.8c-5.11-7.24-5.85-14.39-6.11-23-.29-9.56-2.16-19-2.41-28.57-.24-9.19-.3-18.57-.05-27.76.11-4.2,1.12-8.62.49-12.76a78.39,78.39,0,0,1-.86-10.68,21.85,21.85,0,0,0-4.3,6.23c-.58,1.82-.08,8.93-.46,15.86-.41,7.44,1.47,34.94,1.25,47.6-.15,8.86.27,22,0,30.64,0,1.16-.27,16.9.11,17.88s3.19,2.38,4.87,3.05A100.18,100.18,0,0,0,88.28,267c15.86.12,32.58-6.61,32.58-6.61a1,1,0,0,0,0-.17C111.33,259.93,101.56,259.31,92.35,257.14Z" transform="translate(0 31.93)"/><g class="cls-22"><path class="cls-23" d="M119.29,146.4c-7.93,3.62-15.76,7.73-23.31,12.05-.83.48-.09,1.66.77,1.26,7.85-3.62,15.7-7.33,23.42-11.21C121.65,147.75,120.84,145.69,119.29,146.4Z" transform="translate(0 31.93)"/><path class="cls-23" d="M121.43,152.79c1.7-.86.76-3.23-1-2.41-7.32,3.4-14.37,7.5-21.36,11.49-.67.38-.07,1.32.62,1C106.93,159.54,114.33,156.4,121.43,152.79Z" transform="translate(0 31.93)"/><path class="cls-23" d="M126.34,152.49c-8.6,3.55-16.47,8.85-24.72,13.1-.89.46-.39,1.72.53,1.27,8.43-4.12,17.49-7.35,25.54-12.17C129.15,153.81,127.85,151.86,126.34,152.49Z" transform="translate(0 31.93)"/><path class="cls-23" d="M129.65,168.84c-7.93,3.62-15.76,7.73-23.31,12.05-.83.48-.09,1.66.77,1.26,7.85-3.62,15.7-7.33,23.42-11.21C132,170.19,131.19,168.13,129.65,168.84Z" transform="translate(0 31.93)"/><path class="cls-23" d="M131.79,175.22c1.7-.86.76-3.23-1-2.41-7.32,3.4-14.37,7.5-21.36,11.49-.67.38-.07,1.32.62,1C117.28,182,124.68,178.83,131.79,175.22Z" transform="translate(0 31.93)"/><path class="cls-23" d="M136.69,174.92c-8.6,3.55-16.47,8.85-24.72,13.1-.89.46-.39,1.72.53,1.27,8.43-4.12,17.49-7.35,25.54-12.17C139.51,176.24,138.21,174.3,136.69,174.92Z" transform="translate(0 31.93)"/><path class="cls-23" d="M138.63,189.55c-7.93,3.62-15.76,7.73-23.31,12.05-.83.48-.09,1.66.77,1.26,7.85-3.62,15.7-7.33,23.42-11.21C141,190.9,140.17,188.84,138.63,189.55Z" transform="translate(0 31.93)"/><path class="cls-23" d="M140.77,195.93c1.7-.86.76-3.23-1-2.41-7.32,3.4-14.37,7.5-21.36,11.49-.67.38-.07,1.32.62,1C126.26,202.68,133.66,199.54,140.77,195.93Z" transform="translate(0 31.93)"/><path class="cls-23" d="M145.67,195.63c-8.6,3.55-16.47,8.85-24.72,13.1-.89.46-.39,1.72.53,1.27,8.43-4.12,17.49-7.35,25.54-12.17C148.48,197,147.18,195,145.67,195.63Z" transform="translate(0 31.93)"/></g><g class="cls-24"><path class="cls-23" d="M26.74,219.58c8.72.26,17.53,1,26.16,2,1,.12.73,1.49-.22,1.46-8.63-.28-17.32-.65-25.93-1.23C25.1,221.74,25,219.53,26.74,219.58Z" transform="translate(0 31.93)"/><path class="cls-23" d="M27.25,226.3c-1.9-.14-2-2.68,0-2.61C35.31,224,43.4,225,51.39,226c.76.09.58,1.19-.18,1.16C43.25,226.88,35.2,226.86,27.25,226.3Z" transform="translate(0 31.93)"/><path class="cls-23" d="M22.62,227.93c9.3-.07,18.62,1.75,27.87,2.46,1,.08,1,1.43,0,1.37-9.37-.52-19,0-28.26-1.29C20.54,230.24,21,227.94,22.62,227.93Z" transform="translate(0 31.93)"/><path class="cls-23" d="M26.67,242.81c8.72.26,17.53,1,26.16,2,1,.12.73,1.49-.22,1.46-8.63-.28-17.32-.65-25.93-1.23C25,245,25,242.76,26.67,242.81Z" transform="translate(0 31.93)"/><path class="cls-23" d="M27.18,249.53c-1.9-.14-2-2.68,0-2.61,8.06.29,16.16,1.33,24.15,2.29.76.09.58,1.19-.18,1.16C43.17,250.11,35.13,250.1,27.18,249.53Z" transform="translate(0 31.93)"/><path class="cls-23" d="M22.54,251.16c9.3-.07,18.62,1.75,27.87,2.46,1,.08,1,1.43,0,1.37-9.37-.52-19,0-28.26-1.29C20.47,253.47,20.91,251.17,22.54,251.16Z" transform="translate(0 31.93)"/></g><g class="cls-25"><path class="cls-23" d="M53.09,146.17c7.93,3.62,15.76,7.73,23.31,12.05.83.48.09,1.66-.77,1.26-7.85-3.62-15.7-7.33-23.42-11.21C50.73,147.52,51.54,145.46,53.09,146.17Z" transform="translate(0 31.93)"/><path class="cls-23" d="M51,152.55c-1.7-.86-.76-3.23,1-2.41,7.32,3.4,14.37,7.5,21.36,11.49.67.38.07,1.32-.62,1C65.46,159.3,58.05,156.16,51,152.55Z" transform="translate(0 31.93)"/><path class="cls-23" d="M46,152.25c8.6,3.55,16.47,8.85,24.72,13.1.89.46.39,1.72-.53,1.27-8.43-4.12-17.49-7.35-25.54-12.17C43.23,153.58,44.53,151.63,46,152.25Z" transform="translate(0 31.93)"/><path class="cls-23" d="M42.74,168.6c7.93,3.62,15.76,7.73,23.31,12.05.83.48.09,1.66-.77,1.26-7.85-3.62-15.7-7.33-23.42-11.21C40.38,170,41.19,167.89,42.74,168.6Z" transform="translate(0 31.93)"/><path class="cls-23" d="M40.6,175c-1.7-.86-.76-3.23,1-2.41C48.92,176,56,180.08,63,184.07c.67.38.07,1.32-.62,1C55.1,181.74,47.7,178.6,40.6,175Z" transform="translate(0 31.93)"/><path class="cls-23" d="M35.69,174.69c8.6,3.55,16.47,8.85,24.72,13.1.89.46.39,1.72-.53,1.27-8.43-4.12-17.49-7.35-25.54-12.17C32.88,176,34.18,174.06,35.69,174.69Z" transform="translate(0 31.93)"/><path class="cls-23" d="M33.76,189.31c7.93,3.62,15.76,7.73,23.31,12.05.83.48.09,1.66-.77,1.26-7.85-3.62-15.7-7.33-23.42-11.21C31.4,190.67,32.21,188.6,33.76,189.31Z" transform="translate(0 31.93)"/><path class="cls-23" d="M31.62,195.7c-1.7-.86-.76-3.23,1-2.41,7.32,3.4,14.37,7.5,21.36,11.49.67.38.07,1.32-.62,1C46.13,202.45,38.72,199.31,31.62,195.7Z" transform="translate(0 31.93)"/><path class="cls-23" d="M26.71,195.4c8.6,3.55,16.47,8.85,24.72,13.1.89.46.39,1.72-.53,1.27-8.43-4.12-17.49-7.35-25.54-12.17C23.9,196.72,25.2,194.77,26.71,195.4Z" transform="translate(0 31.93)"/></g><rect class="cls-23" x="29.69" y="284.89" width="14.83" height="3.73" rx="0.98" ry="0.98"/><path class="cls-23" d="M73.29,135.1S83.83,147,97.93,135a3.28,3.28,0,0,1,3.41.69s-14,16-30.66.29C69.3,134.67,73,133.76,73.29,135.1Z" transform="translate(0 31.93)"/><g class="cls-26"><path class="cls-23" d="M157.65,170.93c-51.33.39-103.21,1.26-154.06,2.44-5.61.13-4.26,1.5,1.34,1.46,50.85-.41,102-.91,152.72-1.62C167.4,173.07,167.66,170.86,157.65,170.93Z" transform="translate(0 31.93)"/><path class="cls-23" d="M154.78,177.65c11.17-.16,11.5-2.71,0-2.61-47.48.41-95.14,1.57-142.17,2.65-4.48.1-3.4,1.2,1.07,1.16C60.61,178.47,108,178.34,154.78,177.65Z" transform="translate(0 31.93)"/><path class="cls-23" d="M182.13,179.22c-54.81.07-109.62,2-164.1,2.88-5.87.09-6,1.44,0,1.37,55.16-.66,111.76-.26,166.43-1.7C194.42,181.5,191.77,179.2,182.13,179.22Z" transform="translate(0 31.93)"/><path class="cls-23" d="M157.65,194.79c-51.33.39-103.21,1.26-154.06,2.44-5.61.13-4.26,1.5,1.34,1.46,50.85-.41,102-.91,152.72-1.62C167.4,196.93,167.66,194.72,157.65,194.79Z" transform="translate(0 31.93)"/><path class="cls-23" d="M154.78,201.51c11.17-.16,11.5-2.71,0-2.61-47.48.41-95.14,1.57-142.17,2.65-4.48.1-3.4,1.2,1.07,1.16C60.61,202.33,108,202.2,154.78,201.51Z" transform="translate(0 31.93)"/><path class="cls-23" d="M182.13,203.07c-54.81.07-109.62,2-164.1,2.88-5.87.09-6,1.44,0,1.37,55.16-.66,111.76-.26,166.43-1.7C194.42,205.36,191.77,203.06,182.13,203.07Z" transform="translate(0 31.93)"/><path class="cls-23" d="M157.65,218.68c-51.33.39-103.21,1.26-154.06,2.44-5.61.13-4.26,1.5,1.34,1.46,50.85-.41,102-.91,152.72-1.62C167.4,220.82,167.66,218.6,157.65,218.68Z" transform="translate(0 31.93)"/><path class="cls-23" d="M154.78,225.4c11.17-.16,11.5-2.71,0-2.61-47.48.41-95.14,1.57-142.17,2.65-4.48.1-3.4,1.2,1.07,1.16C60.61,226.22,108,226.09,154.78,225.4Z" transform="translate(0 31.93)"/><path class="cls-23" d="M182.13,227c-54.81.07-109.62,2-164.1,2.88-5.87.09-6,1.44,0,1.37,55.16-.66,111.76-.26,166.43-1.7C194.42,229.24,191.77,226.95,182.13,227Z" transform="translate(0 31.93)"/><path class="cls-23" d="M157.65,242.07c-51.33.39-103.21,1.26-154.06,2.44C-2,244.63-.66,246,4.93,246c50.85-.41,102-.91,152.72-1.62C167.4,244.21,167.66,242,157.65,242.07Z" transform="translate(0 31.93)"/><path class="cls-23" d="M154.78,248.79c11.17-.16,11.5-2.71,0-2.61-47.48.41-95.14,1.57-142.17,2.65-4.48.1-3.4,1.2,1.07,1.16C60.61,249.61,108,249.47,154.78,248.79Z" transform="translate(0 31.93)"/><path class="cls-23" d="M182.13,250.35c-54.81.07-109.62,2-164.1,2.88-5.87.09-6,1.44,0,1.37,55.16-.66,111.76-.26,166.43-1.7C194.42,252.63,191.77,250.34,182.13,250.35Z" transform="translate(0 31.93)"/><path class="cls-23" d="M157.65,146.84c-51.33.39-103.21,1.26-154.06,2.44-5.61.13-4.26,1.5,1.34,1.46,50.85-.41,102-.91,152.72-1.62C167.4,149,167.66,146.77,157.65,146.84Z" transform="translate(0 31.93)"/><path class="cls-23" d="M154.78,153.57c11.17-.16,11.5-2.71,0-2.61-47.48.41-95.14,1.57-142.17,2.65-4.48.1-3.4,1.2,1.07,1.16C60.61,154.39,108,154.25,154.78,153.57Z" transform="translate(0 31.93)"/><path class="cls-23" d="M182.13,155.13c-54.81.07-109.62,2-164.1,2.88-5.87.09-6,1.44,0,1.37,55.16-.66,111.76-.26,166.43-1.7C194.42,157.41,191.77,155.12,182.13,155.13Z" transform="translate(0 31.93)"/></g><path class="cls-27" d="M113.05,85.11c-.39-1.66-1.82-2.85-2.26-4.49s.14-3.29.1-4.95a9.7,9.7,0,0,0-1.16-4,13,13,0,0,0-4.3-5.1,7.84,7.84,0,0,0-6.24-1.19L99,65.4a6.72,6.72,0,0,0-.9-3.07C96.49,59.71,93,59.41,90,59.85a7,7,0,0,1-3.8,0,9,9,0,0,1-1.83-1.25,11.85,11.85,0,0,0-13.57-.4A25.94,25.94,0,0,1,67,60.75c-2.24,1-4.9.54-7,1.76-2.32,1.33-3.38,4.25-4,7s-1,5.66-2.57,7.9-4.54,3.67-5.6,6.38c-1.31,3.32.71,7.06,3,9.66C52,94.73,53.36,96,53.74,97.76c.16.74.15,1.52.3,2.26.29,1.35,1.65,2.24,1.95,3.54,1.84,8.09,6.78,7,14.54,16.36A9.28,9.28,0,0,1,69,116a20.53,20.53,0,0,1,.08-7,5.47,5.47,0,0,0,0-3.33A43.71,43.71,0,0,1,66.86,101a2.13,2.13,0,0,1,1.71-2.66,2.2,2.2,0,0,1,2.16,2.34c-.13-2.93-.23-6,1.12-8.59,1.66-3.15,5.14-4.7,8.48-5.34s6.81-.61,10-1.69a11.77,11.77,0,0,0,4-2.31A7.14,7.14,0,0,0,96,84.31a29.72,29.72,0,0,1,4.19,2.78c1.84,1.76,3.68,3.24,4,5.85s2,4.89,2.25,7.51c.88-3,.73-3.83,2.73-6.09,1.19-1.34,1-3,2.17-4.29A5.75,5.75,0,0,0,113.05,85.11Z" transform="translate(0 31.93)"/><path class="cls-28" d="M68.6,115.84c-4.15-4.87-7.51-8.48-8.47-14.88-.11-.76-.26-1.55-.43-2.34a5.44,5.44,0,0,1-.17-.8c-.26-1.17-.55-2.35-.88-3.51-.49-1.74-2-3-2.69-4.65a8.26,8.26,0,0,1,.13-7.25c.63-1.27,1.88-2.11,2.52-3.31,1-1.82.7-3.11.78-5.11a13.27,13.27,0,0,1,2.24-7.61,11.78,11.78,0,0,1,2.67-2.93,3.06,3.06,0,0,0,.83-.77,6,6,0,0,1,0-1.4c-1.73.31-3.55.33-5.09,1.21-2.32,1.33-3.38,4.25-4,7s-1,5.66-2.57,7.9-4.54,3.67-5.6,6.38c-1.31,3.32.71,7.06,3,9.66,1.16,1.29,2.47,2.58,2.86,4.32.16.74.15,1.52.3,2.26.29,1.35,1.65,2.24,1.95,3.54,1.84,8.09,6.78,7,14.54,16.36a9.63,9.63,0,0,1-1.43-3.55A6.21,6.21,0,0,1,68.6,115.84Z" transform="translate(0 31.93)"/><path class="cls-28" d="M89.47,78.79c-2.94,1.37-4.88,3.89-8.05,4.91s-6.47,0-8.78,3c-2,2.53-2.17,5.89-2.21,9,.11.24.22.47.31.73a11,11,0,0,1,1.12-4.29c1.66-3.15,5.14-4.7,8.48-5.34s6.81-.61,10-1.69a11.77,11.77,0,0,0,3.83-2.16C94.23,79.06,94,76.69,89.47,78.79Z" transform="translate(0 31.93)"/><path class="cls-28" d="M94.21,66.52a3,3,0,0,0,3.06-1.24A7.19,7.19,0,0,0,98,62.11c-1.71-2.4-5.07-2.69-7.91-2.26a7,7,0,0,1-3.8,0,9,9,0,0,1-1.83-1.25,11.89,11.89,0,0,0-11-1.69,6.83,6.83,0,0,1,.71.62c1.33,1.36,4.65,1.4,6.45,2.15,2.92,1.22,5.56,3.73,8.83,3.77A5,5,0,0,1,94.21,66.52Z" transform="translate(0 31.93)"/><path class="cls-12" d="M85.57,120.75a12.46,12.46,0,0,0,9.35-.43,6.36,6.36,0,0,1-5,2.27A6.14,6.14,0,0,1,85.57,120.75Z" transform="translate(0 31.93)"/><path class="cls-29" d="M88,114.59c3.3.69,4.65-1.33,4.68-3C93.47,114.68,91.22,116.36,88,114.59Z" transform="translate(0 31.93)"/><path class="cls-30" d="M97.86,103.65a1.4,1.4,0,0,0-.33.73c-.13.95-.32,2.66.74,3.18,1.26.63,1.86-1,1.89-2a2.71,2.71,0,0,0-.48-1.79A1.15,1.15,0,0,0,97.86,103.65Z" transform="translate(0 31.93)"/><path class="cls-30" d="M82.74,103.65a1.4,1.4,0,0,1,.33.73c.13.95.32,2.66-.74,3.18-1.26.63-1.86-1-1.89-2a2.71,2.71,0,0,1,.48-1.79A1.15,1.15,0,0,1,82.74,103.65Z" transform="translate(0 31.93)"/><path class="cls-31" d="M94.57,96.73c1.72-.38,4.55-1.17,7.54,1.44,1.35,1.17,1.1,1.74-.4.64-2.55-1.87-4.26-1.25-7-.71C93.68,98.3,93.39,97,94.57,96.73Z" transform="translate(0 31.93)"/><path class="cls-31" d="M85.14,96.73c-1.72-.38-4.55-1.17-7.54,1.44-1.35,1.17-1.1,1.74.4.64,2.55-1.87,4.26-1.25,7-.71C86,98.3,86.31,97,85.14,96.73Z" transform="translate(0 31.93)"/><path class="cls-32" d="M157.82,254c5.13-.72,10.65.05,12.66-.65.13,0,5.53-.85,6.32-1,.28-.05,5.43-.42,5.43-.47l4.67-.76c1.57-.62,2.44,1.21,2.81.24S189,235,189,233.93c-.26-7.92-5.11-16.6-5.14-30.37,0-11.6,7.11-34.71,6.73-41.53-.36-6.35.12-12.87-.43-14.53-.26-.8-2.93-5.47-5.39-6.69a25.6,25.6,0,0,0-5.82-2.32c-2.25-.41-6.83-2.93-11.63-2.85-3.57-.05-4.47-.43-7.58-.29-3-.14-4.08.55-7.58.6-4.7-.08-8.71,2.13-10.91,2.54a28.06,28.06,0,0,0-6,2.33c-2.41,1.22-5,5.88-5.28,6.69-.53,1.66-.07,8.18-.42,14.53-.37,6.82,7.81,29.93,7.78,41.53,0,13.77-4.21,21.59-4.46,29.51,0,1.07-1.26,16.19-.91,17.1a6.18,6.18,0,0,0,3.3,2.75l2.47-1.08s5,.41,5.32.47c.77.2,6.06,1,6.19,1,2,.7,3.52-.07,8.54.65" transform="translate(0 31.93)"/><path class="cls-32" d="M167.31,128.25v16.6c-7.58,3-15.16,0-15.16,0V130.09a5.92,5.92,0,0,1,.1-1.14C153.58,122.1,167.31,128.25,167.31,128.25Z" transform="translate(0 31.93)"/><path class="cls-33" d="M148.34,129.75a21.84,21.84,0,0,1-.16,7.69,6.21,6.21,0,0,0,1,.68c4.61,2.67,13.27,1.38,17.82.12,1.89-.53,3.07-1,3-1.28-.92-2-.74-4.84-.45-6.76,0,0,0,0,0-.06h0A20.83,20.83,0,0,1,170,128h-22c.08.24.15.48.21.72S148.28,129.41,148.34,129.75Z" transform="translate(0 31.93)"/><path class="cls-32" d="M182,139.65c2.53.51,4.64,2.45,6.4,4.55A49.42,49.42,0,0,1,195,155c1.75,3.71,3.19,7.59,4.61,11.47q2.81,7.67,5.58,15.36a93.6,93.6,0,0,1,3.12,9.77c.87,3.61,2.57,8.44,1.28,11.88s-6.08,5.19-9.26,4.08c-2.78-1-4.33-4.19-5.58-7.13l-14.65-34.22c-1-2.43-5.25-12.19-5.89-14.79C172.86,145.69,174.27,138.1,182,139.65Z" transform="translate(0 31.93)"/><path class="cls-32" d="M137.55,141c-2.53.51-4.64,2.45-6.4,4.55a49.42,49.42,0,0,0-6.67,10.76c-1.75,3.71-3.19,7.59-4.61,11.47q-2.81,7.67-5.58,15.36a93.6,93.6,0,0,0-3.12,9.77c-.87,3.61-2.57,8.44-1.28,11.88s6.08,5.19,9.26,4.08c2.78-1,4.33-4.19,5.58-7.13l14.65-34.22c1-2.43,5.25-12.19,5.89-14.79C146.67,147,145.26,139.46,137.55,141Z" transform="translate(0 31.93)"/><path class="cls-32" d="M114.37,196.77c-1.76,1-2.83,3.27-3.61,5.64-1.18,3.6-1.46,7.61-1.84,11.7-.36,3.92-.47,8-.54,12-.1,5.3.14,12.42.14,14,0,3.32.13,9.38.38,12.76.27,3.65.57,9.31,2.21,12.51a3.41,3.41,0,0,0,4.68,1.28c1.87-1.4,3.35-8.8,3.6-11.87.74-9.18,2.22-19,3.07-32.81.16-2.54.82-12.79.63-15.41C122.7,200.8,119.72,193.77,114.37,196.77Z" transform="translate(0 31.93)"/><path class="cls-32" d="M139.89,99.34c0-9.82,8.56-17.78,19.12-17.78s19.12,8,19.12,17.78a16.59,16.59,0,0,1-.7,4.73c0,.39,0,.78,0,1.19a50.39,50.39,0,0,1-.8,10.6c-1.35,6.8-4.87,13.12-11.53,17a14.8,14.8,0,0,1-7.42,2.25,14.33,14.33,0,0,1-9.31-4.13c-8.18-7.52-8.89-18.81-8.31-29.47A16.6,16.6,0,0,1,139.89,99.34Z" transform="translate(0 31.93)"/><path class="cls-32" d="M177.54,104.1c0,.38,0,.76,0,1.16a48.73,48.73,0,0,1-.77,10.25c-.07.36-.15.72-.23,1.08-.74-3-1.65-6.07-.93-9,.45-1.85,1.13-4.3-.28-5.36a10.44,10.44,0,0,1-1.11,2.69,17.55,17.55,0,0,0-5.71-14,21.14,21.14,0,0,0-7.68-4.44c-1.78-.58-3.95-.27-5.65-1l-.13,0-.23-.12-.07.18c-.34.78-.7,1.51-1,2.09a38.54,38.54,0,0,1-7,8.83c-2,2-4.25,4.16-5.05,7.11-.65,2.4.88,5,.33,7.47l-.24,0c.92,3.22.53,6.43,1.88,9.35,1.7,3.66,3.57,7.37,6.14,10.09l-.36-.32c-7.91-7.27-8.59-18.19-8-28.49a15.89,15.89,0,0,1-.15-2.09c0-9.49,8.28-17.19,18.49-17.19s18.48,7.7,18.48,17.19A16,16,0,0,1,177.54,104.1Z" transform="translate(0 31.93)"/><path class="cls-32" d="M205.15,196.77c1.76,1,2.83,3.27,3.61,5.64,1.18,3.6,1.46,7.61,1.84,11.7.36,3.92.47,8,.54,12,.1,5.3-.14,12.42-.14,14,0,3.32-.13,9.38-.38,12.76-.27,3.65-.57,9.31-2.21,12.51a3.41,3.41,0,0,1-4.68,1.28c-1.87-1.4-3.35-8.8-3.6-11.87-.74-9.18-2.22-19-3.07-32.81-.16-2.54-.82-12.79-.63-15.41C196.83,200.8,199.81,193.77,205.15,196.77Z" transform="translate(0 31.93)"/><path class="cls-32" d="M191,263C190,220.24,161,220.25,161,220.25s-30-1.64-30.19,43.78c0,4.12,4.08,2.69,13.57,3.67l13.16,2.55s.47-2.31,3.54-2.19a3.28,3.28,0,0,1,3.45,2.85l13.15-3.14C187.2,266.79,191.05,267.09,191,263Z" transform="translate(0 31.93)"/><path class="cls-32" d="M189,233.93" transform="translate(0 31.93)"/><path class="cls-28" d="M188.81,144.49s-3.56,27.91-1.76,39l-1.73,24.39H136.8l-3.23-26.2s.78-7.89-3.12-34.94a16.49,16.49,0,0,1,13.33-8.93s1.15,14.88,15.3,14.87c14.92,0,16.11-15.48,16.11-15.48S185.24,138.86,188.81,144.49Z" transform="translate(0 31.93)"/><path class="cls-18" d="M183.2,140.23a18.8,18.8,0,0,0-3.83-1.35c-2.14-.38-6.82-2.78-11.35-2.92a15.23,15.23,0,0,1,0-5.33c0-.21.08-.36.12-.57a23.52,23.52,0,0,0,7.24-10.44c-.1-.47.22-.87.15-1.34a17.45,17.45,0,0,1,0-7.87c.1-.36.21-.75.31-1.14a7.73,7.73,0,0,0,.27-1.53,2.2,2.2,0,0,0-.86-2.13,8.5,8.5,0,0,1-1.13,2.41c.49-4.78-2-9.53-5.77-12.54a22.14,22.14,0,0,0-7.76-4c-1.85-.54-4.09-.23-5.84-.92l-.23-.1a19.89,19.89,0,0,1-1.09,2,35.35,35.35,0,0,1-7.05,7.87,20.32,20.32,0,0,0-4.38,4.74c-.09.16-.17.32-.25.48a6.56,6.56,0,0,0-.47,1.14,15.83,15.83,0,0,0-.48,4c0,.55-.06,1.09-.13,1.63.07.75.17,1.48.29,2.22,0,.36.11.71.18,1.05a21.78,21.78,0,0,0,.48,2.19,10.24,10.24,0,0,0,.28,1.05c.1.36.2.7.32,1s.28.84.44,1.26.21.55.33.82a22.77,22.77,0,0,0,1.16,2.4c.16.31.34.61.53.92a20.61,20.61,0,0,0,1.65,2.38l.22.27.43.51a2.79,2.79,0,0,0,.31.36,4.13,4.13,0,0,0,.31.34c.21.23.43.47.66.69s.37.38.56.55a5,5,0,0,0,.4.34.21.21,0,0,0,.07.07l.15.16a13.22,13.22,0,0,0,1.15,1,8.3,8.3,0,0,1-.5,4.37s0,.09.07.13c-3.62.49-6.65,2-8.46,2.38a27.67,27.67,0,0,0-6,2.33c-1.76.89-3.64,3.62-4.62,5.34a50.32,50.32,0,0,0-6.2,10.18c-1.05,2.24-2,4.54-2.89,6.87-2.3-9.89.13-24.5,3.42-37.41,3.2-12.54,7.53-31.6,8.93-37.78,0,0,0,0,0,0,.22-1,.37-1.68.42-1.9a.18.18,0,0,1,0-.09,18.42,18.42,0,0,1,1.05-3,14.74,14.74,0,0,1,7.9-7.74c2.34-.89,6.38-1.42,9.1-.13a7.91,7.91,0,0,1,2-2.11c5.61-4,13.47-2,18.12,3.33a25.24,25.24,0,0,1,5.33,10.76h0a.75.75,0,0,1,0,.16,2.79,2.79,0,0,1,.1.4c.16.88.31,2.33.47,4.32.13,1.59.27,3.55.43,5.85.11,1.64.25,3.47.38,5.46C180.37,112.51,181.35,124.74,183.2,140.23Z" transform="translate(0 31.93)"/><polygon class="cls-21" points="136.67 237.76 185.19 237.76 185.72 246 134.82 246 136.67 237.76"/><path class="cls-20" d="M207.67,286.5a2,2,0,0,0,.53-1.78c-1.75-8.72-14.47-70.65-22-70.65H135a2,2,0,0,0-1.87,1.33c-3.2,9.21-21.8,63.36-19.33,70.34,2.35,6.61,16.51,5.88,20.24,5.57a2,2,0,0,1,1.48.49c1.72,1.54,7.14,5.31,15,.54a2,2,0,0,1,2.29.17c2.07,1.72,7.25,4.62,15.44,0a2,2,0,0,1,2.14.13c2.3,1.68,8.28,5,14.75-.45a2,2,0,0,1,2.24-.22C190.22,293.53,198.09,296.25,207.67,286.5Z" transform="translate(0 31.93)"/><path class="cls-12" d="M153.57,125.75a12.46,12.46,0,0,0,9.35-.43,6.36,6.36,0,0,1-5,2.27A6.14,6.14,0,0,1,153.57,125.75Z" transform="translate(0 31.93)"/><path class="cls-29" d="M156,119.59c3.3.69,4.65-1.33,4.68-3C161.47,119.68,159.22,121.36,156,119.59Z" transform="translate(0 31.93)"/><path class="cls-30" d="M165.86,108.65a1.4,1.4,0,0,0-.33.73c-.13.95-.32,2.66.74,3.18,1.26.63,1.86-1,1.89-2a2.71,2.71,0,0,0-.48-1.79A1.15,1.15,0,0,0,165.86,108.65Z" transform="translate(0 31.93)"/><path class="cls-30" d="M150.74,108.65a1.4,1.4,0,0,1,.33.73c.13.95.32,2.66-.74,3.18-1.26.63-1.86-1-1.89-2a2.71,2.71,0,0,1,.48-1.79A1.15,1.15,0,0,1,150.74,108.65Z" transform="translate(0 31.93)"/><path class="cls-31" d="M162.57,101.73c1.72-.38,4.55-1.17,7.54,1.44,1.35,1.17,1.1,1.74-.4.64-2.55-1.87-4.26-1.25-7-.71C161.68,103.3,161.39,102,162.57,101.73Z" transform="translate(0 31.93)"/><path class="cls-31" d="M153.14,101.73c-1.72-.38-4.55-1.17-7.54,1.44-1.35,1.17-1.1,1.74.4.64,2.55-1.87,4.26-1.25,7-.71C154,103.3,154.31,102,153.14,101.73Z" transform="translate(0 31.93)"/><rect class="cls-34" x="11.88" y="272.21" width="317.64" height="58.72" rx="17.67" ry="17.67"/><path class="cls-12" d="M128.5,263.43a1.33,1.33,0,0,1-.3.81,1,1,0,0,1-.81.41,1.42,1.42,0,0,1-.67-.18,4.87,4.87,0,0,0-2.09-.45,4.79,4.79,0,0,0-2.4.58,4,4,0,0,0-1.58,1.64,5.13,5.13,0,0,0-.55,2.42,4.67,4.67,0,0,0,1.25,3.53,5.07,5.07,0,0,0,5.37.75,1.58,1.58,0,0,1,.63-.16,1.08,1.08,0,0,1,.87.43,1.28,1.28,0,0,1,.3.81,1.07,1.07,0,0,1-.16.57,1,1,0,0,1-.45.39,7.23,7.23,0,0,1-3.27.77,7.73,7.73,0,0,1-3.55-.82,6.29,6.29,0,0,1-2.58-2.41,7.33,7.33,0,0,1-1-3.86,7.11,7.11,0,0,1,.92-3.61,6.51,6.51,0,0,1,2.53-2.49,7.39,7.39,0,0,1,3.65-.9,7,7,0,0,1,3.25.77A1.05,1.05,0,0,1,128.5,263.43Z" transform="translate(0 31.93)"/><path class="cls-12" d="M142.41,272.23A6.64,6.64,0,0,1,140,274.8a6.72,6.72,0,0,1-6.88,0,6.57,6.57,0,0,1-2.38-2.57,7.89,7.89,0,0,1,0-7.15,6.56,6.56,0,0,1,2.38-2.57,6.72,6.72,0,0,1,6.88,0,6.63,6.63,0,0,1,2.39,2.57,7.8,7.8,0,0,1,0,7.15Zm-2.23-6a4.29,4.29,0,0,0-1.48-1.71,3.95,3.95,0,0,0-4.27,0,4.16,4.16,0,0,0-1.46,1.7,5.8,5.8,0,0,0,0,4.81,4.16,4.16,0,0,0,1.46,1.71,3.95,3.95,0,0,0,4.27,0,4.3,4.3,0,0,0,1.48-1.71,5.65,5.65,0,0,0,0-4.79Z" transform="translate(0 31.93)"/><path class="cls-12" d="M154,273.57a1.1,1.1,0,0,1,.34.84,1.07,1.07,0,0,1-.34.82,1.2,1.2,0,0,1-.86.33h-6.41a1.18,1.18,0,0,1-1.2-1.2V263a1.15,1.15,0,0,1,.36-.86,1.25,1.25,0,0,1,.91-.34,1.18,1.18,0,0,1,.85.34,1.15,1.15,0,0,1,.35.86v10.29h5.14A1.2,1.2,0,0,1,154,273.57Z" transform="translate(0 31.93)"/><path class="cls-12" d="M165.29,273.63a1.1,1.1,0,0,1,.34.8,1,1,0,0,1-.34.81,1.22,1.22,0,0,1-.86.32h-6.6a1.18,1.18,0,0,1-1.2-1.2V263a1.18,1.18,0,0,1,1.2-1.2h6.6a1.2,1.2,0,0,1,.86.33,1.1,1.1,0,0,1,.34.84,1,1,0,0,1-.33.8,1.24,1.24,0,0,1-.87.31h-5.34v3.35h4.46a1.2,1.2,0,0,1,.86.33,1.1,1.1,0,0,1,.34.84,1,1,0,0,1-.33.8,1.24,1.24,0,0,1-.87.31h-4.46v3.65h5.34A1.17,1.17,0,0,1,165.29,273.63Z" transform="translate(0 31.93)"/><path class="cls-12" d="M178.17,263.43a1.33,1.33,0,0,1-.3.81,1,1,0,0,1-.81.41,1.42,1.42,0,0,1-.67-.18,4.86,4.86,0,0,0-2.09-.45,4.79,4.79,0,0,0-2.41.58,3.94,3.94,0,0,0-1.58,1.64,5.13,5.13,0,0,0-.55,2.42,4.67,4.67,0,0,0,1.25,3.53,5.07,5.07,0,0,0,5.37.75,1.58,1.58,0,0,1,.63-.16,1.08,1.08,0,0,1,.87.43,1.28,1.28,0,0,1,.3.81,1.07,1.07,0,0,1-.16.57,1,1,0,0,1-.45.39,7.23,7.23,0,0,1-3.27.77,7.73,7.73,0,0,1-3.55-.82,6.28,6.28,0,0,1-2.58-2.41,7.32,7.32,0,0,1-1-3.86,7.11,7.11,0,0,1,.92-3.61,6.51,6.51,0,0,1,2.53-2.49,7.39,7.39,0,0,1,3.65-.9,7,7,0,0,1,3.25.77A1.05,1.05,0,0,1,178.17,263.43Z" transform="translate(0 31.93)"/><path class="cls-12" d="M190.19,262.07a1.08,1.08,0,0,1,.34.83,1.05,1.05,0,0,1-.34.82,1.23,1.23,0,0,1-.87.31h-3.09v10.33a1.12,1.12,0,0,1-.37.86,1.32,1.32,0,0,1-.93.34,1.25,1.25,0,0,1-.91-.34,1.15,1.15,0,0,1-.35-.86V264h-3.09a1.22,1.22,0,0,1-.87-.32,1.08,1.08,0,0,1-.33-.83,1,1,0,0,1,.34-.81,1.22,1.22,0,0,1,.86-.32h8.75A1.21,1.21,0,0,1,190.19,262.07Z" transform="translate(0 31.93)"/><path class="cls-12" d="M194.69,275.21a1.24,1.24,0,0,1-.87.34,1.19,1.19,0,0,1-.88-.34,1.16,1.16,0,0,1-.35-.86V263a1.15,1.15,0,0,1,.36-.86,1.25,1.25,0,0,1,.91-.34,1.18,1.18,0,0,1,.85.34,1.15,1.15,0,0,1,.35.86v11.39A1.12,1.12,0,0,1,194.69,275.21Z" transform="translate(0 31.93)"/><path class="cls-12" d="M208.95,262.05a1.06,1.06,0,0,1,.37.81,1.34,1.34,0,0,1-.12.53l-4.87,11.39a1.31,1.31,0,0,1-.49.57,1.13,1.13,0,0,1-1.29,0,1.22,1.22,0,0,1-.44-.54l-4.87-11.43a1.1,1.1,0,0,1-.1-.49,1.06,1.06,0,0,1,.39-.86,1.26,1.26,0,0,1,.81-.33,1.12,1.12,0,0,1,.63.2,1.25,1.25,0,0,1,.45.57l4,9.32,3.63-9.32a1.26,1.26,0,0,1,.45-.55,1.12,1.12,0,0,1,.63-.2A1.23,1.23,0,0,1,208.95,262.05Z" transform="translate(0 31.93)"/><path class="cls-12" d="M223,272.23a6.65,6.65,0,0,1-2.39,2.57,6.72,6.72,0,0,1-6.88,0,6.57,6.57,0,0,1-2.38-2.57,7.89,7.89,0,0,1,0-7.15,6.56,6.56,0,0,1,2.38-2.57,6.72,6.72,0,0,1,6.88,0,6.64,6.64,0,0,1,2.39,2.57,7.81,7.81,0,0,1,0,7.15Zm-2.23-6a4.29,4.29,0,0,0-1.48-1.71,3.95,3.95,0,0,0-4.27,0,4.17,4.17,0,0,0-1.46,1.7,5.8,5.8,0,0,0,0,4.81,4.17,4.17,0,0,0,1.46,1.71,3.95,3.95,0,0,0,4.27,0,4.3,4.3,0,0,0,1.48-1.71,5.65,5.65,0,0,0,0-4.79Z" transform="translate(0 31.93)"/></svg>