<svg id="Layer_1" data-name="Layer 1" xmlns="http://www.w3.org/2000/svg" viewBox="0 0 165 30.5"><defs><style>.cls-1{fill:#4ca2ae;}.cls-2{fill:#fff;}</style></defs><title>crear</title><rect class="cls-1" width="165" height="30.5" rx="14.53" ry="14.53"/><path class="cls-2" d="M72.13,12.51a.7.7,0,0,1-.15.42.51.51,0,0,1-.42.21.75.75,0,0,1-.35-.09,2.69,2.69,0,0,0-2.33.07,2.05,2.05,0,0,0-.82.85,2.65,2.65,0,0,0-.29,1.25,2.42,2.42,0,0,0,.65,1.83,2.63,2.63,0,0,0,2.79.39.84.84,0,0,1,.33-.08.56.56,0,0,1,.45.23.66.66,0,0,1,.15.42.56.56,0,0,1-.08.3.55.55,0,0,1-.23.21,3.76,3.76,0,0,1-1.7.4,4,4,0,0,1-1.84-.43,3.26,3.26,0,0,1-1.34-1.25,3.8,3.8,0,0,1-.5-2,3.69,3.69,0,0,1,.48-1.87,3.36,3.36,0,0,1,1.31-1.3,3.84,3.84,0,0,1,1.89-.47,3.65,3.65,0,0,1,1.69.4A.55.55,0,0,1,72.13,12.51Z"/><path class="cls-2" d="M79,18a.56.56,0,0,1,.08.28.52.52,0,0,1-.12.34.58.58,0,0,1-.47.18.91.91,0,0,1-.45-.11A1.8,1.8,0,0,1,77.35,17a.74.74,0,0,0-.24-.58,1,1,0,0,0-.69-.21H74.5v2a.67.67,0,0,1-.15.45.49.49,0,0,1-.39.17.8.8,0,0,1-.52-.18.56.56,0,0,1-.22-.45V12.27a.61.61,0,0,1,.62-.62h2.95a1.91,1.91,0,0,1,1,.29,2.12,2.12,0,0,1,.75.79,2.26,2.26,0,0,1,.28,1.13,2,2,0,0,1-.28,1,2.22,2.22,0,0,1-.72.77,1.57,1.57,0,0,1,.71,1.21,1.77,1.77,0,0,1,0,.32,3.28,3.28,0,0,0,.08.45.33.33,0,0,0,.18.21A.62.62,0,0,1,79,18Zm-2-3a1.3,1.3,0,0,0,.29-.47,1.7,1.7,0,0,0,.11-.63,1.22,1.22,0,0,0-.11-.53A1.06,1.06,0,0,0,77.1,13a.55.55,0,0,0-.36-.14H74.5v2.32h2.24A.51.51,0,0,0,77.1,15Z"/><path class="cls-2" d="M84.75,17.81a.57.57,0,0,1,.18.42.54.54,0,0,1-.18.42.64.64,0,0,1-.45.16H80.88a.61.61,0,0,1-.62-.62V12.27a.61.61,0,0,1,.62-.62h3.43a.63.63,0,0,1,.45.17.57.57,0,0,1,.18.44.53.53,0,0,1-.18.42.64.64,0,0,1-.45.16H81.53v1.74h2.31a.62.62,0,0,1,.44.17.58.58,0,0,1,.18.44.54.54,0,0,1-.18.42.64.64,0,0,1-.45.16H81.53v1.89h2.78A.61.61,0,0,1,84.75,17.81Z"/><path class="cls-2" d="M91.78,18.26a.58.58,0,0,1-.18.44.56.56,0,0,1-.4.17.53.53,0,0,1-.33-.11.74.74,0,0,1-.23-.31l-.53-1.24H87.06l-.53,1.25a.64.64,0,0,1-.22.3.52.52,0,0,1-.86-.43.63.63,0,0,1,0-.19L88,12a.67.67,0,0,1,.25-.32.53.53,0,0,1,.37-.09.6.6,0,0,1,.57.41l2.52,6A.68.68,0,0,1,91.78,18.26ZM87.56,16h2l-1-2.4Z"/><path class="cls-2" d="M98.48,18a.56.56,0,0,1,.08.28.52.52,0,0,1-.12.34.58.58,0,0,1-.47.18.91.91,0,0,1-.45-.11A1.8,1.8,0,0,1,96.78,17a.74.74,0,0,0-.24-.58,1,1,0,0,0-.69-.21H93.93v2a.67.67,0,0,1-.15.45.49.49,0,0,1-.39.17.8.8,0,0,1-.52-.18.56.56,0,0,1-.22-.45V12.27a.61.61,0,0,1,.62-.62h2.95a1.91,1.91,0,0,1,1,.29,2.12,2.12,0,0,1,.75.79,2.26,2.26,0,0,1,.28,1.13,2,2,0,0,1-.28,1,2.22,2.22,0,0,1-.72.77A1.57,1.57,0,0,1,98,16.82a1.77,1.77,0,0,1,0,.32,3.28,3.28,0,0,0,.08.45.33.33,0,0,0,.18.21A.62.62,0,0,1,98.48,18Zm-2-3a1.3,1.3,0,0,0,.29-.47,1.7,1.7,0,0,0,.11-.63,1.22,1.22,0,0,0-.11-.53,1.06,1.06,0,0,0-.29-.38.55.55,0,0,0-.36-.14H93.93v2.32h2.24A.51.51,0,0,0,96.53,15Z"/></svg>