<svg id="Layer_1" data-name="Layer 1" xmlns="http://www.w3.org/2000/svg" viewBox="0 0 165 30.5"><defs><style>.cls-1{fill:#4ca2ae;}.cls-2{fill:#fff;}</style></defs><title>crearGrupo</title><rect class="cls-1" width="165" height="30.5" rx="14.53" ry="14.53"/><path class="cls-2" d="M53.09,12.54a.7.7,0,0,1-.15.42.51.51,0,0,1-.42.21.75.75,0,0,1-.35-.09,2.69,2.69,0,0,0-2.33.07A2.05,2.05,0,0,0,49,14a2.65,2.65,0,0,0-.29,1.25,2.42,2.42,0,0,0,.65,1.83,2.63,2.63,0,0,0,2.79.39.84.84,0,0,1,.33-.08.56.56,0,0,1,.45.23.66.66,0,0,1,.15.42.56.56,0,0,1-.08.3.55.55,0,0,1-.23.21,3.76,3.76,0,0,1-1.7.4,4,4,0,0,1-1.84-.43,3.26,3.26,0,0,1-1.34-1.25,3.8,3.8,0,0,1-.5-2,3.69,3.69,0,0,1,.48-1.87,3.36,3.36,0,0,1,1.31-1.3,3.84,3.84,0,0,1,1.89-.47,3.65,3.65,0,0,1,1.69.4A.55.55,0,0,1,53.09,12.54Z"/><path class="cls-2" d="M60,18a.56.56,0,0,1,.08.28.52.52,0,0,1-.12.34.58.58,0,0,1-.47.18.91.91,0,0,1-.45-.11A1.8,1.8,0,0,1,58.3,17a.74.74,0,0,0-.24-.58,1,1,0,0,0-.69-.21H55.45v2a.67.67,0,0,1-.15.45.49.49,0,0,1-.39.17.8.8,0,0,1-.52-.18.56.56,0,0,1-.22-.45V12.29a.61.61,0,0,1,.62-.62h2.95a1.91,1.91,0,0,1,1,.29,2.12,2.12,0,0,1,.75.79,2.26,2.26,0,0,1,.28,1.13,2,2,0,0,1-.28,1,2.22,2.22,0,0,1-.72.77,1.57,1.57,0,0,1,.71,1.21,1.77,1.77,0,0,1,0,.32,3.28,3.28,0,0,0,.08.45.33.33,0,0,0,.18.21A.62.62,0,0,1,60,18Zm-2-3a1.3,1.3,0,0,0,.29-.47,1.7,1.7,0,0,0,.11-.63,1.22,1.22,0,0,0-.11-.53,1.06,1.06,0,0,0-.29-.38.55.55,0,0,0-.36-.14H55.45v2.32H57.7A.51.51,0,0,0,58.05,15Z"/><path class="cls-2" d="M65.71,17.84a.57.57,0,0,1,.18.42.54.54,0,0,1-.18.42.64.64,0,0,1-.45.16H61.83a.61.61,0,0,1-.62-.62V12.29a.61.61,0,0,1,.62-.62h3.43a.63.63,0,0,1,.45.17.57.57,0,0,1,.18.44.53.53,0,0,1-.18.42.64.64,0,0,1-.45.16H62.49v1.74H64.8a.62.62,0,0,1,.44.17.58.58,0,0,1,.18.44.54.54,0,0,1-.18.42.64.64,0,0,1-.45.16H62.49v1.89h2.78A.61.61,0,0,1,65.71,17.84Z"/><path class="cls-2" d="M72.74,18.28a.58.58,0,0,1-.18.44.56.56,0,0,1-.4.17.53.53,0,0,1-.33-.11.74.74,0,0,1-.23-.31l-.53-1.24H68l-.53,1.25a.64.64,0,0,1-.22.3.52.52,0,0,1-.86-.43.63.63,0,0,1,0-.19L69,12a.67.67,0,0,1,.25-.32.53.53,0,0,1,.37-.09.6.6,0,0,1,.57.41l2.52,6A.68.68,0,0,1,72.74,18.28Zm-4.22-2.23h2l-1-2.4Z"/><path class="cls-2" d="M79.44,18a.56.56,0,0,1,.08.28.52.52,0,0,1-.12.34.58.58,0,0,1-.47.18.91.91,0,0,1-.45-.11A1.8,1.8,0,0,1,77.73,17a.74.74,0,0,0-.24-.58,1,1,0,0,0-.69-.21H74.89v2a.67.67,0,0,1-.15.45.49.49,0,0,1-.39.17.8.8,0,0,1-.52-.18.56.56,0,0,1-.22-.45V12.29a.61.61,0,0,1,.62-.62h2.95a1.91,1.91,0,0,1,1,.29,2.12,2.12,0,0,1,.75.79,2.26,2.26,0,0,1,.28,1.13,2,2,0,0,1-.28,1,2.22,2.22,0,0,1-.72.77,1.57,1.57,0,0,1,.71,1.21,1.77,1.77,0,0,1,0,.32,3.28,3.28,0,0,0,.08.45.33.33,0,0,0,.18.21A.62.62,0,0,1,79.44,18Zm-2-3a1.3,1.3,0,0,0,.29-.47,1.7,1.7,0,0,0,.11-.63,1.22,1.22,0,0,0-.11-.53,1.06,1.06,0,0,0-.29-.38.55.55,0,0,0-.36-.14H74.89v2.32h2.24A.51.51,0,0,0,77.49,15Z"/><path class="cls-2" d="M89.23,15.14a.61.61,0,0,1,.18.44v2.17a.62.62,0,0,1-.32.55,4.1,4.1,0,0,1-2.2.62,3.75,3.75,0,0,1-3.24-1.84,3.65,3.65,0,0,1,0-3.7,3.75,3.75,0,0,1,3.24-1.84,3.61,3.61,0,0,1,1.76.41.55.55,0,0,1,.31.5.65.65,0,0,1-.17.44.54.54,0,0,1-.42.19A.84.84,0,0,1,88,13a2.9,2.9,0,0,0-1.15-.24,2.31,2.31,0,0,0-1.21.33,2.48,2.48,0,0,0,0,4.25,2.31,2.31,0,0,0,1.21.33,4,4,0,0,0,.61-.05,3.58,3.58,0,0,0,.57-.13V16.19h-1a.61.61,0,0,1-.44-.17.63.63,0,0,1,0-.88.61.61,0,0,1,.44-.17h1.68A.59.59,0,0,1,89.23,15.14Z"/><path class="cls-2" d="M96.46,18a.56.56,0,0,1,.08.28.52.52,0,0,1-.12.34.58.58,0,0,1-.47.18.91.91,0,0,1-.45-.11A1.8,1.8,0,0,1,94.76,17a.74.74,0,0,0-.24-.58,1,1,0,0,0-.69-.21H91.91v2a.67.67,0,0,1-.15.45.49.49,0,0,1-.39.17.8.8,0,0,1-.52-.18.56.56,0,0,1-.22-.45V12.29a.61.61,0,0,1,.62-.62h2.95a1.91,1.91,0,0,1,1,.29,2.12,2.12,0,0,1,.75.79,2.26,2.26,0,0,1,.28,1.13,2,2,0,0,1-.28,1,2.22,2.22,0,0,1-.72.77A1.57,1.57,0,0,1,96,16.85a1.77,1.77,0,0,1,0,.32,3.28,3.28,0,0,0,.08.45.33.33,0,0,0,.18.21A.62.62,0,0,1,96.46,18Zm-2-3a1.3,1.3,0,0,0,.29-.47,1.7,1.7,0,0,0,.11-.63,1.22,1.22,0,0,0-.11-.53,1.06,1.06,0,0,0-.29-.38.55.55,0,0,0-.36-.14H91.91v2.32h2.24A.51.51,0,0,0,94.51,15Z"/><path class="cls-2" d="M103.14,11.83a.64.64,0,0,1,.16.45V16a3.09,3.09,0,0,1-.36,1.5,2.58,2.58,0,0,1-1,1,2.92,2.92,0,0,1-1.47.37A3,3,0,0,1,99,18.52a2.57,2.57,0,0,1-1-1,3.07,3.07,0,0,1-.36-1.5V12.28a.6.6,0,0,1,.18-.45.65.65,0,0,1,.47-.18.62.62,0,0,1,.61.62V16a1.74,1.74,0,0,0,.22.87,1.49,1.49,0,0,0,.58.59,1.56,1.56,0,0,0,.78.21,1.72,1.72,0,0,0,.82-.21,1.55,1.55,0,0,0,.61-.59,1.65,1.65,0,0,0,.23-.87V12.28a.66.66,0,0,1,.15-.45.53.53,0,0,1,.42-.17A.57.57,0,0,1,103.14,11.83Z"/><path class="cls-2" d="M108.79,12a2.3,2.3,0,0,1,.76.84,2.44,2.44,0,0,1,0,2.3,2.3,2.3,0,0,1-.76.84,1.76,1.76,0,0,1-1,.31H106v1.94a.64.64,0,0,1-.16.45.57.57,0,0,1-.43.17.54.54,0,0,1-.42-.18.64.64,0,0,1-.16-.45V12.29a.61.61,0,0,1,.62-.62h2.33A1.76,1.76,0,0,1,108.79,12Zm-.61,3a1.21,1.21,0,0,0,.31-.42,1.34,1.34,0,0,0,0-1.1,1.16,1.16,0,0,0-.31-.42.59.59,0,0,0-.38-.16H106v2.26h1.78A.58.58,0,0,0,108.18,14.94Z"/><path class="cls-2" d="M117.15,17.11a3.47,3.47,0,0,1-1.24,1.34,3.5,3.5,0,0,1-3.57,0,3.43,3.43,0,0,1-1.24-1.34,4.11,4.11,0,0,1,0-3.72,3.43,3.43,0,0,1,1.24-1.34,3.5,3.5,0,0,1,3.57,0,3.46,3.46,0,0,1,1.24,1.34,4.06,4.06,0,0,1,0,3.72ZM116,14a2.23,2.23,0,0,0-.77-.88,2,2,0,0,0-2.22,0,2.16,2.16,0,0,0-.76.88,3,3,0,0,0,0,2.5,2.16,2.16,0,0,0,.76.89,2.06,2.06,0,0,0,2.22,0,2.24,2.24,0,0,0,.77-.89A2.94,2.94,0,0,0,116,14Z"/></svg>