<svg id="Capa_1" data-name="Capa 1" xmlns="http://www.w3.org/2000/svg" xmlns:xlink="http://www.w3.org/1999/xlink" viewBox="0 0 505.2 197.32"><defs><style>.cls-1{fill:none;}.cls-2{fill:#a397c9;}.cls-3{fill:#1d1d1b;opacity:0.8;}.cls-4{clip-path:url(#clip-path);}.cls-5{fill:#5b4d8d;}.cls-14,.cls-16,.cls-17,.cls-5,.cls-7{fill-rule:evenodd;}.cls-6{fill:#fdd481;}.cls-7,.cls-8{fill:#f7bb64;}.cls-9{fill:#ec62a0;}.cls-10{fill:#e3589b;}.cls-11{fill:#ec92bd;}.cls-12{fill:#e34d95;}.cls-13{fill:#fff;}.cls-14{fill:#f7b447;}.cls-15{fill:#29233f;}.cls-16{fill:#6e5aa3;}.cls-17{fill:#7867ac;}</style><clipPath id="clip-path"><rect class="cls-1" x="369" y="16.12" width="136" height="188.16"/></clipPath></defs><title>Dialogo</title><path class="cls-2" d="M425.26,61.92L401.2,46.83V25.92c0-15.54-11-25.92-26.51-25.92H29.77C14.23,0,0,10.38,0,25.92V105c0,15.54,14.23,30.36,29.77,30.36H374.69c15.54,0,26.51-14.82,26.51-30.36V79.14Z"/><path class="cls-3" d="M54.52,39.06a1.06,1.06,0,0,1,.25.75v0.38a1.06,1.06,0,0,1-.25.75,1,1,0,0,1-.73.27H53.57a1,1,0,0,1-.73-0.27,1.06,1.06,0,0,1-.25-0.75V39.81a1.06,1.06,0,0,1,.25-0.75,1,1,0,0,1,.73-0.27h0.22A1,1,0,0,1,54.52,39.06Zm-0.25,4.57,0.44,8a1.14,1.14,0,0,1-.25.86,1.05,1.05,0,0,1-1.55,0,1.15,1.15,0,0,1-.24-0.86l0.42-8a0.75,0.75,0,0,1,.17-0.48A0.53,0.53,0,0,1,53.67,43,0.57,0.57,0,0,1,54.27,43.63Z"/><path class="cls-3" d="M67.5,43a3.48,3.48,0,0,1,.71,2.27,3.68,3.68,0,0,1-1.29,3.17,5.16,5.16,0,0,1-3.15,1H58.63a1,1,0,0,1-1-1V36.33a1,1,0,0,1,1-1h5.14a3.88,3.88,0,0,1,2.77.9,3.41,3.41,0,0,1,1,2.6A3.2,3.2,0,0,1,67,40.58a3,3,0,0,1-1.34,1.15A4,4,0,0,1,67.5,43Zm-2.58-5.24a2,2,0,0,0-1.43-.49H59.71v3.9h3.82a2,2,0,0,0,1.36-.53A2.24,2.24,0,0,0,64.92,37.74ZM65.51,47a2.14,2.14,0,0,0,.66-1.71q0-2.22-2.52-2.22H59.71v4.5h4A2.6,2.6,0,0,0,65.51,47Z"/><path class="cls-3" d="M79,39.17a1,1,0,0,1,.27.68v5.32a4.39,4.39,0,1,1-8.76,0V39.85a0.94,0.94,0,0,1,.27-0.68,0.89,0.89,0,0,1,.67-0.28,0.92,0.92,0,0,1,.69.28,0.94,0.94,0,0,1,.27.68v5.32q0,2.62,2.46,2.62a2.47,2.47,0,0,0,1.86-.66,2.71,2.71,0,0,0,.64-2V39.85a1,1,0,0,1,.27-0.68,0.9,0.9,0,0,1,.67-0.28A0.92,0.92,0,0,1,79,39.17Z"/><path class="cls-3" d="M91,44.34a1,1,0,0,1-.66.25h-7a3.47,3.47,0,0,0,1.11,2.34,3.4,3.4,0,0,0,2.37.88,3.71,3.71,0,0,0,1.56-.28,3.92,3.92,0,0,0,1.06-.72A1.12,1.12,0,0,1,90,46.63a0.76,0.76,0,0,1,.57.24,0.78,0.78,0,0,1,.23.56,1,1,0,0,1-.4.76,4.7,4.7,0,0,1-1.54,1,5.05,5.05,0,0,1-2,.4A5.79,5.79,0,0,1,84,48.89a4.73,4.73,0,0,1-1.9-1.9,5.63,5.63,0,0,1-.67-2.76,6.07,6.07,0,0,1,.69-2.95,5,5,0,0,1,1.82-2,4.69,4.69,0,0,1,4.83,0,5,5,0,0,1,1.8,1.82,5.2,5.2,0,0,1,.7,2.6A0.86,0.86,0,0,1,91,44.34ZM84.45,41a3.1,3.1,0,0,0-1.08,2h5.9V42.83a2.45,2.45,0,0,0-1-1.74,3,3,0,0,0-1.93-.68A3.09,3.09,0,0,0,84.45,41Z"/><path class="cls-3" d="M102.43,43v5.44a1,1,0,0,1-.27.68,0.92,0.92,0,0,1-.69.28,0.89,0.89,0,0,1-.67-0.28,1,1,0,0,1-.27-0.68V43a3,3,0,0,0-.54-1.88,2.09,2.09,0,0,0-1.76-.7,3,3,0,0,0-1.45.35,2.68,2.68,0,0,0-1,.94A2.39,2.39,0,0,0,95.39,43v5.42a1,1,0,0,1-.27.68,0.92,0.92,0,0,1-.69.28,0.9,0.9,0,0,1-.68-0.27,1,1,0,0,1-.26-0.69V39.85a1,1,0,0,1,.27-0.68,0.89,0.89,0,0,1,.67-0.28,0.92,0.92,0,0,1,.69.28,1,1,0,0,1,.27.68v0.7a4.3,4.3,0,0,1,1.45-1.35,3.84,3.84,0,0,1,2-.55Q102.43,38.65,102.43,43Z"/><path class="cls-3" d="M113.65,40.75v6a0.84,0.84,0,0,0,.9,1,1.44,1.44,0,0,0,.38-0.07,1.46,1.46,0,0,1,.38-0.07,0.55,0.55,0,0,1,.44.22,0.84,0.84,0,0,1-.3,1.28,2,2,0,0,1-1.08.3,4.88,4.88,0,0,1-1.21-.14,1.79,1.79,0,0,1-1-.71,2.86,2.86,0,0,1-.43-1.73v-6h-1.16a0.85,0.85,0,0,1-.88-0.88,0.82,0.82,0,0,1,.25-0.62,0.87,0.87,0,0,1,.63-0.24h1.16V37.33a1,1,0,0,1,.27-0.68,0.92,0.92,0,0,1,.69-0.28,0.89,0.89,0,0,1,.67.28,1,1,0,0,1,.27.68V39h1.66a0.85,0.85,0,0,1,.88.88,0.82,0.82,0,0,1-.25.62,0.87,0.87,0,0,1-.63.24h-1.66Z"/><path class="cls-3" d="M124.53,38.92a0.8,0.8,0,0,1,.38.67,1,1,0,0,1-.25.73,0.83,0.83,0,0,1-.61.25,1.9,1.9,0,0,1-.54-0.12,2.25,2.25,0,0,0-.66-0.14,2,2,0,0,0-1.21.43,3.14,3.14,0,0,0-1,1.18,3.72,3.72,0,0,0-.37,1.67v4.82a0.94,0.94,0,0,1-.27.68,0.92,0.92,0,0,1-.69.28,0.9,0.9,0,0,1-.68-0.27,1,1,0,0,1-.26-0.69V39.85a0.94,0.94,0,0,1,.27-0.68,0.89,0.89,0,0,1,.67-0.28,0.92,0.92,0,0,1,.69.28,0.94,0.94,0,0,1,.27.68v1a3.78,3.78,0,0,1,1.32-1.59,3.54,3.54,0,0,1,2-.63A1.51,1.51,0,0,1,124.53,38.92Z"/><path class="cls-3" d="M135.62,39a1,1,0,0,1,.27.71v8.68a0.94,0.94,0,0,1-.27.68,0.92,0.92,0,0,1-.69.28,0.9,0.9,0,0,1-.68-0.27,1,1,0,0,1-.26-0.69V47.89a4.27,4.27,0,0,1-1.42,1.19,4,4,0,0,1-1.94.49,4.54,4.54,0,0,1-2.47-.7,4.81,4.81,0,0,1-1.74-2,6.57,6.57,0,0,1,0-5.62,4.83,4.83,0,0,1,1.73-2,4.57,4.57,0,0,1,4.39-.26A4.07,4.07,0,0,1,134,40.21V39.73a1,1,0,0,1,.26-0.7,0.88,0.88,0,0,1,.68-0.28A0.93,0.93,0,0,1,135.62,39Zm-3.1,8.31A3.24,3.24,0,0,0,133.66,46a4.27,4.27,0,0,0,.41-1.9,4.23,4.23,0,0,0-.41-1.88,3.32,3.32,0,0,0-1.14-1.33,2.93,2.93,0,0,0-1.67-.49,3,3,0,0,0-1.67.48A3.24,3.24,0,0,0,128,42.21a4.62,4.62,0,0,0,0,3.8,3.24,3.24,0,0,0,1.14,1.32A3.14,3.14,0,0,0,132.52,47.33Z"/><path class="cls-3" d="M146.43,39.35a4.85,4.85,0,0,1,1.73,1.94,6.1,6.1,0,0,1,.63,2.8,6.22,6.22,0,0,1-.63,2.82,4.82,4.82,0,0,1-1.73,2,4.42,4.42,0,0,1-2.42.7,4.21,4.21,0,0,1-1.94-.46A4.53,4.53,0,0,1,140.61,48v0.58a0.94,0.94,0,0,1-.27.68,1,1,0,0,1-1.36,0,0.93,0.93,0,0,1-.27-0.69v-13a1,1,0,0,1,.26-0.69,0.9,0.9,0,0,1,.68-0.27,0.92,0.92,0,0,1,.69.28,0.94,0.94,0,0,1,.27.68v4.88a4,4,0,0,1,1.4-1.24,3.92,3.92,0,0,1,2-.52A4.49,4.49,0,0,1,146.43,39.35Zm-1,8A3.28,3.28,0,0,0,146.56,46a4.3,4.3,0,0,0,.41-1.89,4.24,4.24,0,0,0-.41-1.88,3.22,3.22,0,0,0-1.15-1.32,3,3,0,0,0-1.66-.48,3,3,0,0,0-1.68.48,3.23,3.23,0,0,0-1.15,1.31,4.21,4.21,0,0,0-.41,1.89,4.27,4.27,0,0,0,.41,1.9,3.29,3.29,0,0,0,1.15,1.33,3,3,0,0,0,1.68.49A2.94,2.94,0,0,0,145.41,47.32Z"/><path class="cls-3" d="M160.18,39a1,1,0,0,1,.27.71v8.68a0.94,0.94,0,0,1-.27.68,0.92,0.92,0,0,1-.69.28,0.9,0.9,0,0,1-.68-0.27,1,1,0,0,1-.26-0.69V47.89a4.27,4.27,0,0,1-1.42,1.19,4,4,0,0,1-1.94.49,4.54,4.54,0,0,1-2.47-.7,4.81,4.81,0,0,1-1.74-2,6.57,6.57,0,0,1,0-5.62,4.83,4.83,0,0,1,1.73-2,4.57,4.57,0,0,1,4.39-.26,4.07,4.07,0,0,1,1.45,1.12V39.73a1,1,0,0,1,.26-0.7,0.88,0.88,0,0,1,.68-0.28A0.93,0.93,0,0,1,160.18,39Zm-3.1,8.31A3.24,3.24,0,0,0,158.22,46a4.27,4.27,0,0,0,.41-1.9,4.23,4.23,0,0,0-.41-1.88,3.32,3.32,0,0,0-1.14-1.33,2.93,2.93,0,0,0-1.67-.49,3,3,0,0,0-1.67.48,3.24,3.24,0,0,0-1.14,1.32,4.62,4.62,0,0,0,0,3.8,3.24,3.24,0,0,0,1.14,1.32A3.14,3.14,0,0,0,157.08,47.33Z"/><path class="cls-3" d="M161.7,53a0.86,0.86,0,0,1-.25-0.62V52.25a0.88,0.88,0,0,1,.82-0.86,1.81,1.81,0,0,0,1.28-2V39.85a0.94,0.94,0,0,1,.27-0.68,0.92,0.92,0,0,1,.69-0.28,0.89,0.89,0,0,1,.67.28,1,1,0,0,1,.27.68v10a3.7,3.7,0,0,1-.43,1.82,3.07,3.07,0,0,1-1.15,1.2,3,3,0,0,1-1.54.42A0.84,0.84,0,0,1,161.7,53Zm2-15.79a0.83,0.83,0,0,1-.25-0.67V36.27a0.79,0.79,0,0,1,.27-0.68,1.4,1.4,0,0,1,.83-0.2,1.26,1.26,0,0,1,.81.21,0.83,0.83,0,0,1,.25.67v0.32a0.8,0.8,0,0,1-.26.68,1.35,1.35,0,0,1-.82.2A1.29,1.29,0,0,1,163.66,37.26Z"/><path class="cls-3" d="M177.71,46.93a5.09,5.09,0,0,1-1.91,1.94,5.44,5.44,0,0,1-5.34,0,5.08,5.08,0,0,1-1.91-1.94,5.6,5.6,0,0,1-.7-2.8,5.71,5.71,0,0,1,.7-2.82,5,5,0,0,1,1.91-2,5.44,5.44,0,0,1,5.34,0,5.05,5.05,0,0,1,1.91,2,5.72,5.72,0,0,1,.7,2.82A5.6,5.6,0,0,1,177.71,46.93Zm-1.65-4.73a3.34,3.34,0,0,0-1.22-1.32,3.35,3.35,0,0,0-3.42,0,3.35,3.35,0,0,0-1.22,1.32,4.06,4.06,0,0,0-.45,1.93,4,4,0,0,0,.45,1.9,3.36,3.36,0,0,0,1.22,1.31,3.35,3.35,0,0,0,3.42,0A3.36,3.36,0,0,0,176.06,46a4,4,0,0,0,.45-1.9A4.06,4.06,0,0,0,176.06,42.2Z"/><path class="cls-3" d="M182.69,50.4a3.83,3.83,0,0,1-.81,1.11,1.47,1.47,0,0,1-1,.46,0.89,0.89,0,0,1-.56-0.17,0.58,0.58,0,0,1-.22-0.49,0.47,0.47,0,0,1,.14-0.39,1,1,0,0,1,.33-0.17l0.29-.1a1.07,1.07,0,0,0,.43-0.37,0.92,0.92,0,0,0,.15-0.51,0.49,0.49,0,0,0-.18-0.38,0.67,0.67,0,0,0-.46-0.16,0.9,0.9,0,0,0-.54.16,0.75,0.75,0,0,1-.3-0.25,0.73,0.73,0,0,1-.1-0.41,1.12,1.12,0,0,1,.52-0.85,1.75,1.75,0,0,1,1.06-.37,1.49,1.49,0,0,1,1.16.46,1.83,1.83,0,0,1,.42,1.28A2.67,2.67,0,0,1,182.69,50.4Z"/><path class="cls-3" d="M190.19,47.19a0.81,0.81,0,0,1,.42-0.68,0.78,0.78,0,0,1,.46-0.14,0.92,0.92,0,0,1,.66.3,4.2,4.2,0,0,0,1.29,1,3.69,3.69,0,0,0,1.65.34,2.82,2.82,0,0,0,1.34-.35,1.24,1.24,0,0,0,0-2.11,6.71,6.71,0,0,0-1.73-.66,12.78,12.78,0,0,1-1.86-.63,3.34,3.34,0,0,1-1.25-1,2.81,2.81,0,0,1,0-3.23A3.39,3.39,0,0,1,192.52,39a4.48,4.48,0,0,1,1.85-.38,5.35,5.35,0,0,1,1.91.36,3.59,3.59,0,0,1,1.55,1.1,0.88,0.88,0,0,1,.24.58,0.86,0.86,0,0,1-.32.62,0.72,0.72,0,0,1-.5.18,0.75,0.75,0,0,1-.58-0.24,2.81,2.81,0,0,0-1-.74,3.41,3.41,0,0,0-1.35-.26,2.52,2.52,0,0,0-1.29.31,1.12,1.12,0,0,0-.53,1.05,1.16,1.16,0,0,0,.61,1,7.72,7.72,0,0,0,1.81.66,11.19,11.19,0,0,1,1.76.6,3.08,3.08,0,0,1,1.18,1,2.65,2.65,0,0,1,.48,1.65,2.57,2.57,0,0,1-.54,1.63,3.48,3.48,0,0,1-1.41,1.06,4.68,4.68,0,0,1-1.85.37,6.07,6.07,0,0,1-2.33-.44,4.34,4.34,0,0,1-1.81-1.4A1,1,0,0,1,190.19,47.19Z"/><path class="cls-3" d="M200.52,37.26a0.83,0.83,0,0,1-.25-0.67V36.27a0.79,0.79,0,0,1,.27-0.68,1.39,1.39,0,0,1,.83-0.2,1.26,1.26,0,0,1,.81.21,0.83,0.83,0,0,1,.25.67v0.32a0.81,0.81,0,0,1-.26.68,1.35,1.35,0,0,1-.82.2A1.3,1.3,0,0,1,200.52,37.26ZM202,49.09a0.92,0.92,0,0,1-.69.28,0.89,0.89,0,0,1-.67-0.28,1,1,0,0,1-.27-0.68V39.75a0.94,0.94,0,0,1,.27-0.68,0.89,0.89,0,0,1,.67-0.28,0.92,0.92,0,0,1,.69.28,0.94,0.94,0,0,1,.27.68v8.66A1,1,0,0,1,202,49.09Z"/><path class="cls-3" d="M214.5,39a1,1,0,0,1,.27.71v8.8a5,5,0,0,1-.69,2.71,4.15,4.15,0,0,1-1.87,1.61,6.53,6.53,0,0,1-2.66.52,7.53,7.53,0,0,1-1.87-.28,3.33,3.33,0,0,1-1.37-.58,0.93,0.93,0,0,1-.62-0.8,0.91,0.91,0,0,1,.08-0.32,0.76,0.76,0,0,1,.74-0.5,1.51,1.51,0,0,1,.56.12,7.52,7.52,0,0,0,2.5.62,3.53,3.53,0,0,0,2.45-.77,2.71,2.71,0,0,0,.85-2.11V47.67A3.48,3.48,0,0,1,211.46,49a4.19,4.19,0,0,1-2.09.56,4.72,4.72,0,0,1-2.52-.7,4.87,4.87,0,0,1-1.79-2,6.39,6.39,0,0,1,0-5.62,4.89,4.89,0,0,1,1.78-2,4.64,4.64,0,0,1,2.49-.7,4.55,4.55,0,0,1,3.54,1.72V39.73a1,1,0,0,1,.26-0.7,0.88,0.88,0,0,1,.68-0.28A0.94,0.94,0,0,1,214.5,39Zm-3.17,8.32A3.23,3.23,0,0,0,212.52,46a4.16,4.16,0,0,0,.43-1.91,4.1,4.1,0,0,0-.43-1.9,3.31,3.31,0,0,0-1.19-1.32,3.19,3.19,0,0,0-1.74-.48,3.15,3.15,0,0,0-1.72.48,3.28,3.28,0,0,0-1.19,1.33,4.37,4.37,0,0,0,0,3.78,3.28,3.28,0,0,0,1.19,1.33,3.15,3.15,0,0,0,1.72.48A3.24,3.24,0,0,0,211.33,47.34Z"/><path class="cls-3" d="M225.92,39.17a1,1,0,0,1,.27.68v5.32a4.39,4.39,0,1,1-8.76,0V39.85a1,1,0,0,1,.27-0.68,0.89,0.89,0,0,1,.67-0.28,0.92,0.92,0,0,1,.69.28,1,1,0,0,1,.27.68v5.32q0,2.62,2.46,2.62a2.47,2.47,0,0,0,1.86-.66,2.71,2.71,0,0,0,.64-2V39.85a1,1,0,0,1,.27-0.68,0.89,0.89,0,0,1,.67-0.28A0.92,0.92,0,0,1,225.92,39.17Z"/><path class="cls-3" d="M237.92,44.34a1,1,0,0,1-.66.25h-7a3.48,3.48,0,0,0,1.11,2.34,3.4,3.4,0,0,0,2.37.88,3.72,3.72,0,0,0,1.56-.28,3.92,3.92,0,0,0,1.06-.72,1.13,1.13,0,0,1,.58-0.18,0.76,0.76,0,0,1,.57.24,0.79,0.79,0,0,1,.23.56,1,1,0,0,1-.4.76,4.71,4.71,0,0,1-1.54,1,5.06,5.06,0,0,1-2,.4,5.79,5.79,0,0,1-2.85-.68,4.73,4.73,0,0,1-1.9-1.9,5.63,5.63,0,0,1-.67-2.76,6.08,6.08,0,0,1,.69-2.95,5,5,0,0,1,1.82-2,4.69,4.69,0,0,1,4.83,0,5,5,0,0,1,1.8,1.82,5.2,5.2,0,0,1,.7,2.6A0.86,0.86,0,0,1,237.92,44.34ZM231.38,41a3.1,3.1,0,0,0-1.08,2h5.9V42.83a2.44,2.44,0,0,0-1-1.74,3,3,0,0,0-1.93-.68A3.09,3.09,0,0,0,231.38,41Z"/><path class="cls-3" d="M255.16,39a1,1,0,0,1,.27.71v8.68a1,1,0,0,1-.27.68,0.92,0.92,0,0,1-.69.28,0.9,0.9,0,0,1-.68-0.27,1,1,0,0,1-.26-0.69V47.89a4.28,4.28,0,0,1-1.42,1.19,4,4,0,0,1-1.94.49,4.53,4.53,0,0,1-2.47-.7,4.8,4.8,0,0,1-1.74-2,6.58,6.58,0,0,1,0-5.62,4.83,4.83,0,0,1,1.73-2,4.42,4.42,0,0,1,2.42-.7,4.46,4.46,0,0,1,2,.44,4.09,4.09,0,0,1,1.45,1.12V39.73a1,1,0,0,1,.26-0.7,0.89,0.89,0,0,1,.68-0.28A0.94,0.94,0,0,1,255.16,39Zm-3.1,8.31A3.24,3.24,0,0,0,253.2,46a4.27,4.27,0,0,0,.41-1.9,4.23,4.23,0,0,0-.41-1.88,3.32,3.32,0,0,0-1.14-1.33,2.93,2.93,0,0,0-1.67-.49,3,3,0,0,0-1.67.48,3.24,3.24,0,0,0-1.14,1.32,4.61,4.61,0,0,0,0,3.8,3.24,3.24,0,0,0,1.14,1.32A3.14,3.14,0,0,0,252.05,47.33Z"/><path class="cls-3" d="M257.46,47.19a0.81,0.81,0,0,1,.42-0.68,0.78,0.78,0,0,1,.46-0.14,0.92,0.92,0,0,1,.66.3,4.23,4.23,0,0,0,1.29,1,3.69,3.69,0,0,0,1.65.34,2.82,2.82,0,0,0,1.34-.35,1.14,1.14,0,0,0,.58-1.07,1.15,1.15,0,0,0-.59-1,6.72,6.72,0,0,0-1.73-.66,12.78,12.78,0,0,1-1.86-.63,3.34,3.34,0,0,1-1.25-1,2.81,2.81,0,0,1,0-3.23A3.4,3.4,0,0,1,259.79,39a4.48,4.48,0,0,1,1.85-.38,5.35,5.35,0,0,1,1.91.36,3.58,3.58,0,0,1,1.55,1.1,0.88,0.88,0,0,1,.24.58,0.86,0.86,0,0,1-.32.62,0.72,0.72,0,0,1-.5.18,0.75,0.75,0,0,1-.58-0.24,2.82,2.82,0,0,0-1-.74,3.41,3.41,0,0,0-1.35-.26,2.51,2.51,0,0,0-1.29.31,1.12,1.12,0,0,0-.53,1.05,1.16,1.16,0,0,0,.61,1,7.73,7.73,0,0,0,1.81.66,11.21,11.21,0,0,1,1.76.6,3.06,3.06,0,0,1,1.18,1,2.65,2.65,0,0,1,.48,1.65,2.56,2.56,0,0,1-.54,1.63,3.48,3.48,0,0,1-1.41,1.06,4.68,4.68,0,0,1-1.85.37,6.06,6.06,0,0,1-2.33-.44,4.34,4.34,0,0,1-1.81-1.4A1,1,0,0,1,257.46,47.19Z"/><path class="cls-3" d="M267.79,37.26a0.83,0.83,0,0,1-.25-0.67V36.27a0.79,0.79,0,0,1,.27-0.68,1.39,1.39,0,0,1,.83-0.2,1.26,1.26,0,0,1,.81.21,0.83,0.83,0,0,1,.25.67v0.32a0.81,0.81,0,0,1-.26.68,1.35,1.35,0,0,1-.82.2A1.3,1.3,0,0,1,267.79,37.26Zm1.52,11.83a0.92,0.92,0,0,1-.69.28,0.89,0.89,0,0,1-.67-0.28,1,1,0,0,1-.27-0.68V39.75a0.94,0.94,0,0,1,.27-0.68,0.89,0.89,0,0,1,.67-0.28,0.92,0.92,0,0,1,.69.28,0.94,0.94,0,0,1,.27.68v8.66A1,1,0,0,1,269.32,49.09Z"/><path class="cls-3" d="M272.4,49.1a1.06,1.06,0,0,1-.25-0.75V48a1.06,1.06,0,0,1,.25-0.75,0.94,0.94,0,0,1,.73-0.27h0.22a1,1,0,0,1,.73.27,1.06,1.06,0,0,1,.25.75v0.38a1.07,1.07,0,0,1-.25.75,1,1,0,0,1-.73.27h-0.22A0.94,0.94,0,0,1,272.4,49.1Zm0.25-4.57-0.44-8a1.13,1.13,0,0,1,.25-0.86,1.05,1.05,0,0,1,1.55,0,1.16,1.16,0,0,1,.24.86l-0.42,8a0.76,0.76,0,0,1-.17.48,0.54,0.54,0,0,1-.41.16A0.57,0.57,0,0,1,272.65,44.53Z"/><path class="cls-3" d="M293.58,48.51a0.91,0.91,0,0,1-.9.92,0.84,0.84,0,0,1-.51-0.17,1.2,1.2,0,0,1-.37-0.47l-1.24-2.94h-6.18l-1.22,3a0.87,0.87,0,0,1-.84.62,0.87,0.87,0,0,1-.64-0.22,0.81,0.81,0,0,1-.22-0.6,2.35,2.35,0,0,1,0-.32l5.1-12.36a1.12,1.12,0,0,1,.39-0.49,0.81,0.81,0,0,1,.57-0.13,1,1,0,0,1,.54.16,0.86,0.86,0,0,1,.34.46l5.08,12.2A1.2,1.2,0,0,1,293.58,48.51ZM285.14,44h4.66l-2.34-5.6Z"/><path class="cls-3" d="M304.1,43.07v5.34a0.94,0.94,0,0,1-.27.68,0.92,0.92,0,0,1-.69.28,0.89,0.89,0,0,1-.67-0.28,0.94,0.94,0,0,1-.27-0.68V43.07q0-2.6-2.2-2.6a2.71,2.71,0,0,0-2,.75,2.46,2.46,0,0,0-.78,1.85v5.34a0.94,0.94,0,0,1-.27.68,0.92,0.92,0,0,1-.69.28,0.9,0.9,0,0,1-.68-0.27,1,1,0,0,1-.26-0.69V35.53a0.94,0.94,0,0,1,.27-0.68,0.89,0.89,0,0,1,.67-0.28,0.92,0.92,0,0,1,.69.28,0.94,0.94,0,0,1,.27.68v5.06a4.27,4.27,0,0,1,1.4-1.33,3.62,3.62,0,0,1,1.92-.55Q304.1,38.71,304.1,43.07Z"/><path class="cls-3" d="M316.16,46.93a5.09,5.09,0,0,1-1.91,1.94,5.44,5.44,0,0,1-5.34,0A5.08,5.08,0,0,1,307,46.93a5.59,5.59,0,0,1-.7-2.8,5.7,5.7,0,0,1,.7-2.82,5,5,0,0,1,1.91-2,5.44,5.44,0,0,1,5.34,0,5.05,5.05,0,0,1,1.91,2,5.71,5.71,0,0,1,.7,2.82A5.6,5.6,0,0,1,316.16,46.93Zm-1.65-4.73a3.34,3.34,0,0,0-1.22-1.32,3.35,3.35,0,0,0-3.42,0,3.34,3.34,0,0,0-1.22,1.32,4.06,4.06,0,0,0-.45,1.93,4,4,0,0,0,.45,1.9,3.36,3.36,0,0,0,1.22,1.31,3.35,3.35,0,0,0,3.42,0A3.35,3.35,0,0,0,314.51,46a4,4,0,0,0,.45-1.9A4.06,4.06,0,0,0,314.51,42.2Z"/><path class="cls-3" d="M325.18,38.92a0.8,0.8,0,0,1,.38.67,1,1,0,0,1-.25.73,0.83,0.83,0,0,1-.61.25,1.91,1.91,0,0,1-.54-0.12,2.25,2.25,0,0,0-.66-0.14,2,2,0,0,0-1.21.43,3.14,3.14,0,0,0-1,1.18,3.72,3.72,0,0,0-.37,1.67v4.82a0.94,0.94,0,0,1-.27.68,0.92,0.92,0,0,1-.69.28,0.9,0.9,0,0,1-.68-0.27,1,1,0,0,1-.26-0.69V39.85a0.94,0.94,0,0,1,.27-0.68,0.89,0.89,0,0,1,.67-0.28,0.92,0.92,0,0,1,.69.28,0.94,0.94,0,0,1,.27.68v1a3.78,3.78,0,0,1,1.32-1.59,3.55,3.55,0,0,1,2-.63A1.52,1.52,0,0,1,325.18,38.92Z"/><path class="cls-3" d="M336.27,39a1,1,0,0,1,.27.71v8.68a1,1,0,0,1-.27.68,0.92,0.92,0,0,1-.69.28,0.9,0.9,0,0,1-.68-0.27,1,1,0,0,1-.26-0.69V47.89a4.29,4.29,0,0,1-1.42,1.19,4,4,0,0,1-1.94.49,4.53,4.53,0,0,1-2.47-.7,4.8,4.8,0,0,1-1.74-2,6.58,6.58,0,0,1,0-5.62,4.83,4.83,0,0,1,1.73-2,4.42,4.42,0,0,1,2.42-.7,4.47,4.47,0,0,1,2,.44,4.09,4.09,0,0,1,1.45,1.12V39.73a1,1,0,0,1,.26-0.7,0.88,0.88,0,0,1,.68-0.28A0.94,0.94,0,0,1,336.27,39Zm-3.1,8.31A3.25,3.25,0,0,0,334.31,46a4.29,4.29,0,0,0,.41-1.9,4.24,4.24,0,0,0-.41-1.88,3.33,3.33,0,0,0-1.14-1.33,2.93,2.93,0,0,0-1.67-.49,3,3,0,0,0-1.67.48,3.24,3.24,0,0,0-1.14,1.32,4.61,4.61,0,0,0,0,3.8,3.24,3.24,0,0,0,1.14,1.32A3.14,3.14,0,0,0,333.17,47.33Z"/><path class="cls-3" d="M62,58.84a0.93,0.93,0,0,1,.27.69V72.41a1,1,0,0,1-.27.68,0.92,0.92,0,0,1-.69.28,0.9,0.9,0,0,1-.68-0.27,1,1,0,0,1-.26-0.69V71.85a4.06,4.06,0,0,1-1.41,1.22,4,4,0,0,1-2,.5,4.48,4.48,0,0,1-2.46-.7,4.9,4.9,0,0,1-1.74-2,6.07,6.07,0,0,1-.64-2.81,6.16,6.16,0,0,1,.63-2.81,4.83,4.83,0,0,1,1.73-2,4.55,4.55,0,0,1,4.38-.26,4.21,4.21,0,0,1,1.46,1.14v-4.7a1,1,0,0,1,.26-0.69,0.9,0.9,0,0,1,.68-0.27A0.93,0.93,0,0,1,62,58.84Zm-3.1,12.49A3.24,3.24,0,0,0,60,70a4.58,4.58,0,0,0,0-3.79,3.23,3.23,0,0,0-1.14-1.33,3.14,3.14,0,0,0-3.34,0,3.23,3.23,0,0,0-1.14,1.33,4.58,4.58,0,0,0,0,3.79,3.24,3.24,0,0,0,1.14,1.32A3.14,3.14,0,0,0,58.86,71.33Z"/><path class="cls-3" d="M74.24,63a1,1,0,0,1,.27.71v8.68a0.94,0.94,0,0,1-.27.68,0.92,0.92,0,0,1-.69.28,0.9,0.9,0,0,1-.68-0.27,1,1,0,0,1-.26-0.69V71.89a4.27,4.27,0,0,1-1.42,1.19,4,4,0,0,1-1.94.49,4.54,4.54,0,0,1-2.47-.7,4.81,4.81,0,0,1-1.74-2,6.57,6.57,0,0,1,0-5.62,4.83,4.83,0,0,1,1.73-2,4.57,4.57,0,0,1,4.39-.26,4.07,4.07,0,0,1,1.45,1.12V63.73a1,1,0,0,1,.26-0.7,0.88,0.88,0,0,1,.68-0.28A0.93,0.93,0,0,1,74.24,63Zm-3.1,8.31A3.24,3.24,0,0,0,72.28,70a4.27,4.27,0,0,0,.41-1.9,4.23,4.23,0,0,0-.41-1.88,3.32,3.32,0,0,0-1.14-1.33,2.93,2.93,0,0,0-1.67-.49,3,3,0,0,0-1.67.48,3.24,3.24,0,0,0-1.14,1.32,4.62,4.62,0,0,0,0,3.8,3.24,3.24,0,0,0,1.14,1.32A3.14,3.14,0,0,0,71.14,71.33Z"/><path class="cls-3" d="M90.06,63.15a1.49,1.49,0,0,1,1,1.28,0.94,0.94,0,0,1-.22.61,0.69,0.69,0,0,1-.56.27,0.87,0.87,0,0,1-.41-0.08A4.31,4.31,0,0,1,89.51,65a2.18,2.18,0,0,0-.38-0.28,2.64,2.64,0,0,0-.68-0.2,4.51,4.51,0,0,0-.8-0.08,3.51,3.51,0,0,0-1.84.48,3.27,3.27,0,0,0-1.24,1.33,4.05,4.05,0,0,0-.44,1.89,4.1,4.1,0,0,0,.43,1.9,3.25,3.25,0,0,0,1.21,1.32,3.33,3.33,0,0,0,1.78.48,3.77,3.77,0,0,0,1.68-.32,4,4,0,0,0,.38-0.26A2.37,2.37,0,0,1,90,71a0.78,0.78,0,0,1,.37-0.08,0.81,0.81,0,0,1,.63.25,0.92,0.92,0,0,1,.23.65,1.11,1.11,0,0,1-.53.83,4.25,4.25,0,0,1-1.42.67,6.78,6.78,0,0,1-1.91.26,5,5,0,0,1-2.68-.71,4.75,4.75,0,0,1-1.79-2,6.11,6.11,0,0,1-.63-2.79,5.88,5.88,0,0,1,.66-2.79,4.91,4.91,0,0,1,1.84-2,5.13,5.13,0,0,1,2.7-.71A6.11,6.11,0,0,1,90.06,63.15Z"/><path class="cls-3" d="M94.93,73.09a0.93,0.93,0,0,1-.68.28,0.89,0.89,0,0,1-.67-0.28,1,1,0,0,1-.27-0.68V59.53a1,1,0,0,1,1-1,0.89,0.89,0,0,1,.67.28,1,1,0,0,1,.27.68V72.41A0.93,0.93,0,0,1,94.93,73.09Z"/><path class="cls-3" d="M98.22,61.26A0.83,0.83,0,0,1,98,60.59V60.27a0.79,0.79,0,0,1,.27-0.68,1.4,1.4,0,0,1,.83-0.2,1.25,1.25,0,0,1,.81.21,0.83,0.83,0,0,1,.25.67v0.32a0.81,0.81,0,0,1-.26.68,1.35,1.35,0,0,1-.82.2A1.29,1.29,0,0,1,98.22,61.26Zm1.52,11.83a0.92,0.92,0,0,1-.69.28,0.89,0.89,0,0,1-.67-0.28,1,1,0,0,1-.27-0.68V63.75a0.94,0.94,0,0,1,.27-0.68A0.89,0.89,0,0,1,99,62.79a0.92,0.92,0,0,1,.69.28,0.94,0.94,0,0,1,.27.68v8.66A1,1,0,0,1,99.74,73.09Z"/><path class="cls-3" d="M109.94,63.15a1.49,1.49,0,0,1,1,1.28,0.94,0.94,0,0,1-.22.61,0.69,0.69,0,0,1-.56.27,0.87,0.87,0,0,1-.41-0.08,4.31,4.31,0,0,1-.41-0.26,2.18,2.18,0,0,0-.38-0.28,2.64,2.64,0,0,0-.68-0.2,4.51,4.51,0,0,0-.8-0.08,3.51,3.51,0,0,0-1.84.48,3.27,3.27,0,0,0-1.24,1.33,4.05,4.05,0,0,0-.44,1.89,4.1,4.1,0,0,0,.43,1.9,3.25,3.25,0,0,0,1.21,1.32,3.33,3.33,0,0,0,1.78.48,3.77,3.77,0,0,0,1.68-.32,4,4,0,0,0,.38-0.26,2.37,2.37,0,0,1,.35-0.24,0.78,0.78,0,0,1,.37-0.08,0.81,0.81,0,0,1,.63.25,0.92,0.92,0,0,1,.23.65,1.11,1.11,0,0,1-.53.83,4.25,4.25,0,0,1-1.42.67,6.78,6.78,0,0,1-1.91.26,5,5,0,0,1-2.68-.71,4.75,4.75,0,0,1-1.79-2,6.11,6.11,0,0,1-.63-2.79,5.88,5.88,0,0,1,.66-2.79,4.91,4.91,0,0,1,1.84-2,5.13,5.13,0,0,1,2.7-.71A6.11,6.11,0,0,1,109.94,63.15Z"/><path class="cls-3" d="M121.89,72.41a0.85,0.85,0,0,1-.31.67,1,1,0,0,1-.65.27,0.85,0.85,0,0,1-.7-0.32l-3.94-4.18-1.2,1.08v2.48a1,1,0,0,1-.27.68,0.89,0.89,0,0,1-.67.28,0.92,0.92,0,0,1-.69-0.28,1,1,0,0,1-.27-0.68V59.53a1,1,0,0,1,.27-0.68,0.92,0.92,0,0,1,.69-0.28,0.89,0.89,0,0,1,.67.28,1,1,0,0,1,.27.68v8.12l4.9-4.5a1.05,1.05,0,0,1,.7-0.3,0.85,0.85,0,0,1,.62.29,0.87,0.87,0,0,1,.28.61,0.93,0.93,0,0,1-.38.72l-3.46,3.08,3.84,4.16A1,1,0,0,1,121.89,72.41Z"/><path class="cls-3" d="M138.57,68.34a1,1,0,0,1-.66.25h-7A3.47,3.47,0,0,0,132,70.93a3.4,3.4,0,0,0,2.37.88,3.71,3.71,0,0,0,1.56-.28,3.92,3.92,0,0,0,1.06-.72,1.12,1.12,0,0,1,.58-0.18,0.76,0.76,0,0,1,.57.24,0.78,0.78,0,0,1,.23.56,1,1,0,0,1-.4.76,4.7,4.7,0,0,1-1.54,1,5.05,5.05,0,0,1-2,.4,5.79,5.79,0,0,1-2.85-.68,4.73,4.73,0,0,1-1.9-1.9,5.63,5.63,0,0,1-.67-2.76,6.07,6.07,0,0,1,.69-2.95,5,5,0,0,1,1.82-2,4.69,4.69,0,0,1,4.83,0,5,5,0,0,1,1.8,1.82,5.2,5.2,0,0,1,.7,2.6A0.86,0.86,0,0,1,138.57,68.34ZM132,65a3.1,3.1,0,0,0-1.08,2h5.9V66.83a2.45,2.45,0,0,0-1-1.74,3,3,0,0,0-1.93-.68A3.09,3.09,0,0,0,132,65Z"/><path class="cls-3" d="M150,67v5.44a1,1,0,0,1-.27.68,0.92,0.92,0,0,1-.69.28,0.89,0.89,0,0,1-.67-0.28,1,1,0,0,1-.27-0.68V67a3,3,0,0,0-.54-1.88,2.09,2.09,0,0,0-1.76-.7,3,3,0,0,0-1.45.35,2.68,2.68,0,0,0-1,.94A2.39,2.39,0,0,0,143,67v5.42a1,1,0,0,1-.27.68,0.92,0.92,0,0,1-.69.28,0.9,0.9,0,0,1-.68-0.27,1,1,0,0,1-.26-0.69V63.85a1,1,0,0,1,.27-0.68,0.89,0.89,0,0,1,.67-0.28,0.92,0.92,0,0,1,.69.28,1,1,0,0,1,.27.68v0.7a4.3,4.3,0,0,1,1.45-1.35,3.84,3.84,0,0,1,2-.55Q150,62.65,150,67Z"/><path class="cls-3" d="M167.29,68.34a1,1,0,0,1-.66.25h-7a3.47,3.47,0,0,0,1.11,2.34,3.4,3.4,0,0,0,2.37.88,3.71,3.71,0,0,0,1.56-.28,3.92,3.92,0,0,0,1.06-.72,1.12,1.12,0,0,1,.58-0.18,0.76,0.76,0,0,1,.57.24,0.78,0.78,0,0,1,.23.56,1,1,0,0,1-.4.76,4.7,4.7,0,0,1-1.54,1,5.05,5.05,0,0,1-2,.4,5.79,5.79,0,0,1-2.85-.68,4.73,4.73,0,0,1-1.9-1.9,5.63,5.63,0,0,1-.67-2.76,6.07,6.07,0,0,1,.69-2.95,5,5,0,0,1,1.82-2,4.69,4.69,0,0,1,4.83,0,5,5,0,0,1,1.8,1.82,5.2,5.2,0,0,1,.7,2.6A0.86,0.86,0,0,1,167.29,68.34ZM160.75,65a3.1,3.1,0,0,0-1.08,2h5.9V66.83a2.45,2.45,0,0,0-1-1.74,3,3,0,0,0-1.93-.68A3.09,3.09,0,0,0,160.75,65Z"/><path class="cls-3" d="M171.57,73.09a0.93,0.93,0,0,1-.68.28,0.89,0.89,0,0,1-.67-0.28,1,1,0,0,1-.27-0.68V59.53a1,1,0,0,1,1-1,0.89,0.89,0,0,1,.67.28,1,1,0,0,1,.27.68V72.41A0.93,0.93,0,0,1,171.57,73.09Z"/><path class="cls-3" d="M188.11,63.35a4.85,4.85,0,0,1,1.73,1.94,6.1,6.1,0,0,1,.63,2.8,6.22,6.22,0,0,1-.63,2.82,4.82,4.82,0,0,1-1.73,2,4.42,4.42,0,0,1-2.42.7,4.21,4.21,0,0,1-1.94-.46A4.53,4.53,0,0,1,182.29,72v0.58a0.94,0.94,0,0,1-.27.68,1,1,0,0,1-1.36,0,0.93,0.93,0,0,1-.27-0.69v-13a1,1,0,0,1,.26-0.69,0.9,0.9,0,0,1,.68-0.27,0.92,0.92,0,0,1,.69.28,0.94,0.94,0,0,1,.27.68v4.88a4,4,0,0,1,1.4-1.24,3.92,3.92,0,0,1,2-.52A4.49,4.49,0,0,1,188.11,63.35Zm-1,8A3.28,3.28,0,0,0,188.24,70a4.3,4.3,0,0,0,.41-1.89,4.24,4.24,0,0,0-.41-1.88,3.22,3.22,0,0,0-1.15-1.32,3,3,0,0,0-1.66-.48,3,3,0,0,0-1.68.48,3.23,3.23,0,0,0-1.15,1.31,4.21,4.21,0,0,0-.41,1.89,4.27,4.27,0,0,0,.41,1.9,3.29,3.29,0,0,0,1.15,1.33,3,3,0,0,0,1.68.49A2.94,2.94,0,0,0,187.09,71.32Z"/><path class="cls-3" d="M201.89,70.93A5.09,5.09,0,0,1,200,72.87a5.44,5.44,0,0,1-5.34,0,5.09,5.09,0,0,1-1.91-1.94,5.6,5.6,0,0,1-.7-2.8,5.71,5.71,0,0,1,.7-2.82,5.05,5.05,0,0,1,1.91-2,5.44,5.44,0,0,1,5.34,0,5.05,5.05,0,0,1,1.91,2,5.71,5.71,0,0,1,.7,2.82A5.6,5.6,0,0,1,201.89,70.93Zm-1.65-4.73A3.35,3.35,0,0,0,199,64.88a3.35,3.35,0,0,0-3.42,0,3.34,3.34,0,0,0-1.22,1.32,4.06,4.06,0,0,0-.45,1.93,4,4,0,0,0,.45,1.9,3.35,3.35,0,0,0,1.22,1.31,3.35,3.35,0,0,0,3.42,0A3.36,3.36,0,0,0,200.24,70a4,4,0,0,0,.45-1.9A4.06,4.06,0,0,0,200.24,66.2Z"/><path class="cls-3" d="M207.63,64.75v6a0.84,0.84,0,0,0,.9,1,1.44,1.44,0,0,0,.38-0.07,1.46,1.46,0,0,1,.38-0.07,0.55,0.55,0,0,1,.44.22,0.84,0.84,0,0,1-.3,1.28,2,2,0,0,1-1.08.3,4.88,4.88,0,0,1-1.21-.14,1.79,1.79,0,0,1-1-.71,2.86,2.86,0,0,1-.43-1.73v-6h-1.16a0.85,0.85,0,0,1-.88-0.88,0.82,0.82,0,0,1,.25-0.62,0.87,0.87,0,0,1,.63-0.24h1.16V61.33a1,1,0,0,1,.27-0.68,0.92,0.92,0,0,1,.69-0.28,0.89,0.89,0,0,1,.67.28,1,1,0,0,1,.27.68V63h1.66a0.85,0.85,0,0,1,.88.88,0.82,0.82,0,0,1-.25.62,0.87,0.87,0,0,1-.63.24h-1.66Z"/><path class="cls-3" d="M221.61,70.93a5.09,5.09,0,0,1-1.91,1.94,5.44,5.44,0,0,1-5.34,0,5.08,5.08,0,0,1-1.91-1.94,5.6,5.6,0,0,1-.7-2.8,5.71,5.71,0,0,1,.7-2.82,5,5,0,0,1,1.91-2,5.44,5.44,0,0,1,5.34,0,5.05,5.05,0,0,1,1.91,2,5.72,5.72,0,0,1,.7,2.82A5.6,5.6,0,0,1,221.61,70.93ZM220,66.2a3.34,3.34,0,0,0-1.22-1.32,3.35,3.35,0,0,0-3.42,0,3.35,3.35,0,0,0-1.22,1.32,4.06,4.06,0,0,0-.45,1.93,4,4,0,0,0,.45,1.9,3.36,3.36,0,0,0,1.22,1.31,3.35,3.35,0,0,0,3.42,0A3.36,3.36,0,0,0,220,70a4,4,0,0,0,.45-1.9A4.06,4.06,0,0,0,220,66.2Zm-3.33-4.25a0.41,0.41,0,0,1-.16-0.38,0.72,0.72,0,0,1,.12-0.36l1.18-2a1.57,1.57,0,0,1,.39-0.46,0.84,0.84,0,0,1,.53-0.18,0.91,0.91,0,0,1,.67.23,0.77,0.77,0,0,1,.21.61,1.05,1.05,0,0,1-.3.7l-1.5,1.64a1.08,1.08,0,0,1-.8.32A0.57,0.57,0,0,1,216.63,61.95Z"/><path class="cls-3" d="M233.45,67v5.44a1,1,0,0,1-.27.68,0.92,0.92,0,0,1-.69.28,0.89,0.89,0,0,1-.67-0.28,1,1,0,0,1-.27-0.68V67a3,3,0,0,0-.54-1.88,2.09,2.09,0,0,0-1.76-.7,3,3,0,0,0-1.45.35,2.68,2.68,0,0,0-1,.94,2.39,2.39,0,0,0-.37,1.29v5.42a1,1,0,0,1-.27.68,0.92,0.92,0,0,1-.69.28,0.9,0.9,0,0,1-.68-0.27,1,1,0,0,1-.26-0.69V63.85a1,1,0,0,1,.27-0.68,0.89,0.89,0,0,1,.67-0.28,0.92,0.92,0,0,1,.69.28,1,1,0,0,1,.27.68v0.7a4.3,4.3,0,0,1,1.45-1.35,3.84,3.84,0,0,1,2-.55Q233.45,62.65,233.45,67Z"/><path class="cls-3" d="M241.13,60.9a3.66,3.66,0,0,1,.81-1.1,1.49,1.49,0,0,1,1-.45,0.64,0.64,0,0,1,.78.66,0.46,0.46,0,0,1-.13.37,0.91,0.91,0,0,1-.33.17l-0.3.1a1,1,0,0,0-.56.9,0.47,0.47,0,0,0,.17.37,0.66,0.66,0,0,0,.45.15,1,1,0,0,0,.56-0.14,0.76,0.76,0,0,1,.3.25,0.6,0.6,0,0,1,.08.39,1.06,1.06,0,0,1-.51.87,1.79,1.79,0,0,1-1.07.37,1.5,1.5,0,0,1-1.15-.46,1.83,1.83,0,0,1-.43-1.3A2.66,2.66,0,0,1,241.13,60.9Zm3.92,0a3.66,3.66,0,0,1,.81-1.1,1.49,1.49,0,0,1,1-.45,0.64,0.64,0,0,1,.78.66,0.46,0.46,0,0,1-.13.37,0.91,0.91,0,0,1-.33.17l-0.3.1a1,1,0,0,0-.56.9,0.47,0.47,0,0,0,.17.37,0.66,0.66,0,0,0,.45.15,1,1,0,0,0,.56-0.14,0.76,0.76,0,0,1,.3.25,0.6,0.6,0,0,1,.08.39,1.06,1.06,0,0,1-.51.87,1.8,1.8,0,0,1-1.07.37,1.5,1.5,0,0,1-1.15-.46,1.83,1.83,0,0,1-.43-1.3A2.66,2.66,0,0,1,245,60.9Z"/><path class="cls-3" d="M251.95,73.16a6.57,6.57,0,0,1-2.14-1.33,1.06,1.06,0,0,1-.42-0.82,0.91,0.91,0,0,1,.28-0.65,0.89,0.89,0,0,1,.66-0.29,0.83,0.83,0,0,1,.58.22,5.55,5.55,0,0,0,1.65,1.09,5,5,0,0,0,1.93.35,3.75,3.75,0,0,0,2.13-.58,1.71,1.71,0,0,0,.87-1.46,1.88,1.88,0,0,0-.87-1.61,7.77,7.77,0,0,0-2.59-1,6.88,6.88,0,0,1-3.17-1.38,3.33,3.33,0,0,1-1.11-2.66,3.53,3.53,0,0,1,.62-2.07,4,4,0,0,1,1.72-1.37,6.15,6.15,0,0,1,2.48-.48,6.8,6.8,0,0,1,2.34.4,4.94,4.94,0,0,1,1.78,1.06,1.14,1.14,0,0,1,.46.86,0.89,0.89,0,0,1-.27.64,0.87,0.87,0,0,1-.65.28,0.66,0.66,0,0,1-.46-0.16,4.16,4.16,0,0,0-1.44-.88,4.82,4.82,0,0,0-1.76-.36,3.67,3.67,0,0,0-2.13.55,1.77,1.77,0,0,0,0,3,7.42,7.42,0,0,0,2.35.88,12.51,12.51,0,0,1,2.55.8,3.59,3.59,0,0,1,1.53,1.28,3.83,3.83,0,0,1,.54,2.14,3.43,3.43,0,0,1-.65,2.06,4.28,4.28,0,0,1-1.77,1.4,6,6,0,0,1-2.46.5A7.49,7.49,0,0,1,251.95,73.16Z"/><path class="cls-3" d="M261.7,61.26a0.83,0.83,0,0,1-.25-0.67V60.27a0.79,0.79,0,0,1,.27-0.68,1.4,1.4,0,0,1,.83-0.2,1.25,1.25,0,0,1,.81.21,0.83,0.83,0,0,1,.25.67v0.32a0.81,0.81,0,0,1-.26.68,1.35,1.35,0,0,1-.82.2A1.29,1.29,0,0,1,261.7,61.26Zm1.52,11.83a0.92,0.92,0,0,1-.69.28,0.89,0.89,0,0,1-.67-0.28,1,1,0,0,1-.27-0.68V63.75a0.94,0.94,0,0,1,.27-0.68,0.89,0.89,0,0,1,.67-0.28,0.92,0.92,0,0,1,.69.28,0.94,0.94,0,0,1,.27.68v8.66A1,1,0,0,1,263.22,73.09Z"/><path class="cls-3" d="M275.68,63a1,1,0,0,1,.27.71v8.8a5,5,0,0,1-.69,2.71,4.14,4.14,0,0,1-1.87,1.61,6.53,6.53,0,0,1-2.66.52,7.54,7.54,0,0,1-1.87-.28,3.33,3.33,0,0,1-1.37-.58,0.93,0.93,0,0,1-.62-0.8,0.91,0.91,0,0,1,.08-0.32,0.76,0.76,0,0,1,.74-0.5,1.51,1.51,0,0,1,.56.12,7.51,7.51,0,0,0,2.5.62,3.53,3.53,0,0,0,2.45-.77,2.71,2.71,0,0,0,.85-2.11V71.67A3.48,3.48,0,0,1,272.64,73a4.18,4.18,0,0,1-2.09.56,4.72,4.72,0,0,1-2.52-.7,4.86,4.86,0,0,1-1.79-2,6.39,6.39,0,0,1,0-5.62,4.89,4.89,0,0,1,1.78-2,4.64,4.64,0,0,1,2.49-.7A4.55,4.55,0,0,1,274,64.37V63.73a1,1,0,0,1,.26-0.7,0.89,0.89,0,0,1,.68-0.28A0.93,0.93,0,0,1,275.68,63Zm-3.17,8.32A3.23,3.23,0,0,0,273.7,70a4.18,4.18,0,0,0,.43-1.91,4.12,4.12,0,0,0-.43-1.9,3.31,3.31,0,0,0-1.19-1.32,3.19,3.19,0,0,0-1.74-.48,3.15,3.15,0,0,0-1.72.48,3.29,3.29,0,0,0-1.19,1.33,4.37,4.37,0,0,0,0,3.78A3.29,3.29,0,0,0,269,71.33a3.15,3.15,0,0,0,1.72.48A3.24,3.24,0,0,0,272.51,71.34Z"/><path class="cls-3" d="M287.1,63.17a1,1,0,0,1,.27.68v5.32a4.39,4.39,0,1,1-8.76,0V63.85a0.94,0.94,0,0,1,.27-0.68,0.89,0.89,0,0,1,.67-0.28,0.92,0.92,0,0,1,.69.28,0.94,0.94,0,0,1,.27.68v5.32q0,2.62,2.46,2.62a2.47,2.47,0,0,0,1.86-.66,2.71,2.71,0,0,0,.64-2V63.85a1,1,0,0,1,.27-0.68,0.9,0.9,0,0,1,.67-0.28A0.92,0.92,0,0,1,287.1,63.17Z"/><path class="cls-3" d="M290.22,61.26a0.83,0.83,0,0,1-.25-0.67V60.27a0.79,0.79,0,0,1,.27-0.68,1.4,1.4,0,0,1,.83-0.2,1.25,1.25,0,0,1,.81.21,0.83,0.83,0,0,1,.25.67v0.32a0.81,0.81,0,0,1-.26.68,1.35,1.35,0,0,1-.82.2A1.29,1.29,0,0,1,290.22,61.26Zm1.52,11.83a0.92,0.92,0,0,1-.69.28,0.89,0.89,0,0,1-.67-0.28,1,1,0,0,1-.27-0.68V63.75a0.94,0.94,0,0,1,.27-0.68,0.89,0.89,0,0,1,.67-0.28,0.92,0.92,0,0,1,.69.28,0.94,0.94,0,0,1,.27.68v8.66A1,1,0,0,1,291.74,73.09Z"/><path class="cls-3" d="M303.65,68.34a1,1,0,0,1-.66.25h-7a3.47,3.47,0,0,0,1.11,2.34,3.4,3.4,0,0,0,2.37.88,3.72,3.72,0,0,0,1.56-.28,3.92,3.92,0,0,0,1.06-.72,1.13,1.13,0,0,1,.58-0.18,0.76,0.76,0,0,1,.57.24,0.78,0.78,0,0,1,.23.56,1,1,0,0,1-.4.76,4.7,4.7,0,0,1-1.54,1,5.06,5.06,0,0,1-2,.4,5.79,5.79,0,0,1-2.85-.68,4.73,4.73,0,0,1-1.9-1.9,5.63,5.63,0,0,1-.67-2.76,6.07,6.07,0,0,1,.69-2.95,5,5,0,0,1,1.82-2,4.69,4.69,0,0,1,4.83,0,5,5,0,0,1,1.8,1.82,5.2,5.2,0,0,1,.7,2.6A0.86,0.86,0,0,1,303.65,68.34ZM297.11,65A3.1,3.1,0,0,0,296,67h5.9V66.83a2.44,2.44,0,0,0-.95-1.74,3,3,0,0,0-1.93-.68A3.09,3.09,0,0,0,297.11,65Z"/><path class="cls-3" d="M315.08,67v5.44a1,1,0,0,1-.27.68,0.92,0.92,0,0,1-.69.28,0.89,0.89,0,0,1-.67-0.28,0.94,0.94,0,0,1-.27-0.68V67a3,3,0,0,0-.54-1.88,2.09,2.09,0,0,0-1.76-.7,3,3,0,0,0-1.45.35,2.67,2.67,0,0,0-1,.94A2.38,2.38,0,0,0,308,67v5.42a0.94,0.94,0,0,1-.27.68,0.92,0.92,0,0,1-.69.28,0.9,0.9,0,0,1-.68-0.27,1,1,0,0,1-.26-0.69V63.85a0.94,0.94,0,0,1,.27-0.68,0.89,0.89,0,0,1,.67-0.28,0.92,0.92,0,0,1,.69.28,0.94,0.94,0,0,1,.27.68v0.7a4.31,4.31,0,0,1,1.45-1.35,3.84,3.84,0,0,1,2-.55Q315.08,62.65,315.08,67Z"/><path class="cls-3" d="M320.76,64.75v6a0.84,0.84,0,0,0,.9,1,1.44,1.44,0,0,0,.38-0.07,1.46,1.46,0,0,1,.38-0.07,0.55,0.55,0,0,1,.44.22,0.84,0.84,0,0,1-.3,1.28,2,2,0,0,1-1.08.3,4.89,4.89,0,0,1-1.21-.14,1.79,1.79,0,0,1-1-.71,2.86,2.86,0,0,1-.43-1.73v-6H317.7a0.85,0.85,0,0,1-.88-0.88,0.82,0.82,0,0,1,.25-0.62A0.87,0.87,0,0,1,317.7,63h1.16V61.33a1,1,0,0,1,.27-0.68,0.92,0.92,0,0,1,.69-0.28,0.89,0.89,0,0,1,.67.28,1,1,0,0,1,.27.68V63h1.66a0.85,0.85,0,0,1,.88.88,0.82,0.82,0,0,1-.25.62,0.88,0.88,0,0,1-.63.24h-1.66Z"/><path class="cls-3" d="M334.32,68.34a1,1,0,0,1-.66.25h-7a3.47,3.47,0,0,0,1.11,2.34,3.4,3.4,0,0,0,2.37.88,3.72,3.72,0,0,0,1.56-.28,3.92,3.92,0,0,0,1.06-.72,1.13,1.13,0,0,1,.58-0.18,0.76,0.76,0,0,1,.57.24,0.78,0.78,0,0,1,.23.56,1,1,0,0,1-.4.76,4.7,4.7,0,0,1-1.54,1,5.06,5.06,0,0,1-2,.4,5.79,5.79,0,0,1-2.85-.68,4.74,4.74,0,0,1-1.9-1.9,5.63,5.63,0,0,1-.67-2.76,6.08,6.08,0,0,1,.69-2.95,5,5,0,0,1,1.82-2,4.69,4.69,0,0,1,4.83,0,5,5,0,0,1,1.8,1.82,5.2,5.2,0,0,1,.7,2.6A0.86,0.86,0,0,1,334.32,68.34ZM327.78,65a3.1,3.1,0,0,0-1.08,2h5.9V66.83a2.44,2.44,0,0,0-.95-1.74,3,3,0,0,0-1.93-.68A3.09,3.09,0,0,0,327.78,65Z"/><path class="cls-3" d="M338.72,62.48a3.68,3.68,0,0,1-.81,1.1,1.49,1.49,0,0,1-1,.45,0.64,0.64,0,0,1-.78-0.66,0.46,0.46,0,0,1,.13-0.37,0.92,0.92,0,0,1,.33-0.17l0.3-.1a1,1,0,0,0,.56-0.9,0.47,0.47,0,0,0-.17-0.37,0.66,0.66,0,0,0-.45-0.15,1,1,0,0,0-.56.14,0.76,0.76,0,0,1-.3-0.25,0.6,0.6,0,0,1-.08-0.39,1.07,1.07,0,0,1,.51-0.87,1.79,1.79,0,0,1,1.07-.37,1.5,1.5,0,0,1,1.15.46,1.83,1.83,0,0,1,.43,1.3A2.67,2.67,0,0,1,338.72,62.48Zm3.92,0a3.68,3.68,0,0,1-.81,1.1,1.49,1.49,0,0,1-1,.45,0.64,0.64,0,0,1-.78-0.66,0.46,0.46,0,0,1,.13-0.37,0.92,0.92,0,0,1,.33-0.17l0.3-.1a1,1,0,0,0,.56-0.9,0.47,0.47,0,0,0-.17-0.37,0.66,0.66,0,0,0-.45-0.15,1,1,0,0,0-.56.14,0.75,0.75,0,0,1-.3-0.25,0.59,0.59,0,0,1-.08-0.39,1.07,1.07,0,0,1,.51-0.87,1.79,1.79,0,0,1,1.07-.37,1.5,1.5,0,0,1,1.15.46,1.83,1.83,0,0,1,.43,1.3A2.67,2.67,0,0,1,342.64,62.48Z"/><path class="cls-3" d="M60.49,87.4a4.78,4.78,0,0,1,1.73,1.93,6.1,6.1,0,0,1,.63,2.8,6,6,0,0,1-.63,2.79,4.86,4.86,0,0,1-1.73,1.93,4.42,4.42,0,0,1-2.42.7,4.21,4.21,0,0,1-1.94-.46A4.67,4.67,0,0,1,54.67,96v4.44a0.94,0.94,0,0,1-.27.68,1,1,0,0,1-1.36,0,0.93,0.93,0,0,1-.27-0.69V87.83a1,1,0,0,1,.26-0.7,0.88,0.88,0,0,1,.68-0.28,0.92,0.92,0,0,1,.69.28,1,1,0,0,1,.27.7v0.58a3.92,3.92,0,0,1,1.4-1.2,4,4,0,0,1,2-.5A4.54,4.54,0,0,1,60.49,87.4Zm-1,7.91A3.23,3.23,0,0,0,60.62,94a4.47,4.47,0,0,0,0-3.74,3.23,3.23,0,0,0-1.15-1.31,3,3,0,0,0-1.66-.48,3.07,3.07,0,0,0-1.68.47A3.15,3.15,0,0,0,55,90.25,4.52,4.52,0,0,0,55,94a3.15,3.15,0,0,0,1.15,1.31,3.06,3.06,0,0,0,1.68.47A3,3,0,0,0,59.47,95.31Z"/><path class="cls-3" d="M74.24,87a1,1,0,0,1,.27.71v8.68a0.94,0.94,0,0,1-.27.68,0.92,0.92,0,0,1-.69.28,0.9,0.9,0,0,1-.68-0.27,1,1,0,0,1-.26-0.69V95.89a4.27,4.27,0,0,1-1.42,1.19,4,4,0,0,1-1.94.49,4.54,4.54,0,0,1-2.47-.7,4.81,4.81,0,0,1-1.74-2,6.57,6.57,0,0,1,0-5.62,4.83,4.83,0,0,1,1.73-2,4.57,4.57,0,0,1,4.39-.26,4.07,4.07,0,0,1,1.45,1.12V87.73a1,1,0,0,1,.26-0.7,0.88,0.88,0,0,1,.68-0.28A0.93,0.93,0,0,1,74.24,87Zm-3.1,8.31A3.24,3.24,0,0,0,72.28,94a4.27,4.27,0,0,0,.41-1.9,4.23,4.23,0,0,0-.41-1.88,3.32,3.32,0,0,0-1.14-1.33,2.93,2.93,0,0,0-1.67-.49,3,3,0,0,0-1.67.48,3.24,3.24,0,0,0-1.14,1.32,4.62,4.62,0,0,0,0,3.8,3.24,3.24,0,0,0,1.14,1.32A3.14,3.14,0,0,0,71.14,95.33Z"/><path class="cls-3" d="M83.45,86.92a0.8,0.8,0,0,1,.38.67,1,1,0,0,1-.25.73,0.83,0.83,0,0,1-.61.25,1.9,1.9,0,0,1-.54-0.12,2.25,2.25,0,0,0-.66-0.14,2,2,0,0,0-1.21.43,3.14,3.14,0,0,0-1,1.18,3.72,3.72,0,0,0-.37,1.67v4.82a0.94,0.94,0,0,1-.27.68,0.92,0.92,0,0,1-.69.28,0.9,0.9,0,0,1-.68-0.27,1,1,0,0,1-.26-0.69V87.85a0.94,0.94,0,0,1,.27-0.68,0.89,0.89,0,0,1,.67-0.28,0.92,0.92,0,0,1,.69.28,0.94,0.94,0,0,1,.27.68v1a3.78,3.78,0,0,1,1.32-1.59,3.54,3.54,0,0,1,2-.63A1.51,1.51,0,0,1,83.45,86.92Z"/><path class="cls-3" d="M94.54,87a1,1,0,0,1,.27.71v8.68a0.94,0.94,0,0,1-.27.68,0.92,0.92,0,0,1-.69.28,0.9,0.9,0,0,1-.68-0.27,1,1,0,0,1-.26-0.69V95.89a4.27,4.27,0,0,1-1.42,1.19,4,4,0,0,1-1.94.49,4.54,4.54,0,0,1-2.47-.7,4.81,4.81,0,0,1-1.74-2,6.57,6.57,0,0,1,0-5.62,4.83,4.83,0,0,1,1.73-2,4.57,4.57,0,0,1,4.39-.26,4.07,4.07,0,0,1,1.45,1.12V87.73a1,1,0,0,1,.26-0.7,0.88,0.88,0,0,1,.68-0.28A0.93,0.93,0,0,1,94.54,87Zm-3.1,8.31A3.24,3.24,0,0,0,92.58,94a4.27,4.27,0,0,0,.41-1.9,4.23,4.23,0,0,0-.41-1.88,3.32,3.32,0,0,0-1.14-1.33,2.93,2.93,0,0,0-1.67-.49,3,3,0,0,0-1.67.48A3.24,3.24,0,0,0,87,90.21,4.62,4.62,0,0,0,87,94a3.24,3.24,0,0,0,1.14,1.32A3.14,3.14,0,0,0,91.44,95.33Z"/><path class="cls-3" d="M110.36,87.15a1.49,1.49,0,0,1,1,1.28,0.94,0.94,0,0,1-.22.61,0.69,0.69,0,0,1-.56.27,0.87,0.87,0,0,1-.41-0.08,4.31,4.31,0,0,1-.41-0.26,2.18,2.18,0,0,0-.38-0.28,2.64,2.64,0,0,0-.68-0.2,4.51,4.51,0,0,0-.8-0.08,3.51,3.51,0,0,0-1.84.48,3.27,3.27,0,0,0-1.24,1.33,4.05,4.05,0,0,0-.44,1.89,4.1,4.1,0,0,0,.43,1.9,3.25,3.25,0,0,0,1.21,1.32,3.33,3.33,0,0,0,1.78.48,3.77,3.77,0,0,0,1.68-.32,4,4,0,0,0,.38-0.26,2.37,2.37,0,0,1,.35-0.24,0.78,0.78,0,0,1,.37-0.08,0.81,0.81,0,0,1,.63.25,0.92,0.92,0,0,1,.23.65,1.11,1.11,0,0,1-.53.83,4.25,4.25,0,0,1-1.42.67,6.78,6.78,0,0,1-1.91.26,5,5,0,0,1-2.68-.71,4.75,4.75,0,0,1-1.79-2,6.11,6.11,0,0,1-.63-2.79,5.88,5.88,0,0,1,.66-2.79,4.91,4.91,0,0,1,1.84-2,5.13,5.13,0,0,1,2.7-.71A6.11,6.11,0,0,1,110.36,87.15Z"/><path class="cls-3" d="M122.67,94.93a5.09,5.09,0,0,1-1.91,1.94,5.44,5.44,0,0,1-5.34,0,5.09,5.09,0,0,1-1.91-1.94,5.6,5.6,0,0,1-.7-2.8,5.71,5.71,0,0,1,.7-2.82,5.05,5.05,0,0,1,1.91-2,5.44,5.44,0,0,1,5.34,0,5.05,5.05,0,0,1,1.91,2,5.71,5.71,0,0,1,.7,2.82A5.6,5.6,0,0,1,122.67,94.93ZM121,90.2a3.35,3.35,0,0,0-1.22-1.32,3.35,3.35,0,0,0-3.42,0,3.34,3.34,0,0,0-1.22,1.32,4.06,4.06,0,0,0-.45,1.93,4,4,0,0,0,.45,1.9,3.35,3.35,0,0,0,1.22,1.31,3.35,3.35,0,0,0,3.42,0A3.36,3.36,0,0,0,121,94a4,4,0,0,0,.45-1.9A4.06,4.06,0,0,0,121,90.2Z"/><path class="cls-3" d="M134.51,91v5.44a0.94,0.94,0,0,1-.27.68,0.92,0.92,0,0,1-.69.28,0.89,0.89,0,0,1-.67-0.28,0.94,0.94,0,0,1-.27-0.68V91a3,3,0,0,0-.54-1.88,2.08,2.08,0,0,0-1.76-.7,3,3,0,0,0-1.45.35,2.67,2.67,0,0,0-1,.94,2.38,2.38,0,0,0-.37,1.29v5.42a0.94,0.94,0,0,1-.27.68,0.92,0.92,0,0,1-.69.28,0.9,0.9,0,0,1-.68-0.27,1,1,0,0,1-.26-0.69V87.85a0.94,0.94,0,0,1,.27-0.68,0.89,0.89,0,0,1,.67-0.28,0.92,0.92,0,0,1,.69.28,0.94,0.94,0,0,1,.27.68v0.7a4.3,4.3,0,0,1,1.45-1.35,3.84,3.84,0,0,1,2-.55Q134.51,86.65,134.51,91Z"/><path class="cls-3" d="M140.19,88.75v6a0.84,0.84,0,0,0,.9,1,1.44,1.44,0,0,0,.38-0.07,1.46,1.46,0,0,1,.38-0.07,0.55,0.55,0,0,1,.44.22,0.84,0.84,0,0,1-.3,1.28,2,2,0,0,1-1.08.3,4.89,4.89,0,0,1-1.21-.14,1.79,1.79,0,0,1-1-.71,2.86,2.86,0,0,1-.43-1.73v-6h-1.16a0.85,0.85,0,0,1-.88-0.88,0.82,0.82,0,0,1,.25-0.62,0.88,0.88,0,0,1,.63-0.24h1.16V85.33a1,1,0,0,1,.27-0.68,0.92,0.92,0,0,1,.69-0.28,0.9,0.9,0,0,1,.67.28,1,1,0,0,1,.27.68V87h1.66a0.85,0.85,0,0,1,.88.88,0.82,0.82,0,0,1-.25.62,0.88,0.88,0,0,1-.63.24h-1.66Z"/><path class="cls-3" d="M145,85.26a0.83,0.83,0,0,1-.25-0.67V84.27a0.79,0.79,0,0,1,.27-0.68,1.39,1.39,0,0,1,.83-0.2,1.26,1.26,0,0,1,.81.21,0.83,0.83,0,0,1,.25.67v0.32a0.81,0.81,0,0,1-.26.68,1.35,1.35,0,0,1-.82.2A1.3,1.3,0,0,1,145,85.26Zm1.52,11.83a0.92,0.92,0,0,1-.69.28,0.89,0.89,0,0,1-.67-0.28,1,1,0,0,1-.27-0.68V87.75a0.94,0.94,0,0,1,.27-0.68,0.89,0.89,0,0,1,.67-0.28,0.92,0.92,0,0,1,.69.28,0.94,0.94,0,0,1,.27.68v8.66A1,1,0,0,1,146.48,97.09Z"/><path class="cls-3" d="M158.43,91v5.44a1,1,0,0,1-.27.68,0.92,0.92,0,0,1-.69.28,0.89,0.89,0,0,1-.67-0.28,1,1,0,0,1-.27-0.68V91a3,3,0,0,0-.54-1.88,2.09,2.09,0,0,0-1.76-.7,3,3,0,0,0-1.45.35,2.68,2.68,0,0,0-1,.94,2.39,2.39,0,0,0-.37,1.29v5.42a1,1,0,0,1-.27.68,0.92,0.92,0,0,1-.69.28,0.9,0.9,0,0,1-.68-0.27,1,1,0,0,1-.26-0.69V87.85a1,1,0,0,1,.27-0.68,0.89,0.89,0,0,1,.67-0.28,0.92,0.92,0,0,1,.69.28,1,1,0,0,1,.27.68v0.7a4.3,4.3,0,0,1,1.45-1.35,3.84,3.84,0,0,1,2-.55Q158.43,86.65,158.43,91Z"/><path class="cls-3" d="M169.76,87.17a1,1,0,0,1,.27.68v5.32a4.39,4.39,0,1,1-8.76,0V87.85a0.94,0.94,0,0,1,.27-0.68,0.89,0.89,0,0,1,.67-0.28,0.92,0.92,0,0,1,.69.28,0.94,0.94,0,0,1,.27.68v5.32q0,2.62,2.46,2.62a2.47,2.47,0,0,0,1.86-.66,2.71,2.71,0,0,0,.64-2V87.85a1,1,0,0,1,.27-0.68,0.9,0.9,0,0,1,.67-0.28A0.92,0.92,0,0,1,169.76,87.17Z"/><path class="cls-3" d="M182.06,87a1,1,0,0,1,.27.71v8.68a1,1,0,0,1-.27.68,0.92,0.92,0,0,1-.69.28,0.9,0.9,0,0,1-.68-0.27,1,1,0,0,1-.26-0.69V95.89A4.28,4.28,0,0,1,179,97.08a4,4,0,0,1-1.94.49,4.53,4.53,0,0,1-2.47-.7,4.8,4.8,0,0,1-1.74-2,6.58,6.58,0,0,1,0-5.62,4.83,4.83,0,0,1,1.73-2,4.42,4.42,0,0,1,2.42-.7,4.46,4.46,0,0,1,2,.44,4.09,4.09,0,0,1,1.45,1.12V87.73a1,1,0,0,1,.26-0.7,0.89,0.89,0,0,1,.68-0.28A0.94,0.94,0,0,1,182.06,87ZM179,95.33A3.24,3.24,0,0,0,180.1,94a4.27,4.27,0,0,0,.41-1.9,4.23,4.23,0,0,0-.41-1.88A3.32,3.32,0,0,0,179,88.9a2.93,2.93,0,0,0-1.67-.49,3,3,0,0,0-1.67.48,3.24,3.24,0,0,0-1.14,1.32,4.61,4.61,0,0,0,0,3.8,3.24,3.24,0,0,0,1.14,1.32A3.14,3.14,0,0,0,179,95.33Z"/><path class="cls-3" d="M191.27,86.92a0.8,0.8,0,0,1,.38.67,1,1,0,0,1-.25.73,0.83,0.83,0,0,1-.61.25,1.9,1.9,0,0,1-.54-0.12,2.24,2.24,0,0,0-.66-0.14,2,2,0,0,0-1.21.43,3.15,3.15,0,0,0-1,1.18,3.73,3.73,0,0,0-.37,1.67v4.82a1,1,0,0,1-.27.68,0.92,0.92,0,0,1-.69.28,0.9,0.9,0,0,1-.68-0.27,1,1,0,0,1-.26-0.69V87.85a1,1,0,0,1,.27-0.68,0.89,0.89,0,0,1,.67-0.28,0.92,0.92,0,0,1,.69.28,1,1,0,0,1,.27.68v1a3.79,3.79,0,0,1,1.32-1.59,3.54,3.54,0,0,1,2-.63A1.52,1.52,0,0,1,191.27,86.92Z"/><path class="cls-3" d="M206.14,87.15a1.49,1.49,0,0,1,1.05,1.28A0.94,0.94,0,0,1,207,89a0.69,0.69,0,0,1-.56.27,0.87,0.87,0,0,1-.41-0.08,4.44,4.44,0,0,1-.41-0.26,2.18,2.18,0,0,0-.38-0.28,2.64,2.64,0,0,0-.68-0.2,4.53,4.53,0,0,0-.8-0.08,3.51,3.51,0,0,0-1.84.48,3.27,3.27,0,0,0-1.24,1.33,4,4,0,0,0-.44,1.89,4.12,4.12,0,0,0,.43,1.9,3.27,3.27,0,0,0,1.21,1.32,3.33,3.33,0,0,0,1.78.48,3.77,3.77,0,0,0,1.68-.32,3.91,3.91,0,0,0,.38-0.26A2.37,2.37,0,0,1,206,95a0.78,0.78,0,0,1,.37-0.08,0.81,0.81,0,0,1,.63.25,0.92,0.92,0,0,1,.23.65,1.11,1.11,0,0,1-.53.83,4.26,4.26,0,0,1-1.42.67,6.79,6.79,0,0,1-1.91.26,5,5,0,0,1-2.68-.71,4.75,4.75,0,0,1-1.79-2,6.11,6.11,0,0,1-.63-2.79,5.89,5.89,0,0,1,.66-2.79,4.92,4.92,0,0,1,1.84-2,5.14,5.14,0,0,1,2.7-.71A6.11,6.11,0,0,1,206.14,87.15Z"/><path class="cls-3" d="M218.45,94.93a5.09,5.09,0,0,1-1.91,1.94,5.44,5.44,0,0,1-5.34,0,5.08,5.08,0,0,1-1.91-1.94,5.6,5.6,0,0,1-.7-2.8,5.71,5.71,0,0,1,.7-2.82,5,5,0,0,1,1.91-2,5.44,5.44,0,0,1,5.34,0,5.05,5.05,0,0,1,1.91,2,5.72,5.72,0,0,1,.7,2.82A5.6,5.6,0,0,1,218.45,94.93ZM216.8,90.2a3.34,3.34,0,0,0-1.22-1.32,3.35,3.35,0,0,0-3.42,0,3.35,3.35,0,0,0-1.22,1.32,4.06,4.06,0,0,0-.45,1.93,4,4,0,0,0,.45,1.9,3.36,3.36,0,0,0,1.22,1.31,3.35,3.35,0,0,0,3.42,0A3.36,3.36,0,0,0,216.8,94a4,4,0,0,0,.45-1.9A4.06,4.06,0,0,0,216.8,90.2Z"/><path class="cls-3" d="M230.29,91v5.44a1,1,0,0,1-.27.68,0.92,0.92,0,0,1-.69.28,0.89,0.89,0,0,1-.67-0.28,1,1,0,0,1-.27-0.68V91a3,3,0,0,0-.54-1.88,2.09,2.09,0,0,0-1.76-.7,3,3,0,0,0-1.45.35,2.68,2.68,0,0,0-1,.94,2.39,2.39,0,0,0-.37,1.29v5.42a1,1,0,0,1-.27.68,0.92,0.92,0,0,1-.69.28,0.9,0.9,0,0,1-.68-0.27,1,1,0,0,1-.26-0.69V87.85a1,1,0,0,1,.27-0.68,0.89,0.89,0,0,1,.67-0.28,0.92,0.92,0,0,1,.69.28,1,1,0,0,1,.27.68v0.7a4.3,4.3,0,0,1,1.45-1.35,3.84,3.84,0,0,1,2-.55Q230.29,86.65,230.29,91Z"/><path class="cls-3" d="M240.45,97.09a0.93,0.93,0,0,1-.68.28,0.89,0.89,0,0,1-.67-0.28,0.94,0.94,0,0,1-.27-0.68V83.53a1,1,0,0,1,1-1,0.89,0.89,0,0,1,.67.28,0.94,0.94,0,0,1,.27.68V96.41A0.93,0.93,0,0,1,240.45,97.09Z"/><path class="cls-3" d="M252.92,87a1,1,0,0,1,.27.71v8.68a0.94,0.94,0,0,1-.27.68,0.92,0.92,0,0,1-.69.28,0.9,0.9,0,0,1-.68-0.27,1,1,0,0,1-.26-0.69V95.89a4.27,4.27,0,0,1-1.42,1.19,4,4,0,0,1-1.94.49,4.54,4.54,0,0,1-2.47-.7,4.81,4.81,0,0,1-1.74-2,6.57,6.57,0,0,1,0-5.62,4.83,4.83,0,0,1,1.73-2,4.57,4.57,0,0,1,4.39-.26,4.07,4.07,0,0,1,1.45,1.12V87.73a1,1,0,0,1,.26-0.7,0.88,0.88,0,0,1,.68-0.28A0.93,0.93,0,0,1,252.92,87Zm-3.1,8.31A3.24,3.24,0,0,0,251,94a4.27,4.27,0,0,0,.41-1.9,4.23,4.23,0,0,0-.41-1.88,3.32,3.32,0,0,0-1.14-1.33,2.93,2.93,0,0,0-1.67-.49,3,3,0,0,0-1.67.48,3.24,3.24,0,0,0-1.14,1.32,4.62,4.62,0,0,0,0,3.8,3.24,3.24,0,0,0,1.14,1.32A3.14,3.14,0,0,0,249.82,95.33Z"/><path class="cls-3" d="M270.74,87a1,1,0,0,1,.27.71v8.68a1,1,0,0,1-.27.68,0.92,0.92,0,0,1-.69.28,0.9,0.9,0,0,1-.68-0.27,1,1,0,0,1-.26-0.69V95.89a4.28,4.28,0,0,1-1.42,1.19,4,4,0,0,1-1.94.49,4.53,4.53,0,0,1-2.47-.7,4.8,4.8,0,0,1-1.74-2,6.58,6.58,0,0,1,0-5.62,4.83,4.83,0,0,1,1.73-2,4.42,4.42,0,0,1,2.42-.7,4.46,4.46,0,0,1,2,.44,4.09,4.09,0,0,1,1.45,1.12V87.73a1,1,0,0,1,.26-0.7,0.89,0.89,0,0,1,.68-0.28A0.94,0.94,0,0,1,270.74,87Zm-3.1,8.31A3.24,3.24,0,0,0,268.78,94a4.27,4.27,0,0,0,.41-1.9,4.23,4.23,0,0,0-.41-1.88,3.32,3.32,0,0,0-1.14-1.33,2.93,2.93,0,0,0-1.67-.49,3,3,0,0,0-1.67.48,3.24,3.24,0,0,0-1.14,1.32,4.61,4.61,0,0,0,0,3.8,3.24,3.24,0,0,0,1.14,1.32A3.14,3.14,0,0,0,267.63,95.33Z"/><path class="cls-3" d="M281,87.15a1.49,1.49,0,0,1,1.05,1.28,0.94,0.94,0,0,1-.22.61,0.69,0.69,0,0,1-.56.27,0.87,0.87,0,0,1-.41-0.08,4.44,4.44,0,0,1-.41-0.26,2.18,2.18,0,0,0-.38-0.28,2.64,2.64,0,0,0-.68-0.2,4.53,4.53,0,0,0-.8-0.08,3.51,3.51,0,0,0-1.84.48,3.27,3.27,0,0,0-1.24,1.33,4,4,0,0,0-.44,1.89,4.12,4.12,0,0,0,.43,1.9,3.27,3.27,0,0,0,1.21,1.32,3.33,3.33,0,0,0,1.78.48,3.77,3.77,0,0,0,1.68-.32,3.91,3.91,0,0,0,.38-0.26,2.37,2.37,0,0,1,.35-0.24,0.78,0.78,0,0,1,.37-0.08,0.81,0.81,0,0,1,.63.25,0.92,0.92,0,0,1,.23.65,1.11,1.11,0,0,1-.53.83,4.26,4.26,0,0,1-1.42.67,6.79,6.79,0,0,1-1.91.26,5,5,0,0,1-2.68-.71,4.75,4.75,0,0,1-1.79-2,6.11,6.11,0,0,1-.63-2.79,5.89,5.89,0,0,1,.66-2.79,4.92,4.92,0,0,1,1.84-2,5.14,5.14,0,0,1,2.7-.71A6.11,6.11,0,0,1,281,87.15Z"/><path class="cls-3" d="M286.94,88.75v6a0.84,0.84,0,0,0,.9,1,1.44,1.44,0,0,0,.38-0.07,1.46,1.46,0,0,1,.38-0.07,0.55,0.55,0,0,1,.44.22,0.84,0.84,0,0,1-.3,1.28,2,2,0,0,1-1.08.3,4.88,4.88,0,0,1-1.21-.14,1.79,1.79,0,0,1-1-.71,2.86,2.86,0,0,1-.43-1.73v-6h-1.16a0.85,0.85,0,0,1-.88-0.88,0.82,0.82,0,0,1,.25-0.62,0.87,0.87,0,0,1,.63-0.24H285V85.33a1,1,0,0,1,.27-0.68,0.92,0.92,0,0,1,.69-0.28,0.89,0.89,0,0,1,.67.28,1,1,0,0,1,.27.68V87h1.66a0.85,0.85,0,0,1,.88.88,0.82,0.82,0,0,1-.25.62,0.87,0.87,0,0,1-.63.24h-1.66Z"/><path class="cls-3" d="M291.71,85.26a0.83,0.83,0,0,1-.25-0.67V84.27a0.79,0.79,0,0,1,.27-0.68,1.4,1.4,0,0,1,.83-0.2,1.25,1.25,0,0,1,.81.21,0.83,0.83,0,0,1,.25.67v0.32a0.81,0.81,0,0,1-.26.68,1.35,1.35,0,0,1-.82.2A1.29,1.29,0,0,1,291.71,85.26Zm1.52,11.83a0.92,0.92,0,0,1-.69.28,0.89,0.89,0,0,1-.67-0.28,1,1,0,0,1-.27-0.68V87.75a0.94,0.94,0,0,1,.27-0.68,0.89,0.89,0,0,1,.67-0.28,0.92,0.92,0,0,1,.69.28,0.94,0.94,0,0,1,.27.68v8.66A1,1,0,0,1,293.23,97.09Z"/><path class="cls-3" d="M304.88,87a0.79,0.79,0,0,1,.26.59,1.36,1.36,0,0,1-.14.5l-3.8,8.64a1.06,1.06,0,0,1-.34.42,0.92,0.92,0,0,1-.48.18,0.91,0.91,0,0,1-.59-0.12,1,1,0,0,1-.41-0.48l-3.8-8.64a1.65,1.65,0,0,1-.1-0.5,0.8,0.8,0,0,1,.26-0.58,0.92,0.92,0,0,1,.68-0.26,1,1,0,0,1,.54.15,1,1,0,0,1,.38.45l3,7,3-7a0.91,0.91,0,0,1,.86-0.6A0.89,0.89,0,0,1,304.88,87Z"/><path class="cls-3" d="M307.21,85.26a0.83,0.83,0,0,1-.25-0.67V84.27a0.79,0.79,0,0,1,.27-0.68,1.4,1.4,0,0,1,.83-0.2,1.25,1.25,0,0,1,.81.21,0.83,0.83,0,0,1,.25.67v0.32a0.81,0.81,0,0,1-.26.68,1.35,1.35,0,0,1-.82.2A1.3,1.3,0,0,1,307.21,85.26Zm1.52,11.83a0.92,0.92,0,0,1-.69.28,0.89,0.89,0,0,1-.67-0.28,1,1,0,0,1-.27-0.68V87.75a0.94,0.94,0,0,1,.27-0.68,0.89,0.89,0,0,1,.67-0.28,0.92,0.92,0,0,1,.69.28,0.94,0.94,0,0,1,.27.68v8.66A1,1,0,0,1,308.73,97.09Z"/><path class="cls-3" d="M320.93,82.84a0.93,0.93,0,0,1,.27.69V96.41a1,1,0,0,1-.27.68,0.92,0.92,0,0,1-.69.28,0.9,0.9,0,0,1-.68-0.27,1,1,0,0,1-.26-0.69V95.85a4.06,4.06,0,0,1-1.41,1.22,4,4,0,0,1-2,.5,4.48,4.48,0,0,1-2.46-.7,4.9,4.9,0,0,1-1.74-2,6.07,6.07,0,0,1-.64-2.81,6.16,6.16,0,0,1,.63-2.81,4.83,4.83,0,0,1,1.73-2,4.55,4.55,0,0,1,4.38-.26,4.2,4.2,0,0,1,1.46,1.14v-4.7a1,1,0,0,1,.26-0.69,0.9,0.9,0,0,1,.68-0.27A0.94,0.94,0,0,1,320.93,82.84Zm-3.1,12.49A3.25,3.25,0,0,0,319,94a4.59,4.59,0,0,0,0-3.79,3.23,3.23,0,0,0-1.14-1.33,3.14,3.14,0,0,0-3.34,0,3.22,3.22,0,0,0-1.14,1.33,4.58,4.58,0,0,0,0,3.79,3.24,3.24,0,0,0,1.14,1.32A3.14,3.14,0,0,0,317.83,95.33Z"/><path class="cls-3" d="M333.21,87a1,1,0,0,1,.27.71v8.68a1,1,0,0,1-.27.68,0.92,0.92,0,0,1-.69.28,0.9,0.9,0,0,1-.68-0.27,1,1,0,0,1-.26-0.69V95.89a4.29,4.29,0,0,1-1.42,1.19,4,4,0,0,1-1.94.49,4.53,4.53,0,0,1-2.47-.7,4.8,4.8,0,0,1-1.74-2,6.58,6.58,0,0,1,0-5.62,4.83,4.83,0,0,1,1.73-2,4.42,4.42,0,0,1,2.42-.7,4.47,4.47,0,0,1,2,.44,4.09,4.09,0,0,1,1.45,1.12V87.73a1,1,0,0,1,.26-0.7,0.88,0.88,0,0,1,.68-0.28A0.94,0.94,0,0,1,333.21,87Zm-3.1,8.31A3.25,3.25,0,0,0,331.25,94a4.29,4.29,0,0,0,.41-1.9,4.24,4.24,0,0,0-.41-1.88,3.33,3.33,0,0,0-1.14-1.33,2.93,2.93,0,0,0-1.67-.49,3,3,0,0,0-1.67.48,3.24,3.24,0,0,0-1.14,1.32,4.61,4.61,0,0,0,0,3.8,3.24,3.24,0,0,0,1.14,1.32A3.14,3.14,0,0,0,330.11,95.33Z"/><path class="cls-3" d="M345.49,82.84a0.93,0.93,0,0,1,.27.69V96.41a1,1,0,0,1-.27.68,0.92,0.92,0,0,1-.69.28,0.9,0.9,0,0,1-.68-0.27,1,1,0,0,1-.26-0.69V95.85a4.06,4.06,0,0,1-1.41,1.22,4,4,0,0,1-2,.5,4.48,4.48,0,0,1-2.46-.7,4.9,4.9,0,0,1-1.74-2,6.07,6.07,0,0,1-.64-2.81,6.16,6.16,0,0,1,.63-2.81,4.83,4.83,0,0,1,1.73-2,4.55,4.55,0,0,1,4.38-.26,4.2,4.2,0,0,1,1.46,1.14v-4.7a1,1,0,0,1,.26-0.69,0.9,0.9,0,0,1,.68-0.27A0.94,0.94,0,0,1,345.49,82.84Zm-3.1,12.49A3.25,3.25,0,0,0,343.53,94a4.59,4.59,0,0,0,0-3.79,3.23,3.23,0,0,0-1.14-1.33,3.14,3.14,0,0,0-3.34,0,3.22,3.22,0,0,0-1.14,1.33,4.58,4.58,0,0,0,0,3.79,3.24,3.24,0,0,0,1.14,1.32A3.14,3.14,0,0,0,342.39,95.33Z"/><path class="cls-3" d="M348.53,97.09a1.05,1.05,0,0,1-.25-0.76V95.95a1,1,0,0,1,.25-0.74,1,1,0,0,1,.73-0.26h0.2a1,1,0,0,1,.75.26,1,1,0,0,1,.25.74v0.38a0.89,0.89,0,0,1-1,1h-0.2A1,1,0,0,1,348.53,97.09Z"/><g class="cls-4"><path class="cls-5" d="M515.09,153.95c15.33-8.64,12.9-42.19-5.41-74.68S463.93,27.34,448.6,36s-12.9,42.19,5.41,74.68S499.76,162.59,515.09,153.95Z"/><path class="cls-6" d="M456,103.88c-2.24,2-3.19,5.18-3.71,8.38a59.76,59.76,0,0,0-.26,15.07c0.47,4.89,1.35,9.78,2.24,14.67q1.77,9.65,3.59,19.3a116.81,116.81,0,0,0,2.72,12c1.29,4.28,2.47,10.32,5.84,13.23s9.22,2.06,11.77-.9c2.22-2.58,1.84-6.84,1.34-10.64l-5.78-44.24c-0.41-3.14-2-15.78-2.94-18.87C468.83,105.13,462.86,97.93,456,103.88Z"/><path class="cls-6" d="M408.8,157.85c-0.14.26-.59,0.37-1.75-0.28s-0.89-1.41-1.14-1.52c-6.59-2.87-10.54-5.83-15.92-10.68-1.22-1.1-2.48-2.41-2.6-4-0.06-.83-0.89-2.73-0.62-3.51,0.65-1.88,2.71-2.84,4.63-3.34a5.58,5.58,0,0,1,4.11,1c1.25,0.75,2.91,2.63,4.2,3.3,1.1,0.58,2.52,1.45,2.87,1.31s-2.06-2.06-1.4-2.89,2,0.14,2.79.76c2.62,2,4.62,6.21,7.24,8.19,2.4,1.81,1.93.62,1.27,2.83A54.2,54.2,0,0,1,408.8,157.85Z"/><path class="cls-6" d="M476.36,189.06c-2.08,1.27-5.14,1-8.1.47-4.51-.89-8.9-3-13.45-5-4.36-1.95-8.68-4.23-13-6.53-5.66-3-13-7.52-14.75-8.48-3.51-2-9.83-5.7-13.26-8-3.69-2.45-9.5-6.13-11.91-9.76a4.13,4.13,0,0,1,1.43-5.71c2.59-1.14,11.28,1.68,14.68,3.24,10.14,4.67,21.41,8.94,36.49,16.22,2.78,1.34,14,6.72,16.66,8.48C477,177.87,482.7,185.2,476.36,189.06Z"/><path class="cls-7" d="M462.44,154.83s2,13.9,8.73,19.18l-12-6.21L457,156.47Z"/><path class="cls-6" d="M504.92,74.49c2.79-.89,6,0,9,1.21a59.76,59.76,0,0,1,12.91,7.63c3.91,2.94,7.61,6.24,11.3,9.55q7.29,6.53,14.54,13.11a117.84,117.84,0,0,1,8.83,8.59c3,3.33,7.5,7.48,8.26,11.86s-2.93,8.92-6.72,9.54c-3.31.54-6.73-2-9.7-4.41l-34.59-28c-2.45-2-12.36-9.95-14.51-12.34C499.49,86,496.42,77.2,504.92,74.49Z"/><path class="cls-6" d="M540.58,200.59c4.55-3.49,10.3-5.74,11.85-7.52,0.1-.12,4.87-3.83,5.52-4.46,0.24-.2,5-3.36,5-3.41l4.09-3.28c1.17-1.46,3-.14,2.85-1.29s-9.64-15.53-10.26-16.55c-4.6-7.58-14-13.41-21.65-26.82-6.4-11.3-12.22-37.71-16.33-44.16-3.83-6-7-12.61-8.4-13.94-0.7-.64-5.83-3.74-8.87-3.59a28.17,28.17,0,0,0-6.89.9c-2.39.82-8.2,0.85-12.79,3.55-3.47,1.89-4.55,2-7.47,3.84-3,1.52-3.64,2.75-7,4.7C465.65,91,463,95.37,461.11,97a30.86,30.86,0,0,0-4.46,5.5c-1.66,2.5-1.61,8.46-1.41,9.39,0.4,1.91,4.43,8,7.58,14.4,3.39,6.85,24,24.94,30.33,36.27,7.54,13.45,7.81,23.34,11.92,31.19,0.55,1.06,7.69,16.47,8.52,17.17a6.87,6.87,0,0,0,4.69.89s1.78-2.4,1.78-2.4,5.09-2.34,5.38-2.43c0.86-.22,6.4-2.32,6.55-2.34,2.29-.39,3.36-2,8.6-4"/><path class="cls-8" d="M483.56,73.39A21.84,21.84,0,0,0,487.47,80a6.21,6.21,0,0,1-.53,1.08c-2.71,4.59-10.88,7.72-15.46,8.85-1.9.47-3.19,0.6-3.21,0.34-0.2-2.23-1.73-4.58-2.93-6.11l0-.05h0a20.83,20.83,0,0,0-1.43-1.64l19.2-10.83c0.05,0.24.11,0.49,0.17,0.73S483.44,73.06,483.56,73.39Z"/><path class="cls-6" d="M434.78,56.31c-5.84-10.37-1.54-23.87,9.61-30.15s24.93-3,30.77,7.39A20.11,20.11,0,0,1,477.23,39c0.21,0.42.44,0.84,0.69,1.27a61.07,61.07,0,0,1,5.47,11.67c2.62,8,2.67,16.75-2.06,24.8a17.94,17.94,0,0,1-6.49,6.79c-3.78,2.09-8.32,2.11-12.29,1.18C449.44,81.6,442,70.1,436.24,58.5A20.12,20.12,0,0,1,434.78,56.31Z"/><path class="cls-9" d="M523,80.46c-16.19-11.07-36.8-1.73-36.8-1.73l11.27,4.32,6.08,5.51,27.15,24.58,17.84-12.34A311.15,311.15,0,0,0,523,80.46Z"/><polygon class="cls-10" points="503.61 87.5 531.75 117.92 536.05 115.07 503.61 87.5"/><path class="cls-11" d="M522.64,80c-15.9-10.75-36.39-1.29-36.39-1.29s23.07-5.35,33.8,2.28c2.59,1.84,13.74,11,24.87,20.73l2.76-1.92A297.55,297.55,0,0,0,522.64,80Z"/><path class="cls-9" d="M450.45,122.25C449.37,102.67,468,89.88,468,89.88l-2.14,11.88,1.56,8.05,7,36-19.8,8.88A311.15,311.15,0,0,1,450.45,122.25Z"/><polygon class="cls-10" points="466.54 109.27 477.99 149.09 473.33 151.31 466.54 109.27"/><path class="cls-11" d="M450.29,121.68c-1-19.16,17.74-31.8,17.74-31.8s-16.52,17-15.55,30.1c0.23,3.16,2.33,17.47,4.85,32l-3.07,1.36A297.55,297.55,0,0,1,450.29,121.68Z"/><path class="cls-12" d="M452.34,151.24l25-6.46,1.06,4.76-24.52,7.94a1.93,1.93,0,0,1-2.46-1.36l-0.58-2.3A2.13,2.13,0,0,1,452.34,151.24Z"/><path class="cls-9" d="M476.45,143.74s19.39,20.73,28.75,53.57c0,0,40.15-15,57.42-31.52,0,0-24.51-24.44-34-53.42l-30.51-32-11.87-1.66s9.43,9.83-4.19,16.11-14-5-14-5L464.11,105Z"/><path class="cls-12" d="M517.71,129.06l-0.93.46-2.53,1.22a28.08,28.08,0,0,0-7.39,4.83c-0.61.6-1.21,1.23-1.83,1.84a20.35,20.35,0,0,1-1.91,1.67,19.24,19.24,0,0,1-3.66,2.22,7.32,7.32,0,0,1-1.6.54,3.75,3.75,0,0,1-1.28.05,2.53,2.53,0,0,1-.76-0.24l-0.23-.14,0.26,0.05a2.6,2.6,0,0,0,.74,0,5.32,5.32,0,0,0,2.35-1.16,31.2,31.2,0,0,0,3-2.65c0.54-.53,1.07-1.1,1.62-1.72s1.14-1.29,1.82-2a15.19,15.19,0,0,1,4.44-3,23.55,23.55,0,0,1,4-1.35c1.17-.28,2.12-0.45,2.78-0.56Z"/><path class="cls-11" d="M465.17,73.47c1.05-.15,2.74-2.81,4-3.38s0.89-.78,1.66-1.4,2.92-1.55,3.85-3a9.83,9.83,0,0,1-.37,5.15,5.65,5.65,0,0,1-4,3.29A8.8,8.8,0,0,1,465.17,73.47Z"/><path class="cls-11" d="M463.95,73.61l0.16,0,0.48-.08c0.41-.05,1-0.15,1.68-0.3a10,10,0,0,0,1.08-.32,10.27,10.27,0,0,0,1.15-.5,8.85,8.85,0,0,0,1.14-.68,11.27,11.27,0,0,0,1.08-.86A14.53,14.53,0,0,0,474,66.92c0.16-.31.3-0.6,0.41-0.86a6.28,6.28,0,0,0,.25-0.7c0.06-.2.11-0.35,0.13-0.46l0-.17,0,0.17a4.45,4.45,0,0,1-.06.48,6.48,6.48,0,0,1-.17.73,6.22,6.22,0,0,1-.33.92,10,10,0,0,1-1.27,2.1,14.88,14.88,0,0,1-1.95,2,12,12,0,0,1-1.13.88,8.13,8.13,0,0,1-1.22.68,7.69,7.69,0,0,1-1.22.45,10.7,10.7,0,0,1-1.13.25,12.39,12.39,0,0,1-1.72.13h-0.48Z"/><path class="cls-13" d="M465.81,73.38a14.65,14.65,0,0,0,8.48-7,7.48,7.48,0,0,1-3.14,5.7A7.22,7.22,0,0,1,465.81,73.38Z"/><path class="cls-14" d="M463.34,65.62c3.78-1.2,4-4,3-5.79C469.05,62.53,467.71,65.56,463.34,65.62Z"/><path class="cls-15" d="M467.18,48.7a1.64,1.64,0,0,0,.08.94c0.41,1,1.21,2.9,2.6,2.83,1.66-.09,1.3-2.14.78-3.15a3.19,3.19,0,0,0-1.53-1.56A1.35,1.35,0,0,0,467.18,48.7Z"/><path class="cls-15" d="M466.29,49.87s0.48-2.85,5.28-3C471.57,46.89,466.48,46,466.29,49.87Z"/><path class="cls-15" d="M451.69,57.43a1.64,1.64,0,0,1,.76.56c0.68,0.89,1.86,2.54,1.08,3.69-0.93,1.37-2.51,0-3.1-1a3.19,3.19,0,0,1-.55-2.11A1.35,1.35,0,0,1,451.69,57.43Z"/><path class="cls-15" d="M453.15,57.27s-2.69-1.07-5.28,3C447.87,60.25,449.72,55.43,453.15,57.27Z"/><path class="cls-7" d="M431.89,76.34a5.38,5.38,0,0,1-1.08-.77,15.89,15.89,0,0,0,1.45,4c0.15-.42.32-0.84,0.51-1.27a3.63,3.63,0,0,1,.63-0.94A10.69,10.69,0,0,0,431.89,76.34Z"/><path class="cls-7" d="M444.95,27.36c-10.72,0-19.59,15.05-15.81,27.41a32.54,32.54,0,0,1,1.4,10l0.55,0.13c1.88-2.67,6.44-3.59,8.58.11a86.14,86.14,0,0,0,5.16,7.58,9.88,9.88,0,0,1,.52-4.8c2.46-5.74.49-7-3.11-15.18s6.33-7.4,8.2-17.32C451.15,31.24,455.67,27.35,444.95,27.36Z"/><path class="cls-7" d="M446,66.11a37.94,37.94,0,0,0,20.05,19s-11.1.32-21.22-12.51A5.57,5.57,0,0,1,446,66.11Z"/><path class="cls-16" d="M459.8,43.5c1.54-1.38,4-3.82,8.56-2.88,2.06,0.42,2.13,1.15,0,.89-3.69-.44-5.08,1.18-7.56,3.29C459.8,45.62,458.75,44.44,459.8,43.5Z"/><path class="cls-16" d="M450.15,48.94c-2,.6-5.33,1.43-6.89,5.83-0.7,2-.12,2.41.78,0.42,1.53-3.39,3.64-3.74,6.73-4.76C452,50,451.5,48.53,450.15,48.94Z"/><path class="cls-16" d="M447.83,33.22c-1.87,9.91-11.8,9.17-8.2,17.32s5.57,9.43,3.11,15.18,2.7,17.42,9.69,23.87,9.35,11.19,9.31,18.25,2,10.93,6.53,15.41,7.09,6.77-7.18,2.46-17.65-15.26-19.26-26.43-3-9.36-10.22-18.75S430.3,65,426.52,52.67s5.09-27.4,15.81-27.41S448.54,29.13,447.83,33.22Z"/><path class="cls-17" d="M440.52,28.3c1.5,4.94-3.44,9.87-6.38,13s-4,7.37-.63,11.89,3.45,12.89,2.38,16.7,5.63,14,11.16,19.43c5.13,5.06,6.84,15.9,7.21,20.25,0.4,4.65,2.23,9.79,5.92,11.78-5-1.06-7.54-5.83-8.29-12s-0.08-10.72-7-18.52c-8.77-9.87-12.62-13.09-11.37-22,1-7.07,1.54-8.23-1.89-14-3.52-6-4.14-9.24.06-14S440.79,33.72,440.52,28.3Z"/><path class="cls-16" d="M447.28,33.53c9.45,3.54,14-5.35,19.06,2s5.19,9.65,11.38,10.52,13.5,11.33,15.4,20.65,4.73,13.79,10.8,17.41,8.32,7.36,9.8,13.56,2.12,9.57,5.82-4.87-3.92-23-12.64-30.16-6.44-7.43-10.75-18.45S483.57,35,474.95,25.37s-26.08-9.83-31.64-.67S443.41,32,447.28,33.53Z"/><path class="cls-17" d="M446.85,24.73c3.45,3.84,10.22,2.17,14.44,1.29s8.39,0.37,10.49,5.62,9.24,9.62,13.06,10.68,9,12,10.84,19.61c1.67,7,10.06,14.08,13.59,16.65,3.77,2.75,7.23,7,7,11.17,1.69-4.85-1.08-9.47-6-13.33s-9.13-5.62-12.21-15.58c-3.9-12.61-4.66-17.57-13-21.14-6.56-2.82-7.84-2.95-11-8.89-3.28-6.09-5.76-8.33-12-7.18S451.35,27.77,446.85,24.73Z"/></g></svg>