<svg id="Capa_1" data-name="Capa 1" xmlns="http://www.w3.org/2000/svg" xmlns:xlink="http://www.w3.org/1999/xlink" viewBox="0 0 505 188.57"><defs><style>.cls-1{fill:none;}.cls-2{fill:#92d2e2;}.cls-3{fill:#1d1d1b;opacity:0.8;}.cls-4{clip-path:url(#clip-path);}.cls-5{fill:#5b4d8d;}.cls-14,.cls-16,.cls-17,.cls-5,.cls-7{fill-rule:evenodd;}.cls-6{fill:#fdd481;}.cls-7,.cls-8{fill:#f7bb64;}.cls-9{fill:#ec62a0;}.cls-10{fill:#ec92bd;}.cls-11{fill:#e3589b;}.cls-12{fill:#e34d95;}.cls-13{fill:#fff;}.cls-14{fill:#f7b447;}.cls-15{fill:#29233f;}.cls-16{fill:#6e5aa3;}.cls-17{fill:#7867ac;}</style><clipPath id="clip-path"><rect class="cls-1" y="-5.33" width="141.32" height="193.9" transform="translate(141.32 183.24) rotate(-180)"/></clipPath></defs><title>Dialogo</title><path class="cls-2" d="M79.74,84.23l24.06,17.3v24c0,17.82,11,29.72,26.51,29.72H475.23c15.54,0,29.77-11.9,29.77-29.72V34.82C505,17,490.77,0,475.23,0H130.31C114.77,0,103.8,17,103.8,34.82V64.48Z"/><path class="cls-3" d="M139.85,26.81a1.06,1.06,0,0,1,.25.75v0.38a1.06,1.06,0,0,1-.25.75,1,1,0,0,1-.73.27H138.9a0.94,0.94,0,0,1-.73-0.27,1.06,1.06,0,0,1-.25-0.75V27.56a1.06,1.06,0,0,1,.25-0.75,0.94,0.94,0,0,1,.73-0.27h0.22A1,1,0,0,1,139.85,26.81Zm-0.25,4.57,0.44,8a1.14,1.14,0,0,1-.25.86,1.05,1.05,0,0,1-1.55,0,1.16,1.16,0,0,1-.24-0.86l0.42-8a0.75,0.75,0,0,1,.17-0.48,0.53,0.53,0,0,1,.41-0.16A0.57,0.57,0,0,1,139.6,31.38Z"/><path class="cls-3" d="M153.75,23.36A0.83,0.83,0,0,1,154,24a1.15,1.15,0,0,1-.1.44l-5.1,12.06a1,1,0,0,1-.4.46,1,1,0,0,1-.54.16,1,1,0,0,1-.49-0.17,1.07,1.07,0,0,1-.37-0.43l-5.1-12.08a0.94,0.94,0,0,1-.08-0.42,0.86,0.86,0,0,1,.3-0.68,1,1,0,0,1,.66-0.26,0.93,0.93,0,0,1,.88.64L148.06,34l4.12-10.32a1.15,1.15,0,0,1,.37-0.44,0.87,0.87,0,0,1,.51-0.16A1,1,0,0,1,153.75,23.36Z"/><path class="cls-3" d="M165,26.77a1,1,0,0,1,.27.71v8.68a0.94,0.94,0,0,1-.27.68,0.92,0.92,0,0,1-.69.28,0.9,0.9,0,0,1-.68-0.27,1,1,0,0,1-.26-0.69V35.64A4.28,4.28,0,0,1,162,36.83a4,4,0,0,1-1.94.49,4.53,4.53,0,0,1-2.47-.7,4.8,4.8,0,0,1-1.74-2,6.58,6.58,0,0,1,0-5.62,4.83,4.83,0,0,1,1.73-2,4.57,4.57,0,0,1,4.39-.26A4.08,4.08,0,0,1,163.38,28V27.48a1,1,0,0,1,.26-0.7,0.88,0.88,0,0,1,.68-0.28A0.93,0.93,0,0,1,165,26.77Zm-3.1,8.31a3.24,3.24,0,0,0,1.14-1.32,4.27,4.27,0,0,0,.41-1.9,4.23,4.23,0,0,0-.41-1.88,3.32,3.32,0,0,0-1.14-1.33,2.93,2.93,0,0,0-1.67-.49,3,3,0,0,0-1.67.48A3.24,3.24,0,0,0,157.43,30a4.61,4.61,0,0,0,0,3.8,3.24,3.24,0,0,0,1.14,1.32A3.14,3.14,0,0,0,161.91,35.08Z"/><path class="cls-3" d="M167.32,34.94a0.81,0.81,0,0,1,.42-0.68,0.78,0.78,0,0,1,.46-0.14,0.92,0.92,0,0,1,.66.3,4.21,4.21,0,0,0,1.29,1,3.69,3.69,0,0,0,1.65.34,2.82,2.82,0,0,0,1.34-.35,1.14,1.14,0,0,0,.58-1.07,1.15,1.15,0,0,0-.59-1,6.72,6.72,0,0,0-1.73-.66,12.78,12.78,0,0,1-1.86-.63,3.34,3.34,0,0,1-1.25-1,2.81,2.81,0,0,1,0-3.23,3.39,3.39,0,0,1,1.36-1.06,4.48,4.48,0,0,1,1.85-.38,5.35,5.35,0,0,1,1.91.36,3.59,3.59,0,0,1,1.55,1.1,0.88,0.88,0,0,1,.24.58,0.86,0.86,0,0,1-.32.62,0.72,0.72,0,0,1-.5.18A0.75,0.75,0,0,1,173.8,29a2.82,2.82,0,0,0-1-.74,3.41,3.41,0,0,0-1.35-.26,2.51,2.51,0,0,0-1.29.31,1.12,1.12,0,0,0-.53,1.05,1.16,1.16,0,0,0,.61,1,7.72,7.72,0,0,0,1.81.66,11.2,11.2,0,0,1,1.76.6,3.07,3.07,0,0,1,1.18,1,2.65,2.65,0,0,1,.48,1.65,2.57,2.57,0,0,1-.54,1.63,3.48,3.48,0,0,1-1.41,1.06,4.68,4.68,0,0,1-1.85.37,6.07,6.07,0,0,1-2.33-.44,4.34,4.34,0,0,1-1.81-1.4A1,1,0,0,1,167.32,34.94Z"/><path class="cls-3" d="M198.7,30.82v5.34a1,1,0,0,1-.26.69,0.9,0.9,0,0,1-.68.27,0.92,0.92,0,0,1-.69-0.28,0.94,0.94,0,0,1-.27-0.68V30.84q0-2.62-2.2-2.62a2.85,2.85,0,0,0-1.41.35,2.53,2.53,0,0,0-1,.95,2.57,2.57,0,0,0-.35,1.32v5.32a1,1,0,0,1-.27.68,0.92,0.92,0,0,1-.69.28,0.9,0.9,0,0,1-.68-0.27,1,1,0,0,1-.26-0.69V30.82a3.22,3.22,0,0,0-.5-1.89,1.89,1.89,0,0,0-1.66-.71,2.68,2.68,0,0,0-2,.75,2.48,2.48,0,0,0-.77,1.85v5.34a0.94,0.94,0,0,1-.27.68,0.92,0.92,0,0,1-.69.28,0.9,0.9,0,0,1-.68-0.27,1,1,0,0,1-.26-0.69V27.6a0.94,0.94,0,0,1,.27-0.68,0.89,0.89,0,0,1,.67-0.28,0.92,0.92,0,0,1,.69.28,0.94,0.94,0,0,1,.27.68v0.7A4.38,4.38,0,0,1,186.47,27a3.57,3.57,0,0,1,1.89-.53,3.07,3.07,0,0,1,3.22,2.2A4.25,4.25,0,0,1,193,27.14a3.83,3.83,0,0,1,2.16-.68Q198.7,26.46,198.7,30.82Z"/><path class="cls-3" d="M210,26.92a1,1,0,0,1,.27.68v5.32a4.39,4.39,0,1,1-8.76,0V27.6a0.94,0.94,0,0,1,.27-0.68,0.89,0.89,0,0,1,.67-0.28,0.92,0.92,0,0,1,.69.28,0.94,0.94,0,0,1,.27.68v5.32q0,2.62,2.46,2.62a2.47,2.47,0,0,0,1.86-.66,2.71,2.71,0,0,0,.64-2V27.6a1,1,0,0,1,.27-0.68,0.89,0.89,0,0,1,.67-0.28A0.92,0.92,0,0,1,210,26.92Z"/><path class="cls-3" d="M221.63,26.82a0.94,0.94,0,0,1,.27.68v8.64a4.77,4.77,0,0,1-1.38,3.74,5.24,5.24,0,0,1-3.64,1.24,7.63,7.63,0,0,1-1.46-.14,4.38,4.38,0,0,1-1.18-.38,1,1,0,0,1-.74-0.92,1.12,1.12,0,0,1,0-.26,1.14,1.14,0,0,1,.34-0.52,0.77,0.77,0,0,1,.5-0.18,0.75,0.75,0,0,1,.3.06q0.62,0.28,1.1.44a3.55,3.55,0,0,0,1.12.16q3.1,0,3.1-3.18V35.8a3.64,3.64,0,0,1-1.39,1.12,4.53,4.53,0,0,1-2,.4,3.26,3.26,0,0,1-2.59-1.06,4.06,4.06,0,0,1-.93-2.78v-6a1,1,0,0,1,.26-0.69,0.9,0.9,0,0,1,.68-0.27,0.92,0.92,0,0,1,.69.28,0.94,0.94,0,0,1,.27.68V33a2.81,2.81,0,0,0,.58,2,2.28,2.28,0,0,0,1.76.63,2.59,2.59,0,0,0,1.88-.72A2.48,2.48,0,0,0,220,33V27.5a1,1,0,0,1,.26-0.69,0.9,0.9,0,0,1,.68-0.27A0.92,0.92,0,0,1,221.63,26.82Z"/><path class="cls-3" d="M238,27.1A4.85,4.85,0,0,1,239.71,29a6.1,6.1,0,0,1,.63,2.8,6.22,6.22,0,0,1-.63,2.82,4.82,4.82,0,0,1-1.73,2,4.42,4.42,0,0,1-2.42.7,4.21,4.21,0,0,1-1.94-.46,4.53,4.53,0,0,1-1.46-1.14V36.3a0.94,0.94,0,0,1-.27.68,1,1,0,0,1-1.36,0,0.93,0.93,0,0,1-.27-0.69v-13a1,1,0,0,1,.26-0.69,0.9,0.9,0,0,1,.68-0.27,0.92,0.92,0,0,1,.69.28,0.94,0.94,0,0,1,.27.68v4.88a4,4,0,0,1,1.4-1.24,3.92,3.92,0,0,1,2-.52A4.49,4.49,0,0,1,238,27.1Zm-1,8a3.28,3.28,0,0,0,1.15-1.34,4.3,4.3,0,0,0,.41-1.89,4.24,4.24,0,0,0-.41-1.88A3.22,3.22,0,0,0,237,28.64a3,3,0,0,0-1.66-.48,3,3,0,0,0-1.68.48,3.23,3.23,0,0,0-1.15,1.31,4.21,4.21,0,0,0-.41,1.89,4.27,4.27,0,0,0,.41,1.9,3.29,3.29,0,0,0,1.15,1.33,3,3,0,0,0,1.68.49A2.94,2.94,0,0,0,237,35.07Z"/><path class="cls-3" d="M242.55,25a0.83,0.83,0,0,1-.25-0.67V24a0.79,0.79,0,0,1,.27-0.68,1.4,1.4,0,0,1,.83-0.2,1.25,1.25,0,0,1,.81.21,0.83,0.83,0,0,1,.25.67v0.32a0.81,0.81,0,0,1-.26.68,1.35,1.35,0,0,1-.82.2A1.29,1.29,0,0,1,242.55,25Zm1.52,11.83a0.92,0.92,0,0,1-.69.28,0.89,0.89,0,0,1-.67-0.28,1,1,0,0,1-.27-0.68V27.5a0.94,0.94,0,0,1,.27-0.68,0.89,0.89,0,0,1,.67-0.28,0.92,0.92,0,0,1,.69.28,0.94,0.94,0,0,1,.27.68v8.66A1,1,0,0,1,244.07,36.84Z"/><path class="cls-3" d="M256,32.09a1,1,0,0,1-.66.25h-7a3.48,3.48,0,0,0,1.11,2.34,3.4,3.4,0,0,0,2.37.88,3.72,3.72,0,0,0,1.56-.28,3.92,3.92,0,0,0,1.06-.72,1.13,1.13,0,0,1,.58-0.18,0.76,0.76,0,0,1,.57.24,0.79,0.79,0,0,1,.23.56,1,1,0,0,1-.4.76,4.71,4.71,0,0,1-1.54,1,5.06,5.06,0,0,1-2,.4,5.79,5.79,0,0,1-2.85-.68,4.73,4.73,0,0,1-1.9-1.9,5.63,5.63,0,0,1-.67-2.76,6.08,6.08,0,0,1,.69-2.95,5,5,0,0,1,1.82-2,4.69,4.69,0,0,1,4.83,0,5,5,0,0,1,1.8,1.82,5.2,5.2,0,0,1,.7,2.6A0.86,0.86,0,0,1,256,32.09Zm-6.54-3.3a3.1,3.1,0,0,0-1.08,2h5.9V30.58a2.44,2.44,0,0,0-1-1.74,3,3,0,0,0-1.93-.68A3.09,3.09,0,0,0,249.44,28.79Z"/><path class="cls-3" d="M267.42,30.72v5.44a0.94,0.94,0,0,1-.27.68,0.92,0.92,0,0,1-.69.28,0.89,0.89,0,0,1-.67-0.28,0.94,0.94,0,0,1-.27-0.68V30.74a3,3,0,0,0-.54-1.88,2.08,2.08,0,0,0-1.76-.7,3,3,0,0,0-1.45.35,2.67,2.67,0,0,0-1,.94,2.38,2.38,0,0,0-.37,1.29v5.42a0.94,0.94,0,0,1-.27.68,0.92,0.92,0,0,1-.69.28,0.9,0.9,0,0,1-.68-0.27,1,1,0,0,1-.26-0.69V27.6a0.94,0.94,0,0,1,.27-0.68,0.89,0.89,0,0,1,.67-0.28,0.92,0.92,0,0,1,.69.28,0.94,0.94,0,0,1,.27.68v0.7a4.3,4.3,0,0,1,1.45-1.35,3.84,3.84,0,0,1,2-.55Q267.42,26.4,267.42,30.72Z"/><path class="cls-3" d="M270.33,36.85a1.06,1.06,0,0,1-.25-0.75V35.72a1.06,1.06,0,0,1,.25-0.75,0.94,0.94,0,0,1,.73-0.27h0.22A1,1,0,0,1,272,35a1.06,1.06,0,0,1,.25.75V36.1a1.06,1.06,0,0,1-.25.75,1,1,0,0,1-.73.27h-0.22A0.94,0.94,0,0,1,270.33,36.85Zm0.25-4.57-0.44-8a1.14,1.14,0,0,1,.25-0.86,1.05,1.05,0,0,1,1.55,0,1.16,1.16,0,0,1,.24.86l-0.42,8a0.75,0.75,0,0,1-.17.48,0.53,0.53,0,0,1-.41.16A0.57,0.57,0,0,1,270.58,32.28Z"/><path class="cls-3" d="M291.52,36.26a0.91,0.91,0,0,1-.9.92,0.84,0.84,0,0,1-.51-0.17,1.19,1.19,0,0,1-.37-0.47L288.5,33.6h-6.18l-1.22,3a0.87,0.87,0,0,1-.84.62,0.87,0.87,0,0,1-.64-0.22,0.81,0.81,0,0,1-.22-0.6,2.43,2.43,0,0,1,0-.32l5.1-12.36a1.11,1.11,0,0,1,.39-0.49,0.81,0.81,0,0,1,.57-0.13,1,1,0,0,1,.54.16,0.86,0.86,0,0,1,.34.46l5.08,12.2A1.2,1.2,0,0,1,291.52,36.26Zm-8.44-4.48h4.66l-2.34-5.6Z"/><path class="cls-3" d="M306,26.9a1.49,1.49,0,0,1,1.05,1.28,0.94,0.94,0,0,1-.22.61,0.69,0.69,0,0,1-.56.27,0.87,0.87,0,0,1-.41-0.08,4.37,4.37,0,0,1-.41-0.26,2.18,2.18,0,0,0-.38-0.28,2.64,2.64,0,0,0-.68-0.2,4.52,4.52,0,0,0-.8-0.08,3.51,3.51,0,0,0-1.84.48A3.27,3.27,0,0,0,300.54,30a4,4,0,0,0-.44,1.89,4.11,4.11,0,0,0,.43,1.9,3.26,3.26,0,0,0,1.21,1.32,3.33,3.33,0,0,0,1.78.48,3.77,3.77,0,0,0,1.68-.32,4,4,0,0,0,.38-0.26,2.37,2.37,0,0,1,.35-0.24,0.78,0.78,0,0,1,.37-0.08,0.81,0.81,0,0,1,.63.25,0.92,0.92,0,0,1,.23.65,1.11,1.11,0,0,1-.53.83,4.26,4.26,0,0,1-1.42.67,6.78,6.78,0,0,1-1.91.26,5,5,0,0,1-2.68-.71,4.75,4.75,0,0,1-1.79-2,6.11,6.11,0,0,1-.63-2.79,5.88,5.88,0,0,1,.66-2.79,4.92,4.92,0,0,1,1.84-2,5.14,5.14,0,0,1,2.7-.71A6.11,6.11,0,0,1,306,26.9Z"/><path class="cls-3" d="M318.34,34.68a5.09,5.09,0,0,1-1.91,1.94,5.44,5.44,0,0,1-5.34,0,5.08,5.08,0,0,1-1.91-1.94,5.6,5.6,0,0,1-.7-2.8,5.71,5.71,0,0,1,.7-2.82,5,5,0,0,1,1.91-2,5.44,5.44,0,0,1,5.34,0,5.05,5.05,0,0,1,1.91,2,5.71,5.71,0,0,1,.7,2.82A5.6,5.6,0,0,1,318.34,34.68Zm-1.65-4.73a3.35,3.35,0,0,0-1.22-1.32,3.35,3.35,0,0,0-3.42,0,3.34,3.34,0,0,0-1.22,1.32,4.06,4.06,0,0,0-.45,1.93,4,4,0,0,0,.45,1.9,3.36,3.36,0,0,0,1.22,1.31,3.35,3.35,0,0,0,3.42,0,3.36,3.36,0,0,0,1.22-1.31,4,4,0,0,0,.45-1.9A4.06,4.06,0,0,0,316.69,29.95Z"/><path class="cls-3" d="M330.18,30.72v5.44a0.94,0.94,0,0,1-.27.68,0.92,0.92,0,0,1-.69.28,0.89,0.89,0,0,1-.67-0.28,0.94,0.94,0,0,1-.27-0.68V30.74a3,3,0,0,0-.54-1.88,2.08,2.08,0,0,0-1.76-.7,3,3,0,0,0-1.45.35,2.67,2.67,0,0,0-1,.94,2.38,2.38,0,0,0-.37,1.29v5.42a0.94,0.94,0,0,1-.27.68,0.92,0.92,0,0,1-.69.28,0.9,0.9,0,0,1-.68-0.27,1,1,0,0,1-.26-0.69V27.6a0.94,0.94,0,0,1,.27-0.68,0.89,0.89,0,0,1,.67-0.28,0.92,0.92,0,0,1,.69.28,0.94,0.94,0,0,1,.27.68v0.7a4.3,4.3,0,0,1,1.45-1.35,3.84,3.84,0,0,1,2-.55Q330.18,26.4,330.18,30.72Z"/><path class="cls-3" d="M335.86,28.5v6a0.84,0.84,0,0,0,.9,1,1.44,1.44,0,0,0,.38-0.07,1.46,1.46,0,0,1,.38-0.07,0.55,0.55,0,0,1,.44.22,0.84,0.84,0,0,1-.3,1.28,2,2,0,0,1-1.08.3,4.88,4.88,0,0,1-1.21-.14,1.79,1.79,0,0,1-1-.71,2.86,2.86,0,0,1-.43-1.73v-6H332.8a0.85,0.85,0,0,1-.88-0.88,0.82,0.82,0,0,1,.25-0.62,0.87,0.87,0,0,1,.63-0.24H334V25.08a1,1,0,0,1,.27-0.68,0.92,0.92,0,0,1,.69-0.28,0.89,0.89,0,0,1,.67.28,1,1,0,0,1,.27.68v1.68h1.66a0.85,0.85,0,0,1,.88.88,0.82,0.82,0,0,1-.25.62,0.87,0.87,0,0,1-.63.24h-1.66Z"/><path class="cls-3" d="M340.63,25a0.83,0.83,0,0,1-.25-0.67V24a0.79,0.79,0,0,1,.27-0.68,1.4,1.4,0,0,1,.83-0.2,1.25,1.25,0,0,1,.81.21,0.83,0.83,0,0,1,.25.67v0.32a0.81,0.81,0,0,1-.26.68,1.35,1.35,0,0,1-.82.2A1.29,1.29,0,0,1,340.63,25Zm1.52,11.83a0.92,0.92,0,0,1-.69.28,0.89,0.89,0,0,1-.67-0.28,1,1,0,0,1-.27-0.68V27.5a0.94,0.94,0,0,1,.27-0.68,0.89,0.89,0,0,1,.67-0.28,0.92,0.92,0,0,1,.69.28,0.94,0.94,0,0,1,.27.68v8.66A1,1,0,0,1,342.15,36.84Z"/><path class="cls-3" d="M354.1,30.72v5.44a0.94,0.94,0,0,1-.27.68,0.92,0.92,0,0,1-.69.28,0.89,0.89,0,0,1-.67-0.28,0.94,0.94,0,0,1-.27-0.68V30.74a3,3,0,0,0-.54-1.88,2.08,2.08,0,0,0-1.76-.7,3,3,0,0,0-1.45.35,2.67,2.67,0,0,0-1,.94,2.38,2.38,0,0,0-.37,1.29v5.42a0.94,0.94,0,0,1-.27.68,0.92,0.92,0,0,1-.69.28,0.9,0.9,0,0,1-.68-0.27,1,1,0,0,1-.26-0.69V27.6a0.94,0.94,0,0,1,.27-0.68,0.89,0.89,0,0,1,.67-0.28,0.92,0.92,0,0,1,.69.28,0.94,0.94,0,0,1,.27.68v0.7a4.3,4.3,0,0,1,1.45-1.35,3.84,3.84,0,0,1,2-.55Q354.1,26.4,354.1,30.72Z"/><path class="cls-3" d="M365.43,26.92a1,1,0,0,1,.27.68v5.32a4.39,4.39,0,1,1-8.76,0V27.6a0.94,0.94,0,0,1,.27-0.68,0.89,0.89,0,0,1,.67-0.28,0.92,0.92,0,0,1,.69.28,0.94,0.94,0,0,1,.27.68v5.32q0,2.62,2.46,2.62a2.47,2.47,0,0,0,1.86-.66,2.71,2.71,0,0,0,.64-2V27.6a1,1,0,0,1,.27-0.68,0.89,0.89,0,0,1,.67-0.28A0.92,0.92,0,0,1,365.43,26.92Z"/><path class="cls-3" d="M377.73,26.77a1,1,0,0,1,.27.71v8.68a1,1,0,0,1-.27.68,0.92,0.92,0,0,1-.69.28,0.9,0.9,0,0,1-.68-0.27,1,1,0,0,1-.26-0.69V35.64a4.29,4.29,0,0,1-1.42,1.19,4,4,0,0,1-1.94.49,4.53,4.53,0,0,1-2.47-.7,4.8,4.8,0,0,1-1.74-2,6.58,6.58,0,0,1,0-5.62,4.83,4.83,0,0,1,1.73-2,4.42,4.42,0,0,1,2.42-.7,4.47,4.47,0,0,1,2,.44A4.09,4.09,0,0,1,376.1,28V27.48a1,1,0,0,1,.26-0.7A0.88,0.88,0,0,1,377,26.5,0.94,0.94,0,0,1,377.73,26.77Zm-3.1,8.31a3.25,3.25,0,0,0,1.14-1.32,4.29,4.29,0,0,0,.41-1.9,4.24,4.24,0,0,0-.41-1.88,3.33,3.33,0,0,0-1.14-1.33,2.93,2.93,0,0,0-1.67-.49,3,3,0,0,0-1.67.48A3.24,3.24,0,0,0,370.15,30a4.61,4.61,0,0,0,0,3.8,3.24,3.24,0,0,0,1.14,1.32A3.14,3.14,0,0,0,374.63,35.08Z"/><path class="cls-3" d="M388,26.9a1.49,1.49,0,0,1,1,1.28,0.94,0.94,0,0,1-.22.61,0.69,0.69,0,0,1-.56.27,0.88,0.88,0,0,1-.41-0.08,4.57,4.57,0,0,1-.41-0.26,2.11,2.11,0,0,0-.38-0.28,2.64,2.64,0,0,0-.68-0.2,4.51,4.51,0,0,0-.8-0.08,3.51,3.51,0,0,0-1.84.48A3.26,3.26,0,0,0,382.52,30a4,4,0,0,0-.44,1.89,4.1,4.1,0,0,0,.43,1.9,3.25,3.25,0,0,0,1.21,1.32,3.33,3.33,0,0,0,1.78.48,3.77,3.77,0,0,0,1.68-.32,4,4,0,0,0,.38-0.26,2.37,2.37,0,0,1,.35-0.24,0.78,0.78,0,0,1,.37-0.08,0.81,0.81,0,0,1,.63.25,0.92,0.92,0,0,1,.23.65,1.11,1.11,0,0,1-.53.83,4.26,4.26,0,0,1-1.42.67,6.79,6.79,0,0,1-1.91.26,5,5,0,0,1-2.68-.71,4.75,4.75,0,0,1-1.79-2,6.11,6.11,0,0,1-.63-2.79,5.88,5.88,0,0,1,.66-2.79,4.91,4.91,0,0,1,1.84-2,5.13,5.13,0,0,1,2.7-.71A6.11,6.11,0,0,1,388,26.9Z"/><path class="cls-3" d="M391.11,25a0.83,0.83,0,0,1-.25-0.67V24a0.79,0.79,0,0,1,.27-0.68,1.4,1.4,0,0,1,.83-0.2,1.25,1.25,0,0,1,.81.21A0.83,0.83,0,0,1,393,24v0.32a0.81,0.81,0,0,1-.26.68,1.35,1.35,0,0,1-.82.2A1.3,1.3,0,0,1,391.11,25Zm1.52,11.83a0.92,0.92,0,0,1-.69.28,0.89,0.89,0,0,1-.67-0.28,1,1,0,0,1-.27-0.68V27.5a0.94,0.94,0,0,1,.27-0.68,0.89,0.89,0,0,1,.67-0.28,0.92,0.92,0,0,1,.69.28,0.94,0.94,0,0,1,.27.68v8.66A1,1,0,0,1,392.63,36.84Z"/><path class="cls-3" d="M404.86,34.68A5.09,5.09,0,0,1,403,36.62a5.44,5.44,0,0,1-5.34,0,5.08,5.08,0,0,1-1.91-1.94,5.59,5.59,0,0,1-.7-2.8,5.7,5.7,0,0,1,.7-2.82,5,5,0,0,1,1.91-2,5.44,5.44,0,0,1,5.34,0,5.05,5.05,0,0,1,1.91,2,5.71,5.71,0,0,1,.7,2.82A5.6,5.6,0,0,1,404.86,34.68Zm-1.65-4.73A3.34,3.34,0,0,0,402,28.63a3.35,3.35,0,0,0-3.42,0,3.34,3.34,0,0,0-1.22,1.32,4.06,4.06,0,0,0-.45,1.93,4,4,0,0,0,.45,1.9,3.36,3.36,0,0,0,1.22,1.31,3.35,3.35,0,0,0,3.42,0,3.35,3.35,0,0,0,1.22-1.31,4,4,0,0,0,.45-1.9A4.06,4.06,0,0,0,403.21,29.95Zm-3.33-4.25a0.41,0.41,0,0,1-.16-0.38,0.72,0.72,0,0,1,.12-0.36L401,23a1.54,1.54,0,0,1,.39-0.46,0.83,0.83,0,0,1,.53-0.18,0.91,0.91,0,0,1,.67.23,0.76,0.76,0,0,1,.21.61,1.05,1.05,0,0,1-.3.7L401,25.52a1.08,1.08,0,0,1-.8.32A0.57,0.57,0,0,1,399.88,25.7Z"/><path class="cls-3" d="M416.7,30.72v5.44a1,1,0,0,1-.27.68,0.92,0.92,0,0,1-.69.28,0.89,0.89,0,0,1-.67-0.28,0.94,0.94,0,0,1-.27-0.68V30.74a3,3,0,0,0-.54-1.88,2.09,2.09,0,0,0-1.76-.7,3,3,0,0,0-1.45.35,2.67,2.67,0,0,0-1,.94,2.38,2.38,0,0,0-.37,1.29v5.42a0.94,0.94,0,0,1-.27.68,0.92,0.92,0,0,1-.69.28,0.9,0.9,0,0,1-.68-0.27,1,1,0,0,1-.26-0.69V27.6a0.94,0.94,0,0,1,.27-0.68,0.89,0.89,0,0,1,.67-0.28,0.92,0.92,0,0,1,.69.28,0.94,0.94,0,0,1,.27.68v0.7a4.31,4.31,0,0,1,1.45-1.35,3.84,3.84,0,0,1,2-.55Q416.7,26.4,416.7,30.72Z"/><path class="cls-3" d="M432.27,26.9a1.49,1.49,0,0,1,1,1.28,0.94,0.94,0,0,1-.22.61,0.69,0.69,0,0,1-.56.27,0.88,0.88,0,0,1-.41-0.08,4.57,4.57,0,0,1-.41-0.26,2.11,2.11,0,0,0-.38-0.28,2.64,2.64,0,0,0-.68-0.2,4.51,4.51,0,0,0-.8-0.08,3.51,3.51,0,0,0-1.84.48A3.26,3.26,0,0,0,426.78,30a4,4,0,0,0-.44,1.89,4.1,4.1,0,0,0,.43,1.9A3.25,3.25,0,0,0,428,35.08a3.33,3.33,0,0,0,1.78.48,3.77,3.77,0,0,0,1.68-.32,4,4,0,0,0,.38-0.26,2.37,2.37,0,0,1,.35-0.24,0.78,0.78,0,0,1,.37-0.08,0.81,0.81,0,0,1,.63.25,0.92,0.92,0,0,1,.23.65,1.11,1.11,0,0,1-.53.83,4.26,4.26,0,0,1-1.42.67,6.79,6.79,0,0,1-1.91.26,5,5,0,0,1-2.68-.71,4.75,4.75,0,0,1-1.79-2,6.11,6.11,0,0,1-.63-2.79,5.88,5.88,0,0,1,.66-2.79,4.91,4.91,0,0,1,1.84-2,5.13,5.13,0,0,1,2.7-.71A6.11,6.11,0,0,1,432.27,26.9Z"/><path class="cls-3" d="M441.48,26.67a0.8,0.8,0,0,1,.38.67,1,1,0,0,1-.25.73,0.83,0.83,0,0,1-.61.25,1.91,1.91,0,0,1-.54-0.12,2.25,2.25,0,0,0-.66-0.14,2,2,0,0,0-1.21.43,3.14,3.14,0,0,0-1,1.18,3.72,3.72,0,0,0-.37,1.67v4.82a0.94,0.94,0,0,1-.27.68,0.92,0.92,0,0,1-.69.28,0.9,0.9,0,0,1-.68-0.27,1,1,0,0,1-.26-0.69V27.6a0.94,0.94,0,0,1,.27-0.68,0.89,0.89,0,0,1,.67-0.28,0.92,0.92,0,0,1,.69.28,0.94,0.94,0,0,1,.27.68v1A3.78,3.78,0,0,1,438.58,27a3.55,3.55,0,0,1,2-.63A1.52,1.52,0,0,1,441.48,26.67Z"/><path class="cls-3" d="M452.08,32.09a1,1,0,0,1-.66.25h-7a3.47,3.47,0,0,0,1.11,2.34,3.4,3.4,0,0,0,2.37.88,3.72,3.72,0,0,0,1.56-.28,3.92,3.92,0,0,0,1.06-.72,1.13,1.13,0,0,1,.58-0.18,0.76,0.76,0,0,1,.57.24,0.78,0.78,0,0,1,.23.56,1,1,0,0,1-.4.76,4.7,4.7,0,0,1-1.54,1,5.06,5.06,0,0,1-2,.4,5.79,5.79,0,0,1-2.85-.68,4.74,4.74,0,0,1-1.9-1.9,5.63,5.63,0,0,1-.67-2.76,6.08,6.08,0,0,1,.69-2.95,5,5,0,0,1,1.82-2,4.69,4.69,0,0,1,4.83,0,5,5,0,0,1,1.8,1.82,5.2,5.2,0,0,1,.7,2.6A0.86,0.86,0,0,1,452.08,32.09Zm-6.54-3.3a3.1,3.1,0,0,0-1.08,2h5.9V30.58a2.44,2.44,0,0,0-.95-1.74,3,3,0,0,0-1.93-.68A3.09,3.09,0,0,0,445.54,28.79Z"/><path class="cls-3" d="M463.85,26.77a1,1,0,0,1,.27.71v8.68a1,1,0,0,1-.27.68,0.92,0.92,0,0,1-.69.28,0.9,0.9,0,0,1-.68-0.27,1,1,0,0,1-.26-0.69V35.64a4.29,4.29,0,0,1-1.42,1.19,4,4,0,0,1-1.94.49,4.53,4.53,0,0,1-2.47-.7,4.8,4.8,0,0,1-1.74-2,6.58,6.58,0,0,1,0-5.62,4.83,4.83,0,0,1,1.73-2,4.42,4.42,0,0,1,2.42-.7,4.47,4.47,0,0,1,2,.44A4.09,4.09,0,0,1,462.22,28V27.48a1,1,0,0,1,.26-0.7,0.88,0.88,0,0,1,.68-0.28A0.94,0.94,0,0,1,463.85,26.77Zm-3.1,8.31a3.25,3.25,0,0,0,1.14-1.32,4.29,4.29,0,0,0,.41-1.9,4.24,4.24,0,0,0-.41-1.88,3.33,3.33,0,0,0-1.14-1.33,2.93,2.93,0,0,0-1.67-.49,3,3,0,0,0-1.67.48A3.24,3.24,0,0,0,456.27,30a4.61,4.61,0,0,0,0,3.8,3.24,3.24,0,0,0,1.14,1.32A3.14,3.14,0,0,0,460.75,35.08Z"/><path class="cls-3" d="M146.59,50.92a1,1,0,0,1,.27.68v5.32a4.39,4.39,0,1,1-8.76,0V51.6a0.94,0.94,0,0,1,.27-0.68,0.89,0.89,0,0,1,.67-0.28,0.92,0.92,0,0,1,.69.28,0.94,0.94,0,0,1,.27.68v5.32q0,2.62,2.46,2.62a2.47,2.47,0,0,0,1.86-.66,2.71,2.71,0,0,0,.64-2V51.6a1,1,0,0,1,.27-0.68,0.89,0.89,0,0,1,.67-0.28A0.92,0.92,0,0,1,146.59,50.92Z"/><path class="cls-3" d="M158.64,54.72v5.44a0.94,0.94,0,0,1-.27.68,0.92,0.92,0,0,1-.69.28,0.89,0.89,0,0,1-.67-0.28,0.94,0.94,0,0,1-.27-0.68V54.74a3,3,0,0,0-.54-1.88,2.08,2.08,0,0,0-1.76-.7,3,3,0,0,0-1.45.35,2.67,2.67,0,0,0-1,.94,2.38,2.38,0,0,0-.37,1.29v5.42a0.94,0.94,0,0,1-.27.68,0.92,0.92,0,0,1-.69.28,0.9,0.9,0,0,1-.68-0.27,1,1,0,0,1-.26-0.69V51.6a0.94,0.94,0,0,1,.27-0.68,0.89,0.89,0,0,1,.67-0.28,0.92,0.92,0,0,1,.69.28,0.94,0.94,0,0,1,.27.68v0.7a4.3,4.3,0,0,1,1.45-1.35,3.84,3.84,0,0,1,2-.55Q158.64,50.4,158.64,54.72Z"/><path class="cls-3" d="M176.21,46.59a0.93,0.93,0,0,1,.27.69V60.16a0.94,0.94,0,0,1-.27.68,0.92,0.92,0,0,1-.69.28,0.9,0.9,0,0,1-.68-0.27,1,1,0,0,1-.26-0.69V59.6a4,4,0,0,1-1.41,1.22,4,4,0,0,1-1.95.5,4.48,4.48,0,0,1-2.46-.7,4.9,4.9,0,0,1-1.74-2,6.07,6.07,0,0,1-.64-2.81A6.16,6.16,0,0,1,167,53a4.83,4.83,0,0,1,1.73-2,4.55,4.55,0,0,1,4.38-.26A4.2,4.2,0,0,1,174.58,52v-4.7a1,1,0,0,1,.26-0.69,0.9,0.9,0,0,1,.68-0.27A0.93,0.93,0,0,1,176.21,46.59Zm-3.1,12.49a3.24,3.24,0,0,0,1.14-1.32,4.58,4.58,0,0,0,0-3.79,3.23,3.23,0,0,0-1.14-1.33,3.14,3.14,0,0,0-3.34,0A3.23,3.23,0,0,0,168.63,54a4.59,4.59,0,0,0,0,3.79,3.24,3.24,0,0,0,1.14,1.32A3.14,3.14,0,0,0,173.11,59.08Z"/><path class="cls-3" d="M179.31,49a0.83,0.83,0,0,1-.25-0.67V48a0.79,0.79,0,0,1,.27-0.68,1.4,1.4,0,0,1,.83-0.2,1.25,1.25,0,0,1,.81.21,0.83,0.83,0,0,1,.25.67v0.32A0.81,0.81,0,0,1,181,49a1.35,1.35,0,0,1-.82.2A1.29,1.29,0,0,1,179.31,49Zm1.52,11.83a0.92,0.92,0,0,1-.69.28,0.89,0.89,0,0,1-.67-0.28,1,1,0,0,1-.27-0.68V51.5a0.94,0.94,0,0,1,.27-0.68,0.89,0.89,0,0,1,.67-0.28,0.92,0.92,0,0,1,.69.28,0.94,0.94,0,0,1,.27.68v8.66A1,1,0,0,1,180.83,60.84Z"/><path class="cls-3" d="M191.56,51.1A4.85,4.85,0,0,1,193.29,53a6.1,6.1,0,0,1,.63,2.8,6.22,6.22,0,0,1-.63,2.82,4.82,4.82,0,0,1-1.73,2,4.42,4.42,0,0,1-2.42.7,4.21,4.21,0,0,1-1.94-.46,4.53,4.53,0,0,1-1.46-1.14V60.3a0.94,0.94,0,0,1-.27.68,1,1,0,0,1-1.36,0,0.93,0.93,0,0,1-.27-0.69v-13a1,1,0,0,1,.26-0.69,0.9,0.9,0,0,1,.68-0.27,0.92,0.92,0,0,1,.69.28,0.94,0.94,0,0,1,.27.68v4.88a4,4,0,0,1,1.4-1.24,3.92,3.92,0,0,1,2-.52A4.49,4.49,0,0,1,191.56,51.1Zm-1,8a3.28,3.28,0,0,0,1.15-1.34,4.3,4.3,0,0,0,.41-1.89,4.24,4.24,0,0,0-.41-1.88,3.22,3.22,0,0,0-1.15-1.32,3,3,0,0,0-1.66-.48,3,3,0,0,0-1.68.48,3.23,3.23,0,0,0-1.15,1.31,4.21,4.21,0,0,0-.41,1.89,4.27,4.27,0,0,0,.41,1.9,3.29,3.29,0,0,0,1.15,1.33,3,3,0,0,0,1.68.49A2.94,2.94,0,0,0,190.54,59.07Z"/><path class="cls-3" d="M204.61,50.92a1,1,0,0,1,.27.68v5.32a4.39,4.39,0,1,1-8.76,0V51.6a0.94,0.94,0,0,1,.27-0.68,0.89,0.89,0,0,1,.67-0.28,0.92,0.92,0,0,1,.69.28,0.94,0.94,0,0,1,.27.68v5.32q0,2.62,2.46,2.62a2.47,2.47,0,0,0,1.86-.66,2.71,2.71,0,0,0,.64-2V51.6a1,1,0,0,1,.27-0.68,0.89,0.89,0,0,1,.67-0.28A0.92,0.92,0,0,1,204.61,50.92Z"/><path class="cls-3" d="M206.15,64.8a0.87,0.87,0,0,1-.25-0.62V64a0.88,0.88,0,0,1,.82-0.86,1.81,1.81,0,0,0,1.28-2V51.6a0.94,0.94,0,0,1,.27-0.68,0.92,0.92,0,0,1,.69-0.28,0.89,0.89,0,0,1,.67.28,1,1,0,0,1,.27.68v10a3.71,3.71,0,0,1-.43,1.82,3.07,3.07,0,0,1-1.15,1.2,3,3,0,0,1-1.54.42A0.84,0.84,0,0,1,206.15,64.8Zm2-15.79a0.83,0.83,0,0,1-.25-0.67V48a0.79,0.79,0,0,1,.27-0.68,1.4,1.4,0,0,1,.83-0.2,1.26,1.26,0,0,1,.81.21A0.83,0.83,0,0,1,210,48v0.32a0.81,0.81,0,0,1-.26.68,1.35,1.35,0,0,1-.82.2A1.29,1.29,0,0,1,208.11,49Z"/><path class="cls-3" d="M222.16,58.68a5.09,5.09,0,0,1-1.91,1.94,5.44,5.44,0,0,1-5.34,0A5.08,5.08,0,0,1,213,58.68a5.6,5.6,0,0,1-.7-2.8,5.71,5.71,0,0,1,.7-2.82,5,5,0,0,1,1.91-2,5.44,5.44,0,0,1,5.34,0,5.05,5.05,0,0,1,1.91,2,5.71,5.71,0,0,1,.7,2.82A5.6,5.6,0,0,1,222.16,58.68Zm-1.65-4.73a3.35,3.35,0,0,0-1.22-1.32,3.35,3.35,0,0,0-3.42,0,3.34,3.34,0,0,0-1.22,1.32,4.06,4.06,0,0,0-.45,1.93,4,4,0,0,0,.45,1.9,3.36,3.36,0,0,0,1.22,1.31,3.35,3.35,0,0,0,3.42,0,3.36,3.36,0,0,0,1.22-1.31,4,4,0,0,0,.45-1.9A4.06,4.06,0,0,0,220.51,53.95Z"/><path class="cls-3" d="M239.79,46.59a0.93,0.93,0,0,1,.27.69V60.16a0.94,0.94,0,0,1-.27.68,0.92,0.92,0,0,1-.69.28,0.9,0.9,0,0,1-.68-0.27,1,1,0,0,1-.26-0.69V59.6a4,4,0,0,1-1.41,1.22,4,4,0,0,1-1.95.5,4.48,4.48,0,0,1-2.46-.7,4.9,4.9,0,0,1-1.74-2,6.07,6.07,0,0,1-.64-2.81,6.16,6.16,0,0,1,.63-2.81,4.83,4.83,0,0,1,1.73-2,4.55,4.55,0,0,1,4.38-.26A4.2,4.2,0,0,1,238.16,52v-4.7a1,1,0,0,1,.26-0.69,0.9,0.9,0,0,1,.68-0.27A0.93,0.93,0,0,1,239.79,46.59Zm-3.1,12.49a3.24,3.24,0,0,0,1.14-1.32,4.58,4.58,0,0,0,0-3.79,3.23,3.23,0,0,0-1.14-1.33,3.14,3.14,0,0,0-3.34,0A3.23,3.23,0,0,0,232.21,54a4.59,4.59,0,0,0,0,3.79,3.24,3.24,0,0,0,1.14,1.32A3.14,3.14,0,0,0,236.69,59.08Z"/><path class="cls-3" d="M252.1,58.68a5.09,5.09,0,0,1-1.91,1.94,5.44,5.44,0,0,1-5.34,0,5.08,5.08,0,0,1-1.91-1.94,5.6,5.6,0,0,1-.7-2.8,5.71,5.71,0,0,1,.7-2.82,5,5,0,0,1,1.91-2,5.44,5.44,0,0,1,5.34,0,5.05,5.05,0,0,1,1.91,2,5.71,5.71,0,0,1,.7,2.82A5.6,5.6,0,0,1,252.1,58.68Zm-1.65-4.73a3.35,3.35,0,0,0-1.22-1.32,3.35,3.35,0,0,0-3.42,0,3.34,3.34,0,0,0-1.22,1.32,4.06,4.06,0,0,0-.45,1.93,4,4,0,0,0,.45,1.9,3.36,3.36,0,0,0,1.22,1.31,3.35,3.35,0,0,0,3.42,0,3.36,3.36,0,0,0,1.22-1.31,4,4,0,0,0,.45-1.9A4.06,4.06,0,0,0,250.45,53.95Z"/><path class="cls-3" d="M263.94,54.72v5.44a0.94,0.94,0,0,1-.27.68,0.92,0.92,0,0,1-.69.28,0.89,0.89,0,0,1-.67-0.28,0.94,0.94,0,0,1-.27-0.68V54.74a3,3,0,0,0-.54-1.88,2.08,2.08,0,0,0-1.76-.7,3,3,0,0,0-1.45.35,2.67,2.67,0,0,0-1,.94,2.38,2.38,0,0,0-.37,1.29v5.42a0.94,0.94,0,0,1-.27.68,0.92,0.92,0,0,1-.69.28,0.9,0.9,0,0,1-.68-0.27,1,1,0,0,1-.26-0.69V51.6a0.94,0.94,0,0,1,.27-0.68,0.89,0.89,0,0,1,.67-0.28,0.92,0.92,0,0,1,.69.28,0.94,0.94,0,0,1,.27.68v0.7a4.3,4.3,0,0,1,1.45-1.35,3.84,3.84,0,0,1,2-.55Q263.94,50.4,263.94,54.72Z"/><path class="cls-3" d="M276,46.59a0.93,0.93,0,0,1,.27.69V60.16a0.94,0.94,0,0,1-.27.68,0.92,0.92,0,0,1-.69.28,0.9,0.9,0,0,1-.68-0.27,1,1,0,0,1-.26-0.69V59.6a4,4,0,0,1-1.41,1.22,4,4,0,0,1-1.95.5,4.48,4.48,0,0,1-2.46-.7,4.9,4.9,0,0,1-1.74-2,6.07,6.07,0,0,1-.64-2.81,6.16,6.16,0,0,1,.63-2.81,4.83,4.83,0,0,1,1.73-2,4.55,4.55,0,0,1,4.38-.26A4.2,4.2,0,0,1,274.34,52v-4.7a1,1,0,0,1,.26-0.69,0.9,0.9,0,0,1,.68-0.27A0.93,0.93,0,0,1,276,46.59Zm-3.1,12.49A3.24,3.24,0,0,0,274,57.76,4.58,4.58,0,0,0,274,54a3.23,3.23,0,0,0-1.14-1.33,3.14,3.14,0,0,0-3.34,0A3.23,3.23,0,0,0,268.39,54a4.59,4.59,0,0,0,0,3.79,3.24,3.24,0,0,0,1.14,1.32A3.14,3.14,0,0,0,272.87,59.08Z"/><path class="cls-3" d="M288,56.09a1,1,0,0,1-.66.25h-7a3.48,3.48,0,0,0,1.11,2.34,3.4,3.4,0,0,0,2.37.88,3.72,3.72,0,0,0,1.56-.28,3.92,3.92,0,0,0,1.06-.72,1.13,1.13,0,0,1,.58-0.18,0.76,0.76,0,0,1,.57.24,0.79,0.79,0,0,1,.23.56,1,1,0,0,1-.4.76,4.71,4.71,0,0,1-1.54,1,5.06,5.06,0,0,1-2,.4,5.79,5.79,0,0,1-2.85-.68,4.73,4.73,0,0,1-1.9-1.9,5.63,5.63,0,0,1-.67-2.76,6.08,6.08,0,0,1,.69-2.95,5,5,0,0,1,1.82-2,4.69,4.69,0,0,1,4.83,0,5,5,0,0,1,1.8,1.82,5.2,5.2,0,0,1,.7,2.6A0.86,0.86,0,0,1,288,56.09Zm-6.54-3.3a3.1,3.1,0,0,0-1.08,2h5.9V54.58a2.44,2.44,0,0,0-1-1.74,3,3,0,0,0-1.93-.68A3.09,3.09,0,0,0,281.42,52.79Z"/><path class="cls-3" d="M302.12,50.67a0.8,0.8,0,0,1,.38.67,1,1,0,0,1-.25.73,0.83,0.83,0,0,1-.61.25,1.9,1.9,0,0,1-.54-0.12,2.25,2.25,0,0,0-.66-0.14,2,2,0,0,0-1.21.43,3.14,3.14,0,0,0-1,1.18,3.73,3.73,0,0,0-.37,1.67v4.82a0.94,0.94,0,0,1-.27.68,0.92,0.92,0,0,1-.69.28,0.9,0.9,0,0,1-.68-0.27,1,1,0,0,1-.26-0.69V51.6a0.94,0.94,0,0,1,.27-0.68,0.89,0.89,0,0,1,.67-0.28,0.92,0.92,0,0,1,.69.28,0.94,0.94,0,0,1,.27.68v1A3.79,3.79,0,0,1,299.22,51a3.54,3.54,0,0,1,2-.63A1.52,1.52,0,0,1,302.12,50.67Z"/><path class="cls-3" d="M312.72,56.09a1,1,0,0,1-.66.25h-7a3.48,3.48,0,0,0,1.11,2.34,3.4,3.4,0,0,0,2.37.88,3.72,3.72,0,0,0,1.56-.28,3.92,3.92,0,0,0,1.06-.72,1.13,1.13,0,0,1,.58-0.18,0.76,0.76,0,0,1,.57.24,0.79,0.79,0,0,1,.23.56,1,1,0,0,1-.4.76,4.71,4.71,0,0,1-1.54,1,5.06,5.06,0,0,1-2,.4,5.79,5.79,0,0,1-2.85-.68,4.73,4.73,0,0,1-1.9-1.9,5.63,5.63,0,0,1-.67-2.76,6.08,6.08,0,0,1,.69-2.95,5,5,0,0,1,1.82-2,4.69,4.69,0,0,1,4.83,0,5,5,0,0,1,1.8,1.82,5.2,5.2,0,0,1,.7,2.6A0.86,0.86,0,0,1,312.72,56.09Zm-6.54-3.3a3.1,3.1,0,0,0-1.08,2H311V54.58a2.44,2.44,0,0,0-1-1.74,3,3,0,0,0-1.93-.68A3.09,3.09,0,0,0,306.18,52.79Z"/><path class="cls-3" d="M318.73,48.44a1.55,1.55,0,0,0-.31,1v1.4h2a0.88,0.88,0,0,1,.65.25,0.85,0.85,0,0,1,.25.63,0.82,0.82,0,0,1-.25.62,0.9,0.9,0,0,1-.65.24h-2v7.6a1,1,0,0,1-.27.68,0.92,0.92,0,0,1-.69.28,0.89,0.89,0,0,1-.67-0.28,0.94,0.94,0,0,1-.27-0.68v-7.6h-1.24a0.91,0.91,0,0,1-.64-0.24,0.81,0.81,0,0,1-.26-0.62,0.84,0.84,0,0,1,.26-0.63,0.89,0.89,0,0,1,.64-0.25h1.24v-1.4a2.89,2.89,0,0,1,.9-2.23,3.61,3.61,0,0,1,2.54-.83,2.73,2.73,0,0,1,1.2.25,0.8,0.8,0,0,1,.52.75,0.89,0.89,0,0,1-.23.63,0.72,0.72,0,0,1-.55.25l-0.44-.08A3,3,0,0,0,319.7,48,1.15,1.15,0,0,0,318.73,48.44Zm6.07,12.4a0.93,0.93,0,0,1-.68.28,0.89,0.89,0,0,1-.67-0.28,1,1,0,0,1-.27-0.68V47.28a1,1,0,0,1,1-1,0.89,0.89,0,0,1,.67.28,0.94,0.94,0,0,1,.27.68V60.16A0.93,0.93,0,0,1,324.8,60.84Z"/><path class="cls-3" d="M337,56.09a1,1,0,0,1-.66.25h-7a3.48,3.48,0,0,0,1.11,2.34,3.4,3.4,0,0,0,2.37.88,3.72,3.72,0,0,0,1.56-.28,3.92,3.92,0,0,0,1.06-.72,1.13,1.13,0,0,1,.58-0.18,0.76,0.76,0,0,1,.57.24,0.79,0.79,0,0,1,.23.56,1,1,0,0,1-.4.76,4.71,4.71,0,0,1-1.54,1,5.06,5.06,0,0,1-2,.4,5.79,5.79,0,0,1-2.85-.68,4.73,4.73,0,0,1-1.9-1.9,5.63,5.63,0,0,1-.67-2.76,6.08,6.08,0,0,1,.69-2.95,5,5,0,0,1,1.82-2,4.69,4.69,0,0,1,4.83,0,5,5,0,0,1,1.8,1.82,5.2,5.2,0,0,1,.7,2.6A0.86,0.86,0,0,1,337,56.09Zm-6.54-3.3a3.1,3.1,0,0,0-1.08,2h5.9V54.58a2.44,2.44,0,0,0-1-1.74,3,3,0,0,0-1.93-.68A3.09,3.09,0,0,0,330.44,52.79Z"/><path class="cls-3" d="M337.91,64.8a0.87,0.87,0,0,1-.25-0.62V64a0.88,0.88,0,0,1,.82-0.86,1.81,1.81,0,0,0,1.28-2V51.6a0.94,0.94,0,0,1,.27-0.68,0.92,0.92,0,0,1,.69-0.28,0.89,0.89,0,0,1,.67.28,1,1,0,0,1,.27.68v10a3.71,3.71,0,0,1-.43,1.82,3.07,3.07,0,0,1-1.15,1.2,3,3,0,0,1-1.54.42A0.84,0.84,0,0,1,337.91,64.8Zm2-15.79a0.83,0.83,0,0,1-.25-0.67V48a0.79,0.79,0,0,1,.27-0.68,1.4,1.4,0,0,1,.83-0.2,1.26,1.26,0,0,1,.81.21,0.83,0.83,0,0,1,.25.67v0.32a0.81,0.81,0,0,1-.26.68,1.35,1.35,0,0,1-.82.2A1.29,1.29,0,0,1,339.87,49Z"/><path class="cls-3" d="M353.89,50.77a1,1,0,0,1,.27.71v8.68a0.94,0.94,0,0,1-.27.68,0.92,0.92,0,0,1-.69.28,0.9,0.9,0,0,1-.68-0.27,1,1,0,0,1-.26-0.69V59.64a4.28,4.28,0,0,1-1.42,1.19,4,4,0,0,1-1.94.49,4.53,4.53,0,0,1-2.47-.7,4.8,4.8,0,0,1-1.74-2,6.58,6.58,0,0,1,0-5.62,4.83,4.83,0,0,1,1.73-2,4.57,4.57,0,0,1,4.39-.26A4.08,4.08,0,0,1,352.26,52V51.48a1,1,0,0,1,.26-0.7,0.88,0.88,0,0,1,.68-0.28A0.93,0.93,0,0,1,353.89,50.77Zm-3.1,8.31a3.24,3.24,0,0,0,1.14-1.32,4.27,4.27,0,0,0,.41-1.9,4.23,4.23,0,0,0-.41-1.88,3.32,3.32,0,0,0-1.14-1.33,2.93,2.93,0,0,0-1.67-.49,3,3,0,0,0-1.67.48A3.24,3.24,0,0,0,346.31,54a4.61,4.61,0,0,0,0,3.8,3.24,3.24,0,0,0,1.14,1.32A3.14,3.14,0,0,0,350.79,59.08Z"/><path class="cls-3" d="M363.1,50.67a0.8,0.8,0,0,1,.38.67,1,1,0,0,1-.25.73,0.83,0.83,0,0,1-.61.25,1.91,1.91,0,0,1-.54-0.12,2.25,2.25,0,0,0-.66-0.14,2,2,0,0,0-1.21.43,3.15,3.15,0,0,0-1,1.18,3.73,3.73,0,0,0-.37,1.67v4.82a0.94,0.94,0,0,1-.27.68,0.92,0.92,0,0,1-.69.28,0.9,0.9,0,0,1-.68-0.27,1,1,0,0,1-.26-0.69V51.6a0.94,0.94,0,0,1,.27-0.68,0.89,0.89,0,0,1,.67-0.28,0.92,0.92,0,0,1,.69.28,0.94,0.94,0,0,1,.27.68v1A3.78,3.78,0,0,1,360.2,51a3.55,3.55,0,0,1,2-.63A1.52,1.52,0,0,1,363.1,50.67Z"/><path class="cls-3" d="M374.19,50.77a1,1,0,0,1,.27.71v8.68a1,1,0,0,1-.27.68,0.92,0.92,0,0,1-.69.28,0.9,0.9,0,0,1-.68-0.27,1,1,0,0,1-.26-0.69V59.64a4.29,4.29,0,0,1-1.42,1.19,4,4,0,0,1-1.94.49,4.53,4.53,0,0,1-2.47-.7,4.8,4.8,0,0,1-1.74-2A6.58,6.58,0,0,1,365,53a4.83,4.83,0,0,1,1.73-2,4.42,4.42,0,0,1,2.42-.7,4.47,4.47,0,0,1,2,.44A4.09,4.09,0,0,1,372.56,52V51.48a1,1,0,0,1,.26-0.7,0.88,0.88,0,0,1,.68-0.28A0.94,0.94,0,0,1,374.19,50.77Zm-3.1,8.31a3.25,3.25,0,0,0,1.14-1.32,4.29,4.29,0,0,0,.41-1.9,4.24,4.24,0,0,0-.41-1.88,3.33,3.33,0,0,0-1.14-1.33,2.93,2.93,0,0,0-1.67-.49,3,3,0,0,0-1.67.48A3.24,3.24,0,0,0,366.61,54a4.61,4.61,0,0,0,0,3.8,3.24,3.24,0,0,0,1.14,1.32A3.14,3.14,0,0,0,371.09,59.08Zm-2-9.32a0.41,0.41,0,0,1-.16-0.38A0.72,0.72,0,0,1,369.1,49l1.18-2a1.55,1.55,0,0,1,.39-0.46,0.84,0.84,0,0,1,.53-0.18,0.91,0.91,0,0,1,.67.23,0.77,0.77,0,0,1,.21.61,1.05,1.05,0,0,1-.3.7l-1.5,1.64a1.09,1.09,0,0,1-.8.32A0.57,0.57,0,0,1,369.14,49.76Z"/><path class="cls-3" d="M376.5,58.94a0.81,0.81,0,0,1,.42-0.68,0.78,0.78,0,0,1,.46-0.14,0.92,0.92,0,0,1,.66.3,4.23,4.23,0,0,0,1.29,1,3.7,3.7,0,0,0,1.65.34,2.82,2.82,0,0,0,1.34-.35,1.14,1.14,0,0,0,.58-1.07,1.15,1.15,0,0,0-.59-1,6.71,6.71,0,0,0-1.73-.66,12.77,12.77,0,0,1-1.86-.63,3.33,3.33,0,0,1-1.25-1,2.81,2.81,0,0,1,0-3.23,3.39,3.39,0,0,1,1.36-1.06,4.48,4.48,0,0,1,1.85-.38,5.35,5.35,0,0,1,1.91.36,3.59,3.59,0,0,1,1.55,1.1,0.88,0.88,0,0,1,.24.58,0.86,0.86,0,0,1-.32.62,0.72,0.72,0,0,1-.5.18A0.75,0.75,0,0,1,383,53a2.82,2.82,0,0,0-1-.74A3.41,3.41,0,0,0,380.6,52a2.51,2.51,0,0,0-1.29.31,1.12,1.12,0,0,0-.53,1.05,1.16,1.16,0,0,0,.61,1,7.7,7.7,0,0,0,1.81.66,11.17,11.17,0,0,1,1.76.6,3.07,3.07,0,0,1,1.18,1,2.65,2.65,0,0,1,.48,1.65,2.56,2.56,0,0,1-.54,1.63,3.48,3.48,0,0,1-1.41,1.06,4.67,4.67,0,0,1-1.85.37,6.06,6.06,0,0,1-2.33-.44,4.34,4.34,0,0,1-1.81-1.4A1,1,0,0,1,376.5,58.94Z"/><path class="cls-3" d="M401.55,50.87a1,1,0,0,1,.27.71V64.16a1,1,0,0,1-.27.68,0.92,0.92,0,0,1-.69.28,0.9,0.9,0,0,1-.68-0.27,1,1,0,0,1-.26-0.69V59.6a4.06,4.06,0,0,1-1.41,1.22,4,4,0,0,1-2,.5,4.48,4.48,0,0,1-2.46-.7,4.9,4.9,0,0,1-1.74-2,6.07,6.07,0,0,1-.64-2.81,6.16,6.16,0,0,1,.63-2.81,4.83,4.83,0,0,1,1.73-2,4.55,4.55,0,0,1,4.38-.26A4.2,4.2,0,0,1,399.92,52v-0.4a1,1,0,0,1,.26-0.7,0.88,0.88,0,0,1,.68-0.28A0.94,0.94,0,0,1,401.55,50.87Zm-3.1,8.21a3.25,3.25,0,0,0,1.14-1.32,4.59,4.59,0,0,0,0-3.79,3.23,3.23,0,0,0-1.14-1.33,3.14,3.14,0,0,0-3.34,0A3.22,3.22,0,0,0,394,54a4.58,4.58,0,0,0,0,3.79,3.24,3.24,0,0,0,1.14,1.32A3.14,3.14,0,0,0,398.45,59.08Z"/><path class="cls-3" d="M413.13,50.92a1,1,0,0,1,.27.68v5.32a4.39,4.39,0,1,1-8.76,0V51.6a0.94,0.94,0,0,1,.27-0.68,0.89,0.89,0,0,1,.67-0.28,0.92,0.92,0,0,1,.69.28,0.94,0.94,0,0,1,.27.68v5.32q0,2.62,2.46,2.62a2.47,2.47,0,0,0,1.86-.66,2.71,2.71,0,0,0,.64-2V51.6a1,1,0,0,1,.27-0.68,0.89,0.89,0,0,1,.67-0.28A0.92,0.92,0,0,1,413.13,50.92Z"/><path class="cls-3" d="M425.14,56.09a1,1,0,0,1-.66.25h-7a3.47,3.47,0,0,0,1.11,2.34,3.4,3.4,0,0,0,2.37.88,3.72,3.72,0,0,0,1.56-.28,3.92,3.92,0,0,0,1.06-.72,1.13,1.13,0,0,1,.58-0.18,0.76,0.76,0,0,1,.57.24,0.78,0.78,0,0,1,.23.56,1,1,0,0,1-.4.76,4.7,4.7,0,0,1-1.54,1,5.06,5.06,0,0,1-2,.4,5.79,5.79,0,0,1-2.85-.68,4.74,4.74,0,0,1-1.9-1.9A5.63,5.63,0,0,1,415.6,56a6.08,6.08,0,0,1,.69-2.95,5,5,0,0,1,1.82-2,4.69,4.69,0,0,1,4.83,0,5,5,0,0,1,1.8,1.82,5.2,5.2,0,0,1,.7,2.6A0.86,0.86,0,0,1,425.14,56.09Zm-6.54-3.3a3.1,3.1,0,0,0-1.08,2h5.9V54.58a2.44,2.44,0,0,0-.95-1.74,3,3,0,0,0-1.93-.68A3.09,3.09,0,0,0,418.6,52.79Zm1.54-3a0.41,0.41,0,0,1-.16-0.38A0.72,0.72,0,0,1,420.1,49l1.18-2a1.55,1.55,0,0,1,.39-0.46,0.84,0.84,0,0,1,.53-0.18,0.91,0.91,0,0,1,.67.23,0.76,0.76,0,0,1,.21.61,1.05,1.05,0,0,1-.3.7l-1.5,1.64a1.09,1.09,0,0,1-.8.32A0.56,0.56,0,0,1,420.14,49.76Z"/><path class="cls-3" d="M432.4,58.94a0.81,0.81,0,0,1,.42-0.68,0.78,0.78,0,0,1,.46-0.14,0.92,0.92,0,0,1,.66.3,4.23,4.23,0,0,0,1.29,1,3.7,3.7,0,0,0,1.65.34,2.82,2.82,0,0,0,1.34-.35,1.14,1.14,0,0,0,.58-1.07,1.15,1.15,0,0,0-.59-1,6.71,6.71,0,0,0-1.73-.66,12.77,12.77,0,0,1-1.86-.63,3.33,3.33,0,0,1-1.25-1,2.81,2.81,0,0,1,0-3.23,3.39,3.39,0,0,1,1.36-1.06,4.48,4.48,0,0,1,1.85-.38,5.35,5.35,0,0,1,1.91.36,3.59,3.59,0,0,1,1.55,1.1,0.88,0.88,0,0,1,.24.58,0.86,0.86,0,0,1-.32.62,0.72,0.72,0,0,1-.5.18,0.75,0.75,0,0,1-.58-0.24,2.82,2.82,0,0,0-1-.74A3.41,3.41,0,0,0,436.5,52a2.51,2.51,0,0,0-1.29.31,1.12,1.12,0,0,0-.53,1.05,1.16,1.16,0,0,0,.61,1,7.7,7.7,0,0,0,1.81.66,11.17,11.17,0,0,1,1.76.6,3.07,3.07,0,0,1,1.18,1,2.65,2.65,0,0,1,.48,1.65,2.56,2.56,0,0,1-.54,1.63,3.48,3.48,0,0,1-1.41,1.06,4.67,4.67,0,0,1-1.85.37,6.06,6.06,0,0,1-2.33-.44,4.34,4.34,0,0,1-1.81-1.4A1,1,0,0,1,432.4,58.94Z"/><path class="cls-3" d="M444.25,60.84a0.92,0.92,0,0,1-.69.28,0.89,0.89,0,0,1-.67-0.28,1,1,0,0,1-.27-0.68V51.5a0.94,0.94,0,0,1,.27-0.68,0.89,0.89,0,0,1,.67-0.28,0.92,0.92,0,0,1,.69.28,0.94,0.94,0,0,1,.27.68v8.66A1,1,0,0,1,444.25,60.84Zm-1.09-11.08a0.41,0.41,0,0,1-.16-0.38,0.72,0.72,0,0,1,.12-0.36l1.18-2a1.55,1.55,0,0,1,.39-0.46,0.84,0.84,0,0,1,.53-0.18,0.91,0.91,0,0,1,.67.23,0.76,0.76,0,0,1,.21.61,1.05,1.05,0,0,1-.3.7l-1.5,1.64a1.09,1.09,0,0,1-.8.32A0.56,0.56,0,0,1,443.16,49.76Z"/><path class="cls-3" d="M461.7,56.09a1,1,0,0,1-.66.25h-7a3.47,3.47,0,0,0,1.11,2.34,3.4,3.4,0,0,0,2.37.88,3.72,3.72,0,0,0,1.56-.28,3.92,3.92,0,0,0,1.06-.72,1.13,1.13,0,0,1,.58-0.18,0.76,0.76,0,0,1,.57.24,0.78,0.78,0,0,1,.23.56,1,1,0,0,1-.4.76,4.7,4.7,0,0,1-1.54,1,5.06,5.06,0,0,1-2,.4,5.79,5.79,0,0,1-2.85-.68,4.74,4.74,0,0,1-1.9-1.9,5.63,5.63,0,0,1-.67-2.76,6.08,6.08,0,0,1,.69-2.95,5,5,0,0,1,1.82-2,4.69,4.69,0,0,1,4.83,0,5,5,0,0,1,1.8,1.82,5.2,5.2,0,0,1,.7,2.6A0.86,0.86,0,0,1,461.7,56.09Zm-6.54-3.3a3.1,3.1,0,0,0-1.08,2H460V54.58a2.44,2.44,0,0,0-.95-1.74,3,3,0,0,0-1.93-.68A3.09,3.09,0,0,0,455.16,52.79Z"/><path class="cls-3" d="M463.42,58.94a0.81,0.81,0,0,1,.42-0.68,0.78,0.78,0,0,1,.46-0.14,0.92,0.92,0,0,1,.66.3,4.23,4.23,0,0,0,1.29,1,3.7,3.7,0,0,0,1.65.34,2.82,2.82,0,0,0,1.34-.35,1.14,1.14,0,0,0,.58-1.07,1.15,1.15,0,0,0-.59-1,6.71,6.71,0,0,0-1.73-.66,12.77,12.77,0,0,1-1.86-.63,3.33,3.33,0,0,1-1.25-1,2.81,2.81,0,0,1,0-3.23,3.39,3.39,0,0,1,1.36-1.06,4.48,4.48,0,0,1,1.85-.38,5.35,5.35,0,0,1,1.91.36,3.59,3.59,0,0,1,1.55,1.1,0.88,0.88,0,0,1,.24.58,0.86,0.86,0,0,1-.32.62,0.72,0.72,0,0,1-.5.18A0.75,0.75,0,0,1,469.9,53a2.82,2.82,0,0,0-1-.74,3.41,3.41,0,0,0-1.35-.26,2.51,2.51,0,0,0-1.29.31,1.12,1.12,0,0,0-.53,1.05,1.16,1.16,0,0,0,.61,1,7.7,7.7,0,0,0,1.81.66,11.17,11.17,0,0,1,1.76.6,3.07,3.07,0,0,1,1.18,1,2.65,2.65,0,0,1,.48,1.65,2.56,2.56,0,0,1-.54,1.63,3.48,3.48,0,0,1-1.41,1.06,4.67,4.67,0,0,1-1.85.37,6.06,6.06,0,0,1-2.33-.44,4.34,4.34,0,0,1-1.81-1.4A1,1,0,0,1,463.42,58.94Z"/><path class="cls-3" d="M145.82,75.15a4.78,4.78,0,0,1,1.73,1.93,6.1,6.1,0,0,1,.63,2.8,6,6,0,0,1-.63,2.79,4.86,4.86,0,0,1-1.73,1.93,4.42,4.42,0,0,1-2.42.7,4.21,4.21,0,0,1-1.94-.46A4.68,4.68,0,0,1,140,83.72v4.44a0.94,0.94,0,0,1-.27.68,1,1,0,0,1-1.36,0,0.93,0.93,0,0,1-.27-0.69V75.58a1,1,0,0,1,.26-0.7A0.88,0.88,0,0,1,139,74.6a0.92,0.92,0,0,1,.69.28,1,1,0,0,1,.27.7v0.58a3.92,3.92,0,0,1,1.4-1.2,4,4,0,0,1,2-.5A4.54,4.54,0,0,1,145.82,75.15Zm-1,7.91A3.23,3.23,0,0,0,146,81.75,4.47,4.47,0,0,0,146,78a3.23,3.23,0,0,0-1.15-1.31,3,3,0,0,0-1.66-.48,3.07,3.07,0,0,0-1.68.47A3.15,3.15,0,0,0,140.31,78a4.52,4.52,0,0,0,0,3.76,3.15,3.15,0,0,0,1.15,1.31,3.06,3.06,0,0,0,1.68.47A3,3,0,0,0,144.8,83.06Z"/><path class="cls-3" d="M159.57,74.77a1,1,0,0,1,.27.71v8.68a0.94,0.94,0,0,1-.27.68,0.92,0.92,0,0,1-.69.28,0.9,0.9,0,0,1-.68-0.27,1,1,0,0,1-.26-0.69V83.64a4.28,4.28,0,0,1-1.42,1.19,4,4,0,0,1-1.94.49,4.53,4.53,0,0,1-2.47-.7,4.8,4.8,0,0,1-1.74-2,6.58,6.58,0,0,1,0-5.62,4.83,4.83,0,0,1,1.73-2,4.57,4.57,0,0,1,4.39-.26A4.08,4.08,0,0,1,157.94,76V75.48a1,1,0,0,1,.26-0.7,0.88,0.88,0,0,1,.68-0.28A0.93,0.93,0,0,1,159.57,74.77Zm-3.1,8.31a3.24,3.24,0,0,0,1.14-1.32,4.27,4.27,0,0,0,.41-1.9,4.23,4.23,0,0,0-.41-1.88,3.32,3.32,0,0,0-1.14-1.33,2.93,2.93,0,0,0-1.67-.49,3,3,0,0,0-1.67.48A3.24,3.24,0,0,0,152,78a4.61,4.61,0,0,0,0,3.8,3.24,3.24,0,0,0,1.14,1.32A3.14,3.14,0,0,0,156.47,83.08Z"/><path class="cls-3" d="M169.94,83.61a0.89,0.89,0,0,1,0,1.26,0.89,0.89,0,0,1-.64.25h-6.46a0.81,0.81,0,0,1-.63-0.28,0.87,0.87,0,0,1-.25-0.58,1.68,1.68,0,0,1,.08-0.43,1.6,1.6,0,0,1,.22-0.39l5.24-7h-4.34a0.89,0.89,0,0,1-.9-0.9,0.82,0.82,0,0,1,.25-0.62,0.9,0.9,0,0,1,.65-0.24h6.14a0.81,0.81,0,0,1,.63.28,0.91,0.91,0,0,1,.23.68,1.62,1.62,0,0,1-.07.35,1,1,0,0,1-.21.33l-5.28,7h4.7A0.89,0.89,0,0,1,169.94,83.61Z"/><path class="cls-3" d="M185.56,75.15a4.78,4.78,0,0,1,1.73,1.93,6.1,6.1,0,0,1,.63,2.8,6,6,0,0,1-.63,2.79,4.86,4.86,0,0,1-1.73,1.93,4.42,4.42,0,0,1-2.42.7,4.21,4.21,0,0,1-1.94-.46,4.68,4.68,0,0,1-1.46-1.12v4.44a0.94,0.94,0,0,1-.27.68,1,1,0,0,1-1.36,0,0.93,0.93,0,0,1-.27-0.69V75.58a1,1,0,0,1,.26-0.7,0.88,0.88,0,0,1,.68-0.28,0.92,0.92,0,0,1,.69.28,1,1,0,0,1,.27.7v0.58a3.92,3.92,0,0,1,1.4-1.2,4,4,0,0,1,2-.5A4.54,4.54,0,0,1,185.56,75.15Zm-1,7.91a3.23,3.23,0,0,0,1.15-1.31,4.47,4.47,0,0,0,0-3.74,3.23,3.23,0,0,0-1.15-1.31,3,3,0,0,0-1.66-.48,3.07,3.07,0,0,0-1.68.47A3.15,3.15,0,0,0,180.05,78a4.52,4.52,0,0,0,0,3.76,3.15,3.15,0,0,0,1.15,1.31,3.06,3.06,0,0,0,1.68.47A3,3,0,0,0,184.54,83.06Z"/><path class="cls-3" d="M199.31,74.77a1,1,0,0,1,.27.71v8.68a0.94,0.94,0,0,1-.27.68,0.92,0.92,0,0,1-.69.28,0.9,0.9,0,0,1-.68-0.27,1,1,0,0,1-.26-0.69V83.64a4.28,4.28,0,0,1-1.42,1.19,4,4,0,0,1-1.94.49,4.53,4.53,0,0,1-2.47-.7,4.8,4.8,0,0,1-1.74-2,6.58,6.58,0,0,1,0-5.62,4.83,4.83,0,0,1,1.73-2,4.57,4.57,0,0,1,4.39-.26A4.08,4.08,0,0,1,197.68,76V75.48a1,1,0,0,1,.26-0.7,0.88,0.88,0,0,1,.68-0.28A0.93,0.93,0,0,1,199.31,74.77Zm-3.1,8.31a3.24,3.24,0,0,0,1.14-1.32,4.27,4.27,0,0,0,.41-1.9,4.23,4.23,0,0,0-.41-1.88,3.32,3.32,0,0,0-1.14-1.33,2.93,2.93,0,0,0-1.67-.49,3,3,0,0,0-1.67.48A3.24,3.24,0,0,0,191.73,78a4.61,4.61,0,0,0,0,3.8,3.24,3.24,0,0,0,1.14,1.32A3.14,3.14,0,0,0,196.21,83.08Z"/><path class="cls-3" d="M208.52,74.67a0.8,0.8,0,0,1,.38.67,1,1,0,0,1-.25.73,0.83,0.83,0,0,1-.61.25,1.9,1.9,0,0,1-.54-0.12,2.25,2.25,0,0,0-.66-0.14,2,2,0,0,0-1.21.43,3.14,3.14,0,0,0-1,1.18,3.73,3.73,0,0,0-.37,1.67v4.82a0.94,0.94,0,0,1-.27.68,0.92,0.92,0,0,1-.69.28,0.9,0.9,0,0,1-.68-0.27,1,1,0,0,1-.26-0.69V75.6a0.94,0.94,0,0,1,.27-0.68,0.89,0.89,0,0,1,.67-0.28,0.92,0.92,0,0,1,.69.28,0.94,0.94,0,0,1,.27.68v1A3.79,3.79,0,0,1,205.62,75a3.54,3.54,0,0,1,2-.63A1.52,1.52,0,0,1,208.52,74.67Z"/><path class="cls-3" d="M219.61,74.77a1,1,0,0,1,.27.71v8.68a0.94,0.94,0,0,1-.27.68,0.92,0.92,0,0,1-.69.28,0.9,0.9,0,0,1-.68-0.27,1,1,0,0,1-.26-0.69V83.64a4.28,4.28,0,0,1-1.42,1.19,4,4,0,0,1-1.94.49,4.53,4.53,0,0,1-2.47-.7,4.8,4.8,0,0,1-1.74-2,6.58,6.58,0,0,1,0-5.62,4.83,4.83,0,0,1,1.73-2,4.57,4.57,0,0,1,4.39-.26A4.08,4.08,0,0,1,218,76V75.48a1,1,0,0,1,.26-0.7,0.88,0.88,0,0,1,.68-0.28A0.93,0.93,0,0,1,219.61,74.77Zm-3.1,8.31a3.24,3.24,0,0,0,1.14-1.32,4.27,4.27,0,0,0,.41-1.9,4.23,4.23,0,0,0-.41-1.88,3.32,3.32,0,0,0-1.14-1.33,2.93,2.93,0,0,0-1.67-.49,3,3,0,0,0-1.67.48A3.24,3.24,0,0,0,212,78a4.61,4.61,0,0,0,0,3.8,3.24,3.24,0,0,0,1.14,1.32A3.14,3.14,0,0,0,216.51,83.08Z"/><path class="cls-3" d="M231.08,76.5v6a0.84,0.84,0,0,0,.9,1,1.44,1.44,0,0,0,.38-0.07,1.46,1.46,0,0,1,.38-0.07,0.55,0.55,0,0,1,.44.22,0.84,0.84,0,0,1-.3,1.28,2,2,0,0,1-1.08.3,4.88,4.88,0,0,1-1.21-.14,1.79,1.79,0,0,1-1-.71,2.86,2.86,0,0,1-.43-1.73v-6H228a0.85,0.85,0,0,1-.88-0.88,0.82,0.82,0,0,1,.25-0.62,0.87,0.87,0,0,1,.63-0.24h1.16V73.08a1,1,0,0,1,.27-0.68,0.92,0.92,0,0,1,.69-0.28,0.89,0.89,0,0,1,.67.28,1,1,0,0,1,.27.68v1.68h1.66a0.85,0.85,0,0,1,.88.88,0.82,0.82,0,0,1-.25.62,0.87,0.87,0,0,1-.63.24h-1.66Z"/><path class="cls-3" d="M235.85,73a0.83,0.83,0,0,1-.25-0.67V72a0.79,0.79,0,0,1,.27-0.68,1.4,1.4,0,0,1,.83-0.2,1.25,1.25,0,0,1,.81.21,0.83,0.83,0,0,1,.25.67v0.32a0.81,0.81,0,0,1-.26.68,1.35,1.35,0,0,1-.82.2A1.29,1.29,0,0,1,235.85,73Zm1.52,11.83a0.92,0.92,0,0,1-.69.28,0.89,0.89,0,0,1-.67-0.28,1,1,0,0,1-.27-0.68V75.5a0.94,0.94,0,0,1,.27-0.68,0.89,0.89,0,0,1,.67-0.28,0.92,0.92,0,0,1,.69.28,0.94,0.94,0,0,1,.27.68v8.66A1,1,0,0,1,237.37,84.84Z"/><path class="cls-3" d="M240.33,84.84a1.05,1.05,0,0,1-.25-0.76V83.7a1,1,0,0,1,.25-0.74,1,1,0,0,1,.73-0.26h0.2A1,1,0,0,1,242,83a1,1,0,0,1,.25.74v0.38a0.89,0.89,0,0,1-1,1h-0.2A1,1,0,0,1,240.33,84.84Z"/><path class="cls-3" d="M252.24,84.91a6.58,6.58,0,0,1-2.14-1.33,1.06,1.06,0,0,1-.42-0.82,0.91,0.91,0,0,1,.28-0.65,0.89,0.89,0,0,1,.66-0.29,0.83,0.83,0,0,1,.58.22,5.56,5.56,0,0,0,1.65,1.09,5,5,0,0,0,1.93.35,3.75,3.75,0,0,0,2.13-.58,1.71,1.71,0,0,0,.87-1.46,1.88,1.88,0,0,0-.87-1.61,7.78,7.78,0,0,0-2.59-1,6.88,6.88,0,0,1-3.17-1.38A3.33,3.33,0,0,1,250,74.84a3.53,3.53,0,0,1,.62-2.07,4,4,0,0,1,1.72-1.37,6.14,6.14,0,0,1,2.48-.48,6.8,6.8,0,0,1,2.34.4A4.94,4.94,0,0,1,259,72.38a1.14,1.14,0,0,1,.46.86,0.9,0.9,0,0,1-.27.64,0.87,0.87,0,0,1-.65.28,0.66,0.66,0,0,1-.46-0.16,4.16,4.16,0,0,0-1.44-.88,4.82,4.82,0,0,0-1.76-.36,3.67,3.67,0,0,0-2.13.55,1.77,1.77,0,0,0,0,3,7.42,7.42,0,0,0,2.35.88,12.51,12.51,0,0,1,2.55.8,3.59,3.59,0,0,1,1.53,1.28,3.83,3.83,0,0,1,.54,2.14,3.43,3.43,0,0,1-.65,2.06,4.28,4.28,0,0,1-1.77,1.4,6,6,0,0,1-2.46.5A7.49,7.49,0,0,1,252.24,84.91Z"/><path class="cls-3" d="M262,73a0.83,0.83,0,0,1-.25-0.67V72a0.79,0.79,0,0,1,.27-0.68,1.4,1.4,0,0,1,.83-0.2,1.25,1.25,0,0,1,.81.21,0.83,0.83,0,0,1,.25.67v0.32a0.81,0.81,0,0,1-.26.68,1.35,1.35,0,0,1-.82.2A1.29,1.29,0,0,1,262,73Zm1.52,11.83a0.92,0.92,0,0,1-.69.28,0.89,0.89,0,0,1-.67-0.28,1,1,0,0,1-.27-0.68V75.5a0.94,0.94,0,0,1,.27-0.68,0.89,0.89,0,0,1,.67-0.28,0.92,0.92,0,0,1,.69.28,0.94,0.94,0,0,1,.27.68v8.66A1,1,0,0,1,263.51,84.84Z"/><path class="cls-3" d="M281.25,74.87a1,1,0,0,1,.27.71V88.16a0.94,0.94,0,0,1-.27.68,0.92,0.92,0,0,1-.69.28,0.9,0.9,0,0,1-.68-0.27,1,1,0,0,1-.26-0.69V83.6a4,4,0,0,1-1.41,1.22,4,4,0,0,1-1.95.5,4.48,4.48,0,0,1-2.46-.7,4.9,4.9,0,0,1-1.74-2,6.07,6.07,0,0,1-.64-2.81,6.16,6.16,0,0,1,.63-2.81,4.83,4.83,0,0,1,1.73-2,4.55,4.55,0,0,1,4.38-.26A4.2,4.2,0,0,1,279.62,76v-0.4a1,1,0,0,1,.26-0.7,0.88,0.88,0,0,1,.68-0.28A0.93,0.93,0,0,1,281.25,74.87Zm-3.1,8.21a3.24,3.24,0,0,0,1.14-1.32,4.58,4.58,0,0,0,0-3.79,3.23,3.23,0,0,0-1.14-1.33,3.14,3.14,0,0,0-3.34,0A3.23,3.23,0,0,0,273.67,78a4.59,4.59,0,0,0,0,3.79,3.24,3.24,0,0,0,1.14,1.32A3.14,3.14,0,0,0,278.15,83.08Z"/><path class="cls-3" d="M292.83,74.92a1,1,0,0,1,.27.68v5.32a4.39,4.39,0,1,1-8.76,0V75.6a0.94,0.94,0,0,1,.27-0.68,0.89,0.89,0,0,1,.67-0.28,0.92,0.92,0,0,1,.69.28,0.94,0.94,0,0,1,.27.68v5.32q0,2.62,2.46,2.62a2.47,2.47,0,0,0,1.86-.66,2.71,2.71,0,0,0,.64-2V75.6a1,1,0,0,1,.27-0.68,0.89,0.89,0,0,1,.67-0.28A0.92,0.92,0,0,1,292.83,74.92Z"/><path class="cls-3" d="M295.95,73a0.83,0.83,0,0,1-.25-0.67V72a0.79,0.79,0,0,1,.27-0.68,1.4,1.4,0,0,1,.83-0.2,1.25,1.25,0,0,1,.81.21,0.83,0.83,0,0,1,.25.67v0.32a0.81,0.81,0,0,1-.26.68,1.35,1.35,0,0,1-.82.2A1.29,1.29,0,0,1,295.95,73Zm1.52,11.83a0.92,0.92,0,0,1-.69.28,0.89,0.89,0,0,1-.67-0.28,1,1,0,0,1-.27-0.68V75.5a0.94,0.94,0,0,1,.27-0.68,0.89,0.89,0,0,1,.67-0.28,0.92,0.92,0,0,1,.69.28,0.94,0.94,0,0,1,.27.68v8.66A1,1,0,0,1,297.47,84.84Z"/><path class="cls-3" d="M309.38,80.09a1,1,0,0,1-.66.25h-7a3.48,3.48,0,0,0,1.11,2.34,3.4,3.4,0,0,0,2.37.88,3.72,3.72,0,0,0,1.56-.28,3.92,3.92,0,0,0,1.06-.72,1.13,1.13,0,0,1,.58-0.18,0.76,0.76,0,0,1,.57.24,0.79,0.79,0,0,1,.23.56,1,1,0,0,1-.4.76,4.71,4.71,0,0,1-1.54,1,5.06,5.06,0,0,1-2,.4,5.79,5.79,0,0,1-2.85-.68,4.73,4.73,0,0,1-1.9-1.9,5.63,5.63,0,0,1-.67-2.76,6.08,6.08,0,0,1,.69-2.95,5,5,0,0,1,1.82-2,4.69,4.69,0,0,1,4.83,0,5,5,0,0,1,1.8,1.82,5.2,5.2,0,0,1,.7,2.6A0.86,0.86,0,0,1,309.38,80.09Zm-6.54-3.3a3.1,3.1,0,0,0-1.08,2h5.9V78.58a2.44,2.44,0,0,0-1-1.74,3,3,0,0,0-1.93-.68A3.09,3.09,0,0,0,302.84,76.79Z"/><path class="cls-3" d="M318,74.67a0.8,0.8,0,0,1,.38.67,1,1,0,0,1-.25.73,0.83,0.83,0,0,1-.61.25A1.9,1.9,0,0,1,317,76.2a2.25,2.25,0,0,0-.66-0.14,2,2,0,0,0-1.21.43,3.14,3.14,0,0,0-1,1.18,3.73,3.73,0,0,0-.37,1.67v4.82a0.94,0.94,0,0,1-.27.68,0.92,0.92,0,0,1-.69.28,0.9,0.9,0,0,1-.68-0.27,1,1,0,0,1-.26-0.69V75.6a0.94,0.94,0,0,1,.27-0.68,0.89,0.89,0,0,1,.67-0.28,0.92,0.92,0,0,1,.69.28,0.94,0.94,0,0,1,.27.68v1A3.79,3.79,0,0,1,315.1,75a3.54,3.54,0,0,1,2-.63A1.52,1.52,0,0,1,318,74.67Z"/><path class="cls-3" d="M328.6,80.09a1,1,0,0,1-.66.25h-7A3.48,3.48,0,0,0,322,82.68a3.4,3.4,0,0,0,2.37.88,3.72,3.72,0,0,0,1.56-.28,3.92,3.92,0,0,0,1.06-.72,1.13,1.13,0,0,1,.58-0.18,0.76,0.76,0,0,1,.57.24,0.79,0.79,0,0,1,.23.56,1,1,0,0,1-.4.76,4.71,4.71,0,0,1-1.54,1,5.06,5.06,0,0,1-2,.4,5.79,5.79,0,0,1-2.85-.68,4.73,4.73,0,0,1-1.9-1.9,5.63,5.63,0,0,1-.67-2.76,6.08,6.08,0,0,1,.69-2.95,5,5,0,0,1,1.82-2,4.69,4.69,0,0,1,4.83,0,5,5,0,0,1,1.8,1.82,5.2,5.2,0,0,1,.7,2.6A0.86,0.86,0,0,1,328.6,80.09Zm-6.54-3.3a3.1,3.1,0,0,0-1.08,2h5.9V78.58a2.44,2.44,0,0,0-1-1.74,3,3,0,0,0-1.93-.68A3.09,3.09,0,0,0,322.06,76.79Z"/><path class="cls-3" d="M330.32,82.94a0.81,0.81,0,0,1,.42-0.68,0.78,0.78,0,0,1,.46-0.14,0.92,0.92,0,0,1,.66.3,4.21,4.21,0,0,0,1.29,1,3.69,3.69,0,0,0,1.65.34,2.82,2.82,0,0,0,1.34-.35,1.14,1.14,0,0,0,.58-1.07,1.15,1.15,0,0,0-.59-1,6.72,6.72,0,0,0-1.73-.66,12.78,12.78,0,0,1-1.86-.63,3.34,3.34,0,0,1-1.25-1,2.81,2.81,0,0,1,0-3.23,3.39,3.39,0,0,1,1.36-1.06,4.48,4.48,0,0,1,1.85-.38,5.35,5.35,0,0,1,1.91.36,3.59,3.59,0,0,1,1.55,1.1,0.88,0.88,0,0,1,.24.58,0.86,0.86,0,0,1-.32.62,0.72,0.72,0,0,1-.5.18A0.75,0.75,0,0,1,336.8,77a2.82,2.82,0,0,0-1-.74,3.41,3.41,0,0,0-1.35-.26,2.51,2.51,0,0,0-1.29.31,1.12,1.12,0,0,0-.53,1.05,1.16,1.16,0,0,0,.61,1,7.72,7.72,0,0,0,1.81.66,11.2,11.2,0,0,1,1.76.6,3.07,3.07,0,0,1,1.18,1,2.65,2.65,0,0,1,.48,1.65,2.57,2.57,0,0,1-.54,1.63,3.48,3.48,0,0,1-1.41,1.06,4.68,4.68,0,0,1-1.85.37,6.07,6.07,0,0,1-2.33-.44,4.34,4.34,0,0,1-1.81-1.4A1,1,0,0,1,330.32,82.94Z"/><path class="cls-3" d="M355.63,74.77a1,1,0,0,1,.27.71v8.8a5,5,0,0,1-.69,2.71,4.15,4.15,0,0,1-1.87,1.61,6.53,6.53,0,0,1-2.66.52,7.53,7.53,0,0,1-1.87-.28,3.33,3.33,0,0,1-1.37-.58,0.93,0.93,0,0,1-.62-0.8,0.91,0.91,0,0,1,.08-0.32,0.76,0.76,0,0,1,.74-0.5,1.51,1.51,0,0,1,.56.12,7.52,7.52,0,0,0,2.5.62,3.53,3.53,0,0,0,2.45-.77A2.71,2.71,0,0,0,354,84.5V83.42a3.48,3.48,0,0,1-1.41,1.34,4.19,4.19,0,0,1-2.09.56,4.72,4.72,0,0,1-2.52-.7,4.87,4.87,0,0,1-1.79-2,6.39,6.39,0,0,1,0-5.62,4.89,4.89,0,0,1,1.78-2,4.64,4.64,0,0,1,2.49-.7A4.55,4.55,0,0,1,354,76.12V75.48a1,1,0,0,1,.26-0.7,0.89,0.89,0,0,1,.68-0.28A0.94,0.94,0,0,1,355.63,74.77Zm-3.17,8.32a3.23,3.23,0,0,0,1.19-1.32,4.17,4.17,0,0,0,.43-1.91,4.11,4.11,0,0,0-.43-1.9,3.31,3.31,0,0,0-1.19-1.32,3.19,3.19,0,0,0-1.74-.48,3.15,3.15,0,0,0-1.72.48A3.29,3.29,0,0,0,347.81,78a4.37,4.37,0,0,0,0,3.78A3.29,3.29,0,0,0,349,83.08a3.15,3.15,0,0,0,1.72.48A3.24,3.24,0,0,0,352.46,83.09Z"/><path class="cls-3" d="M367,74.92a1,1,0,0,1,.27.68v5.32a4.39,4.39,0,1,1-8.76,0V75.6a0.94,0.94,0,0,1,.27-0.68,0.89,0.89,0,0,1,.67-0.28,0.92,0.92,0,0,1,.69.28,0.94,0.94,0,0,1,.27.68v5.32q0,2.62,2.46,2.62a2.47,2.47,0,0,0,1.86-.66,2.71,2.71,0,0,0,.64-2V75.6a1,1,0,0,1,.27-0.68,0.9,0.9,0,0,1,.67-0.28A0.92,0.92,0,0,1,367,74.92Z"/><path class="cls-3" d="M379.35,74.77a1,1,0,0,1,.27.71v8.68a1,1,0,0,1-.27.68,0.92,0.92,0,0,1-.69.28,0.9,0.9,0,0,1-.68-0.27,1,1,0,0,1-.26-0.69V83.64a4.29,4.29,0,0,1-1.42,1.19,4,4,0,0,1-1.94.49,4.53,4.53,0,0,1-2.47-.7,4.8,4.8,0,0,1-1.74-2,6.58,6.58,0,0,1,0-5.62,4.83,4.83,0,0,1,1.73-2,4.42,4.42,0,0,1,2.42-.7,4.47,4.47,0,0,1,2,.44A4.09,4.09,0,0,1,377.72,76V75.48a1,1,0,0,1,.26-0.7,0.88,0.88,0,0,1,.68-0.28A0.94,0.94,0,0,1,379.35,74.77Zm-3.1,8.31a3.25,3.25,0,0,0,1.14-1.32,4.29,4.29,0,0,0,.41-1.9,4.24,4.24,0,0,0-.41-1.88,3.33,3.33,0,0,0-1.14-1.33,2.93,2.93,0,0,0-1.67-.49,3,3,0,0,0-1.67.48A3.24,3.24,0,0,0,371.77,78a4.61,4.61,0,0,0,0,3.8,3.24,3.24,0,0,0,1.14,1.32A3.14,3.14,0,0,0,376.25,83.08Z"/><path class="cls-3" d="M388.56,74.67a0.8,0.8,0,0,1,.38.67,1,1,0,0,1-.25.73,0.83,0.83,0,0,1-.61.25,1.91,1.91,0,0,1-.54-0.12,2.25,2.25,0,0,0-.66-0.14,2,2,0,0,0-1.21.43,3.14,3.14,0,0,0-1,1.18,3.72,3.72,0,0,0-.37,1.67v4.82a0.94,0.94,0,0,1-.27.68,0.92,0.92,0,0,1-.69.28,0.9,0.9,0,0,1-.68-0.27,1,1,0,0,1-.26-0.69V75.6a0.94,0.94,0,0,1,.27-0.68,0.89,0.89,0,0,1,.67-0.28,0.92,0.92,0,0,1,.69.28,0.94,0.94,0,0,1,.27.68v1A3.78,3.78,0,0,1,385.66,75a3.55,3.55,0,0,1,2-.63A1.52,1.52,0,0,1,388.56,74.67Z"/><path class="cls-3" d="M399.45,70.59a0.93,0.93,0,0,1,.27.69V84.16a1,1,0,0,1-.27.68,0.92,0.92,0,0,1-.69.28,0.9,0.9,0,0,1-.68-0.27,1,1,0,0,1-.26-0.69V83.6a4.06,4.06,0,0,1-1.41,1.22,4,4,0,0,1-2,.5,4.48,4.48,0,0,1-2.46-.7,4.9,4.9,0,0,1-1.74-2,6.07,6.07,0,0,1-.64-2.81,6.16,6.16,0,0,1,.63-2.81,4.83,4.83,0,0,1,1.73-2,4.55,4.55,0,0,1,4.38-.26A4.2,4.2,0,0,1,397.82,76v-4.7a1,1,0,0,1,.26-0.69,0.9,0.9,0,0,1,.68-0.27A0.94,0.94,0,0,1,399.45,70.59Zm-3.1,12.49a3.25,3.25,0,0,0,1.14-1.32,4.59,4.59,0,0,0,0-3.79,3.23,3.23,0,0,0-1.14-1.33,3.14,3.14,0,0,0-3.34,0A3.22,3.22,0,0,0,391.87,78a4.58,4.58,0,0,0,0,3.79A3.24,3.24,0,0,0,393,83.08,3.14,3.14,0,0,0,396.35,83.08Z"/><path class="cls-3" d="M411.73,74.77a1,1,0,0,1,.27.71v8.68a1,1,0,0,1-.27.68,0.92,0.92,0,0,1-.69.28,0.9,0.9,0,0,1-.68-0.27,1,1,0,0,1-.26-0.69V83.64a4.29,4.29,0,0,1-1.42,1.19,4,4,0,0,1-1.94.49,4.53,4.53,0,0,1-2.47-.7,4.8,4.8,0,0,1-1.74-2,6.58,6.58,0,0,1,0-5.62,4.83,4.83,0,0,1,1.73-2,4.42,4.42,0,0,1,2.42-.7,4.47,4.47,0,0,1,2,.44A4.09,4.09,0,0,1,410.1,76V75.48a1,1,0,0,1,.26-0.7A0.88,0.88,0,0,1,411,74.5,0.94,0.94,0,0,1,411.73,74.77Zm-3.1,8.31a3.25,3.25,0,0,0,1.14-1.32,4.29,4.29,0,0,0,.41-1.9,4.24,4.24,0,0,0-.41-1.88,3.33,3.33,0,0,0-1.14-1.33,2.93,2.93,0,0,0-1.67-.49,3,3,0,0,0-1.67.48A3.24,3.24,0,0,0,404.15,78a4.61,4.61,0,0,0,0,3.8,3.24,3.24,0,0,0,1.14,1.32A3.14,3.14,0,0,0,408.63,83.08Z"/><path class="cls-3" d="M420.94,74.67a0.8,0.8,0,0,1,.38.67,1,1,0,0,1-.25.73,0.83,0.83,0,0,1-.61.25,1.91,1.91,0,0,1-.54-0.12,2.25,2.25,0,0,0-.66-0.14,2,2,0,0,0-1.21.43,3.14,3.14,0,0,0-1,1.18,3.72,3.72,0,0,0-.37,1.67v4.82a0.94,0.94,0,0,1-.27.68,0.92,0.92,0,0,1-.69.28,0.9,0.9,0,0,1-.68-0.27,1,1,0,0,1-.26-0.69V75.6a0.94,0.94,0,0,1,.27-0.68,0.89,0.89,0,0,1,.67-0.28,0.92,0.92,0,0,1,.69.28,0.94,0.94,0,0,1,.27.68v1A3.78,3.78,0,0,1,418,75a3.55,3.55,0,0,1,2-.63A1.52,1.52,0,0,1,420.94,74.67Z"/><path class="cls-3" d="M437.52,80.09a1,1,0,0,1-.66.25h-7a3.47,3.47,0,0,0,1.11,2.34,3.4,3.4,0,0,0,2.37.88,3.72,3.72,0,0,0,1.56-.28,3.92,3.92,0,0,0,1.06-.72,1.13,1.13,0,0,1,.58-0.18,0.76,0.76,0,0,1,.57.24,0.78,0.78,0,0,1,.23.56,1,1,0,0,1-.4.76,4.7,4.7,0,0,1-1.54,1,5.06,5.06,0,0,1-2,.4,5.79,5.79,0,0,1-2.85-.68,4.74,4.74,0,0,1-1.9-1.9A5.63,5.63,0,0,1,428,80a6.08,6.08,0,0,1,.69-2.95,5,5,0,0,1,1.82-2,4.69,4.69,0,0,1,4.83,0,5,5,0,0,1,1.8,1.82,5.2,5.2,0,0,1,.7,2.6A0.86,0.86,0,0,1,437.52,80.09ZM431,76.79a3.1,3.1,0,0,0-1.08,2h5.9V78.58a2.44,2.44,0,0,0-.95-1.74,3,3,0,0,0-1.93-.68A3.09,3.09,0,0,0,431,76.79Z"/><path class="cls-3" d="M441.8,84.84a0.93,0.93,0,0,1-.68.28,0.89,0.89,0,0,1-.67-0.28,1,1,0,0,1-.27-0.68V71.28a1,1,0,0,1,1-1,0.89,0.89,0,0,1,.67.28,1,1,0,0,1,.27.68V84.16A0.93,0.93,0,0,1,441.8,84.84Z"/><path class="cls-3" d="M147.29,94.59a0.93,0.93,0,0,1,.27.69v12.88a0.94,0.94,0,0,1-.27.68,0.92,0.92,0,0,1-.69.28,0.9,0.9,0,0,1-.68-0.27,1,1,0,0,1-.26-0.69V107.6a4,4,0,0,1-1.41,1.22,4,4,0,0,1-1.95.5,4.48,4.48,0,0,1-2.46-.7,4.9,4.9,0,0,1-1.74-2,6.07,6.07,0,0,1-.64-2.81,6.16,6.16,0,0,1,.63-2.81,4.83,4.83,0,0,1,1.73-2,4.55,4.55,0,0,1,4.38-.26,4.2,4.2,0,0,1,1.46,1.14v-4.7a1,1,0,0,1,.26-0.69,0.9,0.9,0,0,1,.68-0.27A0.93,0.93,0,0,1,147.29,94.59Zm-3.1,12.49a3.24,3.24,0,0,0,1.14-1.32,4.58,4.58,0,0,0,0-3.79,3.23,3.23,0,0,0-1.14-1.33,3.14,3.14,0,0,0-3.34,0,3.23,3.23,0,0,0-1.14,1.33,4.59,4.59,0,0,0,0,3.79,3.24,3.24,0,0,0,1.14,1.32A3.14,3.14,0,0,0,144.19,107.08Z"/><path class="cls-3" d="M150.39,97a0.83,0.83,0,0,1-.25-0.67V96a0.79,0.79,0,0,1,.27-0.68,1.4,1.4,0,0,1,.83-0.2,1.25,1.25,0,0,1,.81.21,0.83,0.83,0,0,1,.25.67v0.32A0.81,0.81,0,0,1,152,97a1.35,1.35,0,0,1-.82.2A1.29,1.29,0,0,1,150.39,97Zm1.52,11.83a0.92,0.92,0,0,1-.69.28,0.89,0.89,0,0,1-.67-0.28,1,1,0,0,1-.27-0.68V99.5a0.94,0.94,0,0,1,.27-0.68,0.89,0.89,0,0,1,.67-0.28,0.92,0.92,0,0,1,.69.28,0.94,0.94,0,0,1,.27.68v8.66A1,1,0,0,1,151.91,108.84Z"/><path class="cls-3" d="M162.64,99.1a4.85,4.85,0,0,1,1.73,1.94,6.1,6.1,0,0,1,.63,2.8,6.22,6.22,0,0,1-.63,2.82,4.82,4.82,0,0,1-1.73,2,4.42,4.42,0,0,1-2.42.7,4.21,4.21,0,0,1-1.94-.46,4.53,4.53,0,0,1-1.46-1.14v0.58a0.94,0.94,0,0,1-.27.68,1,1,0,0,1-1.36,0,0.93,0.93,0,0,1-.27-0.69v-13a1,1,0,0,1,.26-0.69,0.9,0.9,0,0,1,.68-0.27,0.92,0.92,0,0,1,.69.28,0.94,0.94,0,0,1,.27.68v4.88a4,4,0,0,1,1.4-1.24,3.92,3.92,0,0,1,2-.52A4.49,4.49,0,0,1,162.64,99.1Zm-1,8a3.28,3.28,0,0,0,1.15-1.34,4.3,4.3,0,0,0,.41-1.89,4.24,4.24,0,0,0-.41-1.88,3.22,3.22,0,0,0-1.15-1.32,3,3,0,0,0-1.66-.48,3,3,0,0,0-1.68.48,3.23,3.23,0,0,0-1.15,1.31,4.21,4.21,0,0,0-.41,1.89,4.27,4.27,0,0,0,.41,1.9,3.29,3.29,0,0,0,1.15,1.33,3,3,0,0,0,1.68.49A2.94,2.94,0,0,0,161.62,107.07Z"/><path class="cls-3" d="M175.69,98.92a1,1,0,0,1,.27.68v5.32a4.39,4.39,0,1,1-8.76,0V99.6a0.94,0.94,0,0,1,.27-0.68,0.89,0.89,0,0,1,.67-0.28,0.92,0.92,0,0,1,.69.28,0.94,0.94,0,0,1,.27.68v5.32q0,2.62,2.46,2.62a2.47,2.47,0,0,0,1.86-.66,2.71,2.71,0,0,0,.64-2V99.6a1,1,0,0,1,.27-0.68,0.89,0.89,0,0,1,.67-0.28A0.92,0.92,0,0,1,175.69,98.92Z"/><path class="cls-3" d="M177.23,112.8a0.87,0.87,0,0,1-.25-0.62V112a0.88,0.88,0,0,1,.82-0.86,1.81,1.81,0,0,0,1.28-2V99.6a0.94,0.94,0,0,1,.27-0.68,0.92,0.92,0,0,1,.69-0.28,0.89,0.89,0,0,1,.67.28,1,1,0,0,1,.27.68v10a3.71,3.71,0,0,1-.43,1.82,3.07,3.07,0,0,1-1.15,1.2,3,3,0,0,1-1.54.42A0.84,0.84,0,0,1,177.23,112.8Zm2-15.79a0.83,0.83,0,0,1-.25-0.67V96a0.79,0.79,0,0,1,.27-0.68,1.4,1.4,0,0,1,.83-0.2,1.26,1.26,0,0,1,.81.21,0.83,0.83,0,0,1,.25.67v0.32a0.81,0.81,0,0,1-.26.68,1.35,1.35,0,0,1-.82.2A1.29,1.29,0,0,1,179.19,97Z"/><path class="cls-3" d="M193.24,106.68a5.09,5.09,0,0,1-1.91,1.94,5.44,5.44,0,0,1-5.34,0,5.08,5.08,0,0,1-1.91-1.94,5.6,5.6,0,0,1-.7-2.8,5.71,5.71,0,0,1,.7-2.82,5,5,0,0,1,1.91-2,5.44,5.44,0,0,1,5.34,0,5.05,5.05,0,0,1,1.91,2,5.71,5.71,0,0,1,.7,2.82A5.6,5.6,0,0,1,193.24,106.68Zm-1.65-4.73a3.35,3.35,0,0,0-1.22-1.32,3.35,3.35,0,0,0-3.42,0,3.34,3.34,0,0,0-1.22,1.32,4.06,4.06,0,0,0-.45,1.93,4,4,0,0,0,.45,1.9,3.36,3.36,0,0,0,1.22,1.31,3.35,3.35,0,0,0,3.42,0,3.36,3.36,0,0,0,1.22-1.31,4,4,0,0,0,.45-1.9A4.06,4.06,0,0,0,191.59,101.95Z"/><path class="cls-3" d="M209.4,99.15a4.78,4.78,0,0,1,1.73,1.93,6.1,6.1,0,0,1,.63,2.8,6,6,0,0,1-.63,2.79,4.86,4.86,0,0,1-1.73,1.93,4.42,4.42,0,0,1-2.42.7,4.21,4.21,0,0,1-1.94-.46,4.68,4.68,0,0,1-1.46-1.12v4.44a0.94,0.94,0,0,1-.27.68,1,1,0,0,1-1.36,0,0.93,0.93,0,0,1-.27-0.69V99.58a1,1,0,0,1,.26-0.7,0.88,0.88,0,0,1,.68-0.28,0.92,0.92,0,0,1,.69.28,1,1,0,0,1,.27.7v0.58A3.92,3.92,0,0,1,205,99a4,4,0,0,1,2-.5A4.54,4.54,0,0,1,209.4,99.15Zm-1,7.91a3.23,3.23,0,0,0,1.15-1.31,4.47,4.47,0,0,0,0-3.74,3.23,3.23,0,0,0-1.15-1.31,3,3,0,0,0-1.66-.48,3.07,3.07,0,0,0-1.68.47,3.15,3.15,0,0,0-1.15,1.31,4.52,4.52,0,0,0,0,3.76,3.15,3.15,0,0,0,1.15,1.31,3.06,3.06,0,0,0,1.68.47A3,3,0,0,0,208.38,107.06Z"/><path class="cls-3" d="M222.45,98.92a1,1,0,0,1,.27.68v5.32a4.39,4.39,0,1,1-8.76,0V99.6a0.94,0.94,0,0,1,.27-0.68,0.89,0.89,0,0,1,.67-0.28,0.92,0.92,0,0,1,.69.28,0.94,0.94,0,0,1,.27.68v5.32q0,2.62,2.46,2.62a2.47,2.47,0,0,0,1.86-.66,2.71,2.71,0,0,0,.64-2V99.6a1,1,0,0,1,.27-0.68,0.89,0.89,0,0,1,.67-0.28A0.92,0.92,0,0,1,222.45,98.92Z"/><path class="cls-3" d="M234.46,104.09a1,1,0,0,1-.66.25h-7a3.48,3.48,0,0,0,1.11,2.34,3.4,3.4,0,0,0,2.37.88,3.72,3.72,0,0,0,1.56-.28,3.92,3.92,0,0,0,1.06-.72,1.13,1.13,0,0,1,.58-0.18,0.76,0.76,0,0,1,.57.24,0.79,0.79,0,0,1,.23.56,1,1,0,0,1-.4.76,4.71,4.71,0,0,1-1.54,1,5.06,5.06,0,0,1-2,.4,5.79,5.79,0,0,1-2.85-.68,4.73,4.73,0,0,1-1.9-1.9,5.63,5.63,0,0,1-.67-2.76,6.08,6.08,0,0,1,.69-2.95,5,5,0,0,1,1.82-2,4.69,4.69,0,0,1,4.83,0,5,5,0,0,1,1.8,1.82,5.2,5.2,0,0,1,.7,2.6A0.86,0.86,0,0,1,234.46,104.09Zm-6.54-3.3a3.1,3.1,0,0,0-1.08,2h5.9v-0.16a2.44,2.44,0,0,0-1-1.74,3,3,0,0,0-1.93-.68A3.09,3.09,0,0,0,227.92,100.79Z"/><path class="cls-3" d="M246.15,94.59a0.93,0.93,0,0,1,.27.69v12.88a0.94,0.94,0,0,1-.27.68,0.92,0.92,0,0,1-.69.28,0.9,0.9,0,0,1-.68-0.27,1,1,0,0,1-.26-0.69V107.6a4,4,0,0,1-1.41,1.22,4,4,0,0,1-1.95.5,4.48,4.48,0,0,1-2.46-.7,4.9,4.9,0,0,1-1.74-2,6.07,6.07,0,0,1-.64-2.81A6.16,6.16,0,0,1,237,101a4.83,4.83,0,0,1,1.73-2,4.55,4.55,0,0,1,4.38-.26,4.2,4.2,0,0,1,1.46,1.14v-4.7a1,1,0,0,1,.26-0.69,0.9,0.9,0,0,1,.68-0.27A0.93,0.93,0,0,1,246.15,94.59ZM243,107.08a3.24,3.24,0,0,0,1.14-1.32,4.58,4.58,0,0,0,0-3.79,3.23,3.23,0,0,0-1.14-1.33,3.14,3.14,0,0,0-3.34,0,3.23,3.23,0,0,0-1.14,1.33,4.59,4.59,0,0,0,0,3.79,3.24,3.24,0,0,0,1.14,1.32A3.14,3.14,0,0,0,243,107.08Z"/><path class="cls-3" d="M258.14,104.09a1,1,0,0,1-.66.25h-7a3.48,3.48,0,0,0,1.11,2.34,3.4,3.4,0,0,0,2.37.88,3.72,3.72,0,0,0,1.56-.28,3.92,3.92,0,0,0,1.06-.72,1.13,1.13,0,0,1,.58-0.18,0.76,0.76,0,0,1,.57.24,0.79,0.79,0,0,1,.23.56,1,1,0,0,1-.4.76,4.71,4.71,0,0,1-1.54,1,5.06,5.06,0,0,1-2,.4,5.79,5.79,0,0,1-2.85-.68,4.73,4.73,0,0,1-1.9-1.9,5.63,5.63,0,0,1-.67-2.76,6.08,6.08,0,0,1,.69-2.95,5,5,0,0,1,1.82-2,4.69,4.69,0,0,1,4.83,0,5,5,0,0,1,1.8,1.82,5.2,5.2,0,0,1,.7,2.6A0.86,0.86,0,0,1,258.14,104.09Zm-6.54-3.3a3.1,3.1,0,0,0-1.08,2h5.9v-0.16a2.44,2.44,0,0,0-1-1.74,3,3,0,0,0-1.93-.68A3.09,3.09,0,0,0,251.6,100.79Z"/><path class="cls-3" d="M259.86,106.94a0.81,0.81,0,0,1,.42-0.68,0.78,0.78,0,0,1,.46-0.14,0.92,0.92,0,0,1,.66.3,4.21,4.21,0,0,0,1.29,1,3.69,3.69,0,0,0,1.65.34,2.82,2.82,0,0,0,1.34-.35,1.14,1.14,0,0,0,.58-1.07,1.15,1.15,0,0,0-.59-1,6.72,6.72,0,0,0-1.73-.66,12.78,12.78,0,0,1-1.86-.63,3.34,3.34,0,0,1-1.25-1,2.81,2.81,0,0,1,0-3.23,3.39,3.39,0,0,1,1.36-1.06A4.48,4.48,0,0,1,264,98.4a5.35,5.35,0,0,1,1.91.36,3.59,3.59,0,0,1,1.55,1.1,0.88,0.88,0,0,1,.24.58,0.86,0.86,0,0,1-.32.62,0.72,0.72,0,0,1-.5.18,0.75,0.75,0,0,1-.58-0.24,2.82,2.82,0,0,0-1-.74A3.41,3.41,0,0,0,264,100a2.51,2.51,0,0,0-1.29.31,1.12,1.12,0,0,0-.53,1.05,1.16,1.16,0,0,0,.61,1,7.72,7.72,0,0,0,1.81.66,11.2,11.2,0,0,1,1.76.6,3.07,3.07,0,0,1,1.18,1,2.65,2.65,0,0,1,.48,1.65,2.57,2.57,0,0,1-.54,1.63,3.48,3.48,0,0,1-1.41,1.06,4.68,4.68,0,0,1-1.85.37,6.07,6.07,0,0,1-2.33-.44,4.34,4.34,0,0,1-1.81-1.4A1,1,0,0,1,259.86,106.94Z"/><path class="cls-3" d="M284.91,94.59a0.93,0.93,0,0,1,.27.69v12.88a0.94,0.94,0,0,1-.27.68,0.92,0.92,0,0,1-.69.28,0.9,0.9,0,0,1-.68-0.27,1,1,0,0,1-.26-0.69V107.6a4,4,0,0,1-1.41,1.22,4,4,0,0,1-1.95.5,4.48,4.48,0,0,1-2.46-.7,4.9,4.9,0,0,1-1.74-2,6.07,6.07,0,0,1-.64-2.81,6.16,6.16,0,0,1,.63-2.81,4.83,4.83,0,0,1,1.73-2,4.55,4.55,0,0,1,4.38-.26,4.2,4.2,0,0,1,1.46,1.14v-4.7a1,1,0,0,1,.26-0.69,0.9,0.9,0,0,1,.68-0.27A0.93,0.93,0,0,1,284.91,94.59Zm-3.1,12.49a3.24,3.24,0,0,0,1.14-1.32,4.58,4.58,0,0,0,0-3.79,3.23,3.23,0,0,0-1.14-1.33,3.14,3.14,0,0,0-3.34,0,3.23,3.23,0,0,0-1.14,1.33,4.59,4.59,0,0,0,0,3.79,3.24,3.24,0,0,0,1.14,1.32A3.14,3.14,0,0,0,281.81,107.08Z"/><path class="cls-3" d="M297.19,98.77a1,1,0,0,1,.27.71v8.68a0.94,0.94,0,0,1-.27.68,0.92,0.92,0,0,1-.69.28,0.9,0.9,0,0,1-.68-0.27,1,1,0,0,1-.26-0.69v-0.52a4.28,4.28,0,0,1-1.42,1.19,4,4,0,0,1-1.94.49,4.53,4.53,0,0,1-2.47-.7,4.8,4.8,0,0,1-1.74-2,6.58,6.58,0,0,1,0-5.62,4.83,4.83,0,0,1,1.73-2,4.57,4.57,0,0,1,4.39-.26,4.08,4.08,0,0,1,1.45,1.12V99.48a1,1,0,0,1,.26-0.7,0.88,0.88,0,0,1,.68-0.28A0.93,0.93,0,0,1,297.19,98.77Zm-3.1,8.31a3.24,3.24,0,0,0,1.14-1.32,4.27,4.27,0,0,0,.41-1.9,4.23,4.23,0,0,0-.41-1.88,3.32,3.32,0,0,0-1.14-1.33,2.93,2.93,0,0,0-1.67-.49,3,3,0,0,0-1.67.48,3.24,3.24,0,0,0-1.14,1.32,4.61,4.61,0,0,0,0,3.8,3.24,3.24,0,0,0,1.14,1.32A3.14,3.14,0,0,0,294.09,107.08Z"/><path class="cls-3" d="M306.4,98.67a0.8,0.8,0,0,1,.38.67,1,1,0,0,1-.25.73,0.83,0.83,0,0,1-.61.25,1.9,1.9,0,0,1-.54-0.12,2.25,2.25,0,0,0-.66-0.14,2,2,0,0,0-1.21.43,3.14,3.14,0,0,0-1,1.18,3.73,3.73,0,0,0-.37,1.67v4.82a0.94,0.94,0,0,1-.27.68,0.92,0.92,0,0,1-.69.28,0.9,0.9,0,0,1-.68-0.27,1,1,0,0,1-.26-0.69V99.6a0.94,0.94,0,0,1,.27-0.68,0.89,0.89,0,0,1,.67-0.28,0.92,0.92,0,0,1,.69.28,0.94,0.94,0,0,1,.27.68v1A3.79,3.79,0,0,1,303.5,99a3.54,3.54,0,0,1,2-.63A1.52,1.52,0,0,1,306.4,98.67Z"/><path class="cls-3" d="M321.27,98.9a1.49,1.49,0,0,1,1.05,1.28,0.94,0.94,0,0,1-.22.61,0.69,0.69,0,0,1-.56.27,0.87,0.87,0,0,1-.41-0.08,4.37,4.37,0,0,1-.41-0.26,2.18,2.18,0,0,0-.38-0.28,2.64,2.64,0,0,0-.68-0.2,4.52,4.52,0,0,0-.8-0.08,3.51,3.51,0,0,0-1.84.48,3.27,3.27,0,0,0-1.24,1.33,4,4,0,0,0-.44,1.89,4.11,4.11,0,0,0,.43,1.9,3.26,3.26,0,0,0,1.21,1.32,3.33,3.33,0,0,0,1.78.48,3.77,3.77,0,0,0,1.68-.32,4,4,0,0,0,.38-0.26,2.37,2.37,0,0,1,.35-0.24,0.78,0.78,0,0,1,.37-0.08,0.81,0.81,0,0,1,.63.25,0.92,0.92,0,0,1,.23.65,1.11,1.11,0,0,1-.53.83,4.26,4.26,0,0,1-1.42.67,6.78,6.78,0,0,1-1.91.26,5,5,0,0,1-2.68-.71,4.75,4.75,0,0,1-1.79-2,6.11,6.11,0,0,1-.63-2.79,5.88,5.88,0,0,1,.66-2.79,4.92,4.92,0,0,1,1.84-2,5.14,5.14,0,0,1,2.7-.71A6.11,6.11,0,0,1,321.27,98.9Z"/><path class="cls-3" d="M326.14,108.84a0.93,0.93,0,0,1-.68.28,0.89,0.89,0,0,1-.67-0.28,0.94,0.94,0,0,1-.27-0.68V95.28a1,1,0,0,1,1-1,0.89,0.89,0,0,1,.67.28,0.94,0.94,0,0,1,.27.68v12.88A0.93,0.93,0,0,1,326.14,108.84Z"/><path class="cls-3" d="M329.43,97a0.83,0.83,0,0,1-.25-0.67V96a0.79,0.79,0,0,1,.27-0.68,1.4,1.4,0,0,1,.83-0.2,1.25,1.25,0,0,1,.81.21,0.83,0.83,0,0,1,.25.67v0.32a0.81,0.81,0,0,1-.26.68,1.35,1.35,0,0,1-.82.2A1.29,1.29,0,0,1,329.43,97Zm1.52,11.83a0.92,0.92,0,0,1-.69.28,0.89,0.89,0,0,1-.67-0.28,1,1,0,0,1-.27-0.68V99.5a0.94,0.94,0,0,1,.27-0.68,0.89,0.89,0,0,1,.67-0.28,0.92,0.92,0,0,1,.69.28,0.94,0.94,0,0,1,.27.68v8.66A1,1,0,0,1,330.95,108.84Z"/><path class="cls-3" d="M341.15,98.9a1.49,1.49,0,0,1,1.05,1.28,0.94,0.94,0,0,1-.22.61,0.69,0.69,0,0,1-.56.27A0.87,0.87,0,0,1,341,101a4.37,4.37,0,0,1-.41-0.26,2.18,2.18,0,0,0-.38-0.28,2.64,2.64,0,0,0-.68-0.2,4.52,4.52,0,0,0-.8-0.08,3.51,3.51,0,0,0-1.84.48,3.27,3.27,0,0,0-1.24,1.33,4,4,0,0,0-.44,1.89,4.11,4.11,0,0,0,.43,1.9,3.26,3.26,0,0,0,1.21,1.32,3.33,3.33,0,0,0,1.78.48,3.77,3.77,0,0,0,1.68-.32,4,4,0,0,0,.38-0.26,2.37,2.37,0,0,1,.35-0.24,0.78,0.78,0,0,1,.37-0.08,0.81,0.81,0,0,1,.63.25,0.92,0.92,0,0,1,.23.65,1.11,1.11,0,0,1-.53.83,4.26,4.26,0,0,1-1.42.67,6.78,6.78,0,0,1-1.91.26,5,5,0,0,1-2.68-.71,4.75,4.75,0,0,1-1.79-2,6.11,6.11,0,0,1-.63-2.79,5.88,5.88,0,0,1,.66-2.79,4.92,4.92,0,0,1,1.84-2,5.14,5.14,0,0,1,2.7-.71A6.11,6.11,0,0,1,341.15,98.9Z"/><path class="cls-3" d="M353.1,108.16a0.85,0.85,0,0,1-.31.67,1,1,0,0,1-.65.27,0.85,0.85,0,0,1-.7-0.32l-3.94-4.18-1.2,1.08v2.48a0.94,0.94,0,0,1-.27.68,0.89,0.89,0,0,1-.67.28,0.92,0.92,0,0,1-.69-0.28,0.94,0.94,0,0,1-.27-0.68V95.28a0.94,0.94,0,0,1,.27-0.68,0.92,0.92,0,0,1,.69-0.28,0.89,0.89,0,0,1,.67.28,0.94,0.94,0,0,1,.27.68v8.12l4.9-4.5a1.05,1.05,0,0,1,.7-0.3,0.85,0.85,0,0,1,.62.29,0.87,0.87,0,0,1,.28.61,0.93,0.93,0,0,1-.38.72L349,103.3l3.84,4.16A1,1,0,0,1,353.1,108.16Z"/><path class="cls-3" d="M369.78,104.09a1,1,0,0,1-.66.25h-7a3.47,3.47,0,0,0,1.11,2.34,3.4,3.4,0,0,0,2.37.88,3.72,3.72,0,0,0,1.56-.28,3.92,3.92,0,0,0,1.06-.72,1.13,1.13,0,0,1,.58-0.18,0.76,0.76,0,0,1,.57.24,0.78,0.78,0,0,1,.23.56,1,1,0,0,1-.4.76,4.7,4.7,0,0,1-1.54,1,5.06,5.06,0,0,1-2,.4,5.79,5.79,0,0,1-2.85-.68,4.74,4.74,0,0,1-1.9-1.9,5.63,5.63,0,0,1-.67-2.76,6.08,6.08,0,0,1,.69-2.95,5,5,0,0,1,1.82-2,4.69,4.69,0,0,1,4.83,0,5,5,0,0,1,1.8,1.82,5.2,5.2,0,0,1,.7,2.6A0.86,0.86,0,0,1,369.78,104.09Zm-6.54-3.3a3.1,3.1,0,0,0-1.08,2h5.9v-0.16a2.44,2.44,0,0,0-.95-1.74,3,3,0,0,0-1.93-.68A3.09,3.09,0,0,0,363.24,100.79Z"/><path class="cls-3" d="M381.22,102.72v5.44a1,1,0,0,1-.27.68,0.92,0.92,0,0,1-.69.28,0.89,0.89,0,0,1-.67-0.28,0.94,0.94,0,0,1-.27-0.68v-5.42a3,3,0,0,0-.54-1.88,2.09,2.09,0,0,0-1.76-.7,3,3,0,0,0-1.45.35,2.67,2.67,0,0,0-1,.94,2.38,2.38,0,0,0-.37,1.29v5.42a0.94,0.94,0,0,1-.27.68,0.92,0.92,0,0,1-.69.28,0.9,0.9,0,0,1-.68-0.27,1,1,0,0,1-.26-0.69V99.6a0.94,0.94,0,0,1,.27-0.68,0.89,0.89,0,0,1,.67-0.28,0.92,0.92,0,0,1,.69.28,0.94,0.94,0,0,1,.27.68v0.7a4.31,4.31,0,0,1,1.45-1.35,3.84,3.84,0,0,1,2-.55Q381.22,98.4,381.22,102.72Z"/><path class="cls-3" d="M398.5,104.09a1,1,0,0,1-.66.25h-7a3.47,3.47,0,0,0,1.11,2.34,3.4,3.4,0,0,0,2.37.88,3.72,3.72,0,0,0,1.56-.28,3.92,3.92,0,0,0,1.06-.72,1.13,1.13,0,0,1,.58-0.18,0.76,0.76,0,0,1,.57.24,0.78,0.78,0,0,1,.23.56,1,1,0,0,1-.4.76,4.7,4.7,0,0,1-1.54,1,5.06,5.06,0,0,1-2,.4,5.79,5.79,0,0,1-2.85-.68,4.74,4.74,0,0,1-1.9-1.9A5.63,5.63,0,0,1,389,104a6.08,6.08,0,0,1,.69-2.95,5,5,0,0,1,1.82-2,4.69,4.69,0,0,1,4.83,0,5,5,0,0,1,1.8,1.82,5.2,5.2,0,0,1,.7,2.6A0.86,0.86,0,0,1,398.5,104.09Zm-6.54-3.3a3.1,3.1,0,0,0-1.08,2h5.9v-0.16a2.44,2.44,0,0,0-.95-1.74,3,3,0,0,0-1.93-.68A3.09,3.09,0,0,0,392,100.79Z"/><path class="cls-3" d="M402.78,108.84a0.93,0.93,0,0,1-.68.28,0.89,0.89,0,0,1-.67-0.28,1,1,0,0,1-.27-0.68V95.28a1,1,0,0,1,1-1,0.89,0.89,0,0,1,.67.28,1,1,0,0,1,.27.68v12.88A0.93,0.93,0,0,1,402.78,108.84Z"/><path class="cls-3" d="M419.32,99.1A4.85,4.85,0,0,1,421,101a6.1,6.1,0,0,1,.63,2.8,6.22,6.22,0,0,1-.63,2.82,4.82,4.82,0,0,1-1.73,2,4.42,4.42,0,0,1-2.42.7,4.2,4.2,0,0,1-1.94-.46,4.52,4.52,0,0,1-1.46-1.14v0.58a0.94,0.94,0,0,1-.27.68,1,1,0,0,1-1.36,0,0.93,0.93,0,0,1-.27-0.69v-13a1,1,0,0,1,.26-0.69,0.9,0.9,0,0,1,.68-0.27,0.92,0.92,0,0,1,.69.28,0.94,0.94,0,0,1,.27.68v4.88a4,4,0,0,1,1.4-1.24,3.93,3.93,0,0,1,2-.52A4.49,4.49,0,0,1,419.32,99.1Zm-1,8a3.28,3.28,0,0,0,1.15-1.34,4.29,4.29,0,0,0,.41-1.89,4.23,4.23,0,0,0-.41-1.88,3.22,3.22,0,0,0-1.15-1.32,3,3,0,0,0-1.66-.48,3,3,0,0,0-1.68.48,3.23,3.23,0,0,0-1.15,1.31,4.21,4.21,0,0,0-.41,1.89,4.27,4.27,0,0,0,.41,1.9,3.28,3.28,0,0,0,1.15,1.33,3,3,0,0,0,1.68.49A2.94,2.94,0,0,0,418.3,107.07Z"/><path class="cls-3" d="M433.1,106.68a5.09,5.09,0,0,1-1.91,1.94,5.44,5.44,0,0,1-5.34,0,5.08,5.08,0,0,1-1.91-1.94,5.59,5.59,0,0,1-.7-2.8,5.7,5.7,0,0,1,.7-2.82,5,5,0,0,1,1.91-2,5.44,5.44,0,0,1,5.34,0,5.05,5.05,0,0,1,1.91,2,5.71,5.71,0,0,1,.7,2.82A5.6,5.6,0,0,1,433.1,106.68Zm-1.65-4.73a3.34,3.34,0,0,0-1.22-1.32,3.35,3.35,0,0,0-3.42,0,3.34,3.34,0,0,0-1.22,1.32,4.06,4.06,0,0,0-.45,1.93,4,4,0,0,0,.45,1.9,3.36,3.36,0,0,0,1.22,1.31,3.35,3.35,0,0,0,3.42,0,3.35,3.35,0,0,0,1.22-1.31,4,4,0,0,0,.45-1.9A4.06,4.06,0,0,0,431.45,101.95Z"/><path class="cls-3" d="M438.84,100.5v6a0.84,0.84,0,0,0,.9,1,1.44,1.44,0,0,0,.38-0.07,1.46,1.46,0,0,1,.38-0.07,0.55,0.55,0,0,1,.44.22,0.84,0.84,0,0,1-.3,1.28,2,2,0,0,1-1.08.3,4.89,4.89,0,0,1-1.21-.14,1.79,1.79,0,0,1-1-.71,2.86,2.86,0,0,1-.43-1.73v-6h-1.16a0.85,0.85,0,0,1-.88-0.88,0.82,0.82,0,0,1,.25-0.62,0.87,0.87,0,0,1,.63-0.24h1.16V97.08a1,1,0,0,1,.27-0.68,0.92,0.92,0,0,1,.69-0.28,0.89,0.89,0,0,1,.67.28,1,1,0,0,1,.27.68v1.68h1.66a0.85,0.85,0,0,1,.88.88,0.82,0.82,0,0,1-.25.62,0.88,0.88,0,0,1-.63.24h-1.66Z"/><path class="cls-3" d="M452.82,106.68a5.09,5.09,0,0,1-1.91,1.94,5.44,5.44,0,0,1-5.34,0,5.08,5.08,0,0,1-1.91-1.94,5.59,5.59,0,0,1-.7-2.8,5.7,5.7,0,0,1,.7-2.82,5,5,0,0,1,1.91-2,5.44,5.44,0,0,1,5.34,0,5.05,5.05,0,0,1,1.91,2,5.71,5.71,0,0,1,.7,2.82A5.6,5.6,0,0,1,452.82,106.68Zm-1.65-4.73a3.34,3.34,0,0,0-1.22-1.32,3.35,3.35,0,0,0-3.42,0,3.34,3.34,0,0,0-1.22,1.32,4.06,4.06,0,0,0-.45,1.93,4,4,0,0,0,.45,1.9,3.36,3.36,0,0,0,1.22,1.31,3.35,3.35,0,0,0,3.42,0,3.35,3.35,0,0,0,1.22-1.31,4,4,0,0,0,.45-1.9A4.06,4.06,0,0,0,451.17,101.95Zm-3.33-4.25a0.41,0.41,0,0,1-.16-0.38A0.72,0.72,0,0,1,447.8,97L449,95a1.54,1.54,0,0,1,.39-0.46,0.83,0.83,0,0,1,.53-0.18,0.91,0.91,0,0,1,.67.23,0.76,0.76,0,0,1,.21.61,1.05,1.05,0,0,1-.3.7L449,97.52a1.08,1.08,0,0,1-.8.32A0.57,0.57,0,0,1,447.84,97.7Z"/><path class="cls-3" d="M464.66,102.72v5.44a1,1,0,0,1-.27.68,0.92,0.92,0,0,1-.69.28,0.89,0.89,0,0,1-.67-0.28,0.94,0.94,0,0,1-.27-0.68v-5.42a3,3,0,0,0-.54-1.88,2.09,2.09,0,0,0-1.76-.7,3,3,0,0,0-1.45.35,2.67,2.67,0,0,0-1,.94,2.38,2.38,0,0,0-.37,1.29v5.42a0.94,0.94,0,0,1-.27.68,0.92,0.92,0,0,1-.69.28,0.9,0.9,0,0,1-.68-0.27,1,1,0,0,1-.26-0.69V99.6a0.94,0.94,0,0,1,.27-0.68,0.89,0.89,0,0,1,.67-0.28,0.92,0.92,0,0,1,.69.28,0.94,0.94,0,0,1,.27.68v0.7a4.31,4.31,0,0,1,1.45-1.35,3.84,3.84,0,0,1,2-.55Q464.66,98.4,464.66,102.72Z"/><path class="cls-3" d="M138.7,119.12h0.6a0.79,0.79,0,0,1,.52.15,0.53,0.53,0,0,1,.18.43,1,1,0,0,1-.06.32l-1.32,4.24a0.73,0.73,0,0,1-.72.56,0.42,0.42,0,0,1-.38-0.18,0.77,0.77,0,0,1-.08-0.52l0.4-4.22A0.79,0.79,0,0,1,138.7,119.12Zm4.14,0h0.62a0.76,0.76,0,0,1,.5.15,0.53,0.53,0,0,1,.18.43,1,1,0,0,1-.06.32l-1.34,4.24a0.71,0.71,0,0,1-.72.56,0.37,0.37,0,0,1-.35-0.19,1,1,0,0,1-.09-0.53l0.42-4.2A0.75,0.75,0,0,1,142.84,119.12Z"/><path class="cls-3" d="M157.49,126a0.94,0.94,0,0,1,.27.68v4.5a0.94,0.94,0,0,1-.48.84,7.89,7.89,0,0,1-4.28,1.26,7.24,7.24,0,0,1-3.67-1,7.2,7.2,0,0,1,0-12.48,7.24,7.24,0,0,1,3.67-1,8.36,8.36,0,0,1,1.93.22,5.92,5.92,0,0,1,1.67.66,1,1,0,0,1,.36.34,0.84,0.84,0,0,1,.12.44,1,1,0,0,1-.27.69,0.86,0.86,0,0,1-.65.29,1,1,0,0,1-.52-0.14,6.24,6.24,0,0,0-2.64-.6,5.11,5.11,0,0,0-4.51,2.62,5.35,5.35,0,0,0-.69,2.68,5.29,5.29,0,0,0,.69,2.67,5.19,5.19,0,0,0,1.88,1.92,5,5,0,0,0,2.63.71,6.84,6.84,0,0,0,1.43-.16,5.76,5.76,0,0,0,1.29-.42v-3.18H153.3a0.94,0.94,0,0,1-.68-0.27,0.89,0.89,0,0,1-.28-0.67,0.91,0.91,0,0,1,.28-0.69,0.94,0.94,0,0,1,.68-0.27h3.52A0.89,0.89,0,0,1,157.49,126Z"/><path class="cls-3" d="M168.69,122.92a1,1,0,0,1,.27.68v5.32a4.39,4.39,0,1,1-8.76,0V123.6a0.94,0.94,0,0,1,.27-0.68,0.89,0.89,0,0,1,.67-0.28,0.92,0.92,0,0,1,.69.28,0.94,0.94,0,0,1,.27.68v5.32q0,2.62,2.46,2.62a2.47,2.47,0,0,0,1.86-.66,2.71,2.71,0,0,0,.64-2V123.6a1,1,0,0,1,.27-0.68,0.89,0.89,0,0,1,.67-0.28A0.92,0.92,0,0,1,168.69,122.92Z"/><path class="cls-3" d="M181,122.77a1,1,0,0,1,.27.71v8.68a0.94,0.94,0,0,1-.27.68,0.92,0.92,0,0,1-.69.28,0.9,0.9,0,0,1-.68-0.27,1,1,0,0,1-.26-0.69v-0.52a4.28,4.28,0,0,1-1.42,1.19,4,4,0,0,1-1.94.49,4.53,4.53,0,0,1-2.47-.7,4.8,4.8,0,0,1-1.74-2,6.58,6.58,0,0,1,0-5.62,4.83,4.83,0,0,1,1.73-2,4.57,4.57,0,0,1,4.39-.26,4.08,4.08,0,0,1,1.45,1.12v-0.48a1,1,0,0,1,.26-0.7,0.88,0.88,0,0,1,.68-0.28A0.93,0.93,0,0,1,181,122.77Zm-3.1,8.31a3.24,3.24,0,0,0,1.14-1.32,4.27,4.27,0,0,0,.41-1.9A4.23,4.23,0,0,0,179,126a3.32,3.32,0,0,0-1.14-1.33,2.93,2.93,0,0,0-1.67-.49,3,3,0,0,0-1.67.48,3.24,3.24,0,0,0-1.14,1.32,4.61,4.61,0,0,0,0,3.8,3.24,3.24,0,0,0,1.14,1.32A3.14,3.14,0,0,0,177.89,131.08Z"/><path class="cls-3" d="M190.2,122.67a0.8,0.8,0,0,1,.38.67,1,1,0,0,1-.25.73,0.83,0.83,0,0,1-.61.25,1.9,1.9,0,0,1-.54-0.12,2.25,2.25,0,0,0-.66-0.14,2,2,0,0,0-1.21.43,3.14,3.14,0,0,0-1,1.18,3.73,3.73,0,0,0-.37,1.67v4.82a0.94,0.94,0,0,1-.27.68,0.92,0.92,0,0,1-.69.28,0.9,0.9,0,0,1-.68-0.27,1,1,0,0,1-.26-0.69V123.6a0.94,0.94,0,0,1,.27-0.68,0.89,0.89,0,0,1,.67-0.28,0.92,0.92,0,0,1,.69.28,0.94,0.94,0,0,1,.27.68v1A3.79,3.79,0,0,1,187.3,123a3.54,3.54,0,0,1,2-.63A1.52,1.52,0,0,1,190.2,122.67Z"/><path class="cls-3" d="M201.09,118.59a0.93,0.93,0,0,1,.27.69v12.88a0.94,0.94,0,0,1-.27.68,0.92,0.92,0,0,1-.69.28,0.9,0.9,0,0,1-.68-0.27,1,1,0,0,1-.26-0.69V131.6a4,4,0,0,1-1.41,1.22,4,4,0,0,1-1.95.5,4.48,4.48,0,0,1-2.46-.7,4.9,4.9,0,0,1-1.74-2,6.07,6.07,0,0,1-.64-2.81,6.16,6.16,0,0,1,.63-2.81,4.83,4.83,0,0,1,1.73-2,4.55,4.55,0,0,1,4.38-.26,4.2,4.2,0,0,1,1.46,1.14v-4.7a1,1,0,0,1,.26-0.69,0.9,0.9,0,0,1,.68-0.27A0.93,0.93,0,0,1,201.09,118.59ZM198,131.08a3.24,3.24,0,0,0,1.14-1.32,4.58,4.58,0,0,0,0-3.79,3.23,3.23,0,0,0-1.14-1.33,3.14,3.14,0,0,0-3.34,0,3.23,3.23,0,0,0-1.14,1.33,4.59,4.59,0,0,0,0,3.79,3.24,3.24,0,0,0,1.14,1.32A3.14,3.14,0,0,0,198,131.08Z"/><path class="cls-3" d="M213.37,122.77a1,1,0,0,1,.27.71v8.68a0.94,0.94,0,0,1-.27.68,0.92,0.92,0,0,1-.69.28,0.9,0.9,0,0,1-.68-0.27,1,1,0,0,1-.26-0.69v-0.52a4.28,4.28,0,0,1-1.42,1.19,4,4,0,0,1-1.94.49,4.53,4.53,0,0,1-2.47-.7,4.8,4.8,0,0,1-1.74-2,6.58,6.58,0,0,1,0-5.62,4.83,4.83,0,0,1,1.73-2,4.57,4.57,0,0,1,4.39-.26,4.08,4.08,0,0,1,1.45,1.12v-0.48a1,1,0,0,1,.26-0.7,0.88,0.88,0,0,1,.68-0.28A0.93,0.93,0,0,1,213.37,122.77Zm-3.1,8.31a3.24,3.24,0,0,0,1.14-1.32,4.27,4.27,0,0,0,.41-1.9,4.23,4.23,0,0,0-.41-1.88,3.32,3.32,0,0,0-1.14-1.33,2.93,2.93,0,0,0-1.67-.49,3,3,0,0,0-1.67.48,3.24,3.24,0,0,0-1.14,1.32,4.61,4.61,0,0,0,0,3.8,3.24,3.24,0,0,0,1.14,1.32A3.14,3.14,0,0,0,210.27,131.08Z"/><path class="cls-3" d="M222.58,122.67a0.8,0.8,0,0,1,.38.67,1,1,0,0,1-.25.73,0.83,0.83,0,0,1-.61.25,1.9,1.9,0,0,1-.54-0.12,2.25,2.25,0,0,0-.66-0.14,2,2,0,0,0-1.21.43,3.14,3.14,0,0,0-1,1.18,3.73,3.73,0,0,0-.37,1.67v4.82a0.94,0.94,0,0,1-.27.68,0.92,0.92,0,0,1-.69.28,0.9,0.9,0,0,1-.68-0.27,1,1,0,0,1-.26-0.69V123.6a0.94,0.94,0,0,1,.27-0.68,0.89,0.89,0,0,1,.67-0.28,0.92,0.92,0,0,1,.69.28,0.94,0.94,0,0,1,.27.68v1a3.79,3.79,0,0,1,1.32-1.59,3.54,3.54,0,0,1,2-.63A1.52,1.52,0,0,1,222.58,122.67Z"/><path class="cls-3" d="M239.45,118.59a0.93,0.93,0,0,1,.27.69v12.88a0.94,0.94,0,0,1-.27.68,0.92,0.92,0,0,1-.69.28,0.9,0.9,0,0,1-.68-0.27,1,1,0,0,1-.26-0.69V131.6a4,4,0,0,1-1.41,1.22,4,4,0,0,1-1.95.5,4.48,4.48,0,0,1-2.46-.7,4.9,4.9,0,0,1-1.74-2,6.07,6.07,0,0,1-.64-2.81,6.16,6.16,0,0,1,.63-2.81,4.83,4.83,0,0,1,1.73-2,4.55,4.55,0,0,1,4.38-.26,4.2,4.2,0,0,1,1.46,1.14v-4.7a1,1,0,0,1,.26-0.69,0.9,0.9,0,0,1,.68-0.27A0.93,0.93,0,0,1,239.45,118.59Zm-3.1,12.49a3.24,3.24,0,0,0,1.14-1.32,4.58,4.58,0,0,0,0-3.79,3.23,3.23,0,0,0-1.14-1.33,3.14,3.14,0,0,0-3.34,0,3.23,3.23,0,0,0-1.14,1.33,4.59,4.59,0,0,0,0,3.79,3.24,3.24,0,0,0,1.14,1.32A3.14,3.14,0,0,0,236.35,131.08Z"/><path class="cls-3" d="M242.55,121a0.83,0.83,0,0,1-.25-0.67V120a0.79,0.79,0,0,1,.27-0.68,1.4,1.4,0,0,1,.83-0.2,1.25,1.25,0,0,1,.81.21,0.83,0.83,0,0,1,.25.67v0.32a0.81,0.81,0,0,1-.26.68,1.35,1.35,0,0,1-.82.2A1.29,1.29,0,0,1,242.55,121Zm1.52,11.83a0.92,0.92,0,0,1-.69.28,0.89,0.89,0,0,1-.67-0.28,1,1,0,0,1-.27-0.68V123.5a0.94,0.94,0,0,1,.27-0.68,0.89,0.89,0,0,1,.67-0.28,0.92,0.92,0,0,1,.69.28,0.94,0.94,0,0,1,.27.68v8.66A1,1,0,0,1,244.07,132.84Z"/><path class="cls-3" d="M254.8,123.1a4.85,4.85,0,0,1,1.73,1.94,6.1,6.1,0,0,1,.63,2.8,6.22,6.22,0,0,1-.63,2.82,4.82,4.82,0,0,1-1.73,2,4.42,4.42,0,0,1-2.42.7,4.21,4.21,0,0,1-1.94-.46,4.53,4.53,0,0,1-1.46-1.14v0.58a0.94,0.94,0,0,1-.27.68,1,1,0,0,1-1.36,0,0.93,0.93,0,0,1-.27-0.69v-13a1,1,0,0,1,.26-0.69,0.9,0.9,0,0,1,.68-0.27,0.92,0.92,0,0,1,.69.28,0.94,0.94,0,0,1,.27.68v4.88a4,4,0,0,1,1.4-1.24,3.92,3.92,0,0,1,2-.52A4.49,4.49,0,0,1,254.8,123.1Zm-1,8a3.28,3.28,0,0,0,1.15-1.34,4.3,4.3,0,0,0,.41-1.89,4.24,4.24,0,0,0-.41-1.88,3.22,3.22,0,0,0-1.15-1.32,3,3,0,0,0-1.66-.48,3,3,0,0,0-1.68.48,3.23,3.23,0,0,0-1.15,1.31,4.21,4.21,0,0,0-.41,1.89,4.27,4.27,0,0,0,.41,1.9,3.29,3.29,0,0,0,1.15,1.33,3,3,0,0,0,1.68.49A2.94,2.94,0,0,0,253.78,131.07Z"/><path class="cls-3" d="M267.85,122.92a1,1,0,0,1,.27.68v5.32a4.39,4.39,0,1,1-8.76,0V123.6a0.94,0.94,0,0,1,.27-0.68,0.89,0.89,0,0,1,.67-0.28,0.92,0.92,0,0,1,.69.28,0.94,0.94,0,0,1,.27.68v5.32q0,2.62,2.46,2.62a2.47,2.47,0,0,0,1.86-.66,2.71,2.71,0,0,0,.64-2V123.6a1,1,0,0,1,.27-0.68,0.89,0.89,0,0,1,.67-0.28A0.92,0.92,0,0,1,267.85,122.92Z"/><path class="cls-3" d="M269.39,136.8a0.87,0.87,0,0,1-.25-0.62V136a0.88,0.88,0,0,1,.82-0.86,1.81,1.81,0,0,0,1.28-2V123.6a0.94,0.94,0,0,1,.27-0.68,0.92,0.92,0,0,1,.69-0.28,0.89,0.89,0,0,1,.67.28,1,1,0,0,1,.27.68v10a3.71,3.71,0,0,1-.43,1.82,3.07,3.07,0,0,1-1.15,1.2,3,3,0,0,1-1.54.42A0.84,0.84,0,0,1,269.39,136.8Zm2-15.79a0.83,0.83,0,0,1-.25-0.67V120a0.79,0.79,0,0,1,.27-0.68,1.4,1.4,0,0,1,.83-0.2,1.26,1.26,0,0,1,.81.21,0.83,0.83,0,0,1,.25.67v0.32a0.81,0.81,0,0,1-.26.68,1.35,1.35,0,0,1-.82.2A1.29,1.29,0,0,1,271.35,121Z"/><path class="cls-3" d="M285.4,130.68a5.09,5.09,0,0,1-1.91,1.94,5.44,5.44,0,0,1-5.34,0,5.08,5.08,0,0,1-1.91-1.94,5.6,5.6,0,0,1-.7-2.8,5.71,5.71,0,0,1,.7-2.82,5,5,0,0,1,1.91-2,5.44,5.44,0,0,1,5.34,0,5.05,5.05,0,0,1,1.91,2,5.71,5.71,0,0,1,.7,2.82A5.6,5.6,0,0,1,285.4,130.68Zm-1.65-4.73a3.35,3.35,0,0,0-1.22-1.32,3.35,3.35,0,0,0-3.42,0,3.34,3.34,0,0,0-1.22,1.32,4.06,4.06,0,0,0-.45,1.93,4,4,0,0,0,.45,1.9,3.36,3.36,0,0,0,1.22,1.31,3.35,3.35,0,0,0,3.42,0,3.36,3.36,0,0,0,1.22-1.31,4,4,0,0,0,.45-1.9A4.06,4.06,0,0,0,283.75,125.95Z"/><path class="cls-3" d="M288.9,119.12h0.6a0.79,0.79,0,0,1,.52.15,0.53,0.53,0,0,1,.18.43,1,1,0,0,1-.06.32l-1.32,4.24a0.73,0.73,0,0,1-.72.56,0.42,0.42,0,0,1-.38-0.18,0.77,0.77,0,0,1-.08-0.52l0.4-4.22A0.79,0.79,0,0,1,288.9,119.12Zm4.14,0h0.62a0.76,0.76,0,0,1,.5.15,0.53,0.53,0,0,1,.18.43,1,1,0,0,1-.06.32l-1.34,4.24a0.71,0.71,0,0,1-.72.56,0.37,0.37,0,0,1-.35-0.19,1,1,0,0,1-.09-0.53l0.42-4.2A0.75,0.75,0,0,1,293,119.12Z"/><path class="cls-3" d="M296.45,132.84a1.05,1.05,0,0,1-.25-0.76V131.7a1,1,0,0,1,.25-0.74,1,1,0,0,1,.73-0.26h0.2a1,1,0,0,1,.75.26,1,1,0,0,1,.25.74v0.38a0.89,0.89,0,0,1-1,1h-0.2A1,1,0,0,1,296.45,132.84Z"/><g class="cls-4"><path class="cls-5" d="M-12.63,145.92C-28.48,138.27-28.19,104.64-12,71S30.38,16.31,46.23,24s15.56,41.28-.65,74.87S3.22,153.57-12.63,145.92Z"/><path class="cls-6" d="M43.13,92.2c2.36,1.81,3.52,5,4.23,8.13a59.76,59.76,0,0,1,1.22,15c-0.15,4.91-.72,9.85-1.3,14.78q-1.15,9.74-2.36,19.49A116.81,116.81,0,0,1,43,161.8c-1,4.36-1.81,10.46-5,13.57s-9.07,2.64-11.8-.15c-2.38-2.43-2.27-6.71-2-10.54l2.95-44.52c0.21-3.16,1-15.88,1.73-19C30.44,94.25,35.94,86.69,43.13,92.2Z"/><path class="cls-6" d="M98.54,177.09c0,0.3.35,0.6,1.68,0.56s1.44-.84,1.71-0.82c7.17,0.5,12-.29,19.06-2.11,1.59-.41,3.32-1,4.17-2.37,0.44-.71,2.05-2,2.18-2.82,0.3-2-1.09-3.78-2.56-5.1a5.58,5.58,0,0,0-4.09-1c-1.46.09-3.8,1-5.25,1-1.24,0-2.9.12-3.15-.17s2.78-.88,2.58-1.91-1.8-.79-2.83-0.62c-3.24.54-7,3.37-10.21,3.91-3,.5-2-0.34-2.43,1.92A54.2,54.2,0,0,0,98.54,177.09Z"/><path class="cls-6" d="M24.21,173.53c1.26,2.09,4.07,3.31,7,4.16,4.41,1.3,9.27,1.49,14.24,1.79,4.76,0.29,9.65.27,14.53,0.21,6.42-.08,15-0.63,17-0.7,4-.13,11.35-0.51,15.44-0.94,4.41-.46,11.26-1,15.07-3.15a4.13,4.13,0,0,0,1.38-5.72c-1.77-2.21-10.78-3.73-14.51-3.91-11.15-.55-23.12-2-39.86-2.49-3.09-.1-15.52-0.51-18.69-0.19C28.79,163.29,20.38,167.16,24.21,173.53Z"/><path class="cls-7" d="M40,143.49s-1,13.68-7.53,19.63l10.46-.64,2.65-17.74Z"/><path class="cls-6" d="M-35.09,194.09c-4.76-3.19-10.64-5.07-12.31-6.75-0.11-.11-5.1-3.52-5.79-4.1-0.25-.19-5.21-3-5.19-3.09l-4.29-3c-1.26-1.38-3,.05-2.92-1.11s8.63-16.11,9.18-17.17c4.11-7.86,13.17-14.28,19.9-28.15C-30.84,119-26.72,92.3-23,85.61c3.45-6.23,6.14-13,7.5-14.44,0.65-.68,5.58-4.1,8.63-4.15A28.17,28.17,0,0,1,0,67.48c2.44,0.67,8.23.33,13,2.73,3.59,1.67,4.66,1.72,7.7,3.36,3.11,1.32,3.81,2.52,7.27,4.25,4.73,2.18,7.65,6.33,9.64,7.81a30.86,30.86,0,0,1,4.8,5.21c1.81,2.39,2.14,8.35,2,9.28-0.28,1.93-3.91,8.28-6.65,14.85-2.94,7.05-22.34,26.41-28,38.12C3.15,167,3.51,176.87-.09,185c-0.49,1.09-6.63,16.93-7.41,17.67a6.87,6.87,0,0,1-4.63,1.19l-1.93-2.28s-5.23-2-5.53-2.09c-0.87-.17-6.53-1.9-6.68-1.92-2.31-.24-3.48-1.76-8.83-3.45"/><path class="cls-8" d="M13.72,63.52a21.84,21.84,0,0,1-3.48,6.86,6.21,6.21,0,0,0,.6,1c3,4.41,11.35,7,16,7.85,1.93,0.35,3.22.39,3.23,0.13,0.06-2.24,1.44-4.68,2.54-6.28l0-.05h0a20.83,20.83,0,0,1,1.32-1.73L14.09,61.76c0,0.25-.08.49-0.12,0.74S13.81,63.18,13.72,63.52Z"/><path class="cls-6" d="M61.31,43.37c5.17-10.72,0-23.92-11.51-29.48S24.74,12.5,19.56,23.22a20.11,20.11,0,0,0-1.72,5.53c-0.18.43-.38,0.87-0.61,1.31a61.07,61.07,0,0,0-4.71,12c-2.11,8.13-1.6,16.89,3.63,24.62A17.94,17.94,0,0,0,23.06,73c3.91,1.85,8.44,1.57,12.34.39C48.29,69.54,55,57.59,60,45.65A20.12,20.12,0,0,0,61.31,43.37Z"/><path class="cls-9" d="M-25.24,73.08C-9.78,61,11.38,69,11.38,69l-11,5-5.72,5.88-25.53,26.26L-49.44,95A311.15,311.15,0,0,1-25.24,73.08Z"/><path class="cls-10" d="M-24.86,72.62C-9.68,60.88,11.38,69,11.38,69S-12,65.15-22.22,73.44c-2.46,2-13,11.89-23.5,22.27L-48.59,94A297.55,297.55,0,0,1-24.86,72.62Z"/><path class="cls-9" d="M49.86,110.18C49.7,90.56,30.27,79,30.27,79L33.16,90.7l-1,8.14-4.67,36.32,20.32,7.6A311.15,311.15,0,0,0,49.86,110.18Z"/><polygon class="cls-11" points="32.99 98.24 24.09 138.71 28.88 140.62 32.99 98.24"/><path class="cls-10" d="M50,109.59C49.73,90.4,30.27,79,30.27,79S47.83,94.86,47.7,108c0,3.17-1.22,17.58-2.81,32.26L48,141.45A297.55,297.55,0,0,0,50,109.59Z"/><path class="cls-12" d="M49.83,139.23L24.5,134.37l-0.76,4.82,25,6.36A1.93,1.93,0,0,0,51.09,144l0.43-2.33A2.13,2.13,0,0,0,49.83,139.23Z"/><path class="cls-9" d="M25.28,133.28S7.25,155.2,0,188.57c0,0-41-12.38-59.31-27.8,0,0,22.91-26,30.53-55.47L-0.37,71.43,11.38,69s-8.78,10.41,5.2,15.81S30.27,79,30.27,79l4.87,14.8Z"/><path class="cls-12" d="M-16.82,121.24l1,0.4,2.6,1.06a28.08,28.08,0,0,1,7.68,4.35c0.65,0.56,1.29,1.15,1.94,1.72a20.35,20.35,0,0,0,2,1.55,19.24,19.24,0,0,0,3.8,2,7.32,7.32,0,0,0,1.63.44,3.75,3.75,0,0,0,1.29,0,2.53,2.53,0,0,0,.74-0.29l0.22-.15-0.26.07a2.6,2.6,0,0,1-.73,0,5.32,5.32,0,0,1-2.42-1,31.2,31.2,0,0,1-3.21-2.45c-0.57-.5-1.14-1-1.73-1.62s-1.22-1.22-1.94-1.83a15.19,15.19,0,0,0-4.62-2.68A23.55,23.55,0,0,0-13,121.72c-1.18-.21-2.14-0.31-2.81-0.38Z"/><path class="cls-6" d="M-68.56,127.16c1,2.21,3.71,3.71,6.5,4.85,4.25,1.75,9.07,2.43,14,3.24,4.71,0.78,9.57,1.26,14.43,1.7,6.39,0.58,15,.91,17,1.05,4,0.29,11.35.66,15.45,0.65,4.43,0,11.3.12,15.32-1.58a4.13,4.13,0,0,0,2-5.55c-1.53-2.38-10.34-4.82-14-5.39-11-1.69-22.79-4.34-39.39-6.57-3.06-.41-15.38-2.1-18.58-2.11C-63,117.46-71.72,120.44-68.56,127.16Z"/><path class="cls-6" d="M5,138.34c0,0.3.29,0.63,1.61,0.73s1.52-.69,1.79-0.64c7.08,1.24,12,.94,19.17-0.14,1.62-.25,3.4-0.64,4.39-1.93,0.51-.66,2.25-1.79,2.45-2.58,0.5-1.93-.69-3.86-2-5.33a5.58,5.58,0,0,0-4-1.45c-1.46-.06-3.88.59-5.32,0.44-1.24-.13-2.9-0.17-3.11-0.49s2.86-.58,2.76-1.63-1.71-1-2.75-.9c-3.28.21-7.28,2.64-10.56,2.84-3,.19-2-0.54-2.62,1.66A54.11,54.11,0,0,0,5,138.34Z"/><path class="cls-10" d="M32.07,62.43c-1.06-.08-2.92-2.63-4.16-3.12S27,58.59,26.16,58s-3-1.36-4-2.78a9.83,9.83,0,0,0,.7,5.12,5.65,5.65,0,0,0,4.22,3A8.8,8.8,0,0,0,32.07,62.43Z"/><path class="cls-10" d="M33.3,62.48l-0.17,0-0.48-.05c-0.41,0-1-.08-1.69-0.19a10,10,0,0,1-1.1-.25,10.27,10.27,0,0,1-1.18-.42,8.85,8.85,0,0,1-1.18-.61,11.27,11.27,0,0,1-1.13-.79,14.53,14.53,0,0,1-3.53-3.67c-0.18-.3-0.34-0.58-0.46-0.84a6.28,6.28,0,0,1-.29-0.68C22,54.75,22,54.6,21.92,54.49l-0.05-.16,0,0.17A4.45,4.45,0,0,0,22,55a6.48,6.48,0,0,0,.22.72,6.22,6.22,0,0,0,.39.9,10,10,0,0,0,1.4,2,14.88,14.88,0,0,0,2.07,1.91,12,12,0,0,0,1.19.81,8.13,8.13,0,0,0,1.26.6,7.69,7.69,0,0,0,1.25.37,10.7,10.7,0,0,0,1.15.18,12.39,12.39,0,0,0,1.73,0l0.48,0H33.3Z"/><path class="cls-13" d="M31.43,62.38a14.65,14.65,0,0,1-8.91-6.46A7.48,7.48,0,0,0,26,61.4,7.22,7.22,0,0,0,31.43,62.38Z"/><path class="cls-14" d="M33.4,54.48c-3.85-1-4.25-3.79-3.41-5.59C27.51,51.76,29,54.69,33.4,54.48Z"/><path class="cls-15" d="M28.49,37.83a1.64,1.64,0,0,1,0,.94c-0.34,1.07-1,3-2.41,3-1.66,0-1.43-2.06-1-3.1A3.19,3.19,0,0,1,26.5,37,1.35,1.35,0,0,1,28.49,37.83Z"/><path class="cls-15" d="M29.46,38.94S28.8,36.12,24,36.31C24,36.31,29,35.08,29.46,38.94Z"/><path class="cls-15" d="M44.51,45.56a1.64,1.64,0,0,0-.72.61c-0.63.94-1.69,2.65-.84,3.75,1,1.31,2.5-.16,3-1.16a3.19,3.19,0,0,0,.41-2.15A1.35,1.35,0,0,0,44.51,45.56Z"/><path class="cls-15" d="M43,45.5s2.62-1.24,5.46,2.63C48.5,48.13,46.34,43.44,43,45.5Z"/><path class="cls-7" d="M65.47,63.17a5.38,5.38,0,0,0,1-.84,15.89,15.89,0,0,1-1.19,4.1c-0.18-.41-0.37-0.82-0.59-1.23a3.63,3.63,0,0,0-.69-0.9A10.69,10.69,0,0,1,65.47,63.17Z"/><path class="cls-7" d="M49.32,15.13C60,14.46,69.83,28.9,66.85,41.48a32.54,32.54,0,0,0-.76,10.09l-0.54.17c-2-2.55-6.66-3.18-8.55.65a86.14,86.14,0,0,1-4.66,7.9,9.88,9.88,0,0,0-.83-4.76c-2.82-5.58-.94-7,2.13-15.34s-6.79-7-9.29-16.76C43.38,19.39,38.62,15.8,49.32,15.13Z"/><path class="cls-7" d="M50.75,53.86a37.94,37.94,0,0,1-18.8,20.26S43,73.73,52.33,60.29A5.57,5.57,0,0,0,50.75,53.86Z"/><path class="cls-16" d="M35.52,32.18c-1.63-1.28-4.22-3.56-8.72-2.33-2,.55-2,1.28.1,0.88,3.66-.68,5.15.85,7.75,2.81C35.66,34.29,36.63,33.05,35.52,32.18Z"/><path class="cls-16" d="M45.51,37c2,0.48,5.41,1.09,7.25,5.38,0.83,1.93.27,2.4-.75,0.47-1.75-3.29-3.87-3.5-7-4.32C43.76,38.2,44.13,36.67,45.51,37Z"/><path class="cls-16" d="M46.82,21.15c2.49,9.77,12.36,8.4,9.29,16.76s-5,9.77-2.13,15.34-1.59,17.55-8.15,24.44S37.2,89.46,37.69,96.5s-1.29,11-5.54,15.79-6.64,7.21,7.32,2S56.13,97.94,57,86.7s2.42-9.53,9-19.36,0.32-15.55,3.3-28.12-6.83-27-17.52-26.35S45.85,17.12,46.82,21.15Z"/><path class="cls-17" d="M53.8,15.78c-1.18,5,4.06,9.63,7.19,12.59s4.49,7.1,1.38,11.82S59.75,53.27,61.06,57s-4.73,14.3-9.91,20.1c-4.8,5.37-5.81,16.3-5.91,20.67-0.1,4.67-1.6,9.92-5.16,12.14,4.95-1.38,7.16-6.29,7.51-12.55S47,86.66,53.41,78.45C61.53,68,65.17,64.58,63.35,55.73c-1.43-7-2.06-8.12,1-14.13,3.13-6.17,3.54-9.49-.95-13.93S53.87,21.2,53.8,15.78Z"/><path class="cls-16" d="M47.39,21.43c-9.2,4.13-14.27-4.45-18.9,3.16s-4.56,10-10.68,11.22S5.05,48,3.75,57.39-0.1,71.46-5.92,75.45s-7.83,7.88-8.92,14.16S-16.35,99.3-21,85.13s2.45-23.21,10.7-30.9,6-7.82,9.55-19.1,12-9.92,20-20.08,25.4-11.47,31.53-2.68S51.15,19.68,47.39,21.43Z"/><path class="cls-17" d="M47.26,12.62c-3.2,4.05-10.06,2.81-14.33,2.21s-8.35.91-10.12,6.27S14.2,31.29,10.46,32.6,2.21,45.19.89,52.86C-0.33,60-8.26,67.55-11.62,70.34c-3.59,3-6.77,7.42-6.29,11.59-2-4.73.47-9.52,5.15-13.68S-4,62.06-1.56,51.92C1.53,39.08,2,34.09,10,30c6.37-3.23,7.63-3.44,10.44-9.57,2.88-6.29,5.22-8.67,11.5-7.93S43,15.94,47.26,12.62Z"/></g></svg>