<svg id="Capa_1" data-name="Capa 1" xmlns="http://www.w3.org/2000/svg" xmlns:xlink="http://www.w3.org/1999/xlink" viewBox="0 0 505.2 203.86"><defs><style>.cls-1{fill:none;}.cls-2{fill:#ffe8bb;}.cls-3{fill:#1d1d1b;opacity:0.8;}.cls-4{clip-path:url(#clip-path);}.cls-5{fill:#5b4d8d;}.cls-14,.cls-16,.cls-17,.cls-5,.cls-7{fill-rule:evenodd;}.cls-6{fill:#fdd481;}.cls-7,.cls-8{fill:#f7bb64;}.cls-9{fill:#ec62a0;}.cls-10{fill:#e3589b;}.cls-11{fill:#ec92bd;}.cls-12{fill:#e34d95;}.cls-13{fill:#fff;}.cls-14{fill:#f7b447;}.cls-15{fill:#29233f;}.cls-16{fill:#6e5aa3;}.cls-17{fill:#7867ac;}</style><clipPath id="clip-path"><rect class="cls-1" x="0.2" y="22.67" width="136" height="188.16" transform="translate(136.41 233.5) rotate(-180)"/></clipPath></defs><title>Dialogo</title><path class="cls-2" d="M79.94,73.44L104,88.53v20.92c0,15.54,11,25.92,26.51,25.92H475.44c15.54,0,29.77-10.38,29.77-25.92V30.36C505.2,14.82,491,0,475.44,0H130.51C115,0,104,14.82,104,30.36V56.22Z"/><path class="cls-3" d="M148.54,40.27a6.57,6.57,0,0,1-2.14-1.33,1.06,1.06,0,0,1-.42-0.82,0.91,0.91,0,0,1,.28-0.65,0.89,0.89,0,0,1,.66-0.29,0.83,0.83,0,0,1,.58.22,5.54,5.54,0,0,0,1.65,1.09,5,5,0,0,0,1.93.35,3.75,3.75,0,0,0,2.13-.58,1.71,1.71,0,0,0,.87-1.46,1.88,1.88,0,0,0-.87-1.61,7.78,7.78,0,0,0-2.59-1,6.87,6.87,0,0,1-3.17-1.38,3.33,3.33,0,0,1-1.11-2.66,3.53,3.53,0,0,1,.62-2.07,4,4,0,0,1,1.72-1.37,6.14,6.14,0,0,1,2.48-.48,6.8,6.8,0,0,1,2.34.4,5,5,0,0,1,1.78,1.06,1.15,1.15,0,0,1,.46.86,0.89,0.89,0,0,1-.27.64,0.87,0.87,0,0,1-.65.28,0.66,0.66,0,0,1-.46-0.16,4.16,4.16,0,0,0-1.44-.88,4.82,4.82,0,0,0-1.76-.36,3.66,3.66,0,0,0-2.13.55,1.77,1.77,0,0,0,0,3,7.42,7.42,0,0,0,2.35.88,12.44,12.44,0,0,1,2.55.8,3.59,3.59,0,0,1,1.53,1.28,3.83,3.83,0,0,1,.54,2.14,3.43,3.43,0,0,1-.65,2.06,4.27,4.27,0,0,1-1.77,1.4,6,6,0,0,1-2.46.5A7.48,7.48,0,0,1,148.54,40.27Z"/><path class="cls-3" d="M158.29,28.37A0.83,0.83,0,0,1,158,27.7V27.38a0.79,0.79,0,0,1,.27-0.68,1.39,1.39,0,0,1,.83-0.2,1.25,1.25,0,0,1,.81.21,0.83,0.83,0,0,1,.25.67V27.7a0.81,0.81,0,0,1-.26.68,1.35,1.35,0,0,1-.82.2A1.29,1.29,0,0,1,158.29,28.37Zm1.52,11.83a0.92,0.92,0,0,1-.69.28,0.89,0.89,0,0,1-.67-0.28,1,1,0,0,1-.27-0.68V30.86a0.94,0.94,0,0,1,.27-0.68,0.89,0.89,0,0,1,.67-0.28,0.92,0.92,0,0,1,.69.28,0.94,0.94,0,0,1,.27.68v8.66A1,1,0,0,1,159.81,40.2Z"/><path class="cls-3" d="M177.55,25.95a0.93,0.93,0,0,1,.27.69V39.52a1,1,0,0,1-.27.68,0.92,0.92,0,0,1-.69.28,0.9,0.9,0,0,1-.68-0.27,1,1,0,0,1-.26-0.69V39a4,4,0,0,1-1.41,1.22,4,4,0,0,1-1.95.5,4.48,4.48,0,0,1-2.46-.7,4.9,4.9,0,0,1-1.74-2,6.07,6.07,0,0,1-.64-2.81,6.15,6.15,0,0,1,.63-2.81,4.83,4.83,0,0,1,1.73-2,4.55,4.55,0,0,1,4.38-.26,4.18,4.18,0,0,1,1.46,1.14v-4.7a1,1,0,0,1,.26-0.69,0.9,0.9,0,0,1,.68-0.27A0.93,0.93,0,0,1,177.55,25.95Zm-3.1,12.49a3.24,3.24,0,0,0,1.14-1.32,4.58,4.58,0,0,0,0-3.79A3.22,3.22,0,0,0,174.45,32a3.14,3.14,0,0,0-3.34,0A3.22,3.22,0,0,0,170,33.33a4.59,4.59,0,0,0,0,3.79,3.24,3.24,0,0,0,1.14,1.32A3.14,3.14,0,0,0,174.45,38.44Z"/><path class="cls-3" d="M189.54,35.45a1,1,0,0,1-.66.25h-7A3.48,3.48,0,0,0,182.95,38a3.4,3.4,0,0,0,2.37.88,3.71,3.71,0,0,0,1.56-.28,3.93,3.93,0,0,0,1.06-.72,1.13,1.13,0,0,1,.58-0.18,0.76,0.76,0,0,1,.57.24,0.79,0.79,0,0,1,.23.56,1,1,0,0,1-.4.76,4.72,4.72,0,0,1-1.54,1,5.06,5.06,0,0,1-2,.4,5.8,5.8,0,0,1-2.85-.68,4.73,4.73,0,0,1-1.9-1.9,5.63,5.63,0,0,1-.67-2.76,6.08,6.08,0,0,1,.69-3,5,5,0,0,1,1.82-2,4.69,4.69,0,0,1,4.83,0,5,5,0,0,1,1.8,1.82,5.2,5.2,0,0,1,.7,2.6A0.86,0.86,0,0,1,189.54,35.45ZM183,32.15a3.1,3.1,0,0,0-1.08,2h5.9V33.94a2.44,2.44,0,0,0-1-1.74,3,3,0,0,0-1.93-.68A3.09,3.09,0,0,0,183,32.15Z"/><path class="cls-3" d="M191.26,38.3a0.81,0.81,0,0,1,.42-0.68,0.78,0.78,0,0,1,.46-0.14,0.92,0.92,0,0,1,.66.3,4.21,4.21,0,0,0,1.29,1,3.7,3.7,0,0,0,1.65.34,2.81,2.81,0,0,0,1.34-.35,1.24,1.24,0,0,0,0-2.11,6.72,6.72,0,0,0-1.73-.66,12.78,12.78,0,0,1-1.86-.63,3.33,3.33,0,0,1-1.25-1,2.81,2.81,0,0,1,0-3.23,3.4,3.4,0,0,1,1.36-1.06,4.48,4.48,0,0,1,1.85-.38,5.35,5.35,0,0,1,1.91.36,3.58,3.58,0,0,1,1.55,1.1,0.88,0.88,0,0,1,.24.58,0.86,0.86,0,0,1-.32.62,0.72,0.72,0,0,1-.5.18,0.75,0.75,0,0,1-.58-0.24,2.82,2.82,0,0,0-1-.74,3.4,3.4,0,0,0-1.35-.26,2.51,2.51,0,0,0-1.29.31,1.12,1.12,0,0,0-.53,1,1.16,1.16,0,0,0,.61,1,7.74,7.74,0,0,0,1.81.66,11.2,11.2,0,0,1,1.76.6,3.08,3.08,0,0,1,1.18,1,2.65,2.65,0,0,1,.48,1.65,2.57,2.57,0,0,1-.54,1.63,3.48,3.48,0,0,1-1.41,1.06,4.67,4.67,0,0,1-1.85.37,6.06,6.06,0,0,1-2.33-.44,4.34,4.34,0,0,1-1.81-1.4A1,1,0,0,1,191.26,38.3Z"/><path class="cls-3" d="M210.48,35.45a1,1,0,0,1-.66.25h-7A3.48,3.48,0,0,0,203.89,38a3.4,3.4,0,0,0,2.37.88,3.71,3.71,0,0,0,1.56-.28,3.93,3.93,0,0,0,1.06-.72,1.13,1.13,0,0,1,.58-0.18A0.76,0.76,0,0,1,210,38a0.79,0.79,0,0,1,.23.56,1,1,0,0,1-.4.76,4.72,4.72,0,0,1-1.54,1,5.06,5.06,0,0,1-2,.4,5.8,5.8,0,0,1-2.85-.68,4.73,4.73,0,0,1-1.9-1.9,5.63,5.63,0,0,1-.67-2.76,6.08,6.08,0,0,1,.69-3,5,5,0,0,1,1.82-2,4.69,4.69,0,0,1,4.83,0,5,5,0,0,1,1.8,1.82,5.2,5.2,0,0,1,.7,2.6A0.86,0.86,0,0,1,210.48,35.45Zm-6.54-3.3a3.1,3.1,0,0,0-1.08,2h5.9V33.94a2.44,2.44,0,0,0-1-1.74,3,3,0,0,0-1.93-.68A3.09,3.09,0,0,0,203.94,32.15Z"/><path class="cls-3" d="M222.25,30.13a1,1,0,0,1,.27.71v8.68a1,1,0,0,1-.27.68,0.92,0.92,0,0,1-.69.28,0.9,0.9,0,0,1-.68-0.27,1,1,0,0,1-.26-0.69V39a4.27,4.27,0,0,1-1.42,1.19,4,4,0,0,1-1.94.49,4.53,4.53,0,0,1-2.47-.7A4.8,4.8,0,0,1,213,38a6.58,6.58,0,0,1,0-5.62,4.83,4.83,0,0,1,1.73-2,4.57,4.57,0,0,1,4.39-.26,4.07,4.07,0,0,1,1.45,1.12V30.84a1,1,0,0,1,.26-0.7,0.88,0.88,0,0,1,.68-0.28A0.93,0.93,0,0,1,222.25,30.13Zm-3.1,8.31a3.24,3.24,0,0,0,1.14-1.32,4.28,4.28,0,0,0,.41-1.9,4.23,4.23,0,0,0-.41-1.88A3.32,3.32,0,0,0,219.15,32a2.93,2.93,0,0,0-1.67-.49,3,3,0,0,0-1.67.48,3.24,3.24,0,0,0-1.14,1.32,4.61,4.61,0,0,0,0,3.8,3.24,3.24,0,0,0,1.14,1.32A3.14,3.14,0,0,0,219.15,38.44Z"/><path class="cls-3" d="M224.56,38.3a0.81,0.81,0,0,1,.42-0.68,0.78,0.78,0,0,1,.46-0.14,0.92,0.92,0,0,1,.66.3,4.21,4.21,0,0,0,1.29,1,3.7,3.7,0,0,0,1.65.34,2.81,2.81,0,0,0,1.34-.35,1.24,1.24,0,0,0,0-2.11,6.72,6.72,0,0,0-1.73-.66,12.78,12.78,0,0,1-1.86-.63,3.33,3.33,0,0,1-1.25-1,2.81,2.81,0,0,1,0-3.23,3.4,3.4,0,0,1,1.36-1.06,4.48,4.48,0,0,1,1.85-.38,5.35,5.35,0,0,1,1.91.36,3.58,3.58,0,0,1,1.55,1.1,0.88,0.88,0,0,1,.24.58,0.86,0.86,0,0,1-.32.62,0.72,0.72,0,0,1-.5.18,0.75,0.75,0,0,1-.58-0.24,2.82,2.82,0,0,0-1-.74,3.4,3.4,0,0,0-1.35-.26,2.51,2.51,0,0,0-1.29.31,1.12,1.12,0,0,0-.53,1,1.16,1.16,0,0,0,.61,1,7.74,7.74,0,0,0,1.81.66A11.2,11.2,0,0,1,231,35a3.08,3.08,0,0,1,1.18,1,2.65,2.65,0,0,1,.48,1.65,2.57,2.57,0,0,1-.54,1.63,3.48,3.48,0,0,1-1.41,1.06,4.67,4.67,0,0,1-1.85.37,6.06,6.06,0,0,1-2.33-.44,4.34,4.34,0,0,1-1.81-1.4A1,1,0,0,1,224.56,38.3Z"/><path class="cls-3" d="M247.61,30.26a1.49,1.49,0,0,1,1.05,1.28,0.94,0.94,0,0,1-.22.61,0.69,0.69,0,0,1-.56.27,0.87,0.87,0,0,1-.41-0.08,4.48,4.48,0,0,1-.41-0.26,2.16,2.16,0,0,0-.38-0.28,2.64,2.64,0,0,0-.68-0.2,4.57,4.57,0,0,0-.8-0.08,3.5,3.5,0,0,0-1.84.48,3.26,3.26,0,0,0-1.24,1.33,4,4,0,0,0-.44,1.89,4.11,4.11,0,0,0,.43,1.9,3.26,3.26,0,0,0,1.21,1.32,3.32,3.32,0,0,0,1.78.48,3.76,3.76,0,0,0,1.68-.32,3.86,3.86,0,0,0,.38-0.26,2.41,2.41,0,0,1,.35-0.24,0.79,0.79,0,0,1,.37-0.08,0.82,0.82,0,0,1,.63.25,0.92,0.92,0,0,1,.23.65,1.11,1.11,0,0,1-.53.83,4.26,4.26,0,0,1-1.42.67,6.8,6.8,0,0,1-1.91.26A5,5,0,0,1,242.2,40a4.75,4.75,0,0,1-1.79-2,6.11,6.11,0,0,1-.63-2.79,5.88,5.88,0,0,1,.66-2.79,4.92,4.92,0,0,1,1.84-2,5.14,5.14,0,0,1,2.7-.71A6.11,6.11,0,0,1,247.61,30.26Z"/><path class="cls-3" d="M259.92,38A5.09,5.09,0,0,1,258,40a5.44,5.44,0,0,1-5.34,0A5.09,5.09,0,0,1,250.76,38a5.6,5.6,0,0,1-.7-2.8,5.71,5.71,0,0,1,.7-2.82,5,5,0,0,1,1.91-2,5.44,5.44,0,0,1,5.34,0,5.05,5.05,0,0,1,1.91,2,5.71,5.71,0,0,1,.7,2.82A5.6,5.6,0,0,1,259.92,38Zm-1.65-4.73A3.35,3.35,0,0,0,257,32a3.35,3.35,0,0,0-3.42,0,3.34,3.34,0,0,0-1.22,1.32,4.07,4.07,0,0,0-.45,1.93,4,4,0,0,0,.45,1.9,3.35,3.35,0,0,0,1.22,1.31,3.35,3.35,0,0,0,3.42,0,3.36,3.36,0,0,0,1.22-1.31,4,4,0,0,0,.45-1.9A4.07,4.07,0,0,0,258.27,33.31Z"/><path class="cls-3" d="M271.76,34.08v5.44a1,1,0,0,1-.27.68,0.92,0.92,0,0,1-.69.28,0.89,0.89,0,0,1-.67-0.28,1,1,0,0,1-.27-0.68V34.1a3,3,0,0,0-.54-1.88,2.08,2.08,0,0,0-1.76-.7,3,3,0,0,0-1.45.35,2.67,2.67,0,0,0-1,.94,2.38,2.38,0,0,0-.37,1.29v5.42a1,1,0,0,1-.27.68,0.92,0.92,0,0,1-.69.28,0.9,0.9,0,0,1-.68-0.27,1,1,0,0,1-.26-0.69V31a1,1,0,0,1,.27-0.68,0.89,0.89,0,0,1,.67-0.28,0.92,0.92,0,0,1,.69.28,1,1,0,0,1,.27.68v0.7a4.31,4.31,0,0,1,1.45-1.35,3.85,3.85,0,0,1,2-.55Q271.76,29.76,271.76,34.08Z"/><path class="cls-3" d="M283.82,38A5.09,5.09,0,0,1,281.91,40a5.44,5.44,0,0,1-5.34,0A5.09,5.09,0,0,1,274.66,38a5.6,5.6,0,0,1-.7-2.8,5.71,5.71,0,0,1,.7-2.82,5,5,0,0,1,1.91-2,5.44,5.44,0,0,1,5.34,0,5.05,5.05,0,0,1,1.91,2,5.71,5.71,0,0,1,.7,2.82A5.6,5.6,0,0,1,283.82,38Zm-1.65-4.73A3.35,3.35,0,0,0,280.95,32a3.35,3.35,0,0,0-3.42,0,3.34,3.34,0,0,0-1.22,1.32,4.07,4.07,0,0,0-.45,1.93,4,4,0,0,0,.45,1.9,3.35,3.35,0,0,0,1.22,1.31,3.35,3.35,0,0,0,3.42,0,3.36,3.36,0,0,0,1.22-1.31,4,4,0,0,0,.45-1.9A4.07,4.07,0,0,0,282.17,33.31Z"/><path class="cls-3" d="M293.91,30.26A1.49,1.49,0,0,1,295,31.54a0.94,0.94,0,0,1-.22.61,0.69,0.69,0,0,1-.56.27,0.87,0.87,0,0,1-.41-0.08,4.48,4.48,0,0,1-.41-0.26A2.16,2.16,0,0,0,293,31.8a2.64,2.64,0,0,0-.68-0.2,4.57,4.57,0,0,0-.8-0.08,3.5,3.5,0,0,0-1.84.48,3.26,3.26,0,0,0-1.24,1.33,4,4,0,0,0-.44,1.89,4.11,4.11,0,0,0,.43,1.9,3.26,3.26,0,0,0,1.21,1.32,3.32,3.32,0,0,0,1.78.48,3.76,3.76,0,0,0,1.68-.32,3.86,3.86,0,0,0,.38-0.26,2.41,2.41,0,0,1,.35-0.24,0.79,0.79,0,0,1,.37-0.08,0.82,0.82,0,0,1,.63.25,0.92,0.92,0,0,1,.23.65,1.11,1.11,0,0,1-.53.83,4.26,4.26,0,0,1-1.42.67,6.8,6.8,0,0,1-1.91.26A5,5,0,0,1,288.5,40a4.75,4.75,0,0,1-1.79-2,6.11,6.11,0,0,1-.63-2.79,5.88,5.88,0,0,1,.66-2.79,4.92,4.92,0,0,1,1.84-2,5.14,5.14,0,0,1,2.7-.71A6.11,6.11,0,0,1,293.91,30.26Z"/><path class="cls-3" d="M305.9,35.45a1,1,0,0,1-.66.25h-7A3.48,3.48,0,0,0,299.31,38a3.4,3.4,0,0,0,2.37.88,3.71,3.71,0,0,0,1.56-.28,3.93,3.93,0,0,0,1.06-.72,1.13,1.13,0,0,1,.58-0.18,0.76,0.76,0,0,1,.57.24,0.79,0.79,0,0,1,.23.56,1,1,0,0,1-.4.76,4.72,4.72,0,0,1-1.54,1,5.06,5.06,0,0,1-2,.4,5.8,5.8,0,0,1-2.85-.68,4.73,4.73,0,0,1-1.9-1.9,5.63,5.63,0,0,1-.67-2.76,6.08,6.08,0,0,1,.69-3,5,5,0,0,1,1.82-2,4.69,4.69,0,0,1,4.83,0,5,5,0,0,1,1.8,1.82,5.2,5.2,0,0,1,.7,2.6A0.86,0.86,0,0,1,305.9,35.45Zm-6.54-3.3a3.1,3.1,0,0,0-1.08,2h5.9V33.94a2.44,2.44,0,0,0-1-1.74,3,3,0,0,0-1.93-.68A3.09,3.09,0,0,0,299.36,32.15Z"/><path class="cls-3" d="M314.52,30a0.8,0.8,0,0,1,.38.67,1,1,0,0,1-.25.73,0.83,0.83,0,0,1-.61.25,1.9,1.9,0,0,1-.54-0.12,2.26,2.26,0,0,0-.66-0.14,2,2,0,0,0-1.21.43,3.15,3.15,0,0,0-1,1.18,3.73,3.73,0,0,0-.37,1.67v4.82a1,1,0,0,1-.27.68,0.92,0.92,0,0,1-.69.28,0.9,0.9,0,0,1-.68-0.27,1,1,0,0,1-.26-0.69V31a1,1,0,0,1,.27-0.68,0.89,0.89,0,0,1,.67-0.28,0.92,0.92,0,0,1,.69.28,1,1,0,0,1,.27.68v1a3.79,3.79,0,0,1,1.32-1.59,3.55,3.55,0,0,1,2-.63A1.52,1.52,0,0,1,314.52,30Z"/><path class="cls-3" d="M337.72,34.18v5.34a1,1,0,0,1-.26.69,0.9,0.9,0,0,1-.68.27,0.92,0.92,0,0,1-.69-0.28,1,1,0,0,1-.27-0.68V34.2q0-2.62-2.2-2.62a2.85,2.85,0,0,0-1.41.35,2.53,2.53,0,0,0-1,1,2.57,2.57,0,0,0-.35,1.32v5.32a1,1,0,0,1-.27.68,0.92,0.92,0,0,1-.69.28,0.9,0.9,0,0,1-.68-0.27,1,1,0,0,1-.26-0.69V34.18a3.22,3.22,0,0,0-.5-1.89,1.89,1.89,0,0,0-1.66-.71,2.68,2.68,0,0,0-2,.75,2.48,2.48,0,0,0-.77,1.85v5.34a1,1,0,0,1-.27.68,0.92,0.92,0,0,1-.69.28,0.9,0.9,0,0,1-.68-0.27,1,1,0,0,1-.26-0.69V31a1,1,0,0,1,.27-0.68,0.89,0.89,0,0,1,.67-0.28,0.92,0.92,0,0,1,.69.28,1,1,0,0,1,.27.68v0.7a4.37,4.37,0,0,1,1.39-1.31,3.57,3.57,0,0,1,1.89-.53A3.07,3.07,0,0,1,330.6,32a4.25,4.25,0,0,1,1.46-1.52,3.83,3.83,0,0,1,2.16-.68Q337.72,29.82,337.72,34.18Z"/><path class="cls-3" d="M349.75,30.13a1,1,0,0,1,.27.71v8.68a1,1,0,0,1-.27.68,0.92,0.92,0,0,1-.69.28,0.9,0.9,0,0,1-.68-0.27,1,1,0,0,1-.26-0.69V39a4.27,4.27,0,0,1-1.42,1.19,4,4,0,0,1-1.94.49,4.53,4.53,0,0,1-2.47-.7,4.8,4.8,0,0,1-1.74-2,6.58,6.58,0,0,1,0-5.62,4.83,4.83,0,0,1,1.73-2,4.57,4.57,0,0,1,4.39-.26,4.07,4.07,0,0,1,1.45,1.12V30.84a1,1,0,0,1,.26-0.7,0.88,0.88,0,0,1,.68-0.28A0.93,0.93,0,0,1,349.75,30.13Zm-3.1,8.31a3.24,3.24,0,0,0,1.14-1.32,4.28,4.28,0,0,0,.41-1.9,4.23,4.23,0,0,0-.41-1.88A3.32,3.32,0,0,0,346.65,32a2.93,2.93,0,0,0-1.67-.49,3,3,0,0,0-1.67.48,3.24,3.24,0,0,0-1.14,1.32,4.61,4.61,0,0,0,0,3.8,3.24,3.24,0,0,0,1.14,1.32A3.14,3.14,0,0,0,346.65,38.44Zm-1.95-9.32a0.41,0.41,0,0,1-.16-0.38,0.71,0.71,0,0,1,.12-0.36l1.18-2a1.55,1.55,0,0,1,.39-0.46,0.84,0.84,0,0,1,.53-0.18,0.91,0.91,0,0,1,.67.23,0.77,0.77,0,0,1,.21.61,1.05,1.05,0,0,1-.3.7l-1.5,1.64a1.08,1.08,0,0,1-.8.32A0.57,0.57,0,0,1,344.7,29.12Z"/><path class="cls-3" d="M352.06,38.3a0.81,0.81,0,0,1,.42-0.68,0.78,0.78,0,0,1,.46-0.14,0.92,0.92,0,0,1,.66.3,4.21,4.21,0,0,0,1.29,1,3.7,3.7,0,0,0,1.65.34,2.81,2.81,0,0,0,1.34-.35,1.24,1.24,0,0,0,0-2.11,6.72,6.72,0,0,0-1.73-.66,12.78,12.78,0,0,1-1.86-.63,3.33,3.33,0,0,1-1.25-1,2.81,2.81,0,0,1,0-3.23,3.4,3.4,0,0,1,1.36-1.06,4.48,4.48,0,0,1,1.85-.38,5.35,5.35,0,0,1,1.91.36,3.58,3.58,0,0,1,1.55,1.1,0.88,0.88,0,0,1,.24.58,0.86,0.86,0,0,1-.32.62,0.72,0.72,0,0,1-.5.18,0.75,0.75,0,0,1-.58-0.24,2.82,2.82,0,0,0-1-.74,3.4,3.4,0,0,0-1.35-.26,2.51,2.51,0,0,0-1.29.31,1.12,1.12,0,0,0-.53,1,1.16,1.16,0,0,0,.61,1,7.74,7.74,0,0,0,1.81.66,11.2,11.2,0,0,1,1.76.6,3.08,3.08,0,0,1,1.18,1,2.65,2.65,0,0,1,.48,1.65,2.57,2.57,0,0,1-.54,1.63,3.48,3.48,0,0,1-1.41,1.06,4.67,4.67,0,0,1-1.85.37,6.06,6.06,0,0,1-2.33-.44,4.34,4.34,0,0,1-1.81-1.4A1,1,0,0,1,352.06,38.3Z"/><path class="cls-3" d="M367.14,38.3a0.81,0.81,0,0,1,.42-0.68,0.78,0.78,0,0,1,.46-0.14,0.92,0.92,0,0,1,.66.3,4.21,4.21,0,0,0,1.29,1,3.7,3.7,0,0,0,1.65.34,2.81,2.81,0,0,0,1.34-.35,1.24,1.24,0,0,0,0-2.11,6.72,6.72,0,0,0-1.73-.66,12.78,12.78,0,0,1-1.86-.63,3.33,3.33,0,0,1-1.25-1,2.81,2.81,0,0,1,0-3.23,3.4,3.4,0,0,1,1.36-1.06,4.48,4.48,0,0,1,1.85-.38,5.35,5.35,0,0,1,1.91.36,3.58,3.58,0,0,1,1.55,1.1,0.88,0.88,0,0,1,.24.58,0.86,0.86,0,0,1-.32.62,0.72,0.72,0,0,1-.5.18,0.75,0.75,0,0,1-.58-0.24,2.82,2.82,0,0,0-1-.74,3.4,3.4,0,0,0-1.35-.26,2.51,2.51,0,0,0-1.29.31,1.12,1.12,0,0,0-.53,1,1.16,1.16,0,0,0,.61,1,7.74,7.74,0,0,0,1.81.66,11.2,11.2,0,0,1,1.76.6,3.08,3.08,0,0,1,1.18,1,2.65,2.65,0,0,1,.48,1.65,2.57,2.57,0,0,1-.54,1.63,3.48,3.48,0,0,1-1.41,1.06,4.67,4.67,0,0,1-1.85.37,6.06,6.06,0,0,1-2.33-.44,4.34,4.34,0,0,1-1.81-1.4A1,1,0,0,1,367.14,38.3Z"/><path class="cls-3" d="M386.68,38A5.09,5.09,0,0,1,384.77,40a5.44,5.44,0,0,1-5.34,0A5.09,5.09,0,0,1,377.52,38a5.6,5.6,0,0,1-.7-2.8,5.71,5.71,0,0,1,.7-2.82,5,5,0,0,1,1.91-2,5.44,5.44,0,0,1,5.34,0,5.05,5.05,0,0,1,1.91,2,5.71,5.71,0,0,1,.7,2.82A5.6,5.6,0,0,1,386.68,38ZM385,33.31A3.35,3.35,0,0,0,383.81,32a3.35,3.35,0,0,0-3.42,0,3.34,3.34,0,0,0-1.22,1.32,4.07,4.07,0,0,0-.45,1.93,4,4,0,0,0,.45,1.9,3.35,3.35,0,0,0,1.22,1.31,3.35,3.35,0,0,0,3.42,0A3.36,3.36,0,0,0,385,37.14a4,4,0,0,0,.45-1.9A4.07,4.07,0,0,0,385,33.31Z"/><path class="cls-3" d="M397.3,30.46A4.85,4.85,0,0,1,399,32.4a6.1,6.1,0,0,1,.63,2.8A6.22,6.22,0,0,1,399,38a4.82,4.82,0,0,1-1.73,2,4.42,4.42,0,0,1-2.42.7,4.2,4.2,0,0,1-1.94-.46,4.53,4.53,0,0,1-1.46-1.14v0.58a0.94,0.94,0,0,1-.27.68,1,1,0,0,1-1.36,0,0.93,0.93,0,0,1-.27-0.69v-13a1,1,0,0,1,.26-0.69,0.9,0.9,0,0,1,.68-0.27,0.92,0.92,0,0,1,.69.28,0.94,0.94,0,0,1,.27.68v4.88a4,4,0,0,1,1.4-1.24,3.93,3.93,0,0,1,2-.52A4.49,4.49,0,0,1,397.3,30.46Zm-1,8a3.27,3.27,0,0,0,1.15-1.34,4.3,4.3,0,0,0,.41-1.89,4.24,4.24,0,0,0-.41-1.88A3.22,3.22,0,0,0,396.28,32a3,3,0,0,0-1.66-.48,3,3,0,0,0-1.68.48,3.23,3.23,0,0,0-1.15,1.31,4.21,4.21,0,0,0-.41,1.89,4.27,4.27,0,0,0,.41,1.9,3.28,3.28,0,0,0,1.15,1.33,3,3,0,0,0,1.68.49A2.94,2.94,0,0,0,396.28,38.43Z"/><path class="cls-3" d="M408,30a0.8,0.8,0,0,1,.38.67,1,1,0,0,1-.25.73,0.83,0.83,0,0,1-.61.25,1.9,1.9,0,0,1-.54-0.12,2.26,2.26,0,0,0-.66-0.14,2,2,0,0,0-1.21.43,3.15,3.15,0,0,0-1,1.18,3.73,3.73,0,0,0-.37,1.67v4.82a1,1,0,0,1-.27.68,0.92,0.92,0,0,1-.69.28,0.9,0.9,0,0,1-.68-0.27,1,1,0,0,1-.26-0.69V31a1,1,0,0,1,.27-0.68A0.89,0.89,0,0,1,402.8,30a0.92,0.92,0,0,1,.69.28,1,1,0,0,1,.27.68v1a3.79,3.79,0,0,1,1.32-1.59,3.55,3.55,0,0,1,2-.63A1.52,1.52,0,0,1,408,30Z"/><path class="cls-3" d="M418.58,35.45a1,1,0,0,1-.66.25h-7A3.48,3.48,0,0,0,412,38a3.4,3.4,0,0,0,2.37.88,3.71,3.71,0,0,0,1.56-.28,3.93,3.93,0,0,0,1.06-.72,1.13,1.13,0,0,1,.58-0.18,0.76,0.76,0,0,1,.57.24,0.79,0.79,0,0,1,.23.56,1,1,0,0,1-.4.76,4.72,4.72,0,0,1-1.54,1,5.06,5.06,0,0,1-2,.4,5.8,5.8,0,0,1-2.85-.68,4.73,4.73,0,0,1-1.9-1.9,5.63,5.63,0,0,1-.67-2.76,6.08,6.08,0,0,1,.69-3,5,5,0,0,1,1.82-2,4.69,4.69,0,0,1,4.83,0,5,5,0,0,1,1.8,1.82,5.2,5.2,0,0,1,.7,2.6A0.86,0.86,0,0,1,418.58,35.45ZM412,32.15a3.1,3.1,0,0,0-1.08,2h5.9V33.94a2.44,2.44,0,0,0-1-1.74,3,3,0,0,0-1.93-.68A3.09,3.09,0,0,0,412,32.15Z"/><path class="cls-3" d="M428.4,40.2a0.93,0.93,0,0,1-.68.28A0.89,0.89,0,0,1,427,40.2a1,1,0,0,1-.27-0.68V26.64a1,1,0,0,1,1-1,0.89,0.89,0,0,1,.67.28,0.94,0.94,0,0,1,.27.68V39.52A0.93,0.93,0,0,1,428.4,40.2Z"/><path class="cls-3" d="M440.87,30.13a1,1,0,0,1,.27.71v8.68a1,1,0,0,1-.27.68,0.92,0.92,0,0,1-.69.28,0.9,0.9,0,0,1-.68-0.27,1,1,0,0,1-.26-0.69V39a4.28,4.28,0,0,1-1.42,1.19,4,4,0,0,1-1.94.49,4.53,4.53,0,0,1-2.47-.7,4.8,4.8,0,0,1-1.74-2,6.58,6.58,0,0,1,0-5.62,4.82,4.82,0,0,1,1.73-2,4.42,4.42,0,0,1,2.42-.7,4.46,4.46,0,0,1,2,.44,4.08,4.08,0,0,1,1.45,1.12V30.84a1,1,0,0,1,.26-0.7,0.88,0.88,0,0,1,.68-0.28A0.94,0.94,0,0,1,440.87,30.13Zm-3.1,8.31a3.25,3.25,0,0,0,1.14-1.32,4.29,4.29,0,0,0,.41-1.9,4.24,4.24,0,0,0-.41-1.88A3.32,3.32,0,0,0,437.76,32a2.93,2.93,0,0,0-1.67-.49,3,3,0,0,0-1.67.48,3.24,3.24,0,0,0-1.14,1.32,4.61,4.61,0,0,0,0,3.8,3.24,3.24,0,0,0,1.14,1.32A3.14,3.14,0,0,0,437.76,38.44Z"/><path class="cls-3" d="M155.83,49.95a0.93,0.93,0,0,1,.27.69V63.52a1,1,0,0,1-.27.68,0.92,0.92,0,0,1-.69.28,0.9,0.9,0,0,1-.68-0.27,1,1,0,0,1-.26-0.69V63a4,4,0,0,1-1.41,1.22,4,4,0,0,1-1.95.5,4.48,4.48,0,0,1-2.46-.7,4.9,4.9,0,0,1-1.74-2,6.07,6.07,0,0,1-.64-2.81,6.15,6.15,0,0,1,.63-2.81,4.83,4.83,0,0,1,1.73-2,4.55,4.55,0,0,1,4.38-.26,4.18,4.18,0,0,1,1.46,1.14v-4.7a1,1,0,0,1,.26-0.69,0.9,0.9,0,0,1,.68-0.27A0.93,0.93,0,0,1,155.83,49.95Zm-3.1,12.49a3.24,3.24,0,0,0,1.14-1.32,4.58,4.58,0,0,0,0-3.79A3.22,3.22,0,0,0,152.73,56a3.14,3.14,0,0,0-3.34,0,3.22,3.22,0,0,0-1.14,1.33,4.59,4.59,0,0,0,0,3.79,3.24,3.24,0,0,0,1.14,1.32A3.14,3.14,0,0,0,152.73,62.44Z"/><path class="cls-3" d="M167.82,59.45a1,1,0,0,1-.66.25h-7A3.48,3.48,0,0,0,161.23,62a3.4,3.4,0,0,0,2.37.88,3.71,3.71,0,0,0,1.56-.28,3.93,3.93,0,0,0,1.06-.72,1.13,1.13,0,0,1,.58-0.18,0.76,0.76,0,0,1,.57.24,0.79,0.79,0,0,1,.23.56,1,1,0,0,1-.4.76,4.72,4.72,0,0,1-1.54,1,5.06,5.06,0,0,1-2,.4,5.8,5.8,0,0,1-2.85-.68,4.73,4.73,0,0,1-1.9-1.9,5.63,5.63,0,0,1-.67-2.76,6.08,6.08,0,0,1,.69-3,5,5,0,0,1,1.82-2,4.69,4.69,0,0,1,4.83,0,5,5,0,0,1,1.8,1.82,5.2,5.2,0,0,1,.7,2.6A0.86,0.86,0,0,1,167.82,59.45Zm-6.54-3.3a3.1,3.1,0,0,0-1.08,2h5.9V57.94a2.44,2.44,0,0,0-1-1.74,3,3,0,0,0-1.93-.68A3.09,3.09,0,0,0,161.28,56.15Z"/><path class="cls-3" d="M173.83,51.8a1.55,1.55,0,0,0-.31,1v1.4h2a0.88,0.88,0,0,1,.65.25,0.86,0.86,0,0,1,.25.63,0.82,0.82,0,0,1-.25.62,0.9,0.9,0,0,1-.65.24h-2v7.6a1,1,0,0,1-.27.68,0.92,0.92,0,0,1-.69.28,0.89,0.89,0,0,1-.67-0.28,1,1,0,0,1-.27-0.68v-7.6h-1.24a0.91,0.91,0,0,1-.64-0.24,0.8,0.8,0,0,1-.26-0.62,0.84,0.84,0,0,1,.26-0.63,0.89,0.89,0,0,1,.64-0.25h1.24v-1.4a2.89,2.89,0,0,1,.9-2.23,3.61,3.61,0,0,1,2.54-.83,2.73,2.73,0,0,1,1.2.25,0.8,0.8,0,0,1,.52.75,0.89,0.89,0,0,1-.23.63,0.72,0.72,0,0,1-.55.25,3.06,3.06,0,0,1-.44-0.08,3,3,0,0,0-.76-0.12A1.15,1.15,0,0,0,173.83,51.8Zm4.3,0.57a0.83,0.83,0,0,1-.25-0.67V51.38a0.79,0.79,0,0,1,.27-0.68,1.39,1.39,0,0,1,.83-0.2,1.25,1.25,0,0,1,.81.21,0.83,0.83,0,0,1,.25.67V51.7a0.81,0.81,0,0,1-.26.68,1.35,1.35,0,0,1-.82.2A1.3,1.3,0,0,1,178.13,52.37Zm1.52,11.83a0.92,0.92,0,0,1-.69.28,0.89,0.89,0,0,1-.67-0.28,1,1,0,0,1-.27-0.68V54.86a0.94,0.94,0,0,1,.27-0.68A0.89,0.89,0,0,1,179,53.9a0.92,0.92,0,0,1,.69.28,0.94,0.94,0,0,1,.27.68v8.66A1,1,0,0,1,179.65,64.2Z"/><path class="cls-3" d="M191.6,58.08v5.44a1,1,0,0,1-.27.68,0.92,0.92,0,0,1-.69.28A0.89,0.89,0,0,1,190,64.2a1,1,0,0,1-.27-0.68V58.1a3,3,0,0,0-.54-1.88,2.08,2.08,0,0,0-1.76-.7,3,3,0,0,0-1.45.35,2.67,2.67,0,0,0-1,.94,2.38,2.38,0,0,0-.37,1.29v5.42a1,1,0,0,1-.27.68,0.92,0.92,0,0,1-.69.28,0.9,0.9,0,0,1-.68-0.27,1,1,0,0,1-.26-0.69V55a1,1,0,0,1,.27-0.68A0.89,0.89,0,0,1,183.6,54a0.92,0.92,0,0,1,.69.28,1,1,0,0,1,.27.68v0.7A4.31,4.31,0,0,1,186,54.31a3.85,3.85,0,0,1,2-.55Q191.6,53.76,191.6,58.08Z"/><path class="cls-3" d="M194.45,52.37a0.83,0.83,0,0,1-.25-0.67V51.38a0.79,0.79,0,0,1,.27-0.68,1.39,1.39,0,0,1,.83-0.2,1.25,1.25,0,0,1,.81.21,0.83,0.83,0,0,1,.25.67V51.7a0.81,0.81,0,0,1-.26.68,1.35,1.35,0,0,1-.82.2A1.29,1.29,0,0,1,194.45,52.37ZM196,64.2a0.92,0.92,0,0,1-.69.28,0.89,0.89,0,0,1-.67-0.28,1,1,0,0,1-.27-0.68V54.86a0.94,0.94,0,0,1,.27-0.68,0.89,0.89,0,0,1,.67-0.28,0.92,0.92,0,0,1,.69.28,0.94,0.94,0,0,1,.27.68v8.66A1,1,0,0,1,196,64.2Z"/><path class="cls-3" d="M206.17,54.26a1.49,1.49,0,0,1,1.05,1.28,0.94,0.94,0,0,1-.22.61,0.69,0.69,0,0,1-.56.27,0.87,0.87,0,0,1-.41-0.08,4.48,4.48,0,0,1-.41-0.26,2.16,2.16,0,0,0-.38-0.28,2.64,2.64,0,0,0-.68-0.2,4.57,4.57,0,0,0-.8-0.08,3.5,3.5,0,0,0-1.84.48,3.26,3.26,0,0,0-1.24,1.33,4,4,0,0,0-.44,1.89,4.11,4.11,0,0,0,.43,1.9,3.26,3.26,0,0,0,1.21,1.32,3.32,3.32,0,0,0,1.78.48,3.76,3.76,0,0,0,1.68-.32,3.86,3.86,0,0,0,.38-0.26,2.41,2.41,0,0,1,.35-0.24,0.79,0.79,0,0,1,.37-0.08,0.82,0.82,0,0,1,.63.25,0.92,0.92,0,0,1,.23.65,1.11,1.11,0,0,1-.53.83,4.26,4.26,0,0,1-1.42.67,6.8,6.8,0,0,1-1.91.26,5,5,0,0,1-2.68-.71A4.75,4.75,0,0,1,199,62a6.11,6.11,0,0,1-.63-2.79,5.88,5.88,0,0,1,.66-2.79,4.92,4.92,0,0,1,1.84-2,5.14,5.14,0,0,1,2.7-.71A6.11,6.11,0,0,1,206.17,54.26Z"/><path class="cls-3" d="M209.27,52.37A0.83,0.83,0,0,1,209,51.7V51.38a0.79,0.79,0,0,1,.27-0.68,1.39,1.39,0,0,1,.83-0.2,1.25,1.25,0,0,1,.81.21,0.83,0.83,0,0,1,.25.67V51.7a0.81,0.81,0,0,1-.26.68,1.35,1.35,0,0,1-.82.2A1.29,1.29,0,0,1,209.27,52.37Zm1.52,11.83a0.92,0.92,0,0,1-.69.28,0.89,0.89,0,0,1-.67-0.28,1,1,0,0,1-.27-0.68V54.86a0.94,0.94,0,0,1,.27-0.68,0.89,0.89,0,0,1,.67-0.28,0.92,0.92,0,0,1,.69.28,0.94,0.94,0,0,1,.27.68v8.66A1,1,0,0,1,210.79,64.2Z"/><path class="cls-3" d="M223,62A5.09,5.09,0,0,1,221.11,64a5.44,5.44,0,0,1-5.34,0A5.09,5.09,0,0,1,213.86,62a5.6,5.6,0,0,1-.7-2.8,5.71,5.71,0,0,1,.7-2.82,5,5,0,0,1,1.91-2,5.44,5.44,0,0,1,5.34,0,5.05,5.05,0,0,1,1.91,2,5.71,5.71,0,0,1,.7,2.82A5.6,5.6,0,0,1,223,62Zm-1.65-4.73A3.35,3.35,0,0,0,220.15,56a3.35,3.35,0,0,0-3.42,0,3.34,3.34,0,0,0-1.22,1.32,4.07,4.07,0,0,0-.45,1.93,4,4,0,0,0,.45,1.9,3.35,3.35,0,0,0,1.22,1.31,3.35,3.35,0,0,0,3.42,0,3.36,3.36,0,0,0,1.22-1.31,4,4,0,0,0,.45-1.9A4.07,4.07,0,0,0,221.37,57.31ZM218,53.06a0.41,0.41,0,0,1-.16-0.38,0.72,0.72,0,0,1,.12-0.36l1.18-2a1.56,1.56,0,0,1,.39-0.46,0.84,0.84,0,0,1,.53-0.18,0.91,0.91,0,0,1,.67.23,0.77,0.77,0,0,1,.21.61,1.05,1.05,0,0,1-.3.7l-1.5,1.64a1.09,1.09,0,0,1-.8.32A0.56,0.56,0,0,1,218,53.06Z"/><path class="cls-3" d="M234.86,58.08v5.44a1,1,0,0,1-.27.68,0.92,0.92,0,0,1-.69.28,0.89,0.89,0,0,1-.67-0.28,1,1,0,0,1-.27-0.68V58.1a3,3,0,0,0-.54-1.88,2.08,2.08,0,0,0-1.76-.7,3,3,0,0,0-1.45.35,2.67,2.67,0,0,0-1,.94,2.38,2.38,0,0,0-.37,1.29v5.42a1,1,0,0,1-.27.68,0.92,0.92,0,0,1-.69.28,0.9,0.9,0,0,1-.68-0.27,1,1,0,0,1-.26-0.69V55a1,1,0,0,1,.27-0.68,0.89,0.89,0,0,1,.67-0.28,0.92,0.92,0,0,1,.69.28,1,1,0,0,1,.27.68v0.7a4.31,4.31,0,0,1,1.45-1.35,3.85,3.85,0,0,1,2-.55Q234.86,53.76,234.86,58.08Z"/><path class="cls-3" d="M252.43,49.95a0.93,0.93,0,0,1,.27.69V63.52a1,1,0,0,1-.27.68,0.92,0.92,0,0,1-.69.28,0.9,0.9,0,0,1-.68-0.27,1,1,0,0,1-.26-0.69V63a4,4,0,0,1-1.41,1.22,4,4,0,0,1-1.95.5A4.48,4.48,0,0,1,245,64a4.9,4.9,0,0,1-1.74-2,6.07,6.07,0,0,1-.64-2.81,6.15,6.15,0,0,1,.63-2.81,4.83,4.83,0,0,1,1.73-2,4.55,4.55,0,0,1,4.38-.26,4.18,4.18,0,0,1,1.46,1.14v-4.7a1,1,0,0,1,.26-0.69,0.9,0.9,0,0,1,.68-0.27A0.93,0.93,0,0,1,252.43,49.95Zm-3.1,12.49a3.24,3.24,0,0,0,1.14-1.32,4.58,4.58,0,0,0,0-3.79A3.22,3.22,0,0,0,249.33,56,3.14,3.14,0,0,0,246,56a3.22,3.22,0,0,0-1.14,1.33,4.59,4.59,0,0,0,0,3.79A3.24,3.24,0,0,0,246,62.44,3.14,3.14,0,0,0,249.33,62.44Z"/><path class="cls-3" d="M264.42,59.45a1,1,0,0,1-.66.25h-7A3.48,3.48,0,0,0,257.83,62a3.4,3.4,0,0,0,2.37.88,3.71,3.71,0,0,0,1.56-.28,3.93,3.93,0,0,0,1.06-.72,1.13,1.13,0,0,1,.58-0.18A0.76,0.76,0,0,1,264,62a0.79,0.79,0,0,1,.23.56,1,1,0,0,1-.4.76,4.72,4.72,0,0,1-1.54,1,5.06,5.06,0,0,1-2,.4,5.8,5.8,0,0,1-2.85-.68,4.73,4.73,0,0,1-1.9-1.9,5.63,5.63,0,0,1-.67-2.76,6.08,6.08,0,0,1,.69-3,5,5,0,0,1,1.82-2,4.69,4.69,0,0,1,4.83,0,5,5,0,0,1,1.8,1.82,5.2,5.2,0,0,1,.7,2.6A0.86,0.86,0,0,1,264.42,59.45Zm-6.54-3.3a3.1,3.1,0,0,0-1.08,2h5.9V57.94a2.44,2.44,0,0,0-1-1.74,3,3,0,0,0-1.93-.68A3.09,3.09,0,0,0,257.88,56.15Z"/><path class="cls-3" d="M280.18,54.51a4.78,4.78,0,0,1,1.73,1.93,6.1,6.1,0,0,1,.63,2.8,6,6,0,0,1-.63,2.79A4.86,4.86,0,0,1,280.18,64a4.42,4.42,0,0,1-2.42.7,4.21,4.21,0,0,1-1.94-.46,4.68,4.68,0,0,1-1.46-1.12v4.44a1,1,0,0,1-.27.68,1,1,0,0,1-1.36,0,0.94,0.94,0,0,1-.27-0.69V54.94a1,1,0,0,1,.26-0.7A0.88,0.88,0,0,1,273.4,54a0.92,0.92,0,0,1,.69.28,1,1,0,0,1,.27.7v0.58a3.93,3.93,0,0,1,1.4-1.2,4,4,0,0,1,2-.5A4.54,4.54,0,0,1,280.18,54.51Zm-1,7.91a3.23,3.23,0,0,0,1.15-1.31,4.47,4.47,0,0,0,0-3.74,3.23,3.23,0,0,0-1.15-1.31,3,3,0,0,0-1.66-.48,3.06,3.06,0,0,0-1.68.47,3.15,3.15,0,0,0-1.15,1.31,4.52,4.52,0,0,0,0,3.76,3.15,3.15,0,0,0,1.15,1.31,3.06,3.06,0,0,0,1.68.47A3,3,0,0,0,279.16,62.42Z"/><path class="cls-3" d="M293.93,54.13a1,1,0,0,1,.27.71v8.68a1,1,0,0,1-.27.68,0.92,0.92,0,0,1-.69.28,0.9,0.9,0,0,1-.68-0.27,1,1,0,0,1-.26-0.69V63a4.27,4.27,0,0,1-1.42,1.19,4,4,0,0,1-1.94.49,4.53,4.53,0,0,1-2.47-.7,4.8,4.8,0,0,1-1.74-2,6.58,6.58,0,0,1,0-5.62,4.83,4.83,0,0,1,1.73-2,4.57,4.57,0,0,1,4.39-.26,4.07,4.07,0,0,1,1.45,1.12V54.84a1,1,0,0,1,.26-0.7,0.88,0.88,0,0,1,.68-0.28A0.93,0.93,0,0,1,293.93,54.13Zm-3.1,8.31A3.24,3.24,0,0,0,292,61.12a4.28,4.28,0,0,0,.41-1.9,4.23,4.23,0,0,0-.41-1.88A3.32,3.32,0,0,0,290.83,56a2.93,2.93,0,0,0-1.67-.49,3,3,0,0,0-1.67.48,3.24,3.24,0,0,0-1.14,1.32,4.61,4.61,0,0,0,0,3.8,3.24,3.24,0,0,0,1.14,1.32A3.14,3.14,0,0,0,290.83,62.44Z"/><path class="cls-3" d="M304.3,63a0.89,0.89,0,0,1,0,1.26,0.89,0.89,0,0,1-.64.25H297.2a0.81,0.81,0,0,1-.63-0.28,0.87,0.87,0,0,1-.25-0.58,1.68,1.68,0,0,1,.08-0.43,1.58,1.58,0,0,1,.22-0.39l5.24-7h-4.34a0.89,0.89,0,0,1-.9-0.9,0.82,0.82,0,0,1,.25-0.62,0.9,0.9,0,0,1,.65-0.24h6.14a0.81,0.81,0,0,1,.63.28,0.92,0.92,0,0,1,.23.68,1.62,1.62,0,0,1-.07.35,1,1,0,0,1-.21.33l-5.28,7h4.7A0.89,0.89,0,0,1,304.3,63Z"/><path class="cls-3" d="M321.1,59.45a1,1,0,0,1-.66.25h-7A3.48,3.48,0,0,0,314.51,62a3.4,3.4,0,0,0,2.37.88,3.71,3.71,0,0,0,1.56-.28,3.93,3.93,0,0,0,1.06-.72,1.13,1.13,0,0,1,.58-0.18,0.76,0.76,0,0,1,.57.24,0.79,0.79,0,0,1,.23.56,1,1,0,0,1-.4.76,4.72,4.72,0,0,1-1.54,1,5.06,5.06,0,0,1-2,.4,5.8,5.8,0,0,1-2.85-.68,4.73,4.73,0,0,1-1.9-1.9,5.63,5.63,0,0,1-.67-2.76,6.08,6.08,0,0,1,.69-3,5,5,0,0,1,1.82-2,4.69,4.69,0,0,1,4.83,0,5,5,0,0,1,1.8,1.82,5.2,5.2,0,0,1,.7,2.6A0.86,0.86,0,0,1,321.1,59.45Zm-6.54-3.3a3.1,3.1,0,0,0-1.08,2h5.9V57.94a2.44,2.44,0,0,0-1-1.74,3,3,0,0,0-1.93-.68A3.09,3.09,0,0,0,314.56,56.15Z"/><path class="cls-3" d="M332.54,58.08v5.44a1,1,0,0,1-.27.68,0.92,0.92,0,0,1-.69.28,0.89,0.89,0,0,1-.67-0.28,1,1,0,0,1-.27-0.68V58.1a3,3,0,0,0-.54-1.88,2.08,2.08,0,0,0-1.76-.7,3,3,0,0,0-1.45.35,2.67,2.67,0,0,0-1,.94,2.38,2.38,0,0,0-.37,1.29v5.42a1,1,0,0,1-.27.68,0.92,0.92,0,0,1-.69.28,0.9,0.9,0,0,1-.68-0.27,1,1,0,0,1-.26-0.69V55a1,1,0,0,1,.27-0.68,0.89,0.89,0,0,1,.67-0.28,0.92,0.92,0,0,1,.69.28,1,1,0,0,1,.27.68v0.7a4.31,4.31,0,0,1,1.45-1.35,3.85,3.85,0,0,1,2-.55Q332.54,53.76,332.54,58.08Z"/><path class="cls-3" d="M350.14,62A5.09,5.09,0,0,1,348.23,64a5.44,5.44,0,0,1-5.34,0A5.09,5.09,0,0,1,341,62a5.6,5.6,0,0,1-.7-2.8,5.71,5.71,0,0,1,.7-2.82,5,5,0,0,1,1.91-2,5.44,5.44,0,0,1,5.34,0,5.05,5.05,0,0,1,1.91,2,5.71,5.71,0,0,1,.7,2.82A5.6,5.6,0,0,1,350.14,62Zm-1.65-4.73A3.35,3.35,0,0,0,347.27,56a3.35,3.35,0,0,0-3.42,0,3.34,3.34,0,0,0-1.22,1.32,4.07,4.07,0,0,0-.45,1.93,4,4,0,0,0,.45,1.9,3.35,3.35,0,0,0,1.22,1.31,3.35,3.35,0,0,0,3.42,0,3.36,3.36,0,0,0,1.22-1.31,4,4,0,0,0,.45-1.9A4.07,4.07,0,0,0,348.49,57.31Z"/><path class="cls-3" d="M355.87,55.86v6a0.84,0.84,0,0,0,.9,1,1.44,1.44,0,0,0,.38-0.07,1.44,1.44,0,0,1,.38-0.07,0.55,0.55,0,0,1,.44.22,0.84,0.84,0,0,1-.3,1.28,2,2,0,0,1-1.08.3,4.88,4.88,0,0,1-1.21-.14,1.79,1.79,0,0,1-1-.71A2.86,2.86,0,0,1,354,61.9v-6h-1.16a0.85,0.85,0,0,1-.88-0.88,0.82,0.82,0,0,1,.25-0.62,0.88,0.88,0,0,1,.63-0.24H354V52.44a0.94,0.94,0,0,1,.27-0.68,0.92,0.92,0,0,1,.69-0.28,0.9,0.9,0,0,1,.67.28,0.94,0.94,0,0,1,.27.68v1.68h1.66a0.85,0.85,0,0,1,.88.88,0.82,0.82,0,0,1-.25.62,0.88,0.88,0,0,1-.63.24h-1.66Z"/><path class="cls-3" d="M366.75,54a0.8,0.8,0,0,1,.38.67,1,1,0,0,1-.25.73,0.83,0.83,0,0,1-.61.25,1.9,1.9,0,0,1-.54-0.12,2.26,2.26,0,0,0-.66-0.14,2,2,0,0,0-1.21.43,3.15,3.15,0,0,0-1,1.18,3.73,3.73,0,0,0-.37,1.67v4.82a1,1,0,0,1-.27.68,0.92,0.92,0,0,1-.69.28,0.9,0.9,0,0,1-.68-0.27,1,1,0,0,1-.26-0.69V55a1,1,0,0,1,.27-0.68,0.89,0.89,0,0,1,.67-0.28,0.92,0.92,0,0,1,.69.28,1,1,0,0,1,.27.68v1a3.79,3.79,0,0,1,1.32-1.59,3.55,3.55,0,0,1,2-.63A1.52,1.52,0,0,1,366.75,54Z"/><path class="cls-3" d="M377.84,54.13a1,1,0,0,1,.27.71v8.68a1,1,0,0,1-.27.68,0.92,0.92,0,0,1-.69.28,0.9,0.9,0,0,1-.68-0.27,1,1,0,0,1-.26-0.69V63a4.27,4.27,0,0,1-1.42,1.19,4,4,0,0,1-1.94.49,4.53,4.53,0,0,1-2.47-.7,4.8,4.8,0,0,1-1.74-2,6.58,6.58,0,0,1,0-5.62,4.83,4.83,0,0,1,1.73-2,4.57,4.57,0,0,1,4.39-.26,4.07,4.07,0,0,1,1.45,1.12V54.84a1,1,0,0,1,.26-0.7,0.88,0.88,0,0,1,.68-0.28A0.93,0.93,0,0,1,377.84,54.13Zm-3.1,8.31a3.24,3.24,0,0,0,1.14-1.32,4.28,4.28,0,0,0,.41-1.9,4.23,4.23,0,0,0-.41-1.88A3.32,3.32,0,0,0,374.74,56a2.93,2.93,0,0,0-1.67-.49,3,3,0,0,0-1.67.48,3.24,3.24,0,0,0-1.14,1.32,4.61,4.61,0,0,0,0,3.8,3.24,3.24,0,0,0,1.14,1.32A3.14,3.14,0,0,0,374.74,62.44Z"/><path class="cls-3" d="M380.15,62.3a0.81,0.81,0,0,1,.42-0.68,0.78,0.78,0,0,1,.46-0.14,0.92,0.92,0,0,1,.66.3,4.21,4.21,0,0,0,1.29,1,3.7,3.7,0,0,0,1.65.34,2.81,2.81,0,0,0,1.34-.35,1.24,1.24,0,0,0,0-2.11,6.72,6.72,0,0,0-1.73-.66,12.78,12.78,0,0,1-1.86-.63,3.33,3.33,0,0,1-1.25-1,2.81,2.81,0,0,1,0-3.23,3.4,3.4,0,0,1,1.36-1.06,4.48,4.48,0,0,1,1.85-.38,5.35,5.35,0,0,1,1.91.36,3.58,3.58,0,0,1,1.55,1.1,0.88,0.88,0,0,1,.24.58,0.86,0.86,0,0,1-.32.62,0.72,0.72,0,0,1-.5.18,0.75,0.75,0,0,1-.58-0.24,2.82,2.82,0,0,0-1-.74,3.4,3.4,0,0,0-1.35-.26,2.51,2.51,0,0,0-1.29.31,1.12,1.12,0,0,0-.53,1,1.16,1.16,0,0,0,.61,1,7.74,7.74,0,0,0,1.81.66,11.2,11.2,0,0,1,1.76.6,3.08,3.08,0,0,1,1.18,1,2.65,2.65,0,0,1,.48,1.65,2.57,2.57,0,0,1-.54,1.63,3.48,3.48,0,0,1-1.41,1.06,4.67,4.67,0,0,1-1.85.37,6.06,6.06,0,0,1-2.33-.44,4.34,4.34,0,0,1-1.81-1.4A1,1,0,0,1,380.15,62.3Z"/><path class="cls-3" d="M153.83,78.26a1.49,1.49,0,0,1,1.05,1.28,0.94,0.94,0,0,1-.22.61,0.69,0.69,0,0,1-.56.27,0.87,0.87,0,0,1-.41-0.08,4.48,4.48,0,0,1-.41-0.26,2.16,2.16,0,0,0-.38-0.28,2.64,2.64,0,0,0-.68-0.2,4.57,4.57,0,0,0-.8-0.08,3.5,3.5,0,0,0-1.84.48,3.26,3.26,0,0,0-1.24,1.33,4,4,0,0,0-.44,1.89,4.11,4.11,0,0,0,.43,1.9,3.26,3.26,0,0,0,1.21,1.32,3.32,3.32,0,0,0,1.78.48A3.76,3.76,0,0,0,153,86.6a3.86,3.86,0,0,0,.38-0.26,2.41,2.41,0,0,1,.35-0.24A0.79,0.79,0,0,1,154.1,86a0.82,0.82,0,0,1,.63.25,0.92,0.92,0,0,1,.23.65,1.11,1.11,0,0,1-.53.83,4.26,4.26,0,0,1-1.42.67,6.8,6.8,0,0,1-1.91.26,5,5,0,0,1-2.68-.71,4.75,4.75,0,0,1-1.79-2,6.11,6.11,0,0,1-.63-2.79,5.88,5.88,0,0,1,.66-2.79,4.92,4.92,0,0,1,1.84-2,5.14,5.14,0,0,1,2.7-.71A6.11,6.11,0,0,1,153.83,78.26Z"/><path class="cls-3" d="M166.14,86A5.09,5.09,0,0,1,164.23,88a5.44,5.44,0,0,1-5.34,0A5.09,5.09,0,0,1,157,86a5.6,5.6,0,0,1-.7-2.8,5.71,5.71,0,0,1,.7-2.82,5,5,0,0,1,1.91-2,5.44,5.44,0,0,1,5.34,0,5.05,5.05,0,0,1,1.91,2,5.71,5.71,0,0,1,.7,2.82A5.6,5.6,0,0,1,166.14,86Zm-1.65-4.73A3.35,3.35,0,0,0,163.27,80a3.35,3.35,0,0,0-3.42,0,3.34,3.34,0,0,0-1.22,1.32,4.07,4.07,0,0,0-.45,1.93,4,4,0,0,0,.45,1.9,3.35,3.35,0,0,0,1.22,1.31,3.35,3.35,0,0,0,3.42,0,3.36,3.36,0,0,0,1.22-1.31,4,4,0,0,0,.45-1.9A4.07,4.07,0,0,0,164.49,81.31Z"/><path class="cls-3" d="M184.56,82.18v5.34a1,1,0,0,1-.26.69,0.9,0.9,0,0,1-.68.27,0.92,0.92,0,0,1-.69-0.28,1,1,0,0,1-.27-0.68V82.2q0-2.62-2.2-2.62a2.85,2.85,0,0,0-1.41.35,2.53,2.53,0,0,0-1,1,2.57,2.57,0,0,0-.35,1.32v5.32a1,1,0,0,1-.27.68,0.92,0.92,0,0,1-.69.28,0.9,0.9,0,0,1-.68-0.27,1,1,0,0,1-.26-0.69V82.18a3.22,3.22,0,0,0-.5-1.89,1.89,1.89,0,0,0-1.66-.71,2.68,2.68,0,0,0-2,.75,2.48,2.48,0,0,0-.77,1.85v5.34a1,1,0,0,1-.27.68,0.92,0.92,0,0,1-.69.28,0.9,0.9,0,0,1-.68-0.27,1,1,0,0,1-.26-0.69V79a1,1,0,0,1,.27-0.68A0.89,0.89,0,0,1,170,78a0.92,0.92,0,0,1,.69.28,1,1,0,0,1,.27.68v0.7a4.37,4.37,0,0,1,1.39-1.31,3.57,3.57,0,0,1,1.89-.53,3.07,3.07,0,0,1,3.22,2.2,4.25,4.25,0,0,1,1.46-1.52,3.83,3.83,0,0,1,2.16-.68Q184.56,77.82,184.56,82.18Z"/><path class="cls-3" d="M195.89,78.28a1,1,0,0,1,.27.68v5.32a4.39,4.39,0,1,1-8.76,0V79a1,1,0,0,1,.27-0.68,0.89,0.89,0,0,1,.67-0.28,0.92,0.92,0,0,1,.69.28,1,1,0,0,1,.27.68v5.32q0,2.62,2.46,2.62a2.47,2.47,0,0,0,1.86-.66,2.71,2.71,0,0,0,.64-2V79a1,1,0,0,1,.27-0.68A0.89,0.89,0,0,1,195.2,78,0.92,0.92,0,0,1,195.89,78.28Z"/><path class="cls-3" d="M207.94,82.08v5.44a1,1,0,0,1-.27.68,0.92,0.92,0,0,1-.69.28,0.89,0.89,0,0,1-.67-0.28,1,1,0,0,1-.27-0.68V82.1a3,3,0,0,0-.54-1.88,2.08,2.08,0,0,0-1.76-.7,3,3,0,0,0-1.45.35,2.67,2.67,0,0,0-1,.94,2.38,2.38,0,0,0-.37,1.29v5.42a1,1,0,0,1-.27.68,0.92,0.92,0,0,1-.69.28,0.9,0.9,0,0,1-.68-0.27,1,1,0,0,1-.26-0.69V79a1,1,0,0,1,.27-0.68,0.89,0.89,0,0,1,.67-0.28,0.92,0.92,0,0,1,.69.28,1,1,0,0,1,.27.68v0.7a4.31,4.31,0,0,1,1.45-1.35,3.85,3.85,0,0,1,2-.55Q207.94,77.76,207.94,82.08Z"/><path class="cls-3" d="M210.79,76.37a0.83,0.83,0,0,1-.25-0.67V75.38a0.79,0.79,0,0,1,.27-0.68,1.39,1.39,0,0,1,.83-0.2,1.25,1.25,0,0,1,.81.21,0.83,0.83,0,0,1,.25.67V75.7a0.81,0.81,0,0,1-.26.68,1.35,1.35,0,0,1-.82.2A1.29,1.29,0,0,1,210.79,76.37Zm1.52,11.83a0.92,0.92,0,0,1-.69.28,0.89,0.89,0,0,1-.67-0.28,1,1,0,0,1-.27-0.68V78.86a0.94,0.94,0,0,1,.27-0.68,0.89,0.89,0,0,1,.67-0.28,0.92,0.92,0,0,1,.69.28,0.94,0.94,0,0,1,.27.68v8.66A1,1,0,0,1,212.31,88.2Z"/><path class="cls-3" d="M224.51,73.95a0.93,0.93,0,0,1,.27.69V87.52a1,1,0,0,1-.27.68,0.92,0.92,0,0,1-.69.28,0.9,0.9,0,0,1-.68-0.27,1,1,0,0,1-.26-0.69V87a4,4,0,0,1-1.41,1.22,4,4,0,0,1-1.95.5,4.48,4.48,0,0,1-2.46-.7,4.9,4.9,0,0,1-1.74-2,6.07,6.07,0,0,1-.64-2.81,6.15,6.15,0,0,1,.63-2.81,4.83,4.83,0,0,1,1.73-2,4.55,4.55,0,0,1,4.38-.26,4.18,4.18,0,0,1,1.46,1.14v-4.7a1,1,0,0,1,.26-0.69,0.9,0.9,0,0,1,.68-0.27A0.93,0.93,0,0,1,224.51,73.95Zm-3.1,12.49a3.24,3.24,0,0,0,1.14-1.32,4.58,4.58,0,0,0,0-3.79A3.22,3.22,0,0,0,221.41,80a3.14,3.14,0,0,0-3.34,0,3.22,3.22,0,0,0-1.14,1.33,4.59,4.59,0,0,0,0,3.79,3.24,3.24,0,0,0,1.14,1.32A3.14,3.14,0,0,0,221.41,86.44Z"/><path class="cls-3" d="M236.79,78.13a1,1,0,0,1,.27.71v8.68a1,1,0,0,1-.27.68,0.92,0.92,0,0,1-.69.28,0.9,0.9,0,0,1-.68-0.27,1,1,0,0,1-.26-0.69V87a4.27,4.27,0,0,1-1.42,1.19,4,4,0,0,1-1.94.49,4.53,4.53,0,0,1-2.47-.7,4.8,4.8,0,0,1-1.74-2,6.58,6.58,0,0,1,0-5.62,4.83,4.83,0,0,1,1.73-2,4.57,4.57,0,0,1,4.39-.26,4.07,4.07,0,0,1,1.45,1.12V78.84a1,1,0,0,1,.26-0.7,0.88,0.88,0,0,1,.68-0.28A0.93,0.93,0,0,1,236.79,78.13Zm-3.1,8.31a3.24,3.24,0,0,0,1.14-1.32,4.28,4.28,0,0,0,.41-1.9,4.23,4.23,0,0,0-.41-1.88A3.32,3.32,0,0,0,233.69,80a2.93,2.93,0,0,0-1.67-.49,3,3,0,0,0-1.67.48,3.24,3.24,0,0,0-1.14,1.32,4.61,4.61,0,0,0,0,3.8,3.24,3.24,0,0,0,1.14,1.32A3.14,3.14,0,0,0,233.69,86.44Z"/><path class="cls-3" d="M249.07,73.95a0.93,0.93,0,0,1,.27.69V87.52a1,1,0,0,1-.27.68,0.92,0.92,0,0,1-.69.28,0.9,0.9,0,0,1-.68-0.27,1,1,0,0,1-.26-0.69V87A4,4,0,0,1,246,88.18a4,4,0,0,1-1.95.5,4.48,4.48,0,0,1-2.46-.7,4.9,4.9,0,0,1-1.74-2,6.07,6.07,0,0,1-.64-2.81,6.15,6.15,0,0,1,.63-2.81,4.83,4.83,0,0,1,1.73-2A4.55,4.55,0,0,1,246,78.2a4.18,4.18,0,0,1,1.46,1.14v-4.7a1,1,0,0,1,.26-0.69,0.9,0.9,0,0,1,.68-0.27A0.93,0.93,0,0,1,249.07,73.95ZM246,86.44a3.24,3.24,0,0,0,1.14-1.32,4.58,4.58,0,0,0,0-3.79A3.22,3.22,0,0,0,246,80a3.14,3.14,0,0,0-3.34,0,3.22,3.22,0,0,0-1.14,1.33,4.59,4.59,0,0,0,0,3.79,3.24,3.24,0,0,0,1.14,1.32A3.14,3.14,0,0,0,246,86.44Z"/><path class="cls-3" d="M261.06,83.45a1,1,0,0,1-.66.25h-7A3.48,3.48,0,0,0,254.47,86a3.4,3.4,0,0,0,2.37.88,3.71,3.71,0,0,0,1.56-.28,3.93,3.93,0,0,0,1.06-.72,1.13,1.13,0,0,1,.58-0.18,0.76,0.76,0,0,1,.57.24,0.79,0.79,0,0,1,.23.56,1,1,0,0,1-.4.76,4.72,4.72,0,0,1-1.54,1,5.06,5.06,0,0,1-2,.4,5.8,5.8,0,0,1-2.85-.68,4.73,4.73,0,0,1-1.9-1.9,5.63,5.63,0,0,1-.67-2.76,6.08,6.08,0,0,1,.69-3,5,5,0,0,1,1.82-2,4.69,4.69,0,0,1,4.83,0,5,5,0,0,1,1.8,1.82,5.2,5.2,0,0,1,.7,2.6A0.86,0.86,0,0,1,261.06,83.45Zm-6.54-3.3a3.1,3.1,0,0,0-1.08,2h5.9V81.94a2.44,2.44,0,0,0-1-1.74,3,3,0,0,0-1.93-.68A3.09,3.09,0,0,0,254.52,80.15Z"/><path class="cls-3" d="M262.78,86.3a0.81,0.81,0,0,1,.42-0.68,0.78,0.78,0,0,1,.46-0.14,0.92,0.92,0,0,1,.66.3,4.21,4.21,0,0,0,1.29,1,3.7,3.7,0,0,0,1.65.34,2.81,2.81,0,0,0,1.34-.35,1.24,1.24,0,0,0,0-2.11,6.72,6.72,0,0,0-1.73-.66,12.78,12.78,0,0,1-1.86-.63,3.33,3.33,0,0,1-1.25-1,2.81,2.81,0,0,1,0-3.23,3.4,3.4,0,0,1,1.36-1.06,4.48,4.48,0,0,1,1.85-.38,5.35,5.35,0,0,1,1.91.36,3.58,3.58,0,0,1,1.55,1.1,0.88,0.88,0,0,1,.24.58,0.86,0.86,0,0,1-.32.62,0.72,0.72,0,0,1-.5.18,0.75,0.75,0,0,1-.58-0.24,2.82,2.82,0,0,0-1-.74,3.4,3.4,0,0,0-1.35-.26,2.51,2.51,0,0,0-1.29.31,1.12,1.12,0,0,0-.53,1,1.16,1.16,0,0,0,.61,1,7.74,7.74,0,0,0,1.81.66,11.2,11.2,0,0,1,1.76.6,3.08,3.08,0,0,1,1.18,1,2.65,2.65,0,0,1,.48,1.65,2.57,2.57,0,0,1-.54,1.63,3.48,3.48,0,0,1-1.41,1.06,4.67,4.67,0,0,1-1.85.37,6.06,6.06,0,0,1-2.33-.44,4.34,4.34,0,0,1-1.81-1.4A1,1,0,0,1,262.78,86.3Z"/><path class="cls-3" d="M287.83,73.95a0.93,0.93,0,0,1,.27.69V87.52a1,1,0,0,1-.27.68,0.92,0.92,0,0,1-.69.28,0.9,0.9,0,0,1-.68-0.27,1,1,0,0,1-.26-0.69V87a4,4,0,0,1-1.41,1.22,4,4,0,0,1-1.95.5,4.48,4.48,0,0,1-2.46-.7,4.9,4.9,0,0,1-1.74-2,6.07,6.07,0,0,1-.64-2.81,6.15,6.15,0,0,1,.63-2.81,4.83,4.83,0,0,1,1.73-2,4.55,4.55,0,0,1,4.38-.26,4.18,4.18,0,0,1,1.46,1.14v-4.7a1,1,0,0,1,.26-0.69,0.9,0.9,0,0,1,.68-0.27A0.93,0.93,0,0,1,287.83,73.95Zm-3.1,12.49a3.24,3.24,0,0,0,1.14-1.32,4.58,4.58,0,0,0,0-3.79A3.22,3.22,0,0,0,284.73,80a3.14,3.14,0,0,0-3.34,0,3.22,3.22,0,0,0-1.14,1.33,4.59,4.59,0,0,0,0,3.79,3.24,3.24,0,0,0,1.14,1.32A3.14,3.14,0,0,0,284.73,86.44Z"/><path class="cls-3" d="M300.11,78.13a1,1,0,0,1,.27.71v8.68a1,1,0,0,1-.27.68,0.92,0.92,0,0,1-.69.28,0.9,0.9,0,0,1-.68-0.27,1,1,0,0,1-.26-0.69V87a4.27,4.27,0,0,1-1.42,1.19,4,4,0,0,1-1.94.49,4.53,4.53,0,0,1-2.47-.7,4.8,4.8,0,0,1-1.74-2,6.58,6.58,0,0,1,0-5.62,4.83,4.83,0,0,1,1.73-2A4.57,4.57,0,0,1,297,78.2a4.07,4.07,0,0,1,1.45,1.12V78.84a1,1,0,0,1,.26-0.7,0.88,0.88,0,0,1,.68-0.28A0.93,0.93,0,0,1,300.11,78.13ZM297,86.44a3.24,3.24,0,0,0,1.14-1.32,4.28,4.28,0,0,0,.41-1.9,4.23,4.23,0,0,0-.41-1.88A3.32,3.32,0,0,0,297,80a2.93,2.93,0,0,0-1.67-.49,3,3,0,0,0-1.67.48,3.24,3.24,0,0,0-1.14,1.32,4.61,4.61,0,0,0,0,3.8,3.24,3.24,0,0,0,1.14,1.32A3.14,3.14,0,0,0,297,86.44Z"/><path class="cls-3" d="M315.93,78.26A1.49,1.49,0,0,1,317,79.54a0.94,0.94,0,0,1-.22.61,0.69,0.69,0,0,1-.56.27,0.87,0.87,0,0,1-.41-0.08,4.48,4.48,0,0,1-.41-0.26A2.16,2.16,0,0,0,315,79.8a2.64,2.64,0,0,0-.68-0.2,4.57,4.57,0,0,0-.8-0.08,3.5,3.5,0,0,0-1.84.48,3.26,3.26,0,0,0-1.24,1.33,4,4,0,0,0-.44,1.89,4.11,4.11,0,0,0,.43,1.9,3.26,3.26,0,0,0,1.21,1.32,3.32,3.32,0,0,0,1.78.48,3.76,3.76,0,0,0,1.68-.32,3.86,3.86,0,0,0,.38-0.26,2.41,2.41,0,0,1,.35-0.24A0.79,0.79,0,0,1,316.2,86a0.82,0.82,0,0,1,.63.25,0.92,0.92,0,0,1,.23.65,1.11,1.11,0,0,1-.53.83,4.26,4.26,0,0,1-1.42.67,6.8,6.8,0,0,1-1.91.26,5,5,0,0,1-2.68-.71,4.75,4.75,0,0,1-1.79-2,6.11,6.11,0,0,1-.63-2.79,5.88,5.88,0,0,1,.66-2.79,4.92,4.92,0,0,1,1.84-2,5.14,5.14,0,0,1,2.7-.71A6.11,6.11,0,0,1,315.93,78.26Z"/><path class="cls-3" d="M320.8,88.2a0.93,0.93,0,0,1-.68.28,0.89,0.89,0,0,1-.67-0.28,1,1,0,0,1-.27-0.68V74.64a1,1,0,0,1,1-1,0.89,0.89,0,0,1,.67.28,0.94,0.94,0,0,1,.27.68V87.52A0.93,0.93,0,0,1,320.8,88.2Z"/><path class="cls-3" d="M324.09,76.37a0.83,0.83,0,0,1-.25-0.67V75.38a0.79,0.79,0,0,1,.27-0.68,1.39,1.39,0,0,1,.83-0.2,1.25,1.25,0,0,1,.81.21,0.83,0.83,0,0,1,.25.67V75.7a0.81,0.81,0,0,1-.26.68,1.35,1.35,0,0,1-.82.2A1.29,1.29,0,0,1,324.09,76.37Zm1.52,11.83a0.92,0.92,0,0,1-.69.28,0.89,0.89,0,0,1-.67-0.28,1,1,0,0,1-.27-0.68V78.86a0.94,0.94,0,0,1,.27-0.68,0.89,0.89,0,0,1,.67-0.28,0.92,0.92,0,0,1,.69.28,0.94,0.94,0,0,1,.27.68v8.66A1,1,0,0,1,325.61,88.2Z"/><path class="cls-3" d="M335.81,78.26a1.49,1.49,0,0,1,1.05,1.28,0.94,0.94,0,0,1-.22.61,0.69,0.69,0,0,1-.56.27,0.87,0.87,0,0,1-.41-0.08,4.48,4.48,0,0,1-.41-0.26,2.16,2.16,0,0,0-.38-0.28,2.64,2.64,0,0,0-.68-0.2,4.57,4.57,0,0,0-.8-0.08,3.5,3.5,0,0,0-1.84.48,3.26,3.26,0,0,0-1.24,1.33,4,4,0,0,0-.44,1.89,4.11,4.11,0,0,0,.43,1.9,3.26,3.26,0,0,0,1.21,1.32,3.32,3.32,0,0,0,1.78.48A3.76,3.76,0,0,0,335,86.6a3.86,3.86,0,0,0,.38-0.26,2.41,2.41,0,0,1,.35-0.24,0.79,0.79,0,0,1,.37-0.08,0.82,0.82,0,0,1,.63.25,0.92,0.92,0,0,1,.23.65,1.11,1.11,0,0,1-.53.83,4.26,4.26,0,0,1-1.42.67,6.8,6.8,0,0,1-1.91.26A5,5,0,0,1,330.4,88a4.75,4.75,0,0,1-1.79-2,6.11,6.11,0,0,1-.63-2.79,5.88,5.88,0,0,1,.66-2.79,4.92,4.92,0,0,1,1.84-2,5.14,5.14,0,0,1,2.7-.71A6.11,6.11,0,0,1,335.81,78.26Z"/><path class="cls-3" d="M347.76,87.52a0.85,0.85,0,0,1-.31.67,1,1,0,0,1-.65.27,0.85,0.85,0,0,1-.7-0.32L342.16,84,341,85v2.48a1,1,0,0,1-.27.68,0.89,0.89,0,0,1-.67.28,0.92,0.92,0,0,1-.69-0.28,1,1,0,0,1-.27-0.68V74.64a0.94,0.94,0,0,1,.27-0.68,0.92,0.92,0,0,1,.69-0.28,0.89,0.89,0,0,1,.67.28,0.94,0.94,0,0,1,.27.68v8.12l4.9-4.5a1.05,1.05,0,0,1,.7-0.3,0.85,0.85,0,0,1,.62.29,0.87,0.87,0,0,1,.28.61,0.93,0.93,0,0,1-.38.72l-3.46,3.08,3.84,4.16A1,1,0,0,1,347.76,87.52Z"/><path class="cls-3" d="M364.44,83.45a1,1,0,0,1-.66.25h-7A3.48,3.48,0,0,0,357.85,86a3.4,3.4,0,0,0,2.37.88,3.71,3.71,0,0,0,1.56-.28,3.93,3.93,0,0,0,1.06-.72,1.13,1.13,0,0,1,.58-0.18A0.76,0.76,0,0,1,364,86a0.79,0.79,0,0,1,.23.56,1,1,0,0,1-.4.76,4.72,4.72,0,0,1-1.54,1,5.06,5.06,0,0,1-2,.4,5.8,5.8,0,0,1-2.85-.68,4.73,4.73,0,0,1-1.9-1.9,5.63,5.63,0,0,1-.67-2.76,6.08,6.08,0,0,1,.69-3,5,5,0,0,1,1.82-2,4.69,4.69,0,0,1,4.83,0,5,5,0,0,1,1.8,1.82,5.2,5.2,0,0,1,.7,2.6A0.86,0.86,0,0,1,364.44,83.45Zm-6.54-3.3a3.1,3.1,0,0,0-1.08,2h5.9V81.94a2.44,2.44,0,0,0-1-1.74,3,3,0,0,0-1.93-.68A3.09,3.09,0,0,0,357.9,80.15Z"/><path class="cls-3" d="M375.88,82.08v5.44a1,1,0,0,1-.27.68,0.92,0.92,0,0,1-.69.28,0.89,0.89,0,0,1-.67-0.28,1,1,0,0,1-.27-0.68V82.1a3,3,0,0,0-.54-1.88,2.08,2.08,0,0,0-1.76-.7,3,3,0,0,0-1.45.35,2.67,2.67,0,0,0-1,.94,2.38,2.38,0,0,0-.37,1.29v5.42a1,1,0,0,1-.27.68,0.92,0.92,0,0,1-.69.28,0.9,0.9,0,0,1-.68-0.27,1,1,0,0,1-.26-0.69V79a1,1,0,0,1,.27-0.68,0.89,0.89,0,0,1,.67-0.28,0.92,0.92,0,0,1,.69.28,1,1,0,0,1,.27.68v0.7a4.31,4.31,0,0,1,1.45-1.35,3.85,3.85,0,0,1,2-.55Q375.88,77.76,375.88,82.08Z"/><path class="cls-3" d="M393.16,83.45a1,1,0,0,1-.66.25h-7A3.48,3.48,0,0,0,386.57,86a3.4,3.4,0,0,0,2.37.88,3.71,3.71,0,0,0,1.56-.28,3.93,3.93,0,0,0,1.06-.72,1.13,1.13,0,0,1,.58-0.18,0.76,0.76,0,0,1,.57.24,0.79,0.79,0,0,1,.23.56,1,1,0,0,1-.4.76,4.72,4.72,0,0,1-1.54,1,5.06,5.06,0,0,1-2,.4,5.8,5.8,0,0,1-2.85-.68,4.73,4.73,0,0,1-1.9-1.9,5.63,5.63,0,0,1-.67-2.76,6.08,6.08,0,0,1,.69-3,5,5,0,0,1,1.82-2,4.69,4.69,0,0,1,4.83,0,5,5,0,0,1,1.8,1.82,5.2,5.2,0,0,1,.7,2.6A0.86,0.86,0,0,1,393.16,83.45Zm-6.54-3.3a3.1,3.1,0,0,0-1.08,2h5.9V81.94a2.44,2.44,0,0,0-1-1.74,3,3,0,0,0-1.93-.68A3.09,3.09,0,0,0,386.62,80.15Z"/><path class="cls-3" d="M397.44,88.2a0.93,0.93,0,0,1-.68.28,0.89,0.89,0,0,1-.67-0.28,1,1,0,0,1-.27-0.68V74.64a1,1,0,0,1,1-1,0.89,0.89,0,0,1,.67.28,0.94,0.94,0,0,1,.27.68V87.52A0.93,0.93,0,0,1,397.44,88.2Z"/><path class="cls-3" d="M414,78.46a4.85,4.85,0,0,1,1.73,1.94,6.1,6.1,0,0,1,.63,2.8,6.22,6.22,0,0,1-.63,2.82A4.82,4.82,0,0,1,414,88a4.42,4.42,0,0,1-2.42.7,4.2,4.2,0,0,1-1.94-.46,4.53,4.53,0,0,1-1.46-1.14v0.58a0.94,0.94,0,0,1-.27.68,1,1,0,0,1-1.36,0,0.93,0.93,0,0,1-.27-0.69v-13a1,1,0,0,1,.26-0.69,0.9,0.9,0,0,1,.68-0.27,0.92,0.92,0,0,1,.69.28,0.94,0.94,0,0,1,.27.68v4.88a4,4,0,0,1,1.4-1.24,3.93,3.93,0,0,1,2-.52A4.49,4.49,0,0,1,414,78.46Zm-1,8a3.27,3.27,0,0,0,1.15-1.34,4.3,4.3,0,0,0,.41-1.89,4.24,4.24,0,0,0-.41-1.88A3.22,3.22,0,0,0,413,80a3,3,0,0,0-1.66-.48,3,3,0,0,0-1.68.48,3.23,3.23,0,0,0-1.15,1.31,4.21,4.21,0,0,0-.41,1.89,4.27,4.27,0,0,0,.41,1.9,3.28,3.28,0,0,0,1.15,1.33,3,3,0,0,0,1.68.49A2.94,2.94,0,0,0,413,86.43Z"/><path class="cls-3" d="M427.75,86A5.1,5.1,0,0,1,425.85,88a5.44,5.44,0,0,1-5.34,0A5.09,5.09,0,0,1,418.6,86a5.6,5.6,0,0,1-.7-2.8,5.71,5.71,0,0,1,.7-2.82,5,5,0,0,1,1.91-2,5.44,5.44,0,0,1,5.34,0,5.06,5.06,0,0,1,1.91,2,5.71,5.71,0,0,1,.7,2.82A5.6,5.6,0,0,1,427.75,86Zm-1.65-4.73A3.35,3.35,0,0,0,424.89,80a3.35,3.35,0,0,0-3.42,0,3.34,3.34,0,0,0-1.22,1.32,4.07,4.07,0,0,0-.45,1.93,4,4,0,0,0,.45,1.9,3.35,3.35,0,0,0,1.22,1.31,3.35,3.35,0,0,0,3.42,0,3.36,3.36,0,0,0,1.22-1.31,4,4,0,0,0,.45-1.9A4.08,4.08,0,0,0,426.11,81.31Z"/><path class="cls-3" d="M433.5,79.86v6a0.84,0.84,0,0,0,.9,1,1.44,1.44,0,0,0,.38-0.07,1.44,1.44,0,0,1,.38-0.07,0.55,0.55,0,0,1,.44.22,0.84,0.84,0,0,1-.3,1.28,2,2,0,0,1-1.08.3,4.89,4.89,0,0,1-1.21-.14,1.79,1.79,0,0,1-1-.71,2.86,2.86,0,0,1-.43-1.73v-6h-1.16a0.85,0.85,0,0,1-.88-0.88,0.82,0.82,0,0,1,.25-0.62,0.87,0.87,0,0,1,.63-0.24h1.16V76.44a0.94,0.94,0,0,1,.27-0.68,0.92,0.92,0,0,1,.69-0.28,0.89,0.89,0,0,1,.67.28,0.94,0.94,0,0,1,.27.68v1.68h1.66A0.85,0.85,0,0,1,436,79a0.82,0.82,0,0,1-.25.62,0.88,0.88,0,0,1-.63.24H433.5Z"/><path class="cls-3" d="M447.47,86A5.09,5.09,0,0,1,445.57,88a5.44,5.44,0,0,1-5.34,0A5.08,5.08,0,0,1,438.32,86a5.59,5.59,0,0,1-.7-2.8,5.7,5.7,0,0,1,.7-2.82,5,5,0,0,1,1.91-2,5.44,5.44,0,0,1,5.34,0,5.05,5.05,0,0,1,1.91,2,5.71,5.71,0,0,1,.7,2.82A5.6,5.6,0,0,1,447.47,86Zm-1.65-4.73A3.34,3.34,0,0,0,444.6,80a3.35,3.35,0,0,0-3.42,0A3.34,3.34,0,0,0,440,81.31a4.07,4.07,0,0,0-.45,1.93,4,4,0,0,0,.45,1.9,3.36,3.36,0,0,0,1.22,1.31,3.35,3.35,0,0,0,3.42,0,3.35,3.35,0,0,0,1.22-1.31,4,4,0,0,0,.45-1.9A4.07,4.07,0,0,0,445.83,81.31Zm-3.33-4.25a0.41,0.41,0,0,1-.16-0.38,0.72,0.72,0,0,1,.12-0.36l1.18-2a1.54,1.54,0,0,1,.39-0.46,0.83,0.83,0,0,1,.53-0.18,0.91,0.91,0,0,1,.67.23,0.76,0.76,0,0,1,.21.61,1.05,1.05,0,0,1-.3.7l-1.5,1.64a1.09,1.09,0,0,1-.8.32A0.56,0.56,0,0,1,442.5,77.06Z"/><path class="cls-3" d="M459.32,82.08v5.44a1,1,0,0,1-.27.68,0.92,0.92,0,0,1-.69.28,0.89,0.89,0,0,1-.67-0.28,0.94,0.94,0,0,1-.27-0.68V82.1a3,3,0,0,0-.54-1.88,2.09,2.09,0,0,0-1.76-.7,3,3,0,0,0-1.45.35,2.67,2.67,0,0,0-1,.94,2.38,2.38,0,0,0-.37,1.29v5.42a0.94,0.94,0,0,1-.27.68,0.92,0.92,0,0,1-.69.28,0.9,0.9,0,0,1-.68-0.27,1,1,0,0,1-.26-0.69V79a0.94,0.94,0,0,1,.27-0.68,0.89,0.89,0,0,1,.67-0.28,0.92,0.92,0,0,1,.69.28,0.94,0.94,0,0,1,.27.68v0.7a4.31,4.31,0,0,1,1.45-1.35,3.85,3.85,0,0,1,2-.55Q459.32,77.76,459.32,82.08Z"/><path class="cls-3" d="M145.94,100a3.67,3.67,0,0,1,.81-1.1,1.49,1.49,0,0,1,1-.45,0.64,0.64,0,0,1,.78.66,0.46,0.46,0,0,1-.13.37,0.9,0.9,0,0,1-.33.17l-0.3.1a1,1,0,0,0-.56.9,0.47,0.47,0,0,0,.17.37,0.65,0.65,0,0,0,.45.15,1,1,0,0,0,.56-0.14,0.75,0.75,0,0,1,.3.25,0.6,0.6,0,0,1,.08.39,1.06,1.06,0,0,1-.51.87,1.79,1.79,0,0,1-1.07.37,1.5,1.5,0,0,1-1.15-.46,1.83,1.83,0,0,1-.43-1.3A2.66,2.66,0,0,1,145.94,100Zm3.92,0a3.66,3.66,0,0,1,.81-1.1,1.49,1.49,0,0,1,1-.45,0.64,0.64,0,0,1,.78.66,0.46,0.46,0,0,1-.13.37,0.9,0.9,0,0,1-.33.17l-0.3.1a1,1,0,0,0-.56.9,0.47,0.47,0,0,0,.17.37,0.65,0.65,0,0,0,.45.15,1,1,0,0,0,.56-0.14,0.75,0.75,0,0,1,.3.25,0.6,0.6,0,0,1,.08.39,1.07,1.07,0,0,1-.51.87,1.79,1.79,0,0,1-1.07.37,1.5,1.5,0,0,1-1.15-.46,1.83,1.83,0,0,1-.43-1.3A2.67,2.67,0,0,1,149.86,100Z"/><path class="cls-3" d="M163.71,110.92a0.92,0.92,0,0,1,.27.66,0.84,0.84,0,0,1-.27.65,1,1,0,0,1-.69.25h-7a1,1,0,0,1-1-1V99.44a1,1,0,0,1,1-1h7a1,1,0,0,1,.69.26,0.9,0.9,0,0,1,.27.68,0.84,0.84,0,0,1-.27.65,1,1,0,0,1-.69.25h-5.94v4.08h5a1,1,0,0,1,.69.26,0.88,0.88,0,0,1,.27.66,0.84,0.84,0,0,1-.27.66,1,1,0,0,1-.69.24h-5v4.42H163A0.92,0.92,0,0,1,163.71,110.92Z"/><path class="cls-3" d="M174.1,111.56a1,1,0,0,1-1,1,1,1,0,0,1-.78-0.42l-2.68-3.38L167,112.12a0.92,0.92,0,0,1-.34.3,0.93,0.93,0,0,1-.42.1,0.94,0.94,0,0,1-.63-0.25,0.76,0.76,0,0,1-.29-0.59,0.85,0.85,0,0,1,.22-0.6l3-3.74-3.08-3.88a0.92,0.92,0,0,1,.09-1.24,1,1,0,0,1,1.45.12l2.74,3.46,2.58-3.44a0.9,0.9,0,0,1,.76-0.42,0.89,0.89,0,0,1,.64.25,0.79,0.79,0,0,1,.26.59,0.88,0.88,0,0,1-.22.62l-3,3.74,3,3.86A0.8,0.8,0,0,1,174.1,111.56Z"/><path class="cls-3" d="M183.7,102.51a4.78,4.78,0,0,1,1.73,1.93,6.1,6.1,0,0,1,.63,2.8,6,6,0,0,1-.63,2.79A4.86,4.86,0,0,1,183.7,112a4.42,4.42,0,0,1-2.42.7,4.21,4.21,0,0,1-1.94-.46,4.68,4.68,0,0,1-1.46-1.12v4.44a1,1,0,0,1-.27.68,1,1,0,0,1-1.36,0,0.94,0.94,0,0,1-.27-0.69V102.94a1,1,0,0,1,.26-0.7,0.88,0.88,0,0,1,.68-0.28,0.92,0.92,0,0,1,.69.28,1,1,0,0,1,.27.7v0.58a3.93,3.93,0,0,1,1.4-1.2,4,4,0,0,1,2-.5A4.54,4.54,0,0,1,183.7,102.51Zm-1,7.91a3.23,3.23,0,0,0,1.15-1.31,4.47,4.47,0,0,0,0-3.74,3.23,3.23,0,0,0-1.15-1.31,3,3,0,0,0-1.66-.48,3.06,3.06,0,0,0-1.68.47,3.15,3.15,0,0,0-1.15,1.31,4.52,4.52,0,0,0,0,3.76,3.15,3.15,0,0,0,1.15,1.31,3.06,3.06,0,0,0,1.68.47A3,3,0,0,0,182.68,110.42Z"/><path class="cls-3" d="M190,112.2a0.93,0.93,0,0,1-.68.28,0.89,0.89,0,0,1-.67-0.28,1,1,0,0,1-.27-0.68V98.64a1,1,0,0,1,1-1A0.89,0.89,0,0,1,190,98a0.94,0.94,0,0,1,.27.68v12.88A0.93,0.93,0,0,1,190,112.2Z"/><path class="cls-3" d="M202.34,110a5.09,5.09,0,0,1-1.91,1.94,5.44,5.44,0,0,1-5.34,0,5.09,5.09,0,0,1-1.91-1.94,5.6,5.6,0,0,1-.7-2.8,5.71,5.71,0,0,1,.7-2.82,5,5,0,0,1,1.91-2,5.44,5.44,0,0,1,5.34,0,5.05,5.05,0,0,1,1.91,2,5.71,5.71,0,0,1,.7,2.82A5.6,5.6,0,0,1,202.34,110Zm-1.65-4.73a3.35,3.35,0,0,0-1.22-1.32,3.35,3.35,0,0,0-3.42,0,3.34,3.34,0,0,0-1.22,1.32,4.07,4.07,0,0,0-.45,1.93,4,4,0,0,0,.45,1.9,3.35,3.35,0,0,0,1.22,1.31,3.35,3.35,0,0,0,3.42,0,3.36,3.36,0,0,0,1.22-1.31,4,4,0,0,0,.45-1.9A4.07,4.07,0,0,0,200.69,105.31Z"/><path class="cls-3" d="M211.36,102a0.8,0.8,0,0,1,.38.67,1,1,0,0,1-.25.73,0.83,0.83,0,0,1-.61.25,1.9,1.9,0,0,1-.54-0.12,2.26,2.26,0,0,0-.66-0.14,2,2,0,0,0-1.21.43,3.15,3.15,0,0,0-1,1.18,3.73,3.73,0,0,0-.37,1.67v4.82a1,1,0,0,1-.27.68,0.92,0.92,0,0,1-.69.28,0.9,0.9,0,0,1-.68-0.27,1,1,0,0,1-.26-0.69V103a1,1,0,0,1,.27-0.68,0.89,0.89,0,0,1,.67-0.28,0.92,0.92,0,0,1,.69.28,1,1,0,0,1,.27.68v1a3.79,3.79,0,0,1,1.32-1.59,3.55,3.55,0,0,1,2-.63A1.52,1.52,0,0,1,211.36,102Z"/><path class="cls-3" d="M222.45,102.13a1,1,0,0,1,.27.71v8.68a1,1,0,0,1-.27.68,0.92,0.92,0,0,1-.69.28,0.9,0.9,0,0,1-.68-0.27,1,1,0,0,1-.26-0.69V111a4.27,4.27,0,0,1-1.42,1.19,4,4,0,0,1-1.94.49A4.53,4.53,0,0,1,215,112a4.8,4.8,0,0,1-1.74-2,6.58,6.58,0,0,1,0-5.62,4.83,4.83,0,0,1,1.73-2,4.57,4.57,0,0,1,4.39-.26,4.07,4.07,0,0,1,1.45,1.12v-0.48a1,1,0,0,1,.26-0.7,0.88,0.88,0,0,1,.68-0.28A0.93,0.93,0,0,1,222.45,102.13Zm-3.1,8.31a3.24,3.24,0,0,0,1.14-1.32,4.28,4.28,0,0,0,.41-1.9,4.23,4.23,0,0,0-.41-1.88,3.32,3.32,0,0,0-1.14-1.33,2.93,2.93,0,0,0-1.67-.49A3,3,0,0,0,216,104a3.24,3.24,0,0,0-1.14,1.32,4.61,4.61,0,0,0,0,3.8,3.24,3.24,0,0,0,1.14,1.32A3.14,3.14,0,0,0,219.35,110.44Z"/><path class="cls-3" d="M231.66,102a0.8,0.8,0,0,1,.38.67,1,1,0,0,1-.25.73,0.83,0.83,0,0,1-.61.25,1.9,1.9,0,0,1-.54-0.12,2.26,2.26,0,0,0-.66-0.14,2,2,0,0,0-1.21.43,3.15,3.15,0,0,0-1,1.18,3.73,3.73,0,0,0-.37,1.67v4.82a1,1,0,0,1-.27.68,0.92,0.92,0,0,1-.69.28,0.9,0.9,0,0,1-.68-0.27,1,1,0,0,1-.26-0.69V103a1,1,0,0,1,.27-0.68,0.89,0.89,0,0,1,.67-0.28,0.92,0.92,0,0,1,.69.28,1,1,0,0,1,.27.68v1a3.79,3.79,0,0,1,1.32-1.59,3.55,3.55,0,0,1,2-.63A1.52,1.52,0,0,1,231.66,102Z"/><path class="cls-3" d="M235.7,101.59a3.68,3.68,0,0,1-.81,1.1,1.49,1.49,0,0,1-1,.45,0.64,0.64,0,0,1-.78-0.66,0.46,0.46,0,0,1,.13-0.37,0.9,0.9,0,0,1,.33-0.17l0.3-.1a1,1,0,0,0,.56-0.9,0.48,0.48,0,0,0-.17-0.37,0.66,0.66,0,0,0-.45-0.15,1,1,0,0,0-.56.14,0.75,0.75,0,0,1-.3-0.25,0.6,0.6,0,0,1-.08-0.39,1.06,1.06,0,0,1,.51-0.87,1.79,1.79,0,0,1,1.07-.37,1.5,1.5,0,0,1,1.15.46,1.83,1.83,0,0,1,.43,1.3A2.67,2.67,0,0,1,235.7,101.59Zm3.92,0a3.69,3.69,0,0,1-.81,1.1,1.49,1.49,0,0,1-1,.45,0.64,0.64,0,0,1-.78-0.66,0.46,0.46,0,0,1,.13-0.37,0.91,0.91,0,0,1,.33-0.17l0.3-.1a1,1,0,0,0,.56-0.9,0.48,0.48,0,0,0-.17-0.37,0.66,0.66,0,0,0-.45-0.15,1,1,0,0,0-.56.14,0.75,0.75,0,0,1-.3-0.25,0.6,0.6,0,0,1-.08-0.39,1.06,1.06,0,0,1,.51-0.87,1.79,1.79,0,0,1,1.07-.37,1.5,1.5,0,0,1,1.15.46,1.83,1.83,0,0,1,.43,1.3A2.67,2.67,0,0,1,239.62,101.59Z"/><path class="cls-3" d="M242,112.2a1.06,1.06,0,0,1-.25-0.76v-0.38a1,1,0,0,1,.25-0.74,1,1,0,0,1,.73-0.26h0.2a1,1,0,0,1,.75.26,1,1,0,0,1,.25.74v0.38a0.89,0.89,0,0,1-1,1h-0.2A1,1,0,0,1,242,112.2Z"/><g class="cls-4"><path class="cls-5" d="M-9.89,160.49c-15.33-8.64-12.9-42.19,5.41-74.68S41.27,33.88,56.61,42.52s12.9,42.19-5.41,74.68S5.44,169.14-9.89,160.49Z"/><path class="cls-6" d="M49.17,110.43c2.24,2,3.19,5.18,3.71,8.38a59.76,59.76,0,0,1,.26,15.07c-0.47,4.89-1.35,9.78-2.24,14.67q-1.77,9.65-3.59,19.3a116.81,116.81,0,0,1-2.72,12c-1.29,4.28-2.47,10.32-5.84,13.23s-9.22,2.06-11.77-.9c-2.22-2.58-1.84-6.84-1.34-10.64l5.78-44.24c0.41-3.14,2-15.78,2.94-18.87C36.38,111.67,42.34,104.48,49.17,110.43Z"/><path class="cls-6" d="M96.4,164.4c0.14,0.26.59,0.37,1.75-.28s0.89-1.41,1.14-1.52c6.59-2.87,10.54-5.83,15.92-10.68,1.22-1.1,2.48-2.41,2.6-4,0.06-.83.89-2.73,0.62-3.51-0.65-1.88-2.71-2.84-4.63-3.34a5.58,5.58,0,0,0-4.11,1c-1.25.75-2.91,2.63-4.2,3.3-1.1.58-2.52,1.45-2.87,1.31s2.06-2.06,1.4-2.89-2,.14-2.79.76c-2.62,2-4.62,6.21-7.24,8.19-2.4,1.81-1.93.62-1.27,2.83A54.2,54.2,0,0,0,96.4,164.4Z"/><path class="cls-6" d="M28.85,195.61c2.08,1.27,5.14,1,8.1.47,4.51-.89,8.9-3,13.45-5,4.36-1.95,8.68-4.23,13-6.53,5.66-3,13-7.52,14.75-8.48,3.51-2,9.83-5.7,13.26-8,3.69-2.45,9.5-6.13,11.91-9.76a4.13,4.13,0,0,0-1.43-5.71c-2.59-1.14-11.28,1.68-14.68,3.24C77,160.53,65.78,164.8,50.69,172.08c-2.78,1.34-14,6.72-16.66,8.48C28.17,184.42,22.5,191.74,28.85,195.61Z"/><path class="cls-7" d="M42.76,161.38s-2,13.9-8.73,19.18l12-6.21L48.22,163Z"/><path class="cls-6" d="M0.28,81c-2.79-.89-6,0-9,1.21a59.76,59.76,0,0,0-12.91,7.63c-3.91,2.94-7.61,6.24-11.3,9.55q-7.29,6.53-14.54,13.11a117.84,117.84,0,0,0-8.83,8.59c-3,3.33-7.5,7.48-8.26,11.86s2.93,8.92,6.72,9.54c3.31,0.54,6.73-2,9.7-4.41l34.59-28c2.45-2,12.36-9.95,14.51-12.34C5.71,92.57,8.79,83.74.28,81Z"/><path class="cls-6" d="M-35.37,207.14c-4.55-3.49-10.3-5.74-11.85-7.52-0.1-.12-4.87-3.83-5.52-4.46-0.24-.2-5-3.36-5-3.41l-4.09-3.28c-1.17-1.46-3-.14-2.85-1.29s9.64-15.53,10.26-16.55c4.6-7.58,14-13.41,21.65-26.82,6.4-11.3,12.22-37.71,16.33-44.16,3.83-6,7-12.61,8.4-13.94,0.7-.64,5.83-3.74,8.87-3.59a28.17,28.17,0,0,1,6.89.9c2.39,0.82,8.2.85,12.79,3.55,3.47,1.89,4.55,2,7.47,3.84,3,1.52,3.64,2.75,7,4.7,4.58,2.48,7.23,6.81,9.13,8.4a30.86,30.86,0,0,1,4.46,5.5c1.66,2.5,1.61,8.46,1.41,9.39-0.4,1.91-4.43,8-7.58,14.4-3.39,6.85-24,24.94-30.33,36.27C4.52,182.51,4.25,192.41.14,200.26c-0.55,1.06-7.69,16.47-8.52,17.17a6.87,6.87,0,0,1-4.69.89s-1.78-2.4-1.78-2.4-5.09-2.34-5.38-2.43c-0.86-.22-6.4-2.32-6.55-2.34-2.29-.39-3.36-2-8.6-4"/><path class="cls-8" d="M21.64,79.93a21.84,21.84,0,0,1-3.91,6.63,6.21,6.21,0,0,0,.53,1.08c2.71,4.59,10.88,7.72,15.46,8.85,1.9,0.47,3.19.6,3.21,0.34,0.2-2.23,1.73-4.58,2.93-6.11l0-.05h0A20.83,20.83,0,0,1,41.34,89L22.13,78.2c-0.05.24-.11,0.49-0.17,0.73S21.76,79.61,21.64,79.93Z"/><path class="cls-6" d="M70.42,62.85C76.26,52.48,72,39,60.81,32.7s-24.93-3-30.77,7.39A20.11,20.11,0,0,0,28,45.5c-0.21.42-.44,0.84-0.69,1.27a61.07,61.07,0,0,0-5.47,11.67c-2.62,8-2.67,16.75,2.06,24.8A17.94,17.94,0,0,0,30.36,90c3.78,2.09,8.32,2.11,12.29,1.18C55.77,88.15,63.23,76.64,69,65A20.12,20.12,0,0,0,70.42,62.85Z"/><path class="cls-9" d="M-17.84,87C-1.65,75.94,19,85.27,19,85.27L7.68,89.6,1.6,95.1l-27.15,24.58-17.84-12.34A311.15,311.15,0,0,1-17.84,87Z"/><polygon class="cls-10" points="1.6 94.04 -26.55 124.46 -30.85 121.61 1.6 94.04"/><path class="cls-11" d="M-17.43,86.56C-1.54,75.82,19,85.27,19,85.27s-23.07-5.35-33.8,2.28c-2.59,1.84-13.74,11-24.87,20.73l-2.76-1.92A297.55,297.55,0,0,1-17.43,86.56Z"/><path class="cls-9" d="M54.75,128.8c1.08-19.58-17.57-32.38-17.57-32.38l2.14,11.88-1.56,8.05-7,36,19.8,8.88A311.15,311.15,0,0,0,54.75,128.8Z"/><polygon class="cls-10" points="38.66 115.81 27.21 155.64 31.88 157.85 38.66 115.81"/><path class="cls-11" d="M54.92,128.22c1-19.16-17.74-31.8-17.74-31.8s16.52,17,15.55,30.1c-0.23,3.16-2.33,17.47-4.85,32l3.07,1.36A297.55,297.55,0,0,0,54.92,128.22Z"/><path class="cls-12" d="M52.87,157.79l-25-6.46-1.06,4.76L51.35,164a1.93,1.93,0,0,0,2.46-1.36l0.58-2.3A2.13,2.13,0,0,0,52.87,157.79Z"/><path class="cls-9" d="M28.75,150.29S9.36,171,0,203.86c0,0-40.15-15-57.42-31.52,0,0,24.51-24.44,34-53.42l30.51-32L19,85.27s-9.43,9.83,4.19,16.11,14-5,14-5l3.92,15.08Z"/><path class="cls-12" d="M-12.5,135.6l0.93,0.46L-9,137.29a28.08,28.08,0,0,1,7.39,4.83C-1,142.71-.44,143.34.17,144a20.35,20.35,0,0,0,1.91,1.67,19.24,19.24,0,0,0,3.66,2.22,7.32,7.32,0,0,0,1.6.54,3.75,3.75,0,0,0,1.28.05,2.53,2.53,0,0,0,.76-0.24l0.23-.14-0.26.05a2.6,2.6,0,0,1-.74,0A5.32,5.32,0,0,1,6.27,147a31.2,31.2,0,0,1-3-2.65c-0.54-.53-1.07-1.1-1.62-1.72s-1.14-1.29-1.82-2a15.19,15.19,0,0,0-4.44-3,23.55,23.55,0,0,0-4-1.35c-1.17-.28-2.12-0.45-2.78-0.56Z"/><path class="cls-11" d="M40,80c-1.05-.15-2.74-2.81-4-3.38s-0.89-.78-1.66-1.4-2.92-1.55-3.85-3a9.83,9.83,0,0,0,.37,5.15,5.65,5.65,0,0,0,4,3.29A8.8,8.8,0,0,0,40,80Z"/><path class="cls-11" d="M41.26,80.15l-0.16,0L40.62,80c-0.41-.05-1-0.15-1.68-0.3a10,10,0,0,1-1.08-.32,10.27,10.27,0,0,1-1.15-.5,8.85,8.85,0,0,1-1.14-.68,11.27,11.27,0,0,1-1.08-.86,14.53,14.53,0,0,1-3.29-3.89c-0.16-.31-0.3-0.6-0.41-0.86a6.28,6.28,0,0,1-.25-0.7c-0.06-.2-0.11-0.35-0.13-0.46l0-.17,0,0.17a4.45,4.45,0,0,0,.06.48,6.48,6.48,0,0,0,.17.73,6.22,6.22,0,0,0,.33.92,10,10,0,0,0,1.27,2.1,14.88,14.88,0,0,0,1.95,2,12,12,0,0,0,1.13.88,8.13,8.13,0,0,0,1.22.68,7.69,7.69,0,0,0,1.22.45,10.7,10.7,0,0,0,1.13.25,12.39,12.39,0,0,0,1.72.13h0.48Z"/><path class="cls-13" d="M39.4,79.92a14.65,14.65,0,0,1-8.48-7,7.48,7.48,0,0,0,3.14,5.7A7.22,7.22,0,0,0,39.4,79.92Z"/><path class="cls-14" d="M41.86,72.17c-3.78-1.2-4-4-3-5.79C36.15,69.08,37.49,72.1,41.86,72.17Z"/><path class="cls-15" d="M38,55.24a1.64,1.64,0,0,1-.08.94c-0.41,1-1.21,2.9-2.6,2.83-1.66-.09-1.3-2.14-0.78-3.15a3.19,3.19,0,0,1,1.53-1.56A1.35,1.35,0,0,1,38,55.24Z"/><path class="cls-15" d="M38.91,56.41s-0.48-2.85-5.28-3C33.64,53.43,38.72,52.52,38.91,56.41Z"/><path class="cls-15" d="M53.52,64a1.64,1.64,0,0,0-.76.56c-0.68.89-1.86,2.54-1.08,3.69,0.93,1.37,2.51,0,3.1-1a3.19,3.19,0,0,0,.55-2.11A1.35,1.35,0,0,0,53.52,64Z"/><path class="cls-15" d="M52.05,63.82s2.69-1.07,5.28,3C57.33,66.79,55.48,62,52.05,63.82Z"/><path class="cls-7" d="M73.31,82.88a5.38,5.38,0,0,0,1.08-.77,15.89,15.89,0,0,1-1.45,4c-0.15-.42-0.32-0.84-0.51-1.27a3.63,3.63,0,0,0-.63-0.94A10.69,10.69,0,0,1,73.31,82.88Z"/><path class="cls-7" d="M60.26,33.91C71,33.92,79.85,49,76.07,61.32a32.54,32.54,0,0,0-1.4,10l-0.55.13c-1.88-2.67-6.44-3.59-8.58.11a86.14,86.14,0,0,1-5.16,7.58,9.88,9.88,0,0,0-.52-4.8c-2.46-5.74-.49-7,3.11-15.18s-6.33-7.4-8.2-17.32C54.05,37.78,49.54,33.9,60.26,33.91Z"/><path class="cls-7" d="M59.22,72.66a37.94,37.94,0,0,1-20.05,19S50.26,92,60.38,79.17A5.57,5.57,0,0,0,59.22,72.66Z"/><path class="cls-16" d="M45.4,50c-1.54-1.38-4-3.82-8.56-2.88-2.06.42-2.13,1.15,0,.89,3.69-.44,5.08,1.18,7.56,3.29C45.4,52.17,46.45,51,45.4,50Z"/><path class="cls-16" d="M55.06,55.49c2,0.6,5.33,1.43,6.89,5.83,0.7,2,.12,2.41-0.78.42C59.63,58.35,57.53,58,54.44,57,53.24,56.58,53.71,55.08,55.06,55.49Z"/><path class="cls-16" d="M57.38,39.76c1.87,9.91,11.8,9.17,8.2,17.32S60,66.51,62.47,72.26s-2.7,17.42-9.69,23.87-9.35,11.19-9.31,18.25-2,10.93-6.53,15.41-7.09,6.77,7.18,2.46S61.78,117,63.38,105.82s3-9.36,10.22-18.75,1.31-15.49,5.08-27.86S73.59,31.81,62.87,31.8,56.67,35.67,57.38,39.76Z"/><path class="cls-17" d="M64.68,34.84c-1.5,4.94,3.44,9.87,6.38,13s4,7.37.63,11.89-3.45,12.89-2.38,16.7-5.63,14-11.16,19.43c-5.13,5.06-6.84,15.9-7.21,20.25-0.4,4.65-2.23,9.79-5.92,11.78,5-1.06,7.54-5.83,8.29-12s0.08-10.72,7-18.52c8.77-9.87,12.62-13.09,11.37-22-1-7.07-1.54-8.23,1.89-14,3.52-6,4.14-9.24-.06-14S64.41,40.26,64.68,34.84Z"/><path class="cls-16" d="M57.93,40.07c-9.45,3.54-14-5.35-19.06,2s-5.19,9.65-11.38,10.52S14,63.87,12.09,73.19,7.35,87,1.29,90.6-7,98-8.51,104.16s-2.12,9.57-5.82-4.87,3.92-23,12.64-30.16S4.75,61.71,9.05,50.69s12.58-9.14,21.2-18.77,26.08-9.83,31.64-.67S61.79,38.56,57.93,40.07Z"/><path class="cls-17" d="M58.35,31.28c-3.45,3.84-10.22,2.17-14.44,1.29s-8.39.37-10.49,5.62S24.18,47.8,20.36,48.87s-9,12-10.84,19.61C7.85,75.49-.54,82.56-4.07,85.13c-3.77,2.75-7.23,7-7,11.17-1.69-4.85,1.08-9.47,6-13.33S4.05,77.35,7.14,67.39c3.9-12.61,4.66-17.57,13-21.14,6.56-2.82,7.84-2.95,11-8.89,3.28-6.09,5.76-8.33,12-7.18S53.86,34.31,58.35,31.28Z"/></g></svg>