<svg id="Capa_1" data-name="Capa 1" xmlns="http://www.w3.org/2000/svg" xmlns:xlink="http://www.w3.org/1999/xlink" viewBox="0 0 505.36 204.03"><defs><style>.cls-1{fill:none;}.cls-2{fill:#f4aece;}.cls-3{fill:#1d1d1b;opacity:0.8;}.cls-4{clip-path:url(#clip-path);}.cls-5{fill:#5b4d8d;}.cls-14,.cls-16,.cls-17,.cls-5,.cls-7{fill-rule:evenodd;}.cls-6{fill:#fdd481;}.cls-7,.cls-8{fill:#f7bb64;}.cls-9{fill:#ec62a0;}.cls-10{fill:#e3589b;}.cls-11{fill:#ec92bd;}.cls-12{fill:#e34d95;}.cls-13{fill:#fff;}.cls-14{fill:#f7b447;}.cls-15{fill:#29233f;}.cls-16{fill:#6e5aa3;}.cls-17{fill:#7867ac;}</style><clipPath id="clip-path"><rect class="cls-1" x="0.2" y="22.83" width="136" height="188.16" transform="translate(136.41 233.82) rotate(-180)"/></clipPath></defs><title>Dialogo</title><path class="cls-2" d="M79.94,73.44L104,88.53v20.92c0,15.54,11,25.92,26.51,25.92H475.44c15.54,0,29.77-10.38,29.77-25.92V30.36C505.2,14.82,491,0,475.44,0H130.51C115,0,104,14.82,104,30.36V56.22Z"/><path class="cls-3" d="M156.06,43.48a1.06,1.06,0,0,1,.25.75v0.38a1.06,1.06,0,0,1-.25.75,1,1,0,0,1-.73.27h-0.22a0.94,0.94,0,0,1-.73-0.27,1.06,1.06,0,0,1-.25-0.75V44.23a1.06,1.06,0,0,1,.25-0.75,0.94,0.94,0,0,1,.73-0.27h0.22A1,1,0,0,1,156.06,43.48ZM155.81,48l0.44,8a1.14,1.14,0,0,1-.25.86,1.05,1.05,0,0,1-1.55,0,1.16,1.16,0,0,1-.24-0.86l0.42-8a0.75,0.75,0,0,1,.17-0.48,0.53,0.53,0,0,1,.41-0.16A0.57,0.57,0,0,1,155.81,48Z"/><path class="cls-3" d="M169,47.4a3.48,3.48,0,0,1,.71,2.27,3.68,3.68,0,0,1-1.29,3.17,5.16,5.16,0,0,1-3.15,1h-5.14a1,1,0,0,1-1-1V40.75a1,1,0,0,1,1-1h5.14a3.88,3.88,0,0,1,2.77.9,3.41,3.41,0,0,1,1,2.6,3.2,3.2,0,0,1-.46,1.71,3,3,0,0,1-1.34,1.15A4,4,0,0,1,169,47.4Zm-2.58-5.24a2,2,0,0,0-1.43-.49h-3.78v3.9h3.82a2,2,0,0,0,1.36-.53A2.24,2.24,0,0,0,166.46,42.16ZM167,51.38a2.14,2.14,0,0,0,.66-1.71q0-2.22-2.52-2.22h-3.94v4.5h4A2.6,2.6,0,0,0,167,51.38Z"/><path class="cls-3" d="M180.52,43.59a1,1,0,0,1,.27.68v5.32a4.39,4.39,0,1,1-8.76,0V44.27a0.94,0.94,0,0,1,.27-0.68,0.89,0.89,0,0,1,.67-0.28,0.92,0.92,0,0,1,.69.28,0.94,0.94,0,0,1,.27.68v5.32q0,2.62,2.46,2.62a2.47,2.47,0,0,0,1.86-.66,2.71,2.71,0,0,0,.64-2V44.27a1,1,0,0,1,.27-0.68,0.89,0.89,0,0,1,.67-0.28A0.92,0.92,0,0,1,180.52,43.59Z"/><path class="cls-3" d="M192.52,48.76a1,1,0,0,1-.66.25h-7a3.48,3.48,0,0,0,1.11,2.34,3.4,3.4,0,0,0,2.37.88,3.72,3.72,0,0,0,1.56-.28,3.92,3.92,0,0,0,1.06-.72A1.13,1.13,0,0,1,191.5,51a0.76,0.76,0,0,1,.57.24,0.79,0.79,0,0,1,.23.56,1,1,0,0,1-.4.76,4.71,4.71,0,0,1-1.54,1,5.06,5.06,0,0,1-2,.4,5.79,5.79,0,0,1-2.85-.68,4.73,4.73,0,0,1-1.9-1.9,5.63,5.63,0,0,1-.67-2.76,6.08,6.08,0,0,1,.69-2.95,5,5,0,0,1,1.82-2,4.69,4.69,0,0,1,4.83,0,5,5,0,0,1,1.8,1.82,5.2,5.2,0,0,1,.7,2.6A0.86,0.86,0,0,1,192.52,48.76ZM186,45.46a3.1,3.1,0,0,0-1.08,2h5.9V47.25a2.44,2.44,0,0,0-1-1.74,3,3,0,0,0-1.93-.68A3.09,3.09,0,0,0,186,45.46Z"/><path class="cls-3" d="M204,47.39v5.44a0.94,0.94,0,0,1-.27.68,0.92,0.92,0,0,1-.69.28,0.89,0.89,0,0,1-.67-0.28,0.94,0.94,0,0,1-.27-0.68V47.41a3,3,0,0,0-.54-1.88,2.08,2.08,0,0,0-1.76-.7,3,3,0,0,0-1.45.35,2.67,2.67,0,0,0-1,.94,2.38,2.38,0,0,0-.37,1.29v5.42a0.94,0.94,0,0,1-.27.68,0.92,0.92,0,0,1-.69.28,0.9,0.9,0,0,1-.68-0.27,1,1,0,0,1-.26-0.69V44.27a0.94,0.94,0,0,1,.27-0.68,0.89,0.89,0,0,1,.67-0.28,0.92,0.92,0,0,1,.69.28,0.94,0.94,0,0,1,.27.68V45a4.3,4.3,0,0,1,1.45-1.35,3.84,3.84,0,0,1,2-.55Q204,43.07,204,47.39Z"/><path class="cls-3" d="M215.18,45.17v6a0.84,0.84,0,0,0,.9,1,1.44,1.44,0,0,0,.38-0.07,1.46,1.46,0,0,1,.38-0.07,0.55,0.55,0,0,1,.44.22,0.84,0.84,0,0,1-.3,1.28,2,2,0,0,1-1.08.3,4.88,4.88,0,0,1-1.21-.14,1.79,1.79,0,0,1-1-.71,2.86,2.86,0,0,1-.43-1.73v-6h-1.16a0.85,0.85,0,0,1-.88-0.88,0.82,0.82,0,0,1,.25-0.62,0.87,0.87,0,0,1,.63-0.24h1.16V41.75a1,1,0,0,1,.27-0.68,0.92,0.92,0,0,1,.69-0.28,0.89,0.89,0,0,1,.67.28,1,1,0,0,1,.27.68v1.68h1.66a0.85,0.85,0,0,1,.88.88,0.82,0.82,0,0,1-.25.62,0.87,0.87,0,0,1-.63.24h-1.66Z"/><path class="cls-3" d="M226.06,43.34a0.8,0.8,0,0,1,.38.67,1,1,0,0,1-.25.73,0.83,0.83,0,0,1-.61.25,1.9,1.9,0,0,1-.54-0.12,2.25,2.25,0,0,0-.66-0.14,2,2,0,0,0-1.21.43,3.14,3.14,0,0,0-1,1.18,3.73,3.73,0,0,0-.37,1.67v4.82a0.94,0.94,0,0,1-.27.68,0.92,0.92,0,0,1-.69.28,0.9,0.9,0,0,1-.68-0.27,1,1,0,0,1-.26-0.69V44.27a0.94,0.94,0,0,1,.27-0.68,0.89,0.89,0,0,1,.67-0.28,0.92,0.92,0,0,1,.69.28,0.94,0.94,0,0,1,.27.68v1a3.79,3.79,0,0,1,1.32-1.59,3.54,3.54,0,0,1,2-.63A1.52,1.52,0,0,1,226.06,43.34Z"/><path class="cls-3" d="M237.15,43.44a1,1,0,0,1,.27.71v8.68a0.94,0.94,0,0,1-.27.68,0.92,0.92,0,0,1-.69.28,0.9,0.9,0,0,1-.68-0.27,1,1,0,0,1-.26-0.69V52.31a4.28,4.28,0,0,1-1.42,1.19,4,4,0,0,1-1.94.49,4.53,4.53,0,0,1-2.47-.7,4.8,4.8,0,0,1-1.74-2,6.58,6.58,0,0,1,0-5.62,4.83,4.83,0,0,1,1.73-2,4.57,4.57,0,0,1,4.39-.26,4.08,4.08,0,0,1,1.45,1.12V44.15a1,1,0,0,1,.26-0.7,0.88,0.88,0,0,1,.68-0.28A0.93,0.93,0,0,1,237.15,43.44Zm-3.1,8.31a3.24,3.24,0,0,0,1.14-1.32,4.27,4.27,0,0,0,.41-1.9,4.23,4.23,0,0,0-.41-1.88,3.32,3.32,0,0,0-1.14-1.33,2.93,2.93,0,0,0-1.67-.49,3,3,0,0,0-1.67.48,3.24,3.24,0,0,0-1.14,1.32,4.61,4.61,0,0,0,0,3.8,3.24,3.24,0,0,0,1.14,1.32A3.14,3.14,0,0,0,234.05,51.75Z"/><path class="cls-3" d="M248,43.77a4.85,4.85,0,0,1,1.73,1.94,6.1,6.1,0,0,1,.63,2.8,6.22,6.22,0,0,1-.63,2.82,4.82,4.82,0,0,1-1.73,2,4.42,4.42,0,0,1-2.42.7,4.21,4.21,0,0,1-1.94-.46,4.53,4.53,0,0,1-1.46-1.14V53a0.94,0.94,0,0,1-.27.68,1,1,0,0,1-1.36,0,0.93,0.93,0,0,1-.27-0.69v-13a1,1,0,0,1,.26-0.69,0.9,0.9,0,0,1,.68-0.27,0.92,0.92,0,0,1,.69.28,0.94,0.94,0,0,1,.27.68v4.88a4,4,0,0,1,1.4-1.24,3.92,3.92,0,0,1,2-.52A4.49,4.49,0,0,1,248,43.77Zm-1,8a3.28,3.28,0,0,0,1.15-1.34,4.3,4.3,0,0,0,.41-1.89,4.24,4.24,0,0,0-.41-1.88,3.22,3.22,0,0,0-1.15-1.32,3,3,0,0,0-1.66-.48,3,3,0,0,0-1.68.48,3.23,3.23,0,0,0-1.15,1.31,4.21,4.21,0,0,0-.41,1.89,4.27,4.27,0,0,0,.41,1.9,3.29,3.29,0,0,0,1.15,1.33,3,3,0,0,0,1.68.49A2.94,2.94,0,0,0,246.94,51.74Z"/><path class="cls-3" d="M261.71,43.44a1,1,0,0,1,.27.71v8.68a0.94,0.94,0,0,1-.27.68,0.92,0.92,0,0,1-.69.28,0.9,0.9,0,0,1-.68-0.27,1,1,0,0,1-.26-0.69V52.31a4.28,4.28,0,0,1-1.42,1.19,4,4,0,0,1-1.94.49,4.53,4.53,0,0,1-2.47-.7,4.8,4.8,0,0,1-1.74-2,6.58,6.58,0,0,1,0-5.62,4.83,4.83,0,0,1,1.73-2,4.57,4.57,0,0,1,4.39-.26,4.08,4.08,0,0,1,1.45,1.12V44.15a1,1,0,0,1,.26-0.7,0.88,0.88,0,0,1,.68-0.28A0.93,0.93,0,0,1,261.71,43.44Zm-3.1,8.31a3.24,3.24,0,0,0,1.14-1.32,4.27,4.27,0,0,0,.41-1.9,4.23,4.23,0,0,0-.41-1.88,3.32,3.32,0,0,0-1.14-1.33,2.93,2.93,0,0,0-1.67-.49,3,3,0,0,0-1.67.48,3.24,3.24,0,0,0-1.14,1.32,4.61,4.61,0,0,0,0,3.8,3.24,3.24,0,0,0,1.14,1.32A3.14,3.14,0,0,0,258.61,51.75Z"/><path class="cls-3" d="M263.23,57.47a0.87,0.87,0,0,1-.25-0.62V56.67a0.88,0.88,0,0,1,.82-0.86,1.81,1.81,0,0,0,1.28-2V44.27a0.94,0.94,0,0,1,.27-0.68,0.92,0.92,0,0,1,.69-0.28,0.89,0.89,0,0,1,.67.28,1,1,0,0,1,.27.68v10a3.71,3.71,0,0,1-.43,1.82,3.07,3.07,0,0,1-1.15,1.2,3,3,0,0,1-1.54.42A0.84,0.84,0,0,1,263.23,57.47Zm2-15.79a0.83,0.83,0,0,1-.25-0.67V40.69a0.79,0.79,0,0,1,.27-0.68,1.4,1.4,0,0,1,.83-0.2,1.26,1.26,0,0,1,.81.21,0.83,0.83,0,0,1,.25.67V41a0.81,0.81,0,0,1-.26.68,1.35,1.35,0,0,1-.82.2A1.29,1.29,0,0,1,265.19,41.68Z"/><path class="cls-3" d="M279.24,51.35a5.09,5.09,0,0,1-1.91,1.94,5.44,5.44,0,0,1-5.34,0,5.08,5.08,0,0,1-1.91-1.94,5.6,5.6,0,0,1-.7-2.8,5.71,5.71,0,0,1,.7-2.82,5,5,0,0,1,1.91-2,5.44,5.44,0,0,1,5.34,0,5.05,5.05,0,0,1,1.91,2,5.71,5.71,0,0,1,.7,2.82A5.6,5.6,0,0,1,279.24,51.35Zm-1.65-4.73a3.35,3.35,0,0,0-1.22-1.32,3.35,3.35,0,0,0-3.42,0,3.34,3.34,0,0,0-1.22,1.32,4.06,4.06,0,0,0-.45,1.93,4,4,0,0,0,.45,1.9A3.36,3.36,0,0,0,273,51.76a3.35,3.35,0,0,0,3.42,0,3.36,3.36,0,0,0,1.22-1.31,4,4,0,0,0,.45-1.9A4.06,4.06,0,0,0,277.59,46.62Z"/><path class="cls-3" d="M282.21,53.52a1.06,1.06,0,0,1-.25-0.75V52.39a1.06,1.06,0,0,1,.25-0.75,0.94,0.94,0,0,1,.73-0.27h0.22a1,1,0,0,1,.73.27,1.06,1.06,0,0,1,.25.75v0.38a1.06,1.06,0,0,1-.25.75,1,1,0,0,1-.73.27h-0.22A0.94,0.94,0,0,1,282.21,53.52Zm0.25-4.57L282,41a1.14,1.14,0,0,1,.25-0.86,1.05,1.05,0,0,1,1.55,0,1.16,1.16,0,0,1,.24.86l-0.42,8a0.75,0.75,0,0,1-.17.48,0.53,0.53,0,0,1-.41.16A0.57,0.57,0,0,1,282.46,48.95Z"/><path class="cls-3" d="M300.14,40.36a4.12,4.12,0,0,1,1.43,1.55,4.47,4.47,0,0,1,.53,2.16,4.59,4.59,0,0,1-.53,2.18,4.15,4.15,0,0,1-1.43,1.58,3.55,3.55,0,0,1-2,.58h-3.76v4.42a1,1,0,0,1-.26.68,0.94,0.94,0,0,1-1.33,0,1,1,0,0,1-.25-0.69V40.75a1,1,0,0,1,1-1h4.64A3.59,3.59,0,0,1,300.14,40.36Zm-1,5.88a2.44,2.44,0,0,0,.73-0.93,2.91,2.91,0,0,0,.27-1.24,2.62,2.62,0,0,0-.59-1.73,1.78,1.78,0,0,0-1.41-.71h-3.76v5h3.76A1.62,1.62,0,0,0,299.18,46.24Z"/><path class="cls-3" d="M313.43,43.44a1,1,0,0,1,.27.71v8.68a0.94,0.94,0,0,1-.27.68,0.92,0.92,0,0,1-.69.28,0.9,0.9,0,0,1-.68-0.27,1,1,0,0,1-.26-0.69V52.31a4.28,4.28,0,0,1-1.42,1.19,4,4,0,0,1-1.94.49,4.53,4.53,0,0,1-2.47-.7,4.8,4.8,0,0,1-1.74-2,6.58,6.58,0,0,1,0-5.62,4.83,4.83,0,0,1,1.73-2,4.57,4.57,0,0,1,4.39-.26,4.08,4.08,0,0,1,1.45,1.12V44.15a1,1,0,0,1,.26-0.7,0.88,0.88,0,0,1,.68-0.28A0.93,0.93,0,0,1,313.43,43.44Zm-3.1,8.31a3.24,3.24,0,0,0,1.14-1.32,4.27,4.27,0,0,0,.41-1.9,4.23,4.23,0,0,0-.41-1.88,3.32,3.32,0,0,0-1.14-1.33,2.93,2.93,0,0,0-1.67-.49,3,3,0,0,0-1.67.48,3.24,3.24,0,0,0-1.14,1.32,4.61,4.61,0,0,0,0,3.8A3.24,3.24,0,0,0,307,51.75,3.14,3.14,0,0,0,310.33,51.75Z"/><path class="cls-3" d="M322.64,43.34A0.8,0.8,0,0,1,323,44a1,1,0,0,1-.25.73,0.83,0.83,0,0,1-.61.25,1.9,1.9,0,0,1-.54-0.12,2.25,2.25,0,0,0-.66-0.14,2,2,0,0,0-1.21.43,3.14,3.14,0,0,0-1,1.18,3.73,3.73,0,0,0-.37,1.67v4.82a0.94,0.94,0,0,1-.27.68,0.92,0.92,0,0,1-.69.28,0.9,0.9,0,0,1-.68-0.27,1,1,0,0,1-.26-0.69V44.27a0.94,0.94,0,0,1,.27-0.68,0.89,0.89,0,0,1,.67-0.28,0.92,0.92,0,0,1,.69.28,0.94,0.94,0,0,1,.27.68v1a3.79,3.79,0,0,1,1.32-1.59,3.54,3.54,0,0,1,2-.63A1.52,1.52,0,0,1,322.64,43.34Z"/><path class="cls-3" d="M333.73,43.44a1,1,0,0,1,.27.71v8.68a0.94,0.94,0,0,1-.27.68,0.92,0.92,0,0,1-.69.28,0.9,0.9,0,0,1-.68-0.27,1,1,0,0,1-.26-0.69V52.31a4.28,4.28,0,0,1-1.42,1.19,4,4,0,0,1-1.94.49,4.53,4.53,0,0,1-2.47-.7,4.8,4.8,0,0,1-1.74-2,6.58,6.58,0,0,1,0-5.62,4.83,4.83,0,0,1,1.73-2,4.57,4.57,0,0,1,4.39-.26,4.08,4.08,0,0,1,1.45,1.12V44.15a1,1,0,0,1,.26-0.7,0.88,0.88,0,0,1,.68-0.28A0.93,0.93,0,0,1,333.73,43.44Zm-3.1,8.31a3.24,3.24,0,0,0,1.14-1.32,4.27,4.27,0,0,0,.41-1.9,4.23,4.23,0,0,0-.41-1.88,3.32,3.32,0,0,0-1.14-1.33,2.93,2.93,0,0,0-1.67-.49,3,3,0,0,0-1.67.48,3.24,3.24,0,0,0-1.14,1.32,4.61,4.61,0,0,0,0,3.8,3.24,3.24,0,0,0,1.14,1.32A3.14,3.14,0,0,0,330.63,51.75Z"/><path class="cls-3" d="M341.58,51.61a0.81,0.81,0,0,1,.42-0.68,0.78,0.78,0,0,1,.46-0.14,0.92,0.92,0,0,1,.66.3,4.21,4.21,0,0,0,1.29,1,3.69,3.69,0,0,0,1.65.34,2.82,2.82,0,0,0,1.34-.35A1.14,1.14,0,0,0,348,51a1.15,1.15,0,0,0-.59-1,6.72,6.72,0,0,0-1.73-.66,12.78,12.78,0,0,1-1.86-.63,3.34,3.34,0,0,1-1.25-1,2.81,2.81,0,0,1,0-3.23,3.39,3.39,0,0,1,1.36-1.06,4.48,4.48,0,0,1,1.85-.38,5.35,5.35,0,0,1,1.91.36,3.59,3.59,0,0,1,1.55,1.1,0.88,0.88,0,0,1,.24.58,0.86,0.86,0,0,1-.32.62,0.72,0.72,0,0,1-.5.18,0.75,0.75,0,0,1-.58-0.24,2.82,2.82,0,0,0-1-.74,3.41,3.41,0,0,0-1.35-.26,2.51,2.51,0,0,0-1.29.31,1.12,1.12,0,0,0-.53,1.05,1.16,1.16,0,0,0,.61,1,7.72,7.72,0,0,0,1.81.66,11.2,11.2,0,0,1,1.76.6,3.07,3.07,0,0,1,1.18,1,2.65,2.65,0,0,1,.48,1.65,2.57,2.57,0,0,1-.54,1.63,3.48,3.48,0,0,1-1.41,1.06,4.68,4.68,0,0,1-1.85.37,6.07,6.07,0,0,1-2.33-.44,4.34,4.34,0,0,1-1.81-1.4A1,1,0,0,1,341.58,51.61Z"/><path class="cls-3" d="M360.8,48.76a1,1,0,0,1-.66.25h-7a3.48,3.48,0,0,0,1.11,2.34,3.4,3.4,0,0,0,2.37.88,3.72,3.72,0,0,0,1.56-.28,3.92,3.92,0,0,0,1.06-.72,1.13,1.13,0,0,1,.58-0.18,0.76,0.76,0,0,1,.57.24,0.79,0.79,0,0,1,.23.56,1,1,0,0,1-.4.76,4.71,4.71,0,0,1-1.54,1,5.06,5.06,0,0,1-2,.4,5.79,5.79,0,0,1-2.85-.68,4.73,4.73,0,0,1-1.9-1.9,5.63,5.63,0,0,1-.67-2.76A6.08,6.08,0,0,1,352,45.7a5,5,0,0,1,1.82-2,4.69,4.69,0,0,1,4.83,0,5,5,0,0,1,1.8,1.82,5.2,5.2,0,0,1,.7,2.6A0.86,0.86,0,0,1,360.8,48.76Zm-6.54-3.3a3.1,3.1,0,0,0-1.08,2h5.9V47.25a2.44,2.44,0,0,0-1-1.74,3,3,0,0,0-1.93-.68A3.09,3.09,0,0,0,354.26,45.46Z"/><path class="cls-3" d="M372.65,43.44a1,1,0,0,1,.27.71v8.8a5,5,0,0,1-.69,2.71,4.15,4.15,0,0,1-1.87,1.61,6.53,6.53,0,0,1-2.66.52,7.53,7.53,0,0,1-1.87-.28,3.33,3.33,0,0,1-1.37-.58,0.93,0.93,0,0,1-.62-0.8,0.91,0.91,0,0,1,.08-0.32,0.76,0.76,0,0,1,.74-0.5,1.51,1.51,0,0,1,.56.12,7.52,7.52,0,0,0,2.5.62,3.53,3.53,0,0,0,2.45-.77,2.71,2.71,0,0,0,.85-2.11V52.09a3.48,3.48,0,0,1-1.41,1.34,4.19,4.19,0,0,1-2.09.56,4.72,4.72,0,0,1-2.52-.7,4.87,4.87,0,0,1-1.79-2,6.39,6.39,0,0,1,0-5.62,4.89,4.89,0,0,1,1.78-2,4.64,4.64,0,0,1,2.49-.7A4.55,4.55,0,0,1,371,44.79V44.15a1,1,0,0,1,.26-0.7,0.89,0.89,0,0,1,.68-0.28A0.94,0.94,0,0,1,372.65,43.44Zm-3.17,8.32a3.23,3.23,0,0,0,1.19-1.32,4.17,4.17,0,0,0,.43-1.91,4.11,4.11,0,0,0-.43-1.9,3.31,3.31,0,0,0-1.19-1.32,3.19,3.19,0,0,0-1.74-.48,3.15,3.15,0,0,0-1.72.48,3.29,3.29,0,0,0-1.19,1.33,4.37,4.37,0,0,0,0,3.78A3.29,3.29,0,0,0,366,51.75a3.15,3.15,0,0,0,1.72.48A3.24,3.24,0,0,0,369.48,51.76Z"/><path class="cls-3" d="M384.07,43.59a1,1,0,0,1,.27.68v5.32a4.39,4.39,0,1,1-8.76,0V44.27a0.94,0.94,0,0,1,.27-0.68,0.89,0.89,0,0,1,.67-0.28,0.92,0.92,0,0,1,.69.28,1,1,0,0,1,.27.68v5.32q0,2.62,2.46,2.62a2.47,2.47,0,0,0,1.86-.66,2.71,2.71,0,0,0,.64-2V44.27a1,1,0,0,1,.27-0.68,0.89,0.89,0,0,1,.67-0.28A0.92,0.92,0,0,1,384.07,43.59Z"/><path class="cls-3" d="M387.19,41.68a0.83,0.83,0,0,1-.25-0.67V40.69a0.79,0.79,0,0,1,.27-0.68,1.4,1.4,0,0,1,.83-0.2,1.25,1.25,0,0,1,.81.21,0.83,0.83,0,0,1,.25.67V41a0.81,0.81,0,0,1-.26.68,1.35,1.35,0,0,1-.82.2A1.3,1.3,0,0,1,387.19,41.68Zm1.52,11.83a0.92,0.92,0,0,1-.69.28,0.89,0.89,0,0,1-.67-0.28,1,1,0,0,1-.27-0.68V44.17a0.94,0.94,0,0,1,.27-0.68,0.89,0.89,0,0,1,.67-0.28,0.92,0.92,0,0,1,.69.28,0.94,0.94,0,0,1,.27.68v8.66A1,1,0,0,1,388.71,53.51Z"/><path class="cls-3" d="M397.84,43.34a0.8,0.8,0,0,1,.38.67,1,1,0,0,1-.25.73,0.83,0.83,0,0,1-.61.25,1.91,1.91,0,0,1-.54-0.12,2.25,2.25,0,0,0-.66-0.14,2,2,0,0,0-1.21.43,3.14,3.14,0,0,0-1,1.18,3.72,3.72,0,0,0-.37,1.67v4.82a0.94,0.94,0,0,1-.27.68,0.92,0.92,0,0,1-.69.28,0.9,0.9,0,0,1-.68-0.27,1,1,0,0,1-.26-0.69V44.27a0.94,0.94,0,0,1,.27-0.68,0.89,0.89,0,0,1,.67-0.28,0.92,0.92,0,0,1,.69.28,0.94,0.94,0,0,1,.27.68v1a3.78,3.78,0,0,1,1.32-1.59,3.55,3.55,0,0,1,2-.63A1.52,1.52,0,0,1,397.84,43.34Z"/><path class="cls-3" d="M412.71,43.57a1.49,1.49,0,0,1,1,1.28,0.94,0.94,0,0,1-.22.61,0.69,0.69,0,0,1-.56.27,0.88,0.88,0,0,1-.41-0.08,4.57,4.57,0,0,1-.41-0.26,2.11,2.11,0,0,0-.38-0.28,2.64,2.64,0,0,0-.68-0.2,4.51,4.51,0,0,0-.8-0.08,3.51,3.51,0,0,0-1.84.48,3.26,3.26,0,0,0-1.24,1.33,4,4,0,0,0-.44,1.89,4.1,4.1,0,0,0,.43,1.9,3.25,3.25,0,0,0,1.21,1.32,3.33,3.33,0,0,0,1.78.48,3.77,3.77,0,0,0,1.68-.32,4,4,0,0,0,.38-0.26,2.37,2.37,0,0,1,.35-0.24,0.78,0.78,0,0,1,.37-0.08,0.81,0.81,0,0,1,.63.25,0.92,0.92,0,0,1,.23.65,1.11,1.11,0,0,1-.53.83,4.26,4.26,0,0,1-1.42.67A6.79,6.79,0,0,1,410,54a5,5,0,0,1-2.68-.71,4.75,4.75,0,0,1-1.79-2,6.11,6.11,0,0,1-.63-2.79,5.88,5.88,0,0,1,.66-2.79,4.91,4.91,0,0,1,1.84-2,5.13,5.13,0,0,1,2.7-.71A6.11,6.11,0,0,1,412.71,43.57Z"/><path class="cls-3" d="M425,51.35a5.09,5.09,0,0,1-1.91,1.94,5.44,5.44,0,0,1-5.34,0,5.08,5.08,0,0,1-1.91-1.94,5.59,5.59,0,0,1-.7-2.8,5.7,5.7,0,0,1,.7-2.82,5,5,0,0,1,1.91-2,5.44,5.44,0,0,1,5.34,0,5.05,5.05,0,0,1,1.91,2,5.71,5.71,0,0,1,.7,2.82A5.6,5.6,0,0,1,425,51.35Zm-1.65-4.73a3.34,3.34,0,0,0-1.22-1.32,3.35,3.35,0,0,0-3.42,0,3.34,3.34,0,0,0-1.22,1.32,4.06,4.06,0,0,0-.45,1.93,4,4,0,0,0,.45,1.9,3.36,3.36,0,0,0,1.22,1.31,3.35,3.35,0,0,0,3.42,0,3.35,3.35,0,0,0,1.22-1.31,4,4,0,0,0,.45-1.9A4.06,4.06,0,0,0,423.37,46.62Z"/><path class="cls-3" d="M436.86,47.39v5.44a1,1,0,0,1-.27.68,0.92,0.92,0,0,1-.69.28,0.89,0.89,0,0,1-.67-0.28,0.94,0.94,0,0,1-.27-0.68V47.41a3,3,0,0,0-.54-1.88,2.09,2.09,0,0,0-1.76-.7,3,3,0,0,0-1.45.35,2.67,2.67,0,0,0-1,.94,2.38,2.38,0,0,0-.37,1.29v5.42a0.94,0.94,0,0,1-.27.68,0.92,0.92,0,0,1-.69.28,0.9,0.9,0,0,1-.68-0.27,1,1,0,0,1-.26-0.69V44.27a0.94,0.94,0,0,1,.27-0.68,0.89,0.89,0,0,1,.67-0.28,0.92,0.92,0,0,1,.69.28,0.94,0.94,0,0,1,.27.68V45a4.31,4.31,0,0,1,1.45-1.35,3.84,3.84,0,0,1,2-.55Q436.86,43.07,436.86,47.39Z"/><path class="cls-3" d="M447,53.51a0.93,0.93,0,0,1-.68.28,0.89,0.89,0,0,1-.67-0.28,1,1,0,0,1-.27-0.68V39.95a1,1,0,0,1,1-1,0.89,0.89,0,0,1,.67.28,1,1,0,0,1,.27.68V52.83A0.93,0.93,0,0,1,447,53.51Z"/><path class="cls-3" d="M459.49,43.44a1,1,0,0,1,.27.71v8.68a1,1,0,0,1-.27.68,0.92,0.92,0,0,1-.69.28,0.9,0.9,0,0,1-.68-0.27,1,1,0,0,1-.26-0.69V52.31a4.29,4.29,0,0,1-1.42,1.19,4,4,0,0,1-1.94.49,4.53,4.53,0,0,1-2.47-.7,4.8,4.8,0,0,1-1.74-2,6.58,6.58,0,0,1,0-5.62,4.83,4.83,0,0,1,1.73-2,4.42,4.42,0,0,1,2.42-.7,4.47,4.47,0,0,1,2,.44,4.09,4.09,0,0,1,1.45,1.12V44.15a1,1,0,0,1,.26-0.7,0.88,0.88,0,0,1,.68-0.28A0.94,0.94,0,0,1,459.49,43.44Zm-3.1,8.31a3.25,3.25,0,0,0,1.14-1.32,4.29,4.29,0,0,0,.41-1.9,4.24,4.24,0,0,0-.41-1.88,3.33,3.33,0,0,0-1.14-1.33,2.93,2.93,0,0,0-1.67-.49,3,3,0,0,0-1.67.48,3.24,3.24,0,0,0-1.14,1.32,4.61,4.61,0,0,0,0,3.8,3.24,3.24,0,0,0,1.14,1.32A3.14,3.14,0,0,0,456.39,51.75Z"/><path class="cls-3" d="M153.53,75.61a0.81,0.81,0,0,1,.42-0.68,0.78,0.78,0,0,1,.46-0.14,0.92,0.92,0,0,1,.66.3,4.21,4.21,0,0,0,1.29,1,3.69,3.69,0,0,0,1.65.34,2.82,2.82,0,0,0,1.34-.35,1.14,1.14,0,0,0,.58-1.07,1.15,1.15,0,0,0-.59-1,6.72,6.72,0,0,0-1.73-.66,12.78,12.78,0,0,1-1.86-.63,3.34,3.34,0,0,1-1.25-1,2.81,2.81,0,0,1,0-3.23,3.39,3.39,0,0,1,1.36-1.06,4.48,4.48,0,0,1,1.85-.38,5.35,5.35,0,0,1,1.91.36,3.59,3.59,0,0,1,1.55,1.1,0.88,0.88,0,0,1,.24.58,0.86,0.86,0,0,1-.32.62,0.72,0.72,0,0,1-.5.18,0.75,0.75,0,0,1-.58-0.24,2.82,2.82,0,0,0-1-.74,3.41,3.41,0,0,0-1.35-.26,2.51,2.51,0,0,0-1.29.31,1.12,1.12,0,0,0-.53,1.05,1.16,1.16,0,0,0,.61,1,7.72,7.72,0,0,0,1.81.66,11.2,11.2,0,0,1,1.76.6,3.07,3.07,0,0,1,1.18,1,2.65,2.65,0,0,1,.48,1.65,2.57,2.57,0,0,1-.54,1.63,3.48,3.48,0,0,1-1.41,1.06,4.68,4.68,0,0,1-1.85.37,6.07,6.07,0,0,1-2.33-.44,4.34,4.34,0,0,1-1.81-1.4A1,1,0,0,1,153.53,75.61Z"/><path class="cls-3" d="M163.85,65.68A0.83,0.83,0,0,1,163.6,65V64.69a0.79,0.79,0,0,1,.27-0.68,1.4,1.4,0,0,1,.83-0.2,1.25,1.25,0,0,1,.81.21,0.83,0.83,0,0,1,.25.67V65a0.81,0.81,0,0,1-.26.68,1.35,1.35,0,0,1-.82.2A1.29,1.29,0,0,1,163.85,65.68Zm1.52,11.83a0.92,0.92,0,0,1-.69.28,0.89,0.89,0,0,1-.67-0.28,1,1,0,0,1-.27-0.68V68.17a0.94,0.94,0,0,1,.27-0.68,0.89,0.89,0,0,1,.67-0.28,0.92,0.92,0,0,1,.69.28,0.94,0.94,0,0,1,.27.68v8.66A1,1,0,0,1,165.37,77.51Z"/><path class="cls-3" d="M177.83,67.44a1,1,0,0,1,.27.71v8.8a5,5,0,0,1-.69,2.71,4.15,4.15,0,0,1-1.87,1.61,6.53,6.53,0,0,1-2.66.52,7.53,7.53,0,0,1-1.87-.28,3.33,3.33,0,0,1-1.37-.58,0.93,0.93,0,0,1-.62-0.8,0.91,0.91,0,0,1,.08-0.32,0.76,0.76,0,0,1,.74-0.5,1.51,1.51,0,0,1,.56.12,7.52,7.52,0,0,0,2.5.62,3.53,3.53,0,0,0,2.45-.77,2.71,2.71,0,0,0,.85-2.11V76.09a3.48,3.48,0,0,1-1.41,1.34,4.19,4.19,0,0,1-2.09.56,4.72,4.72,0,0,1-2.52-.7,4.87,4.87,0,0,1-1.79-2,6.39,6.39,0,0,1,0-5.62,4.89,4.89,0,0,1,1.78-2,4.64,4.64,0,0,1,2.49-.7,4.55,4.55,0,0,1,3.54,1.72V68.15a1,1,0,0,1,.26-0.7,0.89,0.89,0,0,1,.68-0.28A0.94,0.94,0,0,1,177.83,67.44Zm-3.17,8.32a3.23,3.23,0,0,0,1.19-1.32,4.17,4.17,0,0,0,.43-1.91,4.11,4.11,0,0,0-.43-1.9,3.31,3.31,0,0,0-1.19-1.32,3.19,3.19,0,0,0-1.74-.48,3.15,3.15,0,0,0-1.72.48A3.29,3.29,0,0,0,170,70.64a4.37,4.37,0,0,0,0,3.78,3.29,3.29,0,0,0,1.19,1.33,3.15,3.15,0,0,0,1.72.48A3.24,3.24,0,0,0,174.67,75.76Z"/><path class="cls-3" d="M189.25,67.59a1,1,0,0,1,.27.68v5.32a4.39,4.39,0,1,1-8.76,0V68.27a0.94,0.94,0,0,1,.27-0.68,0.89,0.89,0,0,1,.67-0.28,0.92,0.92,0,0,1,.69.28,0.94,0.94,0,0,1,.27.68v5.32q0,2.62,2.46,2.62a2.47,2.47,0,0,0,1.86-.66,2.71,2.71,0,0,0,.64-2V68.27a1,1,0,0,1,.27-0.68,0.89,0.89,0,0,1,.67-0.28A0.92,0.92,0,0,1,189.25,67.59Z"/><path class="cls-3" d="M192.37,65.68a0.83,0.83,0,0,1-.25-0.67V64.69a0.79,0.79,0,0,1,.27-0.68,1.4,1.4,0,0,1,.83-0.2A1.25,1.25,0,0,1,194,64a0.83,0.83,0,0,1,.25.67V65a0.81,0.81,0,0,1-.26.68,1.35,1.35,0,0,1-.82.2A1.29,1.29,0,0,1,192.37,65.68Zm1.52,11.83a0.92,0.92,0,0,1-.69.28,0.89,0.89,0,0,1-.67-0.28,1,1,0,0,1-.27-0.68V68.17a0.94,0.94,0,0,1,.27-0.68,0.89,0.89,0,0,1,.67-0.28,0.92,0.92,0,0,1,.69.28,0.94,0.94,0,0,1,.27.68v8.66A1,1,0,0,1,193.89,77.51Z"/><path class="cls-3" d="M205.8,72.76a1,1,0,0,1-.66.25h-7a3.48,3.48,0,0,0,1.11,2.34,3.4,3.4,0,0,0,2.37.88,3.72,3.72,0,0,0,1.56-.28,3.92,3.92,0,0,0,1.06-.72,1.13,1.13,0,0,1,.58-0.18,0.76,0.76,0,0,1,.57.24,0.79,0.79,0,0,1,.23.56,1,1,0,0,1-.4.76,4.71,4.71,0,0,1-1.54,1,5.06,5.06,0,0,1-2,.4,5.79,5.79,0,0,1-2.85-.68,4.73,4.73,0,0,1-1.9-1.9,5.63,5.63,0,0,1-.67-2.76A6.08,6.08,0,0,1,197,69.7a5,5,0,0,1,1.82-2,4.69,4.69,0,0,1,4.83,0,5,5,0,0,1,1.8,1.82,5.2,5.2,0,0,1,.7,2.6A0.86,0.86,0,0,1,205.8,72.76Zm-6.54-3.3a3.1,3.1,0,0,0-1.08,2h5.9V71.25a2.44,2.44,0,0,0-1-1.74,3,3,0,0,0-1.93-.68A3.09,3.09,0,0,0,199.26,69.46Z"/><path class="cls-3" d="M217.24,71.39v5.44a0.94,0.94,0,0,1-.27.68,0.92,0.92,0,0,1-.69.28,0.89,0.89,0,0,1-.67-0.28,0.94,0.94,0,0,1-.27-0.68V71.41a3,3,0,0,0-.54-1.88,2.08,2.08,0,0,0-1.76-.7,3,3,0,0,0-1.45.35,2.67,2.67,0,0,0-1,.94,2.38,2.38,0,0,0-.37,1.29v5.42a0.94,0.94,0,0,1-.27.68,0.92,0.92,0,0,1-.69.28,0.9,0.9,0,0,1-.68-0.27,1,1,0,0,1-.26-0.69V68.27a0.94,0.94,0,0,1,.27-0.68,0.89,0.89,0,0,1,.67-0.28,0.92,0.92,0,0,1,.69.28,0.94,0.94,0,0,1,.27.68V69a4.3,4.3,0,0,1,1.45-1.35,3.84,3.84,0,0,1,2-.55Q217.25,67.07,217.24,71.39Z"/><path class="cls-3" d="M222.92,69.17v6a0.84,0.84,0,0,0,.9,1,1.44,1.44,0,0,0,.38-0.07,1.46,1.46,0,0,1,.38-0.07,0.55,0.55,0,0,1,.44.22,0.84,0.84,0,0,1-.3,1.28,2,2,0,0,1-1.08.3,4.88,4.88,0,0,1-1.21-.14,1.79,1.79,0,0,1-1-.71,2.86,2.86,0,0,1-.43-1.73v-6h-1.16a0.85,0.85,0,0,1-.88-0.88,0.82,0.82,0,0,1,.25-0.62,0.87,0.87,0,0,1,.63-0.24H221V65.75a1,1,0,0,1,.27-0.68,0.92,0.92,0,0,1,.69-0.28,0.89,0.89,0,0,1,.67.28,1,1,0,0,1,.27.68v1.68h1.66a0.85,0.85,0,0,1,.88.88,0.82,0.82,0,0,1-.25.62,0.87,0.87,0,0,1-.63.24h-1.66Z"/><path class="cls-3" d="M236.48,72.76a1,1,0,0,1-.66.25h-7a3.48,3.48,0,0,0,1.11,2.34,3.4,3.4,0,0,0,2.37.88,3.72,3.72,0,0,0,1.56-.28,3.92,3.92,0,0,0,1.06-.72,1.13,1.13,0,0,1,.58-0.18,0.76,0.76,0,0,1,.57.24,0.79,0.79,0,0,1,.23.56,1,1,0,0,1-.4.76,4.71,4.71,0,0,1-1.54,1,5.06,5.06,0,0,1-2,.4,5.79,5.79,0,0,1-2.85-.68,4.73,4.73,0,0,1-1.9-1.9,5.63,5.63,0,0,1-.67-2.76,6.08,6.08,0,0,1,.69-2.95,5,5,0,0,1,1.82-2,4.69,4.69,0,0,1,4.83,0,5,5,0,0,1,1.8,1.82,5.2,5.2,0,0,1,.7,2.6A0.86,0.86,0,0,1,236.48,72.76Zm-6.54-3.3a3.1,3.1,0,0,0-1.08,2h5.9V71.25a2.44,2.44,0,0,0-1-1.74,3,3,0,0,0-1.93-.68A3.09,3.09,0,0,0,229.94,69.46Z"/><path class="cls-3" d="M253.71,67.44a1,1,0,0,1,.27.71v8.68a0.94,0.94,0,0,1-.27.68,0.92,0.92,0,0,1-.69.28,0.9,0.9,0,0,1-.68-0.27,1,1,0,0,1-.26-0.69V76.31a4.28,4.28,0,0,1-1.42,1.19,4,4,0,0,1-1.94.49,4.53,4.53,0,0,1-2.47-.7,4.8,4.8,0,0,1-1.74-2,6.58,6.58,0,0,1,0-5.62,4.83,4.83,0,0,1,1.73-2,4.57,4.57,0,0,1,4.39-.26,4.08,4.08,0,0,1,1.45,1.12V68.15a1,1,0,0,1,.26-0.7,0.88,0.88,0,0,1,.68-0.28A0.93,0.93,0,0,1,253.71,67.44Zm-3.1,8.31a3.24,3.24,0,0,0,1.14-1.32,4.27,4.27,0,0,0,.41-1.9,4.23,4.23,0,0,0-.41-1.88,3.32,3.32,0,0,0-1.14-1.33,2.93,2.93,0,0,0-1.67-.49,3,3,0,0,0-1.67.48,3.24,3.24,0,0,0-1.14,1.32,4.61,4.61,0,0,0,0,3.8,3.24,3.24,0,0,0,1.14,1.32A3.14,3.14,0,0,0,250.61,75.75Z"/><path class="cls-3" d="M264,67.57A1.49,1.49,0,0,1,265,68.85a0.94,0.94,0,0,1-.22.61,0.69,0.69,0,0,1-.56.27,0.87,0.87,0,0,1-.41-0.08,4.37,4.37,0,0,1-.41-0.26,2.18,2.18,0,0,0-.38-0.28,2.64,2.64,0,0,0-.68-0.2,4.52,4.52,0,0,0-.8-0.08,3.51,3.51,0,0,0-1.84.48,3.27,3.27,0,0,0-1.24,1.33,4,4,0,0,0-.44,1.89,4.11,4.11,0,0,0,.43,1.9,3.26,3.26,0,0,0,1.21,1.32,3.33,3.33,0,0,0,1.78.48,3.77,3.77,0,0,0,1.68-.32,4,4,0,0,0,.38-0.26,2.37,2.37,0,0,1,.35-0.24,0.78,0.78,0,0,1,.37-0.08,0.81,0.81,0,0,1,.63.25,0.92,0.92,0,0,1,.23.65,1.11,1.11,0,0,1-.53.83,4.26,4.26,0,0,1-1.42.67,6.78,6.78,0,0,1-1.91.26,5,5,0,0,1-2.68-.71,4.75,4.75,0,0,1-1.79-2,6.11,6.11,0,0,1-.63-2.79,5.88,5.88,0,0,1,.66-2.79,4.92,4.92,0,0,1,1.84-2,5.14,5.14,0,0,1,2.7-.71A6.11,6.11,0,0,1,264,67.57Z"/><path class="cls-3" d="M269.92,69.17v6a0.84,0.84,0,0,0,.9,1,1.44,1.44,0,0,0,.38-0.07,1.46,1.46,0,0,1,.38-0.07,0.55,0.55,0,0,1,.44.22,0.84,0.84,0,0,1-.3,1.28,2,2,0,0,1-1.08.3,4.88,4.88,0,0,1-1.21-.14,1.79,1.79,0,0,1-1-.71,2.86,2.86,0,0,1-.43-1.73v-6h-1.16a0.85,0.85,0,0,1-.88-0.88,0.82,0.82,0,0,1,.25-0.62,0.87,0.87,0,0,1,.63-0.24H268V65.75a1,1,0,0,1,.27-0.68,0.92,0.92,0,0,1,.69-0.28,0.89,0.89,0,0,1,.67.28,1,1,0,0,1,.27.68v1.68h1.66a0.85,0.85,0,0,1,.88.88,0.82,0.82,0,0,1-.25.62,0.87,0.87,0,0,1-.63.24h-1.66Z"/><path class="cls-3" d="M274.69,65.68a0.83,0.83,0,0,1-.25-0.67V64.69a0.79,0.79,0,0,1,.27-0.68,1.4,1.4,0,0,1,.83-0.2,1.25,1.25,0,0,1,.81.21,0.83,0.83,0,0,1,.25.67V65a0.81,0.81,0,0,1-.26.68,1.35,1.35,0,0,1-.82.2A1.29,1.29,0,0,1,274.69,65.68Zm1.52,11.83a0.92,0.92,0,0,1-.69.28,0.89,0.89,0,0,1-.67-0.28,1,1,0,0,1-.27-0.68V68.17a0.94,0.94,0,0,1,.27-0.68,0.89,0.89,0,0,1,.67-0.28,0.92,0.92,0,0,1,.69.28,0.94,0.94,0,0,1,.27.68v8.66A1,1,0,0,1,276.21,77.51Z"/><path class="cls-3" d="M287.86,67.46a0.79,0.79,0,0,1,.26.59,1.37,1.37,0,0,1-.14.5l-3.8,8.64a1.06,1.06,0,0,1-.34.42,0.92,0.92,0,0,1-.48.18,0.91,0.91,0,0,1-.59-0.12,1,1,0,0,1-.41-0.48l-3.8-8.64a1.65,1.65,0,0,1-.1-0.5,0.8,0.8,0,0,1,.26-0.58,0.92,0.92,0,0,1,.68-0.26,1,1,0,0,1,.54.15,1,1,0,0,1,.38.45l3,7,3-7a0.91,0.91,0,0,1,.86-0.6A0.89,0.89,0,0,1,287.86,67.46Z"/><path class="cls-3" d="M290.19,65.68a0.83,0.83,0,0,1-.25-0.67V64.69a0.79,0.79,0,0,1,.27-0.68,1.4,1.4,0,0,1,.83-0.2,1.25,1.25,0,0,1,.81.21,0.83,0.83,0,0,1,.25.67V65a0.81,0.81,0,0,1-.26.68,1.35,1.35,0,0,1-.82.2A1.29,1.29,0,0,1,290.19,65.68Zm1.52,11.83a0.92,0.92,0,0,1-.69.28,0.89,0.89,0,0,1-.67-0.28,1,1,0,0,1-.27-0.68V68.17a0.94,0.94,0,0,1,.27-0.68,0.89,0.89,0,0,1,.67-0.28,0.92,0.92,0,0,1,.69.28,0.94,0.94,0,0,1,.27.68v8.66A1,1,0,0,1,291.71,77.51Z"/><path class="cls-3" d="M303.91,63.26a0.93,0.93,0,0,1,.27.69V76.83a0.94,0.94,0,0,1-.27.68,0.92,0.92,0,0,1-.69.28,0.9,0.9,0,0,1-.68-0.27,1,1,0,0,1-.26-0.69V76.27a4,4,0,0,1-1.41,1.22,4,4,0,0,1-1.95.5,4.48,4.48,0,0,1-2.46-.7,4.9,4.9,0,0,1-1.74-2,6.07,6.07,0,0,1-.64-2.81,6.16,6.16,0,0,1,.63-2.81,4.83,4.83,0,0,1,1.73-2,4.55,4.55,0,0,1,4.38-.26,4.2,4.2,0,0,1,1.46,1.14v-4.7a1,1,0,0,1,.26-0.69,0.9,0.9,0,0,1,.68-0.27A0.93,0.93,0,0,1,303.91,63.26Zm-3.1,12.49A3.24,3.24,0,0,0,302,74.43a4.58,4.58,0,0,0,0-3.79,3.23,3.23,0,0,0-1.14-1.33,3.14,3.14,0,0,0-3.34,0,3.23,3.23,0,0,0-1.14,1.33,4.59,4.59,0,0,0,0,3.79,3.24,3.24,0,0,0,1.14,1.32A3.14,3.14,0,0,0,300.81,75.75Z"/><path class="cls-3" d="M316.19,67.44a1,1,0,0,1,.27.71v8.68a0.94,0.94,0,0,1-.27.68,0.92,0.92,0,0,1-.69.28,0.9,0.9,0,0,1-.68-0.27,1,1,0,0,1-.26-0.69V76.31a4.28,4.28,0,0,1-1.42,1.19,4,4,0,0,1-1.94.49,4.53,4.53,0,0,1-2.47-.7,4.8,4.8,0,0,1-1.74-2,6.58,6.58,0,0,1,0-5.62,4.83,4.83,0,0,1,1.73-2,4.57,4.57,0,0,1,4.39-.26,4.08,4.08,0,0,1,1.45,1.12V68.15a1,1,0,0,1,.26-0.7,0.88,0.88,0,0,1,.68-0.28A0.93,0.93,0,0,1,316.19,67.44Zm-3.1,8.31a3.24,3.24,0,0,0,1.14-1.32,4.27,4.27,0,0,0,.41-1.9,4.23,4.23,0,0,0-.41-1.88,3.32,3.32,0,0,0-1.14-1.33,2.93,2.93,0,0,0-1.67-.49,3,3,0,0,0-1.67.48,3.24,3.24,0,0,0-1.14,1.32,4.61,4.61,0,0,0,0,3.8,3.24,3.24,0,0,0,1.14,1.32A3.14,3.14,0,0,0,313.09,75.75Z"/><path class="cls-3" d="M328.47,63.26a0.93,0.93,0,0,1,.27.69V76.83a0.94,0.94,0,0,1-.27.68,0.92,0.92,0,0,1-.69.28,0.9,0.9,0,0,1-.68-0.27,1,1,0,0,1-.26-0.69V76.27a4,4,0,0,1-1.41,1.22,4,4,0,0,1-1.95.5,4.48,4.48,0,0,1-2.46-.7,4.9,4.9,0,0,1-1.74-2,6.07,6.07,0,0,1-.64-2.81,6.16,6.16,0,0,1,.63-2.81,4.83,4.83,0,0,1,1.73-2,4.55,4.55,0,0,1,4.38-.26,4.2,4.2,0,0,1,1.46,1.14v-4.7a1,1,0,0,1,.26-0.69,0.9,0.9,0,0,1,.68-0.27A0.93,0.93,0,0,1,328.47,63.26Zm-3.1,12.49a3.24,3.24,0,0,0,1.14-1.32,4.58,4.58,0,0,0,0-3.79,3.23,3.23,0,0,0-1.14-1.33,3.14,3.14,0,0,0-3.34,0,3.23,3.23,0,0,0-1.14,1.33,4.59,4.59,0,0,0,0,3.79A3.24,3.24,0,0,0,322,75.75,3.14,3.14,0,0,0,325.37,75.75Z"/><path class="cls-3" d="M346.29,63.26a0.93,0.93,0,0,1,.27.69V76.83a0.94,0.94,0,0,1-.27.68,0.92,0.92,0,0,1-.69.28,0.9,0.9,0,0,1-.68-0.27,1,1,0,0,1-.26-0.69V76.27a4,4,0,0,1-1.41,1.22,4,4,0,0,1-1.95.5,4.48,4.48,0,0,1-2.46-.7,4.9,4.9,0,0,1-1.74-2,6.07,6.07,0,0,1-.64-2.81,6.16,6.16,0,0,1,.63-2.81,4.83,4.83,0,0,1,1.73-2,4.55,4.55,0,0,1,4.38-.26,4.2,4.2,0,0,1,1.46,1.14v-4.7a1,1,0,0,1,.26-0.69A0.9,0.9,0,0,1,345.6,63,0.93,0.93,0,0,1,346.29,63.26Zm-3.1,12.49a3.24,3.24,0,0,0,1.14-1.32,4.58,4.58,0,0,0,0-3.79,3.23,3.23,0,0,0-1.14-1.33,3.14,3.14,0,0,0-3.34,0,3.23,3.23,0,0,0-1.14,1.33,4.59,4.59,0,0,0,0,3.79,3.24,3.24,0,0,0,1.14,1.32A3.14,3.14,0,0,0,343.19,75.75Z"/><path class="cls-3" d="M358.57,67.44a1,1,0,0,1,.27.71v8.68a0.94,0.94,0,0,1-.27.68,0.92,0.92,0,0,1-.69.28,0.9,0.9,0,0,1-.68-0.27,1,1,0,0,1-.26-0.69V76.31a4.28,4.28,0,0,1-1.42,1.19,4,4,0,0,1-1.94.49,4.53,4.53,0,0,1-2.47-.7,4.8,4.8,0,0,1-1.74-2,6.58,6.58,0,0,1,0-5.62,4.83,4.83,0,0,1,1.73-2,4.57,4.57,0,0,1,4.39-.26,4.08,4.08,0,0,1,1.45,1.12V68.15a1,1,0,0,1,.26-0.7,0.88,0.88,0,0,1,.68-0.28A0.93,0.93,0,0,1,358.57,67.44Zm-3.1,8.31a3.24,3.24,0,0,0,1.14-1.32,4.27,4.27,0,0,0,.41-1.9,4.23,4.23,0,0,0-.41-1.88,3.32,3.32,0,0,0-1.14-1.33,2.93,2.93,0,0,0-1.67-.49,3,3,0,0,0-1.67.48A3.24,3.24,0,0,0,351,70.63a4.61,4.61,0,0,0,0,3.8,3.24,3.24,0,0,0,1.14,1.32A3.14,3.14,0,0,0,355.47,75.75Z"/><path class="cls-3" d="M374.39,67.57a1.49,1.49,0,0,1,1.05,1.28,0.94,0.94,0,0,1-.22.61,0.69,0.69,0,0,1-.56.27,0.87,0.87,0,0,1-.41-0.08,4.37,4.37,0,0,1-.41-0.26,2.18,2.18,0,0,0-.38-0.28,2.64,2.64,0,0,0-.68-0.2,4.52,4.52,0,0,0-.8-0.08,3.51,3.51,0,0,0-1.84.48,3.27,3.27,0,0,0-1.24,1.33,4,4,0,0,0-.44,1.89,4.11,4.11,0,0,0,.43,1.9,3.26,3.26,0,0,0,1.21,1.32,3.33,3.33,0,0,0,1.78.48,3.77,3.77,0,0,0,1.68-.32,4,4,0,0,0,.38-0.26,2.37,2.37,0,0,1,.35-0.24,0.78,0.78,0,0,1,.37-0.08,0.82,0.82,0,0,1,.63.25,0.93,0.93,0,0,1,.23.65,1.11,1.11,0,0,1-.53.83,4.26,4.26,0,0,1-1.42.67,6.78,6.78,0,0,1-1.91.26,5,5,0,0,1-2.68-.71,4.75,4.75,0,0,1-1.79-2,6.11,6.11,0,0,1-.63-2.79,5.88,5.88,0,0,1,.66-2.79,4.92,4.92,0,0,1,1.84-2,5.14,5.14,0,0,1,2.7-.71A6.11,6.11,0,0,1,374.39,67.57Z"/><path class="cls-3" d="M379.26,77.51a0.93,0.93,0,0,1-.68.28,0.89,0.89,0,0,1-.67-0.28,1,1,0,0,1-.27-0.68V63.95a1,1,0,0,1,1-1,0.89,0.89,0,0,1,.67.28,1,1,0,0,1,.27.68V76.83A0.93,0.93,0,0,1,379.26,77.51Z"/><path class="cls-3" d="M382.55,65.68A0.83,0.83,0,0,1,382.3,65V64.69a0.79,0.79,0,0,1,.27-0.68,1.4,1.4,0,0,1,.83-0.2,1.25,1.25,0,0,1,.81.21,0.83,0.83,0,0,1,.25.67V65a0.81,0.81,0,0,1-.26.68,1.35,1.35,0,0,1-.82.2A1.3,1.3,0,0,1,382.55,65.68Zm1.52,11.83a0.92,0.92,0,0,1-.69.28,0.89,0.89,0,0,1-.67-0.28,1,1,0,0,1-.27-0.68V68.17a0.94,0.94,0,0,1,.27-0.68,0.89,0.89,0,0,1,.67-0.28,0.92,0.92,0,0,1,.69.28,0.94,0.94,0,0,1,.27.68v8.66A1,1,0,0,1,384.07,77.51Z"/><path class="cls-3" d="M394.27,67.57a1.49,1.49,0,0,1,1,1.28,0.94,0.94,0,0,1-.22.61,0.69,0.69,0,0,1-.56.27,0.88,0.88,0,0,1-.41-0.08,4.57,4.57,0,0,1-.41-0.26,2.11,2.11,0,0,0-.38-0.28,2.64,2.64,0,0,0-.68-0.2,4.51,4.51,0,0,0-.8-0.08,3.51,3.51,0,0,0-1.84.48,3.26,3.26,0,0,0-1.24,1.33,4,4,0,0,0-.44,1.89,4.1,4.1,0,0,0,.43,1.9A3.25,3.25,0,0,0,390,75.75a3.33,3.33,0,0,0,1.78.48,3.77,3.77,0,0,0,1.68-.32,4,4,0,0,0,.38-0.26,2.37,2.37,0,0,1,.35-0.24,0.78,0.78,0,0,1,.37-0.08,0.81,0.81,0,0,1,.63.25,0.92,0.92,0,0,1,.23.65,1.11,1.11,0,0,1-.53.83,4.26,4.26,0,0,1-1.42.67,6.79,6.79,0,0,1-1.91.26,5,5,0,0,1-2.68-.71,4.75,4.75,0,0,1-1.79-2,6.11,6.11,0,0,1-.63-2.79,5.88,5.88,0,0,1,.66-2.79,4.91,4.91,0,0,1,1.84-2,5.13,5.13,0,0,1,2.7-.71A6.11,6.11,0,0,1,394.27,67.57Z"/><path class="cls-3" d="M406.22,76.83a0.85,0.85,0,0,1-.31.67,1,1,0,0,1-.65.27,0.85,0.85,0,0,1-.7-0.32l-3.94-4.18-1.2,1.08v2.48a1,1,0,0,1-.27.68,0.89,0.89,0,0,1-.67.28,0.92,0.92,0,0,1-.69-0.28,1,1,0,0,1-.27-0.68V63.95a1,1,0,0,1,.27-0.68,0.92,0.92,0,0,1,.69-0.28,0.89,0.89,0,0,1,.67.28,1,1,0,0,1,.27.68v8.12l4.9-4.5a1.05,1.05,0,0,1,.7-0.3,0.85,0.85,0,0,1,.62.29,0.88,0.88,0,0,1,.28.61,0.93,0.93,0,0,1-.38.72L402.08,72l3.84,4.16A1,1,0,0,1,406.22,76.83Z"/><path class="cls-3" d="M422.9,72.76a1,1,0,0,1-.66.25h-7a3.47,3.47,0,0,0,1.11,2.34,3.4,3.4,0,0,0,2.37.88,3.72,3.72,0,0,0,1.56-.28,3.92,3.92,0,0,0,1.06-.72,1.13,1.13,0,0,1,.58-0.18,0.76,0.76,0,0,1,.57.24,0.78,0.78,0,0,1,.23.56,1,1,0,0,1-.4.76,4.7,4.7,0,0,1-1.54,1,5.06,5.06,0,0,1-2,.4,5.79,5.79,0,0,1-2.85-.68,4.74,4.74,0,0,1-1.9-1.9,5.63,5.63,0,0,1-.67-2.76,6.08,6.08,0,0,1,.69-2.95,5,5,0,0,1,1.82-2,4.69,4.69,0,0,1,4.83,0,5,5,0,0,1,1.8,1.82,5.2,5.2,0,0,1,.7,2.6A0.86,0.86,0,0,1,422.9,72.76Zm-6.54-3.3a3.1,3.1,0,0,0-1.08,2h5.9V71.25a2.44,2.44,0,0,0-.95-1.74,3,3,0,0,0-1.93-.68A3.09,3.09,0,0,0,416.36,69.46Z"/><path class="cls-3" d="M434.34,71.39v5.44a1,1,0,0,1-.27.68,0.92,0.92,0,0,1-.69.28,0.89,0.89,0,0,1-.67-0.28,0.94,0.94,0,0,1-.27-0.68V71.41a3,3,0,0,0-.54-1.88,2.09,2.09,0,0,0-1.76-.7,3,3,0,0,0-1.45.35,2.67,2.67,0,0,0-1,.94,2.38,2.38,0,0,0-.37,1.29v5.42a0.94,0.94,0,0,1-.27.68,0.92,0.92,0,0,1-.69.28,0.9,0.9,0,0,1-.68-0.27,1,1,0,0,1-.26-0.69V68.27a0.94,0.94,0,0,1,.27-0.68,0.89,0.89,0,0,1,.67-0.28,0.92,0.92,0,0,1,.69.28,0.94,0.94,0,0,1,.27.68V69a4.31,4.31,0,0,1,1.45-1.35,3.84,3.84,0,0,1,2-.55Q434.34,67.07,434.34,71.39Z"/><path class="cls-3" d="M451.62,72.76A1,1,0,0,1,451,73h-7A3.47,3.47,0,0,0,445,75.35a3.4,3.4,0,0,0,2.37.88,3.72,3.72,0,0,0,1.56-.28,3.92,3.92,0,0,0,1.06-.72A1.13,1.13,0,0,1,450.6,75a0.76,0.76,0,0,1,.57.24,0.78,0.78,0,0,1,.23.56,1,1,0,0,1-.4.76,4.7,4.7,0,0,1-1.54,1,5.06,5.06,0,0,1-2,.4,5.79,5.79,0,0,1-2.85-.68,4.74,4.74,0,0,1-1.9-1.9,5.63,5.63,0,0,1-.67-2.76,6.08,6.08,0,0,1,.69-2.95,5,5,0,0,1,1.82-2,4.69,4.69,0,0,1,4.83,0,5,5,0,0,1,1.8,1.82,5.2,5.2,0,0,1,.7,2.6A0.86,0.86,0,0,1,451.62,72.76Zm-6.54-3.3a3.1,3.1,0,0,0-1.08,2h5.9V71.25a2.44,2.44,0,0,0-.95-1.74,3,3,0,0,0-1.93-.68A3.09,3.09,0,0,0,445.08,69.46Z"/><path class="cls-3" d="M455.9,77.51a0.93,0.93,0,0,1-.68.28,0.89,0.89,0,0,1-.67-0.28,1,1,0,0,1-.27-0.68V63.95a1,1,0,0,1,1-1,0.89,0.89,0,0,1,.67.28,1,1,0,0,1,.27.68V76.83A0.93,0.93,0,0,1,455.9,77.51Z"/><path class="cls-3" d="M162,91.77a4.85,4.85,0,0,1,1.73,1.94,6.1,6.1,0,0,1,.63,2.8,6.22,6.22,0,0,1-.63,2.82,4.82,4.82,0,0,1-1.73,2,4.42,4.42,0,0,1-2.42.7,4.21,4.21,0,0,1-1.94-.46,4.53,4.53,0,0,1-1.46-1.14V101a0.94,0.94,0,0,1-.27.68,1,1,0,0,1-1.36,0,0.93,0.93,0,0,1-.27-0.69v-13a1,1,0,0,1,.26-0.69,0.9,0.9,0,0,1,.68-0.27,0.92,0.92,0,0,1,.69.28,0.94,0.94,0,0,1,.27.68v4.88a4,4,0,0,1,1.4-1.24,3.92,3.92,0,0,1,2-.52A4.49,4.49,0,0,1,162,91.77Zm-1,8a3.28,3.28,0,0,0,1.15-1.34,4.3,4.3,0,0,0,.41-1.89,4.24,4.24,0,0,0-.41-1.88A3.22,3.22,0,0,0,161,93.31a3,3,0,0,0-1.66-.48,3,3,0,0,0-1.68.48,3.23,3.23,0,0,0-1.15,1.31,4.21,4.21,0,0,0-.41,1.89,4.27,4.27,0,0,0,.41,1.9,3.29,3.29,0,0,0,1.15,1.33,3,3,0,0,0,1.68.49A2.94,2.94,0,0,0,161,99.74Z"/><path class="cls-3" d="M175.81,99.35a5.09,5.09,0,0,1-1.91,1.94,5.44,5.44,0,0,1-5.34,0,5.08,5.08,0,0,1-1.91-1.94,5.6,5.6,0,0,1-.7-2.8,5.71,5.71,0,0,1,.7-2.82,5,5,0,0,1,1.91-2,5.44,5.44,0,0,1,5.34,0,5.05,5.05,0,0,1,1.91,2,5.71,5.71,0,0,1,.7,2.82A5.6,5.6,0,0,1,175.81,99.35Zm-1.65-4.73a3.35,3.35,0,0,0-1.22-1.32,3.35,3.35,0,0,0-3.42,0,3.34,3.34,0,0,0-1.22,1.32,4.06,4.06,0,0,0-.45,1.93,4,4,0,0,0,.45,1.9,3.36,3.36,0,0,0,1.22,1.31,3.35,3.35,0,0,0,3.42,0,3.36,3.36,0,0,0,1.22-1.31,4,4,0,0,0,.45-1.9A4.06,4.06,0,0,0,174.16,94.62Z"/><path class="cls-3" d="M181.54,93.17v6a0.84,0.84,0,0,0,.9,1,1.44,1.44,0,0,0,.38-0.07,1.46,1.46,0,0,1,.38-0.07,0.55,0.55,0,0,1,.44.22,0.84,0.84,0,0,1-.3,1.28,2,2,0,0,1-1.08.3,4.88,4.88,0,0,1-1.21-.14,1.79,1.79,0,0,1-1-.71,2.86,2.86,0,0,1-.43-1.73v-6h-1.16a0.85,0.85,0,0,1-.88-0.88,0.82,0.82,0,0,1,.25-0.62,0.87,0.87,0,0,1,.63-0.24h1.16V89.75a1,1,0,0,1,.27-0.68,0.92,0.92,0,0,1,.69-0.28,0.89,0.89,0,0,1,.67.28,1,1,0,0,1,.27.68v1.68h1.66a0.85,0.85,0,0,1,.88.88,0.82,0.82,0,0,1-.25.62,0.87,0.87,0,0,1-.63.24h-1.66Z"/><path class="cls-3" d="M195.52,99.35a5.09,5.09,0,0,1-1.91,1.94,5.44,5.44,0,0,1-5.34,0,5.08,5.08,0,0,1-1.91-1.94,5.6,5.6,0,0,1-.7-2.8,5.71,5.71,0,0,1,.7-2.82,5,5,0,0,1,1.91-2,5.44,5.44,0,0,1,5.34,0,5.05,5.05,0,0,1,1.91,2,5.71,5.71,0,0,1,.7,2.82A5.6,5.6,0,0,1,195.52,99.35Zm-1.65-4.73a3.35,3.35,0,0,0-1.22-1.32,3.35,3.35,0,0,0-3.42,0A3.34,3.34,0,0,0,188,94.62a4.06,4.06,0,0,0-.45,1.93,4,4,0,0,0,.45,1.9,3.36,3.36,0,0,0,1.22,1.31,3.35,3.35,0,0,0,3.42,0,3.36,3.36,0,0,0,1.22-1.31,4,4,0,0,0,.45-1.9A4.06,4.06,0,0,0,193.87,94.62Zm-3.33-4.25a0.41,0.41,0,0,1-.16-0.38,0.72,0.72,0,0,1,.12-0.36l1.18-2a1.56,1.56,0,0,1,.39-0.46A0.84,0.84,0,0,1,192.6,87a0.91,0.91,0,0,1,.67.23,0.77,0.77,0,0,1,.21.61,1.05,1.05,0,0,1-.3.7l-1.5,1.64a1.09,1.09,0,0,1-.8.32A0.56,0.56,0,0,1,190.54,90.37Z"/><path class="cls-3" d="M207.36,95.39v5.44a0.94,0.94,0,0,1-.27.68,0.92,0.92,0,0,1-.69.28,0.89,0.89,0,0,1-.67-0.28,0.94,0.94,0,0,1-.27-0.68V95.41a3,3,0,0,0-.54-1.88,2.08,2.08,0,0,0-1.76-.7,3,3,0,0,0-1.45.35,2.67,2.67,0,0,0-1,.94,2.38,2.38,0,0,0-.37,1.29v5.42a0.94,0.94,0,0,1-.27.68,0.92,0.92,0,0,1-.69.28,0.9,0.9,0,0,1-.68-0.27,1,1,0,0,1-.26-0.69V92.27a0.94,0.94,0,0,1,.27-0.68,0.89,0.89,0,0,1,.67-0.28,0.92,0.92,0,0,1,.69.28,0.94,0.94,0,0,1,.27.68V93a4.3,4.3,0,0,1,1.45-1.35,3.84,3.84,0,0,1,2-.55Q207.36,91.07,207.36,95.39Z"/><path class="cls-3" d="M215,89.32a3.67,3.67,0,0,1,.81-1.1,1.49,1.49,0,0,1,1-.45,0.64,0.64,0,0,1,.78.66,0.46,0.46,0,0,1-.13.37,0.91,0.91,0,0,1-.33.17l-0.3.1a1,1,0,0,0-.56.9,0.47,0.47,0,0,0,.17.37,0.65,0.65,0,0,0,.45.15,1,1,0,0,0,.56-0.14,0.76,0.76,0,0,1,.3.25,0.6,0.6,0,0,1,.08.39,1.06,1.06,0,0,1-.51.87,1.79,1.79,0,0,1-1.07.37,1.5,1.5,0,0,1-1.15-.46,1.83,1.83,0,0,1-.43-1.3A2.66,2.66,0,0,1,215,89.32Zm3.92,0a3.67,3.67,0,0,1,.81-1.1,1.49,1.49,0,0,1,1-.45,0.64,0.64,0,0,1,.78.66,0.46,0.46,0,0,1-.13.37,0.91,0.91,0,0,1-.33.17l-0.3.1a1,1,0,0,0-.56.9,0.47,0.47,0,0,0,.17.37,0.65,0.65,0,0,0,.45.15,1,1,0,0,0,.56-0.14,0.76,0.76,0,0,1,.3.25,0.6,0.6,0,0,1,.08.39,1.06,1.06,0,0,1-.51.87,1.79,1.79,0,0,1-1.07.37,1.5,1.5,0,0,1-1.15-.46,1.83,1.83,0,0,1-.43-1.3A2.67,2.67,0,0,1,219,89.32Z"/><path class="cls-3" d="M225.86,101.58a6.58,6.58,0,0,1-2.14-1.33,1.06,1.06,0,0,1-.42-0.82,0.91,0.91,0,0,1,.28-0.65,0.89,0.89,0,0,1,.66-0.29,0.83,0.83,0,0,1,.58.22,5.56,5.56,0,0,0,1.65,1.09,5,5,0,0,0,1.93.35,3.75,3.75,0,0,0,2.13-.58,1.71,1.71,0,0,0,.87-1.46,1.88,1.88,0,0,0-.87-1.61,7.78,7.78,0,0,0-2.59-1,6.88,6.88,0,0,1-3.17-1.38,3.33,3.33,0,0,1-1.11-2.66,3.53,3.53,0,0,1,.62-2.07A4,4,0,0,1,226,88.07a6.14,6.14,0,0,1,2.48-.48,6.8,6.8,0,0,1,2.34.4A4.94,4.94,0,0,1,232.6,89a1.14,1.14,0,0,1,.46.86,0.9,0.9,0,0,1-.27.64,0.87,0.87,0,0,1-.65.28,0.66,0.66,0,0,1-.46-0.16,4.16,4.16,0,0,0-1.44-.88,4.82,4.82,0,0,0-1.76-.36,3.67,3.67,0,0,0-2.13.55,1.77,1.77,0,0,0,0,3,7.42,7.42,0,0,0,2.35.88,12.51,12.51,0,0,1,2.55.8,3.59,3.59,0,0,1,1.53,1.28,3.83,3.83,0,0,1,.54,2.14,3.43,3.43,0,0,1-.65,2.06,4.28,4.28,0,0,1-1.77,1.4,6,6,0,0,1-2.46.5A7.49,7.49,0,0,1,225.86,101.58Z"/><path class="cls-3" d="M235.61,89.68a0.83,0.83,0,0,1-.25-0.67V88.69a0.79,0.79,0,0,1,.27-0.68,1.4,1.4,0,0,1,.83-0.2,1.25,1.25,0,0,1,.81.21,0.83,0.83,0,0,1,.25.67V89a0.81,0.81,0,0,1-.26.68,1.35,1.35,0,0,1-.82.2A1.29,1.29,0,0,1,235.61,89.68Zm1.52,11.83a0.92,0.92,0,0,1-.69.28,0.89,0.89,0,0,1-.67-0.28,1,1,0,0,1-.27-0.68V92.17a0.94,0.94,0,0,1,.27-0.68,0.89,0.89,0,0,1,.67-0.28,0.92,0.92,0,0,1,.69.28,0.94,0.94,0,0,1,.27.68v8.66A1,1,0,0,1,237.13,101.51Z"/><path class="cls-3" d="M249.59,91.44a1,1,0,0,1,.27.71v8.8a5,5,0,0,1-.69,2.71,4.15,4.15,0,0,1-1.87,1.61,6.53,6.53,0,0,1-2.66.52,7.53,7.53,0,0,1-1.87-.28,3.33,3.33,0,0,1-1.37-.58,0.93,0.93,0,0,1-.62-0.8,0.91,0.91,0,0,1,.08-0.32,0.76,0.76,0,0,1,.74-0.5,1.51,1.51,0,0,1,.56.12,7.52,7.52,0,0,0,2.5.62,3.53,3.53,0,0,0,2.45-.77,2.71,2.71,0,0,0,.85-2.11v-1.08a3.48,3.48,0,0,1-1.41,1.34,4.19,4.19,0,0,1-2.09.56,4.72,4.72,0,0,1-2.52-.7,4.87,4.87,0,0,1-1.79-2,6.39,6.39,0,0,1,0-5.62,4.89,4.89,0,0,1,1.78-2,4.64,4.64,0,0,1,2.49-.7A4.55,4.55,0,0,1,248,92.79V92.15a1,1,0,0,1,.26-0.7,0.89,0.89,0,0,1,.68-0.28A0.94,0.94,0,0,1,249.59,91.44Zm-3.17,8.32a3.23,3.23,0,0,0,1.19-1.32,4.17,4.17,0,0,0,.43-1.91,4.11,4.11,0,0,0-.43-1.9,3.31,3.31,0,0,0-1.19-1.32,3.19,3.19,0,0,0-1.74-.48,3.15,3.15,0,0,0-1.72.48,3.29,3.29,0,0,0-1.19,1.33,4.37,4.37,0,0,0,0,3.78A3.29,3.29,0,0,0,243,99.75a3.15,3.15,0,0,0,1.72.48A3.24,3.24,0,0,0,246.42,99.76Z"/><path class="cls-3" d="M261,91.59a1,1,0,0,1,.27.68v5.32a4.39,4.39,0,1,1-8.76,0V92.27a0.94,0.94,0,0,1,.27-0.68,0.89,0.89,0,0,1,.67-0.28,0.92,0.92,0,0,1,.69.28,0.94,0.94,0,0,1,.27.68v5.32q0,2.62,2.46,2.62a2.47,2.47,0,0,0,1.86-.66,2.71,2.71,0,0,0,.64-2V92.27a1,1,0,0,1,.27-0.68,0.89,0.89,0,0,1,.67-0.28A0.92,0.92,0,0,1,261,91.59Z"/><path class="cls-3" d="M264.13,89.68a0.83,0.83,0,0,1-.25-0.67V88.69a0.79,0.79,0,0,1,.27-0.68,1.4,1.4,0,0,1,.83-0.2,1.25,1.25,0,0,1,.81.21,0.83,0.83,0,0,1,.25.67V89a0.81,0.81,0,0,1-.26.68,1.35,1.35,0,0,1-.82.2A1.29,1.29,0,0,1,264.13,89.68Zm1.52,11.83a0.92,0.92,0,0,1-.69.28,0.89,0.89,0,0,1-.67-0.28,1,1,0,0,1-.27-0.68V92.17a0.94,0.94,0,0,1,.27-0.68,0.89,0.89,0,0,1,.67-0.28,0.92,0.92,0,0,1,.69.28,0.94,0.94,0,0,1,.27.68v8.66A1,1,0,0,1,265.65,101.51Z"/><path class="cls-3" d="M277.56,96.76a1,1,0,0,1-.66.25h-7A3.48,3.48,0,0,0,271,99.35a3.4,3.4,0,0,0,2.37.88,3.72,3.72,0,0,0,1.56-.28,3.92,3.92,0,0,0,1.06-.72,1.13,1.13,0,0,1,.58-0.18,0.76,0.76,0,0,1,.57.24,0.79,0.79,0,0,1,.23.56,1,1,0,0,1-.4.76,4.71,4.71,0,0,1-1.54,1,5.06,5.06,0,0,1-2,.4,5.79,5.79,0,0,1-2.85-.68,4.73,4.73,0,0,1-1.9-1.9,5.63,5.63,0,0,1-.67-2.76,6.08,6.08,0,0,1,.69-2.95,5,5,0,0,1,1.82-2,4.69,4.69,0,0,1,4.83,0,5,5,0,0,1,1.8,1.82,5.2,5.2,0,0,1,.7,2.6A0.86,0.86,0,0,1,277.56,96.76ZM271,93.46a3.1,3.1,0,0,0-1.08,2h5.9V95.25a2.44,2.44,0,0,0-1-1.74,3,3,0,0,0-1.93-.68A3.09,3.09,0,0,0,271,93.46Z"/><path class="cls-3" d="M289,95.39v5.44a0.94,0.94,0,0,1-.27.68,0.92,0.92,0,0,1-.69.28,0.89,0.89,0,0,1-.67-0.28,0.94,0.94,0,0,1-.27-0.68V95.41a3,3,0,0,0-.54-1.88,2.08,2.08,0,0,0-1.76-.7,3,3,0,0,0-1.45.35,2.67,2.67,0,0,0-1,.94,2.38,2.38,0,0,0-.37,1.29v5.42a0.94,0.94,0,0,1-.27.68,0.92,0.92,0,0,1-.69.28,0.9,0.9,0,0,1-.68-0.27,1,1,0,0,1-.26-0.69V92.27a0.94,0.94,0,0,1,.27-0.68,0.89,0.89,0,0,1,.67-0.28,0.92,0.92,0,0,1,.69.28,0.94,0.94,0,0,1,.27.68V93a4.3,4.3,0,0,1,1.45-1.35,3.84,3.84,0,0,1,2-.55Q289,91.07,289,95.39Z"/><path class="cls-3" d="M294.68,93.17v6a0.84,0.84,0,0,0,.9,1,1.44,1.44,0,0,0,.38-0.07,1.46,1.46,0,0,1,.38-0.07,0.55,0.55,0,0,1,.44.22,0.84,0.84,0,0,1-.3,1.28,2,2,0,0,1-1.08.3,4.88,4.88,0,0,1-1.21-.14,1.79,1.79,0,0,1-1-.71,2.86,2.86,0,0,1-.43-1.73v-6h-1.16a0.85,0.85,0,0,1-.88-0.88,0.82,0.82,0,0,1,.25-0.62,0.87,0.87,0,0,1,.63-0.24h1.16V89.75a1,1,0,0,1,.27-0.68,0.92,0.92,0,0,1,.69-0.28,0.89,0.89,0,0,1,.67.28,1,1,0,0,1,.27.68v1.68h1.66a0.85,0.85,0,0,1,.88.88,0.82,0.82,0,0,1-.25.62,0.87,0.87,0,0,1-.63.24h-1.66Z"/><path class="cls-3" d="M308.24,96.76a1,1,0,0,1-.66.25h-7a3.48,3.48,0,0,0,1.11,2.34,3.4,3.4,0,0,0,2.37.88,3.72,3.72,0,0,0,1.56-.28,3.92,3.92,0,0,0,1.06-.72,1.13,1.13,0,0,1,.58-0.18,0.76,0.76,0,0,1,.57.24,0.79,0.79,0,0,1,.23.56,1,1,0,0,1-.4.76,4.71,4.71,0,0,1-1.54,1,5.06,5.06,0,0,1-2,.4,5.79,5.79,0,0,1-2.85-.68,4.73,4.73,0,0,1-1.9-1.9,5.63,5.63,0,0,1-.67-2.76,6.08,6.08,0,0,1,.69-2.95,5,5,0,0,1,1.82-2,4.69,4.69,0,0,1,4.83,0,5,5,0,0,1,1.8,1.82,5.2,5.2,0,0,1,.7,2.6A0.86,0.86,0,0,1,308.24,96.76Zm-6.54-3.3a3.1,3.1,0,0,0-1.08,2h5.9V95.25a2.44,2.44,0,0,0-1-1.74,3,3,0,0,0-1.93-.68A3.09,3.09,0,0,0,301.7,93.46Z"/><path class="cls-3" d="M312.64,90.9a3.68,3.68,0,0,1-.81,1.1,1.49,1.49,0,0,1-1,.45,0.64,0.64,0,0,1-.78-0.66,0.46,0.46,0,0,1,.13-0.37,0.9,0.9,0,0,1,.33-0.17l0.3-.1a1,1,0,0,0,.56-0.9,0.48,0.48,0,0,0-.17-0.37,0.66,0.66,0,0,0-.45-0.15,1,1,0,0,0-.56.14,0.75,0.75,0,0,1-.3-0.25,0.6,0.6,0,0,1-.08-0.39,1.06,1.06,0,0,1,.51-0.87,1.79,1.79,0,0,1,1.07-.37,1.5,1.5,0,0,1,1.15.46,1.83,1.83,0,0,1,.43,1.3A2.67,2.67,0,0,1,312.64,90.9Zm3.92,0a3.69,3.69,0,0,1-.81,1.1,1.49,1.49,0,0,1-1,.45,0.64,0.64,0,0,1-.78-0.66,0.46,0.46,0,0,1,.13-0.37,0.91,0.91,0,0,1,.33-0.17l0.3-.1a1,1,0,0,0,.56-0.9,0.47,0.47,0,0,0-.17-0.37,0.66,0.66,0,0,0-.45-0.15,1,1,0,0,0-.56.14,0.75,0.75,0,0,1-.3-0.25,0.6,0.6,0,0,1-.08-0.39,1.06,1.06,0,0,1,.51-0.87A1.79,1.79,0,0,1,315.3,88a1.5,1.5,0,0,1,1.15.46,1.83,1.83,0,0,1,.43,1.3A2.67,2.67,0,0,1,316.56,90.9Z"/><path class="cls-3" d="M324.45,101.51a1.05,1.05,0,0,1-.25-0.76v-0.38a1,1,0,0,1,.25-0.74,1,1,0,0,1,.73-0.26h0.2a1,1,0,0,1,.75.26,1,1,0,0,1,.25.74v0.38a0.89,0.89,0,0,1-1,1h-0.2A1,1,0,0,1,324.45,101.51Z"/><g class="cls-4"><path class="cls-5" d="M-9.89,160.66C-25.22,152-22.79,118.47-4.48,86S41.27,34,56.61,42.69s12.9,42.19-5.41,74.68S5.44,169.3-9.89,160.66Z"/><path class="cls-6" d="M49.17,110.59c2.24,2,3.19,5.18,3.71,8.38A59.76,59.76,0,0,1,53.14,134c-0.47,4.89-1.35,9.78-2.24,14.67q-1.77,9.65-3.59,19.3a116.81,116.81,0,0,1-2.72,12c-1.29,4.28-2.47,10.32-5.84,13.23s-9.22,2.06-11.77-.9c-2.22-2.58-1.84-6.84-1.34-10.64l5.78-44.24c0.41-3.14,2-15.78,2.94-18.87C36.38,111.83,42.34,104.64,49.17,110.59Z"/><path class="cls-6" d="M96.4,164.56c0.14,0.26.59,0.37,1.75-.28s0.89-1.41,1.14-1.52c6.59-2.87,10.54-5.83,15.92-10.68,1.22-1.1,2.48-2.41,2.6-4,0.06-.83.89-2.73,0.62-3.51-0.65-1.88-2.71-2.84-4.63-3.34a5.58,5.58,0,0,0-4.11,1c-1.25.75-2.91,2.63-4.2,3.3-1.1.58-2.52,1.45-2.87,1.31s2.06-2.06,1.4-2.89-2,.14-2.79.76c-2.62,2-4.62,6.21-7.24,8.19-2.4,1.81-1.93.62-1.27,2.83A54.2,54.2,0,0,0,96.4,164.56Z"/><path class="cls-6" d="M28.85,195.77c2.08,1.27,5.14,1,8.1.47,4.51-.89,8.9-3,13.45-5,4.36-1.95,8.68-4.23,13-6.53,5.66-3,13-7.52,14.75-8.48,3.51-2,9.83-5.7,13.26-8,3.69-2.45,9.5-6.13,11.91-9.76a4.13,4.13,0,0,0-1.43-5.71c-2.59-1.14-11.28,1.68-14.68,3.24C77,160.69,65.78,165,50.69,172.25c-2.78,1.34-14,6.72-16.66,8.48C28.17,184.58,22.5,191.9,28.85,195.77Z"/><path class="cls-7" d="M42.76,161.54s-2,13.9-8.73,19.18l12-6.21,2.21-11.33Z"/><path class="cls-6" d="M0.28,81.2c-2.79-.89-6,0-9,1.21A59.76,59.76,0,0,0-21.61,90c-3.91,2.94-7.61,6.24-11.3,9.55q-7.29,6.53-14.54,13.11a117.84,117.84,0,0,0-8.83,8.59c-3,3.33-7.5,7.48-8.26,11.86s2.93,8.92,6.72,9.54c3.31,0.54,6.73-2,9.7-4.41l34.59-28c2.45-2,12.36-9.95,14.51-12.34C5.71,92.73,8.79,83.91.28,81.2Z"/><path class="cls-6" d="M-35.37,207.3c-4.55-3.49-10.3-5.74-11.85-7.52-0.1-.12-4.87-3.83-5.52-4.46-0.24-.2-5-3.36-5-3.41l-4.09-3.28c-1.17-1.46-3-.14-2.85-1.29s9.64-15.53,10.26-16.55c4.6-7.58,14-13.41,21.65-26.82,6.4-11.3,12.22-37.71,16.33-44.16,3.83-6,7-12.61,8.4-13.94,0.7-.64,5.83-3.74,8.87-3.59a28.17,28.17,0,0,1,6.89.9c2.39,0.82,8.2.85,12.79,3.55,3.47,1.89,4.55,2,7.47,3.84,3,1.52,3.64,2.75,7,4.7,4.58,2.48,7.23,6.81,9.13,8.4a30.86,30.86,0,0,1,4.46,5.5c1.66,2.5,1.61,8.46,1.41,9.39-0.4,1.91-4.43,8-7.58,14.4-3.39,6.85-24,24.94-30.33,36.27C4.52,182.68,4.25,192.57.14,200.43c-0.55,1.06-7.69,16.47-8.52,17.17a6.87,6.87,0,0,1-4.69.89s-1.78-2.4-1.78-2.4-5.09-2.34-5.38-2.43c-0.86-.22-6.4-2.32-6.55-2.34-2.29-.39-3.36-2-8.6-4"/><path class="cls-8" d="M21.64,80.1a21.84,21.84,0,0,1-3.91,6.63,6.21,6.21,0,0,0,.53,1.08c2.71,4.59,10.88,7.72,15.46,8.85,1.9,0.47,3.19.6,3.21,0.34,0.2-2.23,1.73-4.58,2.93-6.11l0-.05h0a20.83,20.83,0,0,1,1.43-1.64L22.13,78.37c-0.05.24-.11,0.49-0.17,0.73S21.76,79.77,21.64,80.1Z"/><path class="cls-6" d="M70.42,63C76.26,52.65,72,39.15,60.81,32.86s-24.93-3-30.77,7.39A20.11,20.11,0,0,0,28,45.67c-0.21.42-.44,0.84-0.69,1.27a61.07,61.07,0,0,0-5.47,11.67c-2.62,8-2.67,16.75,2.06,24.8a17.94,17.94,0,0,0,6.49,6.79c3.78,2.09,8.32,2.11,12.29,1.18C55.77,88.31,63.23,76.81,69,65.21A20.12,20.12,0,0,0,70.42,63Z"/><path class="cls-9" d="M-17.84,87.17C-1.65,76.1,19,85.44,19,85.44L7.68,89.76,1.6,95.27l-27.15,24.58-17.84-12.34A311.15,311.15,0,0,1-17.84,87.17Z"/><polygon class="cls-10" points="1.6 94.2 -26.55 124.63 -30.85 121.78 1.6 94.2"/><path class="cls-11" d="M-17.43,86.73C-1.54,76,19,85.44,19,85.44s-23.07-5.35-33.8,2.28c-2.59,1.84-13.74,11-24.87,20.73l-2.76-1.92A297.55,297.55,0,0,1-17.43,86.73Z"/><path class="cls-9" d="M54.75,129c1.08-19.58-17.57-32.38-17.57-32.38l2.14,11.88-1.56,8.05-7,36,19.8,8.88A311.15,311.15,0,0,0,54.75,129Z"/><polygon class="cls-10" points="38.66 115.98 27.21 155.8 31.88 158.01 38.66 115.98"/><path class="cls-11" d="M54.92,128.38c1-19.16-17.74-31.8-17.74-31.8s16.52,17,15.55,30.1c-0.23,3.16-2.33,17.47-4.85,32l3.07,1.36A297.55,297.55,0,0,0,54.92,128.38Z"/><path class="cls-12" d="M52.87,158l-25-6.46-1.06,4.76,24.52,7.94a1.93,1.93,0,0,0,2.46-1.36l0.58-2.3A2.13,2.13,0,0,0,52.87,158Z"/><path class="cls-9" d="M28.75,150.45S9.36,171.18,0,204c0,0-40.15-15-57.42-31.52,0,0,24.51-24.44,34-53.42l30.51-32L19,85.44s-9.43,9.83,4.19,16.11,14-5,14-5l3.92,15.08Z"/><path class="cls-12" d="M-12.5,135.77l0.93,0.46L-9,137.45a28.08,28.08,0,0,1,7.39,4.83c0.61,0.6,1.21,1.23,1.83,1.84a20.35,20.35,0,0,0,1.91,1.67A19.24,19.24,0,0,0,5.74,148a7.32,7.32,0,0,0,1.6.54,3.75,3.75,0,0,0,1.28.05,2.53,2.53,0,0,0,.76-0.24l0.23-.14-0.26.05a2.6,2.6,0,0,1-.74,0,5.32,5.32,0,0,1-2.35-1.16,31.2,31.2,0,0,1-3-2.65c-0.54-.53-1.07-1.1-1.62-1.72s-1.14-1.29-1.82-2a15.19,15.19,0,0,0-4.44-3,23.55,23.55,0,0,0-4-1.35c-1.17-.28-2.12-0.45-2.78-0.56Z"/><path class="cls-11" d="M40,80.18c-1.05-.15-2.74-2.81-4-3.38s-0.89-.78-1.66-1.4-2.92-1.55-3.85-3a9.83,9.83,0,0,0,.37,5.15,5.65,5.65,0,0,0,4,3.29A8.8,8.8,0,0,0,40,80.18Z"/><path class="cls-11" d="M41.26,80.31l-0.16,0-0.48-.08c-0.41-.05-1-0.15-1.68-0.3a10,10,0,0,1-1.08-.32,10.27,10.27,0,0,1-1.15-.5,8.85,8.85,0,0,1-1.14-.68,11.27,11.27,0,0,1-1.08-.86,14.53,14.53,0,0,1-3.29-3.89c-0.16-.31-0.3-0.6-0.41-0.86a6.28,6.28,0,0,1-.25-0.7c-0.06-.2-0.11-0.35-0.13-0.46l0-.17,0,0.17a4.45,4.45,0,0,0,.06.48,6.48,6.48,0,0,0,.17.73,6.22,6.22,0,0,0,.33.92,10,10,0,0,0,1.27,2.1,14.88,14.88,0,0,0,1.95,2,12,12,0,0,0,1.13.88,8.13,8.13,0,0,0,1.22.68,7.69,7.69,0,0,0,1.22.45,10.7,10.7,0,0,0,1.13.25,12.39,12.39,0,0,0,1.72.13h0.48Z"/><path class="cls-13" d="M39.4,80.09a14.65,14.65,0,0,1-8.48-7,7.48,7.48,0,0,0,3.14,5.7A7.22,7.22,0,0,0,39.4,80.09Z"/><path class="cls-14" d="M41.86,72.33c-3.78-1.2-4-4-3-5.79C36.15,69.24,37.49,72.27,41.86,72.33Z"/><path class="cls-15" d="M38,55.4a1.64,1.64,0,0,1-.08.94c-0.41,1-1.21,2.9-2.6,2.83C33.69,59.09,34,57,34.57,56a3.19,3.19,0,0,1,1.53-1.56A1.35,1.35,0,0,1,38,55.4Z"/><path class="cls-15" d="M38.91,56.57s-0.48-2.85-5.28-3C33.64,53.6,38.72,52.69,38.91,56.57Z"/><path class="cls-15" d="M53.52,64.14a1.64,1.64,0,0,0-.76.56c-0.68.89-1.86,2.54-1.08,3.69,0.93,1.37,2.51,0,3.1-1a3.19,3.19,0,0,0,.55-2.11A1.35,1.35,0,0,0,53.52,64.14Z"/><path class="cls-15" d="M52.05,64s2.69-1.07,5.28,3C57.33,67,55.48,62.13,52.05,64Z"/><path class="cls-7" d="M73.31,83a5.38,5.38,0,0,0,1.08-.77,15.89,15.89,0,0,1-1.45,4c-0.15-.42-0.32-0.84-0.51-1.27a3.63,3.63,0,0,0-.63-0.94A10.69,10.69,0,0,1,73.31,83Z"/><path class="cls-7" d="M60.26,34.07c10.72,0,19.59,15.05,15.81,27.41a32.54,32.54,0,0,0-1.4,10l-0.55.13c-1.88-2.67-6.44-3.59-8.58.11a86.14,86.14,0,0,1-5.16,7.58,9.88,9.88,0,0,0-.52-4.8c-2.46-5.74-.49-7,3.11-15.18s-6.33-7.4-8.2-17.32C54.05,37.95,49.54,34.06,60.26,34.07Z"/><path class="cls-7" d="M59.22,72.82a37.94,37.94,0,0,1-20.05,19s11.1,0.32,21.22-12.51A5.57,5.57,0,0,0,59.22,72.82Z"/><path class="cls-16" d="M45.4,50.21c-1.54-1.38-4-3.82-8.56-2.88-2.06.42-2.13,1.15,0,.89,3.69-.44,5.08,1.18,7.56,3.29C45.4,52.33,46.45,51.15,45.4,50.21Z"/><path class="cls-16" d="M55.06,55.65c2,0.6,5.33,1.43,6.89,5.83,0.7,2,.12,2.41-0.78.42-1.53-3.39-3.64-3.74-6.73-4.76C53.24,56.75,53.71,55.24,55.06,55.65Z"/><path class="cls-16" d="M57.38,39.92c1.87,9.91,11.8,9.17,8.2,17.32S60,66.68,62.47,72.42s-2.7,17.42-9.69,23.87-9.35,11.19-9.31,18.25-2,10.93-6.53,15.41-7.09,6.77,7.18,2.46S61.78,117.15,63.38,106s3-9.36,10.22-18.75,1.31-15.49,5.08-27.86S73.59,32,62.87,32,56.67,35.84,57.38,39.92Z"/><path class="cls-17" d="M64.68,35c-1.5,4.94,3.44,9.87,6.38,13s4,7.37.63,11.89S68.24,72.8,69.3,76.62,63.67,90.59,58.14,96c-5.13,5.06-6.84,15.9-7.21,20.25-0.4,4.65-2.23,9.79-5.92,11.78,5-1.06,7.54-5.83,8.29-12s0.08-10.72,7-18.52c8.77-9.87,12.62-13.09,11.37-22-1-7.07-1.54-8.23,1.89-14,3.52-6,4.14-9.24-.06-14S64.41,40.43,64.68,35Z"/><path class="cls-16" d="M57.93,40.23c-9.45,3.54-14-5.35-19.06,2S33.68,51.83,27.49,52.7,14,64,12.09,73.35,7.35,87.14,1.29,90.76-7,98.13-8.51,104.33s-2.12,9.57-5.82-4.87,3.92-23,12.64-30.16S4.75,61.88,9.05,50.85s12.58-9.14,21.2-18.77,26.08-9.83,31.64-.67S61.79,38.73,57.93,40.23Z"/><path class="cls-17" d="M58.35,31.44c-3.45,3.84-10.22,2.17-14.44,1.29s-8.39.37-10.49,5.62S24.18,48,20.36,49s-9,12-10.84,19.61C7.85,75.65-.54,82.72-4.07,85.29c-3.77,2.75-7.23,7-7,11.17-1.69-4.85,1.08-9.47,6-13.33S4.05,77.51,7.14,67.55C11,54.94,11.8,50,20.1,46.41c6.56-2.82,7.84-2.95,11-8.89,3.28-6.09,5.76-8.33,12-7.18S53.86,34.48,58.35,31.44Z"/></g></svg>