<svg id="Capa_1" data-name="Capa 1" xmlns="http://www.w3.org/2000/svg" xmlns:xlink="http://www.w3.org/1999/xlink" viewBox="0 0 505 193.9"><defs><style>.cls-1{fill:none;}.cls-2{fill:#ffe8bb;}.cls-3{fill:#1d1d1b;opacity:0.8;}.cls-4{clip-path:url(#clip-path);}.cls-5{fill:#5b4d8d;}.cls-14,.cls-16,.cls-17,.cls-5,.cls-7{fill-rule:evenodd;}.cls-6{fill:#fdd481;}.cls-7,.cls-8{fill:#f7bb64;}.cls-9{fill:#ec62a0;}.cls-10{fill:#ec92bd;}.cls-11{fill:#e3589b;}.cls-12{fill:#e34d95;}.cls-13{fill:#fff;}.cls-14{fill:#f7b447;}.cls-15{fill:#29233f;}.cls-16{fill:#6e5aa3;}.cls-17{fill:#7867ac;}</style><clipPath id="clip-path"><rect class="cls-1" x="363.68" width="141.32" height="193.9"/></clipPath></defs><title>dialogo</title><path class="cls-2" d="M425.26,61.92L401.2,46.83V25.92c0-15.54-11-25.92-26.51-25.92H29.77C14.23,0,0,10.38,0,25.92V105c0,15.54,14.23,30.36,29.77,30.36H374.69c15.54,0,26.51-14.82,26.51-30.36V79.14Z"/><path class="cls-3" d="M43.68,41.64a1.06,1.06,0,0,1,.25.75v0.38a1.06,1.06,0,0,1-.25.75,0.94,0.94,0,0,1-.73.27H42.73A1,1,0,0,1,42,43.52a1.06,1.06,0,0,1-.25-0.75V42.39A1.06,1.06,0,0,1,42,41.64a1,1,0,0,1,.73-0.27H43A1,1,0,0,1,43.68,41.64Zm-0.25,4.57,0.44,8a1.14,1.14,0,0,1-.25.86,1.05,1.05,0,0,1-1.55,0,1.16,1.16,0,0,1-.24-0.86l0.42-8a0.75,0.75,0,0,1,.17-0.48,0.53,0.53,0,0,1,.41-0.16A0.57,0.57,0,0,1,43.43,46.21Z"/><path class="cls-3" d="M56.27,39.45L52,45.51V51a0.94,0.94,0,0,1-.27.68,0.87,0.87,0,0,1-.65.28,1,1,0,0,1-1-1V45.35l-4.28-5.78a1.17,1.17,0,0,1-.28-0.72,0.87,0.87,0,0,1,.32-0.68,1,1,0,0,1,.7-0.28,0.94,0.94,0,0,1,.78.44l3.76,5.2,3.62-5.18a1,1,0,0,1,.8-0.46,0.91,0.91,0,0,1,.66.28,0.92,0.92,0,0,1,.28.68A1.16,1.16,0,0,1,56.27,39.45Z"/><path class="cls-3" d="M66.76,41.6a1,1,0,0,1,.27.71V51a0.94,0.94,0,0,1-.27.68,0.92,0.92,0,0,1-.69.28,0.9,0.9,0,0,1-.68-0.27A1,1,0,0,1,65.13,51V50.47a4.27,4.27,0,0,1-1.42,1.19,4,4,0,0,1-1.94.49,4.54,4.54,0,0,1-2.47-.7,4.81,4.81,0,0,1-1.74-2,6.57,6.57,0,0,1,0-5.62,4.82,4.82,0,0,1,1.73-2,4.57,4.57,0,0,1,4.39-.26,4.08,4.08,0,0,1,1.45,1.12V42.31a1,1,0,0,1,.26-0.7,0.88,0.88,0,0,1,.68-0.28A0.93,0.93,0,0,1,66.76,41.6Zm-3.1,8.31a3.24,3.24,0,0,0,1.14-1.32,4.56,4.56,0,0,0,0-3.78,3.32,3.32,0,0,0-1.14-1.33A2.93,2.93,0,0,0,62,43a3,3,0,0,0-1.67.48,3.24,3.24,0,0,0-1.14,1.32,4.62,4.62,0,0,0,0,3.8,3.24,3.24,0,0,0,1.14,1.32A3.14,3.14,0,0,0,63.66,49.91Z"/><path class="cls-3" d="M84.29,46.92a1,1,0,0,1-.66.25h-7a3.47,3.47,0,0,0,1.11,2.34,3.4,3.4,0,0,0,2.37.88,3.73,3.73,0,0,0,1.56-.28,4,4,0,0,0,1.06-.72,1.12,1.12,0,0,1,.58-0.18,0.76,0.76,0,0,1,.57.24,0.78,0.78,0,0,1,.23.56,1,1,0,0,1-.4.76,4.68,4.68,0,0,1-1.54,1,5,5,0,0,1-2,.4,5.79,5.79,0,0,1-2.85-.68,4.73,4.73,0,0,1-1.9-1.9,5.63,5.63,0,0,1-.67-2.76,6.07,6.07,0,0,1,.69-2.95,5,5,0,0,1,1.82-2,4.69,4.69,0,0,1,4.83,0,5,5,0,0,1,1.8,1.82,5.2,5.2,0,0,1,.7,2.6A0.86,0.86,0,0,1,84.29,46.92Zm-6.54-3.3a3.1,3.1,0,0,0-1.08,1.95h5.9V45.41a2.45,2.45,0,0,0-1-1.74A3,3,0,0,0,79.69,43,3.09,3.09,0,0,0,77.75,43.62Z"/><path class="cls-3" d="M86,49.77a0.81,0.81,0,0,1,.42-0.68,0.79,0.79,0,0,1,.46-0.14,0.92,0.92,0,0,1,.66.3,4.22,4.22,0,0,0,1.29,1,3.69,3.69,0,0,0,1.65.34,2.83,2.83,0,0,0,1.34-.35,1.14,1.14,0,0,0,.58-1.07,1.15,1.15,0,0,0-.59-1,6.76,6.76,0,0,0-1.73-.66,12.79,12.79,0,0,1-1.86-.63,3.35,3.35,0,0,1-1.25-1,2.81,2.81,0,0,1,0-3.23,3.4,3.4,0,0,1,1.36-1.06,4.47,4.47,0,0,1,1.85-.38,5.35,5.35,0,0,1,1.91.36,3.57,3.57,0,0,1,1.55,1.1,0.88,0.88,0,0,1,.24.58,0.86,0.86,0,0,1-.32.62,0.72,0.72,0,0,1-.5.18,0.75,0.75,0,0,1-.58-0.24,2.82,2.82,0,0,0-1-.74,3.42,3.42,0,0,0-1.35-.26,2.51,2.51,0,0,0-1.29.31,1.12,1.12,0,0,0-.53,1.05,1.16,1.16,0,0,0,.61,1,7.75,7.75,0,0,0,1.81.66,11.32,11.32,0,0,1,1.76.6,3.06,3.06,0,0,1,1.18,1,2.65,2.65,0,0,1,.48,1.65,2.56,2.56,0,0,1-.54,1.63,3.49,3.49,0,0,1-1.41,1.06,4.69,4.69,0,0,1-1.85.37A6.07,6.07,0,0,1,88,51.71a4.34,4.34,0,0,1-1.81-1.4A1,1,0,0,1,86,49.77Z"/><path class="cls-3" d="M99.17,43.33v6a0.84,0.84,0,0,0,.9,1,1.45,1.45,0,0,0,.38-0.07,1.44,1.44,0,0,1,.38-0.07,0.55,0.55,0,0,1,.44.22,0.84,0.84,0,0,1-.3,1.28,2,2,0,0,1-1.08.3,4.89,4.89,0,0,1-1.21-.14,1.79,1.79,0,0,1-1-.71,2.86,2.86,0,0,1-.43-1.73v-6H96.11a0.85,0.85,0,0,1-.88-0.88,0.83,0.83,0,0,1,.25-0.62,0.88,0.88,0,0,1,.63-0.24h1.16V39.91a1,1,0,0,1,.27-0.68,0.92,0.92,0,0,1,.69-0.28,0.9,0.9,0,0,1,.67.28,1,1,0,0,1,.27.68v1.68h1.66a0.85,0.85,0,0,1,.88.88,0.82,0.82,0,0,1-.25.62,0.88,0.88,0,0,1-.63.24H99.17Z"/><path class="cls-3" d="M113.12,41.6a1,1,0,0,1,.27.71V51a0.94,0.94,0,0,1-.27.68,0.92,0.92,0,0,1-.69.28,0.9,0.9,0,0,1-.68-0.27,1,1,0,0,1-.26-0.69V50.47a4.27,4.27,0,0,1-1.42,1.19,4,4,0,0,1-1.94.49,4.54,4.54,0,0,1-2.47-.7,4.81,4.81,0,0,1-1.74-2,6.57,6.57,0,0,1,0-5.62,4.82,4.82,0,0,1,1.73-2,4.57,4.57,0,0,1,4.39-.26,4.08,4.08,0,0,1,1.45,1.12V42.31a1,1,0,0,1,.26-0.7,0.88,0.88,0,0,1,.68-0.28A0.93,0.93,0,0,1,113.12,41.6ZM110,49.91a3.24,3.24,0,0,0,1.14-1.32,4.56,4.56,0,0,0,0-3.78A3.32,3.32,0,0,0,110,43.48a2.93,2.93,0,0,0-1.67-.49,3,3,0,0,0-1.67.48,3.24,3.24,0,0,0-1.14,1.32,4.62,4.62,0,0,0,0,3.8,3.24,3.24,0,0,0,1.14,1.32A3.14,3.14,0,0,0,110,49.91Z"/><path class="cls-3" d="M131.73,45.65V51a1,1,0,0,1-.26.69,0.9,0.9,0,0,1-.68.27,0.92,0.92,0,0,1-.69-0.28,0.94,0.94,0,0,1-.27-0.68V45.67q0-2.62-2.2-2.62a2.86,2.86,0,0,0-1.41.35,2.54,2.54,0,0,0-1,1,2.57,2.57,0,0,0-.35,1.32V51a0.94,0.94,0,0,1-.27.68,0.92,0.92,0,0,1-.69.28,0.9,0.9,0,0,1-.68-0.27A1,1,0,0,1,123,51V45.65a3.22,3.22,0,0,0-.5-1.89,1.89,1.89,0,0,0-1.66-.71,2.68,2.68,0,0,0-2,.75,2.48,2.48,0,0,0-.77,1.85V51a0.94,0.94,0,0,1-.27.68,0.92,0.92,0,0,1-.69.28,0.9,0.9,0,0,1-.68-0.27,1,1,0,0,1-.26-0.69V42.43a0.94,0.94,0,0,1,.27-0.68,0.9,0.9,0,0,1,.67-0.28,0.92,0.92,0,0,1,.69.28,0.94,0.94,0,0,1,.27.68v0.7a4.38,4.38,0,0,1,1.39-1.31,3.57,3.57,0,0,1,1.89-.53,3.07,3.07,0,0,1,3.22,2.2A4.24,4.24,0,0,1,126.07,42a3.83,3.83,0,0,1,2.16-.68Q131.73,41.29,131.73,45.65Z"/><path class="cls-3" d="M143.79,49.51a5.09,5.09,0,0,1-1.91,1.94,5.45,5.45,0,0,1-5.34,0,5.09,5.09,0,0,1-1.91-1.94,5.6,5.6,0,0,1-.7-2.8,5.71,5.71,0,0,1,.7-2.82,5.05,5.05,0,0,1,1.91-2,5.44,5.44,0,0,1,5.34,0,5.05,5.05,0,0,1,1.91,2,5.71,5.71,0,0,1,.7,2.82A5.6,5.6,0,0,1,143.79,49.51Zm-1.65-4.73a3.34,3.34,0,0,0-1.22-1.32,3.34,3.34,0,0,0-3.42,0,3.33,3.33,0,0,0-1.22,1.32,4.06,4.06,0,0,0-.45,1.93,4,4,0,0,0,.45,1.9,3.35,3.35,0,0,0,1.22,1.31,3.35,3.35,0,0,0,3.42,0,3.36,3.36,0,0,0,1.22-1.31,4,4,0,0,0,.45-1.9A4.06,4.06,0,0,0,142.14,44.78Z"/><path class="cls-3" d="M145.91,49.77a0.81,0.81,0,0,1,.42-0.68,0.78,0.78,0,0,1,.46-0.14,0.92,0.92,0,0,1,.66.3,4.2,4.2,0,0,0,1.29,1,3.68,3.68,0,0,0,1.65.34,2.82,2.82,0,0,0,1.34-.35,1.14,1.14,0,0,0,.58-1.07,1.15,1.15,0,0,0-.59-1,6.75,6.75,0,0,0-1.73-.66,12.79,12.79,0,0,1-1.86-.63,3.34,3.34,0,0,1-1.25-1,2.81,2.81,0,0,1,0-3.23,3.38,3.38,0,0,1,1.36-1.06,4.47,4.47,0,0,1,1.85-.38,5.35,5.35,0,0,1,1.91.36,3.58,3.58,0,0,1,1.55,1.1,0.88,0.88,0,0,1,.24.58,0.86,0.86,0,0,1-.32.62,0.72,0.72,0,0,1-.5.18,0.75,0.75,0,0,1-.58-0.24,2.81,2.81,0,0,0-1-.74,3.41,3.41,0,0,0-1.35-.26,2.51,2.51,0,0,0-1.29.31,1.12,1.12,0,0,0-.53,1.05,1.16,1.16,0,0,0,.61,1,7.74,7.74,0,0,0,1.81.66,11.3,11.3,0,0,1,1.76.6,3.08,3.08,0,0,1,1.18,1,2.64,2.64,0,0,1,.48,1.65,2.57,2.57,0,0,1-.54,1.63,3.49,3.49,0,0,1-1.41,1.06,4.69,4.69,0,0,1-1.85.37,6.08,6.08,0,0,1-2.33-.44,4.34,4.34,0,0,1-1.81-1.4A1,1,0,0,1,145.91,49.77Z"/><path class="cls-3" d="M164.61,43.33v6a0.84,0.84,0,0,0,.9,1,1.45,1.45,0,0,0,.38-0.07,1.44,1.44,0,0,1,.38-0.07,0.55,0.55,0,0,1,.44.22,0.84,0.84,0,0,1-.3,1.28,2,2,0,0,1-1.08.3,4.89,4.89,0,0,1-1.21-.14,1.79,1.79,0,0,1-1-.71,2.86,2.86,0,0,1-.43-1.73v-6h-1.16a0.85,0.85,0,0,1-.88-0.88,0.83,0.83,0,0,1,.25-0.62,0.88,0.88,0,0,1,.63-0.24h1.16V39.91a1,1,0,0,1,.27-0.68,0.92,0.92,0,0,1,.69-0.28,0.9,0.9,0,0,1,.67.28,1,1,0,0,1,.27.68v1.68h1.66a0.85,0.85,0,0,1,.88.88,0.82,0.82,0,0,1-.25.62,0.88,0.88,0,0,1-.63.24h-1.66Z"/><path class="cls-3" d="M178.17,46.92a1,1,0,0,1-.66.25h-7a3.48,3.48,0,0,0,1.11,2.34,3.4,3.4,0,0,0,2.37.88,3.73,3.73,0,0,0,1.56-.28,4,4,0,0,0,1.06-.72,1.13,1.13,0,0,1,.58-0.18,0.76,0.76,0,0,1,.57.24,0.79,0.79,0,0,1,.23.56,1,1,0,0,1-.4.76,4.69,4.69,0,0,1-1.54,1,5,5,0,0,1-2,.4,5.8,5.8,0,0,1-2.85-.68,4.73,4.73,0,0,1-1.9-1.9,5.63,5.63,0,0,1-.67-2.76,6.08,6.08,0,0,1,.69-2.95,5,5,0,0,1,1.82-2,4.69,4.69,0,0,1,4.83,0,5,5,0,0,1,1.8,1.82,5.2,5.2,0,0,1,.7,2.6A0.86,0.86,0,0,1,178.17,46.92Zm-6.54-3.3a3.1,3.1,0,0,0-1.08,1.95h5.9V45.41a2.44,2.44,0,0,0-1-1.74,3,3,0,0,0-1.93-.68A3.09,3.09,0,0,0,171.63,43.62Z"/><path class="cls-3" d="M186.79,41.5a0.8,0.8,0,0,1,.38.67,1,1,0,0,1-.25.73,0.83,0.83,0,0,1-.61.25,1.89,1.89,0,0,1-.54-0.12,2.24,2.24,0,0,0-.66-0.14,2,2,0,0,0-1.21.43,3.14,3.14,0,0,0-1,1.18,3.72,3.72,0,0,0-.37,1.67V51a0.94,0.94,0,0,1-.27.68,0.92,0.92,0,0,1-.69.28,0.9,0.9,0,0,1-.68-0.27,1,1,0,0,1-.26-0.69V42.43a0.94,0.94,0,0,1,.27-0.68,0.9,0.9,0,0,1,.67-0.28,0.92,0.92,0,0,1,.69.28,0.94,0.94,0,0,1,.27.68v1a3.77,3.77,0,0,1,1.32-1.59,3.54,3.54,0,0,1,2-.63A1.51,1.51,0,0,1,186.79,41.5Z"/><path class="cls-3" d="M204.45,45.65V51a1,1,0,0,1-.26.69,0.9,0.9,0,0,1-.68.27,0.92,0.92,0,0,1-.69-0.28,0.94,0.94,0,0,1-.27-0.68V45.67q0-2.62-2.2-2.62a2.86,2.86,0,0,0-1.41.35,2.54,2.54,0,0,0-1,1,2.57,2.57,0,0,0-.35,1.32V51a0.94,0.94,0,0,1-.27.68,0.92,0.92,0,0,1-.69.28,0.9,0.9,0,0,1-.68-0.27,1,1,0,0,1-.26-0.69V45.65a3.22,3.22,0,0,0-.5-1.89,1.89,1.89,0,0,0-1.66-.71,2.68,2.68,0,0,0-2,.75,2.48,2.48,0,0,0-.77,1.85V51a0.94,0.94,0,0,1-.27.68,0.92,0.92,0,0,1-.69.28,0.9,0.9,0,0,1-.68-0.27,1,1,0,0,1-.26-0.69V42.43a0.94,0.94,0,0,1,.27-0.68,0.9,0.9,0,0,1,.67-0.28,0.92,0.92,0,0,1,.69.28,0.94,0.94,0,0,1,.27.68v0.7a4.38,4.38,0,0,1,1.39-1.31,3.57,3.57,0,0,1,1.89-.53,3.07,3.07,0,0,1,3.22,2.2A4.24,4.24,0,0,1,198.79,42a3.83,3.83,0,0,1,2.16-.68Q204.45,41.29,204.45,45.65Z"/><path class="cls-3" d="M207.3,39.84a0.83,0.83,0,0,1-.25-0.67V38.85a0.79,0.79,0,0,1,.27-0.68,1.39,1.39,0,0,1,.83-0.2,1.26,1.26,0,0,1,.81.21,0.83,0.83,0,0,1,.25.67v0.32a0.81,0.81,0,0,1-.26.68,1.35,1.35,0,0,1-.82.2A1.3,1.3,0,0,1,207.3,39.84Zm1.52,11.83a0.92,0.92,0,0,1-.69.28,0.89,0.89,0,0,1-.67-0.28,0.94,0.94,0,0,1-.27-0.68V42.33a1,1,0,0,1,.27-0.68,0.9,0.9,0,0,1,.67-0.28,0.92,0.92,0,0,1,.69.28,1,1,0,0,1,.27.68V51A0.94,0.94,0,0,1,208.82,51.67Z"/><path class="cls-3" d="M220.77,45.55V51a0.94,0.94,0,0,1-.27.68,0.92,0.92,0,0,1-.69.28,0.89,0.89,0,0,1-.67-0.28,0.94,0.94,0,0,1-.27-0.68V45.57a3,3,0,0,0-.54-1.88,2.09,2.09,0,0,0-1.76-.7,3,3,0,0,0-1.45.35,2.67,2.67,0,0,0-1,.94,2.38,2.38,0,0,0-.37,1.29V51a0.94,0.94,0,0,1-.27.68,0.92,0.92,0,0,1-.69.28,0.9,0.9,0,0,1-.68-0.27,1,1,0,0,1-.26-0.69V42.43a1,1,0,0,1,.27-0.68,0.9,0.9,0,0,1,.67-0.28,0.92,0.92,0,0,1,.69.28,1,1,0,0,1,.27.68v0.7a4.29,4.29,0,0,1,1.45-1.35,3.84,3.84,0,0,1,2-.55Q220.77,41.23,220.77,45.55Z"/><path class="cls-3" d="M232.8,41.6a1,1,0,0,1,.27.71V51a0.94,0.94,0,0,1-.27.68,0.92,0.92,0,0,1-.69.28,0.9,0.9,0,0,1-.68-0.27,1,1,0,0,1-.26-0.69V50.47a4.28,4.28,0,0,1-1.42,1.19,4,4,0,0,1-1.94.49,4.53,4.53,0,0,1-2.47-.7,4.8,4.8,0,0,1-1.74-2,6.58,6.58,0,0,1,0-5.62,4.83,4.83,0,0,1,1.73-2,4.57,4.57,0,0,1,4.39-.26,4.09,4.09,0,0,1,1.45,1.12V42.31a1,1,0,0,1,.26-0.7,0.88,0.88,0,0,1,.68-0.28A0.94,0.94,0,0,1,232.8,41.6Zm-3.1,8.31a3.24,3.24,0,0,0,1.14-1.32,4.56,4.56,0,0,0,0-3.78,3.31,3.31,0,0,0-1.14-1.33A2.93,2.93,0,0,0,228,43a3,3,0,0,0-1.67.48,3.25,3.25,0,0,0-1.14,1.32,4.61,4.61,0,0,0,0,3.8,3.24,3.24,0,0,0,1.14,1.32A3.14,3.14,0,0,0,229.7,49.91Z"/><path class="cls-3" d="M244.83,45.55V51a0.94,0.94,0,0,1-.27.68,0.92,0.92,0,0,1-.69.28,0.89,0.89,0,0,1-.67-0.28,0.94,0.94,0,0,1-.27-0.68V45.57a3,3,0,0,0-.54-1.88,2.09,2.09,0,0,0-1.76-.7,3,3,0,0,0-1.45.35,2.67,2.67,0,0,0-1,.94,2.38,2.38,0,0,0-.37,1.29V51a0.94,0.94,0,0,1-.27.68,0.92,0.92,0,0,1-.69.28,0.9,0.9,0,0,1-.68-0.27,1,1,0,0,1-.26-0.69V42.43a1,1,0,0,1,.27-0.68,0.9,0.9,0,0,1,.67-0.28,0.92,0.92,0,0,1,.69.28,1,1,0,0,1,.27.68v0.7a4.29,4.29,0,0,1,1.45-1.35,3.84,3.84,0,0,1,2-.55Q244.83,41.23,244.83,45.55Z"/><path class="cls-3" d="M256.86,37.42a0.93,0.93,0,0,1,.27.69V51a0.94,0.94,0,0,1-.27.68,0.92,0.92,0,0,1-.69.28,0.9,0.9,0,0,1-.68-0.27,1,1,0,0,1-.26-0.69V50.43a4.06,4.06,0,0,1-1.41,1.22,4,4,0,0,1-2,.5,4.48,4.48,0,0,1-2.46-.7,4.9,4.9,0,0,1-1.74-2,6.07,6.07,0,0,1-.64-2.81,6.16,6.16,0,0,1,.63-2.81,4.83,4.83,0,0,1,1.73-2,4.55,4.55,0,0,1,4.38-.26,4.21,4.21,0,0,1,1.46,1.14v-4.7a1,1,0,0,1,.26-0.69,0.9,0.9,0,0,1,.68-0.27A0.93,0.93,0,0,1,256.86,37.42Zm-3.1,12.49a3.24,3.24,0,0,0,1.14-1.32,4.58,4.58,0,0,0,0-3.79,3.23,3.23,0,0,0-1.14-1.33,3.14,3.14,0,0,0-3.34,0,3.24,3.24,0,0,0-1.14,1.33,4.58,4.58,0,0,0,0,3.79,3.24,3.24,0,0,0,1.14,1.32A3.14,3.14,0,0,0,253.76,49.91Z"/><path class="cls-3" d="M269.17,49.51a5.09,5.09,0,0,1-1.91,1.94,5.45,5.45,0,0,1-5.34,0A5.08,5.08,0,0,1,260,49.51a5.59,5.59,0,0,1-.7-2.8,5.7,5.7,0,0,1,.7-2.82,5,5,0,0,1,1.91-2,5.44,5.44,0,0,1,5.34,0,5.05,5.05,0,0,1,1.91,2,5.71,5.71,0,0,1,.7,2.82A5.6,5.6,0,0,1,269.17,49.51Zm-1.65-4.73a3.33,3.33,0,0,0-1.22-1.32,3.34,3.34,0,0,0-3.42,0,3.34,3.34,0,0,0-1.22,1.32,4.06,4.06,0,0,0-.45,1.93,4,4,0,0,0,.45,1.9,3.36,3.36,0,0,0,1.22,1.31,3.35,3.35,0,0,0,3.42,0,3.36,3.36,0,0,0,1.22-1.31,4,4,0,0,0,.45-1.9A4.06,4.06,0,0,0,267.52,44.78Z"/><path class="cls-3" d="M272.14,51.68a1.06,1.06,0,0,1-.25-0.75V50.55a1.06,1.06,0,0,1,.25-0.75,1,1,0,0,1,.73-0.27h0.22a1,1,0,0,1,.73.27,1.06,1.06,0,0,1,.25.75v0.38a1.06,1.06,0,0,1-.25.75,0.94,0.94,0,0,1-.73.27h-0.22A0.94,0.94,0,0,1,272.14,51.68Zm0.25-4.57-0.44-8a1.14,1.14,0,0,1,.25-0.86,1.05,1.05,0,0,1,1.55,0,1.16,1.16,0,0,1,.24.86l-0.42,8a0.75,0.75,0,0,1-.17.48,0.54,0.54,0,0,1-.41.16A0.57,0.57,0,0,1,272.39,47.11Z"/><path class="cls-3" d="M293.33,51.09a0.91,0.91,0,0,1-.9.92,0.84,0.84,0,0,1-.51-0.17,1.2,1.2,0,0,1-.37-0.47l-1.24-2.94h-6.18l-1.22,3a0.87,0.87,0,0,1-.84.62,0.87,0.87,0,0,1-.64-0.22,0.81,0.81,0,0,1-.22-0.6,2.34,2.34,0,0,1,0-.32l5.1-12.36a1.11,1.11,0,0,1,.39-0.49,0.81,0.81,0,0,1,.57-0.13,1,1,0,0,1,.54.16,0.86,0.86,0,0,1,.34.46l5.08,12.2A1.19,1.19,0,0,1,293.33,51.09Zm-8.44-4.48h4.66L287.21,41Z"/><path class="cls-3" d="M303.85,45.65V51a0.94,0.94,0,0,1-.27.68,0.92,0.92,0,0,1-.69.28,0.89,0.89,0,0,1-.67-0.28,0.94,0.94,0,0,1-.27-0.68V45.65q0-2.6-2.2-2.6a2.72,2.72,0,0,0-2,.75,2.47,2.47,0,0,0-.78,1.85V51a0.94,0.94,0,0,1-.27.68,0.92,0.92,0,0,1-.69.28,0.9,0.9,0,0,1-.68-0.27,1,1,0,0,1-.26-0.69V38.11a0.94,0.94,0,0,1,.27-0.68,0.89,0.89,0,0,1,.67-0.28,0.92,0.92,0,0,1,.69.28,0.94,0.94,0,0,1,.27.68v5.06a4.26,4.26,0,0,1,1.4-1.33,3.63,3.63,0,0,1,1.92-.55Q303.85,41.29,303.85,45.65Z"/><path class="cls-3" d="M315.91,49.51A5.09,5.09,0,0,1,314,51.45a5.45,5.45,0,0,1-5.34,0,5.08,5.08,0,0,1-1.91-1.94,5.59,5.59,0,0,1-.7-2.8,5.7,5.7,0,0,1,.7-2.82,5,5,0,0,1,1.91-2,5.44,5.44,0,0,1,5.34,0,5.05,5.05,0,0,1,1.91,2,5.71,5.71,0,0,1,.7,2.82A5.6,5.6,0,0,1,315.91,49.51Zm-1.65-4.73A3.33,3.33,0,0,0,313,43.46a3.34,3.34,0,0,0-3.42,0,3.34,3.34,0,0,0-1.22,1.32,4.06,4.06,0,0,0-.45,1.93,4,4,0,0,0,.45,1.9,3.36,3.36,0,0,0,1.22,1.31,3.35,3.35,0,0,0,3.42,0,3.36,3.36,0,0,0,1.22-1.31,4,4,0,0,0,.45-1.9A4.06,4.06,0,0,0,314.26,44.78Z"/><path class="cls-3" d="M324.93,41.5a0.8,0.8,0,0,1,.38.67,1,1,0,0,1-.25.73,0.83,0.83,0,0,1-.61.25,1.9,1.9,0,0,1-.54-0.12,2.23,2.23,0,0,0-.66-0.14,2,2,0,0,0-1.21.43,3.14,3.14,0,0,0-1,1.18,3.72,3.72,0,0,0-.37,1.67V51a0.94,0.94,0,0,1-.27.68,0.92,0.92,0,0,1-.69.28,0.9,0.9,0,0,1-.68-0.27,1,1,0,0,1-.26-0.69V42.43a0.94,0.94,0,0,1,.27-0.68,0.89,0.89,0,0,1,.67-0.28,0.92,0.92,0,0,1,.69.28,0.94,0.94,0,0,1,.27.68v1A3.77,3.77,0,0,1,322,41.86a3.54,3.54,0,0,1,2-.63A1.52,1.52,0,0,1,324.93,41.5Z"/><path class="cls-3" d="M336,41.6a1,1,0,0,1,.27.71V51a0.94,0.94,0,0,1-.27.68,0.92,0.92,0,0,1-.69.28,0.9,0.9,0,0,1-.68-0.27,1,1,0,0,1-.26-0.69V50.47A4.28,4.28,0,0,1,333,51.66a4,4,0,0,1-1.94.49,4.53,4.53,0,0,1-2.47-.7,4.8,4.8,0,0,1-1.74-2,6.58,6.58,0,0,1,0-5.62,4.82,4.82,0,0,1,1.73-2,4.57,4.57,0,0,1,4.39-.26,4.09,4.09,0,0,1,1.45,1.12V42.31a1,1,0,0,1,.26-0.7,0.88,0.88,0,0,1,.68-0.28A0.94,0.94,0,0,1,336,41.6Zm-3.1,8.31a3.25,3.25,0,0,0,1.14-1.32,4.57,4.57,0,0,0,0-3.78,3.32,3.32,0,0,0-1.14-1.33,2.93,2.93,0,0,0-1.67-.49,3,3,0,0,0-1.67.48,3.24,3.24,0,0,0-1.14,1.32,4.61,4.61,0,0,0,0,3.8,3.24,3.24,0,0,0,1.14,1.32A3.14,3.14,0,0,0,332.92,49.91Z"/><path class="cls-3" d="M35.61,73.77A0.81,0.81,0,0,1,36,73.09a0.78,0.78,0,0,1,.46-0.14,0.92,0.92,0,0,1,.66.3,4.2,4.2,0,0,0,1.29,1,3.68,3.68,0,0,0,1.65.34,2.82,2.82,0,0,0,1.34-.35A1.14,1.14,0,0,0,42,73.19a1.15,1.15,0,0,0-.59-1,6.75,6.75,0,0,0-1.73-.66,12.79,12.79,0,0,1-1.86-.63,3.34,3.34,0,0,1-1.25-1,2.81,2.81,0,0,1,0-3.23,3.38,3.38,0,0,1,1.36-1.06,4.47,4.47,0,0,1,1.85-.38,5.35,5.35,0,0,1,1.91.36,3.58,3.58,0,0,1,1.55,1.1,0.88,0.88,0,0,1,.24.58,0.86,0.86,0,0,1-.32.62,0.72,0.72,0,0,1-.5.18,0.75,0.75,0,0,1-.58-0.24,2.81,2.81,0,0,0-1-.74,3.41,3.41,0,0,0-1.35-.26,2.51,2.51,0,0,0-1.29.31,1.12,1.12,0,0,0-.53,1.05,1.16,1.16,0,0,0,.61,1,7.74,7.74,0,0,0,1.81.66,11.3,11.3,0,0,1,1.76.6,3.08,3.08,0,0,1,1.18,1,2.64,2.64,0,0,1,.48,1.65,2.57,2.57,0,0,1-.54,1.63,3.49,3.49,0,0,1-1.41,1.06,4.69,4.69,0,0,1-1.85.37,6.08,6.08,0,0,1-2.33-.44,4.34,4.34,0,0,1-1.81-1.4A1,1,0,0,1,35.61,73.77Z"/><path class="cls-3" d="M54.83,70.92a1,1,0,0,1-.66.25h-7a3.47,3.47,0,0,0,1.11,2.34,3.4,3.4,0,0,0,2.37.88,3.73,3.73,0,0,0,1.56-.28,4,4,0,0,0,1.06-.72,1.12,1.12,0,0,1,.58-0.18,0.76,0.76,0,0,1,.57.24,0.78,0.78,0,0,1,.23.56,1,1,0,0,1-.4.76,4.68,4.68,0,0,1-1.54,1,5,5,0,0,1-2,.4,5.79,5.79,0,0,1-2.85-.68,4.73,4.73,0,0,1-1.9-1.9,5.63,5.63,0,0,1-.67-2.76A6.07,6.07,0,0,1,46,67.86a5,5,0,0,1,1.82-2,4.69,4.69,0,0,1,4.83,0,5,5,0,0,1,1.8,1.82,5.2,5.2,0,0,1,.7,2.6A0.86,0.86,0,0,1,54.83,70.92Zm-6.54-3.3a3.1,3.1,0,0,0-1.08,1.95h5.9V69.41a2.45,2.45,0,0,0-1-1.74A3,3,0,0,0,50.23,67,3.09,3.09,0,0,0,48.29,67.62Z"/><path class="cls-3" d="M59.11,75.67a0.93,0.93,0,0,1-.68.28,0.89,0.89,0,0,1-.67-0.28A0.94,0.94,0,0,1,57.49,75V62.11a1,1,0,0,1,1-1,0.89,0.89,0,0,1,.67.28,0.94,0.94,0,0,1,.27.68V75A0.93,0.93,0,0,1,59.11,75.67Z"/><path class="cls-3" d="M71.09,70.92a1,1,0,0,1-.66.25h-7a3.48,3.48,0,0,0,1.11,2.34,3.4,3.4,0,0,0,2.37.88,3.73,3.73,0,0,0,1.56-.28,4,4,0,0,0,1.06-.72,1.13,1.13,0,0,1,.58-0.18,0.76,0.76,0,0,1,.57.24,0.79,0.79,0,0,1,.23.56,1,1,0,0,1-.4.76,4.69,4.69,0,0,1-1.54,1,5,5,0,0,1-2,.4,5.8,5.8,0,0,1-2.85-.68,4.73,4.73,0,0,1-1.9-1.9,5.63,5.63,0,0,1-.67-2.76,6.08,6.08,0,0,1,.69-2.95,5,5,0,0,1,1.82-2,4.69,4.69,0,0,1,4.83,0,5,5,0,0,1,1.8,1.82,5.2,5.2,0,0,1,.7,2.6A0.86,0.86,0,0,1,71.09,70.92Zm-6.54-3.3a3.1,3.1,0,0,0-1.08,1.95h5.9V69.41a2.44,2.44,0,0,0-1-1.74A3,3,0,0,0,66.49,67,3.09,3.09,0,0,0,64.55,67.62Z"/><path class="cls-3" d="M80.78,65.73a1.49,1.49,0,0,1,1,1.28,0.94,0.94,0,0,1-.22.61,0.69,0.69,0,0,1-.56.27,0.87,0.87,0,0,1-.41-0.08,4.21,4.21,0,0,1-.41-0.26,2.16,2.16,0,0,0-.38-0.28,2.68,2.68,0,0,0-.68-0.2,4.56,4.56,0,0,0-.8-0.08,3.5,3.5,0,0,0-1.84.48,3.27,3.27,0,0,0-1.24,1.33,4.06,4.06,0,0,0-.44,1.89,4.1,4.1,0,0,0,.43,1.9,3.25,3.25,0,0,0,1.21,1.32,3.32,3.32,0,0,0,1.78.48A3.77,3.77,0,0,0,80,74.07a3.92,3.92,0,0,0,.38-0.26,2.41,2.41,0,0,1,.35-0.24,0.79,0.79,0,0,1,.37-0.08,0.82,0.82,0,0,1,.63.25,0.93,0.93,0,0,1,.23.65,1.11,1.11,0,0,1-.53.83,4.25,4.25,0,0,1-1.42.67,6.76,6.76,0,0,1-1.91.26,5,5,0,0,1-2.68-.71,4.76,4.76,0,0,1-1.79-2A6.11,6.11,0,0,1,73,70.69a5.88,5.88,0,0,1,.66-2.79,4.91,4.91,0,0,1,1.84-2,5.13,5.13,0,0,1,2.7-.71A6.11,6.11,0,0,1,80.78,65.73Z"/><path class="cls-3" d="M91.06,65.73A1.49,1.49,0,0,1,92.11,67a0.94,0.94,0,0,1-.22.61,0.69,0.69,0,0,1-.56.27,0.87,0.87,0,0,1-.41-0.08,4.33,4.33,0,0,1-.41-0.26,2.16,2.16,0,0,0-.38-0.28,2.67,2.67,0,0,0-.68-0.2,4.57,4.57,0,0,0-.8-0.08,3.5,3.5,0,0,0-1.84.48,3.27,3.27,0,0,0-1.24,1.33,4,4,0,0,0-.44,1.89,4.11,4.11,0,0,0,.43,1.9,3.26,3.26,0,0,0,1.21,1.32,3.33,3.33,0,0,0,1.78.48,2.68,2.68,0,0,0,2.06-.58A2.41,2.41,0,0,1,91,73.57a0.78,0.78,0,0,1,.37-0.08,0.82,0.82,0,0,1,.63.25,0.93,0.93,0,0,1,.23.65,1.11,1.11,0,0,1-.53.83,4.26,4.26,0,0,1-1.42.67,6.77,6.77,0,0,1-1.91.26,5,5,0,0,1-2.68-.71,4.76,4.76,0,0,1-1.79-2,6.11,6.11,0,0,1-.63-2.79,5.89,5.89,0,0,1,.66-2.79,4.92,4.92,0,0,1,1.84-2,5.14,5.14,0,0,1,2.7-.71A6.11,6.11,0,0,1,91.06,65.73Z"/><path class="cls-3" d="M94.16,63.84a0.83,0.83,0,0,1-.25-0.67V62.85a0.79,0.79,0,0,1,.27-0.68A1.39,1.39,0,0,1,95,62a1.26,1.26,0,0,1,.81.21,0.83,0.83,0,0,1,.25.67v0.32a0.81,0.81,0,0,1-.26.68A1.34,1.34,0,0,1,95,64,1.29,1.29,0,0,1,94.16,63.84Zm1.52,11.83a0.92,0.92,0,0,1-.69.28,0.89,0.89,0,0,1-.67-0.28A0.94,0.94,0,0,1,94.05,75V66.33a1,1,0,0,1,.27-0.68A0.9,0.9,0,0,1,95,65.37a0.92,0.92,0,0,1,.69.28,1,1,0,0,1,.27.68V75A0.94,0.94,0,0,1,95.68,75.67Z"/><path class="cls-3" d="M107.91,73.51A5.09,5.09,0,0,1,106,75.45a5.45,5.45,0,0,1-5.34,0,5.09,5.09,0,0,1-1.91-1.94,5.6,5.6,0,0,1-.7-2.8,5.71,5.71,0,0,1,.7-2.82,5.05,5.05,0,0,1,1.91-2,5.44,5.44,0,0,1,5.34,0,5.05,5.05,0,0,1,1.91,2,5.71,5.71,0,0,1,.7,2.82A5.6,5.6,0,0,1,107.91,73.51Zm-1.65-4.73A3.34,3.34,0,0,0,105,67.46a3.34,3.34,0,0,0-3.42,0,3.33,3.33,0,0,0-1.22,1.32,4.06,4.06,0,0,0-.45,1.93,4,4,0,0,0,.45,1.9,3.35,3.35,0,0,0,1.22,1.31,3.35,3.35,0,0,0,3.42,0,3.36,3.36,0,0,0,1.22-1.31,4,4,0,0,0,.45-1.9A4.06,4.06,0,0,0,106.26,68.78Z"/><path class="cls-3" d="M119.75,69.55V75a0.94,0.94,0,0,1-.27.68,0.92,0.92,0,0,1-.69.28,0.89,0.89,0,0,1-.67-0.28,0.94,0.94,0,0,1-.27-0.68V69.57a3,3,0,0,0-.54-1.88,2.08,2.08,0,0,0-1.76-.7,3,3,0,0,0-1.45.35,2.66,2.66,0,0,0-1,.94,2.37,2.37,0,0,0-.37,1.29V75a0.94,0.94,0,0,1-.27.68,0.92,0.92,0,0,1-.69.28,0.9,0.9,0,0,1-.68-0.27,1,1,0,0,1-.26-0.69V66.43a0.94,0.94,0,0,1,.27-0.68,0.9,0.9,0,0,1,.67-0.28,0.92,0.92,0,0,1,.69.28,0.94,0.94,0,0,1,.27.68v0.7a4.29,4.29,0,0,1,1.45-1.35,3.84,3.84,0,0,1,2-.55Q119.75,65.23,119.75,69.55Z"/><path class="cls-3" d="M131.78,65.6a1,1,0,0,1,.27.71V75a0.94,0.94,0,0,1-.27.68,0.92,0.92,0,0,1-.69.28,0.9,0.9,0,0,1-.68-0.27,1,1,0,0,1-.26-0.69V74.47a4.27,4.27,0,0,1-1.42,1.19,4,4,0,0,1-1.94.49,4.54,4.54,0,0,1-2.47-.7,4.81,4.81,0,0,1-1.74-2,6.57,6.57,0,0,1,0-5.62,4.82,4.82,0,0,1,1.73-2,4.57,4.57,0,0,1,4.39-.26,4.08,4.08,0,0,1,1.45,1.12V66.31a1,1,0,0,1,.26-0.7,0.88,0.88,0,0,1,.68-0.28A0.93,0.93,0,0,1,131.78,65.6Zm-3.1,8.31a3.24,3.24,0,0,0,1.14-1.32,4.56,4.56,0,0,0,0-3.78,3.32,3.32,0,0,0-1.14-1.33A2.93,2.93,0,0,0,127,67a3,3,0,0,0-1.67.48,3.24,3.24,0,0,0-1.14,1.32,4.62,4.62,0,0,0,0,3.8,3.24,3.24,0,0,0,1.14,1.32A3.14,3.14,0,0,0,128.68,73.91Z"/><path class="cls-3" d="M146.67,67.18a4.27,4.27,0,0,1,1.66,1.64,4.65,4.65,0,0,1,.6,2.35,4.58,4.58,0,0,1-.71,2.5,5,5,0,0,1-1.94,1.77,5.67,5.67,0,0,1-2.69.65,5.39,5.39,0,0,1-1.64-.26,4.07,4.07,0,0,1-1.38-.72,1.15,1.15,0,0,1-.32-0.42,1.25,1.25,0,0,1-.12-0.52,0.76,0.76,0,0,1,.25-0.55,0.88,0.88,0,0,1,.65-0.25,1.39,1.39,0,0,1,.7.3,3.08,3.08,0,0,0,1.84.66,3.65,3.65,0,0,0,1.75-.42,3.28,3.28,0,0,0,1.25-1.14,2.87,2.87,0,0,0,.46-1.58,2.68,2.68,0,0,0-.84-2.06,3,3,0,0,0-2.12-.78,3,3,0,0,0-1,.14,9.4,9.4,0,0,0-1,.42l-0.47.21a1.12,1.12,0,0,1-.39.09,1.05,1.05,0,0,1-.86-0.34,1.19,1.19,0,0,1-.28-0.78l0-.2,0.72-5.18a0.9,0.9,0,0,1,.33-0.54,1,1,0,0,1,.65-0.22h5.88a0.84,0.84,0,0,1,.63.26,0.89,0.89,0,0,1,.25.64,0.85,0.85,0,0,1-.88.88h-5.22L142,67.15a4.63,4.63,0,0,1,1.07-.4,5.12,5.12,0,0,1,1.25-.16A4.77,4.77,0,0,1,146.67,67.18Z"/><path class="cls-3" d="M165,66a4.79,4.79,0,0,1,1.73,1.93,6.1,6.1,0,0,1,.63,2.8,6,6,0,0,1-.63,2.79A4.86,4.86,0,0,1,165,75.43a4.42,4.42,0,0,1-2.42.7,4.21,4.21,0,0,1-1.94-.46,4.68,4.68,0,0,1-1.46-1.12V79a0.94,0.94,0,0,1-.27.68,1,1,0,0,1-1.36,0,0.93,0.93,0,0,1-.27-0.69V66.41a1,1,0,0,1,.26-0.7,0.88,0.88,0,0,1,.68-0.28,0.91,0.91,0,0,1,.69.28,1,1,0,0,1,.27.7V67a3.91,3.91,0,0,1,1.4-1.2,4,4,0,0,1,2-.5A4.54,4.54,0,0,1,165,66Zm-1,7.91a3.23,3.23,0,0,0,1.15-1.31,4.47,4.47,0,0,0,0-3.74A3.23,3.23,0,0,0,164,67.53a3,3,0,0,0-1.66-.48,3.06,3.06,0,0,0-1.68.47,3.15,3.15,0,0,0-1.15,1.31,4.53,4.53,0,0,0,0,3.76,3.15,3.15,0,0,0,1.15,1.31,3.06,3.06,0,0,0,1.68.47A3,3,0,0,0,164,73.89Z"/><path class="cls-3" d="M178.76,65.6a1,1,0,0,1,.27.71V75a0.94,0.94,0,0,1-.27.68,0.92,0.92,0,0,1-.69.28,0.9,0.9,0,0,1-.68-0.27,1,1,0,0,1-.26-0.69V74.47a4.27,4.27,0,0,1-1.42,1.19,4,4,0,0,1-1.94.49,4.54,4.54,0,0,1-2.47-.7,4.81,4.81,0,0,1-1.74-2,6.57,6.57,0,0,1,0-5.62,4.82,4.82,0,0,1,1.73-2,4.57,4.57,0,0,1,4.39-.26,4.08,4.08,0,0,1,1.45,1.12V66.31a1,1,0,0,1,.26-0.7,0.88,0.88,0,0,1,.68-0.28A0.93,0.93,0,0,1,178.76,65.6Zm-3.1,8.31a3.24,3.24,0,0,0,1.14-1.32,4.56,4.56,0,0,0,0-3.78,3.32,3.32,0,0,0-1.14-1.33A2.93,2.93,0,0,0,174,67a3,3,0,0,0-1.67.48,3.24,3.24,0,0,0-1.14,1.32,4.62,4.62,0,0,0,0,3.8,3.24,3.24,0,0,0,1.14,1.32A3.14,3.14,0,0,0,175.66,73.91Z"/><path class="cls-3" d="M183.63,75.67a0.93,0.93,0,0,1-.68.28,0.89,0.89,0,0,1-.67-0.28A0.94,0.94,0,0,1,182,75V62.11a1,1,0,0,1,1-1,0.89,0.89,0,0,1,.67.28,0.94,0.94,0,0,1,.27.68V75A0.93,0.93,0,0,1,183.63,75.67Z"/><path class="cls-3" d="M196.1,65.6a1,1,0,0,1,.27.71V75a0.94,0.94,0,0,1-.27.68,0.92,0.92,0,0,1-.69.28,0.9,0.9,0,0,1-.68-0.27,1,1,0,0,1-.26-0.69V74.47A4.27,4.27,0,0,1,193,75.66a4,4,0,0,1-1.94.49,4.54,4.54,0,0,1-2.47-.7,4.81,4.81,0,0,1-1.74-2,6.57,6.57,0,0,1,0-5.62,4.82,4.82,0,0,1,1.73-2,4.57,4.57,0,0,1,4.39-.26,4.08,4.08,0,0,1,1.45,1.12V66.31a1,1,0,0,1,.26-0.7,0.88,0.88,0,0,1,.68-0.28A0.93,0.93,0,0,1,196.1,65.6ZM193,73.91a3.24,3.24,0,0,0,1.14-1.32,4.56,4.56,0,0,0,0-3.78A3.32,3.32,0,0,0,193,67.48a2.93,2.93,0,0,0-1.67-.49,3,3,0,0,0-1.67.48,3.24,3.24,0,0,0-1.14,1.32,4.62,4.62,0,0,0,0,3.8,3.24,3.24,0,0,0,1.14,1.32A3.14,3.14,0,0,0,193,73.91Z"/><path class="cls-3" d="M206.91,65.93a4.85,4.85,0,0,1,1.73,1.94,6.09,6.09,0,0,1,.63,2.8,6.22,6.22,0,0,1-.63,2.82,4.82,4.82,0,0,1-1.73,2,4.42,4.42,0,0,1-2.42.7,4.21,4.21,0,0,1-1.94-.46,4.53,4.53,0,0,1-1.46-1.14v0.58a0.94,0.94,0,0,1-.27.68,1,1,0,0,1-1.36,0,0.93,0.93,0,0,1-.27-0.69v-13a1,1,0,0,1,.26-0.69,0.9,0.9,0,0,1,.68-0.27,0.92,0.92,0,0,1,.69.28,0.94,0.94,0,0,1,.27.68V67a4,4,0,0,1,1.4-1.24,3.93,3.93,0,0,1,2-.52A4.49,4.49,0,0,1,206.91,65.93Zm-1,8A3.28,3.28,0,0,0,207,72.56a4.3,4.3,0,0,0,.41-1.89,4.24,4.24,0,0,0-.41-1.88,3.22,3.22,0,0,0-1.15-1.32,3,3,0,0,0-1.66-.48,3,3,0,0,0-1.68.48,3.24,3.24,0,0,0-1.15,1.31,4.21,4.21,0,0,0-.41,1.89,4.27,4.27,0,0,0,.41,1.9,3.29,3.29,0,0,0,1.15,1.33,3,3,0,0,0,1.68.49A2.94,2.94,0,0,0,205.89,73.9Z"/><path class="cls-3" d="M217.59,65.5a0.8,0.8,0,0,1,.38.67,1,1,0,0,1-.25.73,0.83,0.83,0,0,1-.61.25,1.89,1.89,0,0,1-.54-0.12,2.23,2.23,0,0,0-.66-0.14,2,2,0,0,0-1.21.43,3.15,3.15,0,0,0-1,1.18,3.73,3.73,0,0,0-.37,1.67V75a0.94,0.94,0,0,1-.27.68,0.92,0.92,0,0,1-.69.28,0.9,0.9,0,0,1-.68-0.27,1,1,0,0,1-.26-0.69V66.43a1,1,0,0,1,.27-0.68,0.9,0.9,0,0,1,.67-0.28,0.92,0.92,0,0,1,.69.28,1,1,0,0,1,.27.68v1a3.78,3.78,0,0,1,1.32-1.59,3.54,3.54,0,0,1,2-.63A1.52,1.52,0,0,1,217.59,65.5Z"/><path class="cls-3" d="M228.68,65.6a1,1,0,0,1,.27.71V75a0.94,0.94,0,0,1-.27.68,0.92,0.92,0,0,1-.69.28,0.9,0.9,0,0,1-.68-0.27A1,1,0,0,1,227,75V74.47a4.27,4.27,0,0,1-1.42,1.19,4,4,0,0,1-1.94.49,4.54,4.54,0,0,1-2.47-.7,4.81,4.81,0,0,1-1.74-2,6.57,6.57,0,0,1,0-5.62,4.82,4.82,0,0,1,1.73-2,4.57,4.57,0,0,1,4.39-.26A4.08,4.08,0,0,1,227,66.79V66.31a1,1,0,0,1,.26-0.7,0.88,0.88,0,0,1,.68-0.28A0.93,0.93,0,0,1,228.68,65.6Zm-3.1,8.31a3.24,3.24,0,0,0,1.14-1.32,4.56,4.56,0,0,0,0-3.78,3.32,3.32,0,0,0-1.14-1.33,2.93,2.93,0,0,0-1.67-.49,3,3,0,0,0-1.67.48,3.24,3.24,0,0,0-1.14,1.32,4.62,4.62,0,0,0,0,3.8,3.24,3.24,0,0,0,1.14,1.32A3.14,3.14,0,0,0,225.58,73.91Z"/><path class="cls-3" d="M231,73.77a0.81,0.81,0,0,1,.42-0.68,0.78,0.78,0,0,1,.46-0.14,0.92,0.92,0,0,1,.66.3,4.2,4.2,0,0,0,1.29,1,3.68,3.68,0,0,0,1.65.34,2.82,2.82,0,0,0,1.34-.35,1.14,1.14,0,0,0,.58-1.07,1.15,1.15,0,0,0-.59-1,6.75,6.75,0,0,0-1.73-.66,12.79,12.79,0,0,1-1.86-.63,3.34,3.34,0,0,1-1.25-1,2.81,2.81,0,0,1,0-3.23,3.38,3.38,0,0,1,1.36-1.06,4.47,4.47,0,0,1,1.85-.38,5.35,5.35,0,0,1,1.91.36,3.58,3.58,0,0,1,1.55,1.1,0.88,0.88,0,0,1,.24.58,0.86,0.86,0,0,1-.32.62,0.72,0.72,0,0,1-.5.18,0.75,0.75,0,0,1-.58-0.24,2.81,2.81,0,0,0-1-.74,3.41,3.41,0,0,0-1.35-.26,2.51,2.51,0,0,0-1.29.31,1.12,1.12,0,0,0-.53,1.05,1.16,1.16,0,0,0,.61,1,7.74,7.74,0,0,0,1.81.66,11.3,11.3,0,0,1,1.76.6,3.08,3.08,0,0,1,1.18,1,2.64,2.64,0,0,1,.48,1.65,2.57,2.57,0,0,1-.54,1.63,3.49,3.49,0,0,1-1.41,1.06,4.69,4.69,0,0,1-1.85.37,6.08,6.08,0,0,1-2.33-.44,4.34,4.34,0,0,1-1.81-1.4A1,1,0,0,1,231,73.77Z"/><path class="cls-3" d="M256,65.7a1,1,0,0,1,.27.71V79a0.94,0.94,0,0,1-.27.68,0.92,0.92,0,0,1-.69.28,0.9,0.9,0,0,1-.68-0.27,1,1,0,0,1-.26-0.69V74.43A4,4,0,0,1,253,75.65a4,4,0,0,1-1.95.5,4.48,4.48,0,0,1-2.46-.7,4.9,4.9,0,0,1-1.74-2,6.07,6.07,0,0,1-.64-2.81,6.16,6.16,0,0,1,.63-2.81,4.82,4.82,0,0,1,1.73-2,4.55,4.55,0,0,1,4.38-.26,4.19,4.19,0,0,1,1.46,1.14v-0.4a1,1,0,0,1,.26-0.7,0.88,0.88,0,0,1,.68-0.28A0.93,0.93,0,0,1,256,65.7Zm-3.1,8.21a3.24,3.24,0,0,0,1.14-1.32,4.58,4.58,0,0,0,0-3.79,3.24,3.24,0,0,0-1.14-1.33,3.14,3.14,0,0,0-3.34,0,3.23,3.23,0,0,0-1.14,1.33,4.59,4.59,0,0,0,0,3.79,3.24,3.24,0,0,0,1.14,1.32A3.14,3.14,0,0,0,252.94,73.91Z"/><path class="cls-3" d="M267.62,65.75a1,1,0,0,1,.27.68v5.32a4.39,4.39,0,1,1-8.76,0V66.43a0.94,0.94,0,0,1,.27-0.68,0.89,0.89,0,0,1,.67-0.28,0.92,0.92,0,0,1,.69.28,0.94,0.94,0,0,1,.27.68v5.32q0,2.62,2.46,2.62a2.48,2.48,0,0,0,1.86-.66,2.71,2.71,0,0,0,.64-2V66.43a1,1,0,0,1,.27-0.68,0.9,0.9,0,0,1,.67-0.28A0.92,0.92,0,0,1,267.62,65.75Z"/><path class="cls-3" d="M279.63,70.92a1,1,0,0,1-.66.25h-7A3.47,3.47,0,0,0,273,73.51a3.4,3.4,0,0,0,2.37.88,3.73,3.73,0,0,0,1.56-.28,4,4,0,0,0,1.06-.72,1.13,1.13,0,0,1,.58-0.18,0.76,0.76,0,0,1,.57.24,0.78,0.78,0,0,1,.23.56,1,1,0,0,1-.4.76,4.68,4.68,0,0,1-1.54,1,5,5,0,0,1-2,.4,5.8,5.8,0,0,1-2.85-.68,4.73,4.73,0,0,1-1.9-1.9,5.63,5.63,0,0,1-.67-2.76,6.08,6.08,0,0,1,.69-2.95,5,5,0,0,1,1.82-2,4.69,4.69,0,0,1,4.83,0,5,5,0,0,1,1.8,1.82,5.2,5.2,0,0,1,.7,2.6A0.86,0.86,0,0,1,279.63,70.92Zm-6.54-3.3A3.1,3.1,0,0,0,272,69.57h5.9V69.41a2.44,2.44,0,0,0-.95-1.74A3,3,0,0,0,275,67,3.09,3.09,0,0,0,273.09,67.62Z"/><path class="cls-3" d="M296.41,69.65V75a0.94,0.94,0,0,1-.27.68,0.92,0.92,0,0,1-.69.28,0.89,0.89,0,0,1-.67-0.28,0.94,0.94,0,0,1-.27-0.68V69.65q0-2.6-2.2-2.6a2.72,2.72,0,0,0-2,.75,2.47,2.47,0,0,0-.78,1.85V75a0.94,0.94,0,0,1-.27.68,0.92,0.92,0,0,1-.69.28,0.9,0.9,0,0,1-.68-0.27,1,1,0,0,1-.26-0.69V62.11a0.94,0.94,0,0,1,.27-0.68,0.89,0.89,0,0,1,.67-0.28,0.92,0.92,0,0,1,.69.28,0.94,0.94,0,0,1,.27.68v5.06a4.26,4.26,0,0,1,1.4-1.33,3.63,3.63,0,0,1,1.92-.55Q296.41,65.29,296.41,69.65Z"/><path class="cls-3" d="M308.44,65.6a1,1,0,0,1,.27.71V75a0.94,0.94,0,0,1-.27.68,0.92,0.92,0,0,1-.69.28,0.9,0.9,0,0,1-.68-0.27,1,1,0,0,1-.26-0.69V74.47a4.28,4.28,0,0,1-1.42,1.19,4,4,0,0,1-1.94.49,4.53,4.53,0,0,1-2.47-.7,4.8,4.8,0,0,1-1.74-2,6.58,6.58,0,0,1,0-5.62,4.82,4.82,0,0,1,1.73-2,4.57,4.57,0,0,1,4.39-.26,4.09,4.09,0,0,1,1.45,1.12V66.31a1,1,0,0,1,.26-0.7,0.88,0.88,0,0,1,.68-0.28A0.94,0.94,0,0,1,308.44,65.6Zm-3.1,8.31a3.25,3.25,0,0,0,1.14-1.32,4.57,4.57,0,0,0,0-3.78,3.32,3.32,0,0,0-1.14-1.33,2.93,2.93,0,0,0-1.67-.49,3,3,0,0,0-1.67.48,3.24,3.24,0,0,0-1.14,1.32,4.61,4.61,0,0,0,0,3.8A3.24,3.24,0,0,0,302,73.91,3.14,3.14,0,0,0,305.34,73.91Z"/><path class="cls-3" d="M319.78,65.65a1,1,0,0,1,.27.68V75a4.78,4.78,0,0,1-1.38,3.74A5.24,5.24,0,0,1,315,79.95a7.6,7.6,0,0,1-1.46-.14,4.39,4.39,0,0,1-1.18-.38,1,1,0,0,1-.74-0.92,1.09,1.09,0,0,1,0-.26,1.14,1.14,0,0,1,.34-0.52,0.77,0.77,0,0,1,.5-0.18,0.74,0.74,0,0,1,.3.06q0.62,0.28,1.1.44a3.55,3.55,0,0,0,1.12.16q3.1,0,3.1-3.18v-0.4a3.63,3.63,0,0,1-1.39,1.12,4.51,4.51,0,0,1-1.95.4,3.27,3.27,0,0,1-2.59-1.06,4.07,4.07,0,0,1-.93-2.78v-6a1,1,0,0,1,.26-0.69,0.9,0.9,0,0,1,.68-0.27,0.92,0.92,0,0,1,.69.28,0.94,0.94,0,0,1,.27.68v5.48a2.8,2.8,0,0,0,.58,2,2.28,2.28,0,0,0,1.76.63,2.59,2.59,0,0,0,1.88-.72,2.48,2.48,0,0,0,.74-1.86V66.33a1,1,0,0,1,.26-0.69,0.9,0.9,0,0,1,.68-0.27A0.92,0.92,0,0,1,319.78,65.65Z"/><path class="cls-3" d="M332.86,65.6a1,1,0,0,1,.27.71V75a0.94,0.94,0,0,1-.27.68,0.92,0.92,0,0,1-.69.28,0.9,0.9,0,0,1-.68-0.27,1,1,0,0,1-.26-0.69V74.47a4.28,4.28,0,0,1-1.42,1.19,4,4,0,0,1-1.94.49,4.53,4.53,0,0,1-2.47-.7,4.8,4.8,0,0,1-1.74-2,6.58,6.58,0,0,1,0-5.62,4.82,4.82,0,0,1,1.73-2,4.57,4.57,0,0,1,4.39-.26,4.09,4.09,0,0,1,1.45,1.12V66.31a1,1,0,0,1,.26-0.7,0.88,0.88,0,0,1,.68-0.28A0.94,0.94,0,0,1,332.86,65.6Zm-3.1,8.31a3.25,3.25,0,0,0,1.14-1.32,4.57,4.57,0,0,0,0-3.78,3.32,3.32,0,0,0-1.14-1.33,2.93,2.93,0,0,0-1.67-.49,3,3,0,0,0-1.67.48,3.24,3.24,0,0,0-1.14,1.32,4.61,4.61,0,0,0,0,3.8,3.24,3.24,0,0,0,1.14,1.32A3.14,3.14,0,0,0,329.76,73.91Z"/><path class="cls-3" d="M335.17,73.77a0.81,0.81,0,0,1,.42-0.68,0.79,0.79,0,0,1,.46-0.14,0.92,0.92,0,0,1,.66.3,4.22,4.22,0,0,0,1.29,1,3.69,3.69,0,0,0,1.65.34,2.82,2.82,0,0,0,1.34-.35,1.14,1.14,0,0,0,.58-1.07,1.15,1.15,0,0,0-.59-1,6.74,6.74,0,0,0-1.73-.66,12.78,12.78,0,0,1-1.86-.63,3.34,3.34,0,0,1-1.25-1,2.81,2.81,0,0,1,0-3.23,3.39,3.39,0,0,1,1.36-1.06,4.47,4.47,0,0,1,1.85-.38,5.35,5.35,0,0,1,1.91.36,3.58,3.58,0,0,1,1.55,1.1,0.88,0.88,0,0,1,.24.58,0.86,0.86,0,0,1-.32.62,0.72,0.72,0,0,1-.5.18,0.75,0.75,0,0,1-.58-0.24,2.82,2.82,0,0,0-1-.74,3.41,3.41,0,0,0-1.35-.26,2.51,2.51,0,0,0-1.29.31,1.12,1.12,0,0,0-.53,1.05,1.16,1.16,0,0,0,.61,1,7.72,7.72,0,0,0,1.81.66,11.28,11.28,0,0,1,1.76.6,3.07,3.07,0,0,1,1.18,1,2.65,2.65,0,0,1,.48,1.65,2.56,2.56,0,0,1-.54,1.63,3.48,3.48,0,0,1-1.41,1.06,4.68,4.68,0,0,1-1.85.37,6.07,6.07,0,0,1-2.33-.44,4.34,4.34,0,0,1-1.81-1.4A1,1,0,0,1,335.17,73.77Z"/><path class="cls-3" d="M45,89.62a0.79,0.79,0,0,1,.26.59,1.37,1.37,0,0,1-.14.5l-3.8,8.64a1.06,1.06,0,0,1-.34.42,0.93,0.93,0,0,1-.48.18,0.91,0.91,0,0,1-.59-0.12,1,1,0,0,1-.41-0.48l-3.8-8.64a1.65,1.65,0,0,1-.1-0.5,0.81,0.81,0,0,1,.26-0.58,0.92,0.92,0,0,1,.68-0.26,1,1,0,0,1,.54.15,1,1,0,0,1,.38.45l3,7,3-7a0.91,0.91,0,0,1,.86-0.6A0.89,0.89,0,0,1,45,89.62Z"/><path class="cls-3" d="M47.36,87.84a0.83,0.83,0,0,1-.25-0.67V86.85a0.79,0.79,0,0,1,.27-0.68,1.39,1.39,0,0,1,.83-0.2,1.26,1.26,0,0,1,.81.21,0.83,0.83,0,0,1,.25.67v0.32a0.81,0.81,0,0,1-.26.68,1.34,1.34,0,0,1-.82.2A1.29,1.29,0,0,1,47.36,87.84Zm1.52,11.83a0.92,0.92,0,0,1-.69.28,0.89,0.89,0,0,1-.67-0.28A0.94,0.94,0,0,1,47.25,99V90.33a1,1,0,0,1,.27-0.68,0.9,0.9,0,0,1,.67-0.28,0.92,0.92,0,0,1,.69.28,1,1,0,0,1,.27.68V99A0.94,0.94,0,0,1,48.88,99.67Z"/><path class="cls-3" d="M51.11,97.77a0.81,0.81,0,0,1,.42-0.68A0.78,0.78,0,0,1,52,96.95a0.92,0.92,0,0,1,.66.3,4.2,4.2,0,0,0,1.29,1,3.68,3.68,0,0,0,1.65.34,2.82,2.82,0,0,0,1.34-.35,1.14,1.14,0,0,0,.58-1.07,1.15,1.15,0,0,0-.59-1,6.75,6.75,0,0,0-1.73-.66,12.79,12.79,0,0,1-1.86-.63,3.34,3.34,0,0,1-1.25-1,2.81,2.81,0,0,1,0-3.23,3.38,3.38,0,0,1,1.36-1.06,4.47,4.47,0,0,1,1.85-.38,5.35,5.35,0,0,1,1.91.36,3.58,3.58,0,0,1,1.55,1.1,0.88,0.88,0,0,1,.24.58,0.86,0.86,0,0,1-.32.62,0.72,0.72,0,0,1-.5.18,0.75,0.75,0,0,1-.58-0.24,2.81,2.81,0,0,0-1-.74,3.41,3.41,0,0,0-1.35-.26,2.51,2.51,0,0,0-1.29.31,1.12,1.12,0,0,0-.53,1.05,1.16,1.16,0,0,0,.61,1,7.74,7.74,0,0,0,1.81.66,11.3,11.3,0,0,1,1.76.6,3.08,3.08,0,0,1,1.18,1,2.64,2.64,0,0,1,.48,1.65,2.57,2.57,0,0,1-.54,1.63,3.49,3.49,0,0,1-1.41,1.06,4.69,4.69,0,0,1-1.85.37,6.08,6.08,0,0,1-2.33-.44,4.34,4.34,0,0,1-1.81-1.4A1,1,0,0,1,51.11,97.77Z"/><path class="cls-3" d="M64.27,91.33v6a0.84,0.84,0,0,0,.9,1,1.45,1.45,0,0,0,.38-0.07,1.45,1.45,0,0,1,.38-0.07,0.55,0.55,0,0,1,.44.22,0.84,0.84,0,0,1-.3,1.28,2,2,0,0,1-1.08.3,4.88,4.88,0,0,1-1.21-.14,1.79,1.79,0,0,1-1-.71,2.86,2.86,0,0,1-.43-1.73v-6H61.21a0.85,0.85,0,0,1-.88-0.88,0.82,0.82,0,0,1,.25-0.62,0.88,0.88,0,0,1,.63-0.24h1.16V87.91a1,1,0,0,1,.27-0.68,0.92,0.92,0,0,1,.69-0.28,0.89,0.89,0,0,1,.67.28,1,1,0,0,1,.27.68v1.68h1.66a0.85,0.85,0,0,1,.88.88,0.82,0.82,0,0,1-.25.62,0.87,0.87,0,0,1-.63.24H64.27Z"/><path class="cls-3" d="M78.15,97.51a5.09,5.09,0,0,1-1.91,1.94,5.45,5.45,0,0,1-5.34,0A5.08,5.08,0,0,1,69,97.51a5.6,5.6,0,0,1-.7-2.8,5.71,5.71,0,0,1,.7-2.82,5,5,0,0,1,1.91-2,5.44,5.44,0,0,1,5.34,0,5.05,5.05,0,0,1,1.91,2,5.72,5.72,0,0,1,.7,2.82A5.61,5.61,0,0,1,78.15,97.51ZM76.5,92.78a3.34,3.34,0,0,0-1.22-1.32,3.34,3.34,0,0,0-3.42,0,3.34,3.34,0,0,0-1.22,1.32,4.06,4.06,0,0,0-.45,1.93,4,4,0,0,0,.45,1.9,3.36,3.36,0,0,0,1.22,1.31,3.35,3.35,0,0,0,3.42,0,3.36,3.36,0,0,0,1.22-1.31,4,4,0,0,0,.45-1.9A4.06,4.06,0,0,0,76.5,92.78Z"/><path class="cls-3" d="M95.49,94.92a1,1,0,0,1-.66.25h-7a3.48,3.48,0,0,0,1.11,2.34,3.4,3.4,0,0,0,2.37.88,3.73,3.73,0,0,0,1.56-.28,4,4,0,0,0,1.06-.72,1.13,1.13,0,0,1,.58-0.18,0.76,0.76,0,0,1,.57.24,0.79,0.79,0,0,1,.23.56,1,1,0,0,1-.4.76,4.69,4.69,0,0,1-1.54,1,5,5,0,0,1-2,.4,5.8,5.8,0,0,1-2.85-.68,4.73,4.73,0,0,1-1.9-1.9A5.63,5.63,0,0,1,86,94.81a6.08,6.08,0,0,1,.69-2.95,5,5,0,0,1,1.82-2,4.69,4.69,0,0,1,4.83,0,5,5,0,0,1,1.8,1.82,5.2,5.2,0,0,1,.7,2.6A0.86,0.86,0,0,1,95.49,94.92ZM89,91.62a3.1,3.1,0,0,0-1.08,1.95h5.9V93.41a2.44,2.44,0,0,0-1-1.74A3,3,0,0,0,90.89,91,3.09,3.09,0,0,0,89,91.62Z"/><path class="cls-3" d="M106.93,93.55V99a0.94,0.94,0,0,1-.27.68,0.92,0.92,0,0,1-.69.28,0.89,0.89,0,0,1-.67-0.28A0.94,0.94,0,0,1,105,99V93.57a3,3,0,0,0-.54-1.88,2.08,2.08,0,0,0-1.76-.7,3,3,0,0,0-1.45.35,2.66,2.66,0,0,0-1,.94,2.37,2.37,0,0,0-.37,1.29V99a0.94,0.94,0,0,1-.27.68,0.92,0.92,0,0,1-.69.28,0.9,0.9,0,0,1-.68-0.27A1,1,0,0,1,98,99V90.43a0.94,0.94,0,0,1,.27-0.68,0.9,0.9,0,0,1,.67-0.28,0.92,0.92,0,0,1,.69.28,0.94,0.94,0,0,1,.27.68v0.7a4.29,4.29,0,0,1,1.45-1.35,3.84,3.84,0,0,1,2-.55Q106.93,89.23,106.93,93.55Z"/><path class="cls-3" d="M117.09,99.67a0.93,0.93,0,0,1-.68.28,0.89,0.89,0,0,1-.67-0.28,0.94,0.94,0,0,1-.27-0.68V86.11a1,1,0,0,1,1-1,0.89,0.89,0,0,1,.67.28,0.94,0.94,0,0,1,.27.68V99A0.93,0.93,0,0,1,117.09,99.67Z"/><path class="cls-3" d="M129.56,89.6a1,1,0,0,1,.27.71V99a0.94,0.94,0,0,1-.27.68,0.92,0.92,0,0,1-.69.28,0.9,0.9,0,0,1-.68-0.27,1,1,0,0,1-.26-0.69V98.47a4.28,4.28,0,0,1-1.42,1.19,4,4,0,0,1-1.94.49,4.53,4.53,0,0,1-2.47-.7,4.8,4.8,0,0,1-1.74-2,6.58,6.58,0,0,1,0-5.62,4.83,4.83,0,0,1,1.73-2,4.57,4.57,0,0,1,4.39-.26,4.09,4.09,0,0,1,1.45,1.12V90.31a1,1,0,0,1,.26-0.7,0.88,0.88,0,0,1,.68-0.28A0.94,0.94,0,0,1,129.56,89.6Zm-3.1,8.31a3.24,3.24,0,0,0,1.14-1.32,4.56,4.56,0,0,0,0-3.78,3.31,3.31,0,0,0-1.14-1.33,2.93,2.93,0,0,0-1.67-.49,3,3,0,0,0-1.67.48A3.25,3.25,0,0,0,122,92.79a4.61,4.61,0,0,0,0,3.8,3.24,3.24,0,0,0,1.14,1.32A3.14,3.14,0,0,0,126.46,97.91Z"/><path class="cls-3" d="M131.87,97.77a0.81,0.81,0,0,1,.42-0.68,0.79,0.79,0,0,1,.46-0.14,0.92,0.92,0,0,1,.66.3,4.22,4.22,0,0,0,1.29,1,3.69,3.69,0,0,0,1.65.34,2.83,2.83,0,0,0,1.34-.35,1.14,1.14,0,0,0,.58-1.07,1.15,1.15,0,0,0-.59-1,6.76,6.76,0,0,0-1.73-.66,12.79,12.79,0,0,1-1.86-.63,3.35,3.35,0,0,1-1.25-1,2.81,2.81,0,0,1,0-3.23,3.4,3.4,0,0,1,1.36-1.06,4.47,4.47,0,0,1,1.85-.38,5.35,5.35,0,0,1,1.91.36,3.57,3.57,0,0,1,1.55,1.1,0.88,0.88,0,0,1,.24.58,0.86,0.86,0,0,1-.32.62,0.72,0.72,0,0,1-.5.18,0.75,0.75,0,0,1-.58-0.24,2.82,2.82,0,0,0-1-.74,3.42,3.42,0,0,0-1.35-.26,2.51,2.51,0,0,0-1.29.31,1.12,1.12,0,0,0-.53,1.05,1.16,1.16,0,0,0,.61,1,7.75,7.75,0,0,0,1.81.66,11.32,11.32,0,0,1,1.76.6,3.06,3.06,0,0,1,1.18,1,2.65,2.65,0,0,1,.48,1.65,2.56,2.56,0,0,1-.54,1.63A3.49,3.49,0,0,1,138,99.78a4.69,4.69,0,0,1-1.85.37,6.07,6.07,0,0,1-2.33-.44,4.34,4.34,0,0,1-1.81-1.4A1,1,0,0,1,131.87,97.77Z"/><path class="cls-3" d="M156.67,93.55V99a0.94,0.94,0,0,1-.27.68,0.92,0.92,0,0,1-.69.28,0.89,0.89,0,0,1-.67-0.28,0.94,0.94,0,0,1-.27-0.68V93.57a3,3,0,0,0-.54-1.88,2.08,2.08,0,0,0-1.76-.7,3,3,0,0,0-1.45.35,2.66,2.66,0,0,0-1,.94,2.37,2.37,0,0,0-.37,1.29V99a0.94,0.94,0,0,1-.27.68,0.92,0.92,0,0,1-.69.28,0.9,0.9,0,0,1-.68-0.27,1,1,0,0,1-.26-0.69V90.43a0.94,0.94,0,0,1,.27-0.68,0.9,0.9,0,0,1,.67-0.28,0.92,0.92,0,0,1,.69.28,0.94,0.94,0,0,1,.27.68v0.7a4.29,4.29,0,0,1,1.45-1.35,3.84,3.84,0,0,1,2-.55Q156.67,89.23,156.67,93.55Z"/><path class="cls-3" d="M168.7,89.6a1,1,0,0,1,.27.71V99a0.94,0.94,0,0,1-.27.68,0.92,0.92,0,0,1-.69.28,0.9,0.9,0,0,1-.68-0.27,1,1,0,0,1-.26-0.69V98.47a4.27,4.27,0,0,1-1.42,1.19,4,4,0,0,1-1.94.49,4.54,4.54,0,0,1-2.47-.7,4.81,4.81,0,0,1-1.74-2,6.57,6.57,0,0,1,0-5.62,4.82,4.82,0,0,1,1.73-2,4.57,4.57,0,0,1,4.39-.26,4.08,4.08,0,0,1,1.45,1.12V90.31a1,1,0,0,1,.26-0.7,0.88,0.88,0,0,1,.68-0.28A0.93,0.93,0,0,1,168.7,89.6Zm-3.1,8.31a3.24,3.24,0,0,0,1.14-1.32,4.56,4.56,0,0,0,0-3.78,3.32,3.32,0,0,0-1.14-1.33,2.93,2.93,0,0,0-1.67-.49,3,3,0,0,0-1.67.48,3.24,3.24,0,0,0-1.14,1.32,4.62,4.62,0,0,0,0,3.8,3.24,3.24,0,0,0,1.14,1.32A3.14,3.14,0,0,0,165.6,97.91Z"/><path class="cls-3" d="M177.91,89.5a0.8,0.8,0,0,1,.38.67,1,1,0,0,1-.25.73,0.83,0.83,0,0,1-.61.25,1.89,1.89,0,0,1-.54-0.12,2.24,2.24,0,0,0-.66-0.14,2,2,0,0,0-1.21.43,3.14,3.14,0,0,0-1,1.18,3.72,3.72,0,0,0-.37,1.67V99a0.94,0.94,0,0,1-.27.68,0.92,0.92,0,0,1-.69.28,0.9,0.9,0,0,1-.68-0.27,1,1,0,0,1-.26-0.69V90.43a0.94,0.94,0,0,1,.27-0.68,0.9,0.9,0,0,1,.67-0.28,0.92,0.92,0,0,1,.69.28,0.94,0.94,0,0,1,.27.68v1A3.77,3.77,0,0,1,175,89.86a3.54,3.54,0,0,1,2-.63A1.51,1.51,0,0,1,177.91,89.5Z"/><path class="cls-3" d="M186.17,89.5a0.8,0.8,0,0,1,.38.67,1,1,0,0,1-.25.73,0.83,0.83,0,0,1-.61.25,1.89,1.89,0,0,1-.54-0.12,2.24,2.24,0,0,0-.66-0.14,2,2,0,0,0-1.21.43,3.14,3.14,0,0,0-1,1.18,3.72,3.72,0,0,0-.37,1.67V99a0.94,0.94,0,0,1-.27.68,0.92,0.92,0,0,1-.69.28,0.9,0.9,0,0,1-.68-0.27A1,1,0,0,1,180,99V90.43a0.94,0.94,0,0,1,.27-0.68,0.9,0.9,0,0,1,.67-0.28,0.92,0.92,0,0,1,.69.28,0.94,0.94,0,0,1,.27.68v1a3.77,3.77,0,0,1,1.32-1.59,3.54,3.54,0,0,1,2-.63A1.51,1.51,0,0,1,186.17,89.5Z"/><path class="cls-3" d="M197.26,89.6a1,1,0,0,1,.27.71V99a0.94,0.94,0,0,1-.27.68,0.92,0.92,0,0,1-.69.28,0.9,0.9,0,0,1-.68-0.27,1,1,0,0,1-.26-0.69V98.47a4.28,4.28,0,0,1-1.42,1.19,4,4,0,0,1-1.94.49,4.53,4.53,0,0,1-2.47-.7,4.8,4.8,0,0,1-1.74-2,6.58,6.58,0,0,1,0-5.62,4.83,4.83,0,0,1,1.73-2,4.57,4.57,0,0,1,4.39-.26,4.09,4.09,0,0,1,1.45,1.12V90.31a1,1,0,0,1,.26-0.7,0.88,0.88,0,0,1,.68-0.28A0.94,0.94,0,0,1,197.26,89.6Zm-3.1,8.31a3.24,3.24,0,0,0,1.14-1.32,4.56,4.56,0,0,0,0-3.78,3.31,3.31,0,0,0-1.14-1.33,2.93,2.93,0,0,0-1.67-.49,3,3,0,0,0-1.67.48,3.25,3.25,0,0,0-1.14,1.32,4.61,4.61,0,0,0,0,3.8,3.24,3.24,0,0,0,1.14,1.32A3.14,3.14,0,0,0,194.16,97.91Z"/><path class="cls-3" d="M203.19,91.33v6a0.84,0.84,0,0,0,.9,1,1.45,1.45,0,0,0,.38-0.07,1.44,1.44,0,0,1,.38-0.07,0.55,0.55,0,0,1,.44.22,0.84,0.84,0,0,1-.3,1.28,2,2,0,0,1-1.08.3,4.89,4.89,0,0,1-1.21-.14,1.79,1.79,0,0,1-1-.71,2.86,2.86,0,0,1-.43-1.73v-6h-1.16a0.85,0.85,0,0,1-.88-0.88,0.83,0.83,0,0,1,.25-0.62,0.88,0.88,0,0,1,.63-0.24h1.16V87.91a1,1,0,0,1,.27-0.68,0.92,0.92,0,0,1,.69-0.28,0.9,0.9,0,0,1,.67.28,1,1,0,0,1,.27.68v1.68h1.66a0.85,0.85,0,0,1,.88.88,0.82,0.82,0,0,1-.25.62,0.88,0.88,0,0,1-.63.24h-1.66Z"/><path class="cls-3" d="M208,87.84a0.83,0.83,0,0,1-.25-0.67V86.85a0.79,0.79,0,0,1,.27-0.68,1.39,1.39,0,0,1,.83-0.2,1.26,1.26,0,0,1,.81.21,0.83,0.83,0,0,1,.25.67v0.32a0.81,0.81,0,0,1-.26.68,1.35,1.35,0,0,1-.82.2A1.3,1.3,0,0,1,208,87.84Zm1.52,11.83a0.92,0.92,0,0,1-.69.28,0.89,0.89,0,0,1-.67-0.28,0.94,0.94,0,0,1-.27-0.68V90.33a1,1,0,0,1,.27-0.68,0.9,0.9,0,0,1,.67-0.28,0.92,0.92,0,0,1,.69.28,1,1,0,0,1,.27.68V99A0.94,0.94,0,0,1,209.48,99.67Z"/><path class="cls-3" d="M221.13,89.62a0.79,0.79,0,0,1,.26.59,1.37,1.37,0,0,1-.14.5l-3.8,8.64a1.06,1.06,0,0,1-.34.42,0.93,0.93,0,0,1-.48.18,0.91,0.91,0,0,1-.59-0.12,1,1,0,0,1-.41-0.48l-3.8-8.64a1.65,1.65,0,0,1-.1-0.5,0.81,0.81,0,0,1,.26-0.58,0.92,0.92,0,0,1,.68-0.26,1,1,0,0,1,.54.15,1,1,0,0,1,.38.45l3,7,3-7a0.91,0.91,0,0,1,.86-0.6A0.89,0.89,0,0,1,221.13,89.62Z"/><path class="cls-3" d="M232.6,89.6a1,1,0,0,1,.27.71V99a0.94,0.94,0,0,1-.27.68,0.92,0.92,0,0,1-.69.28,0.9,0.9,0,0,1-.68-0.27A1,1,0,0,1,231,99V98.47a4.28,4.28,0,0,1-1.42,1.19,4,4,0,0,1-1.94.49,4.53,4.53,0,0,1-2.47-.7,4.8,4.8,0,0,1-1.74-2,6.58,6.58,0,0,1,0-5.62,4.83,4.83,0,0,1,1.73-2,4.57,4.57,0,0,1,4.39-.26A4.09,4.09,0,0,1,231,90.79V90.31a1,1,0,0,1,.26-0.7,0.88,0.88,0,0,1,.68-0.28A0.94,0.94,0,0,1,232.6,89.6Zm-3.1,8.31a3.24,3.24,0,0,0,1.14-1.32,4.56,4.56,0,0,0,0-3.78,3.31,3.31,0,0,0-1.14-1.33,2.93,2.93,0,0,0-1.67-.49,3,3,0,0,0-1.67.48A3.25,3.25,0,0,0,225,92.79a4.61,4.61,0,0,0,0,3.8,3.24,3.24,0,0,0,1.14,1.32A3.14,3.14,0,0,0,229.5,97.91Z"/><path class="cls-3" d="M234.91,97.77a0.81,0.81,0,0,1,.42-0.68,0.78,0.78,0,0,1,.46-0.14,0.92,0.92,0,0,1,.66.3,4.2,4.2,0,0,0,1.29,1,3.68,3.68,0,0,0,1.65.34,2.82,2.82,0,0,0,1.34-.35,1.14,1.14,0,0,0,.58-1.07,1.15,1.15,0,0,0-.59-1,6.75,6.75,0,0,0-1.73-.66,12.79,12.79,0,0,1-1.86-.63,3.34,3.34,0,0,1-1.25-1,2.81,2.81,0,0,1,0-3.23,3.38,3.38,0,0,1,1.36-1.06,4.47,4.47,0,0,1,1.85-.38,5.35,5.35,0,0,1,1.91.36,3.58,3.58,0,0,1,1.55,1.1,0.88,0.88,0,0,1,.24.58,0.86,0.86,0,0,1-.32.62,0.72,0.72,0,0,1-.5.18,0.75,0.75,0,0,1-.58-0.24,2.81,2.81,0,0,0-1-.74,3.41,3.41,0,0,0-1.35-.26,2.51,2.51,0,0,0-1.29.31,1.12,1.12,0,0,0-.53,1.05,1.16,1.16,0,0,0,.61,1,7.74,7.74,0,0,0,1.81.66,11.3,11.3,0,0,1,1.76.6,3.08,3.08,0,0,1,1.18,1,2.64,2.64,0,0,1,.48,1.65,2.57,2.57,0,0,1-.54,1.63,3.49,3.49,0,0,1-1.41,1.06,4.69,4.69,0,0,1-1.85.37,6.08,6.08,0,0,1-2.33-.44,4.34,4.34,0,0,1-1.81-1.4A1,1,0,0,1,234.91,97.77Z"/><path class="cls-3" d="M260,85.42a0.93,0.93,0,0,1,.27.69V99a0.94,0.94,0,0,1-.27.68,0.92,0.92,0,0,1-.69.28,0.9,0.9,0,0,1-.68-0.27,1,1,0,0,1-.26-0.69V98.43a4.06,4.06,0,0,1-1.41,1.22,4,4,0,0,1-2,.5,4.48,4.48,0,0,1-2.46-.7,4.9,4.9,0,0,1-1.74-2,6.07,6.07,0,0,1-.64-2.81,6.16,6.16,0,0,1,.63-2.81,4.83,4.83,0,0,1,1.73-2,4.55,4.55,0,0,1,4.38-.26,4.21,4.21,0,0,1,1.46,1.14v-4.7a1,1,0,0,1,.26-0.69,0.9,0.9,0,0,1,.68-0.27A0.93,0.93,0,0,1,260,85.42Zm-3.1,12.49A3.24,3.24,0,0,0,258,96.59a4.59,4.59,0,0,0,0-3.79,3.23,3.23,0,0,0-1.14-1.33,3.14,3.14,0,0,0-3.34,0,3.24,3.24,0,0,0-1.14,1.33,4.58,4.58,0,0,0,0,3.79,3.24,3.24,0,0,0,1.14,1.32A3.14,3.14,0,0,0,256.86,97.91Z"/><path class="cls-3" d="M271.95,94.92a1,1,0,0,1-.66.25h-7a3.47,3.47,0,0,0,1.11,2.34,3.4,3.4,0,0,0,2.37.88,3.73,3.73,0,0,0,1.56-.28,4,4,0,0,0,1.06-.72,1.13,1.13,0,0,1,.58-0.18,0.76,0.76,0,0,1,.57.24,0.78,0.78,0,0,1,.23.56,1,1,0,0,1-.4.76,4.68,4.68,0,0,1-1.54,1,5,5,0,0,1-2,.4,5.8,5.8,0,0,1-2.85-.68,4.73,4.73,0,0,1-1.9-1.9,5.63,5.63,0,0,1-.67-2.76,6.08,6.08,0,0,1,.69-2.95,5,5,0,0,1,1.82-2,4.69,4.69,0,0,1,4.83,0,5,5,0,0,1,1.8,1.82,5.2,5.2,0,0,1,.7,2.6A0.86,0.86,0,0,1,271.95,94.92Zm-6.54-3.3a3.1,3.1,0,0,0-1.08,1.95h5.9V93.41a2.44,2.44,0,0,0-.95-1.74,3,3,0,0,0-1.93-.68A3.09,3.09,0,0,0,265.41,91.62Z"/><path class="cls-3" d="M282.83,91.33v6a0.84,0.84,0,0,0,.9,1,1.45,1.45,0,0,0,.38-0.07,1.44,1.44,0,0,1,.38-0.07,0.55,0.55,0,0,1,.44.22,0.84,0.84,0,0,1-.3,1.28,2,2,0,0,1-1.08.3,4.89,4.89,0,0,1-1.21-.14,1.79,1.79,0,0,1-1-.71,2.86,2.86,0,0,1-.43-1.73v-6h-1.16a0.85,0.85,0,0,1-.88-0.88,0.82,0.82,0,0,1,.25-0.62,0.87,0.87,0,0,1,.63-0.24h1.16V87.91a1,1,0,0,1,.27-0.68,0.92,0.92,0,0,1,.69-0.28,0.89,0.89,0,0,1,.67.28,1,1,0,0,1,.27.68v1.68h1.66a0.85,0.85,0,0,1,.88.88,0.82,0.82,0,0,1-.25.62,0.88,0.88,0,0,1-.63.24h-1.66Z"/><path class="cls-3" d="M296.08,89.75a1,1,0,0,1,.27.68v5.32a4.39,4.39,0,1,1-8.76,0V90.43a0.94,0.94,0,0,1,.27-0.68,0.89,0.89,0,0,1,.67-0.28,0.92,0.92,0,0,1,.69.28,0.94,0.94,0,0,1,.27.68v5.32q0,2.62,2.46,2.62a2.48,2.48,0,0,0,1.86-.66,2.71,2.71,0,0,0,.64-2V90.43a1,1,0,0,1,.27-0.68,0.9,0.9,0,0,1,.67-0.28A0.92,0.92,0,0,1,296.08,89.75Z"/><path class="cls-3" d="M314.18,89.6a1,1,0,0,1,.27.71v8.8a5,5,0,0,1-.69,2.71,4.15,4.15,0,0,1-1.87,1.61,6.53,6.53,0,0,1-2.66.52,7.53,7.53,0,0,1-1.87-.28,3.33,3.33,0,0,1-1.37-.58,0.79,0.79,0,0,1-.54-1.12,0.76,0.76,0,0,1,.74-0.5,1.52,1.52,0,0,1,.56.12,7.52,7.52,0,0,0,2.5.62,3.53,3.53,0,0,0,2.45-.77,2.7,2.7,0,0,0,.85-2.11V98.25a3.48,3.48,0,0,1-1.41,1.34,4.19,4.19,0,0,1-2.09.56,4.72,4.72,0,0,1-2.52-.7,4.87,4.87,0,0,1-1.79-2,6.4,6.4,0,0,1,0-5.62,4.9,4.9,0,0,1,1.78-2,4.64,4.64,0,0,1,2.49-.7,4.55,4.55,0,0,1,3.54,1.72V90.31a1,1,0,0,1,.26-0.7,0.88,0.88,0,0,1,.68-0.28A0.94,0.94,0,0,1,314.18,89.6ZM311,97.92a3.21,3.21,0,0,0,1.19-1.32,4.16,4.16,0,0,0,.43-1.91,4.1,4.1,0,0,0-.43-1.9A3.3,3.3,0,0,0,311,91.47a3.19,3.19,0,0,0-1.74-.48,3.15,3.15,0,0,0-1.72.48,3.3,3.3,0,0,0-1.19,1.33,4.37,4.37,0,0,0,0,3.78,3.29,3.29,0,0,0,1.19,1.33,3.15,3.15,0,0,0,1.72.48A3.24,3.24,0,0,0,311,97.92Z"/><path class="cls-3" d="M323.39,89.5a0.8,0.8,0,0,1,.38.67,1,1,0,0,1-.25.73,0.83,0.83,0,0,1-.61.25,1.9,1.9,0,0,1-.54-0.12,2.23,2.23,0,0,0-.66-0.14,2,2,0,0,0-1.21.43,3.14,3.14,0,0,0-1,1.18,3.72,3.72,0,0,0-.37,1.67V99a0.94,0.94,0,0,1-.27.68,0.92,0.92,0,0,1-.69.28,0.9,0.9,0,0,1-.68-0.27,1,1,0,0,1-.26-0.69V90.43a0.94,0.94,0,0,1,.27-0.68,0.89,0.89,0,0,1,.67-0.28,0.92,0.92,0,0,1,.69.28,0.94,0.94,0,0,1,.27.68v1a3.77,3.77,0,0,1,1.32-1.59,3.54,3.54,0,0,1,2-.63A1.52,1.52,0,0,1,323.39,89.5Z"/><path class="cls-3" d="M334,89.75a1,1,0,0,1,.27.68v5.32a4.39,4.39,0,1,1-8.76,0V90.43a0.94,0.94,0,0,1,.27-0.68,0.89,0.89,0,0,1,.67-0.28,0.92,0.92,0,0,1,.69.28,0.94,0.94,0,0,1,.27.68v5.32q0,2.62,2.46,2.62a2.48,2.48,0,0,0,1.86-.66,2.71,2.71,0,0,0,.64-2V90.43a1,1,0,0,1,.27-0.68,0.9,0.9,0,0,1,.67-0.28A0.92,0.92,0,0,1,334,89.75Z"/><path class="cls-3" d="M344.84,90a4.78,4.78,0,0,1,1.73,1.93,6.1,6.1,0,0,1,.63,2.8,6,6,0,0,1-.63,2.79,4.85,4.85,0,0,1-1.73,1.93,4.42,4.42,0,0,1-2.42.7,4.21,4.21,0,0,1-1.94-.46A4.67,4.67,0,0,1,339,98.55V103a0.94,0.94,0,0,1-.27.68,0.92,0.92,0,0,1-.69.28,0.91,0.91,0,0,1-.67-0.27,0.93,0.93,0,0,1-.27-0.69V90.41a1,1,0,0,1,.26-0.7,0.88,0.88,0,0,1,.68-0.28,0.91,0.91,0,0,1,.69.28,1,1,0,0,1,.27.7V91a3.91,3.91,0,0,1,1.4-1.2,4,4,0,0,1,2-.5A4.53,4.53,0,0,1,344.84,90Zm-1,7.91A3.23,3.23,0,0,0,345,96.58a4.47,4.47,0,0,0,0-3.74,3.22,3.22,0,0,0-1.15-1.31,3,3,0,0,0-1.66-.48,3.06,3.06,0,0,0-1.68.47,3.15,3.15,0,0,0-1.15,1.31,4.52,4.52,0,0,0,0,3.76,3.14,3.14,0,0,0,1.15,1.31,3.06,3.06,0,0,0,1.68.47A3,3,0,0,0,343.83,97.89Z"/><path class="cls-3" d="M358.63,97.51a5.09,5.09,0,0,1-1.91,1.94,5.45,5.45,0,0,1-5.34,0,5.08,5.08,0,0,1-1.91-1.94,5.59,5.59,0,0,1-.7-2.8,5.7,5.7,0,0,1,.7-2.82,5,5,0,0,1,1.91-2,5.44,5.44,0,0,1,5.34,0,5.05,5.05,0,0,1,1.91,2,5.71,5.71,0,0,1,.7,2.82A5.6,5.6,0,0,1,358.63,97.51ZM357,92.78a3.33,3.33,0,0,0-1.22-1.32,3.34,3.34,0,0,0-3.42,0,3.34,3.34,0,0,0-1.22,1.32,4.06,4.06,0,0,0-.45,1.93,4,4,0,0,0,.45,1.9,3.36,3.36,0,0,0,1.22,1.31,3.35,3.35,0,0,0,3.42,0A3.36,3.36,0,0,0,357,96.61a4,4,0,0,0,.45-1.9A4.06,4.06,0,0,0,357,92.78Z"/><path class="cls-3" d="M361.48,99.67a1.05,1.05,0,0,1-.25-0.76V98.53a1,1,0,0,1,.25-0.74,1,1,0,0,1,.73-0.26h0.2a1,1,0,0,1,.75.26,1,1,0,0,1,.25.74v0.38a0.89,0.89,0,0,1-1,1h-0.2A1,1,0,0,1,361.48,99.67Z"/><g class="cls-4"><path class="cls-5" d="M517.63,151.25c15.85-7.65,15.56-41.28-.65-74.87s-42.36-54.74-58.21-47.09-15.56,41.28.65,74.87S501.78,158.9,517.63,151.25Z"/><path class="cls-6" d="M461.87,97.53c-2.36,1.81-3.52,5-4.23,8.13a59.76,59.76,0,0,0-1.22,15c0.15,4.91.72,9.85,1.3,14.78q1.15,9.74,2.36,19.49A116.81,116.81,0,0,0,462,167.13c1,4.36,1.81,10.46,5,13.57s9.07,2.64,11.8-.15c2.38-2.43,2.27-6.71,2-10.54l-2.95-44.52c-0.21-3.16-1-15.88-1.73-19C474.56,99.58,469.06,92,461.87,97.53Z"/><path class="cls-7" d="M465,148.82s1,13.68,7.53,19.63l-10.46-.64-2.65-17.74Z"/><path class="cls-6" d="M540.09,199.42c4.76-3.19,10.64-5.07,12.31-6.75,0.11-.11,5.1-3.52,5.79-4.1,0.25-.19,5.21-3,5.19-3.09l4.29-3c1.26-1.38,3,.05,2.92-1.11s-8.63-16.11-9.18-17.17c-4.11-7.86-13.17-14.28-19.9-28.15-5.67-11.69-9.79-38.42-13.49-45.1-3.45-6.23-6.14-13-7.5-14.44-0.65-.68-5.58-4.1-8.63-4.15a28.17,28.17,0,0,0-6.93.46c-2.44.67-8.23,0.33-13,2.73-3.59,1.67-4.66,1.72-7.7,3.36-3.11,1.32-3.81,2.52-7.27,4.25-4.73,2.18-7.65,6.33-9.64,7.81a30.86,30.86,0,0,0-4.8,5.21c-1.81,2.39-2.14,8.35-2,9.28,0.28,1.93,3.91,8.28,6.65,14.85,2.94,7.05,22.34,26.41,28,38.12,6.67,13.9,6.31,23.79,9.91,31.89,0.49,1.09,6.63,16.93,7.41,17.67a6.87,6.87,0,0,0,4.63,1.19l1.93-2.28s5.23-2,5.53-2.09c0.87-.17,6.53-1.9,6.68-1.92,2.31-.24,3.48-1.76,8.83-3.45"/><path class="cls-8" d="M491.28,68.85a21.84,21.84,0,0,0,3.48,6.86,6.21,6.21,0,0,1-.6,1c-3,4.41-11.35,7-16,7.85-1.93.35-3.22,0.39-3.23,0.13-0.06-2.24-1.44-4.68-2.54-6.28l0-.05h0a20.83,20.83,0,0,0-1.32-1.73l19.85-9.58c0,0.25.08,0.49,0.12,0.74S491.19,68.51,491.28,68.85Z"/><path class="cls-6" d="M443.69,48.7c-5.17-10.72,0-23.92,11.51-29.48s25.06-1.38,30.24,9.34a20.11,20.11,0,0,1,1.72,5.53c0.18,0.43.38,0.87,0.61,1.31a61.07,61.07,0,0,1,4.71,12c2.11,8.13,1.6,16.89-3.63,24.62a17.94,17.94,0,0,1-6.91,6.36c-3.91,1.85-8.44,1.57-12.34.39C456.71,74.87,450,62.92,445,51A20.12,20.12,0,0,1,443.69,48.7Z"/><path class="cls-9" d="M530.24,78.41c-15.46-12.08-36.62-4.07-36.62-4.07l11,5,5.72,5.88,25.53,26.26,18.59-11.18A311.15,311.15,0,0,0,530.24,78.41Z"/><path class="cls-10" d="M529.86,77.95c-15.18-11.73-36.24-3.6-36.24-3.6s23.37-3.87,33.59,4.42c2.46,2,13,11.89,23.5,22.27l2.87-1.74A297.55,297.55,0,0,0,529.86,77.95Z"/><path class="cls-9" d="M455.14,115.51c0.16-19.61,19.6-31.2,19.6-31.2L471.84,96l1,8.14,4.67,36.32-20.32,7.6A311.15,311.15,0,0,1,455.14,115.51Z"/><polygon class="cls-11" points="472.01 103.57 480.91 144.04 476.12 145.95 472.01 103.57"/><path class="cls-10" d="M455,114.92c0.26-19.19,19.73-30.61,19.73-30.61s-17.57,15.88-17.44,29c0,3.17,1.22,17.58,2.81,32.26L457,146.78A297.55,297.55,0,0,1,455,114.92Z"/><path class="cls-12" d="M455.17,144.56l25.33-4.86,0.76,4.82-25,6.36a1.93,1.93,0,0,1-2.37-1.52L453.48,147A2.13,2.13,0,0,1,455.17,144.56Z"/><path class="cls-9" d="M479.72,138.61s18,21.92,25.28,55.29c0,0,41-12.38,59.31-27.8,0,0-22.91-26-30.53-55.47L505.37,76.76l-11.74-2.42s8.78,10.41-5.2,15.81-13.69-5.85-13.69-5.85l-4.87,14.8Z"/><path class="cls-12" d="M521.82,126.58l-1,.4-2.6,1.06a28.08,28.08,0,0,0-7.68,4.35c-0.65.56-1.29,1.15-1.94,1.72a20.35,20.35,0,0,1-2,1.55,19.24,19.24,0,0,1-3.8,2,7.32,7.32,0,0,1-1.63.44,3.75,3.75,0,0,1-1.29,0,2.53,2.53,0,0,1-.74-0.29l-0.22-.15,0.26,0.07a2.6,2.6,0,0,0,.73,0,5.32,5.32,0,0,0,2.42-1,31.2,31.2,0,0,0,3.21-2.45c0.57-.5,1.14-1,1.73-1.62s1.22-1.22,1.94-1.83a15.19,15.19,0,0,1,4.62-2.68A23.55,23.55,0,0,1,518,127c1.18-.21,2.14-0.31,2.81-0.38Z"/><path class="cls-6" d="M573.56,132.5c-1,2.21-3.71,3.71-6.5,4.85-4.25,1.75-9.07,2.43-14,3.24-4.71.78-9.57,1.26-14.43,1.7-6.39.58-15,.91-17,1.05-4,.29-11.35.66-15.45,0.65-4.43,0-11.3.12-15.32-1.58a4.13,4.13,0,0,1-2-5.55c1.53-2.38,10.34-4.82,14-5.39,11-1.69,22.79-4.34,39.39-6.57,3.06-.41,15.38-2.1,18.58-2.11C568,122.79,576.72,125.77,573.56,132.5Z"/><path class="cls-6" d="M500,143.67c0,0.3-.29.63-1.61,0.73s-1.52-.69-1.79-0.64c-7.08,1.24-12,.94-19.17-0.14-1.62-.25-3.4-0.64-4.39-1.93-0.51-.66-2.25-1.79-2.45-2.58-0.5-1.93.69-3.86,2-5.33a5.58,5.58,0,0,1,4-1.45c1.46-.06,3.88.59,5.32,0.44,1.24-.13,2.9-0.17,3.11-0.49s-2.86-.58-2.76-1.63,1.71-1,2.75-.9c3.28,0.21,7.28,2.64,10.56,2.84,3,0.19,2-.54,2.62,1.66A54.11,54.11,0,0,1,500,143.67Z"/><path class="cls-10" d="M472.93,67.76c1.06-.08,2.92-2.63,4.16-3.12s0.94-.72,1.74-1.29,3-1.36,4-2.78a9.83,9.83,0,0,1-.7,5.12,5.65,5.65,0,0,1-4.22,3A8.8,8.8,0,0,1,472.93,67.76Z"/><path class="cls-10" d="M471.7,67.82l0.17,0,0.48-.05c0.41,0,1-.08,1.69-0.19a10,10,0,0,0,1.1-.25,10.27,10.27,0,0,0,1.18-.42,8.85,8.85,0,0,0,1.18-.61,11.27,11.27,0,0,0,1.13-.79,14.53,14.53,0,0,0,3.53-3.67c0.18-.3.34-0.58,0.46-0.84a6.28,6.28,0,0,0,.29-0.68c0.07-.19.13-0.35,0.16-0.45l0.05-.16,0,0.17a4.45,4.45,0,0,1-.09.47,6.48,6.48,0,0,1-.22.72,6.22,6.22,0,0,1-.39.9,10,10,0,0,1-1.4,2,14.88,14.88,0,0,1-2.07,1.91,12,12,0,0,1-1.19.81,8.13,8.13,0,0,1-1.26.6,7.69,7.69,0,0,1-1.25.37,10.7,10.7,0,0,1-1.15.18,12.39,12.39,0,0,1-1.73,0l-0.48,0H471.7Z"/><path class="cls-13" d="M473.57,67.71a14.65,14.65,0,0,0,8.91-6.46A7.48,7.48,0,0,1,479,66.73,7.22,7.22,0,0,1,473.57,67.71Z"/><path class="cls-14" d="M471.6,59.81c3.85-1,4.25-3.79,3.41-5.59C477.49,57.09,476,60,471.6,59.81Z"/><path class="cls-15" d="M476.51,43.16a1.64,1.64,0,0,0,0,.94c0.34,1.07,1,3,2.41,3,1.66,0,1.43-2.06,1-3.1a3.19,3.19,0,0,0-1.42-1.66A1.35,1.35,0,0,0,476.51,43.16Z"/><path class="cls-15" d="M475.54,44.27s0.66-2.82,5.46-2.63C481,41.64,476,40.41,475.54,44.27Z"/><path class="cls-15" d="M460.49,50.89a1.64,1.64,0,0,1,.72.61c0.63,0.94,1.69,2.65.84,3.75-1,1.31-2.5-.16-3-1.16a3.19,3.19,0,0,1-.41-2.15A1.35,1.35,0,0,1,460.49,50.89Z"/><path class="cls-15" d="M462,50.83s-2.62-1.24-5.46,2.63C456.5,53.46,458.66,48.77,462,50.83Z"/><path class="cls-7" d="M439.53,68.5a5.38,5.38,0,0,1-1-.84,15.89,15.89,0,0,0,1.19,4.1c0.18-.41.37-0.82,0.59-1.23a3.63,3.63,0,0,1,.69-0.9A10.69,10.69,0,0,0,439.53,68.5Z"/><path class="cls-7" d="M455.68,20.46c-10.7-.67-20.51,13.77-17.52,26.35a32.54,32.54,0,0,1,.76,10.09l0.54,0.17c2-2.55,6.66-3.18,8.55.65a86.14,86.14,0,0,0,4.66,7.9,9.88,9.88,0,0,1,.83-4.76c2.82-5.58.94-7-2.13-15.34s6.79-7,9.29-16.76C461.62,24.72,466.38,21.13,455.68,20.46Z"/><path class="cls-7" d="M454.25,59.2a37.94,37.94,0,0,0,18.8,20.26s-11.1-.39-20.38-13.83A5.57,5.57,0,0,1,454.25,59.2Z"/><path class="cls-16" d="M469.48,37.51c1.63-1.28,4.22-3.56,8.72-2.33,2,0.55,2,1.28-.1.88-3.66-.68-5.15.85-7.75,2.81C469.34,39.62,468.37,38.38,469.48,37.51Z"/><path class="cls-16" d="M459.49,42.33c-2,.48-5.41,1.09-7.25,5.38-0.83,1.93-.27,2.4.75,0.47,1.75-3.29,3.87-3.5,7-4.32C461.24,43.53,460.87,42,459.49,42.33Z"/><path class="cls-16" d="M458.18,26.48c-2.49,9.77-12.36,8.4-9.29,16.76s5,9.77,2.13,15.34,1.59,17.55,8.15,24.44,8.62,11.76,8.13,18.81,1.29,11,5.54,15.79,6.64,7.21-7.32,2S448.87,103.27,448,92s-2.42-9.53-9-19.36-0.32-15.55-3.3-28.12,6.83-27,17.52-26.35S459.15,22.45,458.18,26.48Z"/><path class="cls-17" d="M451.2,21.11c1.18,5-4.06,9.63-7.19,12.59s-4.49,7.1-1.38,11.82,2.62,13.08,1.31,16.82,4.73,14.3,9.91,20.1c4.8,5.37,5.81,16.3,5.91,20.67,0.1,4.67,1.6,9.92,5.16,12.14-4.95-1.38-7.16-6.29-7.51-12.55S458,92,451.59,83.78c-8.12-10.41-11.76-13.86-9.94-22.72,1.43-7,2.06-8.12-1-14.13-3.13-6.17-3.54-9.49.95-13.93S451.13,26.54,451.2,21.11Z"/><path class="cls-16" d="M457.61,26.76c9.2,4.13,14.27-4.45,18.9,3.16s4.56,10,10.68,11.22,12.75,12.17,14.06,21.59,3.85,14.07,9.67,18.06,7.83,7.88,8.92,14.16,1.51,9.68,6.12-4.49-2.45-23.21-10.7-30.9-6-7.82-9.55-19.1-12-9.92-20-20.08S460.34,8.9,454.21,17.7,453.85,25,457.61,26.76Z"/><path class="cls-17" d="M457.74,18c3.2,4.05,10.06,2.81,14.33,2.21s8.35,0.91,10.12,6.27,8.61,10.19,12.35,11.49,8.25,12.6,9.57,20.26c1.22,7.1,9.15,14.69,12.51,17.48,3.59,3,6.77,7.42,6.29,11.59,2-4.73-.47-9.52-5.15-13.68s-8.75-6.19-11.2-16.33C503.47,44.41,503,39.42,495,35.33c-6.37-3.23-7.63-3.44-10.44-9.57-2.88-6.29-5.22-8.67-11.5-7.93S462,21.27,457.74,18Z"/><path class="cls-6" d="M408.66,156.74c-0.12.27-.55,0.42-1.77-0.12s-1-1.33-1.27-1.41c-6.82-2.28-11-4.88-16.8-9.24-1.31-1-2.68-2.18-2.95-3.78-0.13-.82-1.13-2.65-0.93-3.44,0.48-1.93,2.45-3.07,4.32-3.73a5.58,5.58,0,0,1,4.18.61c1.31,0.64,3.13,2.36,4.47,2.92,1.15,0.48,2.63,1.23,3,1.05s-2.24-1.87-1.65-2.75,2,0,2.85.51c2.78,1.74,5.15,5.79,7.93,7.53,2.55,1.6,2,.45,1.51,2.7A54.2,54.2,0,0,1,408.66,156.74Z"/><path class="cls-6" d="M478.69,181.91c-2,1.45-5,1.49-8,1.17-4.57-.49-9.13-2.18-13.84-3.8-4.51-1.56-9-3.45-13.5-5.37-5.9-2.53-13.65-6.35-15.44-7.16-3.67-1.66-10.29-4.82-13.9-6.78-3.9-2.11-10-5.27-12.72-8.68a4.13,4.13,0,0,1,.92-5.81c2.48-1.37,11.39.68,14.91,1.94,10.51,3.76,22.11,7,37.77,13,2.89,1.09,14.53,5.47,17.34,7C478.38,170.71,484.67,177.5,478.69,181.91Z"/></g></svg>