<svg id="Capa_1" data-name="Capa 1" xmlns="http://www.w3.org/2000/svg" xmlns:xlink="http://www.w3.org/1999/xlink" viewBox="0 0 505 183.48"><defs><style>.cls-1{fill:none;}.cls-2{fill:#f4aece;}.cls-3{fill:#1d1d1b;opacity:0.8;}.cls-4{clip-path:url(#clip-path);}.cls-5{fill:#5b4d8d;}.cls-14,.cls-16,.cls-17,.cls-5,.cls-7{fill-rule:evenodd;}.cls-6{fill:#fdd481;}.cls-7,.cls-8{fill:#f7bb64;}.cls-9{fill:#ec62a0;}.cls-10{fill:#ec92bd;}.cls-11{fill:#e3589b;}.cls-12{fill:#e34d95;}.cls-13{fill:#fff;}.cls-14{fill:#f7b447;}.cls-15{fill:#29233f;}.cls-16{fill:#6e5aa3;}.cls-17{fill:#7867ac;}</style><clipPath id="clip-path"><rect class="cls-1" y="-10.42" width="141.32" height="193.9" transform="translate(141.32 173.06) rotate(-180)"/></clipPath></defs><title>Dialogo</title><path class="cls-2" d="M79.74,83.65L103.8,98.74v20.92c0,15.54,11,25.92,26.51,25.92H475.23c15.54,0,29.77-10.38,29.77-25.92V40.57c0-15.54-14.23-30.36-29.77-30.36H130.31c-15.54,0-26.51,14.82-26.51,30.36V66.43Z"/><path class="cls-3" d="M156.93,58.59a0.92,0.92,0,0,1,.27.66,0.84,0.84,0,0,1-.27.65,1,1,0,0,1-.69.25h-7a1,1,0,0,1-1-1V47.11a1,1,0,0,1,1-1h7a1,1,0,0,1,.69.26,0.9,0.9,0,0,1,.27.68,0.84,0.84,0,0,1-.27.65,1,1,0,0,1-.69.25H150.3v4.08h5a1,1,0,0,1,.69.26,0.88,0.88,0,0,1,.27.66,0.84,0.84,0,0,1-.27.66,1,1,0,0,1-.69.24h-5v4.42h5.94A0.92,0.92,0,0,1,156.93,58.59Z"/><path class="cls-3" d="M168.42,53.75v5.44a0.94,0.94,0,0,1-.27.68,0.92,0.92,0,0,1-.69.28,0.89,0.89,0,0,1-.67-0.28,0.94,0.94,0,0,1-.27-0.68V53.77a3,3,0,0,0-.54-1.88,2.08,2.08,0,0,0-1.76-.7,3,3,0,0,0-1.45.35,2.67,2.67,0,0,0-1,.94,2.38,2.38,0,0,0-.37,1.29v5.42a0.94,0.94,0,0,1-.27.68,0.92,0.92,0,0,1-.69.28,0.9,0.9,0,0,1-.68-0.27,1,1,0,0,1-.26-0.69V50.63a0.94,0.94,0,0,1,.27-0.68,0.89,0.89,0,0,1,.67-0.28,0.92,0.92,0,0,1,.69.28,0.94,0.94,0,0,1,.27.68v0.7A4.3,4.3,0,0,1,162.83,50a3.84,3.84,0,0,1,2-.55Q168.42,49.43,168.42,53.75Z"/><path class="cls-3" d="M185.7,55.12a1,1,0,0,1-.66.25h-7a3.48,3.48,0,0,0,1.11,2.34,3.4,3.4,0,0,0,2.37.88,3.72,3.72,0,0,0,1.56-.28,3.92,3.92,0,0,0,1.06-.72,1.13,1.13,0,0,1,.58-0.18,0.76,0.76,0,0,1,.57.24,0.79,0.79,0,0,1,.23.56,1,1,0,0,1-.4.76,4.71,4.71,0,0,1-1.54,1,5.06,5.06,0,0,1-2,.4,5.79,5.79,0,0,1-2.85-.68,4.73,4.73,0,0,1-1.9-1.9,5.63,5.63,0,0,1-.67-2.76,6.08,6.08,0,0,1,.69-2.95,5,5,0,0,1,1.82-2,4.69,4.69,0,0,1,4.83,0,5,5,0,0,1,1.8,1.82,5.2,5.2,0,0,1,.7,2.6A0.86,0.86,0,0,1,185.7,55.12Zm-6.54-3.3a3.1,3.1,0,0,0-1.08,2H184V53.61a2.44,2.44,0,0,0-1-1.74,3,3,0,0,0-1.93-.68A3.09,3.09,0,0,0,179.16,51.82Z"/><path class="cls-3" d="M187.42,58a0.81,0.81,0,0,1,.42-0.68,0.78,0.78,0,0,1,.46-0.14,0.92,0.92,0,0,1,.66.3,4.21,4.21,0,0,0,1.29,1,3.69,3.69,0,0,0,1.65.34,2.82,2.82,0,0,0,1.34-.35,1.14,1.14,0,0,0,.58-1.07,1.15,1.15,0,0,0-.59-1,6.72,6.72,0,0,0-1.73-.66,12.78,12.78,0,0,1-1.86-.63,3.34,3.34,0,0,1-1.25-1,2.81,2.81,0,0,1,0-3.23,3.39,3.39,0,0,1,1.36-1.06,4.48,4.48,0,0,1,1.85-.38,5.35,5.35,0,0,1,1.91.36,3.59,3.59,0,0,1,1.55,1.1,0.88,0.88,0,0,1,.24.58,0.86,0.86,0,0,1-.32.62,0.72,0.72,0,0,1-.5.18A0.75,0.75,0,0,1,193.9,52a2.82,2.82,0,0,0-1-.74,3.41,3.41,0,0,0-1.35-.26,2.51,2.51,0,0,0-1.29.31,1.12,1.12,0,0,0-.53,1.05,1.16,1.16,0,0,0,.61,1,7.72,7.72,0,0,0,1.81.66,11.2,11.2,0,0,1,1.76.6,3.07,3.07,0,0,1,1.18,1,2.65,2.65,0,0,1,.48,1.65,2.57,2.57,0,0,1-.54,1.63A3.48,3.48,0,0,1,193.59,60a4.68,4.68,0,0,1-1.85.37,6.07,6.07,0,0,1-2.33-.44,4.34,4.34,0,0,1-1.81-1.4A1,1,0,0,1,187.42,58Z"/><path class="cls-3" d="M200.58,51.53v6a0.84,0.84,0,0,0,.9,1,1.44,1.44,0,0,0,.38-0.07,1.46,1.46,0,0,1,.38-0.07,0.55,0.55,0,0,1,.44.22,0.84,0.84,0,0,1-.3,1.28,2,2,0,0,1-1.08.3,4.88,4.88,0,0,1-1.21-.14,1.79,1.79,0,0,1-1-.71,2.86,2.86,0,0,1-.43-1.73v-6h-1.16a0.85,0.85,0,0,1-.88-0.88,0.82,0.82,0,0,1,.25-0.62,0.87,0.87,0,0,1,.63-0.24h1.16V48.11a1,1,0,0,1,.27-0.68,0.92,0.92,0,0,1,.69-0.28,0.89,0.89,0,0,1,.67.28,1,1,0,0,1,.27.68v1.68h1.66a0.85,0.85,0,0,1,.88.88,0.82,0.82,0,0,1-.25.62,0.87,0.87,0,0,1-.63.24h-1.66Z"/><path class="cls-3" d="M214.53,49.8a1,1,0,0,1,.27.71v8.68a0.94,0.94,0,0,1-.27.68,0.92,0.92,0,0,1-.69.28,0.9,0.9,0,0,1-.68-0.27,1,1,0,0,1-.26-0.69V58.67a4.28,4.28,0,0,1-1.42,1.19,4,4,0,0,1-1.94.49,4.53,4.53,0,0,1-2.47-.7,4.8,4.8,0,0,1-1.74-2,6.58,6.58,0,0,1,0-5.62,4.83,4.83,0,0,1,1.73-2,4.57,4.57,0,0,1,4.39-.26A4.08,4.08,0,0,1,212.9,51V50.51a1,1,0,0,1,.26-0.7,0.88,0.88,0,0,1,.68-0.28A0.93,0.93,0,0,1,214.53,49.8Zm-3.1,8.31a3.24,3.24,0,0,0,1.14-1.32,4.27,4.27,0,0,0,.41-1.9,4.23,4.23,0,0,0-.41-1.88,3.32,3.32,0,0,0-1.14-1.33,2.93,2.93,0,0,0-1.67-.49,3,3,0,0,0-1.67.48A3.24,3.24,0,0,0,206.95,53a4.61,4.61,0,0,0,0,3.8,3.24,3.24,0,0,0,1.14,1.32A3.14,3.14,0,0,0,211.43,58.11Z"/><path class="cls-3" d="M222.38,58a0.81,0.81,0,0,1,.42-0.68,0.78,0.78,0,0,1,.46-0.14,0.92,0.92,0,0,1,.66.3,4.21,4.21,0,0,0,1.29,1,3.69,3.69,0,0,0,1.65.34,2.82,2.82,0,0,0,1.34-.35,1.14,1.14,0,0,0,.58-1.07,1.15,1.15,0,0,0-.59-1,6.72,6.72,0,0,0-1.73-.66,12.78,12.78,0,0,1-1.86-.63,3.34,3.34,0,0,1-1.25-1,2.81,2.81,0,0,1,0-3.23,3.39,3.39,0,0,1,1.36-1.06,4.48,4.48,0,0,1,1.85-.38,5.35,5.35,0,0,1,1.91.36,3.59,3.59,0,0,1,1.55,1.1,0.88,0.88,0,0,1,.24.58,0.86,0.86,0,0,1-.32.62,0.72,0.72,0,0,1-.5.18,0.75,0.75,0,0,1-.58-0.24,2.82,2.82,0,0,0-1-.74,3.41,3.41,0,0,0-1.35-.26,2.51,2.51,0,0,0-1.29.31,1.12,1.12,0,0,0-.53,1.05,1.16,1.16,0,0,0,.61,1,7.72,7.72,0,0,0,1.81.66,11.2,11.2,0,0,1,1.76.6,3.07,3.07,0,0,1,1.18,1,2.65,2.65,0,0,1,.48,1.65,2.57,2.57,0,0,1-.54,1.63A3.48,3.48,0,0,1,228.55,60a4.68,4.68,0,0,1-1.85.37,6.07,6.07,0,0,1-2.33-.44,4.34,4.34,0,0,1-1.81-1.4A1,1,0,0,1,222.38,58Z"/><path class="cls-3" d="M241.6,55.12a1,1,0,0,1-.66.25h-7A3.48,3.48,0,0,0,235,57.71a3.4,3.4,0,0,0,2.37.88,3.72,3.72,0,0,0,1.56-.28,3.92,3.92,0,0,0,1.06-.72,1.13,1.13,0,0,1,.58-0.18,0.76,0.76,0,0,1,.57.24,0.79,0.79,0,0,1,.23.56,1,1,0,0,1-.4.76,4.71,4.71,0,0,1-1.54,1,5.06,5.06,0,0,1-2,.4,5.79,5.79,0,0,1-2.85-.68,4.73,4.73,0,0,1-1.9-1.9,5.63,5.63,0,0,1-.67-2.76,6.08,6.08,0,0,1,.69-2.95,5,5,0,0,1,1.82-2,4.69,4.69,0,0,1,4.83,0,5,5,0,0,1,1.8,1.82,5.2,5.2,0,0,1,.7,2.6A0.86,0.86,0,0,1,241.6,55.12Zm-6.54-3.3a3.1,3.1,0,0,0-1.08,2h5.9V53.61a2.44,2.44,0,0,0-1-1.74,3,3,0,0,0-1.93-.68A3.09,3.09,0,0,0,235.06,51.82Z"/><path class="cls-3" d="M251.29,49.93a1.49,1.49,0,0,1,1.05,1.28,0.94,0.94,0,0,1-.22.61,0.69,0.69,0,0,1-.56.27,0.87,0.87,0,0,1-.41-0.08,4.37,4.37,0,0,1-.41-0.26,2.18,2.18,0,0,0-.38-0.28,2.64,2.64,0,0,0-.68-0.2,4.52,4.52,0,0,0-.8-0.08,3.51,3.51,0,0,0-1.84.48A3.27,3.27,0,0,0,245.8,53a4,4,0,0,0-.44,1.89,4.11,4.11,0,0,0,.43,1.9A3.26,3.26,0,0,0,247,58.11a3.33,3.33,0,0,0,1.78.48,3.77,3.77,0,0,0,1.68-.32,4,4,0,0,0,.38-0.26,2.37,2.37,0,0,1,.35-0.24,0.78,0.78,0,0,1,.37-0.08,0.81,0.81,0,0,1,.63.25,0.92,0.92,0,0,1,.23.65,1.11,1.11,0,0,1-.53.83,4.26,4.26,0,0,1-1.42.67,6.78,6.78,0,0,1-1.91.26,5,5,0,0,1-2.68-.71,4.75,4.75,0,0,1-1.79-2,6.11,6.11,0,0,1-.63-2.79,5.88,5.88,0,0,1,.66-2.79,4.92,4.92,0,0,1,1.84-2,5.14,5.14,0,0,1,2.7-.71A6.11,6.11,0,0,1,251.29,49.93Z"/><path class="cls-3" d="M261.57,49.93a1.49,1.49,0,0,1,1.05,1.28,0.94,0.94,0,0,1-.22.61,0.69,0.69,0,0,1-.56.27,0.87,0.87,0,0,1-.41-0.08,4.37,4.37,0,0,1-.41-0.26,2.18,2.18,0,0,0-.38-0.28,2.64,2.64,0,0,0-.68-0.2,4.52,4.52,0,0,0-.8-0.08,3.51,3.51,0,0,0-1.84.48A3.27,3.27,0,0,0,256.08,53a4,4,0,0,0-.44,1.89,4.11,4.11,0,0,0,.43,1.9,3.26,3.26,0,0,0,1.21,1.32,3.33,3.33,0,0,0,1.78.48,3.77,3.77,0,0,0,1.68-.32,4,4,0,0,0,.38-0.26,2.37,2.37,0,0,1,.35-0.24,0.78,0.78,0,0,1,.37-0.08,0.81,0.81,0,0,1,.63.25,0.92,0.92,0,0,1,.23.65,1.11,1.11,0,0,1-.53.83,4.26,4.26,0,0,1-1.42.67,6.78,6.78,0,0,1-1.91.26,5,5,0,0,1-2.68-.71,4.75,4.75,0,0,1-1.79-2,6.11,6.11,0,0,1-.63-2.79,5.88,5.88,0,0,1,.66-2.79,4.92,4.92,0,0,1,1.84-2,5.14,5.14,0,0,1,2.7-.71A6.11,6.11,0,0,1,261.57,49.93Z"/><path class="cls-3" d="M264.67,48a0.83,0.83,0,0,1-.25-0.67V47a0.79,0.79,0,0,1,.27-0.68,1.4,1.4,0,0,1,.83-0.2,1.25,1.25,0,0,1,.81.21,0.83,0.83,0,0,1,.25.67v0.32a0.81,0.81,0,0,1-.26.68,1.35,1.35,0,0,1-.82.2A1.29,1.29,0,0,1,264.67,48Zm1.52,11.83a0.92,0.92,0,0,1-.69.28,0.89,0.89,0,0,1-.67-0.28,1,1,0,0,1-.27-0.68V50.53a0.94,0.94,0,0,1,.27-0.68,0.89,0.89,0,0,1,.67-0.28,0.92,0.92,0,0,1,.69.28,0.94,0.94,0,0,1,.27.68v8.66A1,1,0,0,1,266.19,59.87Z"/><path class="cls-3" d="M278.42,57.71a5.09,5.09,0,0,1-1.91,1.94,5.44,5.44,0,0,1-5.34,0,5.08,5.08,0,0,1-1.91-1.94,5.6,5.6,0,0,1-.7-2.8,5.71,5.71,0,0,1,.7-2.82,5,5,0,0,1,1.91-2,5.44,5.44,0,0,1,5.34,0,5.05,5.05,0,0,1,1.91,2,5.71,5.71,0,0,1,.7,2.82A5.6,5.6,0,0,1,278.42,57.71ZM276.77,53a3.35,3.35,0,0,0-1.22-1.32,3.35,3.35,0,0,0-3.42,0A3.34,3.34,0,0,0,270.91,53a4.06,4.06,0,0,0-.45,1.93,4,4,0,0,0,.45,1.9,3.36,3.36,0,0,0,1.22,1.31,3.35,3.35,0,0,0,3.42,0,3.36,3.36,0,0,0,1.22-1.31,4,4,0,0,0,.45-1.9A4.06,4.06,0,0,0,276.77,53Zm-3.33-4.25a0.41,0.41,0,0,1-.16-0.38A0.72,0.72,0,0,1,273.4,48l1.18-2a1.56,1.56,0,0,1,.39-0.46,0.84,0.84,0,0,1,.53-0.18,0.91,0.91,0,0,1,.67.23,0.77,0.77,0,0,1,.21.61,1.05,1.05,0,0,1-.3.7l-1.5,1.64a1.09,1.09,0,0,1-.8.32A0.56,0.56,0,0,1,273.44,48.73Z"/><path class="cls-3" d="M290.26,53.75v5.44a0.94,0.94,0,0,1-.27.68,0.92,0.92,0,0,1-.69.28,0.89,0.89,0,0,1-.67-0.28,0.94,0.94,0,0,1-.27-0.68V53.77a3,3,0,0,0-.54-1.88,2.08,2.08,0,0,0-1.76-.7,3,3,0,0,0-1.45.35,2.67,2.67,0,0,0-1,.94,2.38,2.38,0,0,0-.37,1.29v5.42a0.94,0.94,0,0,1-.27.68,0.92,0.92,0,0,1-.69.28,0.9,0.9,0,0,1-.68-0.27,1,1,0,0,1-.26-0.69V50.63a0.94,0.94,0,0,1,.27-0.68,0.89,0.89,0,0,1,.67-0.28,0.92,0.92,0,0,1,.69.28,0.94,0.94,0,0,1,.27.68v0.7A4.3,4.3,0,0,1,284.67,50a3.84,3.84,0,0,1,2-.55Q290.26,49.43,290.26,53.75Z"/><path class="cls-3" d="M306.36,50.18a4.78,4.78,0,0,1,1.73,1.93,6.1,6.1,0,0,1,.63,2.8,6,6,0,0,1-.63,2.79,4.86,4.86,0,0,1-1.73,1.93,4.42,4.42,0,0,1-2.42.7,4.21,4.21,0,0,1-1.94-.46,4.68,4.68,0,0,1-1.46-1.12v4.44a0.94,0.94,0,0,1-.27.68,1,1,0,0,1-1.36,0,0.93,0.93,0,0,1-.27-0.69V50.61a1,1,0,0,1,.26-0.7,0.88,0.88,0,0,1,.68-0.28,0.92,0.92,0,0,1,.69.28,1,1,0,0,1,.27.7v0.58a3.92,3.92,0,0,1,1.4-1.2,4,4,0,0,1,2-.5A4.54,4.54,0,0,1,306.36,50.18Zm-1,7.91a3.23,3.23,0,0,0,1.15-1.31,4.47,4.47,0,0,0,0-3.74,3.23,3.23,0,0,0-1.15-1.31,3,3,0,0,0-1.66-.48,3.07,3.07,0,0,0-1.68.47A3.15,3.15,0,0,0,300.85,53a4.52,4.52,0,0,0,0,3.76A3.15,3.15,0,0,0,302,58.1a3.06,3.06,0,0,0,1.68.47A3,3,0,0,0,305.34,58.09Z"/><path class="cls-3" d="M319.41,49.95a1,1,0,0,1,.27.68v5.32a4.39,4.39,0,1,1-8.76,0V50.63a0.94,0.94,0,0,1,.27-0.68,0.89,0.89,0,0,1,.67-0.28,0.92,0.92,0,0,1,.69.28,0.94,0.94,0,0,1,.27.68v5.32q0,2.62,2.46,2.62a2.47,2.47,0,0,0,1.86-.66,2.71,2.71,0,0,0,.64-2V50.63a1,1,0,0,1,.27-0.68,0.89,0.89,0,0,1,.67-0.28A0.92,0.92,0,0,1,319.41,49.95Z"/><path class="cls-3" d="M331.42,55.12a1,1,0,0,1-.66.25h-7a3.48,3.48,0,0,0,1.11,2.34,3.4,3.4,0,0,0,2.37.88,3.72,3.72,0,0,0,1.56-.28,3.92,3.92,0,0,0,1.06-.72,1.13,1.13,0,0,1,.58-0.18,0.76,0.76,0,0,1,.57.24,0.79,0.79,0,0,1,.23.56,1,1,0,0,1-.4.76,4.71,4.71,0,0,1-1.54,1,5.06,5.06,0,0,1-2,.4,5.79,5.79,0,0,1-2.85-.68,4.73,4.73,0,0,1-1.9-1.9,5.63,5.63,0,0,1-.67-2.76,6.08,6.08,0,0,1,.69-2.95,5,5,0,0,1,1.82-2,4.69,4.69,0,0,1,4.83,0,5,5,0,0,1,1.8,1.82,5.2,5.2,0,0,1,.7,2.6A0.86,0.86,0,0,1,331.42,55.12Zm-6.54-3.3a3.1,3.1,0,0,0-1.08,2h5.9V53.61a2.44,2.44,0,0,0-1-1.74,3,3,0,0,0-1.93-.68A3.09,3.09,0,0,0,324.88,51.82Z"/><path class="cls-3" d="M343.11,45.62a0.93,0.93,0,0,1,.27.69V59.19a0.94,0.94,0,0,1-.27.68,0.92,0.92,0,0,1-.69.28,0.9,0.9,0,0,1-.68-0.27,1,1,0,0,1-.26-0.69V58.63a4,4,0,0,1-1.41,1.22,4,4,0,0,1-1.95.5,4.48,4.48,0,0,1-2.46-.7,4.9,4.9,0,0,1-1.74-2,6.07,6.07,0,0,1-.64-2.81,6.16,6.16,0,0,1,.63-2.81,4.83,4.83,0,0,1,1.73-2,4.55,4.55,0,0,1,4.38-.26A4.2,4.2,0,0,1,341.48,51v-4.7a1,1,0,0,1,.26-0.69,0.9,0.9,0,0,1,.68-0.27A0.93,0.93,0,0,1,343.11,45.62ZM340,58.11a3.24,3.24,0,0,0,1.14-1.32,4.58,4.58,0,0,0,0-3.79A3.23,3.23,0,0,0,340,51.67a3.14,3.14,0,0,0-3.34,0A3.23,3.23,0,0,0,335.53,53a4.59,4.59,0,0,0,0,3.79,3.24,3.24,0,0,0,1.14,1.32A3.14,3.14,0,0,0,340,58.11Z"/><path class="cls-3" d="M355.1,55.12a1,1,0,0,1-.66.25h-7a3.48,3.48,0,0,0,1.11,2.34,3.4,3.4,0,0,0,2.37.88,3.72,3.72,0,0,0,1.56-.28,3.92,3.92,0,0,0,1.06-.72,1.13,1.13,0,0,1,.58-0.18,0.76,0.76,0,0,1,.57.24,0.79,0.79,0,0,1,.23.56,1,1,0,0,1-.4.76,4.71,4.71,0,0,1-1.54,1,5.06,5.06,0,0,1-2,.4,5.79,5.79,0,0,1-2.85-.68,4.73,4.73,0,0,1-1.9-1.9,5.63,5.63,0,0,1-.67-2.76,6.08,6.08,0,0,1,.69-2.95,5,5,0,0,1,1.82-2,4.69,4.69,0,0,1,4.83,0,5,5,0,0,1,1.8,1.82,5.2,5.2,0,0,1,.7,2.6A0.86,0.86,0,0,1,355.1,55.12Zm-6.54-3.3a3.1,3.1,0,0,0-1.08,2h5.9V53.61a2.44,2.44,0,0,0-1-1.74,3,3,0,0,0-1.93-.68A3.09,3.09,0,0,0,348.56,51.82Z"/><path class="cls-3" d="M356.82,58a0.81,0.81,0,0,1,.42-0.68,0.78,0.78,0,0,1,.46-0.14,0.92,0.92,0,0,1,.66.3,4.21,4.21,0,0,0,1.29,1,3.69,3.69,0,0,0,1.65.34,2.82,2.82,0,0,0,1.34-.35,1.14,1.14,0,0,0,.58-1.07,1.15,1.15,0,0,0-.59-1,6.72,6.72,0,0,0-1.73-.66,12.78,12.78,0,0,1-1.86-.63,3.34,3.34,0,0,1-1.25-1,2.81,2.81,0,0,1,0-3.23,3.39,3.39,0,0,1,1.36-1.06,4.48,4.48,0,0,1,1.85-.38,5.35,5.35,0,0,1,1.91.36,3.59,3.59,0,0,1,1.55,1.1,0.88,0.88,0,0,1,.24.58,0.86,0.86,0,0,1-.32.62,0.72,0.72,0,0,1-.5.18A0.75,0.75,0,0,1,363.3,52a2.82,2.82,0,0,0-1-.74,3.41,3.41,0,0,0-1.35-.26,2.51,2.51,0,0,0-1.29.31,1.12,1.12,0,0,0-.53,1.05,1.16,1.16,0,0,0,.61,1,7.72,7.72,0,0,0,1.81.66,11.2,11.2,0,0,1,1.76.6,3.07,3.07,0,0,1,1.18,1,2.65,2.65,0,0,1,.48,1.65,2.57,2.57,0,0,1-.54,1.63A3.48,3.48,0,0,1,363,60a4.68,4.68,0,0,1-1.85.37,6.07,6.07,0,0,1-2.33-.44,4.34,4.34,0,0,1-1.81-1.4A1,1,0,0,1,356.82,58Z"/><path class="cls-3" d="M381.9,57.71A5.09,5.09,0,0,1,380,59.65a5.44,5.44,0,0,1-5.34,0,5.08,5.08,0,0,1-1.91-1.94,5.59,5.59,0,0,1-.7-2.8,5.7,5.7,0,0,1,.7-2.82,5,5,0,0,1,1.91-2,5.44,5.44,0,0,1,5.34,0,5.05,5.05,0,0,1,1.91,2,5.71,5.71,0,0,1,.7,2.82A5.6,5.6,0,0,1,381.9,57.71ZM380.25,53A3.34,3.34,0,0,0,379,51.66a3.35,3.35,0,0,0-3.42,0A3.34,3.34,0,0,0,374.39,53a4.06,4.06,0,0,0-.45,1.93,4,4,0,0,0,.45,1.9,3.36,3.36,0,0,0,1.22,1.31,3.35,3.35,0,0,0,3.42,0,3.35,3.35,0,0,0,1.22-1.31,4,4,0,0,0,.45-1.9A4.06,4.06,0,0,0,380.25,53Z"/><path class="cls-3" d="M392.52,50.13a4.85,4.85,0,0,1,1.73,1.94,6.1,6.1,0,0,1,.63,2.8,6.22,6.22,0,0,1-.63,2.82,4.82,4.82,0,0,1-1.73,2,4.42,4.42,0,0,1-2.42.7,4.2,4.2,0,0,1-1.94-.46,4.52,4.52,0,0,1-1.46-1.14v0.58a0.94,0.94,0,0,1-.27.68,1,1,0,0,1-1.36,0,0.93,0.93,0,0,1-.27-0.69v-13a1,1,0,0,1,.26-0.69,0.9,0.9,0,0,1,.68-0.27,0.92,0.92,0,0,1,.69.28,0.94,0.94,0,0,1,.27.68v4.88a4,4,0,0,1,1.4-1.24,3.93,3.93,0,0,1,2-.52A4.49,4.49,0,0,1,392.52,50.13Zm-1,8a3.28,3.28,0,0,0,1.15-1.34,4.29,4.29,0,0,0,.41-1.89,4.23,4.23,0,0,0-.41-1.88,3.22,3.22,0,0,0-1.15-1.32,3,3,0,0,0-1.66-.48,3,3,0,0,0-1.68.48A3.23,3.23,0,0,0,387,53a4.21,4.21,0,0,0-.41,1.89,4.27,4.27,0,0,0,.41,1.9,3.28,3.28,0,0,0,1.15,1.33,3,3,0,0,0,1.68.49A2.94,2.94,0,0,0,391.5,58.1Z"/><path class="cls-3" d="M396.3,58a0.81,0.81,0,0,1,.42-0.68,0.78,0.78,0,0,1,.46-0.14,0.92,0.92,0,0,1,.66.3,4.23,4.23,0,0,0,1.29,1,3.7,3.7,0,0,0,1.65.34,2.82,2.82,0,0,0,1.34-.35,1.14,1.14,0,0,0,.58-1.07,1.15,1.15,0,0,0-.59-1,6.71,6.71,0,0,0-1.73-.66,12.77,12.77,0,0,1-1.86-.63,3.33,3.33,0,0,1-1.25-1,2.81,2.81,0,0,1,0-3.23,3.39,3.39,0,0,1,1.36-1.06,4.48,4.48,0,0,1,1.85-.38,5.35,5.35,0,0,1,1.91.36,3.59,3.59,0,0,1,1.55,1.1,0.88,0.88,0,0,1,.24.58,0.86,0.86,0,0,1-.32.62,0.72,0.72,0,0,1-.5.18,0.75,0.75,0,0,1-.58-0.24,2.82,2.82,0,0,0-1-.74A3.41,3.41,0,0,0,400.4,51a2.51,2.51,0,0,0-1.29.31,1.12,1.12,0,0,0-.53,1.05,1.16,1.16,0,0,0,.61,1,7.7,7.7,0,0,0,1.81.66,11.17,11.17,0,0,1,1.76.6,3.07,3.07,0,0,1,1.18,1,2.65,2.65,0,0,1,.48,1.65,2.56,2.56,0,0,1-.54,1.63A3.48,3.48,0,0,1,402.47,60a4.67,4.67,0,0,1-1.85.37,6.06,6.06,0,0,1-2.33-.44,4.34,4.34,0,0,1-1.81-1.4A1,1,0,0,1,396.3,58Z"/><path class="cls-3" d="M415.52,55.12a1,1,0,0,1-.66.25h-7a3.47,3.47,0,0,0,1.11,2.34,3.4,3.4,0,0,0,2.37.88,3.72,3.72,0,0,0,1.56-.28,3.92,3.92,0,0,0,1.06-.72,1.13,1.13,0,0,1,.58-0.18,0.76,0.76,0,0,1,.57.24,0.78,0.78,0,0,1,.23.56,1,1,0,0,1-.4.76,4.7,4.7,0,0,1-1.54,1,5.06,5.06,0,0,1-2,.4,5.79,5.79,0,0,1-2.85-.68,4.74,4.74,0,0,1-1.9-1.9A5.63,5.63,0,0,1,406,55a6.08,6.08,0,0,1,.69-2.95,5,5,0,0,1,1.82-2,4.69,4.69,0,0,1,4.83,0,5,5,0,0,1,1.8,1.82,5.2,5.2,0,0,1,.7,2.6A0.86,0.86,0,0,1,415.52,55.12ZM409,51.82a3.1,3.1,0,0,0-1.08,2h5.9V53.61a2.44,2.44,0,0,0-.95-1.74,3,3,0,0,0-1.93-.68A3.09,3.09,0,0,0,409,51.82Z"/><path class="cls-3" d="M424.14,49.7a0.8,0.8,0,0,1,.38.67,1,1,0,0,1-.25.73,0.83,0.83,0,0,1-.61.25,1.91,1.91,0,0,1-.54-0.12,2.25,2.25,0,0,0-.66-0.14,2,2,0,0,0-1.21.43,3.14,3.14,0,0,0-1,1.18,3.72,3.72,0,0,0-.37,1.67v4.82a0.94,0.94,0,0,1-.27.68,0.92,0.92,0,0,1-.69.28,0.9,0.9,0,0,1-.68-0.27,1,1,0,0,1-.26-0.69V50.63a0.94,0.94,0,0,1,.27-0.68,0.89,0.89,0,0,1,.67-0.28,0.92,0.92,0,0,1,.69.28,0.94,0.94,0,0,1,.27.68v1a3.78,3.78,0,0,1,1.32-1.59,3.55,3.55,0,0,1,2-.63A1.52,1.52,0,0,1,424.14,49.7Z"/><path class="cls-3" d="M435.91,49.82a0.79,0.79,0,0,1,.26.59,1.36,1.36,0,0,1-.14.5l-3.8,8.64a1.06,1.06,0,0,1-.34.42,0.92,0.92,0,0,1-.48.18,0.91,0.91,0,0,1-.59-0.12,1,1,0,0,1-.41-0.48l-3.8-8.64a1.65,1.65,0,0,1-.1-0.5,0.8,0.8,0,0,1,.26-0.58,0.92,0.92,0,0,1,.68-0.26,1,1,0,0,1,.54.15,1,1,0,0,1,.38.45l3,7,3-7a0.91,0.91,0,0,1,.86-0.6A0.89,0.89,0,0,1,435.91,49.82Z"/><path class="cls-3" d="M447.39,49.8a1,1,0,0,1,.27.71v8.68a1,1,0,0,1-.27.68,0.92,0.92,0,0,1-.69.28,0.9,0.9,0,0,1-.68-0.27,1,1,0,0,1-.26-0.69V58.67a4.29,4.29,0,0,1-1.42,1.19,4,4,0,0,1-1.94.49,4.53,4.53,0,0,1-2.47-.7,4.8,4.8,0,0,1-1.74-2,6.58,6.58,0,0,1,0-5.62,4.83,4.83,0,0,1,1.73-2,4.42,4.42,0,0,1,2.42-.7,4.47,4.47,0,0,1,2,.44A4.09,4.09,0,0,1,445.76,51V50.51a1,1,0,0,1,.26-0.7,0.88,0.88,0,0,1,.68-0.28A0.94,0.94,0,0,1,447.39,49.8Zm-3.1,8.31a3.25,3.25,0,0,0,1.14-1.32,4.29,4.29,0,0,0,.41-1.9,4.24,4.24,0,0,0-.41-1.88,3.33,3.33,0,0,0-1.14-1.33,2.93,2.93,0,0,0-1.67-.49,3,3,0,0,0-1.67.48A3.24,3.24,0,0,0,439.81,53a4.61,4.61,0,0,0,0,3.8,3.24,3.24,0,0,0,1.14,1.32A3.14,3.14,0,0,0,444.28,58.11Z"/><path class="cls-3" d="M456.6,49.7a0.8,0.8,0,0,1,.38.67,1,1,0,0,1-.25.73,0.83,0.83,0,0,1-.61.25,1.91,1.91,0,0,1-.54-0.12,2.25,2.25,0,0,0-.66-0.14,2,2,0,0,0-1.21.43,3.14,3.14,0,0,0-1,1.18,3.72,3.72,0,0,0-.37,1.67v4.82a0.94,0.94,0,0,1-.27.68,0.92,0.92,0,0,1-.69.28,0.9,0.9,0,0,1-.68-0.27,1,1,0,0,1-.26-0.69V50.63a0.94,0.94,0,0,1,.27-0.68,0.89,0.89,0,0,1,.67-0.28,0.92,0.92,0,0,1,.69.28,0.94,0.94,0,0,1,.27.68v1a3.78,3.78,0,0,1,1.32-1.59,3.55,3.55,0,0,1,2-.63A1.52,1.52,0,0,1,456.6,49.7Z"/><path class="cls-3" d="M157.27,73.9a1,1,0,0,1,.27.71V87.19a0.94,0.94,0,0,1-.27.68,0.92,0.92,0,0,1-.69.28,0.9,0.9,0,0,1-.68-0.27,1,1,0,0,1-.26-0.69V82.63a4,4,0,0,1-1.41,1.22,4,4,0,0,1-1.95.5,4.48,4.48,0,0,1-2.46-.7,4.9,4.9,0,0,1-1.74-2,6.07,6.07,0,0,1-.64-2.81,6.16,6.16,0,0,1,.63-2.81,4.83,4.83,0,0,1,1.73-2,4.55,4.55,0,0,1,4.38-.26A4.2,4.2,0,0,1,155.64,75v-0.4a1,1,0,0,1,.26-0.7,0.88,0.88,0,0,1,.68-0.28A0.93,0.93,0,0,1,157.27,73.9Zm-3.1,8.21a3.24,3.24,0,0,0,1.14-1.32,4.58,4.58,0,0,0,0-3.79,3.23,3.23,0,0,0-1.14-1.33,3.14,3.14,0,0,0-3.34,0A3.23,3.23,0,0,0,149.69,77a4.59,4.59,0,0,0,0,3.79,3.24,3.24,0,0,0,1.14,1.32A3.14,3.14,0,0,0,154.17,82.11Z"/><path class="cls-3" d="M168.85,73.95a1,1,0,0,1,.27.68v5.32a4.39,4.39,0,1,1-8.76,0V74.63a0.94,0.94,0,0,1,.27-0.68,0.89,0.89,0,0,1,.67-0.28,0.92,0.92,0,0,1,.69.28,0.94,0.94,0,0,1,.27.68v5.32q0,2.62,2.46,2.62a2.47,2.47,0,0,0,1.86-.66,2.71,2.71,0,0,0,.64-2V74.63a1,1,0,0,1,.27-0.68,0.89,0.89,0,0,1,.67-0.28A0.92,0.92,0,0,1,168.85,73.95Z"/><path class="cls-3" d="M180.86,79.12a1,1,0,0,1-.66.25h-7a3.48,3.48,0,0,0,1.11,2.34,3.4,3.4,0,0,0,2.37.88,3.72,3.72,0,0,0,1.56-.28,3.92,3.92,0,0,0,1.06-.72,1.13,1.13,0,0,1,.58-0.18,0.76,0.76,0,0,1,.57.24,0.79,0.79,0,0,1,.23.56,1,1,0,0,1-.4.76,4.71,4.71,0,0,1-1.54,1,5.06,5.06,0,0,1-2,.4,5.79,5.79,0,0,1-2.85-.68,4.73,4.73,0,0,1-1.9-1.9,5.63,5.63,0,0,1-.67-2.76,6.08,6.08,0,0,1,.69-2.95,5,5,0,0,1,1.82-2,4.69,4.69,0,0,1,4.83,0,5,5,0,0,1,1.8,1.82,5.2,5.2,0,0,1,.7,2.6A0.86,0.86,0,0,1,180.86,79.12Zm-6.54-3.3a3.1,3.1,0,0,0-1.08,2h5.9V77.61a2.44,2.44,0,0,0-1-1.74,3,3,0,0,0-1.93-.68A3.09,3.09,0,0,0,174.32,75.82Zm1.54-3a0.41,0.41,0,0,1-.16-0.38,0.72,0.72,0,0,1,.12-0.36l1.18-2a1.55,1.55,0,0,1,.39-0.46,0.83,0.83,0,0,1,.53-0.18,0.91,0.91,0,0,1,.67.23,0.77,0.77,0,0,1,.21.61,1.05,1.05,0,0,1-.3.7L177,72.61a1.09,1.09,0,0,1-.8.32A0.57,0.57,0,0,1,175.86,72.79Z"/><path class="cls-3" d="M188.12,82a0.81,0.81,0,0,1,.42-0.68,0.78,0.78,0,0,1,.46-0.14,0.92,0.92,0,0,1,.66.3,4.21,4.21,0,0,0,1.29,1,3.69,3.69,0,0,0,1.65.34,2.82,2.82,0,0,0,1.34-.35,1.14,1.14,0,0,0,.58-1.07,1.15,1.15,0,0,0-.59-1,6.72,6.72,0,0,0-1.73-.66,12.78,12.78,0,0,1-1.86-.63,3.34,3.34,0,0,1-1.25-1,2.81,2.81,0,0,1,0-3.23,3.39,3.39,0,0,1,1.36-1.06,4.48,4.48,0,0,1,1.85-.38,5.35,5.35,0,0,1,1.91.36,3.59,3.59,0,0,1,1.55,1.1,0.88,0.88,0,0,1,.24.58,0.86,0.86,0,0,1-.32.62,0.72,0.72,0,0,1-.5.18A0.75,0.75,0,0,1,194.6,76a2.82,2.82,0,0,0-1-.74,3.41,3.41,0,0,0-1.35-.26,2.51,2.51,0,0,0-1.29.31,1.12,1.12,0,0,0-.53,1.05,1.16,1.16,0,0,0,.61,1,7.72,7.72,0,0,0,1.81.66,11.2,11.2,0,0,1,1.76.6,3.07,3.07,0,0,1,1.18,1,2.65,2.65,0,0,1,.48,1.65,2.57,2.57,0,0,1-.54,1.63A3.48,3.48,0,0,1,194.29,84a4.68,4.68,0,0,1-1.85.37,6.07,6.07,0,0,1-2.33-.44,4.34,4.34,0,0,1-1.81-1.4A1,1,0,0,1,188.12,82Z"/><path class="cls-3" d="M200,83.87a0.92,0.92,0,0,1-.69.28,0.89,0.89,0,0,1-.67-0.28,1,1,0,0,1-.27-0.68V74.53a0.94,0.94,0,0,1,.27-0.68,0.89,0.89,0,0,1,.67-0.28,0.92,0.92,0,0,1,.69.28,0.94,0.94,0,0,1,.27.68v8.66A1,1,0,0,1,200,83.87Zm-1.09-11.08a0.41,0.41,0,0,1-.16-0.38,0.72,0.72,0,0,1,.12-0.36l1.18-2a1.55,1.55,0,0,1,.39-0.46,0.83,0.83,0,0,1,.53-0.18,0.91,0.91,0,0,1,.67.23,0.77,0.77,0,0,1,.21.61,1.05,1.05,0,0,1-.3.7L200,72.61a1.09,1.09,0,0,1-.8.32A0.57,0.57,0,0,1,198.88,72.79Z"/><path class="cls-3" d="M217.42,79.12a1,1,0,0,1-.66.25h-7a3.48,3.48,0,0,0,1.11,2.34,3.4,3.4,0,0,0,2.37.88,3.72,3.72,0,0,0,1.56-.28,3.92,3.92,0,0,0,1.06-.72,1.13,1.13,0,0,1,.58-0.18,0.76,0.76,0,0,1,.57.24,0.79,0.79,0,0,1,.23.56,1,1,0,0,1-.4.76,4.71,4.71,0,0,1-1.54,1,5.06,5.06,0,0,1-2,.4,5.79,5.79,0,0,1-2.85-.68,4.73,4.73,0,0,1-1.9-1.9,5.63,5.63,0,0,1-.67-2.76,6.08,6.08,0,0,1,.69-2.95,5,5,0,0,1,1.82-2,4.69,4.69,0,0,1,4.83,0,5,5,0,0,1,1.8,1.82,5.2,5.2,0,0,1,.7,2.6A0.86,0.86,0,0,1,217.42,79.12Zm-6.54-3.3a3.1,3.1,0,0,0-1.08,2h5.9V77.61a2.44,2.44,0,0,0-1-1.74,3,3,0,0,0-1.93-.68A3.09,3.09,0,0,0,210.88,75.82Z"/><path class="cls-3" d="M219.14,82a0.81,0.81,0,0,1,.42-0.68,0.78,0.78,0,0,1,.46-0.14,0.92,0.92,0,0,1,.66.3,4.21,4.21,0,0,0,1.29,1,3.69,3.69,0,0,0,1.65.34,2.82,2.82,0,0,0,1.34-.35,1.14,1.14,0,0,0,.58-1.07,1.15,1.15,0,0,0-.59-1,6.72,6.72,0,0,0-1.73-.66,12.78,12.78,0,0,1-1.86-.63,3.34,3.34,0,0,1-1.25-1,2.81,2.81,0,0,1,0-3.23,3.39,3.39,0,0,1,1.36-1.06,4.48,4.48,0,0,1,1.85-.38,5.35,5.35,0,0,1,1.91.36,3.59,3.59,0,0,1,1.55,1.1,0.88,0.88,0,0,1,.24.58,0.86,0.86,0,0,1-.32.62,0.72,0.72,0,0,1-.5.18,0.75,0.75,0,0,1-.58-0.24,2.82,2.82,0,0,0-1-.74,3.41,3.41,0,0,0-1.35-.26,2.51,2.51,0,0,0-1.29.31,1.12,1.12,0,0,0-.53,1.05,1.16,1.16,0,0,0,.61,1,7.72,7.72,0,0,0,1.81.66,11.2,11.2,0,0,1,1.76.6,3.07,3.07,0,0,1,1.18,1,2.65,2.65,0,0,1,.48,1.65,2.57,2.57,0,0,1-.54,1.63A3.48,3.48,0,0,1,225.31,84a4.68,4.68,0,0,1-1.85.37,6.07,6.07,0,0,1-2.33-.44,4.34,4.34,0,0,1-1.81-1.4A1,1,0,0,1,219.14,82Z"/><path class="cls-3" d="M236.78,83.87a0.93,0.93,0,0,1-.68.28,0.89,0.89,0,0,1-.67-0.28,0.94,0.94,0,0,1-.27-0.68V70.31a1,1,0,0,1,1-1,0.89,0.89,0,0,1,.67.28,0.94,0.94,0,0,1,.27.68V83.19A0.93,0.93,0,0,1,236.78,83.87Z"/><path class="cls-3" d="M249.25,73.8a1,1,0,0,1,.27.71v8.68a0.94,0.94,0,0,1-.27.68,0.92,0.92,0,0,1-.69.28,0.9,0.9,0,0,1-.68-0.27,1,1,0,0,1-.26-0.69V82.67a4.28,4.28,0,0,1-1.42,1.19,4,4,0,0,1-1.94.49,4.53,4.53,0,0,1-2.47-.7,4.8,4.8,0,0,1-1.74-2,6.58,6.58,0,0,1,0-5.62,4.83,4.83,0,0,1,1.73-2,4.57,4.57,0,0,1,4.39-.26A4.08,4.08,0,0,1,247.62,75V74.51a1,1,0,0,1,.26-0.7,0.88,0.88,0,0,1,.68-0.28A0.93,0.93,0,0,1,249.25,73.8Zm-3.1,8.31a3.24,3.24,0,0,0,1.14-1.32,4.27,4.27,0,0,0,.41-1.9,4.23,4.23,0,0,0-.41-1.88,3.32,3.32,0,0,0-1.14-1.33,2.93,2.93,0,0,0-1.67-.49,3,3,0,0,0-1.67.48A3.24,3.24,0,0,0,241.67,77a4.61,4.61,0,0,0,0,3.8,3.24,3.24,0,0,0,1.14,1.32A3.14,3.14,0,0,0,246.15,82.11Z"/><path class="cls-3" d="M265.6,74.18a4.78,4.78,0,0,1,1.73,1.93,6.1,6.1,0,0,1,.63,2.8,6,6,0,0,1-.63,2.79,4.86,4.86,0,0,1-1.73,1.93,4.42,4.42,0,0,1-2.42.7,4.21,4.21,0,0,1-1.94-.46,4.68,4.68,0,0,1-1.46-1.12v4.44a0.94,0.94,0,0,1-.27.68,1,1,0,0,1-1.36,0,0.93,0.93,0,0,1-.27-0.69V74.61a1,1,0,0,1,.26-0.7,0.88,0.88,0,0,1,.68-0.28,0.92,0.92,0,0,1,.69.28,1,1,0,0,1,.27.7v0.58a3.92,3.92,0,0,1,1.4-1.2,4,4,0,0,1,2-.5A4.54,4.54,0,0,1,265.6,74.18Zm-1,7.91a3.23,3.23,0,0,0,1.15-1.31,4.47,4.47,0,0,0,0-3.74,3.23,3.23,0,0,0-1.15-1.31,3,3,0,0,0-1.66-.48,3.07,3.07,0,0,0-1.68.47A3.15,3.15,0,0,0,260.09,77a4.52,4.52,0,0,0,0,3.76,3.15,3.15,0,0,0,1.15,1.31,3.06,3.06,0,0,0,1.68.47A3,3,0,0,0,264.58,82.09Z"/><path class="cls-3" d="M279.35,73.8a1,1,0,0,1,.27.71v8.68a0.94,0.94,0,0,1-.27.68,0.92,0.92,0,0,1-.69.28,0.9,0.9,0,0,1-.68-0.27,1,1,0,0,1-.26-0.69V82.67a4.28,4.28,0,0,1-1.42,1.19,4,4,0,0,1-1.94.49,4.53,4.53,0,0,1-2.47-.7,4.8,4.8,0,0,1-1.74-2,6.58,6.58,0,0,1,0-5.62,4.83,4.83,0,0,1,1.73-2,4.57,4.57,0,0,1,4.39-.26A4.08,4.08,0,0,1,277.72,75V74.51a1,1,0,0,1,.26-0.7,0.88,0.88,0,0,1,.68-0.28A0.93,0.93,0,0,1,279.35,73.8Zm-3.1,8.31a3.24,3.24,0,0,0,1.14-1.32,4.27,4.27,0,0,0,.41-1.9,4.23,4.23,0,0,0-.41-1.88,3.32,3.32,0,0,0-1.14-1.33,2.93,2.93,0,0,0-1.67-.49,3,3,0,0,0-1.67.48A3.24,3.24,0,0,0,271.77,77a4.61,4.61,0,0,0,0,3.8,3.24,3.24,0,0,0,1.14,1.32A3.14,3.14,0,0,0,276.25,82.11Z"/><path class="cls-3" d="M289.72,82.64a0.89,0.89,0,0,1,0,1.26,0.89,0.89,0,0,1-.64.25h-6.46a0.81,0.81,0,0,1-.63-0.28,0.87,0.87,0,0,1-.25-0.58,1.68,1.68,0,0,1,.08-0.43,1.6,1.6,0,0,1,.22-0.39l5.24-7h-4.34a0.89,0.89,0,0,1-.9-0.9,0.82,0.82,0,0,1,.25-0.62,0.9,0.9,0,0,1,.65-0.24h6.14a0.81,0.81,0,0,1,.63.28,0.91,0.91,0,0,1,.23.68,1.62,1.62,0,0,1-.07.35,1,1,0,0,1-.21.33l-5.28,7h4.7A0.89,0.89,0,0,1,289.72,82.64Z"/><path class="cls-3" d="M305.34,74.18a4.78,4.78,0,0,1,1.73,1.93,6.1,6.1,0,0,1,.63,2.8,6,6,0,0,1-.63,2.79,4.86,4.86,0,0,1-1.73,1.93,4.42,4.42,0,0,1-2.42.7,4.21,4.21,0,0,1-1.94-.46,4.68,4.68,0,0,1-1.46-1.12v4.44a0.94,0.94,0,0,1-.27.68,1,1,0,0,1-1.36,0,0.93,0.93,0,0,1-.27-0.69V74.61a1,1,0,0,1,.26-0.7,0.88,0.88,0,0,1,.68-0.28,0.92,0.92,0,0,1,.69.28,1,1,0,0,1,.27.7v0.58a3.92,3.92,0,0,1,1.4-1.2,4,4,0,0,1,2-.5A4.54,4.54,0,0,1,305.34,74.18Zm-1,7.91a3.23,3.23,0,0,0,1.15-1.31,4.47,4.47,0,0,0,0-3.74,3.23,3.23,0,0,0-1.15-1.31,3,3,0,0,0-1.66-.48,3.07,3.07,0,0,0-1.68.47A3.15,3.15,0,0,0,299.83,77a4.52,4.52,0,0,0,0,3.76A3.15,3.15,0,0,0,301,82.1a3.06,3.06,0,0,0,1.68.47A3,3,0,0,0,304.32,82.09Z"/><path class="cls-3" d="M319.09,73.8a1,1,0,0,1,.27.71v8.68a0.94,0.94,0,0,1-.27.68,0.92,0.92,0,0,1-.69.28,0.9,0.9,0,0,1-.68-0.27,1,1,0,0,1-.26-0.69V82.67A4.28,4.28,0,0,1,316,83.86a4,4,0,0,1-1.94.49,4.53,4.53,0,0,1-2.47-.7,4.8,4.8,0,0,1-1.74-2,6.58,6.58,0,0,1,0-5.62,4.83,4.83,0,0,1,1.73-2,4.57,4.57,0,0,1,4.39-.26A4.08,4.08,0,0,1,317.46,75V74.51a1,1,0,0,1,.26-0.7,0.88,0.88,0,0,1,.68-0.28A0.93,0.93,0,0,1,319.09,73.8ZM316,82.11a3.24,3.24,0,0,0,1.14-1.32,4.27,4.27,0,0,0,.41-1.9,4.23,4.23,0,0,0-.41-1.88A3.32,3.32,0,0,0,316,75.68a2.93,2.93,0,0,0-1.67-.49,3,3,0,0,0-1.67.48A3.24,3.24,0,0,0,311.51,77a4.61,4.61,0,0,0,0,3.8,3.24,3.24,0,0,0,1.14,1.32A3.14,3.14,0,0,0,316,82.11Z"/><path class="cls-3" d="M328.3,73.7a0.8,0.8,0,0,1,.38.67,1,1,0,0,1-.25.73,0.83,0.83,0,0,1-.61.25,1.9,1.9,0,0,1-.54-0.12,2.25,2.25,0,0,0-.66-0.14,2,2,0,0,0-1.21.43,3.14,3.14,0,0,0-1,1.18,3.73,3.73,0,0,0-.37,1.67v4.82a0.94,0.94,0,0,1-.27.68,0.92,0.92,0,0,1-.69.28,0.9,0.9,0,0,1-.68-0.27,1,1,0,0,1-.26-0.69V74.63a0.94,0.94,0,0,1,.27-0.68,0.89,0.89,0,0,1,.67-0.28,0.92,0.92,0,0,1,.69.28,0.94,0.94,0,0,1,.27.68v1a3.79,3.79,0,0,1,1.32-1.59,3.54,3.54,0,0,1,2-.63A1.52,1.52,0,0,1,328.3,73.7Z"/><path class="cls-3" d="M339.39,73.8a1,1,0,0,1,.27.71v8.68a0.94,0.94,0,0,1-.27.68,0.92,0.92,0,0,1-.69.28,0.9,0.9,0,0,1-.68-0.27,1,1,0,0,1-.26-0.69V82.67a4.28,4.28,0,0,1-1.42,1.19,4,4,0,0,1-1.94.49,4.53,4.53,0,0,1-2.47-.7,4.8,4.8,0,0,1-1.74-2,6.58,6.58,0,0,1,0-5.62,4.83,4.83,0,0,1,1.73-2,4.57,4.57,0,0,1,4.39-.26A4.08,4.08,0,0,1,337.76,75V74.51a1,1,0,0,1,.26-0.7,0.88,0.88,0,0,1,.68-0.28A0.93,0.93,0,0,1,339.39,73.8Zm-3.1,8.31a3.24,3.24,0,0,0,1.14-1.32,4.27,4.27,0,0,0,.41-1.9,4.23,4.23,0,0,0-.41-1.88,3.32,3.32,0,0,0-1.14-1.33,2.93,2.93,0,0,0-1.67-.49,3,3,0,0,0-1.67.48A3.24,3.24,0,0,0,331.81,77a4.61,4.61,0,0,0,0,3.8,3.24,3.24,0,0,0,1.14,1.32A3.14,3.14,0,0,0,336.29,82.11Z"/><path class="cls-3" d="M349.8,83.87a0.93,0.93,0,0,1-.68.28,0.89,0.89,0,0,1-.67-0.28,0.94,0.94,0,0,1-.27-0.68V70.31a1,1,0,0,1,1-1,0.89,0.89,0,0,1,.67.28,0.94,0.94,0,0,1,.27.68V83.19A0.93,0.93,0,0,1,349.8,83.87Z"/><path class="cls-3" d="M362.27,73.8a1,1,0,0,1,.27.71v8.68a0.94,0.94,0,0,1-.27.68,0.92,0.92,0,0,1-.69.28,0.9,0.9,0,0,1-.68-0.27,1,1,0,0,1-.26-0.69V82.67a4.28,4.28,0,0,1-1.42,1.19,4,4,0,0,1-1.94.49,4.53,4.53,0,0,1-2.47-.7,4.8,4.8,0,0,1-1.74-2,6.58,6.58,0,0,1,0-5.62,4.83,4.83,0,0,1,1.73-2,4.57,4.57,0,0,1,4.39-.26A4.08,4.08,0,0,1,360.64,75V74.51a1,1,0,0,1,.26-0.7,0.88,0.88,0,0,1,.68-0.28A0.93,0.93,0,0,1,362.27,73.8Zm-3.1,8.31a3.24,3.24,0,0,0,1.14-1.32,4.27,4.27,0,0,0,.41-1.9,4.23,4.23,0,0,0-.41-1.88,3.32,3.32,0,0,0-1.14-1.33,2.93,2.93,0,0,0-1.67-.49,3,3,0,0,0-1.67.48A3.24,3.24,0,0,0,354.69,77a4.61,4.61,0,0,0,0,3.8,3.24,3.24,0,0,0,1.14,1.32A3.14,3.14,0,0,0,359.17,82.11Z"/><path class="cls-3" d="M364.58,82a0.81,0.81,0,0,1,.42-0.68,0.78,0.78,0,0,1,.46-0.14,0.92,0.92,0,0,1,.66.3,4.21,4.21,0,0,0,1.29,1,3.69,3.69,0,0,0,1.65.34,2.82,2.82,0,0,0,1.34-.35,1.14,1.14,0,0,0,.58-1.07,1.15,1.15,0,0,0-.59-1,6.71,6.71,0,0,0-1.73-.66,12.78,12.78,0,0,1-1.86-.63,3.34,3.34,0,0,1-1.25-1,2.81,2.81,0,0,1,0-3.23,3.39,3.39,0,0,1,1.36-1.06,4.48,4.48,0,0,1,1.85-.38,5.35,5.35,0,0,1,1.91.36,3.59,3.59,0,0,1,1.55,1.1,0.88,0.88,0,0,1,.24.58,0.86,0.86,0,0,1-.32.62,0.72,0.72,0,0,1-.5.18,0.75,0.75,0,0,1-.58-0.24,2.82,2.82,0,0,0-1-.74,3.41,3.41,0,0,0-1.35-.26,2.51,2.51,0,0,0-1.29.31,1.12,1.12,0,0,0-.53,1.05,1.16,1.16,0,0,0,.61,1,7.72,7.72,0,0,0,1.81.66,11.17,11.17,0,0,1,1.76.6,3.07,3.07,0,0,1,1.18,1,2.65,2.65,0,0,1,.48,1.65,2.56,2.56,0,0,1-.54,1.63A3.48,3.48,0,0,1,370.75,84a4.67,4.67,0,0,1-1.85.37,6.07,6.07,0,0,1-2.33-.44,4.34,4.34,0,0,1-1.81-1.4A1,1,0,0,1,364.58,82Z"/><path class="cls-3" d="M388.15,74.18a4.78,4.78,0,0,1,1.73,1.93,6.1,6.1,0,0,1,.63,2.8,6,6,0,0,1-.63,2.79,4.86,4.86,0,0,1-1.73,1.93,4.42,4.42,0,0,1-2.42.7,4.2,4.2,0,0,1-1.94-.46,4.66,4.66,0,0,1-1.46-1.12v4.44a0.94,0.94,0,0,1-.27.68,0.92,0.92,0,0,1-.69.28,0.91,0.91,0,0,1-.67-0.27,0.93,0.93,0,0,1-.27-0.69V74.61a1,1,0,0,1,.26-0.7,0.89,0.89,0,0,1,.68-0.28,0.92,0.92,0,0,1,.69.28,1,1,0,0,1,.27.7v0.58a3.92,3.92,0,0,1,1.4-1.2,4,4,0,0,1,2-.5A4.53,4.53,0,0,1,388.15,74.18Zm-1,7.91a3.23,3.23,0,0,0,1.15-1.31,4.47,4.47,0,0,0,0-3.74,3.23,3.23,0,0,0-1.15-1.31,3,3,0,0,0-1.66-.48,3.07,3.07,0,0,0-1.68.47A3.14,3.14,0,0,0,382.65,77a4.51,4.51,0,0,0,0,3.76,3.14,3.14,0,0,0,1.15,1.31,3.06,3.06,0,0,0,1.68.47A3,3,0,0,0,387.14,82.09Z"/><path class="cls-3" d="M401.62,79.12a1,1,0,0,1-.66.25h-7A3.47,3.47,0,0,0,395,81.71a3.4,3.4,0,0,0,2.37.88,3.72,3.72,0,0,0,1.56-.28,3.92,3.92,0,0,0,1.06-.72,1.13,1.13,0,0,1,.58-0.18,0.76,0.76,0,0,1,.57.24,0.78,0.78,0,0,1,.23.56,1,1,0,0,1-.4.76,4.7,4.7,0,0,1-1.54,1,5.06,5.06,0,0,1-2,.4,5.79,5.79,0,0,1-2.85-.68,4.74,4.74,0,0,1-1.9-1.9,5.63,5.63,0,0,1-.67-2.76,6.08,6.08,0,0,1,.69-2.95,5,5,0,0,1,1.82-2,4.69,4.69,0,0,1,4.83,0,5,5,0,0,1,1.8,1.82,5.2,5.2,0,0,1,.7,2.6A0.86,0.86,0,0,1,401.62,79.12Zm-6.54-3.3a3.1,3.1,0,0,0-1.08,2h5.9V77.61a2.44,2.44,0,0,0-.95-1.74,3,3,0,0,0-1.93-.68A3.09,3.09,0,0,0,395.08,75.82Z"/><path class="cls-3" d="M410.23,73.7a0.8,0.8,0,0,1,.38.67,1,1,0,0,1-.25.73,0.83,0.83,0,0,1-.61.25,1.91,1.91,0,0,1-.54-0.12,2.25,2.25,0,0,0-.66-0.14,2,2,0,0,0-1.21.43,3.14,3.14,0,0,0-1,1.18,3.72,3.72,0,0,0-.37,1.67v4.82a0.94,0.94,0,0,1-.27.68,0.92,0.92,0,0,1-.69.28,0.9,0.9,0,0,1-.68-0.27,1,1,0,0,1-.26-0.69V74.63a0.94,0.94,0,0,1,.27-0.68,0.89,0.89,0,0,1,.67-0.28,0.92,0.92,0,0,1,.69.28,0.94,0.94,0,0,1,.27.68v1a3.78,3.78,0,0,1,1.32-1.59,3.55,3.55,0,0,1,2-.63A1.52,1.52,0,0,1,410.23,73.7Z"/><path class="cls-3" d="M411.59,82a0.81,0.81,0,0,1,.42-0.68,0.78,0.78,0,0,1,.46-0.14,0.92,0.92,0,0,1,.66.3,4.23,4.23,0,0,0,1.29,1,3.7,3.7,0,0,0,1.65.34,2.82,2.82,0,0,0,1.34-.35,1.14,1.14,0,0,0,.58-1.07,1.15,1.15,0,0,0-.59-1,6.71,6.71,0,0,0-1.73-.66,12.77,12.77,0,0,1-1.86-.63,3.33,3.33,0,0,1-1.25-1,2.81,2.81,0,0,1,0-3.23,3.39,3.39,0,0,1,1.36-1.06,4.48,4.48,0,0,1,1.85-.38,5.35,5.35,0,0,1,1.91.36,3.59,3.59,0,0,1,1.55,1.1,0.88,0.88,0,0,1,.24.58,0.86,0.86,0,0,1-.32.62,0.72,0.72,0,0,1-.5.18,0.75,0.75,0,0,1-.58-0.24,2.82,2.82,0,0,0-1-.74,3.41,3.41,0,0,0-1.35-.26,2.51,2.51,0,0,0-1.29.31,1.12,1.12,0,0,0-.53,1.05,1.16,1.16,0,0,0,.61,1,7.7,7.7,0,0,0,1.81.66,11.17,11.17,0,0,1,1.76.6,3.07,3.07,0,0,1,1.18,1,2.65,2.65,0,0,1,.48,1.65,2.56,2.56,0,0,1-.54,1.63A3.48,3.48,0,0,1,417.76,84a4.67,4.67,0,0,1-1.85.37,6.06,6.06,0,0,1-2.33-.44,4.34,4.34,0,0,1-1.81-1.4A1,1,0,0,1,411.59,82Z"/><path class="cls-3" d="M431.13,81.71a5.09,5.09,0,0,1-1.91,1.94,5.44,5.44,0,0,1-5.34,0A5.08,5.08,0,0,1,422,81.71a5.59,5.59,0,0,1-.7-2.8,5.7,5.7,0,0,1,.7-2.82,5,5,0,0,1,1.91-2,5.44,5.44,0,0,1,5.34,0,5.05,5.05,0,0,1,1.91,2,5.71,5.71,0,0,1,.7,2.82A5.6,5.6,0,0,1,431.13,81.71ZM429.48,77a3.34,3.34,0,0,0-1.22-1.32,3.35,3.35,0,0,0-3.42,0A3.34,3.34,0,0,0,423.62,77a4.06,4.06,0,0,0-.45,1.93,4,4,0,0,0,.45,1.9,3.36,3.36,0,0,0,1.22,1.31,3.35,3.35,0,0,0,3.42,0,3.35,3.35,0,0,0,1.22-1.31,4,4,0,0,0,.45-1.9A4.06,4.06,0,0,0,429.48,77Z"/><path class="cls-3" d="M443,77.75v5.44a1,1,0,0,1-.27.68,0.92,0.92,0,0,1-.69.28,0.89,0.89,0,0,1-.67-0.28,0.94,0.94,0,0,1-.27-0.68V77.77a3,3,0,0,0-.54-1.88,2.09,2.09,0,0,0-1.76-.7,3,3,0,0,0-1.45.35,2.67,2.67,0,0,0-1,.94,2.38,2.38,0,0,0-.37,1.29v5.42a0.94,0.94,0,0,1-.27.68,0.92,0.92,0,0,1-.69.28,0.9,0.9,0,0,1-.68-0.27,1,1,0,0,1-.26-0.69V74.63a0.94,0.94,0,0,1,.27-0.68,0.89,0.89,0,0,1,.67-0.28,0.92,0.92,0,0,1,.69.28,0.94,0.94,0,0,1,.27.68v0.7A4.31,4.31,0,0,1,437.38,74a3.84,3.84,0,0,1,2-.55Q443,73.43,443,77.75Z"/><path class="cls-3" d="M455,73.8a1,1,0,0,1,.27.71v8.68a1,1,0,0,1-.27.68,0.92,0.92,0,0,1-.69.28,0.9,0.9,0,0,1-.68-0.27,1,1,0,0,1-.26-0.69V82.67A4.29,4.29,0,0,1,452,83.86a4,4,0,0,1-1.94.49,4.53,4.53,0,0,1-2.47-.7,4.8,4.8,0,0,1-1.74-2,6.58,6.58,0,0,1,0-5.62,4.83,4.83,0,0,1,1.73-2,4.42,4.42,0,0,1,2.42-.7,4.47,4.47,0,0,1,2,.44A4.09,4.09,0,0,1,453.37,75V74.51a1,1,0,0,1,.26-0.7,0.88,0.88,0,0,1,.68-0.28A0.94,0.94,0,0,1,455,73.8Zm-3.1,8.31A3.25,3.25,0,0,0,453,80.79a4.29,4.29,0,0,0,.41-1.9A4.24,4.24,0,0,0,453,77a3.33,3.33,0,0,0-1.14-1.33,2.93,2.93,0,0,0-1.67-.49,3,3,0,0,0-1.67.48A3.24,3.24,0,0,0,447.42,77a4.61,4.61,0,0,0,0,3.8,3.24,3.24,0,0,0,1.14,1.32A3.14,3.14,0,0,0,451.9,82.11Z"/><path class="cls-3" d="M457.31,82a0.81,0.81,0,0,1,.42-0.68,0.78,0.78,0,0,1,.46-0.14,0.92,0.92,0,0,1,.66.3,4.23,4.23,0,0,0,1.29,1,3.7,3.7,0,0,0,1.65.34,2.82,2.82,0,0,0,1.34-.35,1.14,1.14,0,0,0,.58-1.07,1.15,1.15,0,0,0-.59-1,6.71,6.71,0,0,0-1.73-.66,12.77,12.77,0,0,1-1.86-.63,3.33,3.33,0,0,1-1.25-1,2.81,2.81,0,0,1,0-3.23,3.39,3.39,0,0,1,1.36-1.06,4.48,4.48,0,0,1,1.85-.38,5.35,5.35,0,0,1,1.91.36,3.59,3.59,0,0,1,1.55,1.1,0.88,0.88,0,0,1,.24.58,0.86,0.86,0,0,1-.32.62,0.72,0.72,0,0,1-.5.18,0.75,0.75,0,0,1-.58-0.24,2.82,2.82,0,0,0-1-.74,3.41,3.41,0,0,0-1.35-.26,2.51,2.51,0,0,0-1.29.31,1.12,1.12,0,0,0-.53,1.05,1.16,1.16,0,0,0,.61,1,7.7,7.7,0,0,0,1.81.66,11.17,11.17,0,0,1,1.76.6,3.07,3.07,0,0,1,1.18,1,2.65,2.65,0,0,1,.48,1.65,2.56,2.56,0,0,1-.54,1.63A3.48,3.48,0,0,1,463.48,84a4.67,4.67,0,0,1-1.85.37,6.06,6.06,0,0,1-2.33-.44,4.34,4.34,0,0,1-1.81-1.4A1,1,0,0,1,457.31,82Z"/><path class="cls-3" d="M157.27,93.62a0.93,0.93,0,0,1,.27.69v12.88a1,1,0,0,1-.27.68,0.92,0.92,0,0,1-.69.28,0.9,0.9,0,0,1-.68-0.27,1,1,0,0,1-.26-0.69v-0.56a4,4,0,0,1-1.41,1.22,4,4,0,0,1-1.95.5,4.48,4.48,0,0,1-2.46-.7,4.9,4.9,0,0,1-1.74-2,6.07,6.07,0,0,1-.64-2.81,6.15,6.15,0,0,1,.63-2.81,4.83,4.83,0,0,1,1.73-2,4.55,4.55,0,0,1,4.38-.26A4.18,4.18,0,0,1,155.64,99v-4.7a1,1,0,0,1,.26-0.69,0.9,0.9,0,0,1,.68-0.27A0.93,0.93,0,0,1,157.27,93.62Zm-3.1,12.49a3.24,3.24,0,0,0,1.14-1.32,4.58,4.58,0,0,0,0-3.79,3.22,3.22,0,0,0-1.14-1.33,3.14,3.14,0,0,0-3.34,0,3.22,3.22,0,0,0-1.14,1.33,4.59,4.59,0,0,0,0,3.79,3.24,3.24,0,0,0,1.14,1.32A3.14,3.14,0,0,0,154.17,106.11Z"/><path class="cls-3" d="M169.26,103.12a1,1,0,0,1-.66.25h-7a3.48,3.48,0,0,0,1.11,2.34,3.4,3.4,0,0,0,2.37.88,3.71,3.71,0,0,0,1.56-.28,3.93,3.93,0,0,0,1.06-.72,1.13,1.13,0,0,1,.58-0.18,0.76,0.76,0,0,1,.57.24,0.79,0.79,0,0,1,.23.56,1,1,0,0,1-.4.76,4.72,4.72,0,0,1-1.54,1,5.06,5.06,0,0,1-2,.4,5.8,5.8,0,0,1-2.85-.68,4.73,4.73,0,0,1-1.9-1.9,5.63,5.63,0,0,1-.67-2.76,6.08,6.08,0,0,1,.69-3,5,5,0,0,1,1.82-2,4.69,4.69,0,0,1,4.83,0,5,5,0,0,1,1.8,1.82,5.2,5.2,0,0,1,.7,2.6A0.86,0.86,0,0,1,169.26,103.12Zm-6.54-3.3a3.1,3.1,0,0,0-1.08,2h5.9v-0.16a2.44,2.44,0,0,0-1-1.74,3,3,0,0,0-1.93-.68A3.09,3.09,0,0,0,162.72,99.82Z"/><path class="cls-3" d="M180.14,99.53v6a0.84,0.84,0,0,0,.9,1,1.44,1.44,0,0,0,.38-0.07,1.44,1.44,0,0,1,.38-0.07,0.55,0.55,0,0,1,.44.22,0.84,0.84,0,0,1-.3,1.28,2,2,0,0,1-1.08.3,4.88,4.88,0,0,1-1.21-.14,1.79,1.79,0,0,1-1-.71,2.86,2.86,0,0,1-.43-1.73v-6h-1.16a0.85,0.85,0,0,1-.88-0.88,0.82,0.82,0,0,1,.25-0.62,0.88,0.88,0,0,1,.63-0.24h1.16V96.11a0.94,0.94,0,0,1,.27-0.68,0.92,0.92,0,0,1,.69-0.28,0.9,0.9,0,0,1,.67.28,0.94,0.94,0,0,1,.27.68v1.68h1.66a0.85,0.85,0,0,1,.88.88,0.82,0.82,0,0,1-.25.62,0.88,0.88,0,0,1-.63.24h-1.66Z"/><path class="cls-3" d="M193.39,97.95a1,1,0,0,1,.27.68v5.32a4.39,4.39,0,1,1-8.76,0V98.63a1,1,0,0,1,.27-0.68,0.89,0.89,0,0,1,.67-0.28,0.92,0.92,0,0,1,.69.28,1,1,0,0,1,.27.68v5.32q0,2.62,2.46,2.62a2.47,2.47,0,0,0,1.86-.66,2.71,2.71,0,0,0,.64-2V98.63a1,1,0,0,1,.27-0.68,0.89,0.89,0,0,1,.67-0.28A0.92,0.92,0,0,1,193.39,97.95Z"/><path class="cls-3" d="M209.23,97.93a1.49,1.49,0,0,1,1.05,1.28,0.94,0.94,0,0,1-.22.61,0.69,0.69,0,0,1-.56.27,0.87,0.87,0,0,1-.41-0.08,4.48,4.48,0,0,1-.41-0.26,2.16,2.16,0,0,0-.38-0.28,2.64,2.64,0,0,0-.68-0.2,4.57,4.57,0,0,0-.8-0.08,3.5,3.5,0,0,0-1.84.48,3.26,3.26,0,0,0-1.24,1.33,4,4,0,0,0-.44,1.89,4.11,4.11,0,0,0,.43,1.9,3.26,3.26,0,0,0,1.21,1.32,3.32,3.32,0,0,0,1.78.48,3.76,3.76,0,0,0,1.68-.32,3.86,3.86,0,0,0,.38-0.26,2.41,2.41,0,0,1,.35-0.24,0.79,0.79,0,0,1,.37-0.08,0.82,0.82,0,0,1,.63.25,0.92,0.92,0,0,1,.23.65,1.11,1.11,0,0,1-.53.83,4.26,4.26,0,0,1-1.42.67,6.8,6.8,0,0,1-1.91.26,5,5,0,0,1-2.68-.71,4.75,4.75,0,0,1-1.79-2,6.11,6.11,0,0,1-.63-2.79,5.88,5.88,0,0,1,.66-2.79,4.92,4.92,0,0,1,1.84-2,5.14,5.14,0,0,1,2.7-.71A6.11,6.11,0,0,1,209.23,97.93Z"/><path class="cls-3" d="M221.54,105.71a5.09,5.09,0,0,1-1.91,1.94,5.44,5.44,0,0,1-5.34,0,5.09,5.09,0,0,1-1.91-1.94,5.6,5.6,0,0,1-.7-2.8,5.71,5.71,0,0,1,.7-2.82,5,5,0,0,1,1.91-2,5.44,5.44,0,0,1,5.34,0,5.05,5.05,0,0,1,1.91,2,5.71,5.71,0,0,1,.7,2.82A5.6,5.6,0,0,1,221.54,105.71ZM219.89,101a3.35,3.35,0,0,0-1.22-1.32,3.35,3.35,0,0,0-3.42,0A3.34,3.34,0,0,0,214,101a4.07,4.07,0,0,0-.45,1.93,4,4,0,0,0,.45,1.9,3.35,3.35,0,0,0,1.22,1.31,3.35,3.35,0,0,0,3.42,0,3.36,3.36,0,0,0,1.22-1.31,4,4,0,0,0,.45-1.9A4.07,4.07,0,0,0,219.89,101Z"/><path class="cls-3" d="M240,101.85v5.34a1,1,0,0,1-.26.69,0.9,0.9,0,0,1-.68.27,0.92,0.92,0,0,1-.69-0.28,1,1,0,0,1-.27-0.68v-5.32q0-2.62-2.2-2.62a2.85,2.85,0,0,0-1.41.35,2.53,2.53,0,0,0-1,1,2.57,2.57,0,0,0-.35,1.32v5.32a1,1,0,0,1-.27.68,0.92,0.92,0,0,1-.69.28,0.9,0.9,0,0,1-.68-0.27,1,1,0,0,1-.26-0.69v-5.34a3.22,3.22,0,0,0-.5-1.89,1.89,1.89,0,0,0-1.66-.71,2.68,2.68,0,0,0-2,.75,2.48,2.48,0,0,0-.77,1.85v5.34a1,1,0,0,1-.27.68,0.92,0.92,0,0,1-.69.28,0.9,0.9,0,0,1-.68-0.27,1,1,0,0,1-.26-0.69V98.63a1,1,0,0,1,.27-0.68,0.89,0.89,0,0,1,.67-0.28,0.92,0.92,0,0,1,.69.28,1,1,0,0,1,.27.68v0.7A4.37,4.37,0,0,1,227.73,98a3.57,3.57,0,0,1,1.89-.53,3.07,3.07,0,0,1,3.22,2.2,4.25,4.25,0,0,1,1.46-1.52,3.83,3.83,0,0,1,2.16-.68Q240,97.49,240,101.85Z"/><path class="cls-3" d="M251.29,97.95a1,1,0,0,1,.27.68v5.32a4.39,4.39,0,1,1-8.76,0V98.63a1,1,0,0,1,.27-0.68,0.89,0.89,0,0,1,.67-0.28,0.92,0.92,0,0,1,.69.28,1,1,0,0,1,.27.68v5.32q0,2.62,2.46,2.62a2.47,2.47,0,0,0,1.86-.66,2.71,2.71,0,0,0,.64-2V98.63a1,1,0,0,1,.27-0.68,0.89,0.89,0,0,1,.67-0.28A0.92,0.92,0,0,1,251.29,97.95Z"/><path class="cls-3" d="M263.34,101.75v5.44a1,1,0,0,1-.27.68,0.92,0.92,0,0,1-.69.28,0.89,0.89,0,0,1-.67-0.28,1,1,0,0,1-.27-0.68v-5.42a3,3,0,0,0-.54-1.88,2.08,2.08,0,0,0-1.76-.7,3,3,0,0,0-1.45.35,2.67,2.67,0,0,0-1,.94,2.38,2.38,0,0,0-.37,1.29v5.42a1,1,0,0,1-.27.68,0.92,0.92,0,0,1-.69.28,0.9,0.9,0,0,1-.68-0.27,1,1,0,0,1-.26-0.69V98.63a1,1,0,0,1,.27-0.68,0.89,0.89,0,0,1,.67-0.28,0.92,0.92,0,0,1,.69.28,1,1,0,0,1,.27.68v0.7A4.31,4.31,0,0,1,257.75,98a3.85,3.85,0,0,1,2-.55Q263.34,97.43,263.34,101.75Z"/><path class="cls-3" d="M266.19,96a0.83,0.83,0,0,1-.25-0.67V95a0.79,0.79,0,0,1,.27-0.68,1.39,1.39,0,0,1,.83-0.2,1.25,1.25,0,0,1,.81.21,0.83,0.83,0,0,1,.25.67v0.32a0.81,0.81,0,0,1-.26.68,1.35,1.35,0,0,1-.82.2A1.29,1.29,0,0,1,266.19,96Zm1.52,11.83a0.92,0.92,0,0,1-.69.28,0.89,0.89,0,0,1-.67-0.28,1,1,0,0,1-.27-0.68V98.53a0.94,0.94,0,0,1,.27-0.68,0.89,0.89,0,0,1,.67-0.28,0.92,0.92,0,0,1,.69.28,0.94,0.94,0,0,1,.27.68v8.66A1,1,0,0,1,267.71,107.87Z"/><path class="cls-3" d="M279.91,93.62a0.93,0.93,0,0,1,.27.69v12.88a1,1,0,0,1-.27.68,0.92,0.92,0,0,1-.69.28,0.9,0.9,0,0,1-.68-0.27,1,1,0,0,1-.26-0.69v-0.56a4,4,0,0,1-1.41,1.22,4,4,0,0,1-1.95.5,4.48,4.48,0,0,1-2.46-.7,4.9,4.9,0,0,1-1.74-2,6.07,6.07,0,0,1-.64-2.81,6.15,6.15,0,0,1,.63-2.81,4.83,4.83,0,0,1,1.73-2,4.55,4.55,0,0,1,4.38-.26A4.18,4.18,0,0,1,278.28,99v-4.7a1,1,0,0,1,.26-0.69,0.9,0.9,0,0,1,.68-0.27A0.93,0.93,0,0,1,279.91,93.62Zm-3.1,12.49a3.24,3.24,0,0,0,1.14-1.32,4.58,4.58,0,0,0,0-3.79,3.22,3.22,0,0,0-1.14-1.33,3.14,3.14,0,0,0-3.34,0,3.22,3.22,0,0,0-1.14,1.33,4.59,4.59,0,0,0,0,3.79,3.24,3.24,0,0,0,1.14,1.32A3.14,3.14,0,0,0,276.81,106.11Z"/><path class="cls-3" d="M292.19,97.8a1,1,0,0,1,.27.71v8.68a1,1,0,0,1-.27.68,0.92,0.92,0,0,1-.69.28,0.9,0.9,0,0,1-.68-0.27,1,1,0,0,1-.26-0.69v-0.52a4.27,4.27,0,0,1-1.42,1.19,4,4,0,0,1-1.94.49,4.53,4.53,0,0,1-2.47-.7,4.8,4.8,0,0,1-1.74-2,6.58,6.58,0,0,1,0-5.62,4.83,4.83,0,0,1,1.73-2,4.57,4.57,0,0,1,4.39-.26A4.07,4.07,0,0,1,290.56,99V98.51a1,1,0,0,1,.26-0.7,0.88,0.88,0,0,1,.68-0.28A0.93,0.93,0,0,1,292.19,97.8Zm-3.1,8.31a3.24,3.24,0,0,0,1.14-1.32,4.28,4.28,0,0,0,.41-1.9,4.23,4.23,0,0,0-.41-1.88,3.32,3.32,0,0,0-1.14-1.33,2.93,2.93,0,0,0-1.67-.49,3,3,0,0,0-1.67.48,3.24,3.24,0,0,0-1.14,1.32,4.61,4.61,0,0,0,0,3.8,3.24,3.24,0,0,0,1.14,1.32A3.14,3.14,0,0,0,289.09,106.11Z"/><path class="cls-3" d="M304.47,93.62a0.93,0.93,0,0,1,.27.69v12.88a1,1,0,0,1-.27.68,0.92,0.92,0,0,1-.69.28,0.9,0.9,0,0,1-.68-0.27,1,1,0,0,1-.26-0.69v-0.56a4,4,0,0,1-1.41,1.22,4,4,0,0,1-1.95.5,4.48,4.48,0,0,1-2.46-.7,4.9,4.9,0,0,1-1.74-2,6.07,6.07,0,0,1-.64-2.81,6.15,6.15,0,0,1,.63-2.81,4.83,4.83,0,0,1,1.73-2,4.55,4.55,0,0,1,4.38-.26A4.18,4.18,0,0,1,302.84,99v-4.7a1,1,0,0,1,.26-0.69,0.9,0.9,0,0,1,.68-0.27A0.93,0.93,0,0,1,304.47,93.62Zm-3.1,12.49a3.24,3.24,0,0,0,1.14-1.32,4.58,4.58,0,0,0,0-3.79,3.22,3.22,0,0,0-1.14-1.33,3.14,3.14,0,0,0-3.34,0,3.22,3.22,0,0,0-1.14,1.33,4.59,4.59,0,0,0,0,3.79,3.24,3.24,0,0,0,1.14,1.32A3.14,3.14,0,0,0,301.37,106.11Z"/><path class="cls-3" d="M307.51,107.87a1.06,1.06,0,0,1-.25-0.76v-0.38a1,1,0,0,1,.25-0.74,1,1,0,0,1,.73-0.26h0.2a1,1,0,0,1,.75.26,1,1,0,0,1,.25.74v0.38a0.89,0.89,0,0,1-1,1h-0.2A1,1,0,0,1,307.51,107.87Z"/><g class="cls-4"><path class="cls-5" d="M-12.63,140.83C-28.48,133.18-28.19,99.55-12,66S30.38,11.22,46.23,18.87s15.56,41.28-.65,74.87S3.22,148.48-12.63,140.83Z"/><path class="cls-6" d="M43.13,87.11c2.36,1.81,3.52,5,4.23,8.13a59.76,59.76,0,0,1,1.22,15c-0.15,4.91-.72,9.85-1.3,14.78q-1.15,9.74-2.36,19.49A116.81,116.81,0,0,1,43,156.71c-1,4.36-1.81,10.46-5,13.57s-9.07,2.64-11.8-.15c-2.38-2.43-2.27-6.71-2-10.54l2.95-44.52c0.21-3.16,1-15.88,1.73-19C30.44,89.16,35.94,81.6,43.13,87.11Z"/><path class="cls-6" d="M98.54,172c0,0.3.35,0.6,1.68,0.56s1.44-.84,1.71-0.82c7.17,0.5,12-.29,19.06-2.11,1.59-.41,3.32-1,4.17-2.37,0.44-.71,2.05-2,2.18-2.82,0.3-2-1.09-3.78-2.56-5.1a5.58,5.58,0,0,0-4.09-1c-1.46.09-3.8,1-5.25,1-1.24,0-2.9.12-3.15-.17s2.78-.88,2.58-1.91-1.8-.79-2.83-0.62c-3.24.54-7,3.37-10.21,3.91-3,.5-2-0.34-2.43,1.92A54.2,54.2,0,0,0,98.54,172Z"/><path class="cls-6" d="M24.21,168.44c1.26,2.09,4.07,3.31,7,4.16,4.41,1.3,9.27,1.49,14.24,1.79,4.76,0.29,9.65.27,14.53,0.21,6.42-.08,15-0.63,17-0.7,4-.13,11.35-0.51,15.44-0.94,4.41-.46,11.26-1,15.07-3.15a4.13,4.13,0,0,0,1.38-5.72c-1.77-2.21-10.78-3.73-14.51-3.91-11.15-.55-23.12-2-39.86-2.49-3.09-.1-15.52-0.51-18.69-0.19C28.79,158.2,20.38,162.07,24.21,168.44Z"/><path class="cls-7" d="M40,138.4S39,152.08,32.42,158l10.46-.64,2.65-17.74Z"/><path class="cls-6" d="M-35.09,189c-4.76-3.19-10.64-5.07-12.31-6.75-0.11-.11-5.1-3.52-5.79-4.1-0.25-.19-5.21-3-5.19-3.09l-4.29-3c-1.26-1.38-3,.05-2.92-1.11s8.63-16.11,9.18-17.17c4.11-7.86,13.17-14.28,19.9-28.15,5.67-11.69,9.79-38.42,13.49-45.1,3.45-6.23,6.14-13,7.5-14.44C-14.87,65.4-10,62-6.9,61.93A28.17,28.17,0,0,1,0,62.39c2.44,0.67,8.23.33,13,2.73,3.59,1.67,4.66,1.72,7.7,3.36C23.82,69.8,24.52,71,28,72.72c4.73,2.18,7.65,6.33,9.64,7.81a30.86,30.86,0,0,1,4.8,5.21c1.81,2.39,2.14,8.35,2,9.28-0.28,1.93-3.91,8.28-6.65,14.85-2.94,7.05-22.34,26.41-28,38.12-6.67,13.9-6.31,23.79-9.91,31.89-0.49,1.09-6.63,16.93-7.41,17.67a6.87,6.87,0,0,1-4.63,1.19l-1.93-2.28s-5.23-2-5.53-2.09c-0.87-.17-6.53-1.9-6.68-1.92-2.31-.24-3.48-1.76-8.83-3.45"/><path class="cls-8" d="M13.72,58.43a21.84,21.84,0,0,1-3.48,6.86,6.21,6.21,0,0,0,.6,1c3,4.41,11.35,7,16,7.85,1.93,0.35,3.22.39,3.23,0.13,0.06-2.24,1.44-4.68,2.54-6.28l0-.05h0a20.83,20.83,0,0,1,1.32-1.73L14.09,56.67c0,0.25-.08.49-0.12,0.74S13.81,58.09,13.72,58.43Z"/><path class="cls-6" d="M61.31,38.28c5.17-10.72,0-23.92-11.51-29.48S24.74,7.41,19.56,18.13a20.11,20.11,0,0,0-1.72,5.53c-0.18.43-.38,0.87-0.61,1.31a61.07,61.07,0,0,0-4.71,12c-2.11,8.13-1.6,16.89,3.63,24.62A17.94,17.94,0,0,0,23.06,68c3.91,1.85,8.44,1.57,12.34.39C48.29,64.45,55,52.5,60,40.56A20.12,20.12,0,0,0,61.31,38.28Z"/><path class="cls-9" d="M-25.24,68c15.46-12.08,36.62-4.07,36.62-4.07l-11,5-5.72,5.88L-30.85,101.1-49.44,89.92A311.15,311.15,0,0,1-25.24,68Z"/><path class="cls-10" d="M-24.86,67.53c15.18-11.73,36.24-3.6,36.24-3.6S-12,60.06-22.22,68.35c-2.46,2-13,11.89-23.5,22.27l-2.87-1.74A297.55,297.55,0,0,1-24.86,67.53Z"/><path class="cls-9" d="M49.86,105.09c-0.16-19.61-19.6-31.2-19.6-31.2l2.89,11.72-1,8.14-4.67,36.32,20.32,7.6A311.15,311.15,0,0,0,49.86,105.09Z"/><polygon class="cls-11" points="32.99 93.15 24.09 133.62 28.88 135.53 32.99 93.15"/><path class="cls-10" d="M50,104.5C49.73,85.31,30.27,73.89,30.27,73.89s17.57,15.88,17.44,29c0,3.17-1.22,17.58-2.81,32.26L48,136.36A297.55,297.55,0,0,0,50,104.5Z"/><path class="cls-12" d="M49.83,134.14L24.5,129.28l-0.76,4.82,25,6.36a1.93,1.93,0,0,0,2.37-1.52l0.43-2.33A2.13,2.13,0,0,0,49.83,134.14Z"/><path class="cls-9" d="M25.28,128.19S7.25,150.11,0,183.48c0,0-41-12.38-59.31-27.8,0,0,22.91-26,30.53-55.47L-0.37,66.34l11.74-2.42s-8.78,10.41,5.2,15.81,13.69-5.85,13.69-5.85l4.87,14.8Z"/><path class="cls-12" d="M-16.82,116.15l1,0.4,2.6,1.06A28.08,28.08,0,0,1-5.58,122c0.65,0.56,1.29,1.15,1.94,1.72a20.35,20.35,0,0,0,2,1.55,19.24,19.24,0,0,0,3.8,2,7.32,7.32,0,0,0,1.63.44,3.75,3.75,0,0,0,1.29,0,2.53,2.53,0,0,0,.74-0.29l0.22-.15-0.26.07a2.6,2.6,0,0,1-.73,0,5.32,5.32,0,0,1-2.42-1,31.2,31.2,0,0,1-3.21-2.45c-0.57-.5-1.14-1-1.73-1.62s-1.22-1.22-1.94-1.83a15.19,15.19,0,0,0-4.62-2.68A23.55,23.55,0,0,0-13,116.63c-1.18-.21-2.14-0.31-2.81-0.38Z"/><path class="cls-6" d="M-68.56,122.07c1,2.21,3.71,3.71,6.5,4.85,4.25,1.75,9.07,2.43,14,3.24,4.71,0.78,9.57,1.26,14.43,1.7,6.39,0.58,15,.91,17,1.05,4,0.29,11.35.66,15.45,0.65,4.43,0,11.3.12,15.32-1.58a4.13,4.13,0,0,0,2-5.55c-1.53-2.38-10.34-4.82-14-5.39-11-1.69-22.79-4.34-39.39-6.57-3.06-.41-15.38-2.1-18.58-2.11C-63,112.37-71.72,115.35-68.56,122.07Z"/><path class="cls-6" d="M5,133.25c0,0.3.29,0.63,1.61,0.73s1.52-.69,1.79-0.64c7.08,1.24,12,.94,19.17-0.14,1.62-.25,3.4-0.64,4.39-1.93,0.51-.66,2.25-1.79,2.45-2.58,0.5-1.93-.69-3.86-2-5.33a5.58,5.58,0,0,0-4-1.45c-1.46-.06-3.88.59-5.32,0.44-1.24-.13-2.9-0.17-3.11-0.49s2.86-.58,2.76-1.63-1.71-1-2.75-.9c-3.28.21-7.28,2.64-10.56,2.84-3,.19-2-0.54-2.62,1.66A54.11,54.11,0,0,0,5,133.25Z"/><path class="cls-10" d="M32.07,57.34c-1.06-.08-2.92-2.63-4.16-3.12S27,53.5,26.16,52.93s-3-1.36-4-2.78a9.83,9.83,0,0,0,.7,5.12,5.65,5.65,0,0,0,4.22,3A8.8,8.8,0,0,0,32.07,57.34Z"/><path class="cls-10" d="M33.3,57.39l-0.17,0-0.48-.05c-0.41,0-1-.08-1.69-0.19a10,10,0,0,1-1.1-.25,10.27,10.27,0,0,1-1.18-.42,8.85,8.85,0,0,1-1.18-.61A11.27,11.27,0,0,1,26.37,55a14.53,14.53,0,0,1-3.53-3.67c-0.18-.3-0.34-0.58-0.46-0.84a6.28,6.28,0,0,1-.29-0.68C22,49.66,22,49.5,21.92,49.4l-0.05-.16,0,0.17a4.45,4.45,0,0,0,.09.47,6.48,6.48,0,0,0,.22.72,6.22,6.22,0,0,0,.39.9,10,10,0,0,0,1.4,2,14.88,14.88,0,0,0,2.07,1.91,12,12,0,0,0,1.19.81,8.13,8.13,0,0,0,1.26.6,7.69,7.69,0,0,0,1.25.37,10.7,10.7,0,0,0,1.15.18,12.39,12.39,0,0,0,1.73,0l0.48,0H33.3Z"/><path class="cls-13" d="M31.43,57.29a14.65,14.65,0,0,1-8.91-6.46A7.48,7.48,0,0,0,26,56.31,7.22,7.22,0,0,0,31.43,57.29Z"/><path class="cls-14" d="M33.4,49.39c-3.85-1-4.25-3.79-3.41-5.59C27.51,46.67,29,49.6,33.4,49.39Z"/><path class="cls-15" d="M28.49,32.74a1.64,1.64,0,0,1,0,.94c-0.34,1.07-1,3-2.41,3-1.66,0-1.43-2.06-1-3.1a3.19,3.19,0,0,1,1.42-1.66A1.35,1.35,0,0,1,28.49,32.74Z"/><path class="cls-15" d="M29.46,33.85S28.8,31,24,31.22C24,31.22,29,30,29.46,33.85Z"/><path class="cls-15" d="M44.51,40.47a1.64,1.64,0,0,0-.72.61c-0.63.94-1.69,2.65-.84,3.75,1,1.31,2.5-.16,3-1.16a3.19,3.19,0,0,0,.41-2.15A1.35,1.35,0,0,0,44.51,40.47Z"/><path class="cls-15" d="M43,40.41S45.66,39.17,48.5,43C48.5,43,46.34,38.35,43,40.41Z"/><path class="cls-7" d="M65.47,58.08a5.38,5.38,0,0,0,1-.84,15.89,15.89,0,0,1-1.19,4.1c-0.18-.41-0.37-0.82-0.59-1.23a3.63,3.63,0,0,0-.69-0.9A10.69,10.69,0,0,1,65.47,58.08Z"/><path class="cls-7" d="M49.32,10C60,9.37,69.83,23.81,66.85,36.39a32.54,32.54,0,0,0-.76,10.09l-0.54.17c-2-2.55-6.66-3.18-8.55.65a86.14,86.14,0,0,1-4.66,7.9,9.88,9.88,0,0,0-.83-4.76c-2.82-5.58-.94-7,2.13-15.34s-6.79-7-9.29-16.76C43.38,14.3,38.62,10.71,49.32,10Z"/><path class="cls-7" d="M50.75,48.77A37.94,37.94,0,0,1,31.95,69S43,68.64,52.33,55.2A5.57,5.57,0,0,0,50.75,48.77Z"/><path class="cls-16" d="M35.52,27.09c-1.63-1.28-4.22-3.56-8.72-2.33-2,.55-2,1.28.1,0.88,3.66-.68,5.15.85,7.75,2.81C35.66,29.2,36.63,28,35.52,27.09Z"/><path class="cls-16" d="M45.51,31.9c2,0.48,5.41,1.09,7.25,5.38,0.83,1.93.27,2.4-.75,0.47-1.75-3.29-3.87-3.5-7-4.32C43.76,33.11,44.13,31.58,45.51,31.9Z"/><path class="cls-16" d="M46.82,16.06c2.49,9.77,12.36,8.4,9.29,16.76s-5,9.77-2.13,15.34S52.38,65.72,45.82,72.6,37.2,84.36,37.69,91.41s-1.29,11-5.54,15.79-6.64,7.21,7.32,2S56.13,92.85,57,81.6s2.42-9.53,9-19.36,0.32-15.55,3.3-28.12S62.5,7.09,51.8,7.76,45.85,12,46.82,16.06Z"/><path class="cls-17" d="M53.8,10.69c-1.18,5,4.06,9.63,7.19,12.59s4.49,7.1,1.38,11.82-2.62,13.08-1.31,16.82S56.33,66.22,51.15,72c-4.8,5.37-5.81,16.3-5.91,20.67-0.1,4.67-1.6,9.92-5.16,12.14,4.95-1.38,7.16-6.29,7.51-12.55S47,81.57,53.41,73.35c8.12-10.41,11.76-13.86,9.94-22.72-1.43-7-2.06-8.12,1-14.13,3.13-6.17,3.54-9.49-.95-13.93S53.87,16.11,53.8,10.69Z"/><path class="cls-16" d="M47.39,16.34c-9.2,4.13-14.27-4.45-18.9,3.16s-4.56,10-10.68,11.22S5.05,42.88,3.75,52.3-0.1,66.37-5.92,70.36s-7.83,7.88-8.92,14.16S-16.35,94.21-21,80s2.45-23.21,10.7-30.9,6-7.82,9.55-19.1,12-9.92,20-20.08S44.66-1.52,50.79,7.28,51.15,14.59,47.39,16.34Z"/><path class="cls-17" d="M47.26,7.53c-3.2,4.05-10.06,2.81-14.33,2.21s-8.35.91-10.12,6.27S14.2,26.2,10.46,27.51,2.21,40.1.89,47.76c-1.22,7.1-9.15,14.69-12.51,17.48-3.59,3-6.77,7.42-6.29,11.59-2-4.73.47-9.52,5.15-13.68S-4,57-1.56,46.83C1.53,34,2,29,10,24.91c6.37-3.23,7.63-3.44,10.44-9.57C23.36,9,25.7,6.66,32,7.41S43,10.85,47.26,7.53Z"/></g></svg>