<svg id="Capa_1" data-name="Capa 1" xmlns="http://www.w3.org/2000/svg" xmlns:xlink="http://www.w3.org/1999/xlink" viewBox="0 0 505.2 201.03"><defs><style>.cls-1{fill:none;}.cls-2{fill:#92d2e2;}.cls-3{fill:#1d1d1b;opacity:0.8;}.cls-4{clip-path:url(#clip-path);}.cls-5{fill:#5b4d8d;}.cls-14,.cls-16,.cls-17,.cls-5,.cls-7{fill-rule:evenodd;}.cls-6{fill:#fdd481;}.cls-7,.cls-8{fill:#f7bb64;}.cls-9{fill:#ec62a0;}.cls-10{fill:#e3589b;}.cls-11{fill:#ec92bd;}.cls-12{fill:#e34d95;}.cls-13{fill:#fff;}.cls-14{fill:#f7b447;}.cls-15{fill:#29233f;}.cls-16{fill:#6e5aa3;}.cls-17{fill:#7867ac;}</style><clipPath id="clip-path"><rect class="cls-1" x="0.2" y="19.83" width="136" height="188.16" transform="translate(136.41 227.82) rotate(-180)"/></clipPath></defs><title>Dialogo</title><path class="cls-2" d="M79.94,73.44L104,88.53v20.92c0,15.54,11,25.92,26.51,25.92H475.44c15.54,0,29.77-10.38,29.77-25.92V30.36C505.2,14.82,491,0,475.44,0H130.51C115,0,104,14.82,104,30.36V56.22Z"/><path class="cls-3" d="M162.26,53.09a1.07,1.07,0,0,1,.25.75v0.38a1.06,1.06,0,0,1-.25.75,1,1,0,0,1-.73.27h-0.22a0.94,0.94,0,0,1-.73-0.27,1.06,1.06,0,0,1-.25-0.75V53.84a1.06,1.06,0,0,1,.25-0.75,0.94,0.94,0,0,1,.73-0.27h0.22A1,1,0,0,1,162.26,53.09ZM162,57.66l0.44,8a1.14,1.14,0,0,1-.25.86,1.05,1.05,0,0,1-1.55,0,1.16,1.16,0,0,1-.24-0.86l0.42-8a0.75,0.75,0,0,1,.17-0.48,0.53,0.53,0,0,1,.41-0.16A0.57,0.57,0,0,1,162,57.66Z"/><path class="cls-3" d="M178.25,49.67a0.89,0.89,0,0,1,.28.67v12.1a0.94,0.94,0,0,1-1,1,1,1,0,0,1-.72-0.27,0.92,0.92,0,0,1-.28-0.69V53.18l-3.88,5.88a1.19,1.19,0,0,1-.35.3,0.72,0.72,0,0,1-.43.1,0.68,0.68,0,0,1-.41-0.1,1.19,1.19,0,0,1-.35-0.3L167.23,53v9.44a1,1,0,0,1-.25.69,0.87,0.87,0,0,1-.67.27,0.84,0.84,0,0,1-.65-0.27,1,1,0,0,1-.25-0.69V50.34a1,1,0,0,1,1-1,1,1,0,0,1,.47.12,1,1,0,0,1,.37.32L172,57l4.8-7.18a1,1,0,0,1,.8-0.44A1,1,0,0,1,178.25,49.67Z"/><path class="cls-3" d="M190.1,53.2a0.94,0.94,0,0,1,.27.68V59.2a4.39,4.39,0,1,1-8.76,0V53.88a0.94,0.94,0,0,1,.27-0.68,0.89,0.89,0,0,1,.67-0.28,0.92,0.92,0,0,1,.69.28,0.94,0.94,0,0,1,.27.68V59.2q0,2.62,2.46,2.62a2.47,2.47,0,0,0,1.86-.66,2.71,2.71,0,0,0,.64-2V53.88a0.94,0.94,0,0,1,.27-0.68,0.89,0.89,0,0,1,.67-0.28A0.92,0.92,0,0,1,190.1,53.2Z"/><path class="cls-3" d="M201.7,53.1a0.94,0.94,0,0,1,.27.68v8.64a4.78,4.78,0,0,1-1.38,3.74A5.24,5.24,0,0,1,197,67.4a7.59,7.59,0,0,1-1.46-.14,4.36,4.36,0,0,1-1.18-.38,1,1,0,0,1-.74-0.92,1,1,0,0,1,.38-0.78,0.77,0.77,0,0,1,.5-0.18,0.75,0.75,0,0,1,.3.06,11.76,11.76,0,0,0,1.1.44,3.55,3.55,0,0,0,1.12.16q3.1,0,3.1-3.18v-0.4a3.64,3.64,0,0,1-1.39,1.12,4.53,4.53,0,0,1-2,.4,3.26,3.26,0,0,1-2.59-1.06,4.06,4.06,0,0,1-.93-2.78v-6a1,1,0,0,1,.26-0.69,0.9,0.9,0,0,1,.68-0.27,0.92,0.92,0,0,1,.69.28,0.94,0.94,0,0,1,.27.68v5.48a2.8,2.8,0,0,0,.58,2,2.28,2.28,0,0,0,1.76.63,2.58,2.58,0,0,0,1.88-.72,2.48,2.48,0,0,0,.74-1.86V53.78a1,1,0,0,1,.26-0.69,0.9,0.9,0,0,1,.68-0.27A0.92,0.92,0,0,1,201.7,53.1Z"/><path class="cls-3" d="M218.05,53.38a4.84,4.84,0,0,1,1.73,1.94,6.1,6.1,0,0,1,.63,2.8,6.22,6.22,0,0,1-.63,2.82,4.82,4.82,0,0,1-1.73,2,4.42,4.42,0,0,1-2.42.7,4.22,4.22,0,0,1-1.94-.46A4.54,4.54,0,0,1,212.23,62v0.58a0.94,0.94,0,0,1-.27.68,1,1,0,0,1-1.36,0,0.94,0.94,0,0,1-.27-0.69v-13a1,1,0,0,1,.26-0.69,0.9,0.9,0,0,1,.68-0.27,0.92,0.92,0,0,1,.69.28,1,1,0,0,1,.27.68v4.88a4,4,0,0,1,1.4-1.24,3.92,3.92,0,0,1,2-.52A4.49,4.49,0,0,1,218.05,53.38Zm-1,8A3.28,3.28,0,0,0,218.18,60a4.29,4.29,0,0,0,.41-1.89,4.23,4.23,0,0,0-.41-1.88A3.22,3.22,0,0,0,217,54.92a3,3,0,0,0-1.66-.48,3,3,0,0,0-1.68.48,3.23,3.23,0,0,0-1.15,1.31,4.21,4.21,0,0,0-.41,1.89,4.28,4.28,0,0,0,.41,1.9,3.3,3.3,0,0,0,1.15,1.33,3,3,0,0,0,1.68.49A3,3,0,0,0,217,61.35Z"/><path class="cls-3" d="M231.1,53.2a0.94,0.94,0,0,1,.27.68V59.2a4.39,4.39,0,1,1-8.76,0V53.88a0.94,0.94,0,0,1,.27-0.68,0.89,0.89,0,0,1,.67-0.28,0.92,0.92,0,0,1,.69.28,0.94,0.94,0,0,1,.27.68V59.2q0,2.62,2.46,2.62a2.47,2.47,0,0,0,1.86-.66,2.71,2.71,0,0,0,.64-2V53.88a0.94,0.94,0,0,1,.27-0.68,0.9,0.9,0,0,1,.67-0.28A0.92,0.92,0,0,1,231.1,53.2Z"/><path class="cls-3" d="M243.11,58.37a1,1,0,0,1-.66.25h-7A3.47,3.47,0,0,0,236.52,61a3.4,3.4,0,0,0,2.37.88,3.72,3.72,0,0,0,1.56-.28,3.91,3.91,0,0,0,1.06-.72,1.12,1.12,0,0,1,.58-0.18,0.76,0.76,0,0,1,.57.24,0.78,0.78,0,0,1,.23.56,1,1,0,0,1-.4.76,4.7,4.7,0,0,1-1.54,1,5.05,5.05,0,0,1-2,.4,5.78,5.78,0,0,1-2.85-.68,4.73,4.73,0,0,1-1.9-1.9,5.63,5.63,0,0,1-.67-2.76,6.07,6.07,0,0,1,.69-2.95,5,5,0,0,1,1.82-2,4.69,4.69,0,0,1,4.83,0,5,5,0,0,1,1.8,1.82,5.2,5.2,0,0,1,.7,2.6A0.86,0.86,0,0,1,243.11,58.37Zm-6.54-3.3a3.1,3.1,0,0,0-1.08,2h5.9V56.86a2.45,2.45,0,0,0-1-1.74,3,3,0,0,0-1.93-.68A3.09,3.09,0,0,0,236.57,55.07Z"/><path class="cls-3" d="M254.55,57v5.44a0.94,0.94,0,0,1-.27.68,0.92,0.92,0,0,1-.69.28,0.89,0.89,0,0,1-.67-0.28,0.94,0.94,0,0,1-.27-0.68V57a3,3,0,0,0-.54-1.88,2.09,2.09,0,0,0-1.76-.7,3,3,0,0,0-1.45.35,2.67,2.67,0,0,0-1,.94,2.39,2.39,0,0,0-.37,1.29v5.42a0.94,0.94,0,0,1-.27.68,0.92,0.92,0,0,1-.69.28,0.9,0.9,0,0,1-.68-0.27,1,1,0,0,1-.26-0.69V53.88a0.94,0.94,0,0,1,.27-0.68,0.89,0.89,0,0,1,.67-0.28,0.92,0.92,0,0,1,.69.28,0.94,0.94,0,0,1,.27.68v0.7A4.29,4.29,0,0,1,249,53.23a3.84,3.84,0,0,1,2-.55Q254.55,52.68,254.55,57Z"/><path class="cls-3" d="M265.77,54.78v6a0.84,0.84,0,0,0,.9,1,1.45,1.45,0,0,0,.38-0.07,1.48,1.48,0,0,1,.38-0.07,0.55,0.55,0,0,1,.44.22,0.84,0.84,0,0,1-.3,1.28,2,2,0,0,1-1.08.3,4.88,4.88,0,0,1-1.21-.14,1.79,1.79,0,0,1-1-.71,2.86,2.86,0,0,1-.43-1.73v-6h-1.16a0.85,0.85,0,0,1-.88-0.88,0.82,0.82,0,0,1,.25-0.62,0.87,0.87,0,0,1,.63-0.24h1.16V51.36a1,1,0,0,1,.27-0.68,0.92,0.92,0,0,1,.69-0.28,0.89,0.89,0,0,1,.67.28,1,1,0,0,1,.27.68V53h1.66a0.85,0.85,0,0,1,.88.88,0.82,0.82,0,0,1-.25.62,0.87,0.87,0,0,1-.63.24h-1.66Z"/><path class="cls-3" d="M276.65,52.95a0.8,0.8,0,0,1,.38.67,1,1,0,0,1-.25.73,0.83,0.83,0,0,1-.61.25,1.9,1.9,0,0,1-.54-0.12,2.24,2.24,0,0,0-.66-0.14,2,2,0,0,0-1.21.43,3.14,3.14,0,0,0-1,1.18,3.72,3.72,0,0,0-.37,1.67v4.82a0.94,0.94,0,0,1-.27.68,0.92,0.92,0,0,1-.69.28,0.9,0.9,0,0,1-.68-0.27,1,1,0,0,1-.26-0.69V53.88a0.94,0.94,0,0,1,.27-0.68,0.89,0.89,0,0,1,.67-0.28,0.92,0.92,0,0,1,.69.28,0.94,0.94,0,0,1,.27.68v1a3.78,3.78,0,0,1,1.32-1.59,3.54,3.54,0,0,1,2-.63A1.52,1.52,0,0,1,276.65,52.95Z"/><path class="cls-3" d="M287.74,53a1,1,0,0,1,.27.71v8.68a0.94,0.94,0,0,1-.27.68,0.92,0.92,0,0,1-.69.28,0.9,0.9,0,0,1-.68-0.27,1,1,0,0,1-.26-0.69V61.92a4.28,4.28,0,0,1-1.42,1.19,4,4,0,0,1-1.94.49,4.54,4.54,0,0,1-2.47-.7,4.81,4.81,0,0,1-1.74-2,6.57,6.57,0,0,1,0-5.62,4.83,4.83,0,0,1,1.73-2,4.57,4.57,0,0,1,4.39-.26,4.08,4.08,0,0,1,1.45,1.12V53.76a1,1,0,0,1,.26-0.7,0.88,0.88,0,0,1,.68-0.28A0.93,0.93,0,0,1,287.74,53Zm-3.1,8.31A3.25,3.25,0,0,0,285.78,60a4.56,4.56,0,0,0,0-3.78,3.33,3.33,0,0,0-1.14-1.33,2.93,2.93,0,0,0-1.67-.49,3,3,0,0,0-1.67.48,3.24,3.24,0,0,0-1.14,1.32,4.62,4.62,0,0,0,0,3.8,3.24,3.24,0,0,0,1.14,1.32A3.15,3.15,0,0,0,284.64,61.36Z"/><path class="cls-3" d="M298.55,53.38a4.85,4.85,0,0,1,1.73,1.94,6.1,6.1,0,0,1,.63,2.8,6.22,6.22,0,0,1-.63,2.82,4.82,4.82,0,0,1-1.73,2,4.42,4.42,0,0,1-2.42.7,4.21,4.21,0,0,1-1.94-.46A4.53,4.53,0,0,1,292.73,62v0.58a0.94,0.94,0,0,1-.27.68,1,1,0,0,1-1.36,0,0.93,0.93,0,0,1-.27-0.69v-13a1,1,0,0,1,.26-0.69,0.9,0.9,0,0,1,.68-0.27,0.91,0.91,0,0,1,.69.28,0.94,0.94,0,0,1,.27.68v4.88a4,4,0,0,1,1.4-1.24,3.92,3.92,0,0,1,2-.52A4.49,4.49,0,0,1,298.55,53.38Zm-1,8A3.28,3.28,0,0,0,298.68,60a4.3,4.3,0,0,0,.41-1.89,4.24,4.24,0,0,0-.41-1.88,3.22,3.22,0,0,0-1.15-1.32,3,3,0,0,0-1.66-.48,3,3,0,0,0-1.68.48A3.24,3.24,0,0,0,293,56.23a4.21,4.21,0,0,0-.41,1.89A4.28,4.28,0,0,0,293,60a3.3,3.3,0,0,0,1.15,1.33,3,3,0,0,0,1.68.49A2.94,2.94,0,0,0,297.53,61.35Z"/><path class="cls-3" d="M312.3,53a1,1,0,0,1,.27.71v8.68a0.94,0.94,0,0,1-.27.68,0.92,0.92,0,0,1-.69.28,0.9,0.9,0,0,1-.68-0.27,1,1,0,0,1-.26-0.69V61.92a4.28,4.28,0,0,1-1.42,1.19,4,4,0,0,1-1.94.49,4.54,4.54,0,0,1-2.47-.7,4.81,4.81,0,0,1-1.74-2,6.57,6.57,0,0,1,0-5.62,4.83,4.83,0,0,1,1.73-2,4.57,4.57,0,0,1,4.39-.26,4.08,4.08,0,0,1,1.45,1.12V53.76a1,1,0,0,1,.26-0.7,0.88,0.88,0,0,1,.68-0.28A0.93,0.93,0,0,1,312.3,53Zm-3.1,8.31A3.25,3.25,0,0,0,310.34,60a4.56,4.56,0,0,0,0-3.78,3.33,3.33,0,0,0-1.14-1.33,2.93,2.93,0,0,0-1.67-.49,3,3,0,0,0-1.67.48,3.24,3.24,0,0,0-1.14,1.32,4.62,4.62,0,0,0,0,3.8,3.24,3.24,0,0,0,1.14,1.32A3.15,3.15,0,0,0,309.2,61.36Z"/><path class="cls-3" d="M313.82,67.08a0.86,0.86,0,0,1-.25-0.62V66.28a0.88,0.88,0,0,1,.82-0.86,1.81,1.81,0,0,0,1.28-2V53.88a0.94,0.94,0,0,1,.27-0.68,0.92,0.92,0,0,1,.69-0.28,0.89,0.89,0,0,1,.67.28,0.94,0.94,0,0,1,.27.68v10a3.7,3.7,0,0,1-.43,1.82,3.06,3.06,0,0,1-1.15,1.2,3,3,0,0,1-1.54.42A0.84,0.84,0,0,1,313.82,67.08Zm2-15.79a0.83,0.83,0,0,1-.25-0.67V50.3a0.79,0.79,0,0,1,.27-0.68,1.4,1.4,0,0,1,.83-0.2,1.26,1.26,0,0,1,.81.21,0.83,0.83,0,0,1,.25.67v0.32a0.81,0.81,0,0,1-.26.68,1.35,1.35,0,0,1-.82.2A1.3,1.3,0,0,1,315.78,51.29Z"/><path class="cls-3" d="M329.83,61a5.09,5.09,0,0,1-1.91,1.94,5.44,5.44,0,0,1-5.34,0A5.08,5.08,0,0,1,320.67,61a5.58,5.58,0,0,1-.7-2.8,5.7,5.7,0,0,1,.7-2.82,5,5,0,0,1,1.91-2,5.44,5.44,0,0,1,5.34,0,5.05,5.05,0,0,1,1.91,2,5.71,5.71,0,0,1,.7,2.82A5.59,5.59,0,0,1,329.83,61Zm-1.65-4.73A3.34,3.34,0,0,0,327,54.91a3.35,3.35,0,0,0-3.42,0,3.34,3.34,0,0,0-1.22,1.32,4.06,4.06,0,0,0-.45,1.93,4,4,0,0,0,.45,1.9,3.36,3.36,0,0,0,1.22,1.31,3.35,3.35,0,0,0,3.42,0,3.36,3.36,0,0,0,1.22-1.31,4,4,0,0,0,.45-1.9A4.06,4.06,0,0,0,328.18,56.23Z"/><path class="cls-3" d="M332.8,63.13a1.06,1.06,0,0,1-.25-0.75V62a1.06,1.06,0,0,1,.25-0.75,1,1,0,0,1,.73-0.27h0.22a1,1,0,0,1,.73.27,1.06,1.06,0,0,1,.25.75v0.38a1.06,1.06,0,0,1-.25.75,0.94,0.94,0,0,1-.73.27h-0.22A0.94,0.94,0,0,1,332.8,63.13Zm0.25-4.57-0.44-8a1.14,1.14,0,0,1,.25-0.86,1.05,1.05,0,0,1,1.55,0,1.16,1.16,0,0,1,.24.86l-0.42,8a0.75,0.75,0,0,1-.17.48,0.53,0.53,0,0,1-.41.16A0.57,0.57,0,0,1,333.05,58.56Z"/><path class="cls-3" d="M354.12,56.32a0.94,0.94,0,0,1,.27.68v4.5a0.94,0.94,0,0,1-.48.84,7.89,7.89,0,0,1-4.28,1.26,7.24,7.24,0,0,1-3.67-1,7.2,7.2,0,0,1,0-12.48,7.24,7.24,0,0,1,3.67-1,8.37,8.37,0,0,1,1.93.22,5.94,5.94,0,0,1,1.67.66,1,1,0,0,1,.36.34,0.84,0.84,0,0,1,.12.44,1,1,0,0,1-.27.69,0.86,0.86,0,0,1-.65.29,0.94,0.94,0,0,1-.52-0.14,6.24,6.24,0,0,0-2.64-.6,5.11,5.11,0,0,0-4.51,2.62,5.35,5.35,0,0,0-.69,2.68,5.29,5.29,0,0,0,.69,2.67A5.19,5.19,0,0,0,347,61a5,5,0,0,0,2.63.71,6.81,6.81,0,0,0,1.43-.16,5.7,5.7,0,0,0,1.29-.42V57.94h-2.42a0.94,0.94,0,0,1-.68-0.27A0.89,0.89,0,0,1,349,57a0.91,0.91,0,0,1,.28-0.69,0.94,0.94,0,0,1,.68-0.27h3.52A0.89,0.89,0,0,1,354.12,56.32Z"/><path class="cls-3" d="M362.95,52.95a0.8,0.8,0,0,1,.38.67,1,1,0,0,1-.25.73,0.83,0.83,0,0,1-.61.25,1.91,1.91,0,0,1-.54-0.12,2.23,2.23,0,0,0-.66-0.14,2,2,0,0,0-1.21.43,3.14,3.14,0,0,0-1,1.18,3.72,3.72,0,0,0-.37,1.67v4.82a0.94,0.94,0,0,1-.27.68,0.92,0.92,0,0,1-.69.28,0.9,0.9,0,0,1-.68-0.27,1,1,0,0,1-.26-0.69V53.88a0.94,0.94,0,0,1,.27-0.68,0.89,0.89,0,0,1,.67-0.28,0.92,0.92,0,0,1,.69.28,0.94,0.94,0,0,1,.27.68v1A3.78,3.78,0,0,1,360,53.31a3.54,3.54,0,0,1,2-.63A1.52,1.52,0,0,1,362.95,52.95Z"/><path class="cls-3" d="M374,53a1,1,0,0,1,.27.71v8.68a0.94,0.94,0,0,1-.27.68,0.92,0.92,0,0,1-.69.28,0.9,0.9,0,0,1-.68-0.27,1,1,0,0,1-.26-0.69V61.92A4.29,4.29,0,0,1,371,63.11a4,4,0,0,1-1.94.49,4.53,4.53,0,0,1-2.47-.7,4.81,4.81,0,0,1-1.74-2,6.58,6.58,0,0,1,0-5.62,4.83,4.83,0,0,1,1.73-2,4.42,4.42,0,0,1,2.42-.7,4.48,4.48,0,0,1,2,.44,4.09,4.09,0,0,1,1.45,1.12V53.76a1,1,0,0,1,.26-0.7,0.88,0.88,0,0,1,.68-0.28A0.94,0.94,0,0,1,374,53Zm-3.1,8.31A3.25,3.25,0,0,0,372.08,60a4.57,4.57,0,0,0,0-3.78,3.33,3.33,0,0,0-1.14-1.33,2.93,2.93,0,0,0-1.67-.49,3,3,0,0,0-1.67.48,3.24,3.24,0,0,0-1.14,1.32,4.61,4.61,0,0,0,0,3.8,3.24,3.24,0,0,0,1.14,1.32A3.15,3.15,0,0,0,370.94,61.36Z"/><path class="cls-3" d="M384.32,53.18a1.49,1.49,0,0,1,1,1.28,0.94,0.94,0,0,1-.22.61,0.69,0.69,0,0,1-.56.27,0.88,0.88,0,0,1-.41-0.08,4.46,4.46,0,0,1-.41-0.26,2.13,2.13,0,0,0-.38-0.28,2.64,2.64,0,0,0-.68-0.2,4.47,4.47,0,0,0-.8-0.08,3.51,3.51,0,0,0-1.84.48,3.27,3.27,0,0,0-1.24,1.33,4,4,0,0,0-.44,1.89,4.1,4.1,0,0,0,.43,1.9A3.25,3.25,0,0,0,380,61.36a3.33,3.33,0,0,0,1.78.48,3.78,3.78,0,0,0,1.68-.32,4.16,4.16,0,0,0,.38-0.26,2.32,2.32,0,0,1,.35-0.24,0.78,0.78,0,0,1,.37-0.08,0.81,0.81,0,0,1,.63.25,0.92,0.92,0,0,1,.23.65,1.11,1.11,0,0,1-.53.83,4.26,4.26,0,0,1-1.42.67,6.77,6.77,0,0,1-1.91.26,5,5,0,0,1-2.68-.71,4.76,4.76,0,0,1-1.79-2,6.11,6.11,0,0,1-.63-2.79,5.87,5.87,0,0,1,.66-2.79,4.9,4.9,0,0,1,1.84-2,5.13,5.13,0,0,1,2.7-.71A6.11,6.11,0,0,1,384.32,53.18Z"/><path class="cls-3" d="M387.42,51.29a0.83,0.83,0,0,1-.25-0.67V50.3a0.79,0.79,0,0,1,.27-0.68,1.4,1.4,0,0,1,.83-0.2,1.26,1.26,0,0,1,.81.21,0.83,0.83,0,0,1,.25.67v0.32a0.81,0.81,0,0,1-.26.68,1.35,1.35,0,0,1-.82.2A1.3,1.3,0,0,1,387.42,51.29Zm1.52,11.83a0.92,0.92,0,0,1-.69.28,0.89,0.89,0,0,1-.67-0.28,0.94,0.94,0,0,1-.27-0.68V53.78a0.94,0.94,0,0,1,.27-0.68,0.89,0.89,0,0,1,.67-0.28,0.92,0.92,0,0,1,.69.28,0.94,0.94,0,0,1,.27.68v8.66A0.94,0.94,0,0,1,388.94,63.12Z"/><path class="cls-3" d="M401.14,53a1,1,0,0,1,.27.71v8.68a0.94,0.94,0,0,1-.27.68,0.92,0.92,0,0,1-.69.28,0.9,0.9,0,0,1-.68-0.27,1,1,0,0,1-.26-0.69V61.92a4.29,4.29,0,0,1-1.42,1.19,4,4,0,0,1-1.94.49,4.53,4.53,0,0,1-2.47-.7,4.81,4.81,0,0,1-1.74-2,6.58,6.58,0,0,1,0-5.62,4.83,4.83,0,0,1,1.73-2,4.42,4.42,0,0,1,2.42-.7,4.48,4.48,0,0,1,2,.44,4.09,4.09,0,0,1,1.45,1.12V53.76a1,1,0,0,1,.26-0.7,0.88,0.88,0,0,1,.68-0.28A0.94,0.94,0,0,1,401.14,53ZM398,61.36A3.25,3.25,0,0,0,399.18,60a4.57,4.57,0,0,0,0-3.78A3.33,3.33,0,0,0,398,54.93a2.93,2.93,0,0,0-1.67-.49,3,3,0,0,0-1.67.48,3.24,3.24,0,0,0-1.14,1.32,4.61,4.61,0,0,0,0,3.8,3.24,3.24,0,0,0,1.14,1.32A3.15,3.15,0,0,0,398,61.36Z"/><path class="cls-3" d="M403.45,61.22a0.81,0.81,0,0,1,.42-0.68,0.79,0.79,0,0,1,.46-0.14,0.92,0.92,0,0,1,.66.3,4.23,4.23,0,0,0,1.29,1,3.69,3.69,0,0,0,1.65.34,2.82,2.82,0,0,0,1.34-.35,1.14,1.14,0,0,0,.58-1.07,1.15,1.15,0,0,0-.59-1,6.71,6.71,0,0,0-1.73-.66,12.77,12.77,0,0,1-1.86-.63,3.33,3.33,0,0,1-1.25-1,2.81,2.81,0,0,1,0-3.23,3.39,3.39,0,0,1,1.36-1.06,4.47,4.47,0,0,1,1.85-.38,5.35,5.35,0,0,1,1.91.36,3.6,3.6,0,0,1,1.55,1.1,0.88,0.88,0,0,1,.24.58,0.86,0.86,0,0,1-.32.62,0.72,0.72,0,0,1-.5.18,0.75,0.75,0,0,1-.58-0.24,2.82,2.82,0,0,0-1-.74,3.41,3.41,0,0,0-1.35-.26,2.52,2.52,0,0,0-1.29.31,1.12,1.12,0,0,0-.53,1.05,1.16,1.16,0,0,0,.61,1,7.68,7.68,0,0,0,1.81.66,11.17,11.17,0,0,1,1.76.6,3.06,3.06,0,0,1,1.18,1,2.65,2.65,0,0,1,.48,1.65,2.56,2.56,0,0,1-.54,1.63,3.48,3.48,0,0,1-1.41,1.06,4.68,4.68,0,0,1-1.85.37,6.07,6.07,0,0,1-2.33-.44,4.34,4.34,0,0,1-1.81-1.4A1,1,0,0,1,403.45,61.22Z"/><path class="cls-3" d="M427,53.43a4.78,4.78,0,0,1,1.73,1.93,6.1,6.1,0,0,1,.63,2.8,6,6,0,0,1-.63,2.79A4.85,4.85,0,0,1,427,62.88a4.42,4.42,0,0,1-2.42.7,4.2,4.2,0,0,1-1.94-.46A4.65,4.65,0,0,1,421.21,62v4.44a0.94,0.94,0,0,1-.27.68,0.92,0.92,0,0,1-.69.28,0.91,0.91,0,0,1-.67-0.27,0.93,0.93,0,0,1-.27-0.69V53.86a1,1,0,0,1,.26-0.7,0.89,0.89,0,0,1,.68-0.28,0.92,0.92,0,0,1,.69.28,1,1,0,0,1,.27.7v0.58a3.91,3.91,0,0,1,1.4-1.2,4,4,0,0,1,2-.5A4.53,4.53,0,0,1,427,53.43Zm-1,7.91A3.22,3.22,0,0,0,427.16,60a4.47,4.47,0,0,0,0-3.74A3.23,3.23,0,0,0,426,55a3,3,0,0,0-1.66-.48,3.07,3.07,0,0,0-1.68.47,3.14,3.14,0,0,0-1.15,1.31,4.51,4.51,0,0,0,0,3.76,3.14,3.14,0,0,0,1.15,1.31,3.06,3.06,0,0,0,1.68.47A3,3,0,0,0,426,61.34Z"/><path class="cls-3" d="M440.81,61a5.09,5.09,0,0,1-1.91,1.94,5.44,5.44,0,0,1-5.34,0A5.08,5.08,0,0,1,431.65,61a5.58,5.58,0,0,1-.7-2.8,5.7,5.7,0,0,1,.7-2.82,5,5,0,0,1,1.91-2,5.44,5.44,0,0,1,5.34,0,5.05,5.05,0,0,1,1.91,2,5.71,5.71,0,0,1,.7,2.82A5.59,5.59,0,0,1,440.81,61Zm-1.65-4.73a3.34,3.34,0,0,0-1.22-1.32,3.35,3.35,0,0,0-3.42,0,3.34,3.34,0,0,0-1.22,1.32,4.06,4.06,0,0,0-.45,1.93,4,4,0,0,0,.45,1.9,3.36,3.36,0,0,0,1.22,1.31,3.35,3.35,0,0,0,3.42,0,3.36,3.36,0,0,0,1.22-1.31,4,4,0,0,0,.45-1.9A4.06,4.06,0,0,0,439.16,56.23Z"/><path class="cls-3" d="M449.83,52.95a0.8,0.8,0,0,1,.38.67,1,1,0,0,1-.25.73,0.83,0.83,0,0,1-.61.25,1.91,1.91,0,0,1-.54-0.12,2.23,2.23,0,0,0-.66-0.14,2,2,0,0,0-1.21.43,3.14,3.14,0,0,0-1,1.18,3.72,3.72,0,0,0-.37,1.67v4.82a0.94,0.94,0,0,1-.27.68,0.92,0.92,0,0,1-.69.28,0.9,0.9,0,0,1-.68-0.27,1,1,0,0,1-.26-0.69V53.88A0.94,0.94,0,0,1,444,53.2a0.89,0.89,0,0,1,.67-0.28,0.92,0.92,0,0,1,.69.28,0.94,0.94,0,0,1,.27.68v1a3.78,3.78,0,0,1,1.32-1.59,3.54,3.54,0,0,1,2-.63A1.52,1.52,0,0,1,449.83,52.95Z"/><path class="cls-3" d="M162.16,77.18a1.49,1.49,0,0,1,1.05,1.28,0.94,0.94,0,0,1-.22.61,0.69,0.69,0,0,1-.56.27,0.87,0.87,0,0,1-.41-0.08,4.33,4.33,0,0,1-.41-0.26,2.21,2.21,0,0,0-.38-0.28,2.64,2.64,0,0,0-.68-0.2,4.48,4.48,0,0,0-.8-0.08,3.51,3.51,0,0,0-1.84.48,3.27,3.27,0,0,0-1.24,1.33,4,4,0,0,0-.44,1.89,4.11,4.11,0,0,0,.43,1.9,3.27,3.27,0,0,0,1.21,1.32,3.33,3.33,0,0,0,1.78.48,3.78,3.78,0,0,0,1.68-.32,4,4,0,0,0,.38-0.26,2.32,2.32,0,0,1,.35-0.24,0.77,0.77,0,0,1,.37-0.08,0.81,0.81,0,0,1,.63.25,0.92,0.92,0,0,1,.23.65,1.11,1.11,0,0,1-.53.83,4.26,4.26,0,0,1-1.42.67,6.77,6.77,0,0,1-1.91.26,5,5,0,0,1-2.68-.71,4.76,4.76,0,0,1-1.79-2,6.11,6.11,0,0,1-.63-2.79,5.89,5.89,0,0,1,.66-2.79,4.92,4.92,0,0,1,1.84-2,5.14,5.14,0,0,1,2.7-.71A6.11,6.11,0,0,1,162.16,77.18Z"/><path class="cls-3" d="M174.47,85a5.09,5.09,0,0,1-1.91,1.94,5.44,5.44,0,0,1-5.34,0A5.08,5.08,0,0,1,165.31,85a5.59,5.59,0,0,1-.7-2.8,5.71,5.71,0,0,1,.7-2.82,5,5,0,0,1,1.91-2,5.44,5.44,0,0,1,5.34,0,5.05,5.05,0,0,1,1.91,2,5.72,5.72,0,0,1,.7,2.82A5.6,5.6,0,0,1,174.47,85Zm-1.65-4.73a3.34,3.34,0,0,0-1.22-1.32,3.35,3.35,0,0,0-3.42,0A3.35,3.35,0,0,0,167,80.23a4.06,4.06,0,0,0-.45,1.93,4,4,0,0,0,.45,1.9,3.36,3.36,0,0,0,1.22,1.31,3.35,3.35,0,0,0,3.42,0,3.36,3.36,0,0,0,1.22-1.31,4,4,0,0,0,.45-1.9A4.06,4.06,0,0,0,172.82,80.23Z"/><path class="cls-3" d="M192.89,81.1v5.34a1,1,0,0,1-.26.69,0.9,0.9,0,0,1-.68.27,0.92,0.92,0,0,1-.69-0.28,0.94,0.94,0,0,1-.27-0.68V81.12q0-2.62-2.2-2.62a2.85,2.85,0,0,0-1.41.35,2.53,2.53,0,0,0-1,.95,2.58,2.58,0,0,0-.35,1.32v5.32a0.94,0.94,0,0,1-.27.68,0.92,0.92,0,0,1-.69.28,0.9,0.9,0,0,1-.68-0.27,1,1,0,0,1-.26-0.69V81.1a3.22,3.22,0,0,0-.5-1.89A1.89,1.89,0,0,0,182,78.5a2.68,2.68,0,0,0-2,.75,2.48,2.48,0,0,0-.77,1.85v5.34a0.94,0.94,0,0,1-.27.68,0.92,0.92,0,0,1-.69.28,0.9,0.9,0,0,1-.68-0.27,1,1,0,0,1-.26-0.69V77.88a0.94,0.94,0,0,1,.27-0.68,0.89,0.89,0,0,1,.67-0.28,0.92,0.92,0,0,1,.69.28,0.94,0.94,0,0,1,.27.68v0.7a4.38,4.38,0,0,1,1.39-1.31,3.56,3.56,0,0,1,1.89-.53,3.07,3.07,0,0,1,3.22,2.2,4.26,4.26,0,0,1,1.46-1.52,3.83,3.83,0,0,1,2.16-.68Q192.89,76.74,192.89,81.1Z"/><path class="cls-3" d="M203.45,77.43a4.78,4.78,0,0,1,1.73,1.93,6.1,6.1,0,0,1,.63,2.8,6,6,0,0,1-.63,2.79,4.86,4.86,0,0,1-1.73,1.93,4.42,4.42,0,0,1-2.42.7,4.2,4.2,0,0,1-1.94-.46A4.66,4.66,0,0,1,197.63,86v4.44a0.94,0.94,0,0,1-.27.68,1,1,0,0,1-1.36,0,0.93,0.93,0,0,1-.27-0.69V77.86a1,1,0,0,1,.26-0.7,0.88,0.88,0,0,1,.68-0.28,0.92,0.92,0,0,1,.69.28,1,1,0,0,1,.27.7v0.58a3.91,3.91,0,0,1,1.4-1.2,4,4,0,0,1,2-.5A4.54,4.54,0,0,1,203.45,77.43Zm-1,7.91A3.23,3.23,0,0,0,203.58,84a4.47,4.47,0,0,0,0-3.74A3.23,3.23,0,0,0,202.43,79a3,3,0,0,0-1.66-.48,3.07,3.07,0,0,0-1.68.47,3.15,3.15,0,0,0-1.15,1.31,4.52,4.52,0,0,0,0,3.76,3.15,3.15,0,0,0,1.15,1.31,3.06,3.06,0,0,0,1.68.47A3,3,0,0,0,202.43,85.34Z"/><path class="cls-3" d="M217.2,77a1,1,0,0,1,.27.71v8.68a0.94,0.94,0,0,1-.27.68,0.92,0.92,0,0,1-.69.28,0.9,0.9,0,0,1-.68-0.27,1,1,0,0,1-.26-0.69V85.92a4.28,4.28,0,0,1-1.42,1.19,4,4,0,0,1-1.94.49,4.54,4.54,0,0,1-2.47-.7,4.81,4.81,0,0,1-1.74-2,6.57,6.57,0,0,1,0-5.62,4.83,4.83,0,0,1,1.73-2,4.57,4.57,0,0,1,4.39-.26,4.08,4.08,0,0,1,1.45,1.12V77.76a1,1,0,0,1,.26-0.7,0.88,0.88,0,0,1,.68-0.28A0.93,0.93,0,0,1,217.2,77Zm-3.1,8.31A3.25,3.25,0,0,0,215.24,84a4.56,4.56,0,0,0,0-3.78,3.33,3.33,0,0,0-1.14-1.33,2.93,2.93,0,0,0-1.67-.49,3,3,0,0,0-1.67.48,3.24,3.24,0,0,0-1.14,1.32,4.62,4.62,0,0,0,0,3.8,3.24,3.24,0,0,0,1.14,1.32A3.15,3.15,0,0,0,214.1,85.36Z"/><path class="cls-3" d="M226.41,76.95a0.8,0.8,0,0,1,.38.67,1,1,0,0,1-.25.73,0.83,0.83,0,0,1-.61.25,1.9,1.9,0,0,1-.54-0.12,2.24,2.24,0,0,0-.66-0.14,2,2,0,0,0-1.21.43,3.14,3.14,0,0,0-1,1.18,3.72,3.72,0,0,0-.37,1.67v4.82a0.94,0.94,0,0,1-.27.68,0.92,0.92,0,0,1-.69.28,0.9,0.9,0,0,1-.68-0.27,1,1,0,0,1-.26-0.69V77.88a0.94,0.94,0,0,1,.27-0.68,0.89,0.89,0,0,1,.67-0.28,0.92,0.92,0,0,1,.69.28,0.94,0.94,0,0,1,.27.68v1a3.78,3.78,0,0,1,1.32-1.59,3.54,3.54,0,0,1,2-.63A1.52,1.52,0,0,1,226.41,76.95Z"/><path class="cls-3" d="M231.39,78.78v6a0.84,0.84,0,0,0,.9,1,1.45,1.45,0,0,0,.38-0.07,1.48,1.48,0,0,1,.38-0.07,0.55,0.55,0,0,1,.44.22,0.84,0.84,0,0,1-.3,1.28,2,2,0,0,1-1.08.3,4.88,4.88,0,0,1-1.21-.14,1.79,1.79,0,0,1-1-.71,2.86,2.86,0,0,1-.43-1.73v-6h-1.16a0.85,0.85,0,0,1-.88-0.88,0.82,0.82,0,0,1,.25-0.62,0.87,0.87,0,0,1,.63-0.24h1.16V75.36a1,1,0,0,1,.27-0.68,0.92,0.92,0,0,1,.69-0.28,0.89,0.89,0,0,1,.67.28,1,1,0,0,1,.27.68V77h1.66a0.85,0.85,0,0,1,.88.88,0.82,0.82,0,0,1-.25.62,0.87,0.87,0,0,1-.63.24h-1.66Z"/><path class="cls-3" d="M236.16,75.29a0.83,0.83,0,0,1-.25-0.67V74.3a0.79,0.79,0,0,1,.27-0.68,1.4,1.4,0,0,1,.83-0.2,1.26,1.26,0,0,1,.81.21,0.83,0.83,0,0,1,.25.67v0.32a0.81,0.81,0,0,1-.26.68,1.34,1.34,0,0,1-.82.2A1.29,1.29,0,0,1,236.16,75.29Zm1.52,11.83a0.92,0.92,0,0,1-.69.28,0.89,0.89,0,0,1-.67-0.28,0.94,0.94,0,0,1-.27-0.68V77.78a0.94,0.94,0,0,1,.27-0.68,0.89,0.89,0,0,1,.67-0.28,0.92,0.92,0,0,1,.69.28,0.94,0.94,0,0,1,.27.68v8.66A0.94,0.94,0,0,1,237.68,87.12Z"/><path class="cls-3" d="M246.81,76.95a0.8,0.8,0,0,1,.38.67,1,1,0,0,1-.25.73,0.83,0.83,0,0,1-.61.25,1.9,1.9,0,0,1-.54-0.12,2.23,2.23,0,0,0-.66-0.14,2,2,0,0,0-1.21.43,3.14,3.14,0,0,0-1,1.18,3.73,3.73,0,0,0-.37,1.67v4.82a0.94,0.94,0,0,1-.27.68,0.92,0.92,0,0,1-.69.28,0.9,0.9,0,0,1-.68-0.27,1,1,0,0,1-.26-0.69V77.88A0.94,0.94,0,0,1,241,77.2a0.89,0.89,0,0,1,.67-0.28,0.92,0.92,0,0,1,.69.28,0.94,0.94,0,0,1,.27.68v1a3.79,3.79,0,0,1,1.32-1.59,3.54,3.54,0,0,1,2-.63A1.52,1.52,0,0,1,246.81,76.95Z"/><path class="cls-3" d="M257.33,78.78v6a0.84,0.84,0,0,0,.9,1,1.45,1.45,0,0,0,.38-0.07A1.47,1.47,0,0,1,259,85.6a0.55,0.55,0,0,1,.44.22,0.84,0.84,0,0,1-.3,1.28,2,2,0,0,1-1.08.3,4.89,4.89,0,0,1-1.21-.14,1.79,1.79,0,0,1-1-.71,2.86,2.86,0,0,1-.43-1.73v-6h-1.16a0.85,0.85,0,0,1-.88-0.88,0.82,0.82,0,0,1,.25-0.62,0.87,0.87,0,0,1,.63-0.24h1.16V75.36a1,1,0,0,1,.27-0.68,0.92,0.92,0,0,1,.69-0.28,0.9,0.9,0,0,1,.67.28,1,1,0,0,1,.27.68V77H259a0.85,0.85,0,0,1,.88.88,0.82,0.82,0,0,1-.25.62,0.87,0.87,0,0,1-.63.24h-1.66Z"/><path class="cls-3" d="M270.58,77.2a0.94,0.94,0,0,1,.27.68V83.2a4.39,4.39,0,1,1-8.76,0V77.88a0.94,0.94,0,0,1,.27-0.68,0.89,0.89,0,0,1,.67-0.28,0.92,0.92,0,0,1,.69.28,0.94,0.94,0,0,1,.27.68V83.2q0,2.62,2.46,2.62a2.47,2.47,0,0,0,1.86-.66,2.71,2.71,0,0,0,.64-2V77.88a0.94,0.94,0,0,1,.27-0.68,0.89,0.89,0,0,1,.67-0.28A0.92,0.92,0,0,1,270.58,77.2Z"/><path class="cls-3" d="M286.42,77.18a1.49,1.49,0,0,1,1.05,1.28,0.94,0.94,0,0,1-.22.61,0.69,0.69,0,0,1-.56.27,0.87,0.87,0,0,1-.41-0.08,4.33,4.33,0,0,1-.41-0.26,2.21,2.21,0,0,0-.38-0.28,2.64,2.64,0,0,0-.68-0.2,4.48,4.48,0,0,0-.8-0.08,3.51,3.51,0,0,0-1.84.48,3.27,3.27,0,0,0-1.24,1.33,4,4,0,0,0-.44,1.89,4.11,4.11,0,0,0,.43,1.9,3.27,3.27,0,0,0,1.21,1.32,3.33,3.33,0,0,0,1.78.48,3.78,3.78,0,0,0,1.68-.32,4,4,0,0,0,.38-0.26,2.32,2.32,0,0,1,.35-0.24,0.77,0.77,0,0,1,.37-0.08,0.81,0.81,0,0,1,.63.25,0.92,0.92,0,0,1,.23.65,1.11,1.11,0,0,1-.53.83,4.26,4.26,0,0,1-1.42.67,6.77,6.77,0,0,1-1.91.26,5,5,0,0,1-2.68-.71,4.76,4.76,0,0,1-1.79-2,6.11,6.11,0,0,1-.63-2.79,5.89,5.89,0,0,1,.66-2.79,4.92,4.92,0,0,1,1.84-2,5.14,5.14,0,0,1,2.7-.71A6.11,6.11,0,0,1,286.42,77.18Z"/><path class="cls-3" d="M298.73,85a5.09,5.09,0,0,1-1.91,1.94,5.44,5.44,0,0,1-5.34,0A5.08,5.08,0,0,1,289.57,85a5.59,5.59,0,0,1-.7-2.8,5.71,5.71,0,0,1,.7-2.82,5,5,0,0,1,1.91-2,5.44,5.44,0,0,1,5.34,0,5.05,5.05,0,0,1,1.91,2,5.72,5.72,0,0,1,.7,2.82A5.6,5.6,0,0,1,298.73,85Zm-1.65-4.73a3.34,3.34,0,0,0-1.22-1.32,3.35,3.35,0,0,0-3.42,0,3.35,3.35,0,0,0-1.22,1.32,4.06,4.06,0,0,0-.45,1.93,4,4,0,0,0,.45,1.9,3.36,3.36,0,0,0,1.22,1.31,3.35,3.35,0,0,0,3.42,0,3.36,3.36,0,0,0,1.22-1.31,4,4,0,0,0,.45-1.9A4.06,4.06,0,0,0,297.08,80.23Z"/><path class="cls-3" d="M310.57,81v5.44a0.94,0.94,0,0,1-.27.68,0.92,0.92,0,0,1-.69.28,0.89,0.89,0,0,1-.67-0.28,0.94,0.94,0,0,1-.27-0.68V81a3,3,0,0,0-.54-1.88,2.09,2.09,0,0,0-1.76-.7,3,3,0,0,0-1.45.35,2.67,2.67,0,0,0-1,.94,2.39,2.39,0,0,0-.37,1.29v5.42a0.94,0.94,0,0,1-.27.68,0.92,0.92,0,0,1-.69.28,0.9,0.9,0,0,1-.68-0.27,1,1,0,0,1-.26-0.69V77.88a0.94,0.94,0,0,1,.27-0.68,0.89,0.89,0,0,1,.67-0.28,0.92,0.92,0,0,1,.69.28,0.94,0.94,0,0,1,.27.68v0.7A4.29,4.29,0,0,1,305,77.23a3.84,3.84,0,0,1,2-.55Q310.57,76.68,310.57,81Z"/><path class="cls-3" d="M320.6,77.18a1.49,1.49,0,0,1,1,1.28,0.94,0.94,0,0,1-.22.61,0.7,0.7,0,0,1-.56.27,0.87,0.87,0,0,1-.41-0.08A4.46,4.46,0,0,1,320,79a2.18,2.18,0,0,0-.38-0.28,2.64,2.64,0,0,0-.68-0.2,4.46,4.46,0,0,0-.8-0.08,3.51,3.51,0,0,0-1.84.48,3.26,3.26,0,0,0-1.24,1.33,4,4,0,0,0-.44,1.89,4.1,4.1,0,0,0,.43,1.9,3.25,3.25,0,0,0,1.21,1.32,3.33,3.33,0,0,0,1.78.48,3.79,3.79,0,0,0,1.68-.32l0.38-.26A2.32,2.32,0,0,1,320.5,85a0.78,0.78,0,0,1,.37-0.08,0.81,0.81,0,0,1,.63.25,0.92,0.92,0,0,1,.23.65,1.11,1.11,0,0,1-.53.83,4.27,4.27,0,0,1-1.42.67,6.77,6.77,0,0,1-1.91.26,5,5,0,0,1-2.68-.71,4.76,4.76,0,0,1-1.79-2,6.11,6.11,0,0,1-.63-2.79,5.87,5.87,0,0,1,.66-2.79,4.91,4.91,0,0,1,1.84-2,5.12,5.12,0,0,1,2.7-.71A6.12,6.12,0,0,1,320.6,77.18Z"/><path class="cls-3" d="M332.59,82.37a1,1,0,0,1-.66.25h-7A3.47,3.47,0,0,0,326,85a3.4,3.4,0,0,0,2.37.88,3.72,3.72,0,0,0,1.56-.28,3.91,3.91,0,0,0,1.06-.72,1.13,1.13,0,0,1,.58-0.18,0.76,0.76,0,0,1,.57.24,0.78,0.78,0,0,1,.23.56,1,1,0,0,1-.4.76,4.7,4.7,0,0,1-1.54,1,5.06,5.06,0,0,1-2,.4,5.79,5.79,0,0,1-2.85-.68,4.74,4.74,0,0,1-1.9-1.9,5.63,5.63,0,0,1-.67-2.76,6.08,6.08,0,0,1,.69-2.95,5,5,0,0,1,1.82-2,4.69,4.69,0,0,1,4.83,0,5,5,0,0,1,1.8,1.82,5.2,5.2,0,0,1,.7,2.6A0.86,0.86,0,0,1,332.59,82.37ZM326,79.07A3.1,3.1,0,0,0,325,81h5.9V80.86a2.44,2.44,0,0,0-.95-1.74,3,3,0,0,0-1.93-.68A3.09,3.09,0,0,0,326,79.07Z"/><path class="cls-3" d="M342.81,77.43a4.78,4.78,0,0,1,1.73,1.93,6.1,6.1,0,0,1,.63,2.8,6,6,0,0,1-.63,2.79,4.85,4.85,0,0,1-1.73,1.93,4.42,4.42,0,0,1-2.42.7,4.2,4.2,0,0,1-1.94-.46A4.65,4.65,0,0,1,337,86v4.44a0.94,0.94,0,0,1-.27.68,0.92,0.92,0,0,1-.69.28,0.91,0.91,0,0,1-.67-0.27,0.93,0.93,0,0,1-.27-0.69V77.86a1,1,0,0,1,.26-0.7,0.89,0.89,0,0,1,.68-0.28,0.92,0.92,0,0,1,.69.28,1,1,0,0,1,.27.7v0.58a3.91,3.91,0,0,1,1.4-1.2,4,4,0,0,1,2-.5A4.53,4.53,0,0,1,342.81,77.43Zm-1,7.91A3.22,3.22,0,0,0,342.94,84a4.47,4.47,0,0,0,0-3.74A3.23,3.23,0,0,0,341.79,79a3,3,0,0,0-1.66-.48,3.07,3.07,0,0,0-1.68.47,3.14,3.14,0,0,0-1.15,1.31,4.51,4.51,0,0,0,0,3.76,3.14,3.14,0,0,0,1.15,1.31,3.06,3.06,0,0,0,1.68.47A3,3,0,0,0,341.79,85.34Z"/><path class="cls-3" d="M354.56,77.18a1.49,1.49,0,0,1,1,1.28,0.94,0.94,0,0,1-.22.61,0.69,0.69,0,0,1-.56.27,0.88,0.88,0,0,1-.41-0.08A4.46,4.46,0,0,1,354,79a2.13,2.13,0,0,0-.38-0.28,2.64,2.64,0,0,0-.68-0.2,4.47,4.47,0,0,0-.8-0.08,3.51,3.51,0,0,0-1.84.48,3.27,3.27,0,0,0-1.24,1.33,4,4,0,0,0-.44,1.89,4.1,4.1,0,0,0,.43,1.9,3.25,3.25,0,0,0,1.21,1.32,3.33,3.33,0,0,0,1.78.48,3.78,3.78,0,0,0,1.68-.32,4.16,4.16,0,0,0,.38-0.26,2.32,2.32,0,0,1,.35-0.24,0.78,0.78,0,0,1,.37-0.08,0.81,0.81,0,0,1,.63.25,0.92,0.92,0,0,1,.23.65,1.11,1.11,0,0,1-.53.83,4.26,4.26,0,0,1-1.42.67,6.77,6.77,0,0,1-1.91.26,5,5,0,0,1-2.68-.71,4.76,4.76,0,0,1-1.79-2,6.11,6.11,0,0,1-.63-2.79,5.87,5.87,0,0,1,.66-2.79,4.9,4.9,0,0,1,1.84-2,5.13,5.13,0,0,1,2.7-.71A6.11,6.11,0,0,1,354.56,77.18Z"/><path class="cls-3" d="M357.66,75.29a0.83,0.83,0,0,1-.25-0.67V74.3a0.79,0.79,0,0,1,.27-0.68,1.4,1.4,0,0,1,.83-0.2,1.26,1.26,0,0,1,.81.21,0.83,0.83,0,0,1,.25.67v0.32a0.81,0.81,0,0,1-.26.68,1.35,1.35,0,0,1-.82.2A1.3,1.3,0,0,1,357.66,75.29Zm1.52,11.83a0.92,0.92,0,0,1-.69.28,0.89,0.89,0,0,1-.67-0.28,0.94,0.94,0,0,1-.27-0.68V77.78a0.94,0.94,0,0,1,.27-0.68,0.89,0.89,0,0,1,.67-0.28,0.92,0.92,0,0,1,.69.28,0.94,0.94,0,0,1,.27.68v8.66A0.94,0.94,0,0,1,359.18,87.12Z"/><path class="cls-3" d="M371.41,85a5.09,5.09,0,0,1-1.91,1.94,5.44,5.44,0,0,1-5.34,0A5.08,5.08,0,0,1,362.25,85a5.58,5.58,0,0,1-.7-2.8,5.7,5.7,0,0,1,.7-2.82,5,5,0,0,1,1.91-2,5.44,5.44,0,0,1,5.34,0,5.05,5.05,0,0,1,1.91,2,5.71,5.71,0,0,1,.7,2.82A5.59,5.59,0,0,1,371.41,85Zm-1.65-4.73a3.34,3.34,0,0,0-1.22-1.32,3.35,3.35,0,0,0-3.42,0,3.34,3.34,0,0,0-1.22,1.32,4.06,4.06,0,0,0-.45,1.93,4,4,0,0,0,.45,1.9,3.36,3.36,0,0,0,1.22,1.31,3.35,3.35,0,0,0,3.42,0,3.36,3.36,0,0,0,1.22-1.31,4,4,0,0,0,.45-1.9A4.06,4.06,0,0,0,369.76,80.23ZM366.43,76a0.41,0.41,0,0,1-.16-0.38,0.72,0.72,0,0,1,.12-0.36l1.18-2A1.54,1.54,0,0,1,368,72.8a0.83,0.83,0,0,1,.53-0.18,0.91,0.91,0,0,1,.67.23,0.76,0.76,0,0,1,.21.61,1.05,1.05,0,0,1-.3.7l-1.5,1.64a1.08,1.08,0,0,1-.8.32A0.57,0.57,0,0,1,366.43,76Z"/><path class="cls-3" d="M383.25,81v5.44a0.94,0.94,0,0,1-.27.68,0.92,0.92,0,0,1-.69.28,0.89,0.89,0,0,1-.67-0.28,0.94,0.94,0,0,1-.27-0.68V81a3,3,0,0,0-.54-1.88,2.09,2.09,0,0,0-1.76-.7,3,3,0,0,0-1.45.35,2.66,2.66,0,0,0-1,.94,2.38,2.38,0,0,0-.37,1.29v5.42a0.94,0.94,0,0,1-.27.68,0.92,0.92,0,0,1-.69.28,0.9,0.9,0,0,1-.68-0.27,1,1,0,0,1-.26-0.69V77.88a0.94,0.94,0,0,1,.27-0.68,0.89,0.89,0,0,1,.67-0.28,0.92,0.92,0,0,1,.69.28,0.94,0.94,0,0,1,.27.68v0.7a4.3,4.3,0,0,1,1.45-1.35,3.84,3.84,0,0,1,2-.55Q383.25,76.68,383.25,81Z"/><path class="cls-3" d="M400.82,72.87a0.94,0.94,0,0,1,.27.69V86.44a0.94,0.94,0,0,1-.27.68,0.92,0.92,0,0,1-.69.28,0.9,0.9,0,0,1-.68-0.27,1,1,0,0,1-.26-0.69V85.88a4.06,4.06,0,0,1-1.41,1.22,4,4,0,0,1-2,.5,4.48,4.48,0,0,1-2.46-.7,4.91,4.91,0,0,1-1.74-2,6.07,6.07,0,0,1-.64-2.81,6.16,6.16,0,0,1,.63-2.81,4.83,4.83,0,0,1,1.73-2,4.55,4.55,0,0,1,4.38-.26,4.21,4.21,0,0,1,1.46,1.14v-4.7a1,1,0,0,1,.26-0.69,0.9,0.9,0,0,1,.68-0.27A0.94,0.94,0,0,1,400.82,72.87Zm-3.1,12.49A3.25,3.25,0,0,0,398.86,84a4.59,4.59,0,0,0,0-3.79,3.24,3.24,0,0,0-1.14-1.33,3.15,3.15,0,0,0-3.34,0,3.23,3.23,0,0,0-1.14,1.33,4.58,4.58,0,0,0,0,3.79,3.24,3.24,0,0,0,1.14,1.32A3.15,3.15,0,0,0,397.72,85.36Z"/><path class="cls-3" d="M412.81,82.37a1,1,0,0,1-.66.25h-7A3.47,3.47,0,0,0,406.22,85a3.4,3.4,0,0,0,2.37.88,3.72,3.72,0,0,0,1.56-.28,3.91,3.91,0,0,0,1.06-.72,1.13,1.13,0,0,1,.58-0.18,0.76,0.76,0,0,1,.57.24,0.78,0.78,0,0,1,.23.56,1,1,0,0,1-.4.76,4.7,4.7,0,0,1-1.54,1,5.06,5.06,0,0,1-2,.4,5.79,5.79,0,0,1-2.85-.68,4.74,4.74,0,0,1-1.9-1.9,5.63,5.63,0,0,1-.67-2.76,6.08,6.08,0,0,1,.69-2.95,5,5,0,0,1,1.82-2,4.69,4.69,0,0,1,4.83,0,5,5,0,0,1,1.8,1.82,5.2,5.2,0,0,1,.7,2.6A0.86,0.86,0,0,1,412.81,82.37Zm-6.54-3.3a3.1,3.1,0,0,0-1.08,2h5.9V80.86a2.44,2.44,0,0,0-.95-1.74,3,3,0,0,0-1.93-.68A3.09,3.09,0,0,0,406.27,79.07Z"/><path class="cls-3" d="M428.57,77.43a4.78,4.78,0,0,1,1.73,1.93,6.1,6.1,0,0,1,.63,2.8,6,6,0,0,1-.63,2.79,4.85,4.85,0,0,1-1.73,1.93,4.42,4.42,0,0,1-2.42.7,4.2,4.2,0,0,1-1.94-.46A4.65,4.65,0,0,1,422.75,86v4.44a0.94,0.94,0,0,1-.27.68,0.92,0.92,0,0,1-.69.28,0.91,0.91,0,0,1-.67-0.27,0.93,0.93,0,0,1-.27-0.69V77.86a1,1,0,0,1,.26-0.7,0.89,0.89,0,0,1,.68-0.28,0.92,0.92,0,0,1,.69.28,1,1,0,0,1,.27.7v0.58a3.91,3.91,0,0,1,1.4-1.2,4,4,0,0,1,2-.5A4.53,4.53,0,0,1,428.57,77.43Zm-1,7.91A3.22,3.22,0,0,0,428.7,84a4.47,4.47,0,0,0,0-3.74A3.23,3.23,0,0,0,427.55,79a3,3,0,0,0-1.66-.48,3.07,3.07,0,0,0-1.68.47,3.14,3.14,0,0,0-1.15,1.31,4.51,4.51,0,0,0,0,3.76,3.14,3.14,0,0,0,1.15,1.31,3.06,3.06,0,0,0,1.68.47A3,3,0,0,0,427.55,85.34Z"/><path class="cls-3" d="M442.32,77a1,1,0,0,1,.27.71v8.68a0.94,0.94,0,0,1-.27.68,0.92,0.92,0,0,1-.69.28,0.9,0.9,0,0,1-.68-0.27,1,1,0,0,1-.26-0.69V85.92a4.29,4.29,0,0,1-1.42,1.19,4,4,0,0,1-1.94.49,4.53,4.53,0,0,1-2.47-.7,4.81,4.81,0,0,1-1.74-2,6.58,6.58,0,0,1,0-5.62,4.83,4.83,0,0,1,1.73-2,4.42,4.42,0,0,1,2.42-.7,4.48,4.48,0,0,1,2,.44,4.09,4.09,0,0,1,1.45,1.12V77.76a1,1,0,0,1,.26-0.7,0.88,0.88,0,0,1,.68-0.28A0.94,0.94,0,0,1,442.32,77Zm-3.1,8.31A3.25,3.25,0,0,0,440.36,84a4.57,4.57,0,0,0,0-3.78,3.33,3.33,0,0,0-1.14-1.33,2.93,2.93,0,0,0-1.67-.49,3,3,0,0,0-1.67.48,3.24,3.24,0,0,0-1.14,1.32,4.61,4.61,0,0,0,0,3.8,3.24,3.24,0,0,0,1.14,1.32A3.15,3.15,0,0,0,439.22,85.36Z"/><path class="cls-3" d="M452.69,85.89a0.89,0.89,0,0,1,0,1.26,0.89,0.89,0,0,1-.64.25h-6.46a0.81,0.81,0,0,1-.63-0.28,0.86,0.86,0,0,1-.25-0.58,1.72,1.72,0,0,1,.08-0.43,1.62,1.62,0,0,1,.22-0.39l5.24-7h-4.34a0.89,0.89,0,0,1-.9-0.9,0.82,0.82,0,0,1,.25-0.62,0.9,0.9,0,0,1,.65-0.24H452a0.81,0.81,0,0,1,.63.28,0.91,0.91,0,0,1,.23.68,1.66,1.66,0,0,1-.07.35,1,1,0,0,1-.21.33l-5.28,7H452A0.89,0.89,0,0,1,452.69,85.89Z"/><path class="cls-3" d="M455,87.12a1.05,1.05,0,0,1-.25-0.76V86a1,1,0,0,1,.25-0.74,1,1,0,0,1,.73-0.26h0.2a1,1,0,0,1,.75.26,1,1,0,0,1,.25.74v0.38a0.89,0.89,0,0,1-1,1h-0.2A1,1,0,0,1,455,87.12Z"/><g class="cls-4"><path class="cls-5" d="M-9.89,157.66C-25.22,149-22.79,115.47-4.48,83S41.27,31,56.61,39.69s12.9,42.19-5.41,74.68S5.44,166.3-9.89,157.66Z"/><path class="cls-6" d="M49.17,107.59c2.24,2,3.19,5.18,3.71,8.38A59.76,59.76,0,0,1,53.14,131c-0.47,4.89-1.35,9.78-2.24,14.67q-1.77,9.65-3.59,19.3a116.81,116.81,0,0,1-2.72,12c-1.29,4.28-2.47,10.32-5.84,13.23s-9.22,2.06-11.77-.9c-2.22-2.58-1.84-6.84-1.34-10.64l5.78-44.24c0.41-3.14,2-15.78,2.94-18.87C36.38,108.83,42.34,101.64,49.17,107.59Z"/><path class="cls-6" d="M96.4,161.56c0.14,0.26.59,0.37,1.75-.28s0.89-1.41,1.14-1.52c6.59-2.87,10.54-5.83,15.92-10.68,1.22-1.1,2.48-2.41,2.6-4,0.06-.83.89-2.73,0.62-3.51-0.65-1.88-2.71-2.84-4.63-3.34a5.58,5.58,0,0,0-4.11,1c-1.25.75-2.91,2.63-4.2,3.3-1.1.58-2.52,1.45-2.87,1.31s2.06-2.06,1.4-2.89-2,.14-2.79.76c-2.62,2-4.62,6.21-7.24,8.19-2.4,1.81-1.93.62-1.27,2.83A54.2,54.2,0,0,0,96.4,161.56Z"/><path class="cls-6" d="M28.85,192.77c2.08,1.27,5.14,1,8.1.47,4.51-.89,8.9-3,13.45-5,4.36-1.95,8.68-4.23,13-6.53,5.66-3,13-7.52,14.75-8.48,3.51-2,9.83-5.7,13.26-8,3.69-2.45,9.5-6.13,11.91-9.76a4.13,4.13,0,0,0-1.43-5.71c-2.59-1.14-11.28,1.68-14.68,3.24C77,157.69,65.78,162,50.69,169.25c-2.78,1.34-14,6.72-16.66,8.48C28.17,181.58,22.5,188.9,28.85,192.77Z"/><path class="cls-7" d="M42.76,158.54s-2,13.9-8.73,19.18l12-6.21,2.21-11.33Z"/><path class="cls-6" d="M0.28,78.2c-2.79-.89-6,0-9,1.21A59.76,59.76,0,0,0-21.61,87c-3.91,2.94-7.61,6.24-11.3,9.55q-7.29,6.53-14.54,13.11a117.84,117.84,0,0,0-8.83,8.59c-3,3.33-7.5,7.48-8.26,11.86s2.93,8.92,6.72,9.54c3.31,0.54,6.73-2,9.7-4.41l34.59-28C-11.08,105.34-1.18,97.37,1,95,5.71,89.73,8.79,80.91.28,78.2Z"/><path class="cls-6" d="M-35.37,204.3c-4.55-3.49-10.3-5.74-11.85-7.52-0.1-.12-4.87-3.83-5.52-4.46-0.24-.2-5-3.36-5-3.41l-4.09-3.28c-1.17-1.46-3-.14-2.85-1.29s9.64-15.53,10.26-16.55c4.6-7.58,14-13.41,21.65-26.82,6.4-11.3,12.22-37.71,16.33-44.16,3.83-6,7-12.61,8.4-13.94,0.7-.64,5.83-3.74,8.87-3.59a28.17,28.17,0,0,1,6.89.9c2.39,0.82,8.2.85,12.79,3.55,3.47,1.89,4.55,2,7.47,3.84,3,1.52,3.64,2.75,7,4.7,4.58,2.48,7.23,6.81,9.13,8.4a30.86,30.86,0,0,1,4.46,5.5c1.66,2.5,1.61,8.46,1.41,9.39-0.4,1.91-4.43,8-7.58,14.4-3.39,6.85-24,24.94-30.33,36.27C4.52,179.68,4.25,189.57.14,197.43c-0.55,1.06-7.69,16.47-8.52,17.17a6.87,6.87,0,0,1-4.69.89s-1.78-2.4-1.78-2.4-5.09-2.34-5.38-2.43c-0.86-.22-6.4-2.32-6.55-2.34-2.29-.39-3.36-2-8.6-4"/><path class="cls-8" d="M21.64,77.1a21.84,21.84,0,0,1-3.91,6.63,6.21,6.21,0,0,0,.53,1.08c2.71,4.59,10.88,7.72,15.46,8.85,1.9,0.47,3.19.6,3.21,0.34,0.2-2.23,1.73-4.58,2.93-6.11l0-.05h0a20.83,20.83,0,0,1,1.43-1.64L22.13,75.37c-0.05.24-.11,0.49-0.17,0.73S21.76,76.77,21.64,77.1Z"/><path class="cls-6" d="M70.42,60C76.26,49.65,72,36.15,60.81,29.86s-24.93-3-30.77,7.39A20.11,20.11,0,0,0,28,42.67c-0.21.42-.44,0.84-0.69,1.27a61.07,61.07,0,0,0-5.47,11.67c-2.62,8-2.67,16.75,2.06,24.8a17.94,17.94,0,0,0,6.49,6.79c3.78,2.09,8.32,2.11,12.29,1.18C55.77,85.31,63.23,73.81,69,62.21A20.12,20.12,0,0,0,70.42,60Z"/><path class="cls-9" d="M-17.84,84.17C-1.65,73.1,19,82.44,19,82.44L7.68,86.76,1.6,92.27l-27.15,24.58-17.84-12.34A311.15,311.15,0,0,1-17.84,84.17Z"/><polygon class="cls-10" points="1.6 91.2 -26.55 121.63 -30.85 118.78 1.6 91.2"/><path class="cls-11" d="M-17.43,83.73C-1.54,73,19,82.44,19,82.44s-23.07-5.35-33.8,2.28c-2.59,1.84-13.74,11-24.87,20.73l-2.76-1.92A297.55,297.55,0,0,1-17.43,83.73Z"/><path class="cls-9" d="M54.75,126c1.08-19.58-17.57-32.38-17.57-32.38l2.14,11.88-1.56,8.05-7,36,19.8,8.88A311.15,311.15,0,0,0,54.75,126Z"/><polygon class="cls-10" points="38.66 112.98 27.21 152.8 31.88 155.01 38.66 112.98"/><path class="cls-11" d="M54.92,125.38c1-19.16-17.74-31.8-17.74-31.8s16.52,17,15.55,30.1c-0.23,3.16-2.33,17.47-4.85,32l3.07,1.36A297.55,297.55,0,0,0,54.92,125.38Z"/><path class="cls-12" d="M52.87,155l-25-6.46-1.06,4.76,24.52,7.94a1.93,1.93,0,0,0,2.46-1.36l0.58-2.3A2.13,2.13,0,0,0,52.87,155Z"/><path class="cls-9" d="M28.75,147.45S9.36,168.18,0,201c0,0-40.15-15-57.42-31.52,0,0,24.51-24.44,34-53.42l30.51-32L19,82.44s-9.43,9.83,4.19,16.11,14-5,14-5l3.92,15.08Z"/><path class="cls-12" d="M-12.5,132.77l0.93,0.46L-9,134.45a28.08,28.08,0,0,1,7.39,4.83c0.61,0.6,1.21,1.23,1.83,1.84a20.35,20.35,0,0,0,1.91,1.67A19.24,19.24,0,0,0,5.74,145a7.32,7.32,0,0,0,1.6.54,3.75,3.75,0,0,0,1.28.05,2.53,2.53,0,0,0,.76-0.24l0.23-.14-0.26.05a2.6,2.6,0,0,1-.74,0,5.32,5.32,0,0,1-2.35-1.16,31.2,31.2,0,0,1-3-2.65c-0.54-.53-1.07-1.1-1.62-1.72s-1.14-1.29-1.82-2a15.19,15.19,0,0,0-4.44-3,23.55,23.55,0,0,0-4-1.35c-1.17-.28-2.12-0.45-2.78-0.56Z"/><path class="cls-11" d="M40,77.18c-1.05-.15-2.74-2.81-4-3.38s-0.89-.78-1.66-1.4-2.92-1.55-3.85-3a9.83,9.83,0,0,0,.37,5.15,5.65,5.65,0,0,0,4,3.29A8.8,8.8,0,0,0,40,77.18Z"/><path class="cls-11" d="M41.26,77.31l-0.16,0-0.48-.08c-0.41-.05-1-0.15-1.68-0.3a10,10,0,0,1-1.08-.32,10.27,10.27,0,0,1-1.15-.5,8.85,8.85,0,0,1-1.14-.68,11.27,11.27,0,0,1-1.08-.86,14.53,14.53,0,0,1-3.29-3.89c-0.16-.31-0.3-0.6-0.41-0.86a6.28,6.28,0,0,1-.25-0.7c-0.06-.2-0.11-0.35-0.13-0.46l0-.17,0,0.17a4.45,4.45,0,0,0,.06.48,6.48,6.48,0,0,0,.17.73,6.22,6.22,0,0,0,.33.92,10,10,0,0,0,1.27,2.1,14.88,14.88,0,0,0,1.95,2,12,12,0,0,0,1.13.88,8.13,8.13,0,0,0,1.22.68,7.69,7.69,0,0,0,1.22.45,10.7,10.7,0,0,0,1.13.25,12.39,12.39,0,0,0,1.72.13h0.48Z"/><path class="cls-13" d="M39.4,77.09a14.65,14.65,0,0,1-8.48-7,7.48,7.48,0,0,0,3.14,5.7A7.22,7.22,0,0,0,39.4,77.09Z"/><path class="cls-14" d="M41.86,69.33c-3.78-1.2-4-4-3-5.79C36.15,66.24,37.49,69.27,41.86,69.33Z"/><path class="cls-15" d="M38,52.4a1.64,1.64,0,0,1-.08.94c-0.41,1-1.21,2.9-2.6,2.83C33.69,56.09,34,54,34.57,53a3.19,3.19,0,0,1,1.53-1.56A1.35,1.35,0,0,1,38,52.4Z"/><path class="cls-15" d="M38.91,53.57s-0.48-2.85-5.28-3C33.64,50.6,38.72,49.69,38.91,53.57Z"/><path class="cls-15" d="M53.52,61.14a1.64,1.64,0,0,0-.76.56c-0.68.89-1.86,2.54-1.08,3.69,0.93,1.37,2.51,0,3.1-1a3.19,3.19,0,0,0,.55-2.11A1.35,1.35,0,0,0,53.52,61.14Z"/><path class="cls-15" d="M52.05,61s2.69-1.07,5.28,3C57.33,64,55.48,59.13,52.05,61Z"/><path class="cls-7" d="M73.31,80a5.38,5.38,0,0,0,1.08-.77,15.89,15.89,0,0,1-1.45,4c-0.15-.42-0.32-0.84-0.51-1.27a3.63,3.63,0,0,0-.63-0.94A10.69,10.69,0,0,1,73.31,80Z"/><path class="cls-7" d="M60.26,31.07c10.72,0,19.59,15.05,15.81,27.41a32.54,32.54,0,0,0-1.4,10l-0.55.13c-1.88-2.67-6.44-3.59-8.58.11a86.14,86.14,0,0,1-5.16,7.58,9.88,9.88,0,0,0-.52-4.8c-2.46-5.74-.49-7,3.11-15.18s-6.33-7.4-8.2-17.32C54.05,34.95,49.54,31.06,60.26,31.07Z"/><path class="cls-7" d="M59.22,69.82a37.94,37.94,0,0,1-20.05,19s11.1,0.32,21.22-12.51A5.57,5.57,0,0,0,59.22,69.82Z"/><path class="cls-16" d="M45.4,47.21c-1.54-1.38-4-3.82-8.56-2.88-2.06.42-2.13,1.15,0,.89,3.69-.44,5.08,1.18,7.56,3.29C45.4,49.33,46.45,48.15,45.4,47.21Z"/><path class="cls-16" d="M55.06,52.65c2,0.6,5.33,1.43,6.89,5.83,0.7,2,.12,2.41-0.78.42-1.53-3.39-3.64-3.74-6.73-4.76C53.24,53.75,53.71,52.24,55.06,52.65Z"/><path class="cls-16" d="M57.38,36.92c1.87,9.91,11.8,9.17,8.2,17.32S60,63.68,62.47,69.42s-2.7,17.42-9.69,23.87-9.35,11.19-9.31,18.25-2,10.93-6.53,15.41-7.09,6.77,7.18,2.46S61.78,114.15,63.38,103s3-9.36,10.22-18.75,1.31-15.49,5.08-27.86S73.59,29,62.87,29,56.67,32.84,57.38,36.92Z"/><path class="cls-17" d="M64.68,32c-1.5,4.94,3.44,9.87,6.38,13s4,7.37.63,11.89S68.24,69.8,69.3,73.62,63.67,87.59,58.14,93C53,98.1,51.3,108.94,50.93,113.3c-0.4,4.65-2.23,9.79-5.92,11.78,5-1.06,7.54-5.83,8.29-12s0.08-10.72,7-18.52c8.77-9.87,12.62-13.09,11.37-22-1-7.07-1.54-8.23,1.89-14,3.52-6,4.14-9.24-.06-14S64.41,37.43,64.68,32Z"/><path class="cls-16" d="M57.93,37.23c-9.45,3.54-14-5.35-19.06,2S33.68,48.83,27.49,49.7,14,61,12.09,70.35,7.35,84.14,1.29,87.76-7,95.13-8.51,101.33s-2.12,9.57-5.82-4.87,3.92-23,12.64-30.16S4.75,58.88,9.05,47.85s12.58-9.14,21.2-18.77,26.08-9.83,31.64-.67S61.79,35.73,57.93,37.23Z"/><path class="cls-17" d="M58.35,28.44c-3.45,3.84-10.22,2.17-14.44,1.29s-8.39.37-10.49,5.62S24.18,45,20.36,46s-9,12-10.84,19.61C7.85,72.65-.54,79.72-4.07,82.29c-3.77,2.75-7.23,7-7,11.17-1.69-4.85,1.08-9.47,6-13.33S4.05,74.51,7.14,64.55C11,51.94,11.8,47,20.1,43.41c6.56-2.82,7.84-2.95,11-8.89,3.28-6.09,5.76-8.33,12-7.18S53.86,31.48,58.35,28.44Z"/></g></svg>