<svg id="Capa_1" data-name="Capa 1" xmlns="http://www.w3.org/2000/svg" xmlns:xlink="http://www.w3.org/1999/xlink" viewBox="0 0 505 196.86"><defs><style>.cls-1{fill:none;}.cls-2{fill:#a397c9;}.cls-3{fill:#1d1d1b;opacity:0.8;}.cls-4{clip-path:url(#clip-path);}.cls-5{fill:#5b4d8d;}.cls-14,.cls-16,.cls-17,.cls-5,.cls-7{fill-rule:evenodd;}.cls-6{fill:#fdd481;}.cls-7,.cls-8{fill:#f7bb64;}.cls-9{fill:#ec62a0;}.cls-10{fill:#ec92bd;}.cls-11{fill:#e3589b;}.cls-12{fill:#e34d95;}.cls-13{fill:#fff;}.cls-14{fill:#f7b447;}.cls-15{fill:#29233f;}.cls-16{fill:#6e5aa3;}.cls-17{fill:#7867ac;}</style><clipPath id="clip-path"><rect class="cls-1" y="2.96" width="141.32" height="193.9" transform="translate(141.32 199.81) rotate(-180)"/></clipPath></defs><title>Dialogo</title><path class="cls-2" d="M79.74,73.44L103.8,88.53v20.92c0,15.54,11,25.92,26.51,25.92H475.23c15.54,0,29.77-10.38,29.77-25.92V30.36C505,14.82,490.77,0,475.23,0H130.31C114.77,0,103.8,14.82,103.8,30.36V56.22Z"/><path class="cls-3" d="M153.22,39.64a4.12,4.12,0,0,1,1.43,1.55,4.47,4.47,0,0,1,.53,2.16,4.59,4.59,0,0,1-.53,2.18,4.15,4.15,0,0,1-1.43,1.58,3.55,3.55,0,0,1-2,.58H147.5v4.42a1,1,0,0,1-.26.68,0.94,0.94,0,0,1-1.33,0,1,1,0,0,1-.25-0.69V40a1,1,0,0,1,1-1h4.64A3.6,3.6,0,0,1,153.22,39.64Zm-1,5.88a2.43,2.43,0,0,0,.73-0.93,2.91,2.91,0,0,0,.27-1.24,2.62,2.62,0,0,0-.59-1.73,1.78,1.78,0,0,0-1.41-.71H147.5v5h3.76A1.62,1.62,0,0,0,152.26,45.52Z"/><path class="cls-3" d="M166.44,50.63a5.09,5.09,0,0,1-1.91,1.94,5.44,5.44,0,0,1-5.34,0,5.09,5.09,0,0,1-1.91-1.94,5.59,5.59,0,0,1-.7-2.8,5.71,5.71,0,0,1,.7-2.82,5.05,5.05,0,0,1,1.91-2,5.44,5.44,0,0,1,5.34,0,5.05,5.05,0,0,1,1.91,2,5.71,5.71,0,0,1,.7,2.82A5.59,5.59,0,0,1,166.44,50.63Zm-1.65-4.73a3.35,3.35,0,0,0-1.22-1.32,3.35,3.35,0,0,0-3.42,0,3.34,3.34,0,0,0-1.22,1.32,4.06,4.06,0,0,0-.45,1.93,4,4,0,0,0,.45,1.9A3.35,3.35,0,0,0,160.15,51a3.35,3.35,0,0,0,3.42,0,3.36,3.36,0,0,0,1.22-1.31,4,4,0,0,0,.45-1.9A4.06,4.06,0,0,0,164.79,45.9Z"/><path class="cls-3" d="M175.46,42.62a0.8,0.8,0,0,1,.38.67,1,1,0,0,1-.25.73,0.83,0.83,0,0,1-.61.25,1.9,1.9,0,0,1-.54-0.12,2.24,2.24,0,0,0-.66-0.14,2,2,0,0,0-1.21.43,3.14,3.14,0,0,0-1,1.18,3.72,3.72,0,0,0-.37,1.67v4.82a0.94,0.94,0,0,1-.27.68,0.92,0.92,0,0,1-.69.28,0.9,0.9,0,0,1-.68-0.27,1,1,0,0,1-.26-0.69V43.55a0.94,0.94,0,0,1,.27-0.68,0.89,0.89,0,0,1,.67-0.28,0.92,0.92,0,0,1,.69.28,0.94,0.94,0,0,1,.27.68v1A3.78,3.78,0,0,1,172.56,43a3.54,3.54,0,0,1,2-.63A1.52,1.52,0,0,1,175.46,42.62Z"/><path class="cls-3" d="M191.63,42.87a0.94,0.94,0,0,1,.27.68v5.32a4.39,4.39,0,1,1-8.76,0V43.55a0.94,0.94,0,0,1,.27-0.68,0.89,0.89,0,0,1,.67-0.28,0.92,0.92,0,0,1,.69.28,0.94,0.94,0,0,1,.27.68v5.32q0,2.62,2.46,2.62a2.47,2.47,0,0,0,1.86-.66,2.71,2.71,0,0,0,.64-2V43.55a0.94,0.94,0,0,1,.27-0.68,0.9,0.9,0,0,1,.67-0.28A0.92,0.92,0,0,1,191.63,42.87Zm-4.51-1.16a0.41,0.41,0,0,1-.16-0.38,0.72,0.72,0,0,1,.12-0.36l1.18-2a1.54,1.54,0,0,1,.39-0.46,0.83,0.83,0,0,1,.53-0.18,0.91,0.91,0,0,1,.67.23,0.76,0.76,0,0,1,.21.61,1.05,1.05,0,0,1-.3.7l-1.5,1.64a1.08,1.08,0,0,1-.8.32A0.56,0.56,0,0,1,187.12,41.71Z"/><path class="cls-3" d="M196.52,52.79a0.93,0.93,0,0,1-.68.28,0.89,0.89,0,0,1-.67-0.28,0.94,0.94,0,0,1-.27-0.68V39.23a1,1,0,0,1,1-1,0.89,0.89,0,0,1,.67.28,0.94,0.94,0,0,1,.27.68V52.11A0.93,0.93,0,0,1,196.52,52.79Z"/><path class="cls-3" d="M202.58,44.45v6a0.84,0.84,0,0,0,.9,1,1.45,1.45,0,0,0,.38-0.07,1.48,1.48,0,0,1,.38-0.07,0.55,0.55,0,0,1,.44.22,0.84,0.84,0,0,1-.3,1.28,2,2,0,0,1-1.08.3,4.88,4.88,0,0,1-1.21-.14,1.79,1.79,0,0,1-1-.71,2.86,2.86,0,0,1-.43-1.73v-6h-1.16a0.85,0.85,0,0,1-.88-0.88,0.82,0.82,0,0,1,.25-0.62,0.87,0.87,0,0,1,.63-0.24h1.16V41a1,1,0,0,1,.27-0.68,0.92,0.92,0,0,1,.69-0.28,0.89,0.89,0,0,1,.67.28,1,1,0,0,1,.27.68v1.68h1.66a0.85,0.85,0,0,1,.88.88,0.82,0.82,0,0,1-.25.62,0.87,0.87,0,0,1-.63.24h-1.66Z"/><path class="cls-3" d="M207.35,41a0.83,0.83,0,0,1-.25-0.67V40a0.79,0.79,0,0,1,.27-0.68,1.4,1.4,0,0,1,.83-0.2,1.26,1.26,0,0,1,.81.21,0.83,0.83,0,0,1,.25.67v0.32A0.81,0.81,0,0,1,209,41a1.34,1.34,0,0,1-.82.2A1.29,1.29,0,0,1,207.35,41Zm1.52,11.83a0.92,0.92,0,0,1-.69.28,0.89,0.89,0,0,1-.67-0.28,0.94,0.94,0,0,1-.27-0.68V43.45a0.94,0.94,0,0,1,.27-0.68,0.89,0.89,0,0,1,.67-0.28,0.92,0.92,0,0,1,.69.28,0.94,0.94,0,0,1,.27.68v8.66A0.94,0.94,0,0,1,208.87,52.79Z"/><path class="cls-3" d="M227.4,46.77v5.34a1,1,0,0,1-.26.69,0.9,0.9,0,0,1-.68.27,0.92,0.92,0,0,1-.69-0.28,0.94,0.94,0,0,1-.27-0.68V46.79q0-2.62-2.2-2.62a2.85,2.85,0,0,0-1.41.35,2.53,2.53,0,0,0-1,.95,2.57,2.57,0,0,0-.35,1.32v5.32a0.94,0.94,0,0,1-.27.68,0.92,0.92,0,0,1-.69.28,0.9,0.9,0,0,1-.68-0.27,1,1,0,0,1-.26-0.69V46.77a3.22,3.22,0,0,0-.5-1.89,1.89,1.89,0,0,0-1.66-.71,2.68,2.68,0,0,0-2,.75,2.48,2.48,0,0,0-.77,1.85v5.34a0.94,0.94,0,0,1-.27.68,0.92,0.92,0,0,1-.69.28,0.9,0.9,0,0,1-.68-0.27,1,1,0,0,1-.26-0.69V43.55a0.94,0.94,0,0,1,.27-0.68,0.89,0.89,0,0,1,.67-0.28,0.92,0.92,0,0,1,.69.28,0.94,0.94,0,0,1,.27.68v0.7a4.38,4.38,0,0,1,1.39-1.31,3.57,3.57,0,0,1,1.89-.53,3.07,3.07,0,0,1,3.22,2.2,4.25,4.25,0,0,1,1.46-1.52,3.83,3.83,0,0,1,2.16-.68Q227.4,42.41,227.4,46.77Z"/><path class="cls-3" d="M239.46,50.63a5.09,5.09,0,0,1-1.91,1.94,5.44,5.44,0,0,1-5.34,0,5.09,5.09,0,0,1-1.91-1.94,5.59,5.59,0,0,1-.7-2.8,5.71,5.71,0,0,1,.7-2.82,5.05,5.05,0,0,1,1.91-2,5.44,5.44,0,0,1,5.34,0,5.05,5.05,0,0,1,1.91,2,5.71,5.71,0,0,1,.7,2.82A5.59,5.59,0,0,1,239.46,50.63Zm-1.65-4.73a3.35,3.35,0,0,0-1.22-1.32,3.35,3.35,0,0,0-3.42,0,3.34,3.34,0,0,0-1.22,1.32,4.06,4.06,0,0,0-.45,1.93,4,4,0,0,0,.45,1.9A3.35,3.35,0,0,0,233.17,51a3.35,3.35,0,0,0,3.42,0,3.36,3.36,0,0,0,1.22-1.31,4,4,0,0,0,.45-1.9A4.06,4.06,0,0,0,237.81,45.9Z"/><path class="cls-3" d="M244.44,54.1a3.81,3.81,0,0,1-.81,1.11,1.48,1.48,0,0,1-1,.46,0.89,0.89,0,0,1-.56-0.17,0.58,0.58,0,0,1-.22-0.49,0.47,0.47,0,0,1,.14-0.39,1,1,0,0,1,.33-0.17l0.29-.1A1.07,1.07,0,0,0,243,54a0.91,0.91,0,0,0,.15-0.51,0.49,0.49,0,0,0-.18-0.38,0.67,0.67,0,0,0-.46-0.16,0.89,0.89,0,0,0-.54.16,0.75,0.75,0,0,1-.3-0.25,0.73,0.73,0,0,1-.1-0.41,1.12,1.12,0,0,1,.52-0.85,1.75,1.75,0,0,1,1.06-.37,1.49,1.49,0,0,1,1.16.46,1.83,1.83,0,0,1,.42,1.28A2.67,2.67,0,0,1,244.44,54.1Z"/><path class="cls-3" d="M254.5,52.79a0.93,0.93,0,0,1-.68.28,0.89,0.89,0,0,1-.67-0.28,0.94,0.94,0,0,1-.27-0.68V39.23a1,1,0,0,1,1-1,0.89,0.89,0,0,1,.67.28,1,1,0,0,1,.27.68V52.11A0.92,0.92,0,0,1,254.5,52.79Z"/><path class="cls-3" d="M259.56,52.79a0.93,0.93,0,0,1-.68.28,0.89,0.89,0,0,1-.67-0.28,0.94,0.94,0,0,1-.27-0.68V39.23a1,1,0,0,1,1-1,0.89,0.89,0,0,1,.67.28,0.94,0.94,0,0,1,.27.68V52.11A0.93,0.93,0,0,1,259.56,52.79Z"/><path class="cls-3" d="M271.54,48a1,1,0,0,1-.66.25h-7a3.48,3.48,0,0,0,1.11,2.34,3.4,3.4,0,0,0,2.37.88,3.72,3.72,0,0,0,1.56-.28,3.91,3.91,0,0,0,1.06-.72,1.13,1.13,0,0,1,.58-0.18,0.76,0.76,0,0,1,.57.24,0.79,0.79,0,0,1,.23.56,1,1,0,0,1-.4.76,4.71,4.71,0,0,1-1.54,1,5.06,5.06,0,0,1-2,.4,5.79,5.79,0,0,1-2.85-.68,4.73,4.73,0,0,1-1.9-1.9,5.63,5.63,0,0,1-.67-2.76,6.08,6.08,0,0,1,.69-2.95,5,5,0,0,1,1.82-2,4.69,4.69,0,0,1,4.83,0,5,5,0,0,1,1.8,1.82,5.2,5.2,0,0,1,.7,2.6A0.86,0.86,0,0,1,271.54,48ZM265,44.74a3.1,3.1,0,0,0-1.08,2h5.9V46.53a2.44,2.44,0,0,0-1-1.74,3,3,0,0,0-1.93-.68A3.09,3.09,0,0,0,265,44.74Z"/><path class="cls-3" d="M283,46.67v5.44a0.94,0.94,0,0,1-.27.68,0.92,0.92,0,0,1-.69.28,0.89,0.89,0,0,1-.67-0.28,0.94,0.94,0,0,1-.27-0.68V46.69a3,3,0,0,0-.54-1.88,2.08,2.08,0,0,0-1.76-.7,3,3,0,0,0-1.45.35,2.66,2.66,0,0,0-1,.94,2.38,2.38,0,0,0-.37,1.29v5.42a0.94,0.94,0,0,1-.27.68,0.92,0.92,0,0,1-.69.28,0.9,0.9,0,0,1-.68-0.27,1,1,0,0,1-.26-0.69V43.55a0.94,0.94,0,0,1,.27-0.68,0.89,0.89,0,0,1,.67-0.28,0.92,0.92,0,0,1,.69.28,0.94,0.94,0,0,1,.27.68v0.7a4.29,4.29,0,0,1,1.45-1.35,3.84,3.84,0,0,1,2-.55Q283,42.35,283,46.67Z"/><path class="cls-3" d="M295,42.72a1,1,0,0,1,.27.71v8.68a0.94,0.94,0,0,1-.27.68,0.92,0.92,0,0,1-.69.28,0.9,0.9,0,0,1-.68-0.27,1,1,0,0,1-.26-0.69V51.59A4.28,4.28,0,0,1,292,52.78a4,4,0,0,1-1.94.49,4.54,4.54,0,0,1-2.47-.7,4.81,4.81,0,0,1-1.74-2,6.57,6.57,0,0,1,0-5.62,4.83,4.83,0,0,1,1.73-2,4.57,4.57,0,0,1,4.39-.26,4.08,4.08,0,0,1,1.45,1.12V43.43a1,1,0,0,1,.26-0.7,0.88,0.88,0,0,1,.68-0.28A0.93,0.93,0,0,1,295,42.72ZM291.91,51A3.25,3.25,0,0,0,293,49.71a4.56,4.56,0,0,0,0-3.78,3.33,3.33,0,0,0-1.14-1.33,2.93,2.93,0,0,0-1.67-.49,3,3,0,0,0-1.67.48,3.24,3.24,0,0,0-1.14,1.32,4.62,4.62,0,0,0,0,3.8A3.24,3.24,0,0,0,288.57,51,3.15,3.15,0,0,0,291.91,51Z"/><path class="cls-3" d="M312.58,46.67v5.44a0.94,0.94,0,0,1-.27.68,0.92,0.92,0,0,1-.69.28,0.89,0.89,0,0,1-.67-0.28,0.94,0.94,0,0,1-.27-0.68V46.69a3,3,0,0,0-.54-1.88,2.08,2.08,0,0,0-1.76-.7,3,3,0,0,0-1.45.35,2.66,2.66,0,0,0-1,.94,2.38,2.38,0,0,0-.37,1.29v5.42a0.94,0.94,0,0,1-.27.68,0.92,0.92,0,0,1-.69.28,0.9,0.9,0,0,1-.68-0.27,1,1,0,0,1-.26-0.69V43.55a0.94,0.94,0,0,1,.27-0.68,0.89,0.89,0,0,1,.67-0.28,0.92,0.92,0,0,1,.69.28,0.94,0.94,0,0,1,.27.68v0.7A4.29,4.29,0,0,1,307,42.9a3.84,3.84,0,0,1,2-.55Q312.58,42.35,312.58,46.67Z"/><path class="cls-3" d="M323.91,42.87a0.94,0.94,0,0,1,.27.68v5.32a4.39,4.39,0,1,1-8.76,0V43.55a0.94,0.94,0,0,1,.27-0.68,0.89,0.89,0,0,1,.67-0.28,0.92,0.92,0,0,1,.69.28,0.94,0.94,0,0,1,.27.68v5.32q0,2.62,2.46,2.62a2.47,2.47,0,0,0,1.86-.66,2.71,2.71,0,0,0,.64-2V43.55a0.94,0.94,0,0,1,.27-0.68,0.89,0.89,0,0,1,.67-0.28A0.92,0.92,0,0,1,323.91,42.87Z"/><path class="cls-3" d="M335.92,48a1,1,0,0,1-.66.25h-7a3.48,3.48,0,0,0,1.11,2.34,3.4,3.4,0,0,0,2.37.88,3.72,3.72,0,0,0,1.56-.28,3.92,3.92,0,0,0,1.06-.72,1.13,1.13,0,0,1,.58-0.18,0.76,0.76,0,0,1,.57.24,0.78,0.78,0,0,1,.23.56,1,1,0,0,1-.4.76,4.7,4.7,0,0,1-1.54,1,5.06,5.06,0,0,1-2,.4,5.79,5.79,0,0,1-2.85-.68,4.73,4.73,0,0,1-1.9-1.9,5.63,5.63,0,0,1-.67-2.76,6.08,6.08,0,0,1,.69-2.95,5,5,0,0,1,1.82-2,4.68,4.68,0,0,1,4.83,0,5,5,0,0,1,1.8,1.82,5.2,5.2,0,0,1,.7,2.6A0.86,0.86,0,0,1,335.92,48Zm-6.54-3.3a3.1,3.1,0,0,0-1.08,2h5.9V46.53a2.44,2.44,0,0,0-.95-1.74,3,3,0,0,0-1.93-.68A3.09,3.09,0,0,0,329.38,44.74Z"/><path class="cls-3" d="M347,42.74a0.79,0.79,0,0,1,.26.59,1.36,1.36,0,0,1-.14.5l-3.8,8.64a1.05,1.05,0,0,1-.34.42,0.92,0.92,0,0,1-.48.18,0.91,0.91,0,0,1-.59-0.12,1,1,0,0,1-.41-0.48l-3.8-8.64a1.65,1.65,0,0,1-.1-0.5,0.8,0.8,0,0,1,.26-0.58,0.92,0.92,0,0,1,.68-0.26,1,1,0,0,1,.54.15,1,1,0,0,1,.38.45l3,7,3-7a0.91,0.91,0,0,1,.86-0.6A0.89,0.89,0,0,1,347,42.74Z"/><path class="cls-3" d="M358.43,42.72a1,1,0,0,1,.27.71v8.68a0.94,0.94,0,0,1-.27.68,0.92,0.92,0,0,1-.69.28,0.9,0.9,0,0,1-.68-0.27,1,1,0,0,1-.26-0.69V51.59a4.29,4.29,0,0,1-1.42,1.19,4,4,0,0,1-1.94.49,4.53,4.53,0,0,1-2.47-.7,4.81,4.81,0,0,1-1.74-2,6.58,6.58,0,0,1,0-5.62,4.83,4.83,0,0,1,1.73-2,4.42,4.42,0,0,1,2.42-.7,4.48,4.48,0,0,1,2,.44,4.09,4.09,0,0,1,1.45,1.12V43.43a1,1,0,0,1,.26-0.7,0.88,0.88,0,0,1,.68-0.28A0.94,0.94,0,0,1,358.43,42.72ZM355.33,51a3.25,3.25,0,0,0,1.14-1.32,4.57,4.57,0,0,0,0-3.78,3.33,3.33,0,0,0-1.14-1.33,2.93,2.93,0,0,0-1.67-.49,3,3,0,0,0-1.67.48,3.24,3.24,0,0,0-1.14,1.32,4.61,4.61,0,0,0,0,3.8A3.24,3.24,0,0,0,352,51,3.15,3.15,0,0,0,355.33,51Z"/><path class="cls-3" d="M377,46.77v5.34a1,1,0,0,1-.26.69,0.9,0.9,0,0,1-.68.27,0.92,0.92,0,0,1-.69-0.28,0.94,0.94,0,0,1-.27-0.68V46.79q0-2.62-2.2-2.62a2.86,2.86,0,0,0-1.41.35,2.54,2.54,0,0,0-1,.95,2.58,2.58,0,0,0-.35,1.32v5.32a0.94,0.94,0,0,1-.27.68,0.92,0.92,0,0,1-.69.28,0.9,0.9,0,0,1-.68-0.27,1,1,0,0,1-.26-0.69V46.77a3.22,3.22,0,0,0-.5-1.89,1.89,1.89,0,0,0-1.66-.71,2.68,2.68,0,0,0-2,.75,2.48,2.48,0,0,0-.77,1.85v5.34a0.94,0.94,0,0,1-.27.68,0.92,0.92,0,0,1-.69.28,0.9,0.9,0,0,1-.68-0.27,1,1,0,0,1-.26-0.69V43.55a0.94,0.94,0,0,1,.27-0.68,0.89,0.89,0,0,1,.67-0.28,0.92,0.92,0,0,1,.69.28,0.94,0.94,0,0,1,.27.68v0.7a4.38,4.38,0,0,1,1.39-1.31,3.56,3.56,0,0,1,1.89-.53,3.07,3.07,0,0,1,3.22,2.2,4.24,4.24,0,0,1,1.46-1.52,3.83,3.83,0,0,1,2.16-.68Q377,42.41,377,46.77Z"/><path class="cls-3" d="M388.78,48a1,1,0,0,1-.66.25h-7a3.47,3.47,0,0,0,1.11,2.34,3.4,3.4,0,0,0,2.37.88,3.72,3.72,0,0,0,1.56-.28,3.91,3.91,0,0,0,1.06-.72,1.13,1.13,0,0,1,.58-0.18,0.76,0.76,0,0,1,.57.24,0.78,0.78,0,0,1,.23.56,1,1,0,0,1-.4.76,4.7,4.7,0,0,1-1.54,1,5.06,5.06,0,0,1-2,.4,5.79,5.79,0,0,1-2.85-.68,4.74,4.74,0,0,1-1.9-1.9,5.63,5.63,0,0,1-.67-2.76,6.08,6.08,0,0,1,.69-2.95,5,5,0,0,1,1.82-2,4.69,4.69,0,0,1,4.83,0,5,5,0,0,1,1.8,1.82,5.2,5.2,0,0,1,.7,2.6A0.86,0.86,0,0,1,388.78,48Zm-6.54-3.3a3.1,3.1,0,0,0-1.08,2h5.9V46.53a2.44,2.44,0,0,0-.95-1.74,3,3,0,0,0-1.93-.68A3.09,3.09,0,0,0,382.24,44.74Z"/><path class="cls-3" d="M400.22,46.67v5.44a0.94,0.94,0,0,1-.27.68,0.92,0.92,0,0,1-.69.28,0.89,0.89,0,0,1-.67-0.28,0.94,0.94,0,0,1-.27-0.68V46.69a3,3,0,0,0-.54-1.88,2.09,2.09,0,0,0-1.76-.7,3,3,0,0,0-1.45.35,2.66,2.66,0,0,0-1,.94,2.38,2.38,0,0,0-.37,1.29v5.42a0.94,0.94,0,0,1-.27.68,0.92,0.92,0,0,1-.69.28,0.9,0.9,0,0,1-.68-0.27,1,1,0,0,1-.26-0.69V43.55a0.94,0.94,0,0,1,.27-0.68,0.89,0.89,0,0,1,.67-0.28,0.92,0.92,0,0,1,.69.28,0.94,0.94,0,0,1,.27.68v0.7a4.3,4.3,0,0,1,1.45-1.35,3.84,3.84,0,0,1,2-.55Q400.22,42.35,400.22,46.67Z"/><path class="cls-3" d="M405.9,44.45v6a0.84,0.84,0,0,0,.9,1,1.45,1.45,0,0,0,.38-0.07,1.47,1.47,0,0,1,.38-0.07,0.55,0.55,0,0,1,.44.22,0.84,0.84,0,0,1-.3,1.28,2,2,0,0,1-1.08.3,4.89,4.89,0,0,1-1.21-.14,1.79,1.79,0,0,1-1-.71,2.86,2.86,0,0,1-.43-1.73v-6h-1.16a0.85,0.85,0,0,1-.88-0.88,0.82,0.82,0,0,1,.25-0.62,0.87,0.87,0,0,1,.63-0.24H404V41a1,1,0,0,1,.27-0.68,0.92,0.92,0,0,1,.69-0.28,0.89,0.89,0,0,1,.67.28,1,1,0,0,1,.27.68v1.68h1.66a0.85,0.85,0,0,1,.88.88,0.82,0.82,0,0,1-.25.62,0.87,0.87,0,0,1-.63.24H405.9Z"/><path class="cls-3" d="M419.46,48a1,1,0,0,1-.66.25h-7a3.47,3.47,0,0,0,1.11,2.34,3.4,3.4,0,0,0,2.37.88,3.72,3.72,0,0,0,1.56-.28,3.91,3.91,0,0,0,1.06-.72,1.13,1.13,0,0,1,.58-0.18,0.76,0.76,0,0,1,.57.24,0.78,0.78,0,0,1,.23.56,1,1,0,0,1-.4.76,4.7,4.7,0,0,1-1.54,1,5.06,5.06,0,0,1-2,.4,5.79,5.79,0,0,1-2.85-.68,4.74,4.74,0,0,1-1.9-1.9,5.63,5.63,0,0,1-.67-2.76,6.08,6.08,0,0,1,.69-2.95,5,5,0,0,1,1.82-2,4.69,4.69,0,0,1,4.83,0,5,5,0,0,1,1.8,1.82,5.2,5.2,0,0,1,.7,2.6A0.86,0.86,0,0,1,419.46,48Zm-6.54-3.3a3.1,3.1,0,0,0-1.08,2h5.9V46.53a2.44,2.44,0,0,0-.95-1.74,3,3,0,0,0-1.93-.68A3.09,3.09,0,0,0,412.92,44.74Z"/><path class="cls-3" d="M436.4,48a1,1,0,0,1-.66.25h-7a3.47,3.47,0,0,0,1.11,2.34,3.4,3.4,0,0,0,2.37.88,3.72,3.72,0,0,0,1.56-.28,3.91,3.91,0,0,0,1.06-.72,1.13,1.13,0,0,1,.58-0.18,0.76,0.76,0,0,1,.57.24,0.78,0.78,0,0,1,.23.56,1,1,0,0,1-.4.76,4.7,4.7,0,0,1-1.54,1,5.06,5.06,0,0,1-2,.4,5.79,5.79,0,0,1-2.85-.68,4.74,4.74,0,0,1-1.9-1.9,5.63,5.63,0,0,1-.67-2.76,6.08,6.08,0,0,1,.69-2.95,5,5,0,0,1,1.82-2,4.69,4.69,0,0,1,4.83,0,5,5,0,0,1,1.8,1.82,5.2,5.2,0,0,1,.7,2.6A0.86,0.86,0,0,1,436.4,48Zm-6.54-3.3a3.1,3.1,0,0,0-1.08,2h5.9V46.53a2.44,2.44,0,0,0-.95-1.74,3,3,0,0,0-1.93-.68A3.09,3.09,0,0,0,429.86,44.74Z"/><path class="cls-3" d="M438.12,50.89a0.81,0.81,0,0,1,.42-0.68,0.79,0.79,0,0,1,.46-0.14,0.92,0.92,0,0,1,.66.3,4.23,4.23,0,0,0,1.29,1,3.69,3.69,0,0,0,1.65.34,2.82,2.82,0,0,0,1.34-.35,1.14,1.14,0,0,0,.58-1.07,1.15,1.15,0,0,0-.59-1,6.71,6.71,0,0,0-1.73-.66,12.77,12.77,0,0,1-1.86-.63,3.33,3.33,0,0,1-1.25-1,2.81,2.81,0,0,1,0-3.23,3.39,3.39,0,0,1,1.36-1.06,4.47,4.47,0,0,1,1.85-.38,5.35,5.35,0,0,1,1.91.36,3.6,3.6,0,0,1,1.55,1.1,0.88,0.88,0,0,1,.24.58,0.86,0.86,0,0,1-.32.62,0.72,0.72,0,0,1-.5.18A0.75,0.75,0,0,1,444.6,45a2.82,2.82,0,0,0-1-.74,3.41,3.41,0,0,0-1.35-.26,2.52,2.52,0,0,0-1.29.31,1.12,1.12,0,0,0-.53,1.05,1.16,1.16,0,0,0,.61,1,7.68,7.68,0,0,0,1.81.66,11.17,11.17,0,0,1,1.76.6,3.06,3.06,0,0,1,1.18,1,2.65,2.65,0,0,1,.48,1.65,2.56,2.56,0,0,1-.54,1.63,3.48,3.48,0,0,1-1.41,1.06,4.68,4.68,0,0,1-1.85.37,6.07,6.07,0,0,1-2.33-.44,4.34,4.34,0,0,1-1.81-1.4A1,1,0,0,1,438.12,50.89Z"/><path class="cls-3" d="M451.28,44.45v6a0.84,0.84,0,0,0,.9,1,1.45,1.45,0,0,0,.38-0.07,1.47,1.47,0,0,1,.38-0.07,0.55,0.55,0,0,1,.44.22,0.84,0.84,0,0,1-.3,1.28,2,2,0,0,1-1.08.3,4.89,4.89,0,0,1-1.21-.14,1.79,1.79,0,0,1-1-.71,2.86,2.86,0,0,1-.43-1.73v-6h-1.16a0.85,0.85,0,0,1-.88-0.88,0.82,0.82,0,0,1,.25-0.62,0.87,0.87,0,0,1,.63-0.24h1.16V41a1,1,0,0,1,.27-0.68,0.92,0.92,0,0,1,.69-0.28,0.89,0.89,0,0,1,.67.28,1,1,0,0,1,.27.68v1.68h1.66a0.85,0.85,0,0,1,.88.88,0.82,0.82,0,0,1-.25.62,0.87,0.87,0,0,1-.63.24h-1.66Z"/><path class="cls-3" d="M464.84,48a1,1,0,0,1-.66.25h-7a3.47,3.47,0,0,0,1.11,2.34,3.4,3.4,0,0,0,2.37.88,3.72,3.72,0,0,0,1.56-.28,3.91,3.91,0,0,0,1.06-.72,1.13,1.13,0,0,1,.58-0.18,0.76,0.76,0,0,1,.57.24,0.78,0.78,0,0,1,.23.56,1,1,0,0,1-.4.76,4.7,4.7,0,0,1-1.54,1,5.06,5.06,0,0,1-2,.4,5.79,5.79,0,0,1-2.85-.68,4.74,4.74,0,0,1-1.9-1.9,5.63,5.63,0,0,1-.67-2.76A6.08,6.08,0,0,1,456,45a5,5,0,0,1,1.82-2,4.69,4.69,0,0,1,4.83,0,5,5,0,0,1,1.8,1.82,5.2,5.2,0,0,1,.7,2.6A0.86,0.86,0,0,1,464.84,48Zm-6.54-3.3a3.1,3.1,0,0,0-1.08,2h5.9V46.53a2.44,2.44,0,0,0-.95-1.74,3,3,0,0,0-1.93-.68A3.09,3.09,0,0,0,458.3,44.74Z"/><path class="cls-3" d="M148.93,64.39a1.55,1.55,0,0,0-.31,1v1.4h2a0.88,0.88,0,0,1,.65.25,0.85,0.85,0,0,1,.25.63,0.82,0.82,0,0,1-.25.62,0.9,0.9,0,0,1-.65.24h-2v7.6a0.94,0.94,0,0,1-.27.68,0.92,0.92,0,0,1-.69.28,0.89,0.89,0,0,1-.67-0.28,0.94,0.94,0,0,1-.27-0.68v-7.6h-1.24a0.91,0.91,0,0,1-.64-0.24,0.81,0.81,0,0,1-.26-0.62,0.84,0.84,0,0,1,.26-0.63,0.89,0.89,0,0,1,.64-0.25h1.24v-1.4a2.89,2.89,0,0,1,.9-2.23,3.61,3.61,0,0,1,2.54-.83,2.74,2.74,0,0,1,1.2.25,0.8,0.8,0,0,1,.52.75,0.9,0.9,0,0,1-.23.63,0.72,0.72,0,0,1-.55.25l-0.44-.08A3,3,0,0,0,149.9,64,1.15,1.15,0,0,0,148.93,64.39Z"/><path class="cls-3" d="M162.44,74.63a5.09,5.09,0,0,1-1.91,1.94,5.44,5.44,0,0,1-5.34,0,5.08,5.08,0,0,1-1.91-1.94,5.59,5.59,0,0,1-.7-2.8,5.71,5.71,0,0,1,.7-2.82,5,5,0,0,1,1.91-2,5.44,5.44,0,0,1,5.34,0,5.05,5.05,0,0,1,1.91,2,5.72,5.72,0,0,1,.7,2.82A5.6,5.6,0,0,1,162.44,74.63Zm-1.65-4.73a3.34,3.34,0,0,0-1.22-1.32,3.35,3.35,0,0,0-3.42,0,3.35,3.35,0,0,0-1.22,1.32,4.06,4.06,0,0,0-.45,1.93,4,4,0,0,0,.45,1.9A3.36,3.36,0,0,0,156.15,75a3.35,3.35,0,0,0,3.42,0,3.36,3.36,0,0,0,1.22-1.31,4,4,0,0,0,.45-1.9A4.06,4.06,0,0,0,160.79,69.9Z"/><path class="cls-3" d="M171.46,66.62a0.8,0.8,0,0,1,.38.67,1,1,0,0,1-.25.73,0.83,0.83,0,0,1-.61.25,1.9,1.9,0,0,1-.54-0.12,2.23,2.23,0,0,0-.66-0.14,2,2,0,0,0-1.21.43,3.14,3.14,0,0,0-1,1.18,3.73,3.73,0,0,0-.37,1.67v4.82a0.94,0.94,0,0,1-.27.68,0.92,0.92,0,0,1-.69.28,0.9,0.9,0,0,1-.68-0.27,1,1,0,0,1-.26-0.69V67.55a0.94,0.94,0,0,1,.27-0.68,0.89,0.89,0,0,1,.67-0.28,0.92,0.92,0,0,1,.69.28,0.94,0.94,0,0,1,.27.68v1A3.79,3.79,0,0,1,168.56,67a3.54,3.54,0,0,1,2-.63A1.52,1.52,0,0,1,171.46,66.62Z"/><path class="cls-3" d="M189.12,70.77v5.34a1,1,0,0,1-.26.69,0.9,0.9,0,0,1-.68.27,0.92,0.92,0,0,1-.69-0.28,0.94,0.94,0,0,1-.27-0.68V70.79q0-2.62-2.2-2.62a2.85,2.85,0,0,0-1.41.35,2.53,2.53,0,0,0-1,.95,2.58,2.58,0,0,0-.35,1.32v5.32a0.94,0.94,0,0,1-.27.68,0.92,0.92,0,0,1-.69.28,0.9,0.9,0,0,1-.68-0.27,1,1,0,0,1-.26-0.69V70.77a3.22,3.22,0,0,0-.5-1.89,1.89,1.89,0,0,0-1.66-.71,2.68,2.68,0,0,0-2,.75,2.48,2.48,0,0,0-.77,1.85v5.34a0.94,0.94,0,0,1-.27.68,0.92,0.92,0,0,1-.69.28,0.9,0.9,0,0,1-.68-0.27,1,1,0,0,1-.26-0.69V67.55a0.94,0.94,0,0,1,.27-0.68,0.89,0.89,0,0,1,.67-0.28,0.92,0.92,0,0,1,.69.28,0.94,0.94,0,0,1,.27.68v0.7a4.38,4.38,0,0,1,1.39-1.31,3.56,3.56,0,0,1,1.89-.53,3.07,3.07,0,0,1,3.22,2.2,4.26,4.26,0,0,1,1.46-1.52,3.83,3.83,0,0,1,2.16-.68Q189.12,66.41,189.12,70.77Z"/><path class="cls-3" d="M201.15,66.72a1,1,0,0,1,.27.71v8.68a0.94,0.94,0,0,1-.27.68,0.92,0.92,0,0,1-.69.28,0.9,0.9,0,0,1-.68-0.27,1,1,0,0,1-.26-0.69V75.59a4.29,4.29,0,0,1-1.42,1.19,4,4,0,0,1-1.94.49,4.53,4.53,0,0,1-2.47-.7,4.81,4.81,0,0,1-1.74-2,6.58,6.58,0,0,1,0-5.62,4.83,4.83,0,0,1,1.73-2,4.42,4.42,0,0,1,2.42-.7,4.47,4.47,0,0,1,2,.44,4.09,4.09,0,0,1,1.45,1.12V67.43a1,1,0,0,1,.26-0.7,0.89,0.89,0,0,1,.68-0.28A0.94,0.94,0,0,1,201.15,66.72ZM198,75a3.24,3.24,0,0,0,1.14-1.32,4.56,4.56,0,0,0,0-3.78A3.32,3.32,0,0,0,198,68.6a2.93,2.93,0,0,0-1.67-.49,3,3,0,0,0-1.67.48,3.25,3.25,0,0,0-1.14,1.32,4.61,4.61,0,0,0,0,3.8A3.25,3.25,0,0,0,194.71,75,3.15,3.15,0,0,0,198,75Z"/><path class="cls-3" d="M207.08,68.45v6a0.84,0.84,0,0,0,.9,1,1.45,1.45,0,0,0,.38-0.07,1.47,1.47,0,0,1,.38-0.07,0.55,0.55,0,0,1,.44.22,0.84,0.84,0,0,1-.3,1.28,2,2,0,0,1-1.08.3,4.89,4.89,0,0,1-1.21-.14,1.79,1.79,0,0,1-1-.71,2.86,2.86,0,0,1-.43-1.73v-6H204a0.85,0.85,0,0,1-.88-0.88,0.82,0.82,0,0,1,.25-0.62,0.87,0.87,0,0,1,.63-0.24h1.16V65a1,1,0,0,1,.27-0.68,0.92,0.92,0,0,1,.69-0.28,0.9,0.9,0,0,1,.67.28,1,1,0,0,1,.27.68v1.68h1.66a0.85,0.85,0,0,1,.88.88,0.82,0.82,0,0,1-.25.62,0.87,0.87,0,0,1-.63.24h-1.66Z"/><path class="cls-3" d="M221,74.63A5.09,5.09,0,0,1,219,76.57a5.44,5.44,0,0,1-5.34,0,5.09,5.09,0,0,1-1.91-1.94,5.59,5.59,0,0,1-.7-2.8,5.71,5.71,0,0,1,.7-2.82,5.05,5.05,0,0,1,1.91-2,5.44,5.44,0,0,1,5.34,0A5.05,5.05,0,0,1,221,69a5.71,5.71,0,0,1,.7,2.82A5.59,5.59,0,0,1,221,74.63Zm-1.65-4.73a3.35,3.35,0,0,0-1.22-1.32,3.35,3.35,0,0,0-3.42,0,3.34,3.34,0,0,0-1.22,1.32,4.06,4.06,0,0,0-.45,1.93,4,4,0,0,0,.45,1.9A3.35,3.35,0,0,0,214.67,75a3.35,3.35,0,0,0,3.42,0,3.36,3.36,0,0,0,1.22-1.31,4,4,0,0,0,.45-1.9A4.06,4.06,0,0,0,219.31,69.9Z"/><path class="cls-3" d="M228.62,74.89a0.81,0.81,0,0,1,.42-0.68,0.78,0.78,0,0,1,.46-0.14,0.92,0.92,0,0,1,.66.3,4.21,4.21,0,0,0,1.29,1,3.68,3.68,0,0,0,1.65.34,2.82,2.82,0,0,0,1.34-.35,1.14,1.14,0,0,0,.58-1.07,1.15,1.15,0,0,0-.59-1,6.71,6.71,0,0,0-1.73-.66,12.78,12.78,0,0,1-1.86-.63,3.34,3.34,0,0,1-1.25-1,2.81,2.81,0,0,1,0-3.23,3.38,3.38,0,0,1,1.36-1.06,4.47,4.47,0,0,1,1.85-.38,5.35,5.35,0,0,1,1.91.36,3.6,3.6,0,0,1,1.55,1.1,0.88,0.88,0,0,1,.24.58,0.86,0.86,0,0,1-.32.62,0.72,0.72,0,0,1-.5.18A0.75,0.75,0,0,1,235.1,69a2.81,2.81,0,0,0-1-.74,3.41,3.41,0,0,0-1.35-.26,2.52,2.52,0,0,0-1.29.31,1.12,1.12,0,0,0-.53,1.05,1.16,1.16,0,0,0,.61,1,7.69,7.69,0,0,0,1.81.66,11.19,11.19,0,0,1,1.76.6,3.07,3.07,0,0,1,1.18,1,2.65,2.65,0,0,1,.48,1.65,2.57,2.57,0,0,1-.54,1.63,3.49,3.49,0,0,1-1.41,1.06,4.69,4.69,0,0,1-1.85.37,6.08,6.08,0,0,1-2.33-.44,4.34,4.34,0,0,1-1.81-1.4A1,1,0,0,1,228.62,74.89Z"/><path class="cls-3" d="M247.84,72a1,1,0,0,1-.66.25h-7a3.47,3.47,0,0,0,1.11,2.34,3.4,3.4,0,0,0,2.37.88,3.72,3.72,0,0,0,1.56-.28,3.91,3.91,0,0,0,1.06-.72,1.12,1.12,0,0,1,.58-0.18,0.76,0.76,0,0,1,.57.24,0.78,0.78,0,0,1,.23.56,1,1,0,0,1-.4.76,4.7,4.7,0,0,1-1.54,1,5.05,5.05,0,0,1-2,.4,5.78,5.78,0,0,1-2.85-.68,4.73,4.73,0,0,1-1.9-1.9,5.63,5.63,0,0,1-.67-2.76A6.07,6.07,0,0,1,239,69a5,5,0,0,1,1.82-2,4.69,4.69,0,0,1,4.83,0,5,5,0,0,1,1.8,1.82,5.2,5.2,0,0,1,.7,2.6A0.86,0.86,0,0,1,247.84,72Zm-6.54-3.3a3.1,3.1,0,0,0-1.08,2h5.9V70.53a2.45,2.45,0,0,0-1-1.74,3,3,0,0,0-1.93-.68A3.09,3.09,0,0,0,241.3,68.74Z"/><path class="cls-3" d="M259.69,66.72a1,1,0,0,1,.27.71v8.8a5,5,0,0,1-.69,2.71,4.14,4.14,0,0,1-1.87,1.61,6.53,6.53,0,0,1-2.66.52,7.54,7.54,0,0,1-1.87-.28,3.31,3.31,0,0,1-1.37-.58,0.93,0.93,0,0,1-.62-0.8,0.92,0.92,0,0,1,.08-0.32,0.76,0.76,0,0,1,.74-0.5,1.51,1.51,0,0,1,.56.12,7.52,7.52,0,0,0,2.5.62,3.53,3.53,0,0,0,2.45-.77,2.71,2.71,0,0,0,.85-2.11V75.37a3.48,3.48,0,0,1-1.41,1.34,4.19,4.19,0,0,1-2.09.56,4.72,4.72,0,0,1-2.52-.7,4.86,4.86,0,0,1-1.79-2,6.4,6.4,0,0,1,0-5.62,4.89,4.89,0,0,1,1.78-2,4.64,4.64,0,0,1,2.49-.7,4.55,4.55,0,0,1,3.54,1.72V67.43a1,1,0,0,1,.26-0.7,0.89,0.89,0,0,1,.68-0.28A0.93,0.93,0,0,1,259.69,66.72ZM256.52,75a3.22,3.22,0,0,0,1.19-1.32,4.18,4.18,0,0,0,.43-1.91,4.12,4.12,0,0,0-.43-1.9,3.31,3.31,0,0,0-1.19-1.32,3.2,3.2,0,0,0-1.74-.48,3.16,3.16,0,0,0-1.72.48,3.3,3.3,0,0,0-1.19,1.33,4.37,4.37,0,0,0,0,3.78A3.3,3.3,0,0,0,253.06,75a3.16,3.16,0,0,0,1.72.48A3.24,3.24,0,0,0,256.52,75Z"/><path class="cls-3" d="M271.11,66.87a0.94,0.94,0,0,1,.27.68v5.32a4.39,4.39,0,1,1-8.76,0V67.55a0.94,0.94,0,0,1,.27-0.68,0.89,0.89,0,0,1,.67-0.28,0.92,0.92,0,0,1,.69.28,0.94,0.94,0,0,1,.27.68v5.32q0,2.62,2.46,2.62a2.47,2.47,0,0,0,1.86-.66,2.71,2.71,0,0,0,.64-2V67.55a0.94,0.94,0,0,1,.27-0.68,0.89,0.89,0,0,1,.67-0.28A0.92,0.92,0,0,1,271.11,66.87Zm-4.51-1.16a0.41,0.41,0,0,1-.16-0.38,0.72,0.72,0,0,1,.12-0.36l1.18-2a1.55,1.55,0,0,1,.39-0.46,0.84,0.84,0,0,1,.53-0.18,0.91,0.91,0,0,1,.67.23,0.77,0.77,0,0,1,.21.61,1.05,1.05,0,0,1-.3.7l-1.5,1.64a1.09,1.09,0,0,1-.8.32A0.56,0.56,0,0,1,266.6,65.71Z"/><path class="cls-3" d="M283.16,70.67v5.44a0.94,0.94,0,0,1-.27.68,0.92,0.92,0,0,1-.69.28,0.89,0.89,0,0,1-.67-0.28,0.94,0.94,0,0,1-.27-0.68V70.69a3,3,0,0,0-.54-1.88,2.09,2.09,0,0,0-1.76-.7,3,3,0,0,0-1.45.35,2.67,2.67,0,0,0-1,.94,2.39,2.39,0,0,0-.37,1.29v5.42a0.94,0.94,0,0,1-.27.68,0.92,0.92,0,0,1-.69.28,0.9,0.9,0,0,1-.68-0.27,1,1,0,0,1-.26-0.69V67.55a0.94,0.94,0,0,1,.27-0.68,0.89,0.89,0,0,1,.67-0.28,0.92,0.92,0,0,1,.69.28,0.94,0.94,0,0,1,.27.68v0.7a4.29,4.29,0,0,1,1.45-1.35,3.84,3.84,0,0,1,2-.55Q283.16,66.35,283.16,70.67Z"/><path class="cls-3" d="M293.32,76.79a0.93,0.93,0,0,1-.68.28,0.89,0.89,0,0,1-.67-0.28,0.94,0.94,0,0,1-.27-0.68V63.23a1,1,0,0,1,1-1,0.89,0.89,0,0,1,.67.28,0.94,0.94,0,0,1,.27.68V76.11A0.93,0.93,0,0,1,293.32,76.79Z"/><path class="cls-3" d="M305.62,74.63a5.09,5.09,0,0,1-1.91,1.94,5.44,5.44,0,0,1-5.34,0,5.08,5.08,0,0,1-1.91-1.94,5.59,5.59,0,0,1-.7-2.8,5.71,5.71,0,0,1,.7-2.82,5,5,0,0,1,1.91-2,5.44,5.44,0,0,1,5.34,0,5.05,5.05,0,0,1,1.91,2,5.72,5.72,0,0,1,.7,2.82A5.6,5.6,0,0,1,305.62,74.63ZM304,69.9a3.34,3.34,0,0,0-1.22-1.32,3.35,3.35,0,0,0-3.42,0,3.35,3.35,0,0,0-1.22,1.32,4.06,4.06,0,0,0-.45,1.93,4,4,0,0,0,.45,1.9A3.36,3.36,0,0,0,299.33,75a3.35,3.35,0,0,0,3.42,0A3.36,3.36,0,0,0,304,73.73a4,4,0,0,0,.45-1.9A4.06,4.06,0,0,0,304,69.9Z"/><path class="cls-3" d="M323.25,66.82a1,1,0,0,1,.27.71V80.11a0.94,0.94,0,0,1-.27.68,0.92,0.92,0,0,1-.69.28,0.9,0.9,0,0,1-.68-0.27,1,1,0,0,1-.26-0.69V75.55a4,4,0,0,1-1.41,1.22,4,4,0,0,1-1.95.5,4.48,4.48,0,0,1-2.46-.7,4.91,4.91,0,0,1-1.74-2,6.08,6.08,0,0,1-.64-2.81A6.16,6.16,0,0,1,314,69a4.83,4.83,0,0,1,1.73-2,4.55,4.55,0,0,1,4.38-.26,4.2,4.2,0,0,1,1.46,1.14v-0.4a1,1,0,0,1,.26-0.7,0.88,0.88,0,0,1,.68-0.28A0.93,0.93,0,0,1,323.25,66.82ZM320.15,75a3.25,3.25,0,0,0,1.14-1.32,4.58,4.58,0,0,0,0-3.79,3.24,3.24,0,0,0-1.14-1.33,3.15,3.15,0,0,0-3.34,0,3.23,3.23,0,0,0-1.14,1.33,4.59,4.59,0,0,0,0,3.79A3.24,3.24,0,0,0,316.81,75,3.15,3.15,0,0,0,320.15,75Z"/><path class="cls-3" d="M334.83,66.87a0.94,0.94,0,0,1,.27.68v5.32a4.39,4.39,0,1,1-8.76,0V67.55a0.94,0.94,0,0,1,.27-0.68,0.89,0.89,0,0,1,.67-0.28,0.92,0.92,0,0,1,.69.28,0.94,0.94,0,0,1,.27.68v5.32q0,2.62,2.46,2.62a2.47,2.47,0,0,0,1.86-.66,2.71,2.71,0,0,0,.64-2V67.55a0.94,0.94,0,0,1,.27-0.68,0.89,0.89,0,0,1,.67-0.28A0.92,0.92,0,0,1,334.83,66.87Z"/><path class="cls-3" d="M346.84,72a1,1,0,0,1-.66.25h-7a3.47,3.47,0,0,0,1.11,2.34,3.4,3.4,0,0,0,2.37.88,3.72,3.72,0,0,0,1.56-.28,3.91,3.91,0,0,0,1.06-.72,1.13,1.13,0,0,1,.58-0.18,0.76,0.76,0,0,1,.57.24,0.78,0.78,0,0,1,.23.56,1,1,0,0,1-.4.76,4.7,4.7,0,0,1-1.54,1,5.06,5.06,0,0,1-2,.4,5.79,5.79,0,0,1-2.85-.68,4.74,4.74,0,0,1-1.9-1.9,5.63,5.63,0,0,1-.67-2.76A6.08,6.08,0,0,1,338,69a5,5,0,0,1,1.82-2,4.69,4.69,0,0,1,4.83,0,5,5,0,0,1,1.8,1.82,5.2,5.2,0,0,1,.7,2.6A0.86,0.86,0,0,1,346.84,72Zm-6.54-3.3a3.1,3.1,0,0,0-1.08,2h5.9V70.53a2.44,2.44,0,0,0-.95-1.74,3,3,0,0,0-1.93-.68A3.09,3.09,0,0,0,340.3,68.74Z"/><path class="cls-3" d="M363.62,70.77v5.34a0.94,0.94,0,0,1-.27.68,0.92,0.92,0,0,1-.69.28,0.89,0.89,0,0,1-.67-0.28,0.94,0.94,0,0,1-.27-0.68V70.77q0-2.6-2.2-2.6a2.72,2.72,0,0,0-2,.75,2.47,2.47,0,0,0-.78,1.85v5.34a0.94,0.94,0,0,1-.27.68,0.92,0.92,0,0,1-.69.28,0.9,0.9,0,0,1-.68-0.27,1,1,0,0,1-.26-0.69V63.23a0.94,0.94,0,0,1,.27-0.68,0.89,0.89,0,0,1,.67-0.28,0.92,0.92,0,0,1,.69.28,0.94,0.94,0,0,1,.27.68v5.06a4.28,4.28,0,0,1,1.4-1.33,3.63,3.63,0,0,1,1.92-.55Q363.62,66.41,363.62,70.77Z"/><path class="cls-3" d="M375.65,66.72a1,1,0,0,1,.27.71v8.68a0.94,0.94,0,0,1-.27.68,0.92,0.92,0,0,1-.69.28,0.9,0.9,0,0,1-.68-0.27,1,1,0,0,1-.26-0.69V75.59a4.29,4.29,0,0,1-1.42,1.19,4,4,0,0,1-1.94.49,4.53,4.53,0,0,1-2.47-.7,4.81,4.81,0,0,1-1.74-2,6.58,6.58,0,0,1,0-5.62,4.83,4.83,0,0,1,1.73-2,4.42,4.42,0,0,1,2.42-.7,4.48,4.48,0,0,1,2,.44A4.09,4.09,0,0,1,374,67.91V67.43a1,1,0,0,1,.26-0.7,0.88,0.88,0,0,1,.68-0.28A0.94,0.94,0,0,1,375.65,66.72ZM372.55,75a3.25,3.25,0,0,0,1.14-1.32,4.57,4.57,0,0,0,0-3.78,3.33,3.33,0,0,0-1.14-1.33,2.93,2.93,0,0,0-1.67-.49,3,3,0,0,0-1.67.48,3.24,3.24,0,0,0-1.14,1.32,4.61,4.61,0,0,0,0,3.8A3.24,3.24,0,0,0,369.21,75,3.15,3.15,0,0,0,372.55,75Z"/><path class="cls-3" d="M387,66.77a0.94,0.94,0,0,1,.27.68v8.64a4.78,4.78,0,0,1-1.38,3.74,5.24,5.24,0,0,1-3.64,1.24,7.6,7.6,0,0,1-1.46-.14,4.36,4.36,0,0,1-1.18-.38,1,1,0,0,1-.74-0.92,1.09,1.09,0,0,1,0-.26,1.14,1.14,0,0,1,.34-0.52,0.77,0.77,0,0,1,.5-0.18,0.75,0.75,0,0,1,.3.06,11.76,11.76,0,0,0,1.1.44,3.55,3.55,0,0,0,1.12.16q3.1,0,3.1-3.18v-0.4A3.64,3.64,0,0,1,384,76.87a4.53,4.53,0,0,1-1.95.4,3.26,3.26,0,0,1-2.59-1.06,4.06,4.06,0,0,1-.93-2.78v-6a1,1,0,0,1,.26-0.69,0.9,0.9,0,0,1,.68-0.27,0.92,0.92,0,0,1,.69.28,0.94,0.94,0,0,1,.27.68v5.48a2.8,2.8,0,0,0,.58,2,2.28,2.28,0,0,0,1.76.63,2.58,2.58,0,0,0,1.88-.72,2.48,2.48,0,0,0,.74-1.86V67.45a1,1,0,0,1,.26-0.69,0.9,0.9,0,0,1,.68-0.27A0.92,0.92,0,0,1,387,66.77Z"/><path class="cls-3" d="M400.07,66.72a1,1,0,0,1,.27.71v8.68a0.94,0.94,0,0,1-.27.68,0.92,0.92,0,0,1-.69.28,0.9,0.9,0,0,1-.68-0.27,1,1,0,0,1-.26-0.69V75.59A4.29,4.29,0,0,1,397,76.78a4,4,0,0,1-1.94.49,4.53,4.53,0,0,1-2.47-.7,4.81,4.81,0,0,1-1.74-2,6.58,6.58,0,0,1,0-5.62,4.83,4.83,0,0,1,1.73-2,4.42,4.42,0,0,1,2.42-.7,4.48,4.48,0,0,1,2,.44,4.09,4.09,0,0,1,1.45,1.12V67.43a1,1,0,0,1,.26-0.7,0.88,0.88,0,0,1,.68-0.28A0.94,0.94,0,0,1,400.07,66.72ZM397,75a3.25,3.25,0,0,0,1.14-1.32,4.57,4.57,0,0,0,0-3.78A3.33,3.33,0,0,0,397,68.6a2.93,2.93,0,0,0-1.67-.49,3,3,0,0,0-1.67.48,3.24,3.24,0,0,0-1.14,1.32,4.61,4.61,0,0,0,0,3.8A3.24,3.24,0,0,0,393.63,75,3.15,3.15,0,0,0,397,75Z"/><path class="cls-3" d="M402.38,74.89a0.81,0.81,0,0,1,.42-0.68,0.79,0.79,0,0,1,.46-0.14,0.92,0.92,0,0,1,.66.3,4.23,4.23,0,0,0,1.29,1,3.69,3.69,0,0,0,1.65.34,2.82,2.82,0,0,0,1.34-.35,1.14,1.14,0,0,0,.58-1.07,1.15,1.15,0,0,0-.59-1,6.71,6.71,0,0,0-1.73-.66A12.77,12.77,0,0,1,404.6,72a3.33,3.33,0,0,1-1.25-1,2.81,2.81,0,0,1,0-3.23,3.39,3.39,0,0,1,1.36-1.06,4.47,4.47,0,0,1,1.85-.38,5.35,5.35,0,0,1,1.91.36,3.6,3.6,0,0,1,1.55,1.1,0.88,0.88,0,0,1,.24.58,0.86,0.86,0,0,1-.32.62,0.72,0.72,0,0,1-.5.18,0.75,0.75,0,0,1-.58-0.24,2.82,2.82,0,0,0-1-.74,3.41,3.41,0,0,0-1.35-.26,2.52,2.52,0,0,0-1.29.31,1.12,1.12,0,0,0-.53,1.05,1.16,1.16,0,0,0,.61,1,7.68,7.68,0,0,0,1.81.66,11.17,11.17,0,0,1,1.76.6,3.06,3.06,0,0,1,1.18,1,2.65,2.65,0,0,1,.48,1.65,2.56,2.56,0,0,1-.54,1.63,3.48,3.48,0,0,1-1.41,1.06,4.68,4.68,0,0,1-1.85.37,6.07,6.07,0,0,1-2.33-.44,4.34,4.34,0,0,1-1.81-1.4A1,1,0,0,1,402.38,74.89Z"/><path class="cls-3" d="M426.88,66.74a0.79,0.79,0,0,1,.26.59,1.36,1.36,0,0,1-.14.5l-3.8,8.64a1.05,1.05,0,0,1-.34.42,0.92,0.92,0,0,1-.48.18,0.91,0.91,0,0,1-.59-0.12,1,1,0,0,1-.41-0.48l-3.8-8.64a1.65,1.65,0,0,1-.1-0.5,0.8,0.8,0,0,1,.26-0.58,0.92,0.92,0,0,1,.68-0.26,1,1,0,0,1,.54.15,1,1,0,0,1,.38.45l3,7,3-7a0.91,0.91,0,0,1,.86-0.6A0.89,0.89,0,0,1,426.88,66.74Z"/><path class="cls-3" d="M429.21,65a0.83,0.83,0,0,1-.25-0.67V64a0.79,0.79,0,0,1,.27-0.68,1.4,1.4,0,0,1,.83-0.2,1.26,1.26,0,0,1,.81.21,0.83,0.83,0,0,1,.25.67v0.32a0.81,0.81,0,0,1-.26.68,1.35,1.35,0,0,1-.82.2A1.3,1.3,0,0,1,429.21,65Zm1.52,11.83a0.92,0.92,0,0,1-.69.28,0.89,0.89,0,0,1-.67-0.28,0.94,0.94,0,0,1-.27-0.68V67.45a0.94,0.94,0,0,1,.27-0.68,0.89,0.89,0,0,1,.67-0.28,0.92,0.92,0,0,1,.69.28,0.94,0.94,0,0,1,.27.68v8.66A0.94,0.94,0,0,1,430.73,76.79Z"/><path class="cls-3" d="M433,74.89a0.81,0.81,0,0,1,.42-0.68,0.79,0.79,0,0,1,.46-0.14,0.92,0.92,0,0,1,.66.3,4.23,4.23,0,0,0,1.29,1,3.69,3.69,0,0,0,1.65.34,2.82,2.82,0,0,0,1.34-.35,1.14,1.14,0,0,0,.58-1.07,1.15,1.15,0,0,0-.59-1,6.71,6.71,0,0,0-1.73-.66,12.77,12.77,0,0,1-1.86-.63,3.33,3.33,0,0,1-1.25-1,2.81,2.81,0,0,1,0-3.23,3.39,3.39,0,0,1,1.36-1.06,4.47,4.47,0,0,1,1.85-.38,5.35,5.35,0,0,1,1.91.36,3.6,3.6,0,0,1,1.55,1.1,0.88,0.88,0,0,1,.24.58,0.86,0.86,0,0,1-.32.62,0.72,0.72,0,0,1-.5.18,0.75,0.75,0,0,1-.58-0.24,2.82,2.82,0,0,0-1-.74,3.41,3.41,0,0,0-1.35-.26,2.52,2.52,0,0,0-1.29.31,1.12,1.12,0,0,0-.53,1.05,1.16,1.16,0,0,0,.61,1,7.68,7.68,0,0,0,1.81.66,11.17,11.17,0,0,1,1.76.6,3.06,3.06,0,0,1,1.18,1,2.65,2.65,0,0,1,.48,1.65,2.56,2.56,0,0,1-.54,1.63,3.48,3.48,0,0,1-1.41,1.06,4.68,4.68,0,0,1-1.85.37,6.07,6.07,0,0,1-2.33-.44,4.34,4.34,0,0,1-1.81-1.4A1,1,0,0,1,433,74.89Z"/><path class="cls-3" d="M446.12,68.45v6a0.84,0.84,0,0,0,.9,1,1.45,1.45,0,0,0,.38-0.07,1.47,1.47,0,0,1,.38-0.07,0.55,0.55,0,0,1,.44.22,0.84,0.84,0,0,1-.3,1.28,2,2,0,0,1-1.08.3,4.89,4.89,0,0,1-1.21-.14,1.79,1.79,0,0,1-1-.71,2.86,2.86,0,0,1-.43-1.73v-6h-1.16a0.85,0.85,0,0,1-.88-0.88,0.82,0.82,0,0,1,.25-0.62,0.87,0.87,0,0,1,.63-0.24h1.16V65a1,1,0,0,1,.27-0.68,0.92,0.92,0,0,1,.69-0.28,0.89,0.89,0,0,1,.67.28,1,1,0,0,1,.27.68v1.68h1.66a0.85,0.85,0,0,1,.88.88,0.82,0.82,0,0,1-.25.62,0.87,0.87,0,0,1-.63.24h-1.66Z"/><path class="cls-3" d="M460,74.63a5.09,5.09,0,0,1-1.91,1.94,5.44,5.44,0,0,1-5.34,0,5.08,5.08,0,0,1-1.91-1.94,5.58,5.58,0,0,1-.7-2.8,5.7,5.7,0,0,1,.7-2.82,5,5,0,0,1,1.91-2,5.44,5.44,0,0,1,5.34,0A5.05,5.05,0,0,1,460,69a5.71,5.71,0,0,1,.7,2.82A5.59,5.59,0,0,1,460,74.63Zm-1.65-4.73a3.34,3.34,0,0,0-1.22-1.32,3.35,3.35,0,0,0-3.42,0,3.34,3.34,0,0,0-1.22,1.32,4.06,4.06,0,0,0-.45,1.93,4,4,0,0,0,.45,1.9A3.36,3.36,0,0,0,453.71,75a3.35,3.35,0,0,0,3.42,0,3.36,3.36,0,0,0,1.22-1.31,4,4,0,0,0,.45-1.9A4.06,4.06,0,0,0,458.35,69.9Z"/><path class="cls-3" d="M154.32,96a1,1,0,0,1-.66.25h-7a3.47,3.47,0,0,0,1.11,2.34,3.4,3.4,0,0,0,2.37.88,3.72,3.72,0,0,0,1.56-.28,3.91,3.91,0,0,0,1.06-.72,1.12,1.12,0,0,1,.58-0.18,0.76,0.76,0,0,1,.57.24,0.78,0.78,0,0,1,.23.56,1,1,0,0,1-.4.76,4.7,4.7,0,0,1-1.54,1,5.05,5.05,0,0,1-2,.4,5.78,5.78,0,0,1-2.85-.68,4.73,4.73,0,0,1-1.9-1.9,5.63,5.63,0,0,1-.67-2.76,6.07,6.07,0,0,1,.69-2.95,5,5,0,0,1,1.82-2,4.69,4.69,0,0,1,4.83,0,5,5,0,0,1,1.8,1.82,5.2,5.2,0,0,1,.7,2.6A0.86,0.86,0,0,1,154.32,96Zm-6.54-3.3a3.1,3.1,0,0,0-1.08,2h5.9V94.53a2.45,2.45,0,0,0-1-1.74,3,3,0,0,0-1.93-.68A3.09,3.09,0,0,0,147.78,92.74Z"/><path class="cls-3" d="M165.76,94.67v5.44a0.94,0.94,0,0,1-.27.68,0.92,0.92,0,0,1-.69.28,0.89,0.89,0,0,1-.67-0.28,0.94,0.94,0,0,1-.27-0.68V94.69a3,3,0,0,0-.54-1.88,2.09,2.09,0,0,0-1.76-.7,3,3,0,0,0-1.45.35,2.67,2.67,0,0,0-1,.94,2.39,2.39,0,0,0-.37,1.29v5.42a0.94,0.94,0,0,1-.27.68,0.92,0.92,0,0,1-.69.28,0.9,0.9,0,0,1-.68-0.27,1,1,0,0,1-.26-0.69V91.55a0.94,0.94,0,0,1,.27-0.68,0.89,0.89,0,0,1,.67-0.28,0.92,0.92,0,0,1,.69.28,0.94,0.94,0,0,1,.27.68v0.7a4.29,4.29,0,0,1,1.45-1.35,3.84,3.84,0,0,1,2-.55Q165.76,90.35,165.76,94.67Z"/><path class="cls-3" d="M177,92.45v6a0.84,0.84,0,0,0,.9,1,1.45,1.45,0,0,0,.38-0.07,1.48,1.48,0,0,1,.38-0.07,0.55,0.55,0,0,1,.44.22,0.84,0.84,0,0,1-.3,1.28,2,2,0,0,1-1.08.3,4.88,4.88,0,0,1-1.21-.14,1.79,1.79,0,0,1-1-.71,2.86,2.86,0,0,1-.43-1.73v-6h-1.16a0.85,0.85,0,0,1-.88-0.88,0.82,0.82,0,0,1,.25-0.62,0.87,0.87,0,0,1,.63-0.24h1.16V89a1,1,0,0,1,.27-0.68,0.92,0.92,0,0,1,.69-0.28,0.89,0.89,0,0,1,.67.28A1,1,0,0,1,177,89v1.68h1.66a0.85,0.85,0,0,1,.88.88,0.82,0.82,0,0,1-.25.62,0.87,0.87,0,0,1-.63.24H177Z"/><path class="cls-3" d="M190.86,98.63a5.09,5.09,0,0,1-1.91,1.94,5.44,5.44,0,0,1-5.34,0,5.08,5.08,0,0,1-1.91-1.94,5.59,5.59,0,0,1-.7-2.8,5.71,5.71,0,0,1,.7-2.82,5,5,0,0,1,1.91-2,5.44,5.44,0,0,1,5.34,0,5.05,5.05,0,0,1,1.91,2,5.72,5.72,0,0,1,.7,2.82A5.6,5.6,0,0,1,190.86,98.63Zm-1.65-4.73A3.34,3.34,0,0,0,188,92.58a3.35,3.35,0,0,0-3.42,0,3.35,3.35,0,0,0-1.22,1.32,4.06,4.06,0,0,0-.45,1.93,4,4,0,0,0,.45,1.9A3.36,3.36,0,0,0,184.57,99,3.35,3.35,0,0,0,188,99a3.36,3.36,0,0,0,1.22-1.31,4,4,0,0,0,.45-1.9A4.06,4.06,0,0,0,189.21,93.9Z"/><path class="cls-3" d="M202.95,86.54a0.93,0.93,0,0,1,.27.69v12.88a0.94,0.94,0,0,1-.27.68,0.92,0.92,0,0,1-.69.28,0.9,0.9,0,0,1-.68-0.27,1,1,0,0,1-.26-0.69V99.55a4,4,0,0,1-1.41,1.22,4,4,0,0,1-1.95.5,4.48,4.48,0,0,1-2.46-.7,4.91,4.91,0,0,1-1.74-2,6.08,6.08,0,0,1-.64-2.81,6.16,6.16,0,0,1,.63-2.81,4.83,4.83,0,0,1,1.73-2,4.55,4.55,0,0,1,4.38-.26,4.2,4.2,0,0,1,1.46,1.14v-4.7a1,1,0,0,1,.26-0.69,0.9,0.9,0,0,1,.68-0.27A0.93,0.93,0,0,1,202.95,86.54ZM199.85,99A3.25,3.25,0,0,0,201,97.71a4.58,4.58,0,0,0,0-3.79,3.24,3.24,0,0,0-1.14-1.33,3.15,3.15,0,0,0-3.34,0,3.23,3.23,0,0,0-1.14,1.33,4.59,4.59,0,0,0,0,3.79A3.24,3.24,0,0,0,196.51,99,3.15,3.15,0,0,0,199.85,99Z"/><path class="cls-3" d="M215.23,90.72a1,1,0,0,1,.27.71v8.68a0.94,0.94,0,0,1-.27.68,0.92,0.92,0,0,1-.69.28,0.9,0.9,0,0,1-.68-0.27,1,1,0,0,1-.26-0.69V99.59a4.29,4.29,0,0,1-1.42,1.19,4,4,0,0,1-1.94.49,4.53,4.53,0,0,1-2.47-.7,4.81,4.81,0,0,1-1.74-2A6.58,6.58,0,0,1,206,93a4.83,4.83,0,0,1,1.73-2,4.42,4.42,0,0,1,2.42-.7,4.47,4.47,0,0,1,2,.44,4.09,4.09,0,0,1,1.45,1.12V91.43a1,1,0,0,1,.26-0.7,0.89,0.89,0,0,1,.68-0.28A0.94,0.94,0,0,1,215.23,90.72ZM212.13,99a3.24,3.24,0,0,0,1.14-1.32,4.56,4.56,0,0,0,0-3.78,3.32,3.32,0,0,0-1.14-1.33,2.93,2.93,0,0,0-1.67-.49,3,3,0,0,0-1.67.48,3.25,3.25,0,0,0-1.14,1.32,4.61,4.61,0,0,0,0,3.8A3.25,3.25,0,0,0,208.79,99,3.15,3.15,0,0,0,212.13,99Z"/><path class="cls-3" d="M225.64,100.79a0.93,0.93,0,0,1-.68.28,0.89,0.89,0,0,1-.67-0.28,0.94,0.94,0,0,1-.27-0.68V87.23a1,1,0,0,1,1-1,0.89,0.89,0,0,1,.67.28,1,1,0,0,1,.27.68v12.88A0.92,0.92,0,0,1,225.64,100.79Z"/><path class="cls-3" d="M238.11,90.72a1,1,0,0,1,.27.71v8.68a0.94,0.94,0,0,1-.27.68,0.92,0.92,0,0,1-.69.28,0.9,0.9,0,0,1-.68-0.27,1,1,0,0,1-.26-0.69V99.59a4.29,4.29,0,0,1-1.42,1.19,4,4,0,0,1-1.94.49,4.53,4.53,0,0,1-2.47-.7,4.81,4.81,0,0,1-1.74-2,6.58,6.58,0,0,1,0-5.62,4.83,4.83,0,0,1,1.73-2,4.42,4.42,0,0,1,2.42-.7,4.47,4.47,0,0,1,2,.44,4.09,4.09,0,0,1,1.45,1.12V91.43a1,1,0,0,1,.26-0.7,0.89,0.89,0,0,1,.68-0.28A0.94,0.94,0,0,1,238.11,90.72ZM235,99a3.24,3.24,0,0,0,1.14-1.32,4.56,4.56,0,0,0,0-3.78A3.32,3.32,0,0,0,235,92.6a2.93,2.93,0,0,0-1.67-.49,3,3,0,0,0-1.67.48,3.25,3.25,0,0,0-1.14,1.32,4.61,4.61,0,0,0,0,3.8A3.25,3.25,0,0,0,231.67,99,3.15,3.15,0,0,0,235,99Z"/><path class="cls-3" d="M255.93,90.72a1,1,0,0,1,.27.71v8.68a0.94,0.94,0,0,1-.27.68,0.92,0.92,0,0,1-.69.28,0.9,0.9,0,0,1-.68-0.27,1,1,0,0,1-.26-0.69V99.59a4.28,4.28,0,0,1-1.42,1.19,4,4,0,0,1-1.94.49,4.54,4.54,0,0,1-2.47-.7,4.81,4.81,0,0,1-1.74-2,6.57,6.57,0,0,1,0-5.62,4.83,4.83,0,0,1,1.73-2,4.57,4.57,0,0,1,4.39-.26,4.08,4.08,0,0,1,1.45,1.12V91.43a1,1,0,0,1,.26-0.7,0.88,0.88,0,0,1,.68-0.28A0.93,0.93,0,0,1,255.93,90.72ZM252.83,99A3.25,3.25,0,0,0,254,97.71a4.56,4.56,0,0,0,0-3.78,3.33,3.33,0,0,0-1.14-1.33,2.93,2.93,0,0,0-1.67-.49,3,3,0,0,0-1.67.48,3.24,3.24,0,0,0-1.14,1.32,4.62,4.62,0,0,0,0,3.8A3.24,3.24,0,0,0,249.49,99,3.15,3.15,0,0,0,252.83,99Z"/><path class="cls-3" d="M266.21,90.85a1.49,1.49,0,0,1,1,1.28,0.94,0.94,0,0,1-.22.61,0.69,0.69,0,0,1-.56.27,0.87,0.87,0,0,1-.41-0.08,4.21,4.21,0,0,1-.41-0.26,2.21,2.21,0,0,0-.38-0.28,2.65,2.65,0,0,0-.68-0.2,4.47,4.47,0,0,0-.8-0.08,3.51,3.51,0,0,0-1.84.48,3.27,3.27,0,0,0-1.24,1.33,4.06,4.06,0,0,0-.44,1.89,4.1,4.1,0,0,0,.43,1.9A3.25,3.25,0,0,0,261.92,99a3.33,3.33,0,0,0,1.78.48,3.78,3.78,0,0,0,1.68-.32,4.16,4.16,0,0,0,.38-0.26,2.32,2.32,0,0,1,.35-0.24,0.78,0.78,0,0,1,.37-0.08,0.81,0.81,0,0,1,.63.25,0.92,0.92,0,0,1,.23.65,1.11,1.11,0,0,1-.53.83,4.25,4.25,0,0,1-1.42.67,6.76,6.76,0,0,1-1.91.26,5,5,0,0,1-2.68-.71,4.76,4.76,0,0,1-1.79-2,6.11,6.11,0,0,1-.63-2.79A5.87,5.87,0,0,1,259,93a4.9,4.9,0,0,1,1.84-2,5.13,5.13,0,0,1,2.7-.71A6.11,6.11,0,0,1,266.21,90.85Z"/><path class="cls-3" d="M272.14,92.45v6a0.84,0.84,0,0,0,.9,1,1.45,1.45,0,0,0,.38-0.07,1.47,1.47,0,0,1,.38-0.07,0.55,0.55,0,0,1,.44.22,0.84,0.84,0,0,1-.3,1.28,2,2,0,0,1-1.08.3,4.89,4.89,0,0,1-1.21-.14,1.79,1.79,0,0,1-1-.71,2.86,2.86,0,0,1-.43-1.73v-6h-1.16a0.85,0.85,0,0,1-.88-0.88,0.82,0.82,0,0,1,.25-0.62,0.87,0.87,0,0,1,.63-0.24h1.16V89a1,1,0,0,1,.27-0.68,0.92,0.92,0,0,1,.69-0.28,0.9,0.9,0,0,1,.67.28,1,1,0,0,1,.27.68v1.68h1.66a0.85,0.85,0,0,1,.88.88,0.82,0.82,0,0,1-.25.62,0.87,0.87,0,0,1-.63.24h-1.66Z"/><path class="cls-3" d="M276.91,89a0.83,0.83,0,0,1-.25-0.67V88a0.79,0.79,0,0,1,.27-0.68,1.4,1.4,0,0,1,.83-0.2,1.26,1.26,0,0,1,.81.21,0.83,0.83,0,0,1,.25.67v0.32a0.81,0.81,0,0,1-.26.68,1.35,1.35,0,0,1-.82.2A1.3,1.3,0,0,1,276.91,89Zm1.52,11.83a0.92,0.92,0,0,1-.69.28,0.89,0.89,0,0,1-.67-0.28,0.94,0.94,0,0,1-.27-0.68V91.45a0.94,0.94,0,0,1,.27-0.68,0.89,0.89,0,0,1,.67-0.28,0.92,0.92,0,0,1,.69.28,0.94,0.94,0,0,1,.27.68v8.66A0.94,0.94,0,0,1,278.43,100.79Z"/><path class="cls-3" d="M290.08,90.74a0.79,0.79,0,0,1,.26.59,1.37,1.37,0,0,1-.14.5l-3.8,8.64a1.05,1.05,0,0,1-.34.42,0.92,0.92,0,0,1-.48.18A0.91,0.91,0,0,1,285,101a1,1,0,0,1-.41-0.48l-3.8-8.64a1.65,1.65,0,0,1-.1-0.5,0.81,0.81,0,0,1,.26-0.58,0.92,0.92,0,0,1,.68-0.26,1,1,0,0,1,.54.15,1,1,0,0,1,.38.45l3,7,3-7a0.91,0.91,0,0,1,.86-0.6A0.89,0.89,0,0,1,290.08,90.74Z"/><path class="cls-3" d="M292.41,89a0.83,0.83,0,0,1-.25-0.67V88a0.79,0.79,0,0,1,.27-0.68,1.4,1.4,0,0,1,.83-0.2,1.26,1.26,0,0,1,.81.21,0.83,0.83,0,0,1,.25.67v0.32a0.81,0.81,0,0,1-.26.68,1.34,1.34,0,0,1-.82.2A1.29,1.29,0,0,1,292.41,89Zm1.52,11.83a0.92,0.92,0,0,1-.69.28,0.89,0.89,0,0,1-.67-0.28,0.94,0.94,0,0,1-.27-0.68V91.45a0.94,0.94,0,0,1,.27-0.68,0.89,0.89,0,0,1,.67-0.28,0.92,0.92,0,0,1,.69.28,0.94,0.94,0,0,1,.27.68v8.66A0.94,0.94,0,0,1,293.93,100.79Z"/><path class="cls-3" d="M306.13,86.54a0.94,0.94,0,0,1,.27.69v12.88a0.94,0.94,0,0,1-.27.68,0.92,0.92,0,0,1-.69.28,0.9,0.9,0,0,1-.68-0.27,1,1,0,0,1-.26-0.69V99.55a4.06,4.06,0,0,1-1.41,1.22,4,4,0,0,1-2,.5,4.48,4.48,0,0,1-2.46-.7,4.91,4.91,0,0,1-1.74-2,6.07,6.07,0,0,1-.64-2.81,6.16,6.16,0,0,1,.63-2.81,4.83,4.83,0,0,1,1.73-2,4.55,4.55,0,0,1,4.38-.26,4.22,4.22,0,0,1,1.46,1.14v-4.7a1,1,0,0,1,.26-0.69,0.9,0.9,0,0,1,.68-0.27A0.94,0.94,0,0,1,306.13,86.54ZM303,99a3.24,3.24,0,0,0,1.14-1.32,4.58,4.58,0,0,0,0-3.79A3.23,3.23,0,0,0,303,92.59a3.15,3.15,0,0,0-3.34,0,3.24,3.24,0,0,0-1.14,1.33,4.58,4.58,0,0,0,0,3.79A3.25,3.25,0,0,0,299.69,99,3.15,3.15,0,0,0,303,99Z"/><path class="cls-3" d="M318.41,90.72a1,1,0,0,1,.27.71v8.68a0.94,0.94,0,0,1-.27.68,0.92,0.92,0,0,1-.69.28,0.9,0.9,0,0,1-.68-0.27,1,1,0,0,1-.26-0.69V99.59a4.28,4.28,0,0,1-1.42,1.19,4,4,0,0,1-1.94.49,4.54,4.54,0,0,1-2.47-.7,4.81,4.81,0,0,1-1.74-2,6.57,6.57,0,0,1,0-5.62,4.83,4.83,0,0,1,1.73-2,4.57,4.57,0,0,1,4.39-.26,4.08,4.08,0,0,1,1.45,1.12V91.43a1,1,0,0,1,.26-0.7,0.88,0.88,0,0,1,.68-0.28A0.93,0.93,0,0,1,318.41,90.72ZM315.31,99a3.25,3.25,0,0,0,1.14-1.32,4.56,4.56,0,0,0,0-3.78,3.33,3.33,0,0,0-1.14-1.33,2.93,2.93,0,0,0-1.67-.49,3,3,0,0,0-1.67.48,3.24,3.24,0,0,0-1.14,1.32,4.62,4.62,0,0,0,0,3.8A3.24,3.24,0,0,0,312,99,3.15,3.15,0,0,0,315.31,99Z"/><path class="cls-3" d="M330.69,86.54a0.94,0.94,0,0,1,.27.69v12.88a0.94,0.94,0,0,1-.27.68,0.92,0.92,0,0,1-.69.28,0.9,0.9,0,0,1-.68-0.27,1,1,0,0,1-.26-0.69V99.55a4.06,4.06,0,0,1-1.41,1.22,4,4,0,0,1-2,.5,4.48,4.48,0,0,1-2.46-.7,4.91,4.91,0,0,1-1.74-2,6.07,6.07,0,0,1-.64-2.81,6.16,6.16,0,0,1,.63-2.81,4.83,4.83,0,0,1,1.73-2,4.55,4.55,0,0,1,4.38-.26,4.22,4.22,0,0,1,1.46,1.14v-4.7a1,1,0,0,1,.26-0.69,0.9,0.9,0,0,1,.68-0.27A0.94,0.94,0,0,1,330.69,86.54ZM327.59,99a3.24,3.24,0,0,0,1.14-1.32,4.58,4.58,0,0,0,0-3.79,3.23,3.23,0,0,0-1.14-1.33,3.15,3.15,0,0,0-3.34,0,3.24,3.24,0,0,0-1.14,1.33,4.58,4.58,0,0,0,0,3.79A3.25,3.25,0,0,0,324.25,99,3.15,3.15,0,0,0,327.59,99Z"/><path class="cls-3" d="M333.73,100.79a1.05,1.05,0,0,1-.25-0.76V99.65a1,1,0,0,1,.25-0.74,1,1,0,0,1,.73-0.26h0.2a1,1,0,0,1,.75.26,1,1,0,0,1,.25.74V100a0.89,0.89,0,0,1-1,1h-0.2A1,1,0,0,1,333.73,100.79Z"/><g class="cls-4"><path class="cls-5" d="M-12.63,154.21c-15.85-7.65-15.56-41.28.65-74.87S30.38,24.59,46.23,32.24s15.56,41.28-.65,74.87S3.22,161.86-12.63,154.21Z"/><path class="cls-6" d="M43.13,100.49c2.36,1.81,3.52,5,4.23,8.13a59.76,59.76,0,0,1,1.22,15c-0.15,4.91-.72,9.85-1.3,14.78q-1.15,9.74-2.36,19.49A116.81,116.81,0,0,1,43,170.09c-1,4.36-1.81,10.46-5,13.57s-9.07,2.64-11.8-.15c-2.38-2.43-2.27-6.71-2-10.54l2.95-44.52c0.21-3.16,1-15.88,1.73-19C30.44,102.54,35.94,95,43.13,100.49Z"/><path class="cls-7" d="M40,151.78s-1,13.68-7.53,19.63l10.46-.64L45.52,153Z"/><path class="cls-6" d="M-35.09,202.38c-4.76-3.19-10.64-5.07-12.31-6.75-0.11-.11-5.1-3.52-5.79-4.1-0.25-.19-5.21-3-5.19-3.09l-4.29-3c-1.26-1.38-3,.05-2.92-1.11s8.63-16.11,9.18-17.17c4.11-7.86,13.17-14.28,19.9-28.15,5.67-11.69,9.79-38.42,13.49-45.1,3.45-6.23,6.14-13,7.5-14.44,0.65-.68,5.58-4.1,8.63-4.15A28.17,28.17,0,0,1,0,75.77c2.44,0.67,8.23.33,13,2.73,3.59,1.67,4.66,1.72,7.7,3.36,3.11,1.32,3.81,2.52,7.27,4.25,4.73,2.18,7.65,6.33,9.64,7.81a30.86,30.86,0,0,1,4.8,5.21c1.81,2.39,2.14,8.35,2,9.28-0.28,1.93-3.91,8.28-6.65,14.85-2.94,7.05-22.34,26.41-28,38.12-6.67,13.9-6.31,23.79-9.91,31.89-0.49,1.09-6.63,16.93-7.41,17.67a6.87,6.87,0,0,1-4.63,1.19l-1.93-2.28s-5.23-2-5.53-2.09c-0.87-.17-6.53-1.9-6.68-1.92-2.31-.24-3.48-1.76-8.83-3.45"/><path class="cls-8" d="M13.72,71.8a21.84,21.84,0,0,1-3.48,6.86,6.21,6.21,0,0,0,.6,1c3,4.41,11.35,7,16,7.85,1.93,0.35,3.22.39,3.23,0.13,0.06-2.24,1.44-4.68,2.54-6.28l0-.05h0a20.83,20.83,0,0,1,1.32-1.73L14.09,70c0,0.25-.08.49-0.12,0.74S13.81,71.47,13.72,71.8Z"/><path class="cls-6" d="M61.31,51.65c5.17-10.72,0-23.92-11.51-29.48s-25.06-1.38-30.24,9.34A20.11,20.11,0,0,0,17.84,37c-0.18.43-.38,0.87-0.61,1.31a61.07,61.07,0,0,0-4.71,12c-2.11,8.13-1.6,16.89,3.63,24.62a17.94,17.94,0,0,0,6.91,6.36c3.91,1.85,8.44,1.57,12.34.39C48.29,77.83,55,65.87,60,53.94A20.12,20.12,0,0,0,61.31,51.65Z"/><path class="cls-9" d="M-25.24,81.37C-9.78,69.3,11.38,77.3,11.38,77.3l-11,5-5.72,5.88-25.53,26.26L-49.44,103.3A311.15,311.15,0,0,1-25.24,81.37Z"/><path class="cls-10" d="M-24.86,80.9c15.18-11.73,36.24-3.6,36.24-3.6S-12,73.43-22.22,81.73c-2.46,2-13,11.89-23.5,22.27l-2.87-1.74A297.55,297.55,0,0,1-24.86,80.9Z"/><path class="cls-9" d="M49.86,118.46c-0.16-19.61-19.6-31.2-19.6-31.2L33.16,99l-1,8.14-4.67,36.32L47.76,151A311.15,311.15,0,0,0,49.86,118.46Z"/><polygon class="cls-11" points="32.99 106.53 24.09 147 28.88 148.91 32.99 106.53"/><path class="cls-10" d="M50,117.88C49.73,98.69,30.27,87.27,30.27,87.27s17.57,15.88,17.44,29c0,3.17-1.22,17.58-2.81,32.26L48,149.74A297.55,297.55,0,0,0,50,117.88Z"/><path class="cls-12" d="M49.83,147.51L24.5,142.66l-0.76,4.82,25,6.36a1.93,1.93,0,0,0,2.37-1.52L51.52,150A2.13,2.13,0,0,0,49.83,147.51Z"/><path class="cls-9" d="M25.28,141.56S7.25,163.48,0,196.86c0,0-41-12.38-59.31-27.8,0,0,22.91-26,30.53-55.47L-0.37,79.72,11.38,77.3s-8.78,10.41,5.2,15.81,13.69-5.85,13.69-5.85l4.87,14.8Z"/><path class="cls-12" d="M-16.82,129.53l1,0.4,2.6,1.06a28.08,28.08,0,0,1,7.68,4.35c0.65,0.56,1.29,1.15,1.94,1.72a20.35,20.35,0,0,0,2,1.55,19.24,19.24,0,0,0,3.8,2A7.32,7.32,0,0,0,3.8,141a3.75,3.75,0,0,0,1.29,0,2.53,2.53,0,0,0,.74-0.29l0.22-.15-0.26.07a2.6,2.6,0,0,1-.73,0,5.32,5.32,0,0,1-2.42-1,31.2,31.2,0,0,1-3.21-2.45c-0.57-.5-1.14-1-1.73-1.62s-1.22-1.22-1.94-1.83a15.19,15.19,0,0,0-4.62-2.68A23.55,23.55,0,0,0-13,130c-1.18-.21-2.14-0.31-2.81-0.38Z"/><path class="cls-6" d="M-68.56,135.45c1,2.21,3.71,3.71,6.5,4.85,4.25,1.75,9.07,2.43,14,3.24,4.71,0.78,9.57,1.26,14.43,1.7,6.39,0.58,15,.91,17,1.05,4,0.29,11.35.66,15.45,0.65,4.43,0,11.3.12,15.32-1.58a4.13,4.13,0,0,0,2-5.55c-1.53-2.38-10.34-4.82-14-5.39-11-1.69-22.79-4.34-39.39-6.57-3.06-.41-15.38-2.1-18.58-2.11C-63,125.74-71.72,128.73-68.56,135.45Z"/><path class="cls-6" d="M5,146.63c0,0.3.29,0.63,1.61,0.73s1.52-.69,1.79-0.64c7.08,1.24,12,.94,19.17-0.14,1.62-.25,3.4-0.64,4.39-1.93,0.51-.66,2.25-1.79,2.45-2.58,0.5-1.93-.69-3.86-2-5.33a5.58,5.58,0,0,0-4-1.45c-1.46-.06-3.88.59-5.32,0.44-1.24-.13-2.9-0.17-3.11-0.49s2.86-.58,2.76-1.63-1.71-1-2.75-.9c-3.28.21-7.28,2.64-10.56,2.84-3,.19-2-0.54-2.62,1.66A54.11,54.11,0,0,0,5,146.63Z"/><path class="cls-10" d="M32.07,70.72c-1.06-.08-2.92-2.63-4.16-3.12s-0.94-.72-1.74-1.29-3-1.36-4-2.78a9.83,9.83,0,0,0,.7,5.12,5.65,5.65,0,0,0,4.22,3A8.8,8.8,0,0,0,32.07,70.72Z"/><path class="cls-10" d="M33.3,70.77l-0.17,0-0.48-.05c-0.41,0-1-.08-1.69-0.19a10,10,0,0,1-1.1-.25,10.27,10.27,0,0,1-1.18-.42,8.85,8.85,0,0,1-1.18-.61,11.27,11.27,0,0,1-1.13-.79,14.53,14.53,0,0,1-3.53-3.67c-0.18-.3-0.34-0.58-0.46-0.84a6.28,6.28,0,0,1-.29-0.68C22,63,22,62.88,21.92,62.78l-0.05-.16,0,0.17a4.45,4.45,0,0,0,.09.47,6.48,6.48,0,0,0,.22.72,6.22,6.22,0,0,0,.39.9,10,10,0,0,0,1.4,2,14.88,14.88,0,0,0,2.07,1.91,12,12,0,0,0,1.19.81,8.13,8.13,0,0,0,1.26.6,7.69,7.69,0,0,0,1.25.37,10.7,10.7,0,0,0,1.15.18,12.39,12.39,0,0,0,1.73,0l0.48,0H33.3Z"/><path class="cls-13" d="M31.43,70.66a14.65,14.65,0,0,1-8.91-6.46A7.48,7.48,0,0,0,26,69.69,7.22,7.22,0,0,0,31.43,70.66Z"/><path class="cls-14" d="M33.4,62.76c-3.85-1-4.25-3.79-3.41-5.59C27.51,60,29,63,33.4,62.76Z"/><path class="cls-15" d="M28.49,46.12a1.64,1.64,0,0,1,0,.94c-0.34,1.07-1,3-2.41,3-1.66,0-1.43-2.06-1-3.1A3.19,3.19,0,0,1,26.5,45.3,1.35,1.35,0,0,1,28.49,46.12Z"/><path class="cls-15" d="M29.46,47.23S28.8,44.41,24,44.59C24,44.59,29,43.36,29.46,47.23Z"/><path class="cls-15" d="M44.51,53.85a1.64,1.64,0,0,0-.72.61c-0.63.94-1.69,2.65-.84,3.75,1,1.31,2.5-.16,3-1.16a3.19,3.19,0,0,0,.41-2.15A1.35,1.35,0,0,0,44.51,53.85Z"/><path class="cls-15" d="M43,53.78s2.62-1.24,5.46,2.63C48.5,56.42,46.34,51.72,43,53.78Z"/><path class="cls-7" d="M65.47,71.46a5.38,5.38,0,0,0,1-.84,15.89,15.89,0,0,1-1.19,4.1c-0.18-.41-0.37-0.82-0.59-1.23a3.63,3.63,0,0,0-.69-0.9A10.69,10.69,0,0,1,65.47,71.46Z"/><path class="cls-7" d="M49.32,23.41C60,22.74,69.83,37.19,66.85,49.77a32.54,32.54,0,0,0-.76,10.09L65.54,60c-2-2.55-6.66-3.18-8.55.65a86.14,86.14,0,0,1-4.66,7.9,9.88,9.88,0,0,0-.83-4.76c-2.82-5.58-.94-7,2.13-15.34s-6.79-7-9.29-16.76C43.38,27.68,38.62,24.09,49.32,23.41Z"/><path class="cls-7" d="M50.75,62.15a37.94,37.94,0,0,1-18.8,20.26S43,82,52.33,68.58A5.57,5.57,0,0,0,50.75,62.15Z"/><path class="cls-16" d="M35.52,40.46c-1.63-1.28-4.22-3.56-8.72-2.33-2,.55-2,1.28.1,0.88,3.66-.68,5.15.85,7.75,2.81C35.66,42.58,36.63,41.34,35.52,40.46Z"/><path class="cls-16" d="M45.51,45.28c2,0.48,5.41,1.09,7.25,5.38,0.83,1.93.27,2.4-.75,0.47-1.75-3.29-3.87-3.5-7-4.32C43.76,46.49,44.13,45,45.51,45.28Z"/><path class="cls-16" d="M46.82,29.44c2.49,9.77,12.36,8.4,9.29,16.76S51.15,56,54,61.54,52.38,79.1,45.82,86s-8.62,11.76-8.13,18.81-1.29,11-5.54,15.79-6.64,7.21,7.32,2S56.13,106.23,57,95s2.42-9.53,9-19.36,0.32-15.55,3.3-28.12-6.83-27-17.52-26.35S45.85,25.4,46.82,29.44Z"/><path class="cls-17" d="M53.8,24.06c-1.18,5,4.06,9.63,7.19,12.59s4.49,7.1,1.38,11.82S59.75,61.56,61.06,65.3s-4.73,14.3-9.91,20.1c-4.8,5.37-5.81,16.3-5.91,20.67-0.1,4.67-1.6,9.92-5.16,12.14,4.95-1.38,7.16-6.29,7.51-12.55S47,95,53.41,86.73C61.53,76.32,65.17,72.87,63.35,64c-1.43-7-2.06-8.12,1-14.13,3.13-6.17,3.54-9.49-.95-13.93S53.87,29.49,53.8,24.06Z"/><path class="cls-16" d="M47.39,29.71c-9.2,4.13-14.27-4.45-18.9,3.16s-4.56,10-10.68,11.22S5.05,56.26,3.75,65.68-0.1,79.74-5.92,83.74s-7.83,7.88-8.92,14.16-1.51,9.68-6.12-4.49,2.45-23.21,10.7-30.9,6-7.82,9.55-19.1,12-9.92,20-20.08,25.4-11.47,31.53-2.68S51.15,28,47.39,29.71Z"/><path class="cls-17" d="M47.26,20.91c-3.2,4.05-10.06,2.81-14.33,2.21s-8.35.91-10.12,6.27S14.2,39.58,10.46,40.88,2.21,53.48.89,61.14c-1.22,7.1-9.15,14.69-12.51,17.48-3.59,3-6.77,7.42-6.29,11.59-2-4.73.47-9.52,5.15-13.68S-4,70.34-1.56,60.21C1.53,47.37,2,42.38,10,38.29c6.37-3.23,7.63-3.44,10.44-9.57C23.36,22.43,25.7,20,32,20.79S43,24.23,47.26,20.91Z"/><path class="cls-6" d="M96.34,159.69c0.12,0.27.55,0.42,1.77-.12s1-1.33,1.27-1.41c6.82-2.28,11-4.88,16.8-9.24,1.31-1,2.68-2.18,2.95-3.78,0.13-.82,1.13-2.65.93-3.44-0.48-1.93-2.45-3.07-4.32-3.73a5.58,5.58,0,0,0-4.18.61c-1.31.64-3.13,2.36-4.47,2.92-1.15.48-2.63,1.23-3,1.05s2.24-1.87,1.65-2.75-2,0-2.85.51c-2.78,1.74-5.15,5.79-7.93,7.53-2.55,1.6-2,.45-1.51,2.7A54.2,54.2,0,0,0,96.34,159.69Z"/><path class="cls-6" d="M26.31,184.87c2,1.45,5,1.49,8,1.17,4.57-.49,9.13-2.18,13.84-3.8,4.51-1.56,9-3.45,13.5-5.37,5.9-2.53,13.65-6.35,15.44-7.16,3.67-1.66,10.29-4.82,13.9-6.78,3.9-2.11,10-5.27,12.72-8.68a4.13,4.13,0,0,0-.92-5.81c-2.48-1.37-11.39.68-14.91,1.94-10.51,3.76-22.11,7-37.77,13-2.89,1.09-14.53,5.47-17.34,7C26.62,173.67,20.33,180.46,26.31,184.87Z"/></g></svg>