<svg id="Capa_1" data-name="Capa 1" xmlns="http://www.w3.org/2000/svg" xmlns:xlink="http://www.w3.org/1999/xlink" viewBox="0 0 505 193.78"><defs><style>.cls-1{fill:none;}.cls-2{fill:#ffe8bb;}.cls-3{fill:#1d1d1b;opacity:0.8;}.cls-4{clip-path:url(#clip-path);}.cls-5{fill:#5b4d8d;}.cls-14,.cls-16,.cls-17,.cls-5,.cls-7{fill-rule:evenodd;}.cls-6{fill:#fdd481;}.cls-7,.cls-8{fill:#f7bb64;}.cls-9{fill:#ec62a0;}.cls-10{fill:#ec92bd;}.cls-11{fill:#e3589b;}.cls-12{fill:#e34d95;}.cls-13{fill:#fff;}.cls-14{fill:#f7b447;}.cls-15{fill:#29233f;}.cls-16{fill:#6e5aa3;}.cls-17{fill:#7867ac;}</style><clipPath id="clip-path"><rect class="cls-1" x="363.68" y="-0.12" width="141.32" height="193.9"/></clipPath></defs><title>Dialogo</title><path class="cls-2" d="M425.26,61.92L401.2,46.83V25.92c0-15.54-11-25.92-26.51-25.92H29.77C14.23,0,0,10.38,0,25.92V105c0,15.54,14.23,30.36,29.77,30.36H374.69c15.54,0,26.51-14.82,26.51-30.36V79.14Z"/><path class="cls-3" d="M46.49,40.48a0.91,0.91,0,0,1-.9.92,0.84,0.84,0,0,1-.51-0.17,1.19,1.19,0,0,1-.37-0.47l-1.24-2.94H37.29l-1.22,3a0.87,0.87,0,0,1-.84.62,0.87,0.87,0,0,1-.64-0.22,0.81,0.81,0,0,1-.22-0.6,2.43,2.43,0,0,1,0-.32l5.1-12.36a1.11,1.11,0,0,1,.39-0.49,0.81,0.81,0,0,1,.57-0.13,1,1,0,0,1,.54.16,0.86,0.86,0,0,1,.34.46l5.08,12.2A1.2,1.2,0,0,1,46.49,40.48ZM38,36h4.66l-2.34-5.6Z"/><path class="cls-3" d="M57,35v5.34a1,1,0,0,1-.27.68,0.92,0.92,0,0,1-.69.28,0.89,0.89,0,0,1-.67-0.28,1,1,0,0,1-.27-0.68V35q0-2.6-2.2-2.6a2.71,2.71,0,0,0-2,.75A2.47,2.47,0,0,0,50.17,35v5.34a0.94,0.94,0,0,1-.27.68,0.92,0.92,0,0,1-.69.28,0.9,0.9,0,0,1-.68-0.27,1,1,0,0,1-.26-0.69V27.5a0.94,0.94,0,0,1,.27-0.68,0.89,0.89,0,0,1,.67-0.28,0.92,0.92,0,0,1,.69.28,0.94,0.94,0,0,1,.27.68v5.06a4.27,4.27,0,0,1,1.4-1.33,3.62,3.62,0,0,1,1.92-.55Q57,30.68,57,35Z"/><path class="cls-3" d="M69.07,38.9a5.09,5.09,0,0,1-1.91,1.94,5.44,5.44,0,0,1-5.34,0,5.08,5.08,0,0,1-1.91-1.94,5.6,5.6,0,0,1-.7-2.8,5.71,5.71,0,0,1,.7-2.82,5,5,0,0,1,1.91-2,5.44,5.44,0,0,1,5.34,0,5.05,5.05,0,0,1,1.91,2,5.71,5.71,0,0,1,.7,2.82A5.6,5.6,0,0,1,69.07,38.9Zm-1.65-4.73a3.35,3.35,0,0,0-1.22-1.32,3.35,3.35,0,0,0-3.42,0,3.34,3.34,0,0,0-1.22,1.32,4.06,4.06,0,0,0-.45,1.93,4,4,0,0,0,.45,1.9,3.36,3.36,0,0,0,1.22,1.31,3.35,3.35,0,0,0,3.42,0A3.36,3.36,0,0,0,67.42,38a4,4,0,0,0,.45-1.9A4.06,4.06,0,0,0,67.42,34.17Z"/><path class="cls-3" d="M78.09,30.89a0.8,0.8,0,0,1,.38.67,1,1,0,0,1-.25.73,0.83,0.83,0,0,1-.61.25,1.9,1.9,0,0,1-.54-0.12,2.25,2.25,0,0,0-.66-0.14,2,2,0,0,0-1.21.43,3.14,3.14,0,0,0-1,1.18,3.73,3.73,0,0,0-.37,1.67v4.82a0.94,0.94,0,0,1-.27.68,0.92,0.92,0,0,1-.69.28,0.9,0.9,0,0,1-.68-0.27A1,1,0,0,1,72,40.38V31.82a0.94,0.94,0,0,1,.27-0.68,0.89,0.89,0,0,1,.67-0.28,0.92,0.92,0,0,1,.69.28,0.94,0.94,0,0,1,.27.68v1a3.79,3.79,0,0,1,1.32-1.59,3.54,3.54,0,0,1,2-.63A1.52,1.52,0,0,1,78.09,30.89Z"/><path class="cls-3" d="M89.18,31a1,1,0,0,1,.27.71v8.68a0.94,0.94,0,0,1-.27.68,0.92,0.92,0,0,1-.69.28,0.9,0.9,0,0,1-.68-0.27,1,1,0,0,1-.26-0.69V39.86a4.28,4.28,0,0,1-1.42,1.19,4,4,0,0,1-1.94.49,4.53,4.53,0,0,1-2.47-.7,4.8,4.8,0,0,1-1.74-2,6.58,6.58,0,0,1,0-5.62,4.83,4.83,0,0,1,1.73-2,4.57,4.57,0,0,1,4.39-.26,4.08,4.08,0,0,1,1.45,1.12V31.7a1,1,0,0,1,.26-0.7,0.88,0.88,0,0,1,.68-0.28A0.93,0.93,0,0,1,89.18,31Zm-3.1,8.31A3.24,3.24,0,0,0,87.22,38a4.27,4.27,0,0,0,.41-1.9,4.23,4.23,0,0,0-.41-1.88,3.32,3.32,0,0,0-1.14-1.33,2.93,2.93,0,0,0-1.67-.49,3,3,0,0,0-1.67.48,3.24,3.24,0,0,0-1.14,1.32,4.61,4.61,0,0,0,0,3.8,3.24,3.24,0,0,0,1.14,1.32A3.14,3.14,0,0,0,86.08,39.3Z"/><path class="cls-3" d="M112.25,36.31a1,1,0,0,1-.66.25h-7a3.48,3.48,0,0,0,1.11,2.34,3.4,3.4,0,0,0,2.37.88,3.72,3.72,0,0,0,1.56-.28,3.92,3.92,0,0,0,1.06-.72,1.13,1.13,0,0,1,.58-0.18,0.76,0.76,0,0,1,.57.24,0.79,0.79,0,0,1,.23.56,1,1,0,0,1-.4.76,4.71,4.71,0,0,1-1.54,1,5.06,5.06,0,0,1-2,.4,5.79,5.79,0,0,1-2.85-.68,4.73,4.73,0,0,1-1.9-1.9,5.63,5.63,0,0,1-.67-2.76,6.08,6.08,0,0,1,.69-2.95,5,5,0,0,1,1.82-2,4.69,4.69,0,0,1,4.83,0,5,5,0,0,1,1.8,1.82,5.2,5.2,0,0,1,.7,2.6A0.86,0.86,0,0,1,112.25,36.31ZM105.71,33a3.1,3.1,0,0,0-1.08,2h5.9V34.8a2.44,2.44,0,0,0-1-1.74,3,3,0,0,0-1.93-.68A3.09,3.09,0,0,0,105.71,33Z"/><path class="cls-3" d="M122.53,40.42a1,1,0,0,1-1,1,1,1,0,0,1-.78-0.42l-2.68-3.38L115.47,41a0.91,0.91,0,0,1-.34.3,0.93,0.93,0,0,1-.42.1,0.94,0.94,0,0,1-.63-0.25,0.76,0.76,0,0,1-.29-0.59,0.85,0.85,0,0,1,.22-0.6l3-3.74-3.08-3.88a0.9,0.9,0,0,1-.2-0.56,0.91,0.91,0,0,1,.29-0.68,1,1,0,0,1,1.45.12l2.74,3.46,2.58-3.44a0.9,0.9,0,0,1,.76-0.42,0.89,0.89,0,0,1,.64.25,0.79,0.79,0,0,1,.26.59,0.88,0.88,0,0,1-.22.62l-3,3.74,3,3.86A0.8,0.8,0,0,1,122.53,40.42Z"/><path class="cls-3" d="M132.13,31.37a4.78,4.78,0,0,1,1.73,1.93,6.1,6.1,0,0,1,.63,2.8,6,6,0,0,1-.63,2.79,4.86,4.86,0,0,1-1.73,1.93,4.42,4.42,0,0,1-2.42.7,4.21,4.21,0,0,1-1.94-.46,4.68,4.68,0,0,1-1.46-1.12v4.44a0.94,0.94,0,0,1-.27.68,1,1,0,0,1-1.36,0,0.93,0.93,0,0,1-.27-0.69V31.8a1,1,0,0,1,.26-0.7,0.88,0.88,0,0,1,.68-0.28,0.92,0.92,0,0,1,.69.28,1,1,0,0,1,.27.7v0.58a3.92,3.92,0,0,1,1.4-1.2,4,4,0,0,1,2-.5A4.54,4.54,0,0,1,132.13,31.37Zm-1,7.91A3.23,3.23,0,0,0,132.26,38a4.47,4.47,0,0,0,0-3.74,3.23,3.23,0,0,0-1.15-1.31,3,3,0,0,0-1.66-.48,3.07,3.07,0,0,0-1.68.47,3.15,3.15,0,0,0-1.15,1.31,4.52,4.52,0,0,0,0,3.76,3.15,3.15,0,0,0,1.15,1.31,3.06,3.06,0,0,0,1.68.47A3,3,0,0,0,131.11,39.28Z"/><path class="cls-3" d="M138.47,41.06a0.93,0.93,0,0,1-.68.28,0.89,0.89,0,0,1-.67-0.28,0.94,0.94,0,0,1-.27-0.68V27.5a1,1,0,0,1,1-1,0.89,0.89,0,0,1,.67.28,0.94,0.94,0,0,1,.27.68V40.38A0.93,0.93,0,0,1,138.47,41.06Z"/><path class="cls-3" d="M141.76,29.23a0.83,0.83,0,0,1-.25-0.67V28.24a0.79,0.79,0,0,1,.27-0.68,1.4,1.4,0,0,1,.83-0.2,1.25,1.25,0,0,1,.81.21,0.83,0.83,0,0,1,.25.67v0.32a0.81,0.81,0,0,1-.26.68,1.35,1.35,0,0,1-.82.2A1.29,1.29,0,0,1,141.76,29.23Zm1.52,11.83a0.92,0.92,0,0,1-.69.28,0.89,0.89,0,0,1-.67-0.28,1,1,0,0,1-.27-0.68V31.72a0.94,0.94,0,0,1,.27-0.68,0.89,0.89,0,0,1,.67-0.28,0.92,0.92,0,0,1,.69.28,0.94,0.94,0,0,1,.27.68v8.66A1,1,0,0,1,143.28,41.06Z"/><path class="cls-3" d="M153.48,31.12a1.49,1.49,0,0,1,1.05,1.28,0.94,0.94,0,0,1-.22.61,0.69,0.69,0,0,1-.56.27,0.87,0.87,0,0,1-.41-0.08,4.37,4.37,0,0,1-.41-0.26,2.18,2.18,0,0,0-.38-0.28,2.64,2.64,0,0,0-.68-0.2,4.52,4.52,0,0,0-.8-0.08,3.51,3.51,0,0,0-1.84.48A3.27,3.27,0,0,0,148,34.19a4,4,0,0,0-.44,1.89A4.11,4.11,0,0,0,148,38a3.26,3.26,0,0,0,1.21,1.32,3.33,3.33,0,0,0,1.78.48,3.77,3.77,0,0,0,1.68-.32A4,4,0,0,0,153,39.2a2.37,2.37,0,0,1,.35-0.24,0.78,0.78,0,0,1,.37-0.08,0.81,0.81,0,0,1,.63.25,0.92,0.92,0,0,1,.23.65,1.11,1.11,0,0,1-.53.83,4.26,4.26,0,0,1-1.42.67,6.78,6.78,0,0,1-1.91.26,5,5,0,0,1-2.68-.71,4.75,4.75,0,0,1-1.79-2,6.11,6.11,0,0,1-.63-2.79,5.88,5.88,0,0,1,.66-2.79,4.92,4.92,0,0,1,1.84-2,5.14,5.14,0,0,1,2.7-.71A6.11,6.11,0,0,1,153.48,31.12Z"/><path class="cls-3" d="M165.76,31a1,1,0,0,1,.27.71v8.68a0.94,0.94,0,0,1-.27.68,0.92,0.92,0,0,1-.69.28,0.9,0.9,0,0,1-.68-0.27,1,1,0,0,1-.26-0.69V39.86a4.28,4.28,0,0,1-1.42,1.19,4,4,0,0,1-1.94.49,4.53,4.53,0,0,1-2.47-.7,4.8,4.8,0,0,1-1.74-2,6.58,6.58,0,0,1,0-5.62,4.83,4.83,0,0,1,1.73-2,4.57,4.57,0,0,1,4.39-.26,4.08,4.08,0,0,1,1.45,1.12V31.7a1,1,0,0,1,.26-0.7,0.88,0.88,0,0,1,.68-0.28A0.93,0.93,0,0,1,165.76,31Zm-3.1,8.31A3.24,3.24,0,0,0,163.8,38a4.27,4.27,0,0,0,.41-1.9,4.23,4.23,0,0,0-.41-1.88,3.32,3.32,0,0,0-1.14-1.33,2.93,2.93,0,0,0-1.67-.49,3,3,0,0,0-1.67.48,3.24,3.24,0,0,0-1.14,1.32,4.61,4.61,0,0,0,0,3.8,3.24,3.24,0,0,0,1.14,1.32A3.14,3.14,0,0,0,162.66,39.3Z"/><path class="cls-3" d="M183.29,36.31a1,1,0,0,1-.66.25h-7a3.48,3.48,0,0,0,1.11,2.34,3.4,3.4,0,0,0,2.37.88,3.72,3.72,0,0,0,1.56-.28,3.92,3.92,0,0,0,1.06-.72,1.13,1.13,0,0,1,.58-0.18,0.76,0.76,0,0,1,.57.24,0.79,0.79,0,0,1,.23.56,1,1,0,0,1-.4.76,4.71,4.71,0,0,1-1.54,1,5.06,5.06,0,0,1-2,.4,5.79,5.79,0,0,1-2.85-.68,4.73,4.73,0,0,1-1.9-1.9,5.63,5.63,0,0,1-.67-2.76,6.08,6.08,0,0,1,.69-2.95,5,5,0,0,1,1.82-2,4.69,4.69,0,0,1,4.83,0,5,5,0,0,1,1.8,1.82,5.2,5.2,0,0,1,.7,2.6A0.86,0.86,0,0,1,183.29,36.31ZM176.75,33a3.1,3.1,0,0,0-1.08,2h5.9V34.8a2.44,2.44,0,0,0-1-1.74,3,3,0,0,0-1.93-.68A3.09,3.09,0,0,0,176.75,33Z"/><path class="cls-3" d="M194.73,34.94v5.44a0.94,0.94,0,0,1-.27.68,0.92,0.92,0,0,1-.69.28,0.89,0.89,0,0,1-.67-0.28,0.94,0.94,0,0,1-.27-0.68V35a3,3,0,0,0-.54-1.88,2.08,2.08,0,0,0-1.76-.7,3,3,0,0,0-1.45.35,2.67,2.67,0,0,0-1,.94,2.38,2.38,0,0,0-.37,1.29v5.42a0.94,0.94,0,0,1-.27.68,0.92,0.92,0,0,1-.69.28,0.9,0.9,0,0,1-.68-0.27,1,1,0,0,1-.26-0.69V31.82a0.94,0.94,0,0,1,.27-0.68,0.89,0.89,0,0,1,.67-0.28,0.92,0.92,0,0,1,.69.28,0.94,0.94,0,0,1,.27.68v0.7a4.3,4.3,0,0,1,1.45-1.35,3.84,3.84,0,0,1,2-.55Q194.73,30.62,194.73,34.94Z"/><path class="cls-3" d="M211.6,31.14a1,1,0,0,1,.27.68v5.32a4.39,4.39,0,1,1-8.76,0V31.82a0.94,0.94,0,0,1,.27-0.68,0.89,0.89,0,0,1,.67-0.28,0.92,0.92,0,0,1,.69.28,0.94,0.94,0,0,1,.27.68v5.32q0,2.62,2.46,2.62a2.47,2.47,0,0,0,1.86-.66,2.71,2.71,0,0,0,.64-2V31.82a1,1,0,0,1,.27-0.68,0.89,0.89,0,0,1,.67-0.28A0.92,0.92,0,0,1,211.6,31.14Z"/><path class="cls-3" d="M223.65,34.94v5.44a0.94,0.94,0,0,1-.27.68,0.92,0.92,0,0,1-.69.28,0.89,0.89,0,0,1-.67-0.28,0.94,0.94,0,0,1-.27-0.68V35a3,3,0,0,0-.54-1.88,2.08,2.08,0,0,0-1.76-.7,3,3,0,0,0-1.45.35,2.67,2.67,0,0,0-1,.94,2.38,2.38,0,0,0-.37,1.29v5.42a0.94,0.94,0,0,1-.27.68,0.92,0.92,0,0,1-.69.28,0.9,0.9,0,0,1-.68-0.27,1,1,0,0,1-.26-0.69V31.82a0.94,0.94,0,0,1,.27-0.68,0.89,0.89,0,0,1,.67-0.28,0.92,0.92,0,0,1,.69.28,0.94,0.94,0,0,1,.27.68v0.7a4.3,4.3,0,0,1,1.45-1.35,3.84,3.84,0,0,1,2-.55Q223.65,30.62,223.65,34.94Z"/><path class="cls-3" d="M239.75,31.37a4.78,4.78,0,0,1,1.73,1.93,6.1,6.1,0,0,1,.63,2.8,6,6,0,0,1-.63,2.79,4.86,4.86,0,0,1-1.73,1.93,4.42,4.42,0,0,1-2.42.7,4.21,4.21,0,0,1-1.94-.46,4.68,4.68,0,0,1-1.46-1.12v4.44a0.94,0.94,0,0,1-.27.68,1,1,0,0,1-1.36,0,0.93,0.93,0,0,1-.27-0.69V31.8a1,1,0,0,1,.26-0.7,0.88,0.88,0,0,1,.68-0.28,0.92,0.92,0,0,1,.69.28,1,1,0,0,1,.27.7v0.58a3.92,3.92,0,0,1,1.4-1.2,4,4,0,0,1,2-.5A4.54,4.54,0,0,1,239.75,31.37Zm-1,7.91A3.23,3.23,0,0,0,239.88,38a4.47,4.47,0,0,0,0-3.74,3.23,3.23,0,0,0-1.15-1.31,3,3,0,0,0-1.66-.48,3.07,3.07,0,0,0-1.68.47,3.15,3.15,0,0,0-1.15,1.31,4.52,4.52,0,0,0,0,3.76,3.15,3.15,0,0,0,1.15,1.31,3.06,3.06,0,0,0,1.68.47A3,3,0,0,0,238.73,39.28Z"/><path class="cls-3" d="M253.5,31a1,1,0,0,1,.27.71v8.68a0.94,0.94,0,0,1-.27.68,0.92,0.92,0,0,1-.69.28,0.9,0.9,0,0,1-.68-0.27,1,1,0,0,1-.26-0.69V39.86a4.28,4.28,0,0,1-1.42,1.19,4,4,0,0,1-1.94.49,4.53,4.53,0,0,1-2.47-.7,4.8,4.8,0,0,1-1.74-2,6.58,6.58,0,0,1,0-5.62,4.83,4.83,0,0,1,1.73-2,4.57,4.57,0,0,1,4.39-.26,4.08,4.08,0,0,1,1.45,1.12V31.7a1,1,0,0,1,.26-0.7,0.88,0.88,0,0,1,.68-0.28A0.93,0.93,0,0,1,253.5,31Zm-3.1,8.31A3.24,3.24,0,0,0,251.54,38a4.27,4.27,0,0,0,.41-1.9,4.23,4.23,0,0,0-.41-1.88,3.32,3.32,0,0,0-1.14-1.33,2.93,2.93,0,0,0-1.67-.49,3,3,0,0,0-1.67.48,3.24,3.24,0,0,0-1.14,1.32,4.61,4.61,0,0,0,0,3.8,3.24,3.24,0,0,0,1.14,1.32A3.14,3.14,0,0,0,250.4,39.3ZM248.45,30a0.41,0.41,0,0,1-.16-0.38,0.72,0.72,0,0,1,.12-0.36l1.18-2A1.55,1.55,0,0,1,250,26.8a0.84,0.84,0,0,1,.53-0.18,0.91,0.91,0,0,1,.67.23,0.77,0.77,0,0,1,.21.61,1.05,1.05,0,0,1-.3.7l-1.5,1.64a1.09,1.09,0,0,1-.8.32A0.56,0.56,0,0,1,248.45,30Z"/><path class="cls-3" d="M262.71,30.89a0.8,0.8,0,0,1,.38.67,1,1,0,0,1-.25.73,0.83,0.83,0,0,1-.61.25,1.92,1.92,0,0,1-.54-0.12,2.25,2.25,0,0,0-.66-0.14,2,2,0,0,0-1.21.43,3.15,3.15,0,0,0-1,1.18,3.71,3.71,0,0,0-.37,1.67v4.82a1,1,0,0,1-.27.68,0.92,0.92,0,0,1-.69.28,0.9,0.9,0,0,1-.68-0.27,1,1,0,0,1-.26-0.69V31.82a0.94,0.94,0,0,1,.27-0.68,0.89,0.89,0,0,1,.67-0.28,0.92,0.92,0,0,1,.69.28,1,1,0,0,1,.27.68v1a3.78,3.78,0,0,1,1.32-1.59,3.54,3.54,0,0,1,2-.63A1.52,1.52,0,0,1,262.71,30.89Z"/><path class="cls-3" d="M271,30.89a0.8,0.8,0,0,1,.38.67,1,1,0,0,1-.25.73,0.83,0.83,0,0,1-.61.25,1.91,1.91,0,0,1-.54-0.12,2.25,2.25,0,0,0-.66-0.14,2,2,0,0,0-1.21.43,3.14,3.14,0,0,0-1,1.18,3.72,3.72,0,0,0-.37,1.67v4.82a0.94,0.94,0,0,1-.27.68,0.92,0.92,0,0,1-.69.28,0.9,0.9,0,0,1-.68-0.27,1,1,0,0,1-.26-0.69V31.82a0.94,0.94,0,0,1,.27-0.68,0.89,0.89,0,0,1,.67-0.28,0.92,0.92,0,0,1,.69.28,0.94,0.94,0,0,1,.27.68v1a3.78,3.78,0,0,1,1.32-1.59,3.55,3.55,0,0,1,2-.63A1.52,1.52,0,0,1,271,30.89Z"/><path class="cls-3" d="M282.06,31a1,1,0,0,1,.27.71v8.68a1,1,0,0,1-.27.68,0.92,0.92,0,0,1-.69.28,0.9,0.9,0,0,1-.68-0.27,1,1,0,0,1-.26-0.69V39.86A4.29,4.29,0,0,1,279,41.05a4,4,0,0,1-1.94.49,4.53,4.53,0,0,1-2.47-.7,4.8,4.8,0,0,1-1.74-2,6.58,6.58,0,0,1,0-5.62,4.83,4.83,0,0,1,1.73-2,4.42,4.42,0,0,1,2.42-.7,4.47,4.47,0,0,1,2,.44,4.09,4.09,0,0,1,1.45,1.12V31.7a1,1,0,0,1,.26-0.7,0.88,0.88,0,0,1,.68-0.28A0.94,0.94,0,0,1,282.06,31ZM279,39.3A3.25,3.25,0,0,0,280.1,38a4.29,4.29,0,0,0,.41-1.9,4.24,4.24,0,0,0-.41-1.88A3.33,3.33,0,0,0,279,32.87a2.93,2.93,0,0,0-1.67-.49,3,3,0,0,0-1.67.48,3.24,3.24,0,0,0-1.14,1.32,4.61,4.61,0,0,0,0,3.8,3.24,3.24,0,0,0,1.14,1.32A3.14,3.14,0,0,0,279,39.3Z"/><path class="cls-3" d="M288.66,28.66a1.55,1.55,0,0,0-.31,1V31h2a0.88,0.88,0,0,1,.65.25,0.85,0.85,0,0,1,.25.63,0.82,0.82,0,0,1-.25.62,0.9,0.9,0,0,1-.65.24h-2v7.6a0.94,0.94,0,0,1-.27.68,0.92,0.92,0,0,1-.69.28,0.89,0.89,0,0,1-.67-0.28,0.94,0.94,0,0,1-.27-0.68v-7.6h-1.24a0.91,0.91,0,0,1-.64-0.24,0.81,0.81,0,0,1-.26-0.62,0.84,0.84,0,0,1,.26-0.63,0.89,0.89,0,0,1,.64-0.25h1.24v-1.4a2.89,2.89,0,0,1,.9-2.23,3.61,3.61,0,0,1,2.54-.83,2.74,2.74,0,0,1,1.2.25,0.8,0.8,0,0,1,.52.75,0.9,0.9,0,0,1-.23.63,0.72,0.72,0,0,1-.55.25l-0.44-.08a3,3,0,0,0-.76-0.12A1.15,1.15,0,0,0,288.66,28.66Z"/><path class="cls-3" d="M302.17,38.9a5.09,5.09,0,0,1-1.91,1.94,5.44,5.44,0,0,1-5.34,0A5.08,5.08,0,0,1,293,38.9a5.59,5.59,0,0,1-.7-2.8,5.7,5.7,0,0,1,.7-2.82,5,5,0,0,1,1.91-2,5.44,5.44,0,0,1,5.34,0,5.05,5.05,0,0,1,1.91,2,5.71,5.71,0,0,1,.7,2.82A5.6,5.6,0,0,1,302.17,38.9Zm-1.65-4.73a3.34,3.34,0,0,0-1.22-1.32,3.35,3.35,0,0,0-3.42,0,3.34,3.34,0,0,0-1.22,1.32,4.06,4.06,0,0,0-.45,1.93,4,4,0,0,0,.45,1.9,3.36,3.36,0,0,0,1.22,1.31,3.35,3.35,0,0,0,3.42,0A3.35,3.35,0,0,0,300.52,38a4,4,0,0,0,.45-1.9A4.06,4.06,0,0,0,300.52,34.17Z"/><path class="cls-3" d="M319.8,31.09a1,1,0,0,1,.27.71V44.38a1,1,0,0,1-.27.68,0.92,0.92,0,0,1-.69.28,0.9,0.9,0,0,1-.68-0.27,1,1,0,0,1-.26-0.69V39.82A4.06,4.06,0,0,1,316.76,41a4,4,0,0,1-2,.5,4.48,4.48,0,0,1-2.46-.7,4.9,4.9,0,0,1-1.74-2,6.07,6.07,0,0,1-.64-2.81,6.16,6.16,0,0,1,.63-2.81,4.83,4.83,0,0,1,1.73-2,4.55,4.55,0,0,1,4.38-.26,4.2,4.2,0,0,1,1.46,1.14V31.8a1,1,0,0,1,.26-0.7,0.88,0.88,0,0,1,.68-0.28A0.94,0.94,0,0,1,319.8,31.09Zm-3.1,8.21A3.25,3.25,0,0,0,317.84,38a4.59,4.59,0,0,0,0-3.79,3.23,3.23,0,0,0-1.14-1.33,3.14,3.14,0,0,0-3.34,0,3.22,3.22,0,0,0-1.14,1.33,4.58,4.58,0,0,0,0,3.79,3.24,3.24,0,0,0,1.14,1.32A3.14,3.14,0,0,0,316.7,39.3Z"/><path class="cls-3" d="M331.38,31.14a1,1,0,0,1,.27.68v5.32a4.39,4.39,0,1,1-8.76,0V31.82a0.94,0.94,0,0,1,.27-0.68,0.89,0.89,0,0,1,.67-0.28,0.92,0.92,0,0,1,.69.28,0.94,0.94,0,0,1,.27.68v5.32q0,2.62,2.46,2.62a2.47,2.47,0,0,0,1.86-.66,2.71,2.71,0,0,0,.64-2V31.82a1,1,0,0,1,.27-0.68,0.89,0.89,0,0,1,.67-0.28A0.92,0.92,0,0,1,331.38,31.14Z"/><path class="cls-3" d="M343.39,36.31a1,1,0,0,1-.66.25h-7a3.47,3.47,0,0,0,1.11,2.34,3.4,3.4,0,0,0,2.37.88,3.72,3.72,0,0,0,1.56-.28,3.92,3.92,0,0,0,1.06-.72,1.13,1.13,0,0,1,.58-0.18,0.76,0.76,0,0,1,.57.24,0.78,0.78,0,0,1,.23.56,1,1,0,0,1-.4.76,4.7,4.7,0,0,1-1.54,1,5.06,5.06,0,0,1-2,.4,5.79,5.79,0,0,1-2.85-.68,4.74,4.74,0,0,1-1.9-1.9,5.63,5.63,0,0,1-.67-2.76,6.08,6.08,0,0,1,.69-2.95,5,5,0,0,1,1.82-2,4.69,4.69,0,0,1,4.83,0A5,5,0,0,1,343,33.1a5.2,5.2,0,0,1,.7,2.6A0.86,0.86,0,0,1,343.39,36.31ZM336.85,33a3.1,3.1,0,0,0-1.08,2h5.9V34.8a2.44,2.44,0,0,0-.95-1.74,3,3,0,0,0-1.93-.68A3.09,3.09,0,0,0,336.85,33Zm1.54-3a0.41,0.41,0,0,1-.16-0.38,0.72,0.72,0,0,1,.12-0.36l1.18-2a1.55,1.55,0,0,1,.39-0.46,0.84,0.84,0,0,1,.53-0.18,0.91,0.91,0,0,1,.67.23,0.76,0.76,0,0,1,.21.61,1.05,1.05,0,0,1-.3.7l-1.5,1.64a1.09,1.09,0,0,1-.8.32A0.56,0.56,0,0,1,338.39,30Z"/><path class="cls-3" d="M350.65,39.16a0.81,0.81,0,0,1,.42-0.68,0.78,0.78,0,0,1,.46-0.14,0.92,0.92,0,0,1,.66.3,4.23,4.23,0,0,0,1.29,1,3.7,3.7,0,0,0,1.65.34,2.82,2.82,0,0,0,1.34-.35,1.14,1.14,0,0,0,.58-1.07,1.15,1.15,0,0,0-.59-1,6.71,6.71,0,0,0-1.73-.66,12.77,12.77,0,0,1-1.86-.63,3.33,3.33,0,0,1-1.25-1,2.81,2.81,0,0,1,0-3.23A3.39,3.39,0,0,1,353,31a4.48,4.48,0,0,1,1.85-.38,5.35,5.35,0,0,1,1.91.36,3.59,3.59,0,0,1,1.55,1.1,0.88,0.88,0,0,1,.24.58,0.86,0.86,0,0,1-.32.62,0.72,0.72,0,0,1-.5.18,0.75,0.75,0,0,1-.58-0.24,2.82,2.82,0,0,0-1-.74,3.41,3.41,0,0,0-1.35-.26,2.51,2.51,0,0,0-1.29.31,1.12,1.12,0,0,0-.53,1.05,1.16,1.16,0,0,0,.61,1,7.7,7.7,0,0,0,1.81.66,11.17,11.17,0,0,1,1.76.6,3.07,3.07,0,0,1,1.18,1,2.65,2.65,0,0,1,.48,1.65,2.56,2.56,0,0,1-.54,1.63,3.48,3.48,0,0,1-1.41,1.06,4.67,4.67,0,0,1-1.85.37,6.06,6.06,0,0,1-2.33-.44,4.34,4.34,0,0,1-1.81-1.4A1,1,0,0,1,350.65,39.16Z"/><path class="cls-3" d="M362.5,41.06a0.92,0.92,0,0,1-.69.28,0.89,0.89,0,0,1-.67-0.28,1,1,0,0,1-.27-0.68V31.72a0.94,0.94,0,0,1,.27-0.68,0.89,0.89,0,0,1,.67-0.28,0.92,0.92,0,0,1,.69.28,0.94,0.94,0,0,1,.27.68v8.66A1,1,0,0,1,362.5,41.06ZM361.41,30a0.41,0.41,0,0,1-.16-0.38,0.72,0.72,0,0,1,.12-0.36l1.18-2a1.55,1.55,0,0,1,.39-0.46,0.84,0.84,0,0,1,.53-0.18,0.91,0.91,0,0,1,.67.23,0.76,0.76,0,0,1,.21.61,1.05,1.05,0,0,1-.3.7l-1.5,1.64a1.09,1.09,0,0,1-.8.32A0.56,0.56,0,0,1,361.41,30Z"/><path class="cls-3" d="M44.33,60.31a1,1,0,0,1-.66.25h-7a3.48,3.48,0,0,0,1.11,2.34,3.4,3.4,0,0,0,2.37.88,3.72,3.72,0,0,0,1.56-.28,3.92,3.92,0,0,0,1.06-.72,1.13,1.13,0,0,1,.58-0.18,0.76,0.76,0,0,1,.57.24,0.79,0.79,0,0,1,.23.56,1,1,0,0,1-.4.76,4.71,4.71,0,0,1-1.54,1,5.06,5.06,0,0,1-2,.4,5.79,5.79,0,0,1-2.85-.68,4.73,4.73,0,0,1-1.9-1.9,5.63,5.63,0,0,1-.67-2.76,6.08,6.08,0,0,1,.69-2.95,5,5,0,0,1,1.82-2,4.69,4.69,0,0,1,4.83,0,5,5,0,0,1,1.8,1.82,5.2,5.2,0,0,1,.7,2.6A0.86,0.86,0,0,1,44.33,60.31ZM37.79,57a3.1,3.1,0,0,0-1.08,2h5.9V58.8a2.44,2.44,0,0,0-1-1.74,3,3,0,0,0-1.93-.68A3.09,3.09,0,0,0,37.79,57Z"/><path class="cls-3" d="M46,63.16a0.81,0.81,0,0,1,.42-0.68,0.78,0.78,0,0,1,.46-0.14,0.92,0.92,0,0,1,.66.3,4.21,4.21,0,0,0,1.29,1,3.69,3.69,0,0,0,1.65.34,2.82,2.82,0,0,0,1.34-.35,1.14,1.14,0,0,0,.58-1.07,1.15,1.15,0,0,0-.59-1,6.72,6.72,0,0,0-1.73-.66,12.78,12.78,0,0,1-1.86-.63,3.34,3.34,0,0,1-1.25-1,2.81,2.81,0,0,1,0-3.23A3.39,3.39,0,0,1,48.38,55a4.48,4.48,0,0,1,1.85-.38,5.35,5.35,0,0,1,1.91.36,3.59,3.59,0,0,1,1.55,1.1,0.88,0.88,0,0,1,.24.58,0.86,0.86,0,0,1-.32.62,0.72,0.72,0,0,1-.5.18,0.75,0.75,0,0,1-.58-0.24,2.82,2.82,0,0,0-1-.74,3.41,3.41,0,0,0-1.35-.26,2.51,2.51,0,0,0-1.29.31,1.12,1.12,0,0,0-.53,1.05,1.16,1.16,0,0,0,.61,1,7.72,7.72,0,0,0,1.81.66,11.2,11.2,0,0,1,1.76.6,3.07,3.07,0,0,1,1.18,1,2.65,2.65,0,0,1,.48,1.65,2.57,2.57,0,0,1-.54,1.63,3.48,3.48,0,0,1-1.41,1.06,4.68,4.68,0,0,1-1.85.37A6.07,6.07,0,0,1,48,65.1a4.34,4.34,0,0,1-1.81-1.4A1,1,0,0,1,46,63.16Z"/><path class="cls-3" d="M69.63,55.37a4.78,4.78,0,0,1,1.73,1.93A6.1,6.1,0,0,1,72,60.1a6,6,0,0,1-.63,2.79,4.86,4.86,0,0,1-1.73,1.93,4.42,4.42,0,0,1-2.42.7,4.21,4.21,0,0,1-1.94-.46,4.68,4.68,0,0,1-1.46-1.12v4.44a0.94,0.94,0,0,1-.27.68,1,1,0,0,1-1.36,0,0.93,0.93,0,0,1-.27-0.69V55.8a1,1,0,0,1,.26-0.7,0.88,0.88,0,0,1,.68-0.28,0.92,0.92,0,0,1,.69.28,1,1,0,0,1,.27.7v0.58a3.92,3.92,0,0,1,1.4-1.2,4,4,0,0,1,2-.5A4.54,4.54,0,0,1,69.63,55.37Zm-1,7.91A3.23,3.23,0,0,0,69.76,62a4.47,4.47,0,0,0,0-3.74,3.23,3.23,0,0,0-1.15-1.31,3,3,0,0,0-1.66-.48,3.07,3.07,0,0,0-1.68.47,3.15,3.15,0,0,0-1.15,1.31,4.52,4.52,0,0,0,0,3.76,3.15,3.15,0,0,0,1.15,1.31,3.06,3.06,0,0,0,1.68.47A3,3,0,0,0,68.61,63.28Z"/><path class="cls-3" d="M83.38,55a1,1,0,0,1,.27.71v8.68a0.94,0.94,0,0,1-.27.68,0.92,0.92,0,0,1-.69.28A0.9,0.9,0,0,1,82,65.07a1,1,0,0,1-.26-0.69V63.86a4.28,4.28,0,0,1-1.42,1.19,4,4,0,0,1-1.94.49,4.53,4.53,0,0,1-2.47-.7,4.8,4.8,0,0,1-1.74-2,6.58,6.58,0,0,1,0-5.62,4.83,4.83,0,0,1,1.73-2,4.57,4.57,0,0,1,4.39-.26,4.08,4.08,0,0,1,1.45,1.12V55.7A1,1,0,0,1,82,55a0.88,0.88,0,0,1,.68-0.28A0.93,0.93,0,0,1,83.38,55Zm-3.1,8.31A3.24,3.24,0,0,0,81.42,62a4.27,4.27,0,0,0,.41-1.9,4.23,4.23,0,0,0-.41-1.88,3.32,3.32,0,0,0-1.14-1.33,2.93,2.93,0,0,0-1.67-.49,3,3,0,0,0-1.67.48,3.24,3.24,0,0,0-1.14,1.32,4.61,4.61,0,0,0,0,3.8,3.24,3.24,0,0,0,1.14,1.32A3.14,3.14,0,0,0,80.28,63.3Z"/><path class="cls-3" d="M93.75,63.83a0.89,0.89,0,0,1,0,1.26,0.89,0.89,0,0,1-.64.25H86.65A0.81,0.81,0,0,1,86,65.06a0.87,0.87,0,0,1-.25-0.58,1.68,1.68,0,0,1,.08-0.43,1.6,1.6,0,0,1,.22-0.39l5.24-7H87a0.89,0.89,0,0,1-.9-0.9,0.82,0.82,0,0,1,.25-0.62A0.9,0.9,0,0,1,87,54.9h6.14a0.81,0.81,0,0,1,.63.28,0.91,0.91,0,0,1,.23.68,1.62,1.62,0,0,1-.07.35,1,1,0,0,1-.21.33l-5.28,7h4.7A0.89,0.89,0,0,1,93.75,63.83Z"/><path class="cls-3" d="M109.37,55.37a4.78,4.78,0,0,1,1.73,1.93,6.1,6.1,0,0,1,.63,2.8,6,6,0,0,1-.63,2.79,4.86,4.86,0,0,1-1.73,1.93,4.42,4.42,0,0,1-2.42.7,4.21,4.21,0,0,1-1.94-.46,4.68,4.68,0,0,1-1.46-1.12v4.44a0.94,0.94,0,0,1-.27.68,1,1,0,0,1-1.36,0,0.93,0.93,0,0,1-.27-0.69V55.8a1,1,0,0,1,.26-0.7,0.88,0.88,0,0,1,.68-0.28,0.92,0.92,0,0,1,.69.28,1,1,0,0,1,.27.7v0.58a3.92,3.92,0,0,1,1.4-1.2,4,4,0,0,1,2-.5A4.54,4.54,0,0,1,109.37,55.37Zm-1,7.91A3.23,3.23,0,0,0,109.5,62a4.47,4.47,0,0,0,0-3.74,3.23,3.23,0,0,0-1.15-1.31,3,3,0,0,0-1.66-.48,3.07,3.07,0,0,0-1.68.47,3.15,3.15,0,0,0-1.15,1.31,4.52,4.52,0,0,0,0,3.76A3.15,3.15,0,0,0,105,63.29a3.06,3.06,0,0,0,1.68.47A3,3,0,0,0,108.35,63.28Z"/><path class="cls-3" d="M123.12,55a1,1,0,0,1,.27.71v8.68a0.94,0.94,0,0,1-.27.68,0.92,0.92,0,0,1-.69.28,0.9,0.9,0,0,1-.68-0.27,1,1,0,0,1-.26-0.69V63.86a4.28,4.28,0,0,1-1.42,1.19,4,4,0,0,1-1.94.49,4.53,4.53,0,0,1-2.47-.7,4.8,4.8,0,0,1-1.74-2,6.58,6.58,0,0,1,0-5.62,4.83,4.83,0,0,1,1.73-2,4.57,4.57,0,0,1,4.39-.26,4.08,4.08,0,0,1,1.45,1.12V55.7a1,1,0,0,1,.26-0.7,0.88,0.88,0,0,1,.68-0.28A0.93,0.93,0,0,1,123.12,55ZM120,63.3A3.24,3.24,0,0,0,121.16,62a4.27,4.27,0,0,0,.41-1.9,4.23,4.23,0,0,0-.41-1.88A3.32,3.32,0,0,0,120,56.87a2.93,2.93,0,0,0-1.67-.49,3,3,0,0,0-1.67.48,3.24,3.24,0,0,0-1.14,1.32,4.61,4.61,0,0,0,0,3.8,3.24,3.24,0,0,0,1.14,1.32A3.14,3.14,0,0,0,120,63.3Z"/><path class="cls-3" d="M132.33,54.89a0.8,0.8,0,0,1,.38.67,1,1,0,0,1-.25.73,0.83,0.83,0,0,1-.61.25,1.9,1.9,0,0,1-.54-0.12,2.25,2.25,0,0,0-.66-0.14,2,2,0,0,0-1.21.43,3.14,3.14,0,0,0-1,1.18,3.73,3.73,0,0,0-.37,1.67v4.82a0.94,0.94,0,0,1-.27.68,0.92,0.92,0,0,1-.69.28,0.9,0.9,0,0,1-.68-0.27,1,1,0,0,1-.26-0.69V55.82a0.94,0.94,0,0,1,.27-0.68,0.89,0.89,0,0,1,.67-0.28,0.92,0.92,0,0,1,.69.28,0.94,0.94,0,0,1,.27.68v1a3.79,3.79,0,0,1,1.32-1.59,3.54,3.54,0,0,1,2-.63A1.52,1.52,0,0,1,132.33,54.89Z"/><path class="cls-3" d="M143.42,55a1,1,0,0,1,.27.71v8.68a0.94,0.94,0,0,1-.27.68,0.92,0.92,0,0,1-.69.28,0.9,0.9,0,0,1-.68-0.27,1,1,0,0,1-.26-0.69V63.86a4.28,4.28,0,0,1-1.42,1.19,4,4,0,0,1-1.94.49,4.53,4.53,0,0,1-2.47-.7,4.8,4.8,0,0,1-1.74-2,6.58,6.58,0,0,1,0-5.62,4.83,4.83,0,0,1,1.73-2,4.57,4.57,0,0,1,4.39-.26,4.08,4.08,0,0,1,1.45,1.12V55.7A1,1,0,0,1,142,55a0.88,0.88,0,0,1,.68-0.28A0.93,0.93,0,0,1,143.42,55Zm-3.1,8.31A3.24,3.24,0,0,0,141.46,62a4.27,4.27,0,0,0,.41-1.9,4.23,4.23,0,0,0-.41-1.88,3.32,3.32,0,0,0-1.14-1.33,2.93,2.93,0,0,0-1.67-.49,3,3,0,0,0-1.67.48,3.24,3.24,0,0,0-1.14,1.32,4.61,4.61,0,0,0,0,3.8A3.24,3.24,0,0,0,137,63.3,3.14,3.14,0,0,0,140.32,63.3Z"/><path class="cls-3" d="M154.89,56.72v6a0.84,0.84,0,0,0,.9,1,1.44,1.44,0,0,0,.38-0.07,1.46,1.46,0,0,1,.38-0.07,0.55,0.55,0,0,1,.44.22,0.84,0.84,0,0,1-.3,1.28,2,2,0,0,1-1.08.3,4.88,4.88,0,0,1-1.21-.14,1.79,1.79,0,0,1-1-.71,2.86,2.86,0,0,1-.43-1.73v-6h-1.16a0.85,0.85,0,0,1-.88-0.88,0.82,0.82,0,0,1,.25-0.62,0.87,0.87,0,0,1,.63-0.24H153V53.3a1,1,0,0,1,.27-0.68,0.92,0.92,0,0,1,.69-0.28,0.89,0.89,0,0,1,.67.28,1,1,0,0,1,.27.68V55h1.66a0.85,0.85,0,0,1,.88.88,0.82,0.82,0,0,1-.25.62,0.87,0.87,0,0,1-.63.24h-1.66Z"/><path class="cls-3" d="M159.66,53.23a0.83,0.83,0,0,1-.25-0.67V52.24a0.79,0.79,0,0,1,.27-0.68,1.4,1.4,0,0,1,.83-0.2,1.25,1.25,0,0,1,.81.21,0.83,0.83,0,0,1,.25.67v0.32a0.81,0.81,0,0,1-.26.68,1.35,1.35,0,0,1-.82.2A1.29,1.29,0,0,1,159.66,53.23Zm1.52,11.83a0.92,0.92,0,0,1-.69.28,0.89,0.89,0,0,1-.67-0.28,1,1,0,0,1-.27-0.68V55.72a0.94,0.94,0,0,1,.27-0.68,0.89,0.89,0,0,1,.67-0.28,0.92,0.92,0,0,1,.69.28,0.94,0.94,0,0,1,.27.68v8.66A1,1,0,0,1,161.18,65.06Z"/><path class="cls-3" d="M164.14,65.06a1.05,1.05,0,0,1-.25-0.76V63.92a1,1,0,0,1,.25-0.74,1,1,0,0,1,.73-0.26h0.2a1,1,0,0,1,.75.26,1,1,0,0,1,.25.74V64.3a0.89,0.89,0,0,1-1,1h-0.2A1,1,0,0,1,164.14,65.06Z"/><path class="cls-3" d="M176,65.13a6.58,6.58,0,0,1-2.14-1.33,1.06,1.06,0,0,1-.42-0.82,0.91,0.91,0,0,1,.28-0.65,0.89,0.89,0,0,1,.66-0.29,0.83,0.83,0,0,1,.58.22,5.56,5.56,0,0,0,1.65,1.09,5,5,0,0,0,1.93.35,3.75,3.75,0,0,0,2.13-.58,1.71,1.71,0,0,0,.87-1.46,1.88,1.88,0,0,0-.87-1.61,7.78,7.78,0,0,0-2.59-1A6.88,6.88,0,0,1,175,57.72a3.33,3.33,0,0,1-1.11-2.66,3.53,3.53,0,0,1,.62-2.07,4,4,0,0,1,1.72-1.37,6.14,6.14,0,0,1,2.48-.48,6.8,6.8,0,0,1,2.34.4,4.94,4.94,0,0,1,1.78,1.06,1.14,1.14,0,0,1,.46.86,0.9,0.9,0,0,1-.27.64,0.87,0.87,0,0,1-.65.28,0.66,0.66,0,0,1-.46-0.16,4.16,4.16,0,0,0-1.44-.88,4.82,4.82,0,0,0-1.76-.36,3.67,3.67,0,0,0-2.13.55,1.77,1.77,0,0,0,0,3,7.42,7.42,0,0,0,2.35.88,12.51,12.51,0,0,1,2.55.8A3.59,3.59,0,0,1,183,59.44a3.83,3.83,0,0,1,.54,2.14,3.43,3.43,0,0,1-.65,2.06,4.28,4.28,0,0,1-1.77,1.4,6,6,0,0,1-2.46.5A7.49,7.49,0,0,1,176,65.13Z"/><path class="cls-3" d="M185.8,53.23a0.83,0.83,0,0,1-.25-0.67V52.24a0.79,0.79,0,0,1,.27-0.68,1.4,1.4,0,0,1,.83-0.2,1.25,1.25,0,0,1,.81.21,0.83,0.83,0,0,1,.25.67v0.32a0.81,0.81,0,0,1-.26.68,1.35,1.35,0,0,1-.82.2A1.29,1.29,0,0,1,185.8,53.23Zm1.52,11.83a0.92,0.92,0,0,1-.69.28,0.89,0.89,0,0,1-.67-0.28,1,1,0,0,1-.27-0.68V55.72A0.94,0.94,0,0,1,186,55a0.89,0.89,0,0,1,.67-0.28,0.92,0.92,0,0,1,.69.28,0.94,0.94,0,0,1,.27.68v8.66A1,1,0,0,1,187.32,65.06Z"/><path class="cls-3" d="M205.06,55.09a1,1,0,0,1,.27.71V68.38a0.94,0.94,0,0,1-.27.68,0.92,0.92,0,0,1-.69.28,0.9,0.9,0,0,1-.68-0.27,1,1,0,0,1-.26-0.69V63.82A4,4,0,0,1,202,65a4,4,0,0,1-1.95.5,4.48,4.48,0,0,1-2.46-.7,4.9,4.9,0,0,1-1.74-2,6.07,6.07,0,0,1-.64-2.81,6.16,6.16,0,0,1,.63-2.81,4.83,4.83,0,0,1,1.73-2,4.55,4.55,0,0,1,4.38-.26,4.2,4.2,0,0,1,1.46,1.14V55.8a1,1,0,0,1,.26-0.7,0.88,0.88,0,0,1,.68-0.28A0.93,0.93,0,0,1,205.06,55.09ZM202,63.3A3.24,3.24,0,0,0,203.1,62a4.58,4.58,0,0,0,0-3.79A3.23,3.23,0,0,0,202,56.86a3.14,3.14,0,0,0-3.34,0,3.23,3.23,0,0,0-1.14,1.33,4.59,4.59,0,0,0,0,3.79,3.24,3.24,0,0,0,1.14,1.32A3.14,3.14,0,0,0,202,63.3Z"/><path class="cls-3" d="M216.64,55.14a1,1,0,0,1,.27.68v5.32a4.39,4.39,0,1,1-8.76,0V55.82a0.94,0.94,0,0,1,.27-0.68,0.89,0.89,0,0,1,.67-0.28,0.92,0.92,0,0,1,.69.28,0.94,0.94,0,0,1,.27.68v5.32q0,2.62,2.46,2.62a2.47,2.47,0,0,0,1.86-.66,2.71,2.71,0,0,0,.64-2V55.82a1,1,0,0,1,.27-0.68,0.89,0.89,0,0,1,.67-0.28A0.92,0.92,0,0,1,216.64,55.14Z"/><path class="cls-3" d="M219.76,53.23a0.83,0.83,0,0,1-.25-0.67V52.24a0.79,0.79,0,0,1,.27-0.68,1.4,1.4,0,0,1,.83-0.2,1.25,1.25,0,0,1,.81.21,0.83,0.83,0,0,1,.25.67v0.32a0.81,0.81,0,0,1-.26.68,1.35,1.35,0,0,1-.82.2A1.29,1.29,0,0,1,219.76,53.23Zm1.52,11.83a0.92,0.92,0,0,1-.69.28,0.89,0.89,0,0,1-.67-0.28,1,1,0,0,1-.27-0.68V55.72a0.94,0.94,0,0,1,.27-0.68,0.89,0.89,0,0,1,.67-0.28,0.92,0.92,0,0,1,.69.28,0.94,0.94,0,0,1,.27.68v8.66A1,1,0,0,1,221.28,65.06Z"/><path class="cls-3" d="M233.19,60.31a1,1,0,0,1-.66.25h-7a3.48,3.48,0,0,0,1.11,2.34,3.4,3.4,0,0,0,2.37.88,3.72,3.72,0,0,0,1.56-.28,3.92,3.92,0,0,0,1.06-.72,1.13,1.13,0,0,1,.58-0.18,0.76,0.76,0,0,1,.57.24,0.79,0.79,0,0,1,.23.56,1,1,0,0,1-.4.76,4.71,4.71,0,0,1-1.54,1,5.06,5.06,0,0,1-2,.4,5.79,5.79,0,0,1-2.85-.68,4.73,4.73,0,0,1-1.9-1.9,5.63,5.63,0,0,1-.67-2.76,6.08,6.08,0,0,1,.69-2.95,5,5,0,0,1,1.82-2,4.69,4.69,0,0,1,4.83,0,5,5,0,0,1,1.8,1.82,5.2,5.2,0,0,1,.7,2.6A0.86,0.86,0,0,1,233.19,60.31ZM226.65,57a3.1,3.1,0,0,0-1.08,2h5.9V58.8a2.44,2.44,0,0,0-1-1.74,3,3,0,0,0-1.93-.68A3.09,3.09,0,0,0,226.65,57Z"/><path class="cls-3" d="M241.81,54.89a0.8,0.8,0,0,1,.38.67,1,1,0,0,1-.25.73,0.83,0.83,0,0,1-.61.25,1.9,1.9,0,0,1-.54-0.12,2.25,2.25,0,0,0-.66-0.14,2,2,0,0,0-1.21.43,3.14,3.14,0,0,0-1,1.18,3.73,3.73,0,0,0-.37,1.67v4.82a0.94,0.94,0,0,1-.27.68,0.92,0.92,0,0,1-.69.28,0.9,0.9,0,0,1-.68-0.27,1,1,0,0,1-.26-0.69V55.82a0.94,0.94,0,0,1,.27-0.68,0.89,0.89,0,0,1,.67-0.28,0.92,0.92,0,0,1,.69.28,0.94,0.94,0,0,1,.27.68v1a3.79,3.79,0,0,1,1.32-1.59,3.54,3.54,0,0,1,2-.63A1.52,1.52,0,0,1,241.81,54.89Z"/><path class="cls-3" d="M252.4,60.31a1,1,0,0,1-.66.25h-7a3.48,3.48,0,0,0,1.11,2.34,3.4,3.4,0,0,0,2.37.88,3.72,3.72,0,0,0,1.56-.28,3.92,3.92,0,0,0,1.06-.72,1.13,1.13,0,0,1,.58-0.18,0.76,0.76,0,0,1,.57.24,0.79,0.79,0,0,1,.23.56,1,1,0,0,1-.4.76,4.71,4.71,0,0,1-1.54,1,5.06,5.06,0,0,1-2,.4,5.79,5.79,0,0,1-2.85-.68,4.73,4.73,0,0,1-1.9-1.9,5.63,5.63,0,0,1-.67-2.76,6.08,6.08,0,0,1,.69-2.95,5,5,0,0,1,1.82-2,4.69,4.69,0,0,1,4.83,0A5,5,0,0,1,252,57.1a5.2,5.2,0,0,1,.7,2.6A0.86,0.86,0,0,1,252.4,60.31ZM245.86,57a3.1,3.1,0,0,0-1.08,2h5.9V58.8a2.44,2.44,0,0,0-1-1.74,3,3,0,0,0-1.93-.68A3.09,3.09,0,0,0,245.86,57Z"/><path class="cls-3" d="M254.13,63.16a0.81,0.81,0,0,1,.42-0.68,0.78,0.78,0,0,1,.46-0.14,0.92,0.92,0,0,1,.66.3,4.22,4.22,0,0,0,1.29,1,3.7,3.7,0,0,0,1.65.34,2.82,2.82,0,0,0,1.34-.35,1.14,1.14,0,0,0,.58-1.07,1.15,1.15,0,0,0-.59-1,6.71,6.71,0,0,0-1.73-.66,12.77,12.77,0,0,1-1.86-.63,3.34,3.34,0,0,1-1.25-1,2.81,2.81,0,0,1,0-3.23A3.4,3.4,0,0,1,256.45,55a4.48,4.48,0,0,1,1.85-.38,5.35,5.35,0,0,1,1.91.36,3.59,3.59,0,0,1,1.55,1.1,0.88,0.88,0,0,1,.24.58,0.86,0.86,0,0,1-.32.62,0.72,0.72,0,0,1-.5.18,0.75,0.75,0,0,1-.58-0.24,2.82,2.82,0,0,0-1-.74,3.41,3.41,0,0,0-1.35-.26,2.51,2.51,0,0,0-1.29.31,1.12,1.12,0,0,0-.53,1.05,1.16,1.16,0,0,0,.61,1,7.7,7.7,0,0,0,1.81.66,11.17,11.17,0,0,1,1.76.6,3.07,3.07,0,0,1,1.18,1,2.65,2.65,0,0,1,.48,1.65,2.56,2.56,0,0,1-.54,1.63,3.48,3.48,0,0,1-1.41,1.06,4.67,4.67,0,0,1-1.85.37,6.06,6.06,0,0,1-2.33-.44,4.34,4.34,0,0,1-1.81-1.4A1,1,0,0,1,254.13,63.16Z"/><path class="cls-3" d="M279.44,55a1,1,0,0,1,.27.71v8.8a5,5,0,0,1-.69,2.71,4.15,4.15,0,0,1-1.87,1.61,6.53,6.53,0,0,1-2.66.52,7.53,7.53,0,0,1-1.87-.28,3.34,3.34,0,0,1-1.37-.58,0.79,0.79,0,0,1-.54-1.12,0.76,0.76,0,0,1,.74-0.5A1.52,1.52,0,0,1,272,67a7.51,7.51,0,0,0,2.5.62,3.53,3.53,0,0,0,2.45-.77,2.7,2.7,0,0,0,.85-2.11V63.64A3.48,3.48,0,0,1,276.4,65a4.19,4.19,0,0,1-2.09.56,4.72,4.72,0,0,1-2.52-.7,4.87,4.87,0,0,1-1.79-2,6.4,6.4,0,0,1,0-5.62,4.9,4.9,0,0,1,1.78-2,4.64,4.64,0,0,1,2.49-.7,4.55,4.55,0,0,1,3.54,1.72V55.7a1,1,0,0,1,.26-0.7,0.89,0.89,0,0,1,.68-0.28A0.94,0.94,0,0,1,279.44,55Zm-3.17,8.32A3.22,3.22,0,0,0,277.45,62a4.16,4.16,0,0,0,.43-1.91,4.11,4.11,0,0,0-.43-1.9,3.3,3.3,0,0,0-1.19-1.32,3.19,3.19,0,0,0-1.74-.48,3.15,3.15,0,0,0-1.72.48,3.29,3.29,0,0,0-1.19,1.33,4.37,4.37,0,0,0,0,3.78,3.29,3.29,0,0,0,1.19,1.33,3.15,3.15,0,0,0,1.72.48A3.24,3.24,0,0,0,276.27,63.31Z"/><path class="cls-3" d="M290.85,55.14a1,1,0,0,1,.27.68v5.32a4.39,4.39,0,1,1-8.76,0V55.82a0.94,0.94,0,0,1,.27-0.68,0.89,0.89,0,0,1,.67-0.28,0.92,0.92,0,0,1,.69.28,0.94,0.94,0,0,1,.27.68v5.32q0,2.62,2.46,2.62a2.47,2.47,0,0,0,1.86-.66,2.71,2.71,0,0,0,.64-2V55.82a1,1,0,0,1,.27-0.68,0.89,0.89,0,0,1,.67-0.28A0.92,0.92,0,0,1,290.85,55.14Z"/><path class="cls-3" d="M303.15,55a1,1,0,0,1,.27.71v8.68a1,1,0,0,1-.27.68,0.92,0.92,0,0,1-.69.28,0.9,0.9,0,0,1-.68-0.27,1,1,0,0,1-.26-0.69V63.86a4.29,4.29,0,0,1-1.42,1.19,4,4,0,0,1-1.94.49,4.53,4.53,0,0,1-2.47-.7,4.8,4.8,0,0,1-1.74-2,6.58,6.58,0,0,1,0-5.62,4.83,4.83,0,0,1,1.73-2,4.42,4.42,0,0,1,2.42-.7,4.47,4.47,0,0,1,2,.44,4.09,4.09,0,0,1,1.45,1.12V55.7a1,1,0,0,1,.26-0.7,0.88,0.88,0,0,1,.68-0.28A0.94,0.94,0,0,1,303.15,55Zm-3.1,8.31A3.25,3.25,0,0,0,301.19,62a4.29,4.29,0,0,0,.41-1.9,4.24,4.24,0,0,0-.41-1.88,3.33,3.33,0,0,0-1.14-1.33,2.93,2.93,0,0,0-1.67-.49,3,3,0,0,0-1.67.48,3.24,3.24,0,0,0-1.14,1.32,4.61,4.61,0,0,0,0,3.8,3.24,3.24,0,0,0,1.14,1.32A3.14,3.14,0,0,0,300.05,63.3Z"/><path class="cls-3" d="M312.36,54.89a0.8,0.8,0,0,1,.38.67,1,1,0,0,1-.25.73,0.83,0.83,0,0,1-.61.25,1.91,1.91,0,0,1-.54-0.12,2.25,2.25,0,0,0-.66-0.14,2,2,0,0,0-1.21.43,3.14,3.14,0,0,0-1,1.18,3.72,3.72,0,0,0-.37,1.67v4.82a0.94,0.94,0,0,1-.27.68,0.92,0.92,0,0,1-.69.28,0.9,0.9,0,0,1-.68-0.27,1,1,0,0,1-.26-0.69V55.82a0.94,0.94,0,0,1,.27-0.68,0.89,0.89,0,0,1,.67-0.28,0.92,0.92,0,0,1,.69.28,0.94,0.94,0,0,1,.27.68v1a3.78,3.78,0,0,1,1.32-1.59,3.55,3.55,0,0,1,2-.63A1.52,1.52,0,0,1,312.36,54.89Z"/><path class="cls-3" d="M323.26,50.81a0.93,0.93,0,0,1,.27.69V64.38a1,1,0,0,1-.27.68,0.92,0.92,0,0,1-.69.28,0.9,0.9,0,0,1-.68-0.27,1,1,0,0,1-.26-0.69V63.82A4.06,4.06,0,0,1,320.22,65a4,4,0,0,1-2,.5,4.48,4.48,0,0,1-2.46-.7,4.9,4.9,0,0,1-1.74-2,6.07,6.07,0,0,1-.64-2.81,6.16,6.16,0,0,1,.63-2.81,4.83,4.83,0,0,1,1.73-2,4.55,4.55,0,0,1,4.38-.26,4.2,4.2,0,0,1,1.46,1.14V51.5a1,1,0,0,1,.26-0.69,0.9,0.9,0,0,1,.68-0.27A0.94,0.94,0,0,1,323.26,50.81Zm-3.1,12.49A3.25,3.25,0,0,0,321.3,62a4.59,4.59,0,0,0,0-3.79,3.23,3.23,0,0,0-1.14-1.33,3.14,3.14,0,0,0-3.34,0,3.22,3.22,0,0,0-1.14,1.33,4.58,4.58,0,0,0,0,3.79,3.24,3.24,0,0,0,1.14,1.32A3.14,3.14,0,0,0,320.15,63.3Z"/><path class="cls-3" d="M335.54,55a1,1,0,0,1,.27.71v8.68a1,1,0,0,1-.27.68,0.92,0.92,0,0,1-.69.28,0.9,0.9,0,0,1-.68-0.27,1,1,0,0,1-.26-0.69V63.86a4.29,4.29,0,0,1-1.42,1.19,4,4,0,0,1-1.94.49,4.53,4.53,0,0,1-2.47-.7,4.8,4.8,0,0,1-1.74-2,6.58,6.58,0,0,1,0-5.62,4.83,4.83,0,0,1,1.73-2,4.42,4.42,0,0,1,2.42-.7,4.47,4.47,0,0,1,2,.44,4.09,4.09,0,0,1,1.45,1.12V55.7a1,1,0,0,1,.26-0.7,0.88,0.88,0,0,1,.68-0.28A0.94,0.94,0,0,1,335.54,55Zm-3.1,8.31A3.25,3.25,0,0,0,333.58,62a4.29,4.29,0,0,0,.41-1.9,4.24,4.24,0,0,0-.41-1.88,3.33,3.33,0,0,0-1.14-1.33,2.93,2.93,0,0,0-1.67-.49,3,3,0,0,0-1.67.48A3.24,3.24,0,0,0,328,58.18a4.61,4.61,0,0,0,0,3.8,3.24,3.24,0,0,0,1.14,1.32A3.14,3.14,0,0,0,332.44,63.3Z"/><path class="cls-3" d="M344.75,54.89a0.8,0.8,0,0,1,.38.67,1,1,0,0,1-.25.73,0.83,0.83,0,0,1-.61.25,1.91,1.91,0,0,1-.54-0.12,2.25,2.25,0,0,0-.66-0.14,2,2,0,0,0-1.21.43,3.14,3.14,0,0,0-1,1.18,3.72,3.72,0,0,0-.37,1.67v4.82a0.94,0.94,0,0,1-.27.68,0.92,0.92,0,0,1-.69.28,0.9,0.9,0,0,1-.68-0.27,1,1,0,0,1-.26-0.69V55.82a0.94,0.94,0,0,1,.27-0.68,0.89,0.89,0,0,1,.67-0.28,0.92,0.92,0,0,1,.69.28,0.94,0.94,0,0,1,.27.68v1a3.78,3.78,0,0,1,1.32-1.59,3.55,3.55,0,0,1,2-.63A1.52,1.52,0,0,1,344.75,54.89Z"/><path class="cls-3" d="M361.33,60.31a1,1,0,0,1-.66.25h-7a3.47,3.47,0,0,0,1.11,2.34,3.4,3.4,0,0,0,2.37.88,3.72,3.72,0,0,0,1.56-.28,3.92,3.92,0,0,0,1.06-.72,1.13,1.13,0,0,1,.58-0.18,0.76,0.76,0,0,1,.57.24,0.78,0.78,0,0,1,.23.56,1,1,0,0,1-.4.76,4.7,4.7,0,0,1-1.54,1,5.06,5.06,0,0,1-2,.4,5.79,5.79,0,0,1-2.85-.68,4.74,4.74,0,0,1-1.9-1.9,5.63,5.63,0,0,1-.67-2.76,6.08,6.08,0,0,1,.69-2.95,5,5,0,0,1,1.82-2,4.69,4.69,0,0,1,4.83,0,5,5,0,0,1,1.8,1.82,5.2,5.2,0,0,1,.7,2.6A0.86,0.86,0,0,1,361.33,60.31ZM354.79,57a3.1,3.1,0,0,0-1.08,2h5.9V58.8a2.44,2.44,0,0,0-.95-1.74,3,3,0,0,0-1.93-.68A3.09,3.09,0,0,0,354.79,57Z"/><path class="cls-3" d="M365.6,65.06a0.93,0.93,0,0,1-.68.28,0.89,0.89,0,0,1-.67-0.28,1,1,0,0,1-.27-0.68V51.5a1,1,0,0,1,1-1,0.89,0.89,0,0,1,.67.28,1,1,0,0,1,.27.68V64.38A0.93,0.93,0,0,1,365.6,65.06Z"/><path class="cls-3" d="M38.27,80.72v6a0.84,0.84,0,0,0,.9,1,1.44,1.44,0,0,0,.38-0.07,1.46,1.46,0,0,1,.38-0.07,0.55,0.55,0,0,1,.44.22,0.84,0.84,0,0,1-.3,1.28,2,2,0,0,1-1.08.3,4.88,4.88,0,0,1-1.21-.14,1.79,1.79,0,0,1-1-.71,2.86,2.86,0,0,1-.43-1.73v-6H35.21a0.85,0.85,0,0,1-.88-0.88,0.82,0.82,0,0,1,.25-0.62A0.87,0.87,0,0,1,35.21,79h1.16V77.3a1,1,0,0,1,.27-0.68,0.92,0.92,0,0,1,.69-0.28,0.89,0.89,0,0,1,.67.28,1,1,0,0,1,.27.68V79h1.66a0.85,0.85,0,0,1,.88.88,0.82,0.82,0,0,1-.25.62,0.87,0.87,0,0,1-.63.24H38.27Z"/><path class="cls-3" d="M51.83,84.31a1,1,0,0,1-.66.25h-7a3.48,3.48,0,0,0,1.11,2.34,3.4,3.4,0,0,0,2.37.88,3.72,3.72,0,0,0,1.56-.28,3.92,3.92,0,0,0,1.06-.72,1.13,1.13,0,0,1,.58-0.18,0.76,0.76,0,0,1,.57.24,0.79,0.79,0,0,1,.23.56,1,1,0,0,1-.4.76,4.71,4.71,0,0,1-1.54,1,5.06,5.06,0,0,1-2,.4,5.79,5.79,0,0,1-2.85-.68A4.73,4.73,0,0,1,43,87a5.63,5.63,0,0,1-.67-2.76A6.08,6.08,0,0,1,43,81.25a5,5,0,0,1,1.82-2,4.69,4.69,0,0,1,4.83,0,5,5,0,0,1,1.8,1.82,5.2,5.2,0,0,1,.7,2.6A0.86,0.86,0,0,1,51.83,84.31ZM45.29,81a3.1,3.1,0,0,0-1.08,2h5.9V82.8a2.44,2.44,0,0,0-1-1.74,3,3,0,0,0-1.93-.68A3.09,3.09,0,0,0,45.29,81Z"/><path class="cls-3" d="M62.11,88.42a1,1,0,0,1-1,1A1,1,0,0,1,60.37,89L57.69,85.6,55,89a0.91,0.91,0,0,1-.34.3,0.93,0.93,0,0,1-.42.1,0.94,0.94,0,0,1-.63-0.25,0.76,0.76,0,0,1-.29-0.59,0.85,0.85,0,0,1,.22-0.6l3-3.74-3.08-3.88a0.9,0.9,0,0,1-.2-0.56,0.91,0.91,0,0,1,.29-0.68A1,1,0,0,1,55,79.2l2.74,3.46,2.58-3.44a0.9,0.9,0,0,1,.76-0.42,0.89,0.89,0,0,1,.64.25,0.79,0.79,0,0,1,.26.59,0.88,0.88,0,0,1-.22.62l-3,3.74,3,3.86A0.8,0.8,0,0,1,62.11,88.42Z"/><path class="cls-3" d="M67.83,80.72v6a0.84,0.84,0,0,0,.9,1,1.44,1.44,0,0,0,.38-0.07,1.46,1.46,0,0,1,.38-0.07,0.55,0.55,0,0,1,.44.22,0.84,0.84,0,0,1-.3,1.28,2,2,0,0,1-1.08.3,4.88,4.88,0,0,1-1.21-.14,1.79,1.79,0,0,1-1-.71,2.86,2.86,0,0,1-.43-1.73v-6H64.77a0.85,0.85,0,0,1-.88-0.88,0.82,0.82,0,0,1,.25-0.62A0.87,0.87,0,0,1,64.77,79h1.16V77.3a1,1,0,0,1,.27-0.68,0.92,0.92,0,0,1,.69-0.28,0.89,0.89,0,0,1,.67.28,1,1,0,0,1,.27.68V79h1.66a0.85,0.85,0,0,1,.88.88,0.82,0.82,0,0,1-.25.62,0.87,0.87,0,0,1-.63.24H67.83Z"/><path class="cls-3" d="M81.71,86.9a5.09,5.09,0,0,1-1.91,1.94,5.44,5.44,0,0,1-5.34,0,5.08,5.08,0,0,1-1.91-1.94,5.6,5.6,0,0,1-.7-2.8,5.71,5.71,0,0,1,.7-2.82,5,5,0,0,1,1.91-2,5.44,5.44,0,0,1,5.34,0,5.05,5.05,0,0,1,1.91,2,5.71,5.71,0,0,1,.7,2.82A5.6,5.6,0,0,1,81.71,86.9Zm-1.65-4.73a3.35,3.35,0,0,0-1.22-1.32,3.35,3.35,0,0,0-3.42,0,3.34,3.34,0,0,0-1.22,1.32,4.06,4.06,0,0,0-.45,1.93A4,4,0,0,0,74.2,86a3.36,3.36,0,0,0,1.22,1.31,3.35,3.35,0,0,0,3.42,0A3.36,3.36,0,0,0,80.06,86a4,4,0,0,0,.45-1.9A4.06,4.06,0,0,0,80.06,82.17Z"/><path class="cls-3" d="M97.87,79.37A4.78,4.78,0,0,1,99.6,81.3a6.1,6.1,0,0,1,.63,2.8,6,6,0,0,1-.63,2.79,4.86,4.86,0,0,1-1.73,1.93,4.42,4.42,0,0,1-2.42.7,4.21,4.21,0,0,1-1.94-.46A4.68,4.68,0,0,1,92,87.94v4.44a0.94,0.94,0,0,1-.27.68,1,1,0,0,1-1.36,0,0.93,0.93,0,0,1-.27-0.69V79.8a1,1,0,0,1,.26-0.7,0.88,0.88,0,0,1,.68-0.28,0.92,0.92,0,0,1,.69.28,1,1,0,0,1,.27.7v0.58a3.92,3.92,0,0,1,1.4-1.2,4,4,0,0,1,2-.5A4.54,4.54,0,0,1,97.87,79.37Zm-1,7.91A3.23,3.23,0,0,0,98,86a4.47,4.47,0,0,0,0-3.74,3.23,3.23,0,0,0-1.15-1.31,3,3,0,0,0-1.66-.48,3.07,3.07,0,0,0-1.68.47,3.15,3.15,0,0,0-1.15,1.31,4.52,4.52,0,0,0,0,3.76,3.15,3.15,0,0,0,1.15,1.31,3.06,3.06,0,0,0,1.68.47A3,3,0,0,0,96.85,87.28Z"/><path class="cls-3" d="M110.92,79.14a1,1,0,0,1,.27.68v5.32a4.39,4.39,0,1,1-8.76,0V79.82a0.94,0.94,0,0,1,.27-0.68,0.89,0.89,0,0,1,.67-0.28,0.92,0.92,0,0,1,.69.28,0.94,0.94,0,0,1,.27.68v5.32q0,2.62,2.46,2.62a2.47,2.47,0,0,0,1.86-.66,2.71,2.71,0,0,0,.64-2V79.82a1,1,0,0,1,.27-0.68,0.89,0.89,0,0,1,.67-0.28A0.92,0.92,0,0,1,110.92,79.14Z"/><path class="cls-3" d="M122.93,84.31a1,1,0,0,1-.66.25h-7a3.48,3.48,0,0,0,1.11,2.34,3.4,3.4,0,0,0,2.37.88,3.72,3.72,0,0,0,1.56-.28,3.92,3.92,0,0,0,1.06-.72,1.13,1.13,0,0,1,.58-0.18,0.76,0.76,0,0,1,.57.24,0.79,0.79,0,0,1,.23.56,1,1,0,0,1-.4.76,4.71,4.71,0,0,1-1.54,1,5.06,5.06,0,0,1-2,.4,5.79,5.79,0,0,1-2.85-.68,4.73,4.73,0,0,1-1.9-1.9,5.63,5.63,0,0,1-.67-2.76,6.08,6.08,0,0,1,.69-2.95,5,5,0,0,1,1.82-2,4.69,4.69,0,0,1,4.83,0,5,5,0,0,1,1.8,1.82,5.2,5.2,0,0,1,.7,2.6A0.86,0.86,0,0,1,122.93,84.31ZM116.39,81a3.1,3.1,0,0,0-1.08,2h5.9V82.8a2.44,2.44,0,0,0-1-1.74,3,3,0,0,0-1.93-.68A3.09,3.09,0,0,0,116.39,81Z"/><path class="cls-3" d="M134.62,74.81a0.93,0.93,0,0,1,.27.69V88.38a0.94,0.94,0,0,1-.27.68,0.92,0.92,0,0,1-.69.28,0.9,0.9,0,0,1-.68-0.27,1,1,0,0,1-.26-0.69V87.82A4,4,0,0,1,131.58,89a4,4,0,0,1-1.95.5,4.48,4.48,0,0,1-2.46-.7,4.9,4.9,0,0,1-1.74-2,6.07,6.07,0,0,1-.64-2.81,6.16,6.16,0,0,1,.63-2.81,4.83,4.83,0,0,1,1.73-2,4.55,4.55,0,0,1,4.38-.26A4.2,4.2,0,0,1,133,80.2V75.5a1,1,0,0,1,.26-0.69,0.9,0.9,0,0,1,.68-0.27A0.93,0.93,0,0,1,134.62,74.81Zm-3.1,12.49A3.24,3.24,0,0,0,132.66,86a4.58,4.58,0,0,0,0-3.79,3.23,3.23,0,0,0-1.14-1.33,3.14,3.14,0,0,0-3.34,0A3.23,3.23,0,0,0,127,82.19,4.59,4.59,0,0,0,127,86a3.24,3.24,0,0,0,1.14,1.32A3.14,3.14,0,0,0,131.52,87.3Z"/><path class="cls-3" d="M146.61,84.31a1,1,0,0,1-.66.25h-7A3.48,3.48,0,0,0,140,86.9a3.4,3.4,0,0,0,2.37.88,3.72,3.72,0,0,0,1.56-.28,3.92,3.92,0,0,0,1.06-.72,1.13,1.13,0,0,1,.58-0.18,0.76,0.76,0,0,1,.57.24,0.79,0.79,0,0,1,.23.56,1,1,0,0,1-.4.76,4.71,4.71,0,0,1-1.54,1,5.06,5.06,0,0,1-2,.4,5.79,5.79,0,0,1-2.85-.68,4.73,4.73,0,0,1-1.9-1.9,5.63,5.63,0,0,1-.67-2.76,6.08,6.08,0,0,1,.69-2.95,5,5,0,0,1,1.82-2,4.69,4.69,0,0,1,4.83,0,5,5,0,0,1,1.8,1.82,5.2,5.2,0,0,1,.7,2.6A0.86,0.86,0,0,1,146.61,84.31ZM140.07,81A3.1,3.1,0,0,0,139,83h5.9V82.8a2.44,2.44,0,0,0-1-1.74,3,3,0,0,0-1.93-.68A3.09,3.09,0,0,0,140.07,81Z"/><path class="cls-3" d="M148.33,87.16a0.81,0.81,0,0,1,.42-0.68,0.78,0.78,0,0,1,.46-0.14,0.92,0.92,0,0,1,.66.3,4.21,4.21,0,0,0,1.29,1,3.69,3.69,0,0,0,1.65.34,2.82,2.82,0,0,0,1.34-.35,1.14,1.14,0,0,0,.58-1.07,1.15,1.15,0,0,0-.59-1,6.72,6.72,0,0,0-1.73-.66,12.78,12.78,0,0,1-1.86-.63,3.34,3.34,0,0,1-1.25-1,2.81,2.81,0,0,1,0-3.23A3.39,3.39,0,0,1,150.66,79a4.48,4.48,0,0,1,1.85-.38,5.35,5.35,0,0,1,1.91.36,3.59,3.59,0,0,1,1.55,1.1,0.88,0.88,0,0,1,.24.58,0.86,0.86,0,0,1-.32.62,0.72,0.72,0,0,1-.5.18,0.75,0.75,0,0,1-.58-0.24,2.82,2.82,0,0,0-1-.74,3.41,3.41,0,0,0-1.35-.26,2.51,2.51,0,0,0-1.29.31,1.12,1.12,0,0,0-.53,1.05,1.16,1.16,0,0,0,.61,1,7.72,7.72,0,0,0,1.81.66,11.2,11.2,0,0,1,1.76.6,3.07,3.07,0,0,1,1.18,1,2.65,2.65,0,0,1,.48,1.65,2.57,2.57,0,0,1-.54,1.63,3.48,3.48,0,0,1-1.41,1.06,4.68,4.68,0,0,1-1.85.37,6.07,6.07,0,0,1-2.33-.44,4.34,4.34,0,0,1-1.81-1.4A1,1,0,0,1,148.33,87.16Z"/><path class="cls-3" d="M173.38,74.81a0.93,0.93,0,0,1,.27.69V88.38a0.94,0.94,0,0,1-.27.68,0.92,0.92,0,0,1-.69.28,0.9,0.9,0,0,1-.68-0.27,1,1,0,0,1-.26-0.69V87.82A4,4,0,0,1,170.34,89a4,4,0,0,1-1.95.5,4.48,4.48,0,0,1-2.46-.7,4.9,4.9,0,0,1-1.74-2,6.07,6.07,0,0,1-.64-2.81,6.16,6.16,0,0,1,.63-2.81,4.83,4.83,0,0,1,1.73-2,4.55,4.55,0,0,1,4.38-.26,4.2,4.2,0,0,1,1.46,1.14V75.5a1,1,0,0,1,.26-0.69,0.9,0.9,0,0,1,.68-0.27A0.93,0.93,0,0,1,173.38,74.81Zm-3.1,12.49A3.24,3.24,0,0,0,171.42,86a4.58,4.58,0,0,0,0-3.79,3.23,3.23,0,0,0-1.14-1.33,3.14,3.14,0,0,0-3.34,0,3.23,3.23,0,0,0-1.14,1.33,4.59,4.59,0,0,0,0,3.79,3.24,3.24,0,0,0,1.14,1.32A3.14,3.14,0,0,0,170.28,87.3Z"/><path class="cls-3" d="M185.66,79a1,1,0,0,1,.27.71v8.68a0.94,0.94,0,0,1-.27.68,0.92,0.92,0,0,1-.69.28,0.9,0.9,0,0,1-.68-0.27,1,1,0,0,1-.26-0.69V87.86a4.28,4.28,0,0,1-1.42,1.19,4,4,0,0,1-1.94.49,4.53,4.53,0,0,1-2.47-.7,4.8,4.8,0,0,1-1.74-2,6.58,6.58,0,0,1,0-5.62,4.83,4.83,0,0,1,1.73-2,4.57,4.57,0,0,1,4.39-.26A4.08,4.08,0,0,1,184,80.18V79.7a1,1,0,0,1,.26-0.7,0.88,0.88,0,0,1,.68-0.28A0.93,0.93,0,0,1,185.66,79Zm-3.1,8.31A3.24,3.24,0,0,0,183.7,86a4.27,4.27,0,0,0,.41-1.9,4.23,4.23,0,0,0-.41-1.88,3.32,3.32,0,0,0-1.14-1.33,2.93,2.93,0,0,0-1.67-.49,3,3,0,0,0-1.67.48,3.24,3.24,0,0,0-1.14,1.32,4.61,4.61,0,0,0,0,3.8,3.24,3.24,0,0,0,1.14,1.32A3.14,3.14,0,0,0,182.56,87.3Z"/><path class="cls-3" d="M194.87,78.89a0.8,0.8,0,0,1,.38.67,1,1,0,0,1-.25.73,0.83,0.83,0,0,1-.61.25,1.9,1.9,0,0,1-.54-0.12,2.25,2.25,0,0,0-.66-0.14,2,2,0,0,0-1.21.43,3.14,3.14,0,0,0-1,1.18,3.73,3.73,0,0,0-.37,1.67v4.82a0.94,0.94,0,0,1-.27.68,0.92,0.92,0,0,1-.69.28,0.9,0.9,0,0,1-.68-0.27,1,1,0,0,1-.26-0.69V79.82a0.94,0.94,0,0,1,.27-0.68,0.89,0.89,0,0,1,.67-0.28,0.92,0.92,0,0,1,.69.28,0.94,0.94,0,0,1,.27.68v1A3.79,3.79,0,0,1,192,79.25a3.54,3.54,0,0,1,2-.63A1.52,1.52,0,0,1,194.87,78.89Z"/><path class="cls-3" d="M209.74,79.12a1.49,1.49,0,0,1,1.05,1.28,0.94,0.94,0,0,1-.22.61,0.69,0.69,0,0,1-.56.27,0.87,0.87,0,0,1-.41-0.08,4.37,4.37,0,0,1-.41-0.26,2.18,2.18,0,0,0-.38-0.28,2.64,2.64,0,0,0-.68-0.2,4.52,4.52,0,0,0-.8-0.08,3.51,3.51,0,0,0-1.84.48,3.27,3.27,0,0,0-1.24,1.33,4,4,0,0,0-.44,1.89,4.11,4.11,0,0,0,.43,1.9,3.26,3.26,0,0,0,1.21,1.32,3.33,3.33,0,0,0,1.78.48,3.77,3.77,0,0,0,1.68-.32,4,4,0,0,0,.38-0.26,2.37,2.37,0,0,1,.35-0.24,0.78,0.78,0,0,1,.37-0.08,0.81,0.81,0,0,1,.63.25,0.92,0.92,0,0,1,.23.65,1.11,1.11,0,0,1-.53.83,4.26,4.26,0,0,1-1.42.67,6.78,6.78,0,0,1-1.91.26,5,5,0,0,1-2.68-.71,4.75,4.75,0,0,1-1.79-2,6.11,6.11,0,0,1-.63-2.79,5.88,5.88,0,0,1,.66-2.79,4.92,4.92,0,0,1,1.84-2,5.14,5.14,0,0,1,2.7-.71A6.11,6.11,0,0,1,209.74,79.12Z"/><path class="cls-3" d="M214.61,89.06a0.93,0.93,0,0,1-.68.28,0.89,0.89,0,0,1-.67-0.28,0.94,0.94,0,0,1-.27-0.68V75.5a1,1,0,0,1,1-1,0.89,0.89,0,0,1,.67.28,0.94,0.94,0,0,1,.27.68V88.38A0.93,0.93,0,0,1,214.61,89.06Z"/><path class="cls-3" d="M217.9,77.23a0.83,0.83,0,0,1-.25-0.67V76.24a0.79,0.79,0,0,1,.27-0.68,1.4,1.4,0,0,1,.83-0.2,1.25,1.25,0,0,1,.81.21,0.83,0.83,0,0,1,.25.67v0.32a0.81,0.81,0,0,1-.26.68,1.35,1.35,0,0,1-.82.2A1.29,1.29,0,0,1,217.9,77.23Zm1.52,11.83a0.92,0.92,0,0,1-.69.28,0.89,0.89,0,0,1-.67-0.28,1,1,0,0,1-.27-0.68V79.72a0.94,0.94,0,0,1,.27-0.68,0.89,0.89,0,0,1,.67-0.28,0.92,0.92,0,0,1,.69.28,0.94,0.94,0,0,1,.27.68v8.66A1,1,0,0,1,219.42,89.06Z"/><path class="cls-3" d="M229.62,79.12a1.49,1.49,0,0,1,1.05,1.28,0.94,0.94,0,0,1-.22.61,0.69,0.69,0,0,1-.56.27,0.87,0.87,0,0,1-.41-0.08,4.37,4.37,0,0,1-.41-0.26,2.18,2.18,0,0,0-.38-0.28,2.64,2.64,0,0,0-.68-0.2,4.52,4.52,0,0,0-.8-0.08,3.51,3.51,0,0,0-1.84.48,3.27,3.27,0,0,0-1.24,1.33,4,4,0,0,0-.44,1.89,4.11,4.11,0,0,0,.43,1.9,3.26,3.26,0,0,0,1.21,1.32,3.33,3.33,0,0,0,1.78.48,3.77,3.77,0,0,0,1.68-.32,4,4,0,0,0,.38-0.26,2.37,2.37,0,0,1,.35-0.24,0.78,0.78,0,0,1,.37-0.08,0.81,0.81,0,0,1,.63.25,0.92,0.92,0,0,1,.23.65,1.11,1.11,0,0,1-.53.83,4.26,4.26,0,0,1-1.42.67,6.78,6.78,0,0,1-1.91.26,5,5,0,0,1-2.68-.71,4.75,4.75,0,0,1-1.79-2,6.11,6.11,0,0,1-.63-2.79,5.88,5.88,0,0,1,.66-2.79,4.92,4.92,0,0,1,1.84-2,5.14,5.14,0,0,1,2.7-.71A6.11,6.11,0,0,1,229.62,79.12Z"/><path class="cls-3" d="M241.56,88.38a0.85,0.85,0,0,1-.31.67,1,1,0,0,1-.65.27,0.85,0.85,0,0,1-.7-0.32L236,84.82l-1.2,1.08v2.48a0.94,0.94,0,0,1-.27.68,0.89,0.89,0,0,1-.67.28,0.92,0.92,0,0,1-.69-0.28,0.94,0.94,0,0,1-.27-0.68V75.5a0.94,0.94,0,0,1,.27-0.68,0.92,0.92,0,0,1,.69-0.28,0.89,0.89,0,0,1,.67.28,0.94,0.94,0,0,1,.27.68v8.12l4.9-4.5a1.05,1.05,0,0,1,.7-0.3,0.85,0.85,0,0,1,.62.29,0.87,0.87,0,0,1,.28.61,0.93,0.93,0,0,1-.38.72l-3.46,3.08,3.84,4.16A1,1,0,0,1,241.56,88.38Z"/><path class="cls-3" d="M258.25,84.31a1,1,0,0,1-.66.25h-7a3.48,3.48,0,0,0,1.11,2.34,3.4,3.4,0,0,0,2.37.88,3.72,3.72,0,0,0,1.56-.28,3.93,3.93,0,0,0,1.06-.72,1.12,1.12,0,0,1,.58-0.18,0.76,0.76,0,0,1,.57.24,0.78,0.78,0,0,1,.23.56,1,1,0,0,1-.4.76,4.7,4.7,0,0,1-1.54,1,5.06,5.06,0,0,1-2,.4,5.79,5.79,0,0,1-2.85-.68,4.73,4.73,0,0,1-1.9-1.9,5.63,5.63,0,0,1-.67-2.76,6.08,6.08,0,0,1,.69-2.95,5,5,0,0,1,1.82-2,4.69,4.69,0,0,1,4.83,0,5,5,0,0,1,1.8,1.82,5.2,5.2,0,0,1,.7,2.6A0.86,0.86,0,0,1,258.25,84.31ZM251.71,81a3.1,3.1,0,0,0-1.08,2h5.9V82.8a2.44,2.44,0,0,0-.95-1.74,3,3,0,0,0-1.93-.68A3.09,3.09,0,0,0,251.71,81Z"/><path class="cls-3" d="M269.69,82.94v5.44a1,1,0,0,1-.27.68,0.92,0.92,0,0,1-.69.28,0.89,0.89,0,0,1-.67-0.28,0.94,0.94,0,0,1-.27-0.68V83a3,3,0,0,0-.54-1.88,2.09,2.09,0,0,0-1.76-.7,3,3,0,0,0-1.45.35,2.67,2.67,0,0,0-1,.94,2.38,2.38,0,0,0-.37,1.29v5.42a0.94,0.94,0,0,1-.27.68,0.92,0.92,0,0,1-.69.28,0.9,0.9,0,0,1-.68-0.27,1,1,0,0,1-.26-0.69V79.82a0.94,0.94,0,0,1,.27-0.68,0.89,0.89,0,0,1,.67-0.28,0.92,0.92,0,0,1,.69.28,0.94,0.94,0,0,1,.27.68v0.7a4.31,4.31,0,0,1,1.45-1.35,3.84,3.84,0,0,1,2-.55Q269.69,78.62,269.69,82.94Z"/><path class="cls-3" d="M287,84.31a1,1,0,0,1-.66.25h-7a3.47,3.47,0,0,0,1.11,2.34,3.4,3.4,0,0,0,2.37.88,3.72,3.72,0,0,0,1.56-.28,3.92,3.92,0,0,0,1.06-.72,1.13,1.13,0,0,1,.58-0.18,0.76,0.76,0,0,1,.57.24,0.78,0.78,0,0,1,.23.56,1,1,0,0,1-.4.76,4.7,4.7,0,0,1-1.54,1,5.06,5.06,0,0,1-2,.4,5.79,5.79,0,0,1-2.85-.68,4.74,4.74,0,0,1-1.9-1.9,5.63,5.63,0,0,1-.67-2.76,6.08,6.08,0,0,1,.69-2.95,5,5,0,0,1,1.82-2,4.69,4.69,0,0,1,4.83,0,5,5,0,0,1,1.8,1.82,5.2,5.2,0,0,1,.7,2.6A0.86,0.86,0,0,1,287,84.31ZM280.43,81a3.1,3.1,0,0,0-1.08,2h5.9V82.8a2.44,2.44,0,0,0-.95-1.74,3,3,0,0,0-1.93-.68A3.09,3.09,0,0,0,280.43,81Z"/><path class="cls-3" d="M291.24,89.06a0.93,0.93,0,0,1-.68.28,0.89,0.89,0,0,1-.67-0.28,1,1,0,0,1-.27-0.68V75.5a1,1,0,0,1,1-1,0.89,0.89,0,0,1,.67.28,1,1,0,0,1,.27.68V88.38A0.93,0.93,0,0,1,291.24,89.06Z"/><path class="cls-3" d="M307.78,79.32a4.85,4.85,0,0,1,1.73,1.94,6.1,6.1,0,0,1,.63,2.8,6.22,6.22,0,0,1-.63,2.82,4.82,4.82,0,0,1-1.73,2,4.42,4.42,0,0,1-2.42.7,4.2,4.2,0,0,1-1.94-.46A4.52,4.52,0,0,1,302,87.94v0.58a0.94,0.94,0,0,1-.27.68,1,1,0,0,1-1.36,0,0.93,0.93,0,0,1-.27-0.69v-13a1,1,0,0,1,.26-0.69,0.9,0.9,0,0,1,.68-0.27,0.92,0.92,0,0,1,.69.28,0.94,0.94,0,0,1,.27.68v4.88a4,4,0,0,1,1.4-1.24,3.93,3.93,0,0,1,2-.52A4.49,4.49,0,0,1,307.78,79.32Zm-1,8A3.28,3.28,0,0,0,307.91,86a4.29,4.29,0,0,0,.41-1.89,4.23,4.23,0,0,0-.41-1.88,3.22,3.22,0,0,0-1.15-1.32,3,3,0,0,0-1.66-.48,3,3,0,0,0-1.68.48,3.23,3.23,0,0,0-1.15,1.31,4.21,4.21,0,0,0-.41,1.89,4.27,4.27,0,0,0,.41,1.9,3.28,3.28,0,0,0,1.15,1.33,3,3,0,0,0,1.68.49A2.94,2.94,0,0,0,306.76,87.29Z"/><path class="cls-3" d="M321.56,86.9a5.09,5.09,0,0,1-1.91,1.94,5.44,5.44,0,0,1-5.34,0,5.08,5.08,0,0,1-1.91-1.94,5.59,5.59,0,0,1-.7-2.8,5.7,5.7,0,0,1,.7-2.82,5,5,0,0,1,1.91-2,5.44,5.44,0,0,1,5.34,0,5.05,5.05,0,0,1,1.91,2,5.71,5.71,0,0,1,.7,2.82A5.6,5.6,0,0,1,321.56,86.9Zm-1.65-4.73a3.34,3.34,0,0,0-1.22-1.32,3.35,3.35,0,0,0-3.42,0,3.34,3.34,0,0,0-1.22,1.32,4.06,4.06,0,0,0-.45,1.93,4,4,0,0,0,.45,1.9,3.36,3.36,0,0,0,1.22,1.31,3.35,3.35,0,0,0,3.42,0A3.35,3.35,0,0,0,319.91,86a4,4,0,0,0,.45-1.9A4.06,4.06,0,0,0,319.91,82.17Z"/><path class="cls-3" d="M327.3,80.72v6a0.84,0.84,0,0,0,.9,1,1.44,1.44,0,0,0,.38-0.07,1.46,1.46,0,0,1,.38-0.07,0.55,0.55,0,0,1,.44.22,0.84,0.84,0,0,1-.3,1.28,2,2,0,0,1-1.08.3,4.89,4.89,0,0,1-1.21-.14,1.79,1.79,0,0,1-1-.71,2.86,2.86,0,0,1-.43-1.73v-6h-1.16a0.85,0.85,0,0,1-.88-0.88,0.82,0.82,0,0,1,.25-0.62,0.87,0.87,0,0,1,.63-0.24h1.16V77.3a1,1,0,0,1,.27-0.68,0.92,0.92,0,0,1,.69-0.28,0.89,0.89,0,0,1,.67.28,1,1,0,0,1,.27.68V79H329a0.85,0.85,0,0,1,.88.88,0.82,0.82,0,0,1-.25.62,0.88,0.88,0,0,1-.63.24H327.3Z"/><path class="cls-3" d="M341.28,86.9a5.09,5.09,0,0,1-1.91,1.94,5.44,5.44,0,0,1-5.34,0,5.08,5.08,0,0,1-1.91-1.94,5.59,5.59,0,0,1-.7-2.8,5.7,5.7,0,0,1,.7-2.82,5,5,0,0,1,1.91-2,5.44,5.44,0,0,1,5.34,0,5.05,5.05,0,0,1,1.91,2,5.71,5.71,0,0,1,.7,2.82A5.6,5.6,0,0,1,341.28,86.9Zm-1.65-4.73a3.34,3.34,0,0,0-1.22-1.32,3.35,3.35,0,0,0-3.42,0,3.34,3.34,0,0,0-1.22,1.32,4.06,4.06,0,0,0-.45,1.93,4,4,0,0,0,.45,1.9A3.36,3.36,0,0,0,335,87.31a3.35,3.35,0,0,0,3.42,0A3.35,3.35,0,0,0,339.63,86a4,4,0,0,0,.45-1.9A4.06,4.06,0,0,0,339.63,82.17Zm-3.33-4.25a0.41,0.41,0,0,1-.16-0.38,0.72,0.72,0,0,1,.12-0.36l1.18-2a1.54,1.54,0,0,1,.39-0.46,0.83,0.83,0,0,1,.53-0.18,0.91,0.91,0,0,1,.67.23,0.76,0.76,0,0,1,.21.61,1.05,1.05,0,0,1-.3.7l-1.5,1.64a1.08,1.08,0,0,1-.8.32A0.57,0.57,0,0,1,336.3,77.92Z"/><path class="cls-3" d="M353.12,82.94v5.44a1,1,0,0,1-.27.68,0.92,0.92,0,0,1-.69.28,0.89,0.89,0,0,1-.67-0.28,0.94,0.94,0,0,1-.27-0.68V83a3,3,0,0,0-.54-1.88,2.09,2.09,0,0,0-1.76-.7,3,3,0,0,0-1.45.35,2.67,2.67,0,0,0-1,.94,2.38,2.38,0,0,0-.37,1.29v5.42a0.94,0.94,0,0,1-.27.68,0.92,0.92,0,0,1-.69.28,0.9,0.9,0,0,1-.68-0.27,1,1,0,0,1-.26-0.69V79.82a0.94,0.94,0,0,1,.27-0.68,0.89,0.89,0,0,1,.67-0.28,0.92,0.92,0,0,1,.69.28,0.94,0.94,0,0,1,.27.68v0.7a4.31,4.31,0,0,1,1.45-1.35,3.84,3.84,0,0,1,2-.55Q353.12,78.62,353.12,82.94Z"/><path class="cls-3" d="M36,99.34h0.6a0.79,0.79,0,0,1,.52.15,0.53,0.53,0,0,1,.18.43,1,1,0,0,1-.06.32l-1.32,4.24a0.73,0.73,0,0,1-.72.56,0.42,0.42,0,0,1-.38-0.18,0.77,0.77,0,0,1-.08-0.52l0.4-4.22A0.79,0.79,0,0,1,36,99.34Zm4.14,0h0.62a0.76,0.76,0,0,1,.5.15,0.53,0.53,0,0,1,.18.43,1,1,0,0,1-.06.32l-1.34,4.24a0.71,0.71,0,0,1-.72.56,0.37,0.37,0,0,1-.35-0.19,1,1,0,0,1-.09-0.53l0.42-4.2A0.75,0.75,0,0,1,40.17,99.34Z"/><path class="cls-3" d="M54.82,106.26a0.94,0.94,0,0,1,.27.68v4.5a0.94,0.94,0,0,1-.48.84,7.89,7.89,0,0,1-4.28,1.26,7.24,7.24,0,0,1-3.67-1,7.2,7.2,0,0,1,0-12.48,7.24,7.24,0,0,1,3.67-1,8.36,8.36,0,0,1,1.93.22,5.92,5.92,0,0,1,1.67.66,1,1,0,0,1,.36.34,0.84,0.84,0,0,1,.12.44,1,1,0,0,1-.27.69,0.86,0.86,0,0,1-.65.29,1,1,0,0,1-.52-0.14,6.24,6.24,0,0,0-2.64-.6,5.11,5.11,0,0,0-4.51,2.62,5.35,5.35,0,0,0-.69,2.68,5.29,5.29,0,0,0,.69,2.67,5.19,5.19,0,0,0,1.88,1.92,5,5,0,0,0,2.63.71,6.84,6.84,0,0,0,1.43-.16,5.76,5.76,0,0,0,1.29-.42v-3.18H50.63a0.94,0.94,0,0,1-.68-0.27,0.89,0.89,0,0,1-.28-0.67,0.91,0.91,0,0,1,.28-0.69,0.94,0.94,0,0,1,.68-0.27h3.52A0.89,0.89,0,0,1,54.82,106.26Z"/><path class="cls-3" d="M66,103.14a1,1,0,0,1,.27.68v5.32a4.39,4.39,0,1,1-8.76,0v-5.32a0.94,0.94,0,0,1,.27-0.68,0.89,0.89,0,0,1,.67-0.28,0.92,0.92,0,0,1,.69.28,0.94,0.94,0,0,1,.27.68v5.32q0,2.62,2.46,2.62a2.47,2.47,0,0,0,1.86-.66,2.71,2.71,0,0,0,.64-2v-5.32a1,1,0,0,1,.27-0.68,0.89,0.89,0,0,1,.67-0.28A0.92,0.92,0,0,1,66,103.14Z"/><path class="cls-3" d="M78.32,103a1,1,0,0,1,.27.71v8.68a0.94,0.94,0,0,1-.27.68,0.92,0.92,0,0,1-.69.28,0.9,0.9,0,0,1-.68-0.27,1,1,0,0,1-.26-0.69v-0.52a4.28,4.28,0,0,1-1.42,1.19,4,4,0,0,1-1.94.49,4.53,4.53,0,0,1-2.47-.7,4.8,4.8,0,0,1-1.74-2,6.58,6.58,0,0,1,0-5.62,4.83,4.83,0,0,1,1.73-2,4.57,4.57,0,0,1,4.39-.26,4.08,4.08,0,0,1,1.45,1.12V103.7a1,1,0,0,1,.26-0.7,0.88,0.88,0,0,1,.68-0.28A0.93,0.93,0,0,1,78.32,103Zm-3.1,8.31A3.24,3.24,0,0,0,76.36,110a4.27,4.27,0,0,0,.41-1.9,4.23,4.23,0,0,0-.41-1.88,3.32,3.32,0,0,0-1.14-1.33,2.93,2.93,0,0,0-1.67-.49,3,3,0,0,0-1.67.48,3.24,3.24,0,0,0-1.14,1.32,4.61,4.61,0,0,0,0,3.8,3.24,3.24,0,0,0,1.14,1.32A3.14,3.14,0,0,0,75.22,111.3Z"/><path class="cls-3" d="M87.53,102.89a0.8,0.8,0,0,1,.38.67,1,1,0,0,1-.25.73,0.83,0.83,0,0,1-.61.25,1.9,1.9,0,0,1-.54-0.12,2.25,2.25,0,0,0-.66-0.14,2,2,0,0,0-1.21.43,3.14,3.14,0,0,0-1,1.18,3.73,3.73,0,0,0-.37,1.67v4.82a0.94,0.94,0,0,1-.27.68,0.92,0.92,0,0,1-.69.28,0.9,0.9,0,0,1-.68-0.27,1,1,0,0,1-.26-0.69v-8.56a0.94,0.94,0,0,1,.27-0.68,0.89,0.89,0,0,1,.67-0.28,0.92,0.92,0,0,1,.69.28,0.94,0.94,0,0,1,.27.68v1a3.79,3.79,0,0,1,1.32-1.59,3.54,3.54,0,0,1,2-.63A1.52,1.52,0,0,1,87.53,102.89Z"/><path class="cls-3" d="M98.42,98.81a0.93,0.93,0,0,1,.27.69v12.88a0.94,0.94,0,0,1-.27.68,0.92,0.92,0,0,1-.69.28,0.9,0.9,0,0,1-.68-0.27,1,1,0,0,1-.26-0.69v-0.56A4,4,0,0,1,95.38,113a4,4,0,0,1-1.95.5,4.48,4.48,0,0,1-2.46-.7,4.9,4.9,0,0,1-1.74-2,6.07,6.07,0,0,1-.64-2.81,6.16,6.16,0,0,1,.63-2.81,4.83,4.83,0,0,1,1.73-2,4.55,4.55,0,0,1,4.38-.26,4.2,4.2,0,0,1,1.46,1.14V99.5A1,1,0,0,1,97,98.81a0.9,0.9,0,0,1,.68-0.27A0.93,0.93,0,0,1,98.42,98.81Zm-3.1,12.49A3.24,3.24,0,0,0,96.46,110a4.58,4.58,0,0,0,0-3.79,3.23,3.23,0,0,0-1.14-1.33,3.14,3.14,0,0,0-3.34,0,3.23,3.23,0,0,0-1.14,1.33,4.59,4.59,0,0,0,0,3.79A3.24,3.24,0,0,0,92,111.3,3.14,3.14,0,0,0,95.32,111.3Z"/><path class="cls-3" d="M110.7,103a1,1,0,0,1,.27.71v8.68a0.94,0.94,0,0,1-.27.68,0.92,0.92,0,0,1-.69.28,0.9,0.9,0,0,1-.68-0.27,1,1,0,0,1-.26-0.69v-0.52a4.28,4.28,0,0,1-1.42,1.19,4,4,0,0,1-1.94.49,4.53,4.53,0,0,1-2.47-.7,4.8,4.8,0,0,1-1.74-2,6.58,6.58,0,0,1,0-5.62,4.83,4.83,0,0,1,1.73-2,4.57,4.57,0,0,1,4.39-.26,4.08,4.08,0,0,1,1.45,1.12V103.7a1,1,0,0,1,.26-0.7,0.88,0.88,0,0,1,.68-0.28A0.93,0.93,0,0,1,110.7,103Zm-3.1,8.31a3.24,3.24,0,0,0,1.14-1.32,4.27,4.27,0,0,0,.41-1.9,4.23,4.23,0,0,0-.41-1.88,3.32,3.32,0,0,0-1.14-1.33,2.93,2.93,0,0,0-1.67-.49,3,3,0,0,0-1.67.48,3.24,3.24,0,0,0-1.14,1.32,4.61,4.61,0,0,0,0,3.8,3.24,3.24,0,0,0,1.14,1.32A3.14,3.14,0,0,0,107.6,111.3Z"/><path class="cls-3" d="M119.91,102.89a0.8,0.8,0,0,1,.38.67,1,1,0,0,1-.25.73,0.83,0.83,0,0,1-.61.25,1.9,1.9,0,0,1-.54-0.12,2.25,2.25,0,0,0-.66-0.14,2,2,0,0,0-1.21.43,3.14,3.14,0,0,0-1,1.18,3.73,3.73,0,0,0-.37,1.67v4.82a0.94,0.94,0,0,1-.27.68,0.92,0.92,0,0,1-.69.28,0.9,0.9,0,0,1-.68-0.27,1,1,0,0,1-.26-0.69v-8.56a0.94,0.94,0,0,1,.27-0.68,0.89,0.89,0,0,1,.67-0.28,0.92,0.92,0,0,1,.69.28,0.94,0.94,0,0,1,.27.68v1a3.79,3.79,0,0,1,1.32-1.59,3.54,3.54,0,0,1,2-.63A1.52,1.52,0,0,1,119.91,102.89Z"/><path class="cls-3" d="M130.43,104.72v6a0.84,0.84,0,0,0,.9,1,1.44,1.44,0,0,0,.38-0.07,1.46,1.46,0,0,1,.38-0.07,0.55,0.55,0,0,1,.44.22,0.84,0.84,0,0,1-.3,1.28,2,2,0,0,1-1.08.3,4.88,4.88,0,0,1-1.21-.14,1.79,1.79,0,0,1-1-.71,2.86,2.86,0,0,1-.43-1.73v-6h-1.16a0.85,0.85,0,0,1-.88-0.88,0.82,0.82,0,0,1,.25-0.62,0.87,0.87,0,0,1,.63-0.24h1.16V101.3a1,1,0,0,1,.27-0.68,0.92,0.92,0,0,1,.69-0.28,0.89,0.89,0,0,1,.67.28,1,1,0,0,1,.27.68V103h1.66a0.85,0.85,0,0,1,.88.88,0.82,0.82,0,0,1-.25.62,0.87,0.87,0,0,1-.63.24h-1.66Z"/><path class="cls-3" d="M144,108.31a1,1,0,0,1-.66.25h-7a3.48,3.48,0,0,0,1.11,2.34,3.4,3.4,0,0,0,2.37.88,3.72,3.72,0,0,0,1.56-.28,3.92,3.92,0,0,0,1.06-.72,1.13,1.13,0,0,1,.58-0.18,0.76,0.76,0,0,1,.57.24,0.79,0.79,0,0,1,.23.56,1,1,0,0,1-.4.76,4.71,4.71,0,0,1-1.54,1,5.06,5.06,0,0,1-2,.4,5.79,5.79,0,0,1-2.85-.68,4.73,4.73,0,0,1-1.9-1.9,5.63,5.63,0,0,1-.67-2.76,6.08,6.08,0,0,1,.69-2.95,5,5,0,0,1,1.82-2,4.69,4.69,0,0,1,4.83,0,5,5,0,0,1,1.8,1.82,5.2,5.2,0,0,1,.7,2.6A0.86,0.86,0,0,1,144,108.31Zm-6.54-3.3a3.1,3.1,0,0,0-1.08,2h5.9V106.8a2.44,2.44,0,0,0-1-1.74,3,3,0,0,0-1.93-.68A3.09,3.09,0,0,0,137.45,105Z"/><path class="cls-3" d="M154.27,112.42a1,1,0,0,1-1,1,1,1,0,0,1-.78-0.42l-2.68-3.38L147.21,113a0.91,0.91,0,0,1-.34.3,0.93,0.93,0,0,1-.42.1,0.94,0.94,0,0,1-.63-0.25,0.76,0.76,0,0,1-.29-0.59,0.85,0.85,0,0,1,.22-0.6l3-3.74-3.08-3.88a0.9,0.9,0,0,1-.2-0.56,0.91,0.91,0,0,1,.29-0.68,1,1,0,0,1,1.45.12l2.74,3.46,2.58-3.44a0.9,0.9,0,0,1,.76-0.42,0.89,0.89,0,0,1,.64.25,0.79,0.79,0,0,1,.26.59,0.88,0.88,0,0,1-.22.62L151,108l3,3.86A0.8,0.8,0,0,1,154.27,112.42Z"/><path class="cls-3" d="M160,104.72v6a0.84,0.84,0,0,0,.9,1,1.44,1.44,0,0,0,.38-0.07,1.46,1.46,0,0,1,.38-0.07,0.55,0.55,0,0,1,.44.22,0.84,0.84,0,0,1-.3,1.28,2,2,0,0,1-1.08.3,4.88,4.88,0,0,1-1.21-.14,1.79,1.79,0,0,1-1-.71,2.86,2.86,0,0,1-.43-1.73v-6h-1.16a0.85,0.85,0,0,1-.88-0.88,0.82,0.82,0,0,1,.25-0.62,0.87,0.87,0,0,1,.63-0.24h1.16V101.3a1,1,0,0,1,.27-0.68,0.92,0.92,0,0,1,.69-0.28,0.89,0.89,0,0,1,.67.28,1,1,0,0,1,.27.68V103h1.66a0.85,0.85,0,0,1,.88.88,0.82,0.82,0,0,1-.25.62,0.87,0.87,0,0,1-.63.24H160Z"/><path class="cls-3" d="M173.87,110.9a5.09,5.09,0,0,1-1.91,1.94,5.44,5.44,0,0,1-5.34,0,5.08,5.08,0,0,1-1.91-1.94,5.6,5.6,0,0,1-.7-2.8,5.71,5.71,0,0,1,.7-2.82,5,5,0,0,1,1.91-2,5.44,5.44,0,0,1,5.34,0,5.05,5.05,0,0,1,1.91,2,5.71,5.71,0,0,1,.7,2.82A5.6,5.6,0,0,1,173.87,110.9Zm-1.65-4.73a3.35,3.35,0,0,0-1.22-1.32,3.35,3.35,0,0,0-3.42,0,3.34,3.34,0,0,0-1.22,1.32,4.06,4.06,0,0,0-.45,1.93,4,4,0,0,0,.45,1.9,3.36,3.36,0,0,0,1.22,1.31,3.35,3.35,0,0,0,3.42,0,3.36,3.36,0,0,0,1.22-1.31,4,4,0,0,0,.45-1.9A4.06,4.06,0,0,0,172.22,106.17Z"/><path class="cls-3" d="M177.37,99.34H178a0.79,0.79,0,0,1,.52.15,0.53,0.53,0,0,1,.18.43,1,1,0,0,1-.06.32l-1.32,4.24a0.73,0.73,0,0,1-.72.56,0.42,0.42,0,0,1-.38-0.18,0.77,0.77,0,0,1-.08-0.52l0.4-4.22A0.79,0.79,0,0,1,177.37,99.34Zm4.14,0h0.62a0.76,0.76,0,0,1,.5.15,0.53,0.53,0,0,1,.18.43,1,1,0,0,1-.06.32l-1.34,4.24a0.71,0.71,0,0,1-.72.56,0.37,0.37,0,0,1-.35-0.19,1,1,0,0,1-.09-0.53l0.42-4.2A0.75,0.75,0,0,1,181.51,99.34Z"/><path class="cls-3" d="M184.92,113.06a1.05,1.05,0,0,1-.25-0.76v-0.38a1,1,0,0,1,.25-0.74,1,1,0,0,1,.73-0.26h0.2a1,1,0,0,1,.75.26,1,1,0,0,1,.25.74v0.38a0.89,0.89,0,0,1-1,1h-0.2A1,1,0,0,1,184.92,113.06Z"/><g class="cls-4"><path class="cls-5" d="M517.63,151.13c15.85-7.65,15.56-41.28-.65-74.87s-42.36-54.74-58.21-47.09-15.56,41.28.65,74.87S501.78,158.78,517.63,151.13Z"/><path class="cls-6" d="M461.87,97.41c-2.36,1.81-3.52,5-4.23,8.13a59.76,59.76,0,0,0-1.22,15c0.15,4.91.72,9.85,1.3,14.78q1.15,9.74,2.36,19.49A116.81,116.81,0,0,0,462,167c1,4.36,1.81,10.46,5,13.57s9.07,2.64,11.8-.15c2.38-2.43,2.27-6.71,2-10.54l-2.95-44.52c-0.21-3.16-1-15.88-1.73-19C474.56,99.46,469.06,91.9,461.87,97.41Z"/><path class="cls-7" d="M465,148.7s1,13.68,7.53,19.63l-10.46-.64L459.48,150Z"/><path class="cls-6" d="M540.09,199.3c4.76-3.19,10.64-5.07,12.31-6.75,0.11-.11,5.1-3.52,5.79-4.1,0.25-.19,5.21-3,5.19-3.09l4.29-3c1.26-1.38,3,.05,2.92-1.11s-8.63-16.11-9.18-17.17c-4.11-7.86-13.17-14.28-19.9-28.15-5.67-11.69-9.79-38.42-13.49-45.1-3.45-6.23-6.14-13-7.5-14.44-0.65-.68-5.58-4.1-8.63-4.15a28.17,28.17,0,0,0-6.93.46c-2.44.67-8.23,0.33-13,2.73-3.59,1.67-4.66,1.72-7.7,3.36-3.11,1.32-3.81,2.52-7.27,4.25-4.73,2.18-7.65,6.33-9.64,7.81a30.86,30.86,0,0,0-4.8,5.21c-1.81,2.39-2.14,8.35-2,9.28,0.28,1.93,3.91,8.28,6.65,14.85,2.94,7.05,22.34,26.41,28,38.12,6.67,13.9,6.31,23.79,9.91,31.89,0.49,1.09,6.63,16.93,7.41,17.67a6.87,6.87,0,0,0,4.63,1.19l1.93-2.28s5.23-2,5.53-2.09c0.87-.17,6.53-1.9,6.68-1.92,2.31-.24,3.48-1.76,8.83-3.45"/><path class="cls-8" d="M491.28,68.73a21.84,21.84,0,0,0,3.48,6.86,6.21,6.21,0,0,1-.6,1c-3,4.41-11.35,7-16,7.85-1.93.35-3.22,0.39-3.23,0.13-0.06-2.24-1.44-4.68-2.54-6.28l0-.05h0a20.83,20.83,0,0,0-1.32-1.73L490.91,67c0,0.25.08,0.49,0.12,0.74S491.19,68.39,491.28,68.73Z"/><path class="cls-6" d="M443.69,48.58c-5.17-10.72,0-23.92,11.51-29.48s25.06-1.38,30.24,9.34A20.11,20.11,0,0,1,487.16,34c0.18,0.43.38,0.87,0.61,1.31a61.07,61.07,0,0,1,4.71,12c2.11,8.13,1.6,16.89-3.63,24.62a17.94,17.94,0,0,1-6.91,6.36c-3.91,1.85-8.44,1.57-12.34.39C456.71,74.75,450,62.8,445,50.86A20.12,20.12,0,0,1,443.69,48.58Z"/><path class="cls-9" d="M530.24,78.3c-15.46-12.08-36.62-4.07-36.62-4.07l11,5,5.72,5.88,25.53,26.26,18.59-11.18A311.15,311.15,0,0,0,530.24,78.3Z"/><path class="cls-10" d="M529.86,77.83c-15.18-11.73-36.24-3.6-36.24-3.6s23.37-3.87,33.59,4.42c2.46,2,13,11.89,23.5,22.27l2.87-1.74A297.55,297.55,0,0,0,529.86,77.83Z"/><path class="cls-9" d="M455.14,115.39c0.16-19.61,19.6-31.2,19.6-31.2l-2.89,11.72,1,8.14,4.67,36.32L457.24,148A311.15,311.15,0,0,1,455.14,115.39Z"/><polygon class="cls-11" points="472.01 103.45 480.91 143.93 476.12 145.83 472.01 103.45"/><path class="cls-10" d="M455,114.8c0.26-19.19,19.73-30.61,19.73-30.61s-17.57,15.88-17.44,29c0,3.17,1.22,17.58,2.81,32.26L457,146.66A297.55,297.55,0,0,1,455,114.8Z"/><path class="cls-12" d="M455.17,144.44l25.33-4.86,0.76,4.82-25,6.36a1.93,1.93,0,0,1-2.37-1.52l-0.43-2.33A2.13,2.13,0,0,1,455.17,144.44Z"/><path class="cls-9" d="M479.72,138.49s18,21.92,25.28,55.29c0,0,41-12.38,59.31-27.8,0,0-22.91-26-30.53-55.47L505.37,76.64l-11.74-2.42s8.78,10.41-5.2,15.81-13.69-5.85-13.69-5.85L469.87,99Z"/><path class="cls-12" d="M521.82,126.46l-1,.4-2.6,1.06a28.08,28.08,0,0,0-7.68,4.35c-0.65.56-1.29,1.15-1.94,1.72a20.35,20.35,0,0,1-2,1.55,19.24,19.24,0,0,1-3.8,2,7.32,7.32,0,0,1-1.63.44,3.75,3.75,0,0,1-1.29,0,2.53,2.53,0,0,1-.74-0.29l-0.22-.15,0.26,0.07a2.6,2.6,0,0,0,.73,0,5.32,5.32,0,0,0,2.42-1,31.2,31.2,0,0,0,3.21-2.45c0.57-.5,1.14-1,1.73-1.62s1.22-1.22,1.94-1.83a15.19,15.19,0,0,1,4.62-2.68,23.55,23.55,0,0,1,4.11-1.09c1.18-.21,2.14-0.31,2.81-0.38Z"/><path class="cls-6" d="M573.56,132.38c-1,2.21-3.71,3.71-6.5,4.85-4.25,1.75-9.07,2.43-14,3.24-4.71.78-9.57,1.26-14.43,1.7-6.39.58-15,.91-17,1.05-4,.29-11.35.66-15.45,0.65-4.43,0-11.3.12-15.32-1.58a4.13,4.13,0,0,1-2-5.55c1.53-2.38,10.34-4.82,14-5.39,11-1.69,22.79-4.34,39.39-6.57,3.06-.41,15.38-2.1,18.58-2.11C568,122.67,576.72,125.65,573.56,132.38Z"/><path class="cls-6" d="M500,143.55c0,0.3-.29.63-1.61,0.73s-1.52-.69-1.79-0.64c-7.08,1.24-12,.94-19.17-0.14-1.62-.25-3.4-0.64-4.39-1.93-0.51-.66-2.25-1.79-2.45-2.58-0.5-1.93.69-3.86,2-5.33a5.58,5.58,0,0,1,4-1.45c1.46-.06,3.88.59,5.32,0.44,1.24-.13,2.9-0.17,3.11-0.49s-2.86-.58-2.76-1.63,1.71-1,2.75-.9c3.28,0.21,7.28,2.64,10.56,2.84,3,0.19,2-.54,2.62,1.66A54.11,54.11,0,0,1,500,143.55Z"/><path class="cls-10" d="M472.93,67.64c1.06-.08,2.92-2.63,4.16-3.12s0.94-.72,1.74-1.29,3-1.36,4-2.78a9.83,9.83,0,0,1-.7,5.12,5.65,5.65,0,0,1-4.22,3A8.8,8.8,0,0,1,472.93,67.64Z"/><path class="cls-10" d="M471.7,67.7l0.17,0,0.48-.05c0.41,0,1-.08,1.69-0.19a10,10,0,0,0,1.1-.25,10.27,10.27,0,0,0,1.18-.42,8.85,8.85,0,0,0,1.18-.61,11.27,11.27,0,0,0,1.13-.79,14.53,14.53,0,0,0,3.53-3.67c0.18-.3.34-0.58,0.46-0.84a6.28,6.28,0,0,0,.29-0.68c0.07-.19.13-0.35,0.16-0.45l0.05-.16,0,0.17a4.45,4.45,0,0,1-.09.47,6.48,6.48,0,0,1-.22.72,6.22,6.22,0,0,1-.39.9,10,10,0,0,1-1.4,2,14.88,14.88,0,0,1-2.07,1.91,12,12,0,0,1-1.19.81,8.13,8.13,0,0,1-1.26.6,7.69,7.69,0,0,1-1.25.37,10.7,10.7,0,0,1-1.15.18,12.39,12.39,0,0,1-1.73,0l-0.48,0H471.7Z"/><path class="cls-13" d="M473.57,67.59a14.65,14.65,0,0,0,8.91-6.46A7.48,7.48,0,0,1,479,66.61,7.22,7.22,0,0,1,473.57,67.59Z"/><path class="cls-14" d="M471.6,59.69c3.85-1,4.25-3.79,3.41-5.59C477.49,57,476,59.9,471.6,59.69Z"/><path class="cls-15" d="M476.51,43a1.64,1.64,0,0,0,0,.94c0.34,1.07,1,3,2.41,3,1.66,0,1.43-2.06,1-3.1a3.19,3.19,0,0,0-1.42-1.66A1.35,1.35,0,0,0,476.51,43Z"/><path class="cls-15" d="M475.54,44.15s0.66-2.82,5.46-2.63C481,41.52,476,40.29,475.54,44.15Z"/><path class="cls-15" d="M460.49,50.77a1.64,1.64,0,0,1,.72.61c0.63,0.94,1.69,2.65.84,3.75-1,1.31-2.5-.16-3-1.16a3.19,3.19,0,0,1-.41-2.15A1.35,1.35,0,0,1,460.49,50.77Z"/><path class="cls-15" d="M462,50.71s-2.62-1.24-5.46,2.63C456.5,53.34,458.66,48.65,462,50.71Z"/><path class="cls-7" d="M439.53,68.38a5.38,5.38,0,0,1-1-.84,15.89,15.89,0,0,0,1.19,4.1c0.18-.41.37-0.82,0.59-1.23a3.63,3.63,0,0,1,.69-0.9A10.69,10.69,0,0,0,439.53,68.38Z"/><path class="cls-7" d="M455.68,20.34c-10.7-.67-20.51,13.77-17.52,26.35a32.54,32.54,0,0,1,.76,10.09L439.46,57c2-2.55,6.66-3.18,8.55.65a86.14,86.14,0,0,0,4.66,7.9,9.88,9.88,0,0,1,.83-4.76c2.82-5.58.94-7-2.13-15.34s6.79-7,9.29-16.76C461.62,24.6,466.38,21,455.68,20.34Z"/><path class="cls-7" d="M454.25,59.08a37.94,37.94,0,0,0,18.8,20.26S462,78.94,452.67,65.5A5.57,5.57,0,0,1,454.25,59.08Z"/><path class="cls-16" d="M469.48,37.39c1.63-1.28,4.22-3.56,8.72-2.33,2,0.55,2,1.28-.1.88-3.66-.68-5.15.85-7.75,2.81C469.34,39.5,468.37,38.26,469.48,37.39Z"/><path class="cls-16" d="M459.49,42.21c-2,.48-5.41,1.09-7.25,5.38-0.83,1.93-.27,2.4.75,0.47,1.75-3.29,3.87-3.5,7-4.32C461.24,43.41,460.87,41.88,459.49,42.21Z"/><path class="cls-16" d="M458.18,26.36c-2.49,9.77-12.36,8.4-9.29,16.76s5,9.77,2.13,15.34S452.62,76,459.18,82.9s8.62,11.76,8.13,18.81,1.29,11,5.54,15.79,6.64,7.21-7.32,2S448.87,103.15,448,91.91s-2.42-9.53-9-19.36-0.32-15.55-3.3-28.12,6.83-27,17.52-26.35S459.15,22.33,458.18,26.36Z"/><path class="cls-17" d="M451.2,21c1.18,5-4.06,9.63-7.19,12.59s-4.49,7.1-1.38,11.82,2.62,13.08,1.31,16.82,4.73,14.3,9.91,20.1c4.8,5.37,5.81,16.3,5.91,20.67,0.1,4.67,1.6,9.92,5.16,12.14-4.95-1.38-7.16-6.29-7.51-12.55s0.6-10.7-5.81-18.92c-8.12-10.41-11.76-13.86-9.94-22.72,1.43-7,2.06-8.12-1-14.13-3.13-6.17-3.54-9.49.95-13.93S451.13,26.42,451.2,21Z"/><path class="cls-16" d="M457.61,26.64c9.2,4.13,14.27-4.45,18.9,3.16s4.56,10,10.68,11.22,12.75,12.17,14.06,21.59,3.85,14.07,9.67,18.06,7.83,7.88,8.92,14.16,1.51,9.68,6.12-4.49-2.45-23.21-10.7-30.9-6-7.82-9.55-19.1-12-9.92-20-20.08-25.4-11.47-31.53-2.68S453.85,24.89,457.61,26.64Z"/><path class="cls-17" d="M457.74,17.83c3.2,4.05,10.06,2.81,14.33,2.21s8.35,0.91,10.12,6.27,8.61,10.19,12.35,11.49,8.25,12.6,9.57,20.26c1.22,7.1,9.15,14.69,12.51,17.48,3.59,3,6.77,7.42,6.29,11.59,2-4.73-.47-9.52-5.15-13.68s-8.75-6.19-11.2-16.33C503.47,44.29,503,39.3,495,35.21c-6.37-3.23-7.63-3.44-10.44-9.57-2.88-6.29-5.22-8.67-11.5-7.93S462,21.15,457.74,17.83Z"/><path class="cls-6" d="M408.66,156.62c-0.12.27-.55,0.42-1.77-0.12s-1-1.33-1.27-1.41c-6.82-2.28-11-4.88-16.8-9.24-1.31-1-2.68-2.18-2.95-3.78-0.13-.82-1.13-2.65-0.93-3.44,0.48-1.93,2.45-3.07,4.32-3.73a5.58,5.58,0,0,1,4.18.61c1.31,0.64,3.13,2.36,4.47,2.92,1.15,0.48,2.63,1.23,3,1.05s-2.24-1.87-1.65-2.75,2,0,2.85.51c2.78,1.74,5.15,5.79,7.93,7.53,2.55,1.6,2,.45,1.51,2.7A54.2,54.2,0,0,1,408.66,156.62Z"/><path class="cls-6" d="M478.69,181.79c-2,1.45-5,1.49-8,1.17-4.57-.49-9.13-2.18-13.84-3.8-4.51-1.56-9-3.45-13.5-5.37-5.9-2.53-13.65-6.35-15.44-7.16-3.67-1.66-10.29-4.82-13.9-6.78-3.9-2.11-10-5.27-12.72-8.68a4.13,4.13,0,0,1,.92-5.81c2.48-1.37,11.39.68,14.91,1.94,10.51,3.76,22.11,7,37.77,13,2.89,1.09,14.53,5.47,17.34,7C478.38,170.59,484.67,177.38,478.69,181.79Z"/></g></svg>