<svg xmlns="http://www.w3.org/2000/svg" viewBox="0 0 1220.61 790.38"><defs><style>.cls-1{fill:#fff;}.cls-2{fill:#8669ab;opacity:0.79;}.cls-3{fill:none;stroke:#fff;stroke-linecap:round;stroke-linejoin:round;stroke-width:3.71px;}</style></defs><title>dibujo6</title><g id="Capa_2" data-name="Capa 2"><rect class="cls-1" y="1.17" width="1220.61" height="788.04" rx="135.94" ry="135.94"/><rect class="cls-2" width="1220.61" height="790.38" rx="78.94" ry="78.94"/><circle class="cls-3" cx="458.77" cy="404.33" r="92.89"/><circle class="cls-3" cx="788.7" cy="206.03" r="22.17"/><circle class="cls-3" cx="863.56" cy="161.68" r="22.17"/><circle class="cls-3" cx="917.36" cy="206.03" r="22.17"/><circle class="cls-3" cx="830" cy="189.28" r="19.77"/><ellipse class="cls-3" cx="505.25" cy="368.11" rx="8.65" ry="28.12" transform="translate(-106.84 241.1) rotate(-24.35)"/><path class="cls-3" d="M551.66,404.33s-17.56,37-57.12,27.07"/><path class="cls-1" d="M423,494.28q-19.16,97.84-37.16,195.91-5.1,27.81-10.11,55.63c-.42,2.33,3.15,3.33,3.58,1q17.67-98.12,36.5-196,5.34-27.76,10.77-55.51c.46-2.33-3.12-3.33-3.58-1Z"/><path class="cls-1" d="M505.68,487.24l63,188.88c.75,2.25,4.33,1.29,3.58-1l-63-188.88c-.75-2.25-4.33-1.29-3.58,1Z"/><path class="cls-1" d="M510.26,285.93a95.82,95.82,0,0,1-21.85-5.53c-6.67-2.57-15.26-6-20.24-11.39-7.47-8,2.49-17.46,10.89-17.88,8.07-.4,14.59,6.21,15.57,13.94.29,2.29,3.72,2.46,3.71,0,0-12.74,18-17.37,22.5-4.74,4.17,11.78-6.92,21-15.68,26.53-2,1.27-.16,4.48,1.87,3.2,6.63-4.17,13.37-9.14,16.54-16.57,2.69-6.3,2.61-14.21-2.24-19.47-9.81-10.64-26.75-2.86-26.7,11h3.71c-1.06-8.31-6.76-15.77-15.3-17.38-8.23-1.55-17.36,3-20.38,11-3.86,10.19,6.18,16.27,13.82,20.34a99.49,99.49,0,0,0,33.77,10.64c2.36.31,2.34-3.4,0-3.71Z"/><path class="cls-1" d="M787,229.58c2,14.08,3,28.88,7.21,42.51.7,2.27,4.28,1.3,3.58-1-4.21-13.62-5.19-28.43-7.21-42.51-.34-2.35-3.91-1.35-3.58,1Z"/><path class="cls-1" d="M835.74,214l.33-.17a1.89,1.89,0,0,0,.85-2.09,2.18,2.18,0,0,0-1.42-1.83,1.92,1.92,0,0,0-2.25.29c-2,2.36-1.12,5.77-1.09,8.7q.07,6.73-.21,13.45a266,266,0,0,1-3,30.09,1.88,1.88,0,0,0,1.79,2.35l1.71,0c2.38,0,2.39-3.75,0-3.71l-1.71,0,1.79,2.35c1.31-8.39,2.29-16.83,2.83-25.31q.43-6.71.51-13.44,0-2.88,0-5.77c0-1.1-.7-5.27,0-6.08l-2.25.29-.29-.38.85-2.09-.33.17c-2.13,1.07-.26,4.27,1.87,3.2Z"/><path class="cls-1" d="M864.13,185.16A201.31,201.31,0,0,1,859.64,233a1.87,1.87,0,0,0,3.1,1.8l1-.83c1.84-1.53-.8-4.14-2.62-2.62l-1,.83,3.1,1.8a205.59,205.59,0,0,0,4.62-48.8c-.06-2.38-3.77-2.39-3.71,0Z"/><path class="cls-1" d="M917.1,229.14c1.84,7.67,1.09,15.52.33,23.28-.78,7.94-2,15.83-3.43,23.67-.44,2.33,3.13,3.33,3.58,1,1.54-8.17,2.75-16.39,3.57-24.66.8-8.12,1.47-16.25-.46-24.27-.56-2.32-4.13-1.34-3.58,1Z"/><path class="cls-1" d="M914,271.39a163,163,0,0,1-21.67,28.69c-1.64,1.73,1,4.36,2.62,2.62a167.41,167.41,0,0,0,22.25-29.44c1.22-2.06-2-3.92-3.2-1.87Z"/><path class="cls-1" d="M914.55,275.22a244.49,244.49,0,0,1,16.6,27.51c1.1,2.12,4.3.25,3.2-1.87a244.49,244.49,0,0,0-16.6-27.51c-1.35-1.94-4.57-.09-3.2,1.87Z"/><path class="cls-1" d="M919.92,231.55c-2.66,5-5.72,10-11,12.43a18,18,0,0,1-16.12-.53c-2.11-1.11-4,2.09-1.87,3.2a21.91,21.91,0,0,0,18.56,1.14c6.54-2.65,10.44-8.35,13.65-14.36,1.12-2.1-2.08-4-3.2-1.87Z"/><path class="cls-1" d="M917.76,229.08a128.79,128.79,0,0,0,20.81,27.29,1.86,1.86,0,0,0,2.62-2.62A125.09,125.09,0,0,1,921,227.21c-1.18-2.07-4.39-.21-3.2,1.87Z"/><path class="cls-1" d="M864.45,185c4.45,9.71,9.64,23.82,21.18,26.81,2.31.6,3.3-3,1-3.58-10.21-2.64-15-16.5-19-25.1-1-2.17-4.19-.28-3.2,1.87Z"/><path class="cls-1" d="M859.69,232.61A99.6,99.6,0,0,1,863.16,282c-.43,2.33,3.15,3.33,3.58,1a103.52,103.52,0,0,0-3.47-51.35c-.74-2.26-4.33-1.29-3.58,1Z"/><path class="cls-1" d="M860.72,230.63a67.88,67.88,0,0,0-11.37,53c.47,2.34,4,1.35,3.58-1a64.18,64.18,0,0,1,11-50.16c1.4-1.94-1.82-3.79-3.2-1.87Z"/><path class="cls-1" d="M867.18,186.08l-.11-.5a1.83,1.83,0,0,0-1.3-1.3c-4.29-1-5.34,6.72-6.32,9.42q-4.36,11.92-8,24.09a1.87,1.87,0,0,0,2.28,2.28l1.29-.39c2.28-.69,1.31-4.27-1-3.58l-1.29.39,2.28,2.28c1.59-5.3,3.26-10.57,5.06-15.8q1.26-3.69,2.6-7.36.67-1.84,1.35-3.66l.69-1.83q1.08-1.73-1.13-3.05c.51,2.33,4.08,1.34,3.58-1Z"/><path class="cls-1" d="M831.23,210.41a43.77,43.77,0,0,1-8.33,18,42.45,42.45,0,0,1-7.92,7.77c-1.39,1-4.08,1.93-4.87,3.59-1,2,.63,4.89,3.07,4.29,2.74-.67,2.46-4.49.21-5.47s-4.06,2.25-1.87,3.2c2.43,1.06,7.38-3.92,9.14-5.52a46.21,46.21,0,0,0,6.22-7,47.08,47.08,0,0,0,7.94-17.89c.5-2.33-3.07-3.32-3.58-1Z"/><path class="cls-1" d="M832.08,210.5a35.13,35.13,0,0,0,6.25,14c1.63,2.17,5.21,7.53,8.42,5.14,1.89-1.41,0-4.63-1.87-3.2-.49.36-5.44-6.91-5.87-7.68a32.36,32.36,0,0,1-3.35-9.28c-.48-2.34-4.06-1.35-3.58,1Z"/><path class="cls-1" d="M827.65,259a81.37,81.37,0,0,1-15,22.45l2.62,2.62.41-.47c1.56-1.79-1.05-4.43-2.62-2.62l-.41.47c-1.55,1.79,1,4.38,2.62,2.62a84.3,84.3,0,0,0,15.57-23.2c1-2.16-2.22-4-3.2-1.87Z"/><path class="cls-1" d="M828.45,259.45q5.36,17.32,11.29,34.45c.78,2.24,4.36,1.28,3.58-1q-5.93-17.13-11.29-34.45c-.7-2.27-4.28-1.3-3.58,1Z"/><path class="cls-1" d="M793.67,271.29a283.59,283.59,0,0,1-16.37,29.51,1.87,1.87,0,0,0,2.54,2.54l1.45-.88c2-1.23.18-4.44-1.87-3.2l-1.45.88,2.54,2.54a283.59,283.59,0,0,0,16.37-29.51c1-2.14-2.17-4-3.2-1.87Z"/><path class="cls-1" d="M796.05,270.76l5.53,31.63c.41,2.35,4,1.35,3.58-1l-5.53-31.63c-.41-2.35-4-1.35-3.58,1Z"/><path class="cls-1" d="M787,231.11c-1.82,6.09-12.28,4.22-16.82,3.38A51.47,51.47,0,0,1,755,229a52.48,52.48,0,0,1-22.43-23.77c-1-2.16-4.22-.28-3.2,1.87a56.12,56.12,0,0,0,29.45,27.8c7.72,3.17,28.22,9.16,31.81-2.84.68-2.29-2.89-3.27-3.58-1Z"/><path class="cls-1" d="M787.47,232.39c3.94,5.83,7.67,11.8,11.13,17.94q2.48,4.4,4.78,8.9c.92,1.79,1.47,3.79,3.23,4.89a1.85,1.85,0,0,0,1.87,0l.54-.32a1.91,1.91,0,0,0,.85-2.09l-.1-.52c-.47-2.34-4-1.35-3.58,1l.1.52.85-2.09q1.78.54.67-.78-.41-.82-.82-1.64-1-2-2.11-4.08-2.15-4.06-4.45-8c-3.06-5.3-6.34-10.47-9.76-15.54-1.33-2-4.54-.11-3.2,1.87Z"/><path class="cls-1" d="M1079.75,242.07c-68,58.28-130.08,123-192.08,187.6-57.1,59.45-114.14,119.38-163.39,185.65-27.71,37.29-52.76,76.58-73.5,118.19-1.06,2.13,2.14,4,3.2,1.87,36.86-74,87.27-140,141.81-201.74,27.49-31.12,56.07-61.27,84.8-91.24,30.43-31.74,60.85-63.52,91.87-94.69,35.43-35.6,71.75-70.34,109.9-103,1.82-1.55-.82-4.17-2.62-2.62Z"/><path class="cls-1" d="M364.94,418.31c-67.25,30.22-134.31,61.25-198.08,98.39q-27.21,15.84-53.46,33.24c-2,1.31-.12,4.53,1.87,3.2,61.36-40.78,127.13-74.28,193.85-105.32q28.75-13.38,57.7-26.31c2.17-1,.29-4.17-1.87-3.2Z"/><path class="cls-1" d="M765.59,212.26c-60.33,35.78-121,71-183.17,103.59q-26.5,13.9-53.35,27.11c-2.14,1.05-.26,4.25,1.87,3.2,63-30.95,124.3-65.06,184.91-100.35q25.87-15.06,51.61-30.36c2.05-1.22.19-4.42-1.87-3.2Z"/><path class="cls-1" d="M1079.9,24.6,880,144c-2,1.22-.18,4.43,1.87,3.2L1081.77,27.8c2-1.22.18-4.43-1.87-3.2Z"/><path class="cls-1" d="M844,651.53c-12.77,3.83-22.5-9.52-27.48-19.42-5.77-11.47-10.17-24.42-9.24-37.42.85-11.84,6.91-22.69,17.38-28.63a25.87,25.87,0,0,1,14.17-3.57c2.31.14,6.5.64,8.2,2.32,2.19,2.17,1.39,5.78.06,1.78a25.13,25.13,0,0,1-1.23-6.52c-1.38-25.39,27.58-40.39,50-36.83,5.32.84,12,4,11,10.41-.39,2.32-2.21,5.58-4.94,5.71-4.37.2-5.13-5.48-5-8.59.52-10.42,7.76-20.82,15.33-27.47,19.86-17.46,50.45-13.8,66.86,6.49l-.29-2.25c-2.53,4.11-9,1.65-10.55-2.16-2.29-5.73,2.55-11.86,6.69-15.31a36.19,36.19,0,0,1,21.32-7.87c15.07-.73,30.31,6.47,37.66,19.91,1.15,2.09,4.35.23,3.2-1.87-10.19-18.64-34.92-26.66-54.49-18.88-9,3.58-21.34,13-18.26,24.27,2,7.42,13.22,11,17.64,3.79a1.91,1.91,0,0,0-.29-2.25c-11.81-14.59-31.6-21.89-50-17.86-17.31,3.78-32,17.59-37.13,34.48-1.84,6-2.82,16,4.57,18.78,6.11,2.32,11.1-3.94,11.5-9.52.56-7.85-7-12.21-13.78-13.37-9.09-1.55-19.39.16-27.93,3.42-19.23,7.35-33.52,28.73-23.51,48.91a1.86,1.86,0,0,0,1.6.92c4.9.27,7-5.34,4.35-9.07-3.63-5-12.13-5.61-17.71-4.8-12.92,1.89-23.88,12.42-28,24.57-5.55,16.47-.12,34.64,7.27,49.59,5.79,11.72,17.19,26.36,32.06,21.9,2.28-.68,1.31-4.26-1-3.58Z"/><path class="cls-1" d="M477.54,501.85l-.3-4.4-2.72,1.11c16.44,7.4,33.59,15.08,52,15.26,15.69.16,30.94-5.65,43.47-14.89,27.82-20.52,39.37-54.45,43.52-87.52.3-2.36-3.41-2.34-3.71,0-4,31.64-15.07,64.63-41.68,84.32-12,8.89-26.53,14.53-41.6,14.39-17.68-.18-34.27-7.63-50.09-14.76a1.89,1.89,0,0,0-2.72,1.11,8.09,8.09,0,0,0,.68,7.26c1.14,2.1,4.34.23,3.2-1.87Z"/></g></svg>