<svg xmlns="http://www.w3.org/2000/svg" viewBox="0 0 1220.61 790.38"><defs><style>.cls-1{fill:#fff;}.cls-2{fill:#8669ab;opacity:0.79;}.cls-3{fill:none;stroke:#fff;stroke-linecap:round;stroke-linejoin:round;stroke-width:5px;}</style></defs><title>dibujo3</title><g id="Capa_2" data-name="Capa 2"><rect class="cls-1" y="1.17" width="1220.61" height="788.04" rx="135.94" ry="135.94"/><rect class="cls-2" width="1220.61" height="790.38" rx="78.94" ry="78.94"/><path class="cls-3" d="M205.55,309.84l-120,20s-22.67-24,7.33-38,31.33,14.67,31.33,14.67-21.33-57.33,24-53.33,22,43.33,22,43.33,20-48,45.33-16S205.55,309.84,205.55,309.84Z"/><path class="cls-3" d="M435.74,223.08,290.24,237.61s-24-10.13-21-30.63,22.5-52.5,60-16c14-47.5,31.5-43,38.5-40s33,11.5,19.5,37C401.43,155.15,476,161,435.74,223.08Z"/><path class="cls-1" d="M82.84,214.15c-14.43,9.55-29-9.33-29.59-22.65-.57-12.41,13.62-21.07,24.46-14.86,2.1,1.2,4.8-1.26,3.42-3.42-6.47-10.1-2.2-25.09,8.8-30.17,12-5.53,26.62,2.75,30.38,14.76a2.5,2.5,0,0,0,4.82-1.33c-1.69-7.62,2.54-15.42,9.21-19.23,6.86-3.92,15.32-3.48,22.56-.9s16.08,8,16.5,16.53c.39,8-6.73,14.39-12.18,19.19-11.33,10-23,19.81-35.87,27.82a111.18,111.18,0,0,1-20.27,10.17,84,84,0,0,1-10.69,3.17c-1.77.39-10.25,2.68-11,1.62v2.52l.24-.52-2.16,1.24-.1-.18-1.15-2.82-.15.4c-1.14,3,3.7,4.32,4.82,1.33l.15-.4a2.5,2.5,0,0,0-1.15-2.82c-3.92-1.77-7.3,2.86-3.39,5.47,2.38,1.59,6.33.5,8.88.14a81.4,81.4,0,0,0,13.22-3c16.24-5.16,30.58-14.77,43.85-25.25,6.84-5.4,13.61-11,20-16.89,5.26-4.83,10.71-10.83,11.7-18.21,2.09-15.67-16.21-25.11-29.33-26.32-15.95-1.47-32.37,11.18-28.57,28.3l4.82-1.33c-4.65-14.87-22.35-24.69-37.14-18-13.66,6.15-19.22,24.73-11.17,37.3l3.42-3.42c-14-8-32.74,2.92-32,19.18.78,16.94,19.27,38.78,37.12,27,2.67-1.77.17-6.1-2.52-4.32Z"/><path class="cls-1" d="M705.55,173.72c-6.89,3.13-14.37,6.62-22.13,6.37-6.33-.21-13.71-3.47-15.86-9.91-2.29-6.84,2.67-13.81,8.49-17C683,149.43,691.47,150,699,151c1.95.27,4.16-1.64,2.82-3.67-6.31-9.6-1.42-23.47,8.74-28.33,12.23-5.85,26.6,2,32.84,12.81l3.93-3c-4.87-5.08,2.56-14.24,6.17-17.87,4.44-4.45,10.27-7.82,16.6-8.49,11.89-1.26,24.38,9.46,21.57,21.93-.6,2.66,3.19,4.53,4.57,1.93a35.18,35.18,0,0,1,36.6-17.72c14.51,2.61,23.84,15.89,24.08,30.23.28,17-12.37,27.44-28,31-8.41,1.93-17.08,2.25-25.67,2.57l-31.92,1.2-71.83,2.7c-3.21.12-3.22,5.12,0,5l75.82-2.85c12-.45,24-.71,36-1.4,9.28-.53,18.77-1.57,27.47-5,15.15-6,24.51-19.83,22.9-36.29-1.46-14.91-11.37-28.34-26.35-31.71-16.83-3.79-35.39,4.51-43.47,19.77l4.57,1.93c3.73-16.54-12.57-30.6-28.47-28-8.62,1.42-16.18,6.73-21.42,13.58-4.44,5.81-8.79,14.82-2.81,21.06,2,2.06,5.34-.58,3.93-3-7.6-13.2-25.11-21.88-39.68-14.61-12.4,6.19-18.33,23.29-10.53,35.17l2.82-3.67c-9.56-1.3-20.24-1.85-28.61,3.84-6.41,4.36-11.13,12.27-9.32,20.2,1.75,7.65,8.9,12.78,16.27,14.33,10.24,2.16,20.3-2.36,29.41-6.5,2.92-1.33.39-5.64-2.52-4.32Z"/><path class="cls-3" d="M613.36,595.92S467.16,478.28,492.29,374.34c38.83-69.67,110.79,12.56,110.79,12.56s40-67.39,90.23-29.7C737.86,423.45,640.77,540,613.36,595.92Z"/><path class="cls-3" d="M440.19,489.69S405.1,498.92,410,534.62s49.86,36.32,62.79,10.46S475.27,482.92,440.19,489.69Z"/><line class="cls-3" x1="409.55" y1="484.15" x2="422.66" y2="499.29"/><line class="cls-3" x1="431.57" y1="477.38" x2="434.71" y2="491.72"/><line class="cls-3" x1="448.8" y1="471.84" x2="448.8" y2="488.88"/><path class="cls-3" d="M446.34,563.13v15.82s-16.44-7.54-23.69,8.62,5.68,22.16,5.22,32.78c3.69,16.16-7.54,40.17,20.93,41.55a474.3,474.3,0,0,0,49.25,0S481,626.8,486.51,615.72c3.23-23.08,26.32-24.93,11.54-44.32s-29.63,2.62-40.67,5.08V559.77"/><path class="cls-3" d="M446.34,578.94s7.69-1.23,11-2.46"/><path class="cls-3" d="M537.75,504.46s-10.62,3.23-9.23,11.54,6.93,6.69,9.23,6.23S552.76,511.62,537.75,504.46Z"/><path class="cls-3" d="M498,571.4s42.52-10.74,37-48.77"/><path class="cls-3" d="M429.21,647.5s-2.87,54.55,3.59,59.48,27.08,3.08,21.54-21.85"/><path class="cls-3" d="M498,661.89s9.17,20.16,4.89,25.39-29.92,23.15-47.72,7.11"/><polyline class="cls-3" points="449.77 706.11 452.19 759 466.35 759"/><polyline class="cls-3" points="485.12 698.46 494.66 753.46 511.59 746.07"/><circle class="cls-3" cx="729.86" cy="515.8" r="35.44"/><path class="cls-3" d="M724,526s-16.77,6.88-26.54,4.06"/><path class="cls-3" d="M714.73,504.46"/><path class="cls-3" d="M746.56,484.55s21.72-23.18,34.64-12.71c19.08,12.31-.62,47.8,26.47,56.53C792.29,547,761,532.73,761,532.73"/><path class="cls-3" d="M692,559.77c-6-1.55-16.16-12.1-24,0-9.7,19.18,16.16,21.33,14.31,28.72-3.4,18-18.47,22.62-7.85,32.78s48.48,7.39,52.17,2.77c3.28-37.86,13.85-47,8.77-60.91S718.27,566.6,692,559.77Z"/><path class="cls-3" d="M656.4,518.77s-12.47,7.39-6.93,16.16S670.25,528.93,656.4,518.77Z"/><path class="cls-3" d="M667.94,559.77s-15.41-6.43-15.27-22.33"/><line class="cls-3" x1="718.26" y1="549.27" x2="718.26" y2="559.64"/><line class="cls-3" x1="729.86" y1="551.24" x2="729.86" y2="557.67"/><path class="cls-3" d="M726.58,624s3.23,31.39,0,34.16-31.86,18.47-35.09-13.39c0,0-3.23,12.47-13.85,9.23s-3.23-32.78-3.23-32.78"/><polyline class="cls-3" points="694.41 698.46 708.57 693.29 708.57 664.49"/><polyline class="cls-3" points="677.64 654.04 677.64 700.92 660.31 706.11"/><path class="cls-1" d="M461,511.39c3.22,0,3.22-5,0-5s-3.22,5,0,5Z"/><path class="cls-1" d="M718.34,504.72c3.22,0,3.22-5,0-5s-3.22,5,0,5Z"/><path class="cls-1" d="M474.82,527.71c-2.66,7.44-11.51,6.06-16.8,2.67-2.72-1.74-5.23,2.58-2.52,4.32,8.32,5.34,20.38,4.85,24.14-5.66,1.09-3-3.74-4.34-4.82-1.33Z"/><path class="cls-1" d="M159.59,353.06A188,188,0,0,1,211.9,366.7c1.26.53,2.74-.58,3.08-1.75a76,76,0,0,1,40.45-47.59c2.9-1.38.37-5.69-2.52-4.32a80.84,80.84,0,0,0-42.75,50.58l3.08-1.75a192.23,192.23,0,0,0-53.64-13.82c-3.19-.35-3.17,4.65,0,5Z"/><path class="cls-1" d="M220.46,137a50.66,50.66,0,0,1,29.28,17.56,2.5,2.5,0,0,0,3.54,0l20.45-25.72c5.87-7.38,11.74-16.34,21.28-19.09,3.09-.89,1.77-5.71-1.33-4.82-9.31,2.68-15.27,10.06-21.08,17.35L249.74,151h3.54a54.94,54.94,0,0,0-31.49-18.85c-3.14-.64-4.48,4.18-1.33,4.82Z"/><path class="cls-1" d="M697.48,255.13a86.15,86.15,0,0,1,40.93,21.09,2.53,2.53,0,0,0,3.93-.51A102.28,102.28,0,0,1,793,233c3-1.15,1.68-6-1.33-4.82a107.79,107.79,0,0,0-53.68,45l3.93-.51a91.07,91.07,0,0,0-43.14-22.38c-3.14-.66-4.48,4.15-1.33,4.82Z"/><path class="cls-1" d="M1028.95,327a61.61,61.61,0,0,1,43.19,29.36c.88,1.48,3.52,1.77,4.32,0a122.16,122.16,0,0,1,67.83-64.16c3-1.13,1.69-6-1.33-4.82a127.06,127.06,0,0,0-70.82,66.46h4.32a66.38,66.38,0,0,0-46.18-31.66c-3.15-.52-4.5,4.3-1.33,4.82Z"/><path class="cls-1" d="M909.46,258.1c-6.15-6.92-4.3-18.1,2.29-24.1,8.07-7.35,20.6-6.05,29.51-1.16a2.53,2.53,0,0,0,3.67-2.82c-2.39-11.29,1.88-22.5,9-31.23S972.8,180.26,984.86,184c18.12,5.54,40,21.53,39.39,42.36-.07,2.43,3.51,3.47,4.66,1.26,6.78-13,22.89-21.81,37.32-16.15,13,5.09,23.92,24.72,12.78,36.8-6.17,6.69-19,3.5-27.15,3.24q-14-.46-28.07-.27-27.59.37-55.07,3.22-30.67,3.18-60.91,9.4c-3.15.64-1.82,5.46,1.33,4.82a612.16,612.16,0,0,1,134-12.39q7.74.14,15.48.48c4.91.22,10.12,1,15,0,7.74-1.56,12.75-8.28,14.18-15.78,2.75-14.31-6.59-29.09-19.94-34.25-16.58-6.41-35.42,3.25-43.28,18.35l4.66,1.26c.33-11.76-5.48-22-13.9-29.9-8.68-8.14-21.76-16.89-33.83-18.29-12.71-1.48-25,9.24-32.25,18.59-7.71,9.93-11.81,22.12-9.16,34.62l3.67-2.82c-11.23-6.16-26.95-7.08-36.47,2.83-7.86,8.18-9.06,21.65-1.39,30.29,2.14,2.41,5.67-1.14,3.54-3.54Z"/></g></svg>