<svg xmlns="http://www.w3.org/2000/svg" xmlns:xlink="http://www.w3.org/1999/xlink" viewBox="0 0 1274 916.15"><defs><style>.cls-1,.cls-5,.cls-6{fill:none;}.cls-2{fill:#fff;}.cls-3{fill:#8669ab;opacity:0.79;}.cls-4{clip-path:url(#clip-path);}.cls-5,.cls-6{stroke:#fff;stroke-miterlimit:10;}.cls-5{stroke-width:4px;}.cls-6{stroke-width:5px;}</style><clipPath id="clip-path" transform="translate(2.5 33.96)"><rect class="cls-1" y="3.51" width="1220.61" height="788.04"/></clipPath></defs><title>dibujo1</title><g id="Capa_2" data-name="Capa 2"><rect class="cls-2" x="2.5" y="35.13" width="1220.61" height="788.04" rx="135.94" ry="135.94"/><rect class="cls-3" x="2.5" y="33.96" width="1220.61" height="790.38" rx="78.94" ry="78.94"/><g class="cls-4"><circle class="cls-5" cx="616.72" cy="495.99" r="38.25"/><path class="cls-2" d="M633.16,445.06a16.81,16.81,0,0,1,5.92,10.3c.55,3.16,5.37,1.82,4.82-1.33a21,21,0,0,0-7.2-12.51c-2.45-2.05-6,1.46-3.54,3.54Z" transform="translate(2.5 33.96)"/><path class="cls-2" d="M647,476a15.91,15.91,0,0,1-19-3.13c-2.24-2.32-5.77,1.22-3.54,3.54a21,21,0,0,0,25,3.91c2.85-1.5.32-5.82-2.52-4.32Z" transform="translate(2.5 33.96)"/><path class="cls-2" d="M580.2,459.69a41.22,41.22,0,0,1-14,3.22c-3.2.18-3.22,5.18,0,5a48.27,48.27,0,0,0,16.52-3.9c2.95-1.26.41-5.57-2.52-4.32Z" transform="translate(2.5 33.96)"/><path class="cls-2" d="M566.86,445.82A66.8,66.8,0,0,1,581,453.48c2.64,1.86,5.14-2.48,2.52-4.32A72.05,72.05,0,0,0,568.19,441c-3-1.17-4.3,3.66-1.33,4.82Z" transform="translate(2.5 33.96)"/><path class="cls-2" d="M578.69,422,587,438.81c1.42,2.89,5.74.36,4.32-2.52L583,419.44c-1.42-2.89-5.74-.36-4.32,2.52Z" transform="translate(2.5 33.96)"/><path class="cls-2" d="M603.47,437.34a60.42,60.42,0,0,1,.48-18c.57-3.15-4.25-4.5-4.82-1.33a64.79,64.79,0,0,0-.65,19.32c.37,3.16,5.38,3.19,5,0Z" transform="translate(2.5 33.96)"/><path class="cls-2" d="M614.67,431.35a41.54,41.54,0,0,1,2.53-22c1.18-3-3.66-4.29-4.82-1.33a46.41,46.41,0,0,0-2.53,24.69c.51,3.17,5.33,1.82,4.82-1.33Z" transform="translate(2.5 33.96)"/><path class="cls-2" d="M624.73,437.79A92.47,92.47,0,0,1,636,421.12c2.07-2.44-1.45-6-3.54-3.54a98.37,98.37,0,0,0-12,17.69c-1.5,2.84,2.81,5.37,4.32,2.52Z" transform="translate(2.5 33.96)"/><path class="cls-2" d="M601.56,452.54l-11.37.62c-3.2.17-3.22,5.17,0,5l11.37-.62c3.2-.17,3.22-5.17,0-5Z" transform="translate(2.5 33.96)"/><path class="cls-2" d="M615.17,453.33a54.53,54.53,0,0,0,.88-11.31c-.09-3.21-5.09-3.22-5,0a48.09,48.09,0,0,1-.71,10c-.57,3.15,4.25,4.5,4.82,1.33Z" transform="translate(2.5 33.96)"/><path class="cls-2" d="M2.5,708.77v-.93c0-3.22-5-3.22-5,0v.93c0,3.22,5,3.22,5,0v-.93c0-3.22-5-3.22-5,0v.93c0,3.22,5,3.22,5,0Z" transform="translate(2.5 33.96)"/><path class="cls-6" d="M642.78,545.28c39.53,3.56,76.78,9.39,110.19,18,250.49,64.5,439.48,317.42,439.48,317.42" transform="translate(2.5 33.96)"/><path class="cls-6" d="M417.67,545c53.74-3.67,108.27-5.19,160.5-3.55" transform="translate(2.5 33.96)"/><path class="cls-6" d="M10.5,623.27c12.94-16.83,140.67-48.88,296-67.69l2-.24" transform="translate(2.5 33.96)"/><path class="cls-6" d="M595.88,495.6s-23.07,63.09-22,67.09,46.19,22,67.65,3.33c6.39-11.13-13.1-68.47-13.1-68.47" transform="translate(2.5 33.96)"/><path class="cls-6" d="M580.85,567.11s-6,15.08,0,22.08,47.53,23.92,76-11c12-23-14.1-23-14.1-23" transform="translate(2.5 33.96)"/><path class="cls-2" d="M661.16,561c.72-2.27,5.47-4.12,7.35-5.13,2.53-1.36,5.13-2.63,7.77-3.77a105.22,105.22,0,0,1,17.42-5.68,2.53,2.53,0,0,0,1.75-3.08,37.22,37.22,0,0,0-5.26-11.49c-1.8-2.64-6.14-.15-4.32,2.52a33.28,33.28,0,0,1,4.75,10.3l1.75-3.08a110.43,110.43,0,0,0-21,7.25c-5,2.31-13.25,5.12-15,10.82-1,3.07,3.85,4.39,4.82,1.33Z" transform="translate(2.5 33.96)"/><path class="cls-2" d="M645.35,526.89c4.24,3.94,8.6,7.68,14.3,9.21v-4.82a99.32,99.32,0,0,0-17.89,9.37c-2.48,1.65-.82,5,1.93,4.57l.85-.12c3.17-.45,1.82-5.27-1.33-4.82l-.85.12,1.93,4.57A93.1,93.1,0,0,1,661,536.1c2.14-.87,2.59-4.13,0-4.82-4.86-1.3-8.49-4.58-12.09-7.92-2.36-2.19-5.9,1.34-3.54,3.54Z" transform="translate(2.5 33.96)"/><path class="cls-2" d="M1269.08,182c-46.05.74-92.32-10.95-131.56-35.33-38.76-24.09-69-60.78-84.3-103.85a184,184,0,0,1-10.45-74.39c.22-3.21-4.78-3.2-5,0-3.19,46.22,11.88,92.6,39.43,129.61,27.93,37.51,68.17,64.06,112.66,77.82A254.55,254.55,0,0,0,1269.08,187c3.21-.05,3.22-5.05,0-5Z" transform="translate(2.5 33.96)"/><path class="cls-2" d="M977.58,101.35a240.82,240.82,0,0,1,55.28-1.94c3.21.25,3.19-4.75,0-5a246.36,246.36,0,0,0-56.61,2.12c-3.17.48-1.82,5.3,1.33,4.82Z" transform="translate(2.5 33.96)"/><path class="cls-2" d="M1218.2,225.92l-19.54,50.18c-1.17,3,3.66,4.3,4.82,1.33L1223,227.25c1.17-3-3.66-4.3-4.82-1.33Z" transform="translate(2.5 33.96)"/><path class="cls-2" d="M1059.74,130.7A253.39,253.39,0,0,1,1019,155.26c-2.9,1.4-.37,5.71,2.52,4.32A253.39,253.39,0,0,0,1062.27,135c2.56-1.89.07-6.23-2.52-4.32Z" transform="translate(2.5 33.96)"/><path class="cls-2" d="M1147,204.83a291,291,0,0,0-28.56,44.45c-1.48,2.85,2.83,5.38,4.32,2.52a284.3,284.3,0,0,1,27.78-43.44c2-2.51-1.56-6.07-3.54-3.54Z" transform="translate(2.5 33.96)"/><path class="cls-2" d="M1093.77,174.87a145.23,145.23,0,0,0-60.41,51.66c-1.79,2.69,2.54,5.19,4.32,2.52a140.51,140.51,0,0,1,58.61-49.87c2.92-1.34.38-5.65-2.52-4.32Z" transform="translate(2.5 33.96)"/><path class="cls-2" d="M313.7,389.09a389.69,389.69,0,0,1,4.43,100.28,384.77,384.77,0,0,1-7.57,49.85Q308,551,304.64,562.64c-1.56,5.43-4.7,20.37-13.09,17.9-3.09-.91-4.41,3.91-1.33,4.82,15.07,4.44,19.26-21,21.7-30.36A393.23,393.23,0,0,0,322,500.46a394.48,394.48,0,0,0-3.5-112.7c-.55-3.16-5.37-1.82-4.82,1.33Z" transform="translate(2.5 33.96)"/><path class="cls-2" d="M400.59,376.7c.13,34.58.26,69.23,3.72,103.67,3,30,7.22,62.1,22.15,88.83,6.77,12.12,17.06,26.56,32.48,26.44,3.22,0,3.22-5,0-5-18.06.14-29.14-23.7-34.73-37.88-6.77-17.19-10.13-35.61-12.68-53.83-5.67-40.47-5.78-81.45-5.93-122.23,0-3.22-5-3.22-5,0Z" transform="translate(2.5 33.96)"/><path class="cls-2" d="M316.75,463.5c-14.33,11.4-34,13.76-51.41,9.29-18.54-4.76-34.64-16.31-48.09-29.59-13.16-13-24.34-28.78-30-46.51a68.63,68.63,0,0,1,4.69-54.39,152.78,152.78,0,0,1,17.89-26.49c6.57-7.83,14.33-14.62,24.31-17.53,2.83-.83,2.06-4.66-.66-4.91-13.1-1.21-26.88,3.62-39.76.19-14.58-3.88-19.26-20.49-22.39-33.46-6.74-27.91-3.53-59.83,16.59-81.68,8.64-9.38,19.78-16.6,32.2-19.76,6.59-1.68,13-1.74,19.69-1.39,5.25.27,10.6-.14,14.25-4.38,4.06-4.71,6.28-10.31,11-14.63A51.88,51.88,0,0,1,282.48,128c15-5.35,31.29-4.5,46.77-2.2,15.74,2.33,32.16,5.89,45.44,15.12,13,9,22.48,24.63,19.49,40.8a2.51,2.51,0,0,0,4.57,1.93c9.08-13.69,25.37-19.93,41.12-21.85,16.85-2.05,35.44-.14,49.7,9.78,14,9.74,22.24,27.32,16.83,44-2.78,8.59-8.06,16.37-13,23.83a269.45,269.45,0,0,1-18.06,24,2.53,2.53,0,0,0,1.1,4.18c32.36,9.51,27.38,56.83,19.8,81.63A135,135,0,0,1,448.59,417a128.42,128.42,0,0,1-19.9,12.29,115.56,115.56,0,0,1-11.12,4.83q-2.67,1-5.38,1.86l-2,.63-2.06.59q-2,.29-2.23,2.84c3.19.35,3.17-4.65,0-5-5.38-.59-4.74,8,1.38,7.46,7.54-.71,15.94-5,22.69-8.27a134.39,134.39,0,0,0,40.59-30.51c22.82-25,36.89-58.55,36-92.65-.52-19.8-7.8-42.11-28.8-48.28l1.1,4.18c10.73-12.74,21.37-26.55,28.83-41.51,6.44-12.89,7.39-26.58.78-39.62-14-27.53-48.81-33.41-76.49-27.74-14.86,3-29,10.18-37.52,23.07l4.57,1.93c2.53-13.65-2.38-27-11.39-37.3-9.89-11.3-24.25-17.54-38.54-21.17-28.54-7.25-65.55-11.22-88.65,11.15a45.79,45.79,0,0,0-6.09,7.28c-2.54,3.77-3.84,8.09-8.83,9.1-3.57.72-7.38-.06-11-.13a58.17,58.17,0,0,0-10.09.7c-13.23,2-25.5,8.56-35.35,17.51-23,20.87-29.31,53-24.35,82.72,2.43,14.57,6.92,34.72,20.88,42.71,14.48,8.29,32.23,1.29,47.83,2.74l-.66-4.91c-18.93,5.53-31.38,23.44-41.23,39.42-10.75,17.44-15.66,36.53-11.38,56.82,4.18,19.79,15.47,37.74,29.08,52.43s30.62,27.81,50,34.09c20.54,6.67,43.88,4.5,61.08-9.18,2.52-2-1-5.52-3.54-3.54Z" transform="translate(2.5 33.96)"/><path class="cls-2" d="M567.57,191.22C582.32,188.7,611,185,618.45,202.6c.93,2.21,3.9,1.14,4.57-.6,7.77-20.11,29.12-32.74,50.43-30.54,3.2.33,3.17-4.67,0-5-23.66-2.44-46.73,12.15-55.25,34.21l4.57-.6c-8.49-20.09-39.62-16.56-56.53-13.68-3.17.54-1.82,5.36,1.33,4.82Z" transform="translate(2.5 33.96)"/><path class="cls-2" d="M631.33,134c3.11-5.88,16.22-3.46,21.47-2.75a80.79,80.79,0,0,1,23,6.79,2.55,2.55,0,0,0,3.42-.9c9.76-18.15,33.75-26.3,52.46-17.38,2.89,1.38,5.43-2.93,2.52-4.32-21.09-10.06-48.17-1.52-59.3,19.17l3.42-.9a87,87,0,0,0-29.61-7.93c-7-.56-17.77-1.7-21.68,5.67-1.51,2.84,2.81,5.37,4.32,2.52Z" transform="translate(2.5 33.96)"/><path class="cls-2" d="M743.92,207.33a60.49,60.49,0,0,1,54.77,9.44c1.34,1,3.25-.1,3.67-1.49,6.91-22.77,32.43-28.37,53.31-25.75,3.18.4,3.16-4.6,0-5-23.27-2.92-50.58,4.53-58.14,29.42l3.67-1.49a65.17,65.17,0,0,0-58.63-9.94c-3.06,1-1.75,5.8,1.33,4.82Z" transform="translate(2.5 33.96)"/><path class="cls-2" d="M612,253.8a35.31,35.31,0,0,1,26.86-1c7,2.61,12.3,10.17,20.08,5.92,17.09-9.35,35.83-12,54.47-5.4,3,1.08,4.35-3.75,1.33-4.82a68.67,68.67,0,0,0-54.21,3.59c-2.76,1.43-5.25,3.88-8.68,2.41-1.95-.83-3.71-2.66-5.56-3.72a38.83,38.83,0,0,0-11.93-4.41,40.77,40.77,0,0,0-24.87,3.11c-2.92,1.34-.38,5.65,2.52,4.32Z" transform="translate(2.5 33.96)"/><path class="cls-2" d="M792.9,141.52a65.29,65.29,0,0,1,42.77,6.24,2.54,2.54,0,0,0,3.67-1.49c6.51-21.72,26.47-38,49.1-39.8,3.19-.26,3.21-5.26,0-5a62,62,0,0,0-53.93,43.48l3.67-1.49a70.85,70.85,0,0,0-46.62-6.75c-3.16.61-1.82,5.43,1.33,4.82Z" transform="translate(2.5 33.96)"/><path class="cls-2" d="M841,256.94a88.75,88.75,0,0,1,60.94,12.56,2.55,2.55,0,0,0,3.42-.9c15.66-23.38,39.53-49.63,70.88-43,3.14.66,4.48-4.16,1.33-4.82-33.82-7.11-59.48,19.89-76.53,45.34l3.42-.9a94.06,94.06,0,0,0-64.8-13.06c-3.17.5-1.82,5.32,1.33,4.82Z" transform="translate(2.5 33.96)"/><path class="cls-6" d="M420,544.84" transform="translate(2.5 33.96)"/><path class="cls-2" d="M136.31,700.86a139.64,139.64,0,0,0-16.56-40.22c-1.67-2.75-6-.24-4.32,2.52a135.18,135.18,0,0,1,16.05,39c.75,3.13,5.57,1.8,4.82-1.33Z" transform="translate(2.5 33.96)"/><path class="cls-2" d="M150.49,679.15c-.29.08,1.2-13.37,1.46-14.62a90.69,90.69,0,0,1,3.73-12.83A88.93,88.93,0,0,1,170,626.84c2-2.48-1.51-6-3.54-3.54a95.06,95.06,0,0,0-18.14,35c-1.17,4.35-7.74,28.78,3.51,25.64,3.1-.86,1.78-5.69-1.33-4.82Z" transform="translate(2.5 33.96)"/><path class="cls-2" d="M233.39,744a33.07,33.07,0,0,1,21,30.8c0,3.22,5,3.22,5,0a38.22,38.22,0,0,0-24.71-35.62c-3-1.15-4.31,3.69-1.33,4.82Z" transform="translate(2.5 33.96)"/><path class="cls-2" d="M272.38,735.77a43.73,43.73,0,0,1,15.64-33c2.46-2.09-1.1-5.61-3.54-3.54a48.6,48.6,0,0,0-17.11,36.55c0,3.22,5,3.22,5,0Z" transform="translate(2.5 33.96)"/><path class="cls-2" d="M407.4,743.74a34.43,34.43,0,0,1,26.93,31c.21,3.19,5.21,3.22,5,0a39.49,39.49,0,0,0-30.6-35.83c-3.14-.68-4.48,4.14-1.33,4.82Z" transform="translate(2.5 33.96)"/><path class="cls-2" d="M443,727.32a113.37,113.37,0,0,1,23.63-40.85c2.15-2.38-1.38-5.93-3.54-3.54A119.37,119.37,0,0,0,438.22,726c-1,3.07,3.83,4.38,4.82,1.33Z" transform="translate(2.5 33.96)"/><path class="cls-2" d="M567.14,651.6a300.75,300.75,0,0,1,20.57,22.93c2,2.5,5.54-1.05,3.54-3.54a300.75,300.75,0,0,0-20.57-22.93c-2.27-2.29-5.81,1.25-3.54,3.54Z" transform="translate(2.5 33.96)"/><path class="cls-2" d="M600.6,643.34a40.65,40.65,0,0,1,23.87-24.1c3-1.12,1.69-6-1.33-4.82A46.07,46.07,0,0,0,595.78,642c-1.11,3,3.72,4.33,4.82,1.33Z" transform="translate(2.5 33.96)"/><path class="cls-2" d="M708,652.38c19.67,1.48,36.42,16.67,40.27,35.92.63,3.15,5.45,1.82,4.82-1.33-4.31-21.53-23.3-37.95-45.1-39.59-3.21-.24-3.19,4.76,0,5Z" transform="translate(2.5 33.96)"/><path class="cls-2" d="M763.4,648a147.24,147.24,0,0,1,33-31.25c2.63-1.81.13-6.15-2.52-4.32a154.88,154.88,0,0,0-34.82,33c-2,2.54,2.38,5,4.32,2.52Z" transform="translate(2.5 33.96)"/><path class="cls-2" d="M809.83,740.38a264.33,264.33,0,0,1,44,52.43c1.73,2.7,6.06.2,4.32-2.52a269.44,269.44,0,0,0-44.8-53.44c-2.37-2.17-5.91,1.35-3.54,3.54Z" transform="translate(2.5 33.96)"/><path class="cls-2" d="M855.36,739.91a186.46,186.46,0,0,1,24-39.79c2-2.5-1.54-6.06-3.54-3.54A191.22,191.22,0,0,0,851,737.39c-1.3,2.91,3,5.46,4.32,2.52Z" transform="translate(2.5 33.96)"/><path class="cls-2" d="M613.34,735.5a93.25,93.25,0,0,1,39.6,56.1c.76,3.13,5.58,1.8,4.82-1.33a98.41,98.41,0,0,0-41.89-59.09c-2.7-1.76-5.21,2.56-2.52,4.32Z" transform="translate(2.5 33.96)"/><path class="cls-2" d="M678.11,760.29a98.27,98.27,0,0,1,27.22-51.15c2.28-2.27-1.25-5.81-3.54-3.54A102.94,102.94,0,0,0,673.29,759c-.61,3.14,4.21,4.49,4.82,1.33Z" transform="translate(2.5 33.96)"/><path class="cls-2" d="M613.32,501.84c2.89,18.52,6.4,38.4,15.14,55.19,8.46,16.24,23.14,24.59,39.17,32.1,2.9,1.36,5.44-3,2.52-4.32C654.29,577.38,640.06,569.37,632,553c-7.9-16.08-11.15-35-13.89-52.53-.5-3.17-5.31-1.82-4.82,1.33Z" transform="translate(2.5 33.96)"/></g></g></svg>