<svg xmlns="http://www.w3.org/2000/svg" viewBox="0 0 1220.61 790.38"><defs><style>.cls-1{fill:#fff;}.cls-2{fill:#80c8e5;}.cls-3{fill:none;stroke:#fff;stroke-linecap:round;stroke-linejoin:round;stroke-width:4px;}</style></defs><title>dibujo4</title><g id="Capa_2" data-name="Capa 2"><rect class="cls-1" y="1.17" width="1220.61" height="788.04" rx="135.94" ry="135.94"/><rect class="cls-2" width="1220.61" height="790.38" rx="78.94" ry="78.94"/><path class="cls-3" d="M186.4,290.67,140.29,398.24l475.57-43.47L565.8,252S310.23,287.17,186.4,290.67Z"/><polyline class="cls-3" points="211.31 391.75 235.14 638 607.96 602.43 564.19 359.49"/><polygon class="cls-3" points="244.36 415.38 253.58 478.6 357.65 466.74 336.58 398.24 244.36 415.38"/><polygon class="cls-3" points="453.82 392.97 461.73 450.94 549.99 444.06 540.77 381.12 453.82 392.97"/><polygon class="cls-3" points="480.33 519.44 490.71 560.28 575.02 560.28 549.99 493.09 480.33 519.44"/><polygon class="cls-3" points="239.09 535.25 244.36 591.89 340.53 591.89 327.36 519.44 239.09 535.25"/><path class="cls-1" d="M248.73,414.39q-1.93,12.06-4.43,24c-.42,2,1.73,4.1,3.67,2.82a253.08,253.08,0,0,0,35.84-28.62l-4.18-2.43q-7.83,19.79-17.54,38.73c-1.09,2.12,1.18,4.81,3.42,3.42,13.62-8.47,19.26-25.74,34-32.64L296,416.25q-11.46,25.92-23.35,51.65a2.5,2.5,0,0,0,4.32,2.52c11.88-18.17,24.08-36.68,41.5-50.06l-3.42-3.42L290.6,469.85c-1.09,2.36,2,5.4,3.93,3,11.48-14,23-28,36-40.69l-4.18-2.43a161.05,161.05,0,0,1-12.19,30.37,2.51,2.51,0,0,0,3.93,3l7.35-6.45c2.09-1.83,5.59-6.36,8.24-7.09q1.27-1.57,2.41.62,2.43.92,1.15,3.17c.09,1.48-.62,3.32-.89,4.76l-2,10.48c-.44,2.34,2.31,4.32,4.18,2.43a46,46,0,0,1,18-11.32c3-1,1.73-5.87-1.33-4.82A51.62,51.62,0,0,0,335,467.54l4.18,2.43c1.15-6.15,2.77-12.4,3.44-18.62.34-3.15-.38-6.62-3.69-7.86s-6.69.83-9.16,2.79c-5.28,4.16-10.19,8.91-15.24,13.34l3.93,3a167.56,167.56,0,0,0,12.69-31.56,2.52,2.52,0,0,0-4.18-2.43c-13,12.66-24.55,26.66-36,40.69l3.93,3,24.49-52.91c.91-2-1.21-5.12-3.42-3.42-18.16,14-30.9,32.9-43.29,51.86l4.32,2.52q11.89-25.73,23.35-51.65a2.52,2.52,0,0,0-3.42-3.42c-14.87,7-20.32,24.17-34,32.64l3.42,3.42q10-19.52,18-39.92c1-2.45-2.52-4-4.18-2.43a245.86,245.86,0,0,1-34.83,27.84l3.67,2.82q2.5-11.95,4.43-24c.5-3.15-4.31-4.5-4.82-1.33Z"/><path class="cls-1" d="M244.72,530.14a194.11,194.11,0,0,0-9.28,32.65,2.52,2.52,0,0,0,4.18,2.43,141.9,141.9,0,0,0,26-33.52l-4.57-.6c1.64,4.74-.17,9.51-1.41,14.14l-3.31,12.37-6.87,25.7c-.72,2.69,3.2,4.47,4.57,1.93l14.61-27.15q3.53-6.57,7.07-13.14c2.14-4,4.06-8.11,8.2-10.33l-3.67-2.82L264.34,590c-.73,2.68,3.23,4.49,4.57,1.93q9-17.21,18.66-34,4.6-8,9.36-15.89c3-4.9,5.71-10.09,11.21-12.46L304.46,528c1.94,4.6-.92,9.85-2.45,14.24L297.59,555l-9.48,27.29c-.93,2.67,3.25,4.42,4.57,1.93,9.63-18.26,19.44-36.63,33.68-51.79l-4.18-1.1c2.08,4.95-.93,10.29-2.71,14.92l-6,15.69-12.07,31.39c-1.06,2.76,3.09,4.17,4.57,1.93q8.7-13.2,17.93-26c1.24-1.72,3.52-6.33,4.61-2.47.56,2-.42,5.37-.59,7.41l-1.39,16.5c-.14,1.71,1.71,2.73,3.16,2.41a19,19,0,0,0,12.78-9.41c1.6-2.8-2.72-5.32-4.32-2.52a14,14,0,0,1-9.8,7.11l3.16,2.41c.67-8,2.34-16.54,2-24.53-.16-3.69-2.17-8-6.62-6.93-4.92,1.18-8.57,9.19-11.23,13q-7.19,10.17-14,20.58l4.57,1.93,13.49-35.08c2.13-5.54,4.33-11.05,6.39-16.62,1.59-4.28,2.78-8.58.93-13-.68-1.62-2.75-2.62-4.18-1.1-14.53,15.48-24.62,34.16-34.46,52.8l4.57,1.93,10.75-30.92c1.69-4.85,3.44-9.68,5.06-14.55,1.27-3.84,2.17-7.58.55-11.44a2.56,2.56,0,0,0-3.67-1.49c-4.4,1.89-7.4,5.41-10,9.34-3.71,5.65-7,11.59-10.43,17.44q-10.74,18.46-20.6,37.41l4.57,1.93,15.9-58.16a2.53,2.53,0,0,0-3.67-2.82c-7.77,4.17-11.23,14.42-15.18,21.76l-16.5,30.65,4.57,1.93,7.89-29.5c2.08-7.79,6.49-17.31,3.7-25.36-.68-1.95-3.46-2.57-4.57-.6a137.35,137.35,0,0,1-25.21,32.51l4.18,2.43a194.11,194.11,0,0,1,9.28-32.65c1.15-3-3.68-4.31-4.82-1.33Z"/><path class="cls-1" d="M482.88,521.41q.73,13.25,2.22,26.43a2.56,2.56,0,0,0,3.16,2.41c5.58-1,6.72-9.63,8.27-14l8.23-23.18H500c2.71,7.41.12,17-.68,24.6l-2.63,25.28c-.26,2.52,3.53,3.33,4.66,1.26,9-16.47,8.3-37,19.93-52.11l-4.57-.6c3.62,16-3.69,32.1-.41,48.22.49,2.42,4.28,2.35,4.82,0a341.4,341.4,0,0,1,11.23-39c.46-1.27.82-4.44,2.24-4.66q1.19-1.16.59.8l-.19,1.94c-.3,3.24-.69,6.48-1.09,9.71-.93,7.54-2.09,15-3.4,22.52-.55,3.13,4.18,4.51,4.82,1.33,1.28-6.34,2.74-12.63,4.47-18.87,1.41-5.08,2.46-12.77,7.44-15.64l-3.76-2.16.91,27.09c.09,2.76,4.17,3.46,4.91.66l4.46-16.9c.28-1.07,1.31-8.6,3.72-7.49,1,.45.43,7.24.41,8-.22,10.7-1.78,21.38,1.81,31.73.63,1.82,3.6,2.71,4.57.6q4.15-9.07,8.34-18.11l-3.93.51.94,2.37c-.5,3.15,4.32,4.5,4.82,1.33a7.42,7.42,0,0,0-2.23-7.24c-1.06-1-3.23-1-3.93.51q-4.19,9-8.34,18.11l4.57.6c-2.93-8.46-2.21-17.09-1.8-25.87.23-4.92,1.82-13.58-2.5-17.29-3.44-3-7.32-.5-9,3s-2.31,7.87-3.31,11.68l-3.47,13.15,4.91.66-.91-27.09a2.53,2.53,0,0,0-3.76-2.16c-4.89,2.81-6.57,7.91-8.12,13-2.44,8-4.42,16.21-6.08,24.45l4.82,1.33q2.59-14.76,4.26-29.67c.43-3.92,2.16-14.61-5.39-12.8-2.57.62-4.08,3-5.1,5.26a126.81,126.81,0,0,0-4.65,13.39c-3.16,9.81-5.85,19.76-8.14,29.81h4.82c-3.27-16.07,4.06-32.1.41-48.22-.53-2.33-3.37-2.16-4.57-.6C505.22,524.8,506,545.18,497,561.67l4.66,1.26,2.83-27.23c.8-7.69,3-16.5.3-24a2.52,2.52,0,0,0-4.82,0l-6,16.94-2.85,8c-.73,2.05-1.78,8.33-4.15,8.73l3.16,2.41q-1.5-13.18-2.22-26.43c-.18-3.2-5.18-3.22-5,0Z"/><path class="cls-1" d="M460.43,390.84l-7.76,28.34a2.52,2.52,0,0,0,4.18,2.43l16.46-16c4.62-4.49,10.57-12.81,17.46-13.27l-2.41-3.16-18,44.86c-1.14,2.83,3,4,4.57,1.93l21.21-28.83-3.93.51c1.43,1.84-.88,6.57-1.47,8.51L488,425.29l-5.29,17.33c-.95,3.1,3.78,4.34,4.82,1.33a221,221,0,0,1,11.71-27.73c3.93-7.74,8-17.2,15.37-22.3l-3.42-.9c2.12,3.44-.88,8.69-2,12.07l-3.5,10.3-7.31,21.54c-.92,2.7,3.19,4.37,4.57,1.93l11.49-20.28c3.31-5.83,6.34-13.65,12.07-17.55l-3.42-.9c3,3.92-1.26,12.08-2.58,16.28l-5.16,16.38c-.88,2.79,3.08,4.24,4.57,1.93l12.81-19.87-4.57-.6a53.84,53.84,0,0,1,2.63,18.14,2.52,2.52,0,0,0,3.16,2.41l5.63-2.11-3.08-1.75a32.56,32.56,0,0,1-.27,11.85c-.53,2.59,3.31,4.66,4.57,1.93l5.92-12.79c1.34-2.9-3-5.44-4.32-2.52l-5.92,12.79,4.57,1.93a39.76,39.76,0,0,0,.27-14.51,2.51,2.51,0,0,0-3.08-1.75L532.58,430l3.16,2.41a58,58,0,0,0-2.81-19.47,2.53,2.53,0,0,0-4.57-.6l-12.81,19.87,4.57,1.93L527,412.27c1.5-4.75,3.76-10.23.36-14.67a2.55,2.55,0,0,0-3.42-.9c-5.72,3.9-8.62,10.1-11.95,16L498.6,436.33l4.57,1.93,9.22-27.16c2-6,6.91-14.44,3.12-20.61a2.52,2.52,0,0,0-3.42-.9C504.33,395,500,403.86,495.76,412a230,230,0,0,0-13.06,30.58l4.82,1.33,7.23-23.71c1.61-5.27,4.82-11.22,1-16.11-1.09-1.4-3.09-.63-3.93.51l-21.21,28.83,4.57,1.93,18-44.86a2.51,2.51,0,0,0-2.41-3.16c-7.21.48-11.81,5.81-16.7,10.56l-20.75,20.16,4.18,2.43,7.76-28.34c.85-3.11-4-4.43-4.82-1.33Z"/><path class="cls-1" d="M765.35,214c5.68-21.12,27.09-32.6,47.39-35.8,24.16-3.81,53.12,2.76,65.78,25.63,6.41,11.58,5.66,25,3.36,37.59-2.38,13.07-9.12,21.8-20.71,28.1C851,275,839,280,827.69,282.11c-13.59,2.5-25.3-3.41-36.19-10.91-10.4-7.17-22.63-15.22-28-27.13-6.87-15.25,1.47-31.75,8.56-45.24,1.5-2.85-2.82-5.38-4.32-2.52-6.59,12.55-13.58,26.55-11.34,41.15,2,13.24,12,22.74,22.14,30.49,10.82,8.24,22.74,17.39,36.56,19.42s28-4.24,40.55-9.67c11.3-4.9,22.6-11.72,27.73-23.47,2.87-6.56,3.9-13.86,4.66-20.93.78-7.23.83-14.66-1-21.73-7.35-27.69-37.12-39.95-63.44-39.28-25.9.65-55.74,13.26-63,40.4-.84,3.11,4,4.44,4.82,1.33Z"/><path class="cls-1" d="M670.51,154.33a451.36,451.36,0,0,1,77.68,30.15c2.87,1.43,5.41-2.88,2.52-4.32a458.52,458.52,0,0,0-78.88-30.65c-3.1-.88-4.42,3.94-1.33,4.82Z"/><path class="cls-1" d="M772.48,153.87a142.2,142.2,0,0,1-41-28.8c-2.27-2.29-5.8,1.25-3.54,3.54a146.06,146.06,0,0,0,42,29.58c2.9,1.35,5.44-3,2.52-4.32Z"/><path class="cls-1" d="M819.87,150.29a118.75,118.75,0,0,0-16-34c-1.81-2.64-6.14-.14-4.32,2.52A114.44,114.44,0,0,1,815,151.62c.9,3.08,5.72,1.77,4.82-1.33Z"/><path class="cls-1" d="M849.43,147.89a97.3,97.3,0,0,1,28.93-43.42c2.44-2.11-1.11-5.64-3.54-3.54a102.22,102.22,0,0,0-30.22,45.63c-1,3.07,3.82,4.38,4.82,1.33Z"/><path class="cls-1" d="M880.33,165a112.76,112.76,0,0,1,41.85-19.71c3.13-.75,1.8-5.57-1.33-4.82a116.24,116.24,0,0,0-43,20.21c-2.54,1.91-.05,6.25,2.52,4.32Z"/><path class="cls-1" d="M908,210.44a281.56,281.56,0,0,1,96.38-17.27c3.22,0,3.22-5,0-5a285.7,285.7,0,0,0-97.71,17.45c-3,1.1-1.7,5.93,1.33,4.82Z"/><path class="cls-1" d="M920.5,224.44a105.18,105.18,0,0,1,47.3.24c3.13.73,4.47-4.09,1.33-4.82a111.09,111.09,0,0,0-50-.24c-3.14.7-1.81,5.53,1.33,4.82Z"/><path class="cls-1" d="M911.57,241.8a145,145,0,0,1,52.52,25c2.57,1.93,5.07-2.4,2.52-4.32A148.52,148.52,0,0,0,912.9,237c-3.12-.77-4.46,4-1.33,4.82Z"/><path class="cls-1" d="M902.76,258.09a241.9,241.9,0,0,1,54.35,41.37c2.26,2.29,5.8-1.24,3.54-3.54a246.71,246.71,0,0,0-55.36-42.16c-2.81-1.57-5.34,2.75-2.52,4.32Z"/><path class="cls-1" d="M872.08,276.82a384.75,384.75,0,0,1,35.67,50.53c1.64,2.77,6,.25,4.32-2.52a392.72,392.72,0,0,0-36.45-51.54c-2.06-2.47-5.58,1.08-3.54,3.54Z"/><path class="cls-1" d="M848.56,296.71l3.37,17.14c.62,3.15,5.44,1.82,4.82-1.33l-3.37-17.14c-.62-3.15-5.44-1.82-4.82,1.33Z"/><path class="cls-1" d="M819.92,302.22a56.23,56.23,0,0,0-15.15,24.28c-1,3.08,3.86,4.39,4.82,1.33a51.06,51.06,0,0,1,13.86-22.08c2.34-2.21-1.2-5.74-3.54-3.54Z"/><path class="cls-1" d="M775.11,295.66A125.15,125.15,0,0,0,738.69,330c-1.86,2.63,2.47,5.13,4.32,2.52A119,119,0,0,1,777.63,300c2.73-1.69.22-6-2.52-4.32Z"/><path class="cls-1" d="M750.48,265a136,136,0,0,1-50.34,18.9c-2,.32-2.24,2.92-1.1,4.18l1.8,2c2.16,2.39,5.69-1.15,3.54-3.54l-1.8-2-1.1,4.18A139.61,139.61,0,0,0,753,269.3c2.72-1.7.22-6-2.52-4.32Z"/><path class="cls-1" d="M740.3,225.93a251.93,251.93,0,0,1-52.51-8.81c-3.1-.86-4.43,4-1.33,4.82a258.44,258.44,0,0,0,53.84,9c3.21.19,3.2-4.81,0-5Z"/><path class="cls-1" d="M1016.66,568.23c7.42-11.81,23.54-6.9,33.42-1.48,4.64,2.54,9.91,6.22,11.76,11.44,2.27,6.4-1.86,12.12-7.38,15.08-9.5,5.09-21.86,2.73-30.1-3.72-4.73-3.7-10.39-10.39-8.05-16.82,2.45-6.72,10.87-8,17-9.09,3.16-.55,1.82-5.37-1.33-4.82-6.3,1.09-12.93,2.51-17.46,7.39-4.13,4.45-4.65,10.4-2.37,15.87,4.42,10.56,15.85,17.36,26.88,18.67,10.58,1.25,24.49-3,27.84-14.41,3.47-11.77-7.51-20.71-16.87-25.21-12.24-5.89-29.21-8.87-37.67,4.6-1.72,2.73,2.61,5.24,4.32,2.52Z"/><path class="cls-1" d="M1034.5,600.1a349.58,349.58,0,0,1,.73,37c-.11,3.2-.24,6.17-1.8,9-1.44,2.64-3.41,5.11-5.09,7.6l-10.56,15.73c-1.67,2.48,1.89,4.79,3.93,3l1.89-1.63c2.44-2.1-1.11-5.63-3.54-3.54l-1.89,1.63,3.93,3,11.62-17.3c3.07-4.57,6-8.35,6.36-14,1-13.46.38-27.2-.58-40.64-.23-3.19-5.23-3.22-5,0Z"/><path class="cls-1" d="M1035.75,642.37l16.09,19.05,7.43,8.79c1.84,2.18,3.58,5.27,6.59,5.82a2.52,2.52,0,0,0,2.43-.64l.44-.54c2-2.46-1.48-6-3.54-3.54l-.44.54,2.43-.64c-2.41-.44-6-6.4-7.48-8.19L1052.9,655l-13.61-16.12c-2.08-2.46-5.6,1.09-3.54,3.54Z"/><path class="cls-1" d="M1002.28,592.79a214.15,214.15,0,0,0,23.26,14.75c5.8,3.15,10.93,7.13,17.35,3.92,14.55-7.28,27.87-18.43,39.19-30,2.26-2.3-1.28-5.84-3.54-3.54a166.66,166.66,0,0,1-33.64,26.58c-4.36,2.6-7.22,3.68-12,1.26q-4.91-2.51-9.68-5.27a216.74,216.74,0,0,1-18.46-12c-2.61-1.89-5.11,2.45-2.52,4.32Z"/><path class="cls-1" d="M917.45,527.9c5.44-3.45,10.63-7.15,17.38-6.78a21.52,21.52,0,0,1,14.63,6.95c8,8.93,4.89,23.78-5.11,29.89-6.21,3.8-14.06,3.29-20.71,1.07-6.24-2.08-14.2-6.15-16-13-3.55-13.49,11.61-28,24.71-24.82,3.13.75,4.46-4.07,1.33-4.82-12.27-3-24.34,5-29.2,16.15-2.48,5.7-3.31,12.67-.27,18.34,3.15,5.88,9.46,9.59,15.44,12,12.3,5,27.14,3.68,35-8.07,6.3-9.45,6-22.4-2-30.73a26.69,26.69,0,0,0-17.1-7.89c-8-.58-14.07,3.32-20.54,7.42-2.71,1.72-.21,6,2.52,4.32Z"/><path class="cls-1" d="M930.28,564.14l6.15,59.5c.46,4.45,1.13,8.93,1.37,13.39.29,5.41-2.68,9.16-5.38,13.58l-6.9,11.29c-1.67,2.74-4.05,5.23-3.46,8.56a2.42,2.42,0,0,0,1.75,1.75,3.3,3.3,0,0,0,3.36-.93,2.57,2.57,0,0,0,.39-3l-.17-.36c-1.39-2.9-5.71-.37-4.32,2.52l.17.36.39-3-.41.38,2.43-.64-.52-.09,1.75,1.75c-.08-.43,2.47-3.91,3-4.71l3.94-6.45c2.23-3.65,4.66-7.25,6.71-11,4-7.28,1.75-15.46.94-23.33l-6.15-59.5c-.33-3.17-5.33-3.2-5,0Z"/><path class="cls-1" d="M937.7,640.41,972,688.94c1.84,2.61,6.18.11,4.32-2.52L942,637.89c-1.84-2.61-6.18-.11-4.32,2.52Z"/><path class="cls-1" d="M932.86,570.76c-11.77-.64-21.92-7.2-31.8-13q-15.22-9-30.1-18.49c-2.72-1.74-5.23,2.59-2.52,4.32Q885,554.12,901.92,564c9.68,5.66,19.51,11.09,30.94,11.72,3.22.18,3.21-4.82,0-5Z"/><path class="cls-1" d="M936,575.12a477.82,477.82,0,0,0,71.25-49.63c2.47-2.07-1.09-5.59-3.54-3.54a470.76,470.76,0,0,1-70.24,48.85c-2.8,1.59-.28,5.91,2.52,4.32Z"/><path class="cls-1" d="M778.9,505.82c13.88-8.84,33.15-9.8,44.52,3.73,11.18,13.29,4.84,34.61-13,37.09-14.84,2.06-33.87-7.15-38.89-21.87-6.19-18.14,15-34.84,31.8-29.29,3.06,1,4.37-3.81,1.33-4.82-15.28-5.05-32.48,4.63-37.78,19.5-5.56,15.59,6.13,30.12,19.5,36.79,12.78,6.38,30.83,8,41.14-3.79,9.64-11,8.3-27.81-1.45-38.19-13.17-14-34.27-13.26-49.65-3.46-2.71,1.72-.2,6.05,2.52,4.32Z"/><path class="cls-1" d="M801.55,550c-1.5,18.75-2.88,37.51-4.51,56.24-.74,8.49-1.78,17.23-5.59,25s-10.08,13.92-16.15,19.93l4.18,2.43,2.06-2.87c3-1.14,1.68-6-1.33-4.82s-5,3.11-5.55,6.36c-.42,2.35,2.29,4.31,4.18,2.43,6-5.93,12.11-12,16.17-19.48s5.61-15.62,6.54-23.87c2.29-20.35,3.37-40.91,5-61.32.26-3.21-4.74-3.19-5,0Z"/><path class="cls-1" d="M801.27,620.81l1.29-3.5-4.57.6,23.13,50.23a2.51,2.51,0,0,0,2.82,1.15,6.92,6.92,0,0,0,3.63-2.32c2-2.46-1.47-6-3.54-3.54l-1.42,1,2.82,1.15-23.13-50.23c-1-2.14-3.9-1.21-4.57.6l-1.29,3.5c-1.11,3,3.72,4.33,4.82,1.33Z"/><path class="cls-1" d="M800.57,559.92a160.34,160.34,0,0,1-33.07-26.33,156,156,0,0,1-13.42-16c-3.82-5.24-7.24-10.51-12.65-14.27-2.65-1.84-5.15,2.49-2.52,4.32,6,4.18,9.62,11,14,16.7a161.55,161.55,0,0,0,13.33,15.13A166.45,166.45,0,0,0,798,564.23c2.76,1.67,5.28-2.66,2.52-4.32Z"/><path class="cls-1" d="M804.67,562.64a415.91,415.91,0,0,0,69.2-59.5c2.19-2.35-1.34-5.9-3.54-3.54a410,410,0,0,1-68.19,58.72c-2.64,1.81-.14,6.14,2.52,4.32Z"/><path class="cls-1" d="M683.52,654.74c2.67-5.94,2.67-12.22-.91-17.85a17.47,17.47,0,0,0-6.76-6.12,15.88,15.88,0,0,0-4.75-1.52l-2-.27q-2.7-.83,1.49,3.5a7.87,7.87,0,0,1,.84-1.31c1-.43,1.8-1.07,2.81-1.44,2.86-1,5.9-.93,8.88-.73,7.46.5,14.73,1.67,21.91-1.17,4-1.6,6-4.85,5.24-9.23a32.16,32.16,0,0,1-.39-8.17c.09-1.18,1-4.22.78-4.69a1.66,1.66,0,0,1-1.71-.44q-2-1.22-1.28-.21s-.1.75-.28.9c-1.66,1.35-3,2.86-4.78,4.12l11,8.47c.71-2.07,2.85-2.94,4.8-3.52a15.32,15.32,0,0,1,3.73-.61,25.52,25.52,0,0,1,2.56,0q2.12.24-2-2.17v-4c-.71,3.73-10,4.42-13,4.44l7.23,9.49c.33-1.95.72-2.92,2.65-3.44l-8.47-11a8.88,8.88,0,0,1-3.45,2.72l11,4.48c-.16-1,.83-2.07,1.33-2.75l-13-7.57.83-1h4l2.67,3.36-1,3.79-1.2,1.41-3.79,1-4.33-3.58v-4l3.1-2.71h4l-1.17-.17,5.24,9.23-.59.4-10.26-2.69,2.5-5.54h4l2,2.36v4l-2,2.35h-4l-2.19-1.61-1-3.79c0,.06,1-.8.11-.26l11,8.47-4.85.92c2.32,5.39,10.34,4.37,13,0l-5.16,1.46v-13a17.18,17.18,0,0,1-3.73,2.27l9.23,9.23-1.4,1.55-5.78.76-4-3.87v-4l-.16.55,5.24-5.24-.54.16,7.3,12.54q.07-.2-.07,0l-3.31-12.54c-2,2.52-6.13,2.64-9,4.06a19.55,19.55,0,0,0-8.54,8.41c-4.49,8.44-2.42,17.93.3,26.55,2.46,7.79,15.08,6.78,14.73-2a85.21,85.21,0,0,0-2.93-19.17c-2.09-7.62-12-6.6-14.46,0a24.63,24.63,0,0,0-1.44,7.49l14.73-2c-4.06-11.08-17.16-9.76-26.15-5.8-4.93,2.17-9.31,6.27-10.52,11.71a13.15,13.15,0,0,0-.26,4.73c.58,3.2,4-2.26,1.41-1.62a9.8,9.8,0,0,0-5.81,5c-3.74,7.42,5.49,15.29,11.78,9.09a33,33,0,0,0,9.82-22c.42-6.46-8.52-9.93-12.8-5.3l-7.93,8.57h10.61q-.16.46.13.65l-8.47,3.45-1.57-4.2h13l-3.53-4.85v7.57l-1.32,1.32-5.78.76,1,.18-5.24-9.23q9.25.22,5.28,2.81-.59,1.16-1.4.48l-1.93-7.3q.56-1.83,2.6-.93l1.52,11.78a12,12,0,0,1,11.43-2.63l-3.31-12.54a1.73,1.73,0,0,1-1.76,1.13l7.3,12.54c2.19-2.42,5.83-2.07,8.84-3,4-1.2,8.66-2.71,10.86-6.52,5-8.73-5.92-16.28-13-10.11-7.3,6.34,3.34,16.91,10.61,10.61l.47-.41-7.3,1.93.72.24-4.48-3.45.34.68v-7.57q2.31-1.85-.48-.42-1.69.6-3.43,1c-1.59.4-3.27.49-4.84.91a18.29,18.29,0,0,0-8.89,5.45c-5,5.52-.15,14.37,7.3,12.54a16,16,0,0,0,8.38-5c3.64-4.1,2.42-11-3.31-12.54a27.72,27.72,0,0,0-26,6.48c-3.33,3-2.8,9.84,1.52,11.78,8.12,3.65,16.35.41,19.43-8a7.25,7.25,0,0,0-1.93-7.3c-4.73-3.76-10.71-5.59-16.42-2.62a12.83,12.83,0,0,0-6.57,13.31c1.92,12.3,21.18,13.55,23,.61.51-3.71-.85-8.44-5.24-9.23s-8.69.29-10.83,4.64c-1.11,2.26-1.62,5.35,0,7.57l3.53,4.85c2.93,4,10.42,5.66,13,0,3.35-7.49.48-15-7.4-17.83-3-1.07-7,.69-8.47,3.45a14.6,14.6,0,0,0,2.21,17.53,7.57,7.57,0,0,0,10.61,0l7.93-8.57-12.8-5.3a17.21,17.21,0,0,1-5.43,11.4l11.78,9.09q-2.31,1.68-.31.67a11.57,11.57,0,0,0,1.88-.9,9.87,9.87,0,0,0,4.81-7.29c.23-1.24-.34-3,0-4.08.65-2.05,2.35-2.44,4.51-3a18.8,18.8,0,0,0,3.22-.73c2.12-1,1.52,2.4-.2-2.3,2.89,7.89,14.24,6.71,14.73-2a11.29,11.29,0,0,1,.9-3.5H700.69a66.85,66.85,0,0,1,2.4,15.18l14.73-2c-1.43-4.54-4.87-12.85-.55-16.9,1.61-1.51,4.54-1.81,6.54-2.58a16.75,16.75,0,0,0,7.36-4.95c3.31-4.08,2.69-11.18-3.31-12.54a15.29,15.29,0,0,0-14.53,3.86c-5.54,5.1.24,14.61,7.3,12.54A8.55,8.55,0,0,0,724,606.51c-6-5.6-13.3-.33-15.24,6.1-1.54,5.08,3.83,11.34,9.23,9.23a31.37,31.37,0,0,0,7.31-3.78c4.53-3.3,5.1-9.76,0-13A11,11,0,0,0,710,609h13c-4.59-10.67-20.25-8.27-22.57,2.67-1.3,6.11,5.16,12.11,11,8.47,5.57-3.46,9.91-11,5.88-17.31-4.4-6.88-14.91-5.73-18.14,1.63-3.34,7.6,3.92,15.84,11.86,14.15,7.3-1.55,10.59-10.36,6.47-16.49-2.08-3.09-6.83-5.22-10.26-2.69-3.2,2.36-5.17,4.69-6.3,8.57-1,3.52,1.26,8.66,5.24,9.23,6.81,1,14.56-3.56,12.54-11.58-1.56-6.2-9.31-9.54-14.79-6-6.11,3.95-5.6,13,.16,16.93s12.4.79,16-4.33c2.34-3.35.58-8.3-2.69-10.26-3.79-2.27-7.86-.55-10.26,2.69-3.2,4.31-3.66,9.16-2.84,14.31s7.17,6.52,11,4.48a25,25,0,0,0,8.83-8.1c3.92-5.55-2.54-12.59-8.47-11a17.61,17.61,0,0,0-13.13,13.91c-.78,4.7,2,9.53,7.23,9.49,7.8,0,17-2.08,22.92-7.62,5.55-5.24,6.93-14.86-.7-19-5.42-2.95-13.72-2-19.28,0a21.26,21.26,0,0,0-13.47,13.41c-2.07,6,5.7,12.14,11,8.47,5.8-4,11.86-8.94,12.44-16.51.49-6.34-3.09-13.25-9.5-15.1-17.88-5.16-19.27,20.17-17.32,31.15l5.24-9.23c-7.27,2.88-14.7.2-22.23.52-6.81.29-14,2.35-18.71,7.53-4.94,5.42-6.64,14.56-.24,19.62,2.81,2.22,5.85,1.47,8.73,2.89.94.47,2.57,1.91,2,3.23-1.67,3.72-1,8,2.69,10.26,3.19,1.91,8.6,1,10.26-2.69Z"/><path class="cls-1" d="M385.5,621.7Q382.77,560.84,374,500.48l-2.41,3.16a229.69,229.69,0,0,0,82.11-4.78l-3.16-2.41A367.11,367.11,0,0,0,460.19,614c.77,3.12,5.6,1.8,4.82-1.33a362.74,362.74,0,0,1-9.45-116.22A2.52,2.52,0,0,0,452.4,494a225.81,225.81,0,0,1-80.78,4.6c-1.8-.22-2.61,1.77-2.41,3.16q8.61,59.63,11.29,119.89c.14,3.2,5.14,3.22,5,0Z"/><path class="cls-1" d="M594.4,264.37a69.29,69.29,0,0,1,24.33,22.35,2.53,2.53,0,0,0,4.32,0c8-13.1,16.24-26.19,28.19-36.12,2.48-2.06-1.08-5.58-3.54-3.54-12.25,10.18-20.73,23.69-29,37.13H623a74.7,74.7,0,0,0-26.12-24.14c-2.82-1.56-5.34,2.76-2.52,4.32Z"/><path class="cls-1" d="M641.69,334.42a69.12,69.12,0,0,1,20.36,19.24,2.54,2.54,0,0,0,4.32,0,76.77,76.77,0,0,1,33.34-27.53c2.94-1.28.4-5.59-2.52-4.32a81.31,81.31,0,0,0-35.13,29.33h4.32a75.31,75.31,0,0,0-22.15-21c-2.74-1.7-5.25,2.62-2.52,4.32Z"/><path class="cls-1" d="M733,358.6a41.24,41.24,0,0,1,19.42,11.23c3.27,3.33,8.82,10.68,14.4,9.64,2.56-.48,4-3.1,5.52-4.93q3.62-4.4,7.53-8.55a177.63,177.63,0,0,1,17.36-16.06c2.5-2-1.06-5.55-3.54-3.54a178.49,178.49,0,0,0-15.54,14.15q-3.36,3.46-6.52,7.1c-2,2.31-4.36,7-7.69,6-2.61-.86-5.09-4.27-6.92-6.19a54,54,0,0,0-6.28-5.78,45.89,45.89,0,0,0-16.41-7.85c-3.12-.81-4.45,4-1.33,4.82Z"/><path class="cls-1" d="M527.68,177.49c9.77,1,16.4,9.49,21.9,16.81a2.54,2.54,0,0,0,3.93.51c11-11.41,24.21-22.17,41-20.45,3.2.33,3.18-4.68,0-5-18.09-1.85-32.75,9.62-44.57,21.91l3.93.51c-6.75-9-14.35-18-26.21-19.29-3.2-.33-3.17,4.67,0,5Z"/><path class="cls-1" d="M420.66,208.66A47.5,47.5,0,0,1,461,226.86c1.09,1.39,3.09.64,3.93-.51a43.16,43.16,0,0,1,40.3-17.15c3.18.4,3.16-4.6,0-5a48.05,48.05,0,0,0-44.61,19.62l3.93-.51a52.13,52.13,0,0,0-43.9-19.66c-3.2.19-3.22,5.19,0,5Z"/></g></svg>