<svg xmlns="http://www.w3.org/2000/svg" viewBox="0 0 1220.61 790.38"><defs><style>.cls-1{fill:#fff;}.cls-2{fill:#80c8e5;}.cls-3,.cls-4,.cls-5{fill:none;stroke:#fff;stroke-width:5px;}.cls-3{stroke-miterlimit:10;}.cls-4{stroke-linecap:round;}.cls-4,.cls-5{stroke-linejoin:round;}</style></defs><title>dibujo2</title><g id="Capa_2" data-name="Capa 2"><rect class="cls-1" y="1.17" width="1220.61" height="788.04" rx="135.94" ry="135.94"/><rect class="cls-2" width="1220.61" height="790.38" rx="78.94" ry="78.94"/><circle class="cls-3" cx="275.71" cy="275.4" r="100"/><circle class="cls-3" cx="601.71" cy="275.4" r="100"/><circle class="cls-3" cx="935.71" cy="275.4" r="100"/><path class="cls-4" d="M526.71,275.4s25,20,80,20,73-20,73-20,2,77-76.5,77S526.71,275.4,526.71,275.4Z"/><ellipse class="cls-5" cx="565.05" cy="244.73" rx="10" ry="26.67"/><ellipse class="cls-5" cx="634.71" cy="244.73" rx="10" ry="26.67"/><path class="cls-5" d="M910.88,244.73c0,14.73-4.48,26.67-10,26.67s-10-11.94-10-26.67a56.6,56.6,0,0,1,2.75-18.36"/><path class="cls-5" d="M978.16,227.44a58.38,58.38,0,0,1,2.39,17.29c0,14.73-4.48,26.67-10,26.67-5.21,0-9.48-10.61-10-24.17"/><ellipse class="cls-5" cx="240.88" cy="244.73" rx="10" ry="26.67"/><ellipse class="cls-5" cx="310.55" cy="244.73" rx="10" ry="26.67"/><path class="cls-4" d="M230.88,337.4s8.83-23.5,44.83-23.5,44.83,19.5,44.83,19.5"/><path class="cls-4" d="M320.55,638.36s-8.83,23.5-44.83,23.5-44.83-19.5-44.83-19.5"/><line class="cls-4" x1="881.05" y1="215.4" x2="923.05" y2="257.4"/><line class="cls-4" x1="949.55" y1="257.4" x2="991.55" y2="215.4"/><line class="cls-5" x1="919.71" y1="318.73" x2="960.59" y2="318.73"/><circle class="cls-3" cx="275.71" cy="599.86" r="100"/><circle class="cls-3" cx="601.71" cy="599.86" r="100"/><circle class="cls-3" cx="935.71" cy="599.86" r="100"/><path class="cls-4" d="M526.71,599.86s25,20,80,20,73-20,73-20,2,77-76.5,77S526.71,599.86,526.71,599.86Z"/><ellipse class="cls-5" cx="565.05" cy="569.19" rx="10" ry="26.67"/><ellipse class="cls-5" cx="634.71" cy="569.19" rx="10" ry="26.67"/><ellipse class="cls-5" cx="900.88" cy="595.86" rx="10" ry="26.67"/><ellipse class="cls-5" cx="970.55" cy="595.86" rx="10" ry="26.67"/><ellipse class="cls-5" cx="240.88" cy="579.06" rx="10" ry="26.67"/><ellipse class="cls-5" cx="310.55" cy="579.06" rx="10" ry="26.67"/><line class="cls-4" x1="230.88" y1="536.57" x2="250.88" y2="536.57"/><line class="cls-4" x1="300.55" y1="536.57" x2="320.55" y2="536.57"/><path class="cls-4" d="M864.71,562.9s4-11,11.5-11,6.83,11.83,18.33,11.83S906,551.9,906,551.9"/><path class="cls-4" d="M958.88,552.57s4-11,11.5-11,6.83,11.83,18.33,11.83,11.5-11.83,11.5-11.83"/><line class="cls-4" x1="913.71" y1="664.73" x2="942.38" y2="664.73"/><path class="cls-1" d="M175.95,92.47A159.76,159.76,0,0,1,177.37,137c-.34,3.2,4.66,3.17,5,0a164.45,164.45,0,0,0-1.6-45.82c-.55-3.16-5.37-1.82-4.82,1.33Z"/><path class="cls-1" d="M188.84,108c-1.16,7-2.29,14.89,1.75,21.25a16.49,16.49,0,0,0,14.47,7.22c12.44-.5,18.63-15.16,11.93-25.1-1.79-2.65-6.12-.15-4.32,2.52,4.88,7.24.56,17.91-8.8,17.58-11.93-.42-11.64-13.45-10.2-22.15.52-3.15-4.3-4.5-4.82-1.33Z"/><path class="cls-1" d="M220.46,111.06a62.66,62.66,0,0,1,6.6,20.22c.42,2.81,5,2.1,4.91-.66-.12-6.75,4.25-21.31,13.59-19.76,9.54,1.58,8.84,14.44,8.32,21.45-.24,3.21,4.76,3.19,5,0,.75-10-.52-25.86-13.95-26.55C233,105.16,226.8,121,227,130.62l4.91-.66a66.57,66.57,0,0,0-7.11-21.41c-1.51-2.85-5.82-.32-4.32,2.52Z"/><path class="cls-1" d="M280.74,120.2c7.77-.55,15.43-8.32,10-16.09-5.61-8.07-15.34-1.49-18.59,5.11-3.69,7.48-4.19,18.25,3,23.88,5.92,4.63,15,3.93,19.17-2.57,1.73-2.72-2.59-5.23-4.32-2.52-2.23,3.5-6.94,3.84-10.42,2-4-2.08-5.35-6.75-5.08-11,.28-4.5,2.23-9.94,6.13-12.56,3-2,7.07-.54,6.79,3.42-.25,3.48-3.72,5.06-6.72,5.28-3.19.23-3.22,5.23,0,5Z"/><path class="cls-1" d="M298.27,124a27.2,27.2,0,0,0,17,8.22c5.11.48,12.8-.23,15.69-5.17,3.14-5.38-1.63-10.4-5.62-13.53-3.41-2.67-6.9-5.23-10.32-7.87-2-1.58-6.27-5.61-1.28-6.61,1.62-.33,3.71.56,5.22,1.1,3,1.08,4.34-3.75,1.33-4.82-3.94-1.4-9.92-2.45-13.11,1.12-3.54,4-.55,8.77,2.79,11.57,2.71,2.27,5.62,4.31,8.43,6.46,2.65,2,13.68,9.39,4.8,12.13-7.62,2.35-16-.59-21.38-6.13-2.25-2.3-5.79,1.23-3.54,3.54Z"/><path class="cls-1" d="M506.49,109.71a26.45,26.45,0,0,1,13,18.69c.49,2.74,5.21,2.15,4.91-.66-.7-6.5-1.56-17.29,6.58-19.66,7.42-2.16,10,7.91,11.13,13.11a2.52,2.52,0,0,0,4.18,1.1c4.08-4.6,9.06-10.47,15.85-10,8.84.6,7.28,10.39,5.79,16.34-.78,3.12,4,4.45,4.82,1.33,2-7.76,2.93-18.13-6.1-21.73-9.66-3.86-18,3.88-23.9,10.53l4.18,1.1c-1.73-7.79-6-18.63-16-16.9-11.62,2-12.52,15.51-11.53,24.77l4.91-.66A31.31,31.31,0,0,0,509,105.39c-2.79-1.62-5.31,2.7-2.52,4.32Z"/><path class="cls-1" d="M587.62,110.53c4.74.67,12.28,1.73,13.17,7.55,1.15,7.53-9.87,5.55-11.83.38-3-8,8.63-4.12,11.65-2.5a43.83,43.83,0,0,1,12.15,9.92c2.12,2.43,5.65-1.12,3.54-3.54-5.79-6.62-15.64-15-25.17-13.9-8.89,1-9.38,10.92-3.63,16.17,5.18,4.73,15.55,5.37,18.09-2.53,3.35-10.44-8.76-15.27-16.63-16.38-3.15-.44-4.51,4.37-1.33,4.82Z"/><path class="cls-1" d="M622.61,115.47l8.24,14.86c1.15,2.07,4.9,1.26,4.66-1.26A21.1,21.1,0,0,1,648,107.58c2.92-1.33.39-5.64-2.52-4.32a25.86,25.86,0,0,0-14.93,25.81l4.66-1.26-8.24-14.86c-1.56-2.81-5.88-.3-4.32,2.52Z"/><path class="cls-1" d="M668.46,90.52,666.2,128c-.19,3.21,4.81,3.2,5,0l2.26-37.45c.19-3.21-4.81-3.2-5,0Z"/><path class="cls-1" d="M662.32,115.14a35.86,35.86,0,0,1,19.84,0c3.1.87,4.43-4,1.33-4.82a41,41,0,0,0-22.5,0c-3.09.87-1.78,5.7,1.33,4.82Z"/><path class="cls-1" d="M716.34,124.43c6.17-.91,7.27-9,2.62-12.55-6.41-4.84-14.35.53-19.08,5.15-5.08,5-9,13-3.38,19.11,6.06,6.62,16.86,7.18,24.8,4.35,3-1.07,1.71-5.91-1.33-4.82a21.28,21.28,0,0,1-12.51.9c-4.39-1.06-10-4-8.49-9.5,1-3.51,4-6.37,6.78-8.57a17.57,17.57,0,0,1,5-3.09,6,6,0,0,1,3.78-.21q4.54,2.73.43,4.41c-3.17.47-1.82,5.29,1.33,4.82Z"/><path class="cls-1" d="M743.33,142.19c8.89-1.27,14.53-7.63,10.53-16.57-2.06-4.62-6-7.67-8.9-11.67-2.19-3-3.66-6.61-1.15-10,2.89-3.88,7.68-3.06,10.57.26,2.11,2.43,5.64-1.12,3.54-3.54-6.56-7.56-19.54-4.35-20.42,6.16-.44,5.27,2.81,9.57,6.13,13.29,2.31,2.59,4.85,5,6,8.4,2.09,6-2.7,8.12-7.65,8.82-3.17.45-1.82,5.27,1.33,4.82Z"/><path class="cls-1" d="M828.85,113.11l8.94,25.46c.86,2.46,5.29,2.31,4.91-.66-1-7.93-.34-17.55,4.22-24.43,4.21-6.35,8,1.73,9.92,5.19a69.55,69.55,0,0,1,5.28,12.09,2.52,2.52,0,0,0,4.82,0c1.8-6.3,8-13.5,15.34-11.51,5.4,1.45,8.92,9.18,4.81,13.56-2.2,2.34,1.33,5.89,3.54,3.54,6.25-6.65,2.71-17.82-5.35-21.31-10.37-4.49-20.47,5-23.16,14.39h4.82a73.16,73.16,0,0,0-8.51-17.71c-2.43-3.61-5.71-7.53-10.57-5.62s-7,7.68-8.43,12.14a44.79,44.79,0,0,0-1.74,19.67l4.91-.66-8.94-25.46c-1.06-3-5.89-1.72-4.82,1.33Z"/><path class="cls-1" d="M904.2,122.58l2.45,10.63c.72,3.13,5.54,1.81,4.82-1.33L909,121.25c-.72-3.13-5.54-1.81-4.82,1.33Z"/><path class="cls-1" d="M906,102.77l1.5,1.5a2.5,2.5,0,1,0,3.54-3.54l-1.5-1.5a2.5,2.5,0,0,0-3.54,3.54Z"/><path class="cls-1" d="M926.93,122.7c4.45,2,9-3.08,6.63-7.44-2.82-5.18-10.11-2.65-12.9,1a12.21,12.21,0,0,0,.16,14.88,12.38,12.38,0,0,0,15.31,2.66c2.83-1.53.31-5.84-2.52-4.32-4,2.15-9.51.2-10.3-4.55a7.3,7.3,0,0,1,1.51-5.87,4.38,4.38,0,0,1,2.67-1.71c1.69-.19,1.14.63,2,1-2.92-1.28-5.47,3-2.52,4.32Z"/><path class="cls-1" d="M941.49,115.84a28.44,28.44,0,0,1,5.41,19.36l4.91-.66A11.21,11.21,0,0,1,961.74,122c3.18-.27,3.21-5.28,0-5A16.29,16.29,0,0,0,947,135.86c.44,3,4.7,2,4.91-.66a32.77,32.77,0,0,0-6.1-21.88c-1.86-2.59-6.2-.1-4.32,2.52Z"/><path class="cls-1" d="M993.21,136.82c-7.87-.89-16.5-4.82-18-13.48-1.3-7.66,7.3-16,13.92-9.18,2.25,2.3,5.79-1.23,3.54-3.54-7.88-8.06-21.13-2.16-22.53,8.4-1.82,13.73,11.24,21.47,23,22.8,3.19.36,3.17-4.64,0-5Z"/><path class="cls-1" d="M1013.63,126.34a5.07,5.07,0,0,1,6.76,3.85c.52,3.1-2.13,5.38-4.88,6.11-6.92,1.83-11-5.38-11.13-11.31-.05-3.21-5.05-3.22-5,0,.18,10.9,11,21.8,21.69,14.12a9.74,9.74,0,0,0,3.38-12.26c-2.19-4.44-7.36-7.27-12.15-5.33-2.94,1.19-1.66,6,1.33,4.82Z"/><path class="cls-1" d="M1040.27,107l-3.5,32.95c-.34,3.2,4.66,3.17,5,0l3.5-32.95c.34-3.2-4.66-3.17-5,0Z"/><path class="cls-1" d="M1069.73,130.41a3.67,3.67,0,0,0,3.6-4.36c-.28-2.63-2.31-4.42-4.59-5.51a14.36,14.36,0,0,0-14.88,2c-10.61,8.66,0,24.93,12.27,22.16,3.14-.71,1.81-5.53-1.33-4.82-6.08,1.38-13-5.92-9.34-11.75a9,9,0,0,1,6.25-3.76,8.81,8.81,0,0,1,3.65.18c.78.22,2.92,1.72,3.15,1.52l1.77-.73-.56,0c-3.2.17-3.22,5.18,0,5Z"/><path class="cls-1" d="M1097.82,147.47c6.72,1.48,17.44,1.28,17.27-8.24-.2-10.73-13.18-12.3-17.25-20.39l-.9,3.42a9.78,9.78,0,0,1,9,.45c2.84,1.51,5.37-2.8,2.52-4.32a15.22,15.22,0,0,0-14.05-.45c-1.29.56-1.44,2.33-.9,3.42,2.39,4.75,6.74,7.09,10.93,10,2.73,1.92,8.14,7,4.52,10.68-2.3,2.32-7.13,1.16-9.82.56-3.14-.69-4.48,4.13-1.33,4.82Z"/><path class="cls-1" d="M162.28,448.37a99.25,99.25,0,0,0,26.19-1.29c3.16-.57,1.82-5.39-1.33-4.82a94.3,94.3,0,0,1-24.86,1.11c-3.21-.27-3.19,4.73,0,5Z"/><path class="cls-1" d="M163.88,447.12a19.12,19.12,0,0,1,10.85,16.6,17,17,0,0,1-2.25,9.67c-2.25,3.68-8,7.75-12,4.18-2.41-2.12-6,1.4-3.54,3.54,9.17,8.08,20.56-2.45,22.41-11.94,2-10.44-3.21-21.8-12.92-26.37-2.89-1.36-5.44,2.95-2.52,4.32Z"/><path class="cls-1" d="M193.19,453.37c-.3,7.51,5.7,14.74,13.49,14.77s13.84-7.14,13.61-14.66c-.1-3.21-5.1-3.22-5,0,.14,4.77-3.49,9.69-8.61,9.66s-8.69-5-8.49-9.77c.13-3.22-4.87-3.21-5,0Z"/><path class="cls-1" d="M243.27,456c2.83.28,8.2-.28,9.61-3.31,1.22-2.64-1.23-5.84-3.73-6.43-6.43-1.5-12.88,4.66-14.39,10.43-3.66,14,15.9,20.28,23.62,9.7,1.9-2.6-2.44-5.1-4.32-2.52-3.1,4.25-10.7,4-13.65-.31-1.74-2.55-1.18-5.86.43-8.33a9.6,9.6,0,0,1,3.07-3c.61-.36,4.17-2,4.19-.5l1.24-2.16a8.73,8.73,0,0,1-6.06,1.43c-3.2-.32-3.18,4.69,0,5Z"/><path class="cls-1" d="M268.41,446.43c2.18,5.26,4.14,10.7,6.57,15.85,1.2,2.54,3.07,5,6.18,3.84,3.52-1.27,6.21-6.94,7.69-10.05a42.86,42.86,0,0,0,3.71-13c.42-3.18-4.59-3.15-5,0a36.21,36.21,0,0,1-2.2,8.59c-1,2.56-2.75,6.84-5,8.6q-1.13.58-.44,1-.56-1.2-1.06-2.43c-.61-1.44-1.19-2.88-1.79-4.32l-3.88-9.36c-1.21-2.93-6.05-1.65-4.82,1.33Z"/><path class="cls-1" d="M313.52,460.14l6.1-4.64a2.55,2.55,0,0,0,.51-3.93c-6.19-7.12-19.78-3.93-21.81,5.44-2.21,10.18,10.72,18.11,19.17,12.86,2.73-1.7.22-6-2.52-4.32-4.94,3.07-13.53-1.72-11.64-7.94,1.64-5.43,9.79-6.5,13.27-2.5l.51-3.93-6.1,4.64c-2.53,1.92,0,6.27,2.52,4.32Z"/><path class="cls-1" d="M348.54,476.69c6,.31,14.89-1,15.11-8.83.09-3.08-1.88-5.18-4.17-6.93-4.49-3.42-9.28-6.51-13.91-9.74v4.32a18.94,18.94,0,0,1,20.56-.78c2.79,1.62,5.31-2.7,2.52-4.32a24,24,0,0,0-25.61.78,2.54,2.54,0,0,0,0,4.32c3.88,2.72,8.21,5.21,11.82,8.27,3,2.53,5.55,5.67.49,7.55-2.11.78-4.63.49-6.82.37-3.22-.17-3.21,4.83,0,5Z"/><path class="cls-1" d="M498.27,446.21l11.2,17.64c2,3.15,4.57,9.88,8.69,11,3.56,1,6-2.09,7.54-4.8,3.56-6.3,6.42-13.13,9.6-19.62,1.41-2.88-2.9-5.42-4.32-2.52l-6.11,12.49c-1,2.08-2,4.18-3.05,6.24a23.25,23.25,0,0,1-1.09,2.08q-2.55,1.16-3.2-1.51c-3-2.81-5.28-8.31-7.47-11.76l-7.47-11.76c-1.72-2.71-6-.2-4.32,2.52Z"/><path class="cls-1" d="M549.75,456.49V473c0,3.22,5,3.22,5,0v-16.5c0-3.22-5-3.22-5,0Z"/><path class="cls-1" d="M549,441.76l1.5,1.5a2.5,2.5,0,1,0,3.54-3.54l-1.5-1.5a2.5,2.5,0,0,0-3.54,3.54Z"/><path class="cls-1" d="M582.25,463.61l7.07-3.78a2.51,2.51,0,0,0,1.15-2.82l-1.57-4a2.62,2.62,0,0,0-2.41-1.84c-11.1-.46-17.69,14.3-12.27,23.24,4.6,7.59,18.66,5.93,18.24-4.09-.13-3.21-5.13-3.22-5,0,.1,2.5-2.15,4-4.5,4.06-3,.12-4.77-2.33-5.4-5-1.36-5.65,2.51-13.5,8.93-13.23l-2.41-1.84,1.57,4,1.15-2.82-7.07,3.78c-2.84,1.52-.32,5.84,2.52,4.32Z"/><path class="cls-1" d="M601,457.79l6.14,13c1,2.18,4.93,1.18,4.66-1.26a11.07,11.07,0,0,1,8.61-12.21c3.14-.7,1.81-5.52-1.33-4.82a16,16,0,0,0-12.28,17l4.66-1.26-6.14-13c-1.37-2.91-5.69-.37-4.32,2.52Z"/><path class="cls-1" d="M623.35,467.64a41.32,41.32,0,0,0,7.77,12.72,2.52,2.52,0,0,0,4.18-1.1c1.29-6.6,5.19-14.06,11.88-16.57,8.47-3.18,14.85,6.88,8.8,13.43-2.18,2.36,1.35,5.9,3.54,3.54,7-7.56,4.09-20.08-6.48-22.36-11.76-2.54-20.62,10.75-22.56,20.64l4.18-1.1a34.29,34.29,0,0,1-6.48-10.51c-1.16-3-6-1.67-4.82,1.33Z"/><path class="cls-1" d="M685.81,473a7.75,7.75,0,0,0,6.94-9.46c-1.69-8.57-9.75-3.11-14,0-5.45,4.06-10.08,11-7.82,18.07,1.8,5.64,8.2,9.17,13.79,6.93,2.95-1.18,1.66-6-1.33-4.82-7,2.81-9.23-6-6.57-10.88s7.87-7.33,12.5-9.71h-2.52c1.81,1.07,1.35,4.66-1,4.82-3.19.21-3.22,5.21,0,5Z"/><path class="cls-1" d="M717,484.6c7,4.85,14.63-4.48,11.87-11.33-1.65-4.09-5.61-6.69-9.57-8.24-1.55-.61-10.3-2.58-6.43-4.85,2.28-1.33,9.11.84,11.28,1.37,3.13.76,4.46-4.06,1.33-4.82-5.06-1.23-22.36-4.54-18.64,6.24,1.33,3.85,5,4.84,8.53,6,2.54.83,5.36,1.83,7.25,3.84,1.47,1.56,2.56,3.69,1.45,5.79-.89,1.69-2.69,3-4.56,1.7-2.65-1.84-5.15,2.5-2.52,4.32Z"/><path class="cls-1" d="M855.86,480.36a38.31,38.31,0,0,0,18.76,2.05c4.92-.71,12.32-2.34,15.36-6.75,2.64-3.83.25-7.94-3.12-10.28-6.52-4.53-14.7-7.54-21.8-11.07l.51,3.93a11,11,0,0,1,12.84-3.47c3,1.11,4.33-3.72,1.33-4.82A15.8,15.8,0,0,0,862,454.7c-1,1.15-1.05,3.15.51,3.93l14.1,7c3.13,1.56,12.56,4.78,6.81,8.91-7,5-18.83,3.69-26.26,1-3-1.11-4.33,3.72-1.33,4.82Z"/><path class="cls-1" d="M917.54,464.68c3.83-4.18,7.93,3.12,3.41,6.16-1.86,1.25-5.94,1.27-7.71-.44q-3.19-6,2.27-5.67a13.37,13.37,0,0,1,3.2.61c7.2,1.9,14.28,4.79,21.33,7.18,3.05,1,4.37-3.79,1.33-4.82L924,461.82c-4-1.35-8.47-3.08-12.65-1.37-8.44,3.45-5.2,13,2,15.51s15.8-2.27,14.67-10.47c-.92-6.74-9.54-9.3-14.07-4.35-2.17,2.37,1.36,5.91,3.54,3.54Z"/><path class="cls-1" d="M958.94,439.7c-4.18,6.11-8.8,13.25-7.72,21,.77,5.61,5.11,11.07,10.79,12.26,4.69,1,10.8-1.86,10.73-7.3-.09-7-11.39-7.62-16.26-8.94-3.11-.84-4.44,4-1.33,4.82l5.13,1.39c.78.21,4.59.81,5.13,1.39q1.59,4.45-1.47,3.74a4.24,4.24,0,0,1-3-.79,10.31,10.31,0,0,1-3.72-4c-3.9-7.08,2.12-15.42,6-21.11,1.82-2.66-2.51-5.17-4.32-2.52Z"/><path class="cls-1" d="M986.42,460.93c2.25.77,9.15,5.24,3,6a12.41,12.41,0,0,1-4.06-.37c-.85-.19-7.35-1.78-3-4.35,1-.57,8.17,3.32,9.41,3.83l9.61,4c3,1.23,4.27-3.61,1.33-4.82l-13.61-5.62c-3.32-1.37-7.6-3.91-11.22-1.95-6.11,3.32-1.86,10.73,2.85,12.72,4.47,1.89,12.45,3.15,15.47-1.89,3.69-6.14-3.58-10.67-8.45-12.33-3.05-1-4.36,3.79-1.33,4.82Z"/><path class="cls-1" d="M1035.19,475.21a26,26,0,0,1-8.27-2.23c-.9-.43-5.76-3.39-4.43-4.21s10.42,6.42,11.68,7.36c1.7,1.26,4.43-.85,3.67-2.82a29.57,29.57,0,0,1-.45-20.73c1-3.06-3.79-4.37-4.82-1.33a33.83,33.83,0,0,0,.45,23.39l3.67-2.82c-3.25-2.4-18-14.2-19.42-4.27-1.27,8.82,11.66,12,17.91,12.68,3.19.36,3.17-4.64,0-5Z"/><path class="cls-1" d="M1049.45,468.16c2.61-.65,6.06-.93,8,1.39,2.14,2.56.56,5.22-2.44,5.64a9.77,9.77,0,0,1-7.38-1.91c-1.56-1.38-2.55-4.78.18-5.57,3.09-.89,1.77-5.72-1.33-4.82-4.67,1.35-6.74,7-4.49,11.24,2.59,4.89,9.27,6.92,14.45,5.88s8.49-6.12,6.27-11.28c-2.49-5.79-9.08-6.77-14.59-5.4-3.12.78-1.8,5.6,1.33,4.82Z"/></g></svg>