<svg xmlns="http://www.w3.org/2000/svg" viewBox="0 0 434.57 279"><defs><style>.cls-1{isolation:isolate;}.cls-2{fill:#cbc5dd;}.cls-3{fill:#5c4d8c;}.cls-12,.cls-14,.cls-15,.cls-19,.cls-24,.cls-26,.cls-3,.cls-38,.cls-40,.cls-5{fill-rule:evenodd;}.cls-4{fill:#fcd380;}.cls-5,.cls-6{fill:#f7bb63;}.cls-7{fill:#eb619e;}.cls-8{fill:#e3589a;}.cls-9{fill:#eb91bc;}.cls-10{fill:#e24d94;}.cls-11{fill:#fff;}.cls-12{fill:#f6b247;}.cls-13{fill:#29233f;}.cls-14{fill:#6d59a2;}.cls-15{fill:#7867aa;}.cls-16{fill:#ff7701;}.cls-17,.cls-26{fill:#e6c37a;}.cls-18{fill:#fad682;}.cls-19{fill:#f5be69;}.cls-20{fill:#73c4df;}.cls-21{fill:#7a67a6;}.cls-22,.cls-24{fill:#5ba2ad;}.cls-23{fill:#e89ac2;}.cls-25{fill:#161717;}.cls-27{fill:#6f62a4;}.cls-28{fill:#ffd880;}.cls-29{fill:#e675a9;}.cls-30{fill:#523f8e;}.cls-31{mix-blend-mode:soft-light;}.cls-32{fill:#c2c1c1;}.cls-33,.cls-38{fill:#d76ba4;}.cls-34{fill:#e7344c;}.cls-35{fill:#515151;}.cls-36,.cls-40{fill:#3d3d3d;}.cls-37{fill:#e4032e;}.cls-39{fill:#282828;}.cls-41{fill:#377d82;}.cls-42{fill:#4da2ae;}.cls-43{fill:#efbd50;}.cls-44{fill:#e8b142;}.cls-45{fill:#4ca2ae;}</style></defs><title>empezar</title><g class="cls-1"><g id="Layer_1" data-name="Layer 1"><circle class="cls-2" cx="227.51" cy="130" r="130"/><path class="cls-3" d="M192.71,215.18c16.4,0,29.77-28.34,29.77-63.08S209.11,89,192.71,89s-29.77,28.34-29.77,63.08S176.31,215.18,192.71,215.18Z"/><path class="cls-4" d="M204.87,238.49h-19a27.79,27.79,0,0,1,19,0Z"/><path class="cls-4" d="M167.68,147.53c-2.71.56-5,2.74-6.84,5.1a55.68,55.68,0,0,0-7.11,12.11c-1.86,4.18-3.38,8.55-4.89,12.93q-3,8.64-5.91,17.31a108.82,108.82,0,0,0-3.3,11c-.92,4.07-2.72,9.51-1.31,13.41s6.55,5.89,10,4.65c3-1.08,4.62-4.71,6-8l15.55-38.55c1.1-2.73,5.58-13.74,6.25-16.66C177.5,154.39,175.95,145.82,167.68,147.53Z"/><path class="cls-4" d="M104.66,169.72c-.24.15-.65,0-1.29-1s-.08-1.55-.23-1.76c-4-5.35-5.89-9.55-8-16-.49-1.45-.91-3.09-.27-4.46.33-.7.53-2.63,1.1-3.13,1.39-1.23,3.5-1.07,5.29-.59a5.2,5.2,0,0,1,2.89,2.67c.67,1.18,1.16,3.47,1.9,4.6.63,1,1.38,2.33,1.73,2.37s-.73-2.62.18-3,1.53,1,1.92,1.89c1.22,2.8.91,7.16,2.13,10,1.12,2.57,1.28,1.39-.26,2.87A50.49,50.49,0,0,1,104.66,169.72Z"/><path class="cls-4" d="M145.21,226c-2.27.08-4.65-1.5-6.79-3.33-3.25-2.78-5.87-6.48-8.63-10.21-2.64-3.57-5.11-7.4-7.54-11.24-3.2-5.05-7.15-12.07-8.09-13.63-1.94-3.21-5.37-9.12-7.11-12.53-1.88-3.68-4.91-9.32-5.2-13.37a3.85,3.85,0,0,1,3.77-4c2.63.26,8.39,6.52,10.43,9.35,6.1,8.43,13.29,17,22.2,29.86,1.64,2.36,8.28,11.86,9.64,14.5C150.88,217.19,152.13,225.72,145.21,226Z"/><path class="cls-5" d="M149.58,191.81s-4.77,12.18-1.69,19.56L141,200.85l3.39-10.21Z"/><path class="cls-5" d="M225.63,193.48s9.07,25.44,12.07,27.65Z"/><path class="cls-4" d="M220.81,146c2.67.56,4.89,2.74,6.74,5.09a55.68,55.68,0,0,1,7,12.1c1.82,4.18,3.32,8.55,4.8,12.92q2.93,8.64,5.8,17.3a109.79,109.79,0,0,1,3.24,11c.9,4.06,2.67,9.5,1.27,13.4s-6.46,5.89-9.82,4.67c-2.93-1.07-4.55-4.71-5.86-8L218.7,176c-1.08-2.73-5.48-13.73-6.14-16.65C211.12,152.91,212.66,144.35,220.81,146Z"/><path class="cls-4" d="M252.1,232.59c-.11,2-.28,3.92-.48,5.9h-15.9c.32-3.65,1.21-14,1.83-16.68,0-.22.1-.46.16-.68h0c1.57-6.2,6-12.9,11.23-8.81a5.82,5.82,0,0,1,1.2,1.31h0v0a15,15,0,0,1,1.87,5.56C252.73,223.45,252.37,228,252.1,232.59Z"/><path class="cls-4" d="M223.71,182.93h0q-.32,1.55-.67,3.16c0,.19-.07.37-.12.56s-.13.65-.2,1h0c-.13.61-.26,1.21-.38,1.83h0c-.1.44-.2.88-.28,1.32h0c-.07.27-.12.55-.19.82h0c-1.56,7.49-3,15.14-3,20.46,0,11.38,3.18,19.43,4.61,26.39H166.85C168,231.55,171,223.93,171,212.1c0-6.38-2.33-16.09-4.48-24.89h0l0-.12c-.07-.29-.14-.57-.2-.86-.23-.92-.46-1.83-.67-2.72s-.47-1.9-.68-2.82h0c-1.22-5.15-2.09-9.47-2-11.88v0c.2-3.64.14-7.31.14-10.18v0a22.78,22.78,0,0,1,.29-4.9,17.24,17.24,0,0,1,1.72-3.07s0,0,0,0a16.78,16.78,0,0,1,2.45-3h0a6.38,6.38,0,0,1,1.24-.89,39,39,0,0,1,4.31-1.9,12.52,12.52,0,0,1,1.83-.52c1.8-.34,4.74-1.84,8.3-2.42l.46-.07h.06l.21,0a15.82,15.82,0,0,1,2.23-.12c3.61-.06,4.68-.77,7.82-.62,3.2-.15,4.13.25,7.82.31a13.63,13.63,0,0,1,2,.1h.11l.19,0,.28,0a19.38,19.38,0,0,1,2.14.43l.09,0c2.52.64,4.76,1.62,6.34,2.1a7.09,7.09,0,0,0,.89.23,19.21,19.21,0,0,1,4.37,1.62h0c.79.37,1.4.69,1.6.8a5.73,5.73,0,0,1,1,.67,11.44,11.44,0,0,1,1.59,1.62,22.23,22.23,0,0,1,1.49,2,15.67,15.67,0,0,1,1.47,2.65,24.17,24.17,0,0,1,.29,5.26c0,2.06,0,4.51,0,7,0,.94,0,1.89.1,2.84C226,171.54,225,176.8,223.71,182.93Z"/><path class="cls-6" d="M204,135.37a20.34,20.34,0,0,0,.15,7.17,5.78,5.78,0,0,1-.93.63c-4.3,2.48-12.36,1.29-16.6.11-1.76-.49-2.86-1-2.76-1.2.85-1.9.69-4.51.41-6.3,0,0,0,0,0-.06h0a19.4,19.4,0,0,0-.41-2h20.54c-.07.22-.14.45-.19.67S204,135.05,204,135.37Z"/><path class="cls-4" d="M172.2,99.2c0-11.09,9.67-20.08,21.59-20.08s21.59,9,21.59,20.08a18.74,18.74,0,0,1-.8,5.34c0,.44,0,.88,0,1.35a56.89,56.89,0,0,1-.9,12c-1.52,7.68-5.5,14.82-13,19.19a16.71,16.71,0,0,1-8.37,2.54c-4,0-7.72-2.1-10.52-4.67-9.24-8.49-10-21.24-9.38-33.27A18.74,18.74,0,0,1,172.2,99.2Z"/><path class="cls-7" d="M232.78,159.18c-8.08-16.39-29.08-18.24-29.08-18.24l7.17,8.66,2.42,7.25,10.79,32.37,20.13-1.85A289.87,289.87,0,0,0,232.78,159.18Z"/><polygon class="cls-8" points="213.79 155.99 222.71 193.56 227.51 193.22 213.79 155.99"/><path class="cls-9" d="M232.65,158.63c-8-16-28.95-17.69-28.95-17.69s21.17,6.21,26.39,17.31c1.26,2.67,6.1,15.24,10.7,28.2l3.11-.3A277.2,277.2,0,0,0,232.65,158.63Z"/><path class="cls-10" d="M244.52,183.56l-23.22,6.18,1.31,4.35,23.53-4.77a1.8,1.8,0,0,0,1.38-2.23l-.58-2.13A2,2,0,0,0,244.52,183.56Z"/><path class="cls-7" d="M154.75,159.89c8.08-16.39,29.08-18.24,29.08-18.24l-7.17,8.66-2.42,7.25-10.79,32.37-20.13-1.85A289.87,289.87,0,0,1,154.75,159.89Z"/><polygon class="cls-8" points="173.75 156.71 164.82 194.27 160.03 193.93 173.75 156.71"/><path class="cls-9" d="M154.88,159.34c8-16,28.95-17.69,28.95-17.69s-21.17,6.21-26.39,17.31c-1.26,2.67-6.1,15.24-10.7,28.2l-3.11-.3A277.2,277.2,0,0,1,154.88,159.34Z"/><path class="cls-10" d="M143,184.28l23.22,6.18-1.31,4.35L141.39,190A1.8,1.8,0,0,1,140,187.8l.58-2.13A2,2,0,0,1,143,184.28Z"/><path class="cls-7" d="M224,238.49H166.37c4.94-27.54-.35-49.26-.35-49.26l0-.15.42-2,.59-2.82h0l0-.12,2.09-10,.44-2.11.28-1.36h0v0l1.65-7.9h0l2.2-10.56,1.48-1.54,8.5-8.81.07-.07h0a.12.12,0,0,1,0,.07c-.46,1-3.94,9.3,9.17,10.36,10.65.87,11.31-6.13,11-9.46,0-.53-.11-1-.17-1.27s-.09-.44-.09-.44h0l.14.11.51.39,8.2,6.27.49,2h0l3.58,14.07h0l1,4,1.29,5L220,177h0v.07l1.62,6.37v0l1.05,4.12h0q-.18.91-.34,1.82c-.1.53-.19,1.05-.27,1.58L222,192C219.33,209.82,222,228.27,224,238.49Z"/><path class="cls-10" d="M206.22,196.17l-1,0-2.61-.16a26.16,26.16,0,0,0-8.21.54c-.77.2-1.55.44-2.32.65a19,19,0,0,1-2.31.49,17.93,17.93,0,0,1-4,.13,6.82,6.82,0,0,1-1.55-.29,3.49,3.49,0,0,1-1.07-.54,2.35,2.35,0,0,1-.51-.54l-.13-.22.19.16a2.42,2.42,0,0,0,.6.34,5,5,0,0,0,2.44.13,29.06,29.06,0,0,0,3.68-.76c.68-.19,1.37-.4,2.1-.66s1.52-.53,2.37-.75a14.15,14.15,0,0,1,5-.37,21.94,21.94,0,0,1,3.89.75c1.08.31,1.93.6,2.51.82Z"/><path class="cls-9" d="M189,127c.92.36,3.51-1,4.75-.93s1.08-.22,2-.38,3.08.07,4.51-.7a9.15,9.15,0,0,1-2.66,4,5.27,5.27,0,0,1-4.77.83A8.2,8.2,0,0,1,189,127Z"/><path class="cls-9" d="M188,126.58l.15,0,.42.15c.36.14.87.34,1.5.52a9.35,9.35,0,0,0,1,.23,9.57,9.57,0,0,0,1.16.12,8.24,8.24,0,0,0,1.24,0,10.5,10.5,0,0,0,1.27-.21,13.54,13.54,0,0,0,4.45-1.65c.27-.18.52-.35.73-.51a5.85,5.85,0,0,0,.52-.45l.32-.31.11-.11-.09.13a4.15,4.15,0,0,1-.27.36,6,6,0,0,1-.48.52,5.79,5.79,0,0,1-.69.6,9.35,9.35,0,0,1-2,1.12,13.87,13.87,0,0,1-2.51.76,11.16,11.16,0,0,1-1.32.2,7.58,7.58,0,0,1-1.3,0,7.16,7.16,0,0,1-1.2-.2,10,10,0,0,1-1-.31,11.55,11.55,0,0,1-1.46-.68l-.39-.21Z"/><path class="cls-11" d="M189.57,127.24a13.65,13.65,0,0,0,10.09-1.82,7,7,0,0,1-5.15,3.19A6.72,6.72,0,0,1,189.57,127.24Z"/><path class="cls-12" d="M191.12,119.82c3.61.75,5.1-1.46,5.12-3.31C197.16,119.92,194.69,121.77,191.12,119.82Z"/><path class="cls-13" d="M202,107.84a1.53,1.53,0,0,0-.36.8c-.15,1-.35,2.91.81,3.49,1.38.69,2-1.15,2.07-2.2a3,3,0,0,0-.52-2A1.26,1.26,0,0,0,202,107.84Z"/><path class="cls-13" d="M200.72,108.38s1.69-2.1,5.65,0C206.36,108.38,202.65,105.32,200.72,108.38Z"/><path class="cls-13" d="M185.4,107.84a1.53,1.53,0,0,1,.36.8c.15,1,.35,2.91-.81,3.49-1.38.69-2-1.15-2.07-2.2a3,3,0,0,1,.52-2A1.26,1.26,0,0,1,185.4,107.84Z"/><path class="cls-13" d="M186.66,108.38s-1.69-2.1-5.65,0C181,108.38,184.73,105.32,186.66,108.38Z"/><path class="cls-5" d="M160.69,114.13a5,5,0,0,1-.52-1.12,14.81,14.81,0,0,0-.66,3.92c.32-.27.64-.54,1-.79a3.38,3.38,0,0,1,.94-.47A10,10,0,0,0,160.69,114.13Z"/><path class="cls-5" d="M193.69,80.36c-8.7-4.9-22.78,3.25-25.37,15a30.31,30.31,0,0,1-3.45,8.78l.39.36c2.75-1.31,6.87,0,6.91,4a80.25,80.25,0,0,0,.71,8.51,9.2,9.2,0,0,1,2.62-3.66c4.62-3.54,3.62-5.48,4.42-13.74s8.53-3.11,14.58-10.3C197,86.34,202.39,85.25,193.69,80.36Z"/><path class="cls-5" d="M176.81,112.28a35.34,35.34,0,0,0,7.57,24.61s-9.15-4.82-11.5-19.86A5.19,5.19,0,0,1,176.81,112.28Z"/><path class="cls-14" d="M198.36,100.25c1.89-.42,5-1.28,8.26,1.58,1.48,1.29,1.2,1.9-.44.7-2.8-2.05-4.67-1.37-7.64-.78C197.39,102,197.08,100.53,198.36,100.25Z"/><path class="cls-14" d="M188,100.25c-1.89-.42-5-1.28-8.26,1.58-1.48,1.29-1.2,1.9.44.7,2.8-2.05,4.67-1.37,7.64-.78C189,102,189.32,100.53,188,100.25Z"/><path class="cls-14" d="M193.35,86.42c-6,7.19-13.77,2-14.58,10.3s.2,10.2-4.42,13.74-5.77,15.37-3.05,23.8,2.47,13.36-.8,19.07-3.38,9.78-1.75,15.49,2.65,8.74-7-1.28-7.35-20.46-3.54-30.26,1.83-9,.28-19.89,6-13.17,8.62-24.93,16.67-19.91,25.37-15S195.8,83.43,193.35,86.42Z"/><path class="cls-15" d="M189.67,79.09c-1,4.7-7.31,6.44-11.13,7.65s-6.64,4.14-5.95,9.36-3.1,12-5.71,14.64-1.82,13.91.17,20.87c1.85,6.45-1.72,16-3.41,19.73-1.81,4-2.67,9-.59,12.27-3.59-3.16-3.46-8.18-1.22-13.57s4.84-8.74,2.78-18.23c-2.6-12-4.25-16.39.85-23.09,4-5.29,5-6,4.89-12.26-.13-6.44.87-9.39,6.44-11.31S187.41,83.61,189.67,79.09Z"/><path class="cls-14" d="M192.76,86.42c6,7.19,13.77,2,14.58,10.3s-.2,10.2,4.42,13.74,5.77,15.37,3.05,23.8-2.47,13.36.8,19.07,3.38,9.78,1.75,15.49-2.65,8.74,7-1.28,7.35-20.46,3.54-30.26-1.83-9-.28-19.89-6-13.17-8.62-24.93-16.67-19.91-25.37-15S190.31,83.43,192.76,86.42Z"/><path class="cls-15" d="M196.44,79.09c1,4.7,7.31,6.44,11.13,7.65s6.64,4.14,5.95,9.36,3.1,12,5.71,14.64,1.82,13.91-.17,20.87c-1.85,6.45,1.72,16,3.41,19.73,1.81,4,2.67,9,.59,12.27,3.59-3.16,3.46-8.18,1.22-13.57s-4.84-8.74-2.78-18.23c2.6-12,4.25-16.39-.85-23.09-4-5.29-5-6-4.89-12.26.13-6.44-.87-9.39-6.44-11.31S198.7,83.61,196.44,79.09Z"/><path class="cls-16" d="M116,211.59l-.16.23a2.26,2.26,0,0,1,.13-.26Z"/><path class="cls-16" d="M117.37,209.72l-.52.65h0C117,210.15,117.18,209.94,117.37,209.72Z"/><path class="cls-16" d="M142.18,235.18a.89.89,0,0,1,.14-.19c0,.31,0,.61,0,.92-.06.09-.1.19-.15.28Z"/><path class="cls-16" d="M149.55,214c0,1.16-.07,2.42-.1,3.73,0-1.27,0-2.53.07-3.73Z"/><path class="cls-16" d="M174.91,211.24l-.19-.28v-.24A3.48,3.48,0,0,1,174.91,211.24Z"/><path class="cls-17" d="M115,68.07c-9.89-2.39-20.61,4.3-25.78,16.09-3.54,8.06-4.49,17.68-5.92,26.88a228.67,228.67,0,0,1-6.05,27.71,28.3,28.3,0,0,1-3.44,8.39c-3.72,5.31-10.55,6.37-12.57,13.2-1.39,4.7.17,10.55-1.82,14.82s-6.27,4.67-9.33,7.39c-4.66,4.14-5.51,14.38-1.66,19.85,1.08,1.53,2.42,2.69,3.46,4.28,2.37,3.64,2.8,9,4.95,12.9s5.54,5.68,8.87,7.05a55.14,55.14,0,0,0,18.06,4.14c4.08.22,8.47-.17,11.73-3.54,1.49-1.54,2.66-3.64,4.23-5,2.87-2.56,6.57-2.4,10-1.77,6.78,1.26,13.71,4,20.34,1.71,3.95-1.37,7.44-4.45,10.86-7.47,2.55-2.26,5.34-5,5.85-9.08.77-6.18-3.88-10.84-5.77-16.55s-.9-12.29-1.61-18.45c-.4-3.47-1.33-6.78-1.92-10.2a91.49,91.49,0,0,1-.91-16.32C136.87,117.89,140.87,74.32,115,68.07Z"/><path class="cls-17" d="M141,189c-1.87-5.68-.9-12.29-1.61-18.45-.4-3.47-1.33-6.78-1.92-10.2a91.48,91.48,0,0,1-.91-16.32c.27-26.17,4.27-69.74-21.56-76-9.89-2.39-20.61,4.3-25.78,16.09-3.54,8.06-4.49,17.68-5.92,26.88a228.66,228.66,0,0,1-6.05,27.71,28.31,28.31,0,0,1-3.44,8.39c-3.72,5.31-10.55,6.37-12.57,13.2-1.39,4.7.17,10.55-1.82,14.82s-6.27,4.67-9.33,7.39c-4.66,4.14-5.51,14.38-1.66,19.85,1.08,1.53,2.42,2.69,3.46,4.28,2.37,3.64,2.8,9,4.95,12.9,1.9,3.44,4.9,5.3,7.92,6.64-4.82-6.8-6.85-16.41-6.19-24.15a26.48,26.48,0,0,1,5.25-13.3,43.54,43.54,0,0,0,7.4-15.8c3.13-13.23,9.67-25,15.2-37.38a5.24,5.24,0,0,1,6.31-3.27c2.1-2.62,5.63-3.61,9.35-3.33,5-3.11,10.22-5.55,16.34-1.95a12.65,12.65,0,0,1,4.6,4.66c3.76-1.38,9.2.61,9.71,5.91,1.49,15.53-4.26,30.85-.2,46.4.91,3.48,3.15,6.31,4.65,9.56a58,58,0,0,1,4,11.49,75.13,75.13,0,0,1,1.34,8.1,12.84,12.84,0,0,0,4.24-7.59C147.58,199.4,142.93,194.74,141,189Z"/><path class="cls-18" d="M146.9,258.34"/><path class="cls-19" d="M144.75,195.23s9.74,27.31,13,29.68"/><path class="cls-20" d="M139.57,144.3c2.87.6,5.25,2.94,7.23,5.47a59.76,59.76,0,0,1,7.5,13c2,4.48,3.57,9.18,5.16,13.87q3.14,9.27,6.23,18.57A117.84,117.84,0,0,1,169.16,207c1,4.36,2.86,10.2,1.37,14.39s-6.93,6.33-10.54,5c-3.15-1.15-4.88-5.05-6.29-8.6l-16.39-41.35c-1.16-2.93-5.88-14.74-6.59-17.87C129.18,151.68,130.83,142.48,139.57,144.3Z"/><path class="cls-20" d="M155.51,244.23c.27-3.08,1.32-15.47,2-18.59,1.53-6.85,6.36-14.75,12.23-10.19,1.93,1.5,2.8,4.43,3.31,7.41.77,4.53.39,9.38.1,14.35-.27,4.76-.87,9.62-1.5,14.45-.83,6.37-2.4,14.86-2.69,16.8"/><path class="cls-20" d="M86.07,144.3c-2.87.6-5.25,2.94-7.23,5.47a59.76,59.76,0,0,0-7.5,13c-2,4.48-3.57,9.18-5.16,13.87Q63,185.9,59.95,195.2A117.84,117.84,0,0,0,56.47,207c-1,4.36-2.86,10.2-1.37,14.39s6.93,6.33,10.54,5c3.15-1.15,4.88-5.05,6.29-8.6l16.39-41.35c1.16-2.93,5.88-14.74,6.59-17.87C96.46,151.68,94.81,142.48,86.07,144.3Z"/><path class="cls-20" d="M61.77,228.91c-2.42.3-5.11-1.15-7.58-2.9-3.75-2.66-6.9-6.36-10.22-10.08-3.17-3.56-6.18-7.42-9.15-11.28-3.91-5.09-8.81-12.21-10-13.78-2.39-3.24-6.63-9.23-8.82-12.71-2.37-3.75-6.15-9.48-6.86-13.79a4.13,4.13,0,0,1,3.64-4.62c2.84,0,9.6,6.16,12.06,9,7.34,8.42,15.86,16.93,26.63,29.76,2,2.36,10,11.87,11.72,14.57C67,219,69.15,228,61.77,228.91Z"/><path class="cls-20" d="M13,172.73c-.24.18-.69.1-1.48-1s-.23-1.65-.42-1.85c-4.83-5.32-7.22-9.64-10.14-16.27-.66-1.5-1.28-3.22-.72-4.74.28-.78.31-2.86.87-3.45C2.44,144,4.72,144,6.67,144.29A5.58,5.58,0,0,1,10,146.87c.83,1.2,1.58,3.59,2.48,4.73.77,1,1.7,2.36,2.08,2.37s-1-2.73-.1-3.21,1.73.93,2.23,1.84c1.58,2.88,1.67,7.56,3.25,10.44,1.45,2.64,1.5,1.36,0,3.1A54.11,54.11,0,0,1,13,172.73Z"/><path class="cls-21" d="M88.67,220.74q.54,5.43,1.23,10.85c-.51-.19-1-.39-1.54-.6s-1.05-.43-1.57-.66a65.54,65.54,0,0,0,.85-16.22c0-.4-.06-.8-.09-1.2-.1-1-.22-2.07-.37-3.13-.05-.35-.1-.69-.16-1s-.09-.54-.14-.81c-.07-.43-.15-.85-.24-1.28-.18-.88-.39-1.76-.63-2.65q-.15-.6-.33-1.2l-.15-.51c.36.18.74.32,1.11.48C89.36,208.08,88.11,214.95,88.67,220.74Z"/><path class="cls-20" d="M111.22,174c-9.57-.58-15.75-30.79-16.22-33.14a22.31,22.31,0,0,1,7.43-1.33c3.87-.05,5-.83,8.39-.67,3.45-.16,4.44.27,8.4.33,4.46-.08,8.73,1.88,11.47,2.79C131.35,147.12,121.15,174.6,111.22,174Z"/><path class="cls-21" d="M139.77,194.86c-.13.27-.25.55-.39.83q-1.41,3-2.48,5.93A14.48,14.48,0,0,1,128,205c-8.82,0-12.33-5-12.54-5.29,5.87,2.24,10,2.94,15.56,1.82C134.93,200.73,138.18,197,139.77,194.86Z"/><path class="cls-22" d="M121.5,132.85a21.84,21.84,0,0,0,.16,7.69,6.21,6.21,0,0,1-1,.68c-4.61,2.67-13.27,1.38-17.82.12-1.89-.53-3.07-1-3-1.28.92-2,.74-4.84.45-6.76,0,0,0,0,0-.06h0a20.83,20.83,0,0,0-.44-2.13h22c-.08.24-.15.48-.21.72S121.56,132.51,121.5,132.85Z"/><path class="cls-20" d="M87.4,94c0-11.9,10.38-21.55,23.17-21.55S133.75,82.12,133.75,94a20.11,20.11,0,0,1-.85,5.73c0,.47,0,.95,0,1.45a61.07,61.07,0,0,1-1,12.85c-1.63,8.24-5.9,15.91-14,20.59a17.94,17.94,0,0,1-9,2.73c-4.32,0-8.28-2.25-11.29-5-9.92-9.11-10.77-22.8-10.07-35.72A20.12,20.12,0,0,1,87.4,94Z"/><path class="cls-23" d="M105.44,123.9c1,.38,3.77-1.1,5.1-1s1.16-.24,2.13-.41,3.3.08,4.84-.75a9.83,9.83,0,0,1-2.85,4.3,5.65,5.65,0,0,1-5.12.89A8.8,8.8,0,0,1,105.44,123.9Z"/><path class="cls-23" d="M104.31,123.41l.17,0,.45.16c.38.16.94.36,1.61.56a10,10,0,0,0,1.1.25,10.27,10.27,0,0,0,1.24.13,8.85,8.85,0,0,0,1.33,0,11.27,11.27,0,0,0,1.37-.22,14.53,14.53,0,0,0,4.78-1.77c.29-.19.56-.37.78-.55a6.28,6.28,0,0,0,.56-.48l.34-.34.12-.12-.1.14a4.45,4.45,0,0,1-.29.39,6.48,6.48,0,0,1-.51.55,6.22,6.22,0,0,1-.74.64,10,10,0,0,1-2.14,1.21,14.88,14.88,0,0,1-2.69.82,12,12,0,0,1-1.42.21,8.13,8.13,0,0,1-1.4,0,7.69,7.69,0,0,1-1.29-.21,10.7,10.7,0,0,1-1.11-.34,12.39,12.39,0,0,1-1.56-.73l-.42-.22Z"/><path class="cls-11" d="M106,124.13a14.65,14.65,0,0,0,10.83-2,7.48,7.48,0,0,1-5.53,3.42A7.22,7.22,0,0,1,106,124.13Z"/><path class="cls-24" d="M107.7,116.16c3.88.81,5.47-1.56,5.5-3.55C114.19,116.27,111.54,118.25,107.7,116.16Z"/><path class="cls-25" d="M119.36,103.3a1.64,1.64,0,0,0-.39.86c-.16,1.11-.37,3.13.87,3.74,1.49.74,2.18-1.23,2.22-2.37a3.19,3.19,0,0,0-.56-2.11A1.35,1.35,0,0,0,119.36,103.3Z"/><path class="cls-25" d="M118,103.88s1.82-2.25,6.06,0C124.07,103.88,120.08,100.59,118,103.88Z"/><path class="cls-25" d="M101.57,103.3a1.64,1.64,0,0,1,.39.86c.16,1.11.37,3.13-.87,3.74-1.49.74-2.18-1.23-2.22-2.37a3.19,3.19,0,0,1,.56-2.11A1.35,1.35,0,0,1,101.57,103.3Z"/><path class="cls-25" d="M102.92,103.88s-1.82-2.25-6.06,0C96.86,103.88,100.85,100.59,102.92,103.88Z"/><path class="cls-24" d="M111.33,83.44c-6.49,7.72-14.78,2.19-15.64,11.06-.78,7.92,0,10.43-3.37,13.57h0a37.87,37.87,0,0,0,8.13,26.4h0a11.73,11.73,0,0,1-1.58-1.06q-.36-.27-.78-.63l-.46-.42a27.53,27.53,0,0,1-2.83-3l-.26-.33q-.45-.57-.9-1.23l0,0a35.12,35.12,0,0,1-5.5-14.58c-.22-1.9-.45-3.78-.6-5.68l0-.45a100,100,0,0,1,.09-10.39A20.56,20.56,0,0,1,87.39,94c0-11,8.81-20,20.2-21.37a12,12,0,0,1,2.87,1.14C119.8,79.06,114,80.23,111.33,83.44Z"/><path class="cls-19" d="M98.12,132.79a25.09,25.09,0,0,1-3.29-3.43,27.53,27.53,0,0,0,2.83,3Z"/><path class="cls-26" d="M115.48,95.15c2-.45,5.35-1.37,8.87,1.69,1.59,1.38,1.29,2-.47.75-3-2.2-5-1.47-8.2-.84C114.44,97,114.1,95.46,115.48,95.15Z"/><path class="cls-26" d="M104.4,95.15c-2-.45-5.35-1.37-8.87,1.69-1.59,1.38-1.29,2,.47.75,3-2.2,5-1.47,8.2-.84C105.44,97,105.78,95.46,104.4,95.15Z"/><path class="cls-21" d="M143.22,249.21c-.29-8.86-5.66-18.58-5.69-34,0-6,1.68-14.83,3.46-23.29.7-3.32,1.41-6.6,2-9.63a10.18,10.18,0,0,0-.9-4.9c-2.36-10.65-2.12-28.63-2.07-31.32a7,7,0,0,0-1.52-1.1,28.63,28.63,0,0,0-6.44-2.6,9.59,9.59,0,0,1-1.41-.39c.65,5.14-9.54,32.62-19.47,32-9.57-.58-15.75-30.79-16.22-33.14-1.9.63-3.49,1.29-4.64,1.51a11.59,11.59,0,0,0-1.52.41,148.26,148.26,0,0,1-1.26,18.49c0,.21-.06.4-.08.62s0,.26-.07.4a92.5,92.5,0,0,1-1.93,9.53c-.15.57-.3,1.16-.46,1.73-.26.93-.51,1.89-.7,2.86,0,0,0,.11,0,.18s-.08.32-.11.47a21.31,21.31,0,0,0-.49,3.2s0,.11,0,.16a1.88,1.88,0,0,0,0,.34,23.51,23.51,0,0,0,0,4,15.1,15.1,0,0,0,.68,3.59,31.68,31.68,0,0,0,.92,3.18c1.21,3.47,2.58,5,3.29,5.66l.13.11c.17.13.29.2.33.23h0a.12.12,0,0,0,0,0c.49.54,5.55,5.56,14,3.26,0,0-.18.66-1.45,1.27a10,10,0,0,1-3.14.77,23.05,23.05,0,0,1-2.35.11,18.6,18.6,0,0,1-11.7-4c-.35-.87-.73-1.75-1.15-2.61a2.13,2.13,0,0,1-.1-.22c1.63,7.08,3,14,3,19.07,0,15.42-4.66,24.17-4.94,33,0,1.19-1.39,18.12-1,19.13a6.81,6.81,0,0,0,3.65,3.08l2.73-1.21c0,.05,5.59.46,5.89.52.86.23,6.71,1.13,6.85,1.18,2.18.78,3.9-.08,9.46.73,5.68-.81,11.78.05,14-.73.15,0,6.13-1,7-1.18.31-.06,6-.47,6-.52s5.17-.85,5.17-.85c1.73-.7,2.7,1.36,3.11.27S143.25,250.4,143.22,249.21ZM88.37,231c-.52-.21-1.05-.43-1.57-.66a65.54,65.54,0,0,0,.85-16.22c0-.4-.06-.8-.09-1.2-.1-1-.22-2.07-.37-3.13-.05-.35-.1-.69-.16-1s-.09-.54-.14-.81c-.07-.43-.15-.85-.24-1.28-.18-.88-.39-1.76-.63-2.65q-.15-.6-.33-1.2l-.15-.51c.36.18.74.32,1.11.48,2.71,5.31,1.46,12.18,2,18q.54,5.43,1.23,10.85C89.39,231.41,88.88,231.2,88.37,231ZM128,205c-8.82,0-12.33-5-12.54-5.29,5.87,2.24,10,2.94,15.56,1.82,3.93-.81,7.18-4.55,8.77-6.68-.13.27-.25.55-.39.83q-1.41,3-2.48,5.93A14.48,14.48,0,0,1,128,205Z"/><path class="cls-21" d="M95,140.71l0,.15c-1.9.63-3.49,1.29-4.64,1.51a11.59,11.59,0,0,0-1.52.41v-.19l-2.46.77a2.88,2.88,0,0,1,.13.31c1.26,3.13.86,8.4-.11,13.7a2.7,2.7,0,0,0-.36.33c1.07-5.34,1.58-10.76.33-14a3.2,3.2,0,0,0-.17-.43S93.51,141.06,95,140.71Z"/><path class="cls-21" d="M130.68,141.92s7.6,1.85,9.39,3.81c0,0,0,.12,0,.34a7,7,0,0,0-1.52-1.1,28.63,28.63,0,0,0-6.44-2.6,9.59,9.59,0,0,1-1.41-.39S130.68,141.94,130.68,141.92Z"/><path class="cls-21" d="M143,182.29a28.33,28.33,0,0,1-2,9.63C141.69,188.6,142.4,185.32,143,182.29Z"/><path class="cls-27" d="M103,200.86s-.18.66-1.45,1.27a10,10,0,0,1-3.14.77,23.05,23.05,0,0,1-2.35.11,18.6,18.6,0,0,1-11.7-4c-.35-.87-.73-1.75-1.15-2.61a2.13,2.13,0,0,1-.1-.22c-3.12-6.45-3.85-11.52-3.67-15.21.26-5,2.17-7.46,2.17-7.46A125.56,125.56,0,0,0,86,157.7a2.7,2.7,0,0,1,.36-.33c1-5.3,1.37-10.57.11-13.7a2.88,2.88,0,0,0-.13-.31l2.46-.77v.19a148.26,148.26,0,0,1-1.26,18.49c0,.21-.06.4-.08.62s0,.26-.07.4a92.5,92.5,0,0,1-1.93,9.53c-.15.57-.3,1.16-.46,1.73-.26.93-.51,1.89-.7,2.86,0,0,0,.11,0,.18s-.08.32-.11.47a21.31,21.31,0,0,0-.49,3.2s0,.11,0,.16a1.88,1.88,0,0,0,0,.34,23.51,23.51,0,0,0,0,4,15.1,15.1,0,0,0,.68,3.59,31.68,31.68,0,0,0,.92,3.18c1.21,3.47,2.58,5,3.29,5.66l.13.11c.17.13.29.2.33.23h0a.12.12,0,0,0,0,0C89.53,198.14,94.6,203.16,103,200.86Z"/><path class="cls-27" d="M139.77,194.86c-.13.27-.25.55-.39.83q-1.41,3-2.48,5.93A14.48,14.48,0,0,1,128,205c-8.82,0-12.33-5-12.54-5.29,5.87,2.24,10,2.94,15.56,1.82C134.93,200.73,138.18,197,139.77,194.86Z"/><path class="cls-27" d="M89.9,234.38a13.43,13.43,0,0,0-6-1.07v0a80.68,80.68,0,0,0,2.18-18.07,74.3,74.3,0,0,0-1.87-14.08A32.68,32.68,0,0,1,87,208.74c.06.35.11.69.16,1,.15,1.06.27,2.11.37,3.13,0,.4.07.8.09,1.2a65.54,65.54,0,0,1-.85,16.22c.52.23,1.05.45,1.57.66.37.15.75.31,1.13.45A10.67,10.67,0,0,0,89.9,234.38Z"/><path class="cls-18" d="M92.3,144.21a15.57,15.57,0,0,0,4.23,6.22c-2-1.54-4.63-1.53-5.95-4.3a14.11,14.11,0,0,1-.94-4.13q-.73-5.77-1.48-11.56-.93-7.25-1.85-14.49a19.91,19.91,0,0,1-.24-4,27.07,27.07,0,0,1,1.28-5.2c1.33-4.67,1.44-9.91,1.74-15,0-.12,0-.22,0-.34a36.81,36.81,0,0,1,.67,9.16c-.48,5.73-1.78,11.37-1.94,17.13a4.76,4.76,0,0,0,2.74,4.47c.13,2.39.26,4.77.4,7.16q.23,4.32.47,8.64A25.33,25.33,0,0,0,92.3,144.21Z"/><path class="cls-18" d="M133.15,119.18c-.06.45-.12.9-.16,1.36-.15,1.39-.24,2.81-.38,4.21-.22,2.3-.56,4.55-1,6.78-.95,5-2.31,9.88-3.66,14.69a129,129,0,0,1,2.47-16c.07-.34.14-.67.22-1a24.9,24.9,0,0,0,.84-5.32c0-.14,0-.28,0-.42s0-.27,0-.41C132.11,121.77,132.66,120.48,133.15,119.18Z"/><path class="cls-17" d="M96.53,150.43c-2-1.54-4.63-1.53-5.95-4.3a14.11,14.11,0,0,1-.94-4.13q-.73-5.77-1.48-11.56-.93-7.25-1.85-14.49a19.91,19.91,0,0,1-.24-4,27.07,27.07,0,0,1,1.28-5.2c1.33-4.67,1.44-9.91,1.74-15,0-.12,0-.22,0-.34a36.81,36.81,0,0,1,.67,9.16c-.48,5.73-1.78,11.37-1.94,17.13a4.76,4.76,0,0,0,2.74,4.47h0l.39,7.16q.23,4.32.47,8.64a25.33,25.33,0,0,0,.85,6.24A15.57,15.57,0,0,0,96.53,150.43Z"/><path class="cls-17" d="M133.16,119.15c-.07.46-.12.92-.17,1.39-.15,1.39-.24,2.81-.38,4.21-.22,2.3-.56,4.55-1,6.78-.95,5-2.31,9.88-3.66,14.69a129,129,0,0,1,2.47-16c.07-.34.14-.67.22-1a24.9,24.9,0,0,0,.84-5.32c0-.14,0-.28,0-.42s0-.27,0-.41c.63-1.29,1.19-2.58,1.68-3.88C133.15,119.17,133.16,119.16,133.16,119.15Z"/><path class="cls-28" d="M149.69,220.15c-.45,3.52-2.43,6.1-4.62,8.24a80.3,80.3,0,0,0-1.46-8.8,62.59,62.59,0,0,0-4.36-12.49c-1.63-3.53-4.06-6.6-5.05-10.38-4.41-16.9,1.84-33.54.23-50.41a7.37,7.37,0,0,0-1.24-3.52c.46-2.42.83-4.87,1.06-7.36.15-1.52.25-3.06.41-4.57.05-.51.11-1,.18-1.51,0,0,0,0,0,0-.53,1.41-1.14,2.81-1.82,4.21-.08-1.36-.29-2.7-.33-4.06-.09-2.82.6-5.55.91-8.33s.13-6-1.26-7.85c-1.27-1.67-3.33-1.84-4.19-4.05-1-2.51.27-6-.66-8.55-1.78-4.87-7.93.53-9.88-4.17-.54-1.31-.51-3-1-4.42a4,4,0,0,0-5.17-2.78c-1.92.54-3.78,1.88-5.75,1.79s-4.83-2.87-5.92-6.21c-1.5,5.18-8.08,8.28-9.18,14.36-.58,3.18-.1,6.6-.43,9.87-.29,2.94-1.24,5.64-1.67,8.53a51.36,51.36,0,0,0-.15,10.5c.08,1.47.16,2.94.24,4.41a5.17,5.17,0,0,1-3-4.86c.17-6.26,1.59-12.38,2.11-18.61a40,40,0,0,0-.73-10c0,.13,0,.24,0,.37-.33,5.52-.45,11.21-1.89,16.28a29.41,29.41,0,0,0-1.39,5.65,21.63,21.63,0,0,0,.26,4.36q1,7.87,2,15.74a6.76,6.76,0,0,0-1.85,2.52c-6,13.46-13.12,26.23-16.51,40.6a47.34,47.34,0,0,1-8,17.16c-3.12,4.43-5.24,9-5.7,14.45-.72,8.42,1.5,18.86,6.72,26.23-3.28-1.46-6.54-3.48-8.6-7.21-2.34-4.23-2.8-10.07-5.38-14-1.13-1.73-2.59-3-3.76-4.64-4.18-6-3.26-17.07,1.8-21.56,3.31-3,8-3.47,10.12-8s.48-11,2-16.1c2.18-7.41,9.61-8.57,13.65-14.34,1.77-2.53,2.8-5.84,3.74-9.11a246.79,246.79,0,0,0,6.57-30.09c1.55-10,2.59-20.44,6.43-29.2,5.62-12.81,17.27-20.07,28-17.48,28.07,6.79,23.71,54.12,23.42,82.54a99.29,99.29,0,0,0,1,17.73c.63,3.72,1.65,7.31,2.09,11.08.77,6.68-.28,13.87,1.75,20S150.53,213.44,149.69,220.15Z"/><path class="cls-29" d="M313.53,196.27c2,1,3.2,3.36,4.08,5.8,1.34,3.7,1.66,7.82,2.08,12,.41,4,.53,8.18.61,12.31.11,5.45-.16,12.77-.16,14.44,0,3.42-.15,9.64-.43,13.12-.3,3.75-.65,9.57-2.5,12.87-1.27,2.26-4.35,2-5.3,1.32-2.12-1.44-3.79-9-4.07-12.21-.84-9.44-2.51-19.55-3.48-33.74-.18-2.61-.92-13.15-.71-15.85C304.11,200.42,307.48,193.18,313.53,196.27Z"/><path class="cls-21" d="M320.46,256.6c-.07.9-.15,1.92-.23,3-.53.09-1.06.15-1.59.23a38.39,38.39,0,0,1-12.08-1.9c-1-11.11-2.85-23.09-3.94-39.7-.21-3.16-1.07-15.89-.83-19.16.54-7.18,4.45-15.92,11.48-12.19,2.31,1.22,3.72,4.07,4.74,7,1.56,4.48,1.92,9.45,2.42,14.54.47,4.87.61,9.89.71,14.88.13,6.58-.18,15.44-.19,17.45C321,244.87,320.79,252.4,320.46,256.6Z"/><path class="cls-30" d="M309,255.11c10.72-8.6,7.43-26.44,7.33-37.93,0-3.57-3.31-5.21-6.34-4.95a6.47,6.47,0,0,0-3.9.5,7.06,7.06,0,0,0-3.35,2.91c-.32-4.93-.86-13.88-.66-16.54.54-7.18,4.45-15.92,11.48-12.19,2.31,1.22,3.72,4.07,4.74,7,1.56,4.48,1.92,9.45,2.42,14.54.47,4.87.61,9.89.71,14.88.13,6.58-.18,15.44-.19,17.45,0,4.13-.17,11.65-.5,15.86-.07.9-.15,1.92-.23,3-.53.09-1.06.15-1.59.23a38.39,38.39,0,0,1-12.08-1.9q-.08-.86-.16-1.73A6.22,6.22,0,0,0,309,255.11Z"/><g class="cls-31"><path class="cls-32" d="M302.28,212.82c0,.63.08,1.24.11,1.8l18.46-.45c0-.64-.07-1.27-.11-1.9l-18.44.44S302.29,212.79,302.28,212.82Z"/><path class="cls-32" d="M302.52,216.5h0c0,.7.08,1.29.11,1.7,0,.07,0,.13,0,.21L321,218l-.07-1.91Z"/><path class="cls-32" d="M302.85,221.25c0,.64.09,1.28.15,1.9l18.14-.44c0-.63,0-1.27,0-1.9Z"/><path class="cls-32" d="M304.37,237.8c.07.64.15,1.27.22,1.9l16.41-.4c0-.54,0-1.19,0-1.91Z"/><path class="cls-32" d="M304.8,241.59c.07.64.15,1.28.22,1.9l15.93-.39c0-.68,0-1.32,0-1.9Z"/><path class="cls-32" d="M305.34,246.33c.07.64.15,1.28.22,1.9l15.29-.37c0-.65,0-1.28,0-1.91Z"/></g><path class="cls-29" d="M287.31,138.93c2.87.52,5.25,2.52,7.24,4.68a50.32,50.32,0,0,1,7.55,11.06c2,3.82,3.61,7.81,5.22,11.8q3.18,7.88,6.31,15.79a90,90,0,0,1,3.53,10c1,3.71,2.91,8.67,1.44,12.22s-6.87,5.34-10.48,4.2c-3.15-1-4.89-4.31-6.32-7.33l-16.57-35.18c-1.18-2.49-5.95-12.54-6.66-15.21C277,145.14,278.58,137.34,287.31,138.93Z"/><path class="cls-21" d="M285.61,135.7c3.1.54,5.67,2.66,7.81,4.95a52.94,52.94,0,0,1,8.12,11.74c2.12,4.05,3.87,8.29,5.6,12.53q3.41,8.37,6.77,16.77a94,94,0,0,1,3.78,10.67c1,3.94,3.11,9.21,1.51,13s-7.46,5.7-11.36,4.5c-3.4-1-5.28-4.57-6.81-7.78l-17.79-37.36c-1.26-2.65-6.38-13.31-7.15-16.15C274.41,142.34,276.17,134,285.61,135.7Z"/><path class="cls-30" d="M285.48,135.75a11.67,11.67,0,0,1,5,2.37,8.07,8.07,0,0,0-1.69.43c-9.73,3.69-5.27,17.75-2.64,24a210.41,210.41,0,0,0,21.19,38.31c1.75,2.56,5,3.1,7.85,1.87a6.84,6.84,0,0,0,4.15-4.55c.68,2.78,1.06,5.63.08,7.94-1.62,3.82-7.54,5.76-11.48,4.55-3.44-1.06-5.34-4.62-6.88-7.86l-18-37.76c-1.28-2.68-6.45-13.46-7.23-16.32C274.17,142.46,275.95,134.07,285.48,135.75Z"/><g class="cls-31"><path class="cls-32" d="M281.29,160.59c.23.51.45,1,.67,1.42l16.95-14.21c-.27-.43-.56-.86-.84-1.28Z"/><path class="cls-32" d="M282.63,163.42l.61,1.3a.6.6,0,0,1,.06.12l17.19-14.4c-.25-.45-.51-.9-.77-1.34Z"/><path class="cls-32" d="M284.32,167c.23.48.44.95.67,1.41l17.32-14.52-.71-1.38Z"/><path class="cls-32" d="M288.82,176.43l.68,1.41,17.07-14.31c-.19-.49-.4-1-.61-1.47Z"/><path class="cls-32" d="M290.17,179.26l.68,1.42,16.93-14.2c-.19-.49-.4-1-.6-1.47Z"/><path class="cls-32" d="M291.86,182.79c.22.47.44.95.67,1.42l16.75-14c-.19-.49-.4-1-.6-1.48Z"/><path class="cls-32" d="M297.75,195.16l.67,1.42,16.05-13.47c-.18-.48-.37-1-.57-1.43l0-.05Z"/><path class="cls-32" d="M299.09,198q.34.7.68,1.42l15.87-13.31-.58-1.5Z"/><path class="cls-32" d="M300.78,201.53c.09.18.17.36.26.55s.27.58.42.87l15.52-13c-.16-.53-.34-1-.52-1.56Z"/></g><path class="cls-29" d="M306.86,277.32c0-1.24.81-3.25.77-4.48,0-1.05,0-2.46-.25-2.66s-.74,2.38-1.71,2.24-.79-1.51-.66-2.38c.41-2.76,2.95-6,3.36-8.76.38-2.53-.38-1.69,1.72-2.11a55.45,55.45,0,0,1,8.9-1c.28,0,.57.28.57,1.41s-.74,1.24-.72,1.48c.68,6.07.07,10.22-1.41,16.22"/><rect class="cls-11" x="306.08" y="256.78" width="15.38" height="3.51" rx="0.98" ry="0.98"/><path class="cls-29" d="M210.67,196.27c-2,1-3.2,3.36-4.08,5.8-1.34,3.7-1.66,7.82-2.08,12-.41,4-.53,8.18-.61,12.31-.11,5.45.16,12.77.16,14.44,0,3.42.15,9.64.43,13.12.3,3.75.65,9.57,2.5,12.87,1.27,2.26,4.35,2,5.3,1.32,2.12-1.44,3.79-9,4.07-12.21.84-9.44,2.51-19.55,3.48-33.74.18-2.61.92-13.15.71-15.85C220.09,200.42,216.72,193.18,210.67,196.27Z"/><path class="cls-21" d="M203.73,256.6c.07.9.15,1.92.23,3,.53.09,1.06.15,1.59.23a38.39,38.39,0,0,0,12.08-1.9c1-11.11,2.85-23.09,3.94-39.7.21-3.16,1.07-15.89.83-19.16-.54-7.18-4.45-15.92-11.48-12.19-2.31,1.22-3.72,4.07-4.74,7-1.56,4.48-1.92,9.45-2.42,14.54-.47,4.87-.61,9.89-.71,14.88-.13,6.58.18,15.44.19,17.45C203.24,244.87,203.41,252.4,203.73,256.6Z"/><path class="cls-30" d="M215.16,255.11c-10.72-8.6-7.43-26.44-7.33-37.93,0-3.57,3.31-5.21,6.34-4.95a6.47,6.47,0,0,1,3.9.5,7.06,7.06,0,0,1,3.35,2.91c.32-4.93.86-13.88.66-16.54-.54-7.18-4.45-15.92-11.48-12.19-2.31,1.22-3.72,4.07-4.74,7-1.56,4.48-1.92,9.45-2.42,14.54-.47,4.87-.61,9.89-.71,14.88-.13,6.58.18,15.44.19,17.45,0,4.13.17,11.65.5,15.86.07.9.15,1.92.23,3,.53.09,1.06.15,1.59.23A38.39,38.39,0,0,0,217.3,258q.08-.86.16-1.73A6.22,6.22,0,0,1,215.16,255.11Z"/><g class="cls-31"><path class="cls-32" d="M221.92,212.82c0,.63-.08,1.24-.11,1.8l-18.46-.45c0-.64.07-1.27.11-1.9l18.44.44S221.91,212.79,221.92,212.82Z"/><path class="cls-32" d="M221.68,216.5h0c0,.7-.08,1.29-.11,1.7,0,.07,0,.13,0,.21L203.19,218l.07-1.91Z"/><path class="cls-32" d="M221.35,221.25c0,.64-.09,1.28-.15,1.9l-18.14-.44c0-.63,0-1.27,0-1.9Z"/><path class="cls-32" d="M219.83,237.8c-.07.64-.15,1.27-.22,1.9l-16.41-.4c0-.54,0-1.19,0-1.91Z"/><path class="cls-32" d="M219.4,241.59c-.07.64-.15,1.28-.22,1.9l-15.93-.39c0-.68,0-1.32,0-1.9Z"/><path class="cls-32" d="M218.86,246.33c-.07.64-.15,1.28-.22,1.9l-15.29-.37c0-.65,0-1.28,0-1.91Z"/></g><path class="cls-29" d="M236.89,138.93c-2.87.52-5.25,2.52-7.24,4.68a50.32,50.32,0,0,0-7.55,11.06c-2,3.82-3.61,7.81-5.22,11.8q-3.18,7.88-6.31,15.79a90,90,0,0,0-3.53,10c-1,3.71-2.91,8.67-1.44,12.22s6.87,5.34,10.48,4.2c3.15-1,4.89-4.31,6.32-7.33L239,166.21c1.18-2.49,5.95-12.54,6.66-15.21C247.21,145.14,245.61,137.34,236.89,138.93Z"/><path class="cls-21" d="M238.59,135.7c-3.1.54-5.67,2.66-7.81,4.95a52.94,52.94,0,0,0-8.12,11.74c-2.12,4.05-3.87,8.29-5.6,12.53q-3.41,8.37-6.77,16.77a94,94,0,0,0-3.78,10.67c-1,3.94-3.11,9.21-1.51,13s7.46,5.7,11.36,4.5c3.4-1,5.28-4.57,6.81-7.78L241,164.72c1.26-2.65,6.38-13.31,7.15-16.15C249.78,142.34,248,134,238.59,135.7Z"/><path class="cls-30" d="M238.71,135.75a11.67,11.67,0,0,0-5,2.37,8.07,8.07,0,0,1,1.69.43c9.73,3.69,5.27,17.75,2.64,24a210.41,210.41,0,0,1-21.19,38.31c-1.75,2.56-5,3.1-7.85,1.87a6.84,6.84,0,0,1-4.15-4.55c-.68,2.78-1.06,5.63-.08,7.94,1.62,3.82,7.54,5.76,11.48,4.55,3.44-1.06,5.34-4.62,6.88-7.86l18-37.76c1.28-2.68,6.45-13.46,7.23-16.32C250,142.46,248.25,134.07,238.71,135.75Z"/><g class="cls-31"><path class="cls-32" d="M242.91,160.59c-.23.51-.45,1-.67,1.42L225.29,147.8c.27-.43.56-.86.84-1.28Z"/><path class="cls-32" d="M241.57,163.42l-.61,1.3a.6.6,0,0,0-.06.12l-17.19-14.4c.25-.45.51-.9.77-1.34Z"/><path class="cls-32" d="M239.88,167c-.23.48-.44.95-.67,1.41l-17.32-14.52.71-1.38Z"/><path class="cls-32" d="M235.37,176.43l-.68,1.41-17.07-14.31c.19-.49.4-1,.61-1.47Z"/><path class="cls-32" d="M234,179.26l-.68,1.42-16.93-14.2c.19-.49.4-1,.6-1.47Z"/><path class="cls-32" d="M232.33,182.79c-.22.47-.44.95-.67,1.42l-16.75-14c.19-.49.4-1,.6-1.48Z"/><path class="cls-32" d="M226.45,195.16l-.67,1.42-16.05-13.47c.18-.48.37-1,.57-1.43l0-.05Z"/><path class="cls-32" d="M225.11,198q-.34.7-.68,1.42L208.55,186.1l.58-1.5Z"/><path class="cls-32" d="M223.42,201.53c-.09.18-.17.36-.26.55s-.27.58-.42.87l-15.52-13c.16-.53.34-1,.52-1.56Z"/></g><path class="cls-29" d="M217.33,277.32c0-1.24-.81-3.25-.77-4.48,0-1.05,0-2.46.25-2.66s.74,2.38,1.71,2.24.79-1.51.66-2.38c-.41-2.76-2.95-6-3.36-8.76-.38-2.53.38-1.69-1.72-2.11a55.45,55.45,0,0,0-8.9-1c-.28,0-.57.28-.57,1.41s.74,1.24.72,1.48c-.68,6.07-.07,10.22,1.41,16.22"/><path class="cls-29" d="M251.27,127.7v15.19s10.72,3,21.44,0V125.82S251.27,118.83,251.27,127.7Z"/><path class="cls-29" d="M297.32,264.35c-1.12-43.94-33.86-43.93-33.86-43.93s-33.93-1.69-34.15,45c0,4.24,4.61,2.77,15.35,3.77l14.89,2.62s.53-2.37,4-2.25a3.56,3.56,0,0,1,3.9,2.93l14.88-3.23C293.07,268.27,297.43,268.58,297.32,264.35Z"/><path class="cls-29" d="M247.82,125.31s1.86,5.62,0,9.09c-.46.86,19.25,5.47,26.37.49,0,0-1.38-5.12.33-9.58Z"/><path class="cls-33" d="M273.93,133.8a6,6,0,0,0-5.83-1.34c-3.87,1.42-9.53,1.61-13.24,0a7.39,7.39,0,0,0-6.36.1,16.83,16.83,0,0,0-.67-7.07h26.71A16.67,16.67,0,0,0,273.93,133.8Z"/><path class="cls-29" d="M241.07,96.28c0-9.76,9.37-17.68,20.92-17.68s20.92,7.91,20.92,17.68a15.11,15.11,0,0,1-.77,4.7c0,.38,0,.78,0,1.19a45.63,45.63,0,0,1-.87,10.54,24.32,24.32,0,0,1-12.61,16.89,17.38,17.38,0,0,1-8.11,2.24,16.44,16.44,0,0,1-10.19-4.11c-9-7.47-9.72-18.7-9.09-29.3A15,15,0,0,1,241.07,96.28Z"/><path class="cls-33" d="M254.06,128.56c-7-5.2-9.78-13-10.35-21-.6-8.49-.11-17.19,4-24.85a17,17,0,0,0-6.57,13.12,15.57,15.57,0,0,0,.18,2.23c-.65,11,.15,22.61,9.42,30.35a17,17,0,0,0,10.55,4.26l.69,0A26.86,26.86,0,0,1,254.06,128.56Z"/><path class="cls-34" d="M297.32,250.55c.4-.93.27-15.29.32-16.39.32-6.47.11-21,.08-35.18,0-11.93-.16-32.54-.6-39.55-.4-6.53.13-13.23-.48-14.94-.3-.83-3.31-5.62-6.1-6.88a30.67,30.67,0,0,0-6.59-2.39c-2.54-.42-5.36-1.5-9.88-2.15-1.21,4.1-10,5.5-13.57,5.65-3.45-.15-11.62-2.27-12-5.54-2.13.54-4.74,1.62-7.23,2a33.67,33.67,0,0,0-6.73,2.39c-2.73,1.25-5.68,6-6,6.88-.6,1.71-.08,8.41-.47,14.94-.42,7,1.53,32.92,1.3,44.85-.16,8.35.28,20.73,0,28.87,0,1.1-.28,15.92.11,16.85s3.31,2.24,5,2.88a113.38,113.38,0,0,0,29,3.9C280,256.89,297.32,250.55,297.32,250.55Z"/><path class="cls-21" d="M297.32,250.55c.4-.93.27-15.29.32-16.39.32-6.47.11-21,.08-35.18,0-11.93-.16-32.54-.6-39.55-.4-6.53.13-13.23-.48-14.94-.3-.83-3.31-5.62-6.1-6.88a30.67,30.67,0,0,0-6.59-2.39c-2.54-.42-5.36-1.5-9.88-2.15-1.21,4.1-10,5.5-13.57,5.65-3.45-.15-11.62-2.27-12-5.54-2.13.54-4.74,1.62-7.23,2a33.67,33.67,0,0,0-6.73,2.39c-2.73,1.25-5.68,6-6,6.88-.6,1.71-.08,8.41-.47,14.94-.42,7,1.53,32.92,1.3,44.85-.16,8.35.28,20.73,0,28.87,0,1.1-.28,15.92.11,16.85s3.31,2.24,5,2.88a113.38,113.38,0,0,0,29,3.9C280,256.89,297.32,250.55,297.32,250.55Z"/><path class="cls-34" d="M266.09,256.74c2.85-.09,5.68-.36,8.43-.72A80.85,80.85,0,0,1,266.09,256.74Z"/><path class="cls-35" d="M281.51,112.09A92.15,92.15,0,0,0,286,100.21c2.26-6.91,4.35-14.41,2.61-21.41a21,21,0,0,0-3.42-7,21,21,0,0,0-8.33-4.54A155.18,155.18,0,0,0,261.33,65c-11.49-.27-19.08,2.8-23.66,7.34-.46.45-2.31,3.33-2.76,3.76a5,5,0,0,0-1,1.53c-1.21,2.53-2.43,5.1-2.68,7.79a21.26,21.26,0,0,0,.57,6,58.12,58.12,0,0,0,2,7.87,42.39,42.39,0,0,0,7.34,12.78c0-6.52.94-7.46,1.37-11.33.22-2,.25-5.44.5-7.42s.15-3.87,2.06-5.27c1.75-1.28,2.39-.58,4.8-.61s4.91.1,7.12-.63l.68-2.14a3.75,3.75,0,0,0,2,3.21A13.31,13.31,0,0,0,264,89.47a18.52,18.52,0,0,0,5.11.52c1.68-.11,3.29-.56,5-.71s3.55.08,4.64,1.08a4.59,4.59,0,0,1,1.13,3.47A66.25,66.25,0,0,0,281,104.12"/><path class="cls-36" d="M264,67.25a6.51,6.51,0,0,1,2.11.3,40.94,40.94,0,0,1,12.15.19,12.36,12.36,0,0,0-1.46-.45A155.17,155.17,0,0,0,261.35,65c-11.49-.27-19.08,2.8-23.66,7.34-.46.45-2.31,3.33-2.76,3.76a5,5,0,0,0-1,1.53c-1.21,2.53-2.43,5.1-2.68,7.79a21.26,21.26,0,0,0,.57,6,58.12,58.12,0,0,0,2,7.87,42.38,42.38,0,0,0,7.34,12.78V112a5.45,5.45,0,0,1-.44-1.11c-2.78-10-7.89-19.92-2.18-30C243,73,254.43,67.38,264,67.25Z"/><path class="cls-36" d="M282.52,90.56c-.85-4.82-8-3.27-11.94-3.13s-8.05.31-11.63-1.6a6.16,6.16,0,0,1-.87-.58c0,.07,0,.13-.06.2s-.11.27-.16.4a4.53,4.53,0,0,0,1.81,2.05A13.31,13.31,0,0,0,264,89.47a18.52,18.52,0,0,0,5.11.52c1.68-.11,3.29-.56,5-.71s3.55.08,4.64,1.08a4.59,4.59,0,0,1,1.13,3.47c.05,1.31.16,2.61.29,3.91C281.6,95.55,283,93.5,282.52,90.56Z"/><path class="cls-30" d="M297.36,250.38a.88.88,0,0,1,0,.17,122.3,122.3,0,0,1-17,4.54c-1.63.31-3.32.59-5.06.84l-.75.1c-2.75.36-5.58.63-8.43.72-.92,0-1.83.05-2.73,0l-1.54,0a112.62,112.62,0,0,1-27.23-3.88c-1.74-.64-4.63-1.89-5-2.88s-.15-15.75-.11-16.86c.28-8.13-.16-20.52,0-28.87.23-11.93-1.72-37.84-1.29-44.85.39-6.53-.14-13.23.47-14.94a21,21,0,0,1,3.91-5.38,65.78,65.78,0,0,0,.9,9.58c.66,3.91-.4,8.07-.52,12-.25,8.66-.19,17.5.06,26.16.26,9,2.22,17.91,2.53,26.92.27,8.11,1,14.86,6.41,21.67a6.93,6.93,0,0,0,.71.75c5.37,6.39,17.18,9.65,25,11.31C277.23,249.56,287.38,250.15,297.36,250.38Z"/><path class="cls-37" d="M297.59,250.39l0,.15a123.15,123.15,0,0,1-17.22,4.54,122.3,122.3,0,0,0,17-4.54.88.88,0,0,0,0-.17Z"/><rect class="cls-11" x="202.74" y="256.78" width="15.38" height="3.51" rx="0.98" ry="0.98"/><path class="cls-11" d="M256.34,119.39a15.72,15.72,0,0,0,10.79-.45,7.59,7.59,0,0,1-5.82,2.38A7.37,7.37,0,0,1,256.34,119.39Z"/><path class="cls-38" d="M259.09,112.92c3.81.72,5.37-1.39,5.4-3.17C265.46,113,262.86,114.79,259.09,112.92Z"/><path class="cls-39" d="M270.53,101.45a1.41,1.41,0,0,0-.38.77c-.15,1-.36,2.79.85,3.34,1.46.66,2.14-1.1,2.18-2.11a2.66,2.66,0,0,0-.55-1.88A1.41,1.41,0,0,0,270.53,101.45Z"/><path class="cls-39" d="M253.07,101.45a1.41,1.41,0,0,1,.38.77c.15,1,.36,2.79-.85,3.34-1.46.66-2.14-1.1-2.18-2.11a2.66,2.66,0,0,1,.55-1.88A1.41,1.41,0,0,1,253.07,101.45Z"/><path class="cls-40" d="M266.72,94.18c2-.4,5.25-1.23,8.71,1.51,1.56,1.23,1.27,1.82-.47.67-2.95-2-4.92-1.31-8.05-.75C265.7,95.83,265.37,94.45,266.72,94.18Z"/><path class="cls-40" d="M255.84,94.18c-2-.4-5.25-1.23-8.71,1.51-1.56,1.23-1.27,1.82.47.67,2.95-2,4.92-1.31,8.05-.75C256.87,95.83,257.2,94.45,255.84,94.18Z"/><g class="cls-31"><path class="cls-32" d="M296.93,147.14H228.31a15.38,15.38,0,0,1,.15-2.06h68.33A17.55,17.55,0,0,1,296.93,147.14Z"/><path class="cls-32" d="M297,149.2v2.06H228.28c0-.72,0-1.42,0-2.06Z"/><path class="cls-32" d="M297,156.42H228.25c0-.7,0-1.39,0-2.06H297C297,155,297,155.73,297,156.42Z"/><path class="cls-32" d="M297.46,169.82H228.25c0-.71-.06-1.4-.08-2.06h69.24C297.42,168.43,297.44,169.11,297.46,169.82Z"/><path class="cls-32" d="M297.52,173.95h-69.1c0-.7-.06-1.39-.09-2.06h69.16C297.5,172.56,297.51,173.25,297.52,173.95Z"/><path class="cls-32" d="M297.58,179.1H228.66l-.1-2.06h69C297.57,177.72,297.58,178.41,297.58,179.1Z"/><path class="cls-32" d="M297.69,193.54H229.26l-.07-2.06h68.49C297.68,192.18,297.69,192.87,297.69,193.54Z"/><path class="cls-32" d="M297.7,195.6v2.06H229.38c0-.67,0-1.36-.06-2.06Z"/><path class="cls-32" d="M229.43,202.82c0-.66,0-1.34,0-2.06h68.29c0,.69,0,1.37,0,2.06Z"/><path class="cls-32" d="M297.77,212.1H229.39c0-.7,0-1.38,0-2.06h68.38C297.77,210.73,297.77,211.42,297.77,212.1Z"/><path class="cls-32" d="M297.8,216.22H229.44c0-.69,0-1.38,0-2.06h68.37C297.78,214.86,297.8,215.54,297.8,216.22Z"/><path class="cls-32" d="M297.81,221.38H229.5c0-.69,0-1.37,0-2.06H297.8C297.81,220,297.81,220.71,297.81,221.38Z"/><path class="cls-32" d="M297.75,230.66c0,.74,0,1.42-.06,2.06H229.43c0-.66,0-1.35,0-2.06Z"/><path class="cls-32" d="M297.63,234.78c0,.48,0,1.2,0,2.06H229.35c0-.78,0-1.48,0-2.06Z"/><path class="cls-32" d="M297.6,239.93c0,.67,0,1.36,0,2.06H229.32c0-.69,0-1.38,0-2.06Z"/></g><path class="cls-11" d="M248.75,133.18s10.93,11.24,25.55-.11a3.68,3.68,0,0,1,3.54.65S263.32,148.81,246,134C244.62,132.77,248.47,131.92,248.75,133.18Z"/><path class="cls-41" d="M339.43,62.11c-10.3-2.49-21.46,4.48-26.85,16.76-3.68,8.4-4.68,18.41-6.16,28a238.16,238.16,0,0,1-6.3,28.86c-.89,3.13-1.89,6.31-3.59,8.74-3.88,5.53-11,6.64-13.09,13.75-1.44,4.89.18,11-1.89,15.44s-6.53,4.87-9.71,7.7c-4.85,4.32-5.74,15-1.72,20.67,1.12,1.6,2.52,2.8,3.6,4.45,2.47,3.79,2.92,9.39,5.15,13.44s5.77,5.92,9.24,7.35a57.43,57.43,0,0,0,18.81,4.31c4.25.23,8.82-.17,12.22-3.69,1.55-1.61,2.77-3.79,4.41-5.24,3-2.67,6.85-2.5,10.38-1.84,7.06,1.31,14.28,4.19,21.19,1.78,4.11-1.43,7.75-4.63,11.32-7.78,2.66-2.35,5.56-5.19,6.1-9.46.81-6.43-4-11.29-6-17.24s-.94-12.81-1.68-19.21c-.42-3.61-1.39-7.06-2-10.62a95.29,95.29,0,0,1-1-17C362.16,114,366.34,68.62,339.43,62.11Z"/><path class="cls-42" d="M366.51,188.09c-2-5.91-.94-12.81-1.68-19.21-.42-3.61-1.39-7.06-2-10.62a95.28,95.28,0,0,1-1-17c.28-27.26,4.45-72.63-22.46-79.14-10.3-2.49-21.46,4.48-26.85,16.76-3.68,8.4-4.68,18.41-6.16,28a238.15,238.15,0,0,1-6.3,28.86c-.89,3.13-1.89,6.31-3.59,8.74-3.88,5.53-11,6.64-13.09,13.75-1.44,4.89.18,11-1.89,15.44s-6.53,4.87-9.71,7.7c-4.85,4.32-5.74,15-1.72,20.67,1.12,1.6,2.52,2.8,3.6,4.45,2.47,3.79,2.91,9.39,5.15,13.44,2,3.58,5.1,5.52,8.25,6.92-5-7.08-7.14-17.09-6.45-25.15a27.58,27.58,0,0,1,5.46-13.85,45.34,45.34,0,0,0,7.71-16.46c3.26-13.78,10.08-26,15.83-38.94a5.46,5.46,0,0,1,6.57-3.41c2.18-2.73,5.87-3.76,9.74-3.47,5.26-3.24,10.65-5.78,17-2a13.18,13.18,0,0,1,4.79,4.85c3.91-1.43,9.58.64,10.11,6.15,1.55,16.17-4.44,32.13-.21,48.33.95,3.63,3.28,6.57,4.85,10a60.36,60.36,0,0,1,4.18,12,78.25,78.25,0,0,1,1.4,8.44c2.09-2.05,4-4.52,4.42-7.9C373.33,198.9,368.48,194,366.51,188.09Z"/><path class="cls-28" d="M290,273.72c-.32-2.88.31-1.92-1.44-2.4a34.82,34.82,0,0,0-7.46-1.11c-.23,0-.48.32-.48,1.6s.62,1.41.6,1.68"/><path class="cls-28" d="M307.64,133.27c-2.4.59-4.4,2.87-6.07,5.33a61.35,61.35,0,0,0-6.33,12.59c-1.66,4.34-3,8.89-4.38,13.43q-2.67,9-5.29,18c-1.1,3.76-2.2,7.53-3,11.44-.82,4.22-2.44,9.87-1.21,13.91s5.77,6.08,8.79,4.78c2.64-1.13,4.1-4.91,5.3-8.35l13.9-40.05c1-2.84,5-14.27,5.59-17.31C316.3,140.34,315,131.46,307.64,133.27Z"/><path class="cls-28" d="M290.42,266.48c.7-10.75,2.1-22.26,2.92-38.41.15-3,.78-15,.6-18-.39-6.76-3.21-15-8.29-11.48-1.67,1.15-2.69,3.83-3.42,6.6-1.12,4.22-1.39,8.9-1.74,13.69-.34,4.59-.44,9.31-.51,14-.09,6.2.13,14.54.13,16.43,0,3.89.12,11,.36,14.93.25,4.27.54,10.9,2.1,14.65"/><path class="cls-28" d="M423.3,153.33c.2.13.58,0,1.26-1.1s.22-1.53.38-1.74a63,63,0,0,0,8.79-16.28c.58-1.46,1.13-3.11.69-4.4-.22-.66-.21-2.54-.67-3-1.12-1.1-3-.79-4.67-.18a6.31,6.31,0,0,0-2.85,2.84c-.72,1.21-1.39,3.49-2.16,4.66-.66,1-1.47,2.39-1.78,2.46s.92-2.63.14-2.92-1.47,1.11-1.9,2c-1.37,2.85-1.53,7.1-2.9,9.95-1.26,2.61-1.28,1.46-.05,2.8A34.82,34.82,0,0,0,423.3,153.33Z"/><path class="cls-28" d="M361.81,132.3c2.4.59,4.4,2.87,6.07,5.33a61.35,61.35,0,0,1,6.33,12.59c1.66,4.34,3,8.89,4.38,13.43q2.67,9,5.29,18c1.1,3.76,2.2,7.53,3,11.44.82,4.22,2.44,9.87,1.21,13.91s-5.77,6.08-8.79,4.78c-2.64-1.13-4.1-4.91-5.3-8.35l-13.9-40.05c-1-2.84-5-14.27-5.59-17.31C353.16,139.37,354.5,130.49,361.81,132.3Z"/><path class="cls-28" d="M381.4,211.64c2-.09,4.31-1.82,6.4-3.78,3.19-3,5.9-6.81,8.74-10.68,2.72-3.71,5.31-7.66,7.87-11.61,3.37-5.21,7.6-12.4,8.6-14,2.06-3.3,5.72-9.37,7.62-12.85,2-3.75,5.32-9.53,6-13.53a2.91,2.91,0,0,0-3-3.63c-2.38.45-8.16,7-10.27,10-6.3,8.74-13.59,17.75-22.84,31-1.71,2.44-8.6,12.28-10.08,15C377.21,203.44,375.23,211.92,381.4,211.64Z"/><path class="cls-28" d="M369.4,244.57c-.27-9.49-9.78-19.58-9.82-36.09,0-13.91,9-34.56,8.59-42.73-.38-7.62-4.88-23-5.46-24.94-.28-1,4.93-5.17,2.31-6.63-.57-.32-3.14-2.51-5.51-3s-5.68-.8-8.31-1.8a30.7,30.7,0,0,0-10.93-2c-3.32-.17-4.33.27-8,.34,0-.13,0-.25,0-.38a60.15,60.15,0,0,1-6.44.66c-5.51-.1-7.62,2-10.19,2.49a72.28,72.28,0,0,0-9.54,3.2c-2.82,1.43,4.73,5.74,4.42,6.68-.62,1.95-5.48,16.92-5.89,24.35-.44,8,9.29,28.14,9.26,41.72,0,16.12-10.28,26-10.58,35.23,0,1.25-1.47,19-1.07,20s2.07,2.49,3.86,3.22l1.54-.68a11.73,11.73,0,0,0,.07,2.17c.41,1.16,1.36-1,3.06-.29l5.07.91c0,.06,5.6.5,5.9.56.86.24,6.73,1.2,6.87,1.26,2.19.84,8.18-.08,13.76.78,5.45-.86,7.14.06,9.28-.78.14-.06,5.88-1,6.72-1.26.29-.07,5.78-.5,5.78-.56l2.68,1.3a7,7,0,0,0,3.58-3.3C370.76,264,369.44,245.85,369.4,244.57Z"/><path class="cls-28" d="M331.86,272.92a4.16,4.16,0,0,1,4.33-3.54c3.83-.07,4.22,4.61,4.22,4.61"/><path class="cls-28" d="M372.87,273.2c-1.21-69.06-36.58-69-36.58-69s-36.65-2.66-36.9,70.75"/><path class="cls-43" d="M324.68,120.92s2.6,4.94,0,8.57c-.48.67,12.88,5.16,17.65.46,0,0-2.35-4.64.22-9Z"/><path class="cls-44" d="M332.5,124.8h7.81a6.74,6.74,0,0,1,1.06.11,8.77,8.77,0,0,1,1.19-4H324.68s2.6,4.94,0,8.57c-.09.13.31.39,1.06.7A7.12,7.12,0,0,1,332.5,124.8Z"/><path class="cls-28" d="M313.86,85.61a19.76,19.76,0,1,1,39.5-.38,20.45,20.45,0,0,1-.68,5.36c0,.44,0,.88,0,1.35a62.36,62.36,0,0,1-.71,12c-1.32,7.71-4.88,14.9-11.72,19.35a14.35,14.35,0,0,1-7.64,2.62c-3.68,0-7.08-2-9.66-4.59-8.53-8.42-9.39-21.2-8.91-33.27A20.55,20.55,0,0,1,313.86,85.61Z"/><path class="cls-43" d="M335,123.53c-9.59-3.51-14-13.31-14.12-23-.08-5.37,1.46-10.6,1.65-15.94.13-3.79-.27-7.53,1.48-11,3.75-7.5,11.66-6.05,18.64-5.72.23,0,.45,0,.67.07a19.36,19.36,0,0,0-9.86-2.59,19.94,19.94,0,0,0-19.56,20.31,20.55,20.55,0,0,0,.18,2.45c-.48,12.07.37,24.84,8.91,33.27,2.58,2.55,6,4.59,9.66,4.59a12.79,12.79,0,0,0,5.7-1.51A19.05,19.05,0,0,1,335,123.53Z"/><path class="cls-41" d="M315.88,149.41,315,129.93a6.1,6.1,0,0,1-2.73-5.5c.16-7.09,1.45-14,1.93-21.11a55.67,55.67,0,0,0-.66-11.3c0,.14,0,.28,0,.43-.3,6.26-.4,12.72-1.73,18.48a38.89,38.89,0,0,0-1.27,6.4,29.88,29.88,0,0,0,.23,4.95l3.31,32.1a20.8,20.8,0,0,0,.94,5.08c1.31,3.42,3.94,3.4,5.92,5.3a19.71,19.71,0,0,1-4.21-7.66A38.58,38.58,0,0,1,315.88,149.41Z"/><path class="cls-41" d="M355.71,131c0,.34,0,.68,0,1a37,37,0,0,1-.83,6.56,195.75,195.75,0,0,0-2.67,21c1.94-8.56,3.9-17.24,4.62-26.47.18-2.3.29-4.63.55-6.9Q356.66,128.63,355.71,131Z"/><path class="cls-21" d="M365.11,183.91c-1.6,2.15-4.88,5.93-8.85,6.74-5.62,1.13-9.77.43-15.7-1.83.21.32,3.75,5.34,12.66,5.34a14.61,14.61,0,0,0,9-3.42c-1,10.16-3.81,21.28-1,28.08,0,0-20.73,13.5-49.55.9,0,0,3.5-16.79-2.45-31.65A18.8,18.8,0,0,0,321,192.14c.9,0,1.68,0,2.37-.11a10,10,0,0,0,3.17-.79c1.28-.61,1.46-1.28,1.46-1.28-8.49,2.33-13.59-2.74-14.09-3.28l0,0h0a2.72,2.72,0,0,1-.33-.23l-.14-.11c-.72-.63-2.1-2.21-3.32-5.71-.32-.92-.63-2-.92-3.21a15.63,15.63,0,0,1-.69-3.63,23.45,23.45,0,0,1,0-4.05,2.68,2.68,0,0,1,0-.34c0-.06,0-.11,0-.17a20.06,20.06,0,0,1,.5-3.23c0-.15.07-.32.11-.48l0-.18c.19-1,.44-1.94.7-2.88.17-.58.32-1.17.47-1.75a94.42,94.42,0,0,0,1.94-9.62c0-.14,0-.26.07-.4s.06-.41.08-.62a146.72,146.72,0,0,0,1.27-18.86l-2.48.77c1.43,3.12,1,8.62,0,14.14a4,4,0,0,0-.37.33c1.13-5.64,1.65-11.36.17-14.53,0,0,7.38-2.26,8.85-2.62,0,0,6.36,33,16.41,33.61s20.39-27.34,19.64-32.38c0,0,7.66,1.86,9.47,3.85,0,0-.5,20.32,2.08,32C367.49,166.28,370.68,171.61,365.11,183.91Z"/><path class="cls-27" d="M314.78,221q-.71-5.47-1.24-11c-.57-5.85.69-12.78-2.05-18.14-.37-.16-.75-.3-1.12-.48,4.26,13.92,1.27,28.3,1.27,28.3C312.7,220.18,313.74,220.59,314.78,221Z"/><path class="cls-27" d="M328,190s-.18.68-1.46,1.28a10,10,0,0,1-3.17.79c-.69.07-1.48.11-2.37.11a18.8,18.8,0,0,1-11.81-4.08c-.34-.88-.73-1.76-1.16-2.63-7.53-15.44-1.61-23.1-1.61-23.1a126.62,126.62,0,0,0,4.47-15.92,4,4,0,0,1,.37-.33c1-5.53,1.41-11,0-14.14l2.48-.77A146.72,146.72,0,0,1,312.43,150c0,.21-.06.4-.08.62s0,.26-.07.4a94.42,94.42,0,0,1-1.94,9.62c-.15.58-.3,1.17-.47,1.75-.26.94-.51,1.9-.7,2.88l0,.18c0,.17-.08.33-.11.48a20.06,20.06,0,0,0-.5,3.23c0,.06,0,.11,0,.17a2.68,2.68,0,0,0,0,.34,23.45,23.45,0,0,0,0,4.05,15.63,15.63,0,0,0,.69,3.63c.29,1.23.61,2.29.92,3.21,1.23,3.5,2.61,5.07,3.32,5.71l.14.11a2.72,2.72,0,0,0,.33.23h0l0,0C314.41,187.22,319.51,192.29,328,190Z"/><path class="cls-33" d="M308.44,173.73a23.45,23.45,0,0,1,0-4.05C308.41,170.77,308.39,172.05,308.44,173.73Z"/><path class="cls-33" d="M309.13,177.36a15.63,15.63,0,0,1-.69-3.63C308.64,175.07,308.88,176.27,309.13,177.36Z"/><path class="cls-27" d="M365.11,183.91c-.12.28-.25.55-.39.84q-1.43,3-2.51,6a14.61,14.61,0,0,1-9,3.42c-8.91,0-12.45-5-12.66-5.34,5.93,2.26,10.08,3,15.7,1.83C360.23,189.84,363.51,186.06,365.11,183.91Z"/><path class="cls-41" d="M327,97.54c-2.77,3.35-6.2,6.05-10.15,7.1a6.46,6.46,0,0,1-5.34-.51c-2.16-1.48-3-4.58-3.56-7.36a17,17,0,0,1-.55-5.86,15.45,15.45,0,0,1,1.57-4.34c1.52-3.16,3-6.29,4.58-9.44,0,.45,0,.92,0,1.39a13.57,13.57,0,0,0-1.67,3.86,13,13,0,0,0-3,13.85,9.36,9.36,0,0,0,.54,1.2h0c1.52,2.78,4.59,4.63,7.93,3.61A92.49,92.49,0,0,0,327,97.54Z"/><path class="cls-17" d="M327.17,93.29a29.72,29.72,0,0,1-4.25,3.76C324.95,95.41,326.59,93.85,327.17,93.29Z"/><path class="cls-41" d="M358.8,99a5.29,5.29,0,0,1-5.16,1.66c-2.19-.47-4.12-2-5.94-3.49-2-1.68-3.9-3.45-5.76-5.32s-3.63-4.77-5.65-6.19c-1-.7-1.7-.52-2.22.08,1.27,1.53,2.51,3.17,3.75,4.4,2.33,2.32,4.76,4.52,7.25,6.59,2.29,1.9,4.74,3.74,7.54,4.27a7.06,7.06,0,0,0,6.23-1.77C358.82,99.17,358.81,99.09,358.8,99Z"/><path class="cls-23" d="M331.36,115c.8.31,3-.88,4.1-.8s.93-.19,1.71-.33,2.66.06,3.89-.61a7.9,7.9,0,0,1-2.29,3.46,4.55,4.55,0,0,1-4.11.72A7.08,7.08,0,0,1,331.36,115Z"/><path class="cls-23" d="M330.45,114.63l.13,0,.37.13c.31.12.75.29,1.29.45a8.07,8.07,0,0,0,.88.2,8.26,8.26,0,0,0,1,.11,7.11,7.11,0,0,0,1.07,0,9.06,9.06,0,0,0,1.1-.18,11.68,11.68,0,0,0,3.84-1.42c.23-.15.45-.3.63-.44a5,5,0,0,0,.45-.39l.27-.27.09-.1-.08.11a3.58,3.58,0,0,1-.23.31,5.21,5.21,0,0,1-.41.45,5,5,0,0,1-.6.51,8.07,8.07,0,0,1-1.72,1,12,12,0,0,1-2.17.66,9.63,9.63,0,0,1-1.14.17,6.54,6.54,0,0,1-1.12,0,6.18,6.18,0,0,1-1-.17,8.6,8.6,0,0,1-.89-.27,10,10,0,0,1-1.26-.59l-.34-.18Z"/><path class="cls-11" d="M331.84,115.2a11.78,11.78,0,0,0,8.71-1.57,6,6,0,0,1-4.45,2.75A5.8,5.8,0,0,1,331.84,115.2Z"/><path class="cls-25" d="M342.55,98.46a1.32,1.32,0,0,0-.31.69c-.13.9-.3,2.51.7,3,1.19.59,1.75-1,1.79-1.9a2.57,2.57,0,0,0-.45-1.7A1.09,1.09,0,0,0,342.55,98.46Z"/><path class="cls-25" d="M328.25,98.46a1.32,1.32,0,0,1,.31.69c.13.9.3,2.51-.7,3-1.19.59-1.75-1-1.79-1.9a2.57,2.57,0,0,1,.45-1.7A1.09,1.09,0,0,1,328.25,98.46Z"/><path class="cls-26" d="M339.43,91.91c1.63-.36,4.3-1.1,7.13,1.36,1.28,1.11,1,1.64-.38.6-2.41-1.77-4-1.18-6.59-.68C338.59,93.39,338.33,92.16,339.43,91.91Z"/><path class="cls-26" d="M330.52,91.91c-1.63-.36-4.3-1.1-7.13,1.36-1.28,1.11-1,1.64.38.6,2.41-1.77,4-1.18,6.59-.68C331.36,93.39,331.63,92.16,330.52,91.91Z"/><path class="cls-42" d="M327.77,96.53c-2.9,3.81-6.62,7-10.95,8.12a6.43,6.43,0,0,1-5.34-.52c-2.17-1.47-3-4.57-3.56-7.36a16.68,16.68,0,0,1-.55-5.86,15.14,15.14,0,0,1,1.57-4.34L314,76c1.4-2.89,2.83-5.82,5-8s5.1-3.61,8-2.83c1.31.36,2.63-.29,3.89-.76.63-.23,1.17.68,1.71.24,4.14-3.47,10.37-2.07,14.51,1.73s6.62,9.46,8.71,15q1.69,4.48,3.16,9.06c.81,2.5,1.54,5.37.46,7.65a5.1,5.1,0,0,1-5.75,2.55c-2.19-.46-4.13-2-5.95-3.49q-3-2.51-5.76-5.32c-1.82-1.83-3.63-4.77-5.65-6.2-2.39-1.68-3,1.71-4.11,3.77A51.06,51.06,0,0,1,327.77,96.53Z"/><path class="cls-24" d="M335.26,109.53c1.69.35,2.39-.68,2.4-1.55C338.08,109.58,336.93,110.44,335.26,109.53Z"/><rect class="cls-45" x="63.86" y="220.28" width="317.64" height="58.72" rx="17.67" ry="17.67"/><path class="cls-11" d="M188.09,253.11a1.1,1.1,0,0,1,.34.8,1,1,0,0,1-.34.81,1.23,1.23,0,0,1-.86.32h-6.6a1.18,1.18,0,0,1-1.2-1.2V242.44a1.18,1.18,0,0,1,1.2-1.2h6.6a1.2,1.2,0,0,1,.86.33,1.1,1.1,0,0,1,.34.84,1,1,0,0,1-.33.8,1.24,1.24,0,0,1-.87.31h-5.34v3.35h4.45a1.2,1.2,0,0,1,.86.33,1.1,1.1,0,0,1,.35.84,1,1,0,0,1-.34.8,1.24,1.24,0,0,1-.87.31h-4.45v3.65h5.34A1.17,1.17,0,0,1,188.09,253.11Z"/><path class="cls-11" d="M203.52,241.56a1.13,1.13,0,0,1,.36.86v11.41a1.16,1.16,0,0,1-1.22,1.2,1.23,1.23,0,0,1-.9-.33,1.16,1.16,0,0,1-.34-.87v-7.94l-3.25,5a1.68,1.68,0,0,1-.45.38.92.92,0,0,1-.53.13.88.88,0,0,1-.51-.13,1.67,1.67,0,0,1-.45-.38L193,245.71v8.12a1.22,1.22,0,0,1-.32.87,1.08,1.08,0,0,1-.83.33,1,1,0,0,1-.81-.34,1.22,1.22,0,0,1-.32-.86V242.42a1.14,1.14,0,0,1,.36-.85,1.21,1.21,0,0,1,.88-.36,1.31,1.31,0,0,1,.59.15,1.15,1.15,0,0,1,.45.38l4.3,6.6,4.42-6.6a1.2,1.2,0,0,1,.42-.38,1.1,1.1,0,0,1,.54-.15A1.21,1.21,0,0,1,203.52,241.56Z"/><path class="cls-11" d="M214.45,241.83a4.46,4.46,0,0,1,1.46,1.62,4.71,4.71,0,0,1,0,4.42,4.43,4.43,0,0,1-1.46,1.63,3.41,3.41,0,0,1-1.91.6h-3.43v3.73a1.22,1.22,0,0,1-.32.87,1.08,1.08,0,0,1-.83.33,1,1,0,0,1-.81-.34,1.22,1.22,0,0,1-.32-.86V242.44a1.18,1.18,0,0,1,1.2-1.2h4.49A3.41,3.41,0,0,1,214.45,241.83Zm-1.17,5.71a2.32,2.32,0,0,0,.59-.82,2.57,2.57,0,0,0,0-2.11,2.22,2.22,0,0,0-.59-.81,1.15,1.15,0,0,0-.74-.31h-3.43v4.36h3.43A1.13,1.13,0,0,0,213.28,247.54Z"/><path class="cls-11" d="M227.39,253.11a1.1,1.1,0,0,1,.34.8,1,1,0,0,1-.34.81,1.23,1.23,0,0,1-.86.32h-6.6a1.18,1.18,0,0,1-1.2-1.2V242.44a1.18,1.18,0,0,1,1.2-1.2h6.6a1.2,1.2,0,0,1,.86.33,1.1,1.1,0,0,1,.34.84,1,1,0,0,1-.33.8,1.24,1.24,0,0,1-.87.31h-5.34v3.35h4.45a1.2,1.2,0,0,1,.86.33,1.1,1.1,0,0,1,.35.84,1,1,0,0,1-.34.8,1.24,1.24,0,0,1-.87.31h-4.45v3.65h5.34A1.17,1.17,0,0,1,227.39,253.11Z"/><path class="cls-11" d="M240.33,243.14l-7.49,9.62h6.29a1.24,1.24,0,0,1,.87.31,1.05,1.05,0,0,1,.34.82,1.08,1.08,0,0,1-.35.82,1.2,1.2,0,0,1-.86.33h-8.65a1.25,1.25,0,0,1-.89-.35,1.09,1.09,0,0,1-.37-.81,1.26,1.26,0,0,1,.28-.75L237,243.5h-5.7a1.21,1.21,0,0,1-.87-.32,1.08,1.08,0,0,1-.33-.83,1,1,0,0,1,.34-.81,1.22,1.22,0,0,1,.86-.32h8.06a1.35,1.35,0,0,1,.88.33,1,1,0,0,1,.4.83A1.26,1.26,0,0,1,240.33,243.14Z"/><path class="cls-11" d="M253.69,254a1.12,1.12,0,0,1-.34.84,1.07,1.07,0,0,1-.77.33,1,1,0,0,1-.64-.22,1.41,1.41,0,0,1-.44-.59l-1-2.38H244.6l-1,2.41a1.22,1.22,0,0,1-.42.58,1,1,0,0,1-.62.21.94.94,0,0,1-1-1,1.3,1.3,0,0,1,.06-.37l4.91-11.79a1.3,1.3,0,0,1,.47-.61,1,1,0,0,1,.71-.18,1.16,1.16,0,0,1,.66.21,1.17,1.17,0,0,1,.44.58l4.85,11.55A1.33,1.33,0,0,1,253.69,254Zm-8.12-4.3h3.94l-2-4.61Z"/><path class="cls-11" d="M266.59,253.51a1.05,1.05,0,0,1,.15.53,1,1,0,0,1-.24.65,1.11,1.11,0,0,1-.91.35,1.77,1.77,0,0,1-.87-.22q-1.42-.81-1.42-3.29a1.43,1.43,0,0,0-.46-1.12,1.94,1.94,0,0,0-1.33-.41h-3.69v3.82a1.29,1.29,0,0,1-.29.87,1,1,0,0,1-.76.33,1.53,1.53,0,0,1-1-.34,1.06,1.06,0,0,1-.42-.86V242.44a1.18,1.18,0,0,1,1.2-1.2h5.68a3.65,3.65,0,0,1,1.93.55,4.08,4.08,0,0,1,1.45,1.52,4.35,4.35,0,0,1,.54,2.17,3.85,3.85,0,0,1-.53,1.92,4.25,4.25,0,0,1-1.38,1.49,3,3,0,0,1,1.36,2.33,3.31,3.31,0,0,1,.06.61,6.19,6.19,0,0,0,.16.88.65.65,0,0,0,.35.4A1.17,1.17,0,0,1,266.59,253.51Zm-3.75-5.87a2.54,2.54,0,0,0,.55-.9,3.34,3.34,0,0,0,.22-1.21,2.37,2.37,0,0,0-.22-1,2.09,2.09,0,0,0-.55-.74,1.08,1.08,0,0,0-.69-.28h-4.32V248h4.32A1,1,0,0,0,262.84,247.64Z"/></g></g></svg>