<svg id="Layer_1" data-name="Layer 1" xmlns="http://www.w3.org/2000/svg" viewBox="0 0 165 30.5"><defs><style>.cls-1{fill:#4ca2ae;}.cls-2{fill:#fff;}</style></defs><title>exploraLaPaz</title><rect class="cls-1" width="165" height="30.5" rx="14.53" ry="14.53"/><path class="cls-2" d="M46.21,17.84a.57.57,0,0,1,.18.42.54.54,0,0,1-.18.42.64.64,0,0,1-.45.16H42.34a.61.61,0,0,1-.62-.62V12.29a.61.61,0,0,1,.62-.62h3.43a.63.63,0,0,1,.45.17.57.57,0,0,1,.18.44.53.53,0,0,1-.18.42.64.64,0,0,1-.45.16H43v1.74h2.31a.62.62,0,0,1,.44.17.58.58,0,0,1,.18.44.54.54,0,0,1-.18.42.64.64,0,0,1-.45.16H43v1.89h2.78A.61.61,0,0,1,46.21,17.84Z"/><path class="cls-2" d="M52.91,17.89a.61.61,0,0,1,.12.38.57.57,0,0,1-.19.44.62.62,0,0,1-.42.17.61.61,0,0,1-.5-.27L50.1,16.19,48.33,18.6a.61.61,0,0,1-.51.29.53.53,0,0,1-.39-.16.52.52,0,0,1-.16-.38.68.68,0,0,1,.15-.42l2-2.67-2-2.62a.57.57,0,0,1-.13-.37.58.58,0,0,1,.19-.44.6.6,0,0,1,.93.08l1.8,2.4L52,12a.75.75,0,0,1,.23-.22.53.53,0,0,1,.27-.08.54.54,0,0,1,.4.18.56.56,0,0,1,.17.39.61.61,0,0,1-.13.37l-2,2.63Z"/><path class="cls-2" d="M58.23,12a2.3,2.3,0,0,1,.76.84,2.44,2.44,0,0,1,0,2.3,2.3,2.3,0,0,1-.76.84,1.76,1.76,0,0,1-1,.31H55.45v1.94a.64.64,0,0,1-.16.45.57.57,0,0,1-.43.17.54.54,0,0,1-.42-.18.64.64,0,0,1-.16-.45V12.29a.61.61,0,0,1,.62-.62h2.33A1.76,1.76,0,0,1,58.23,12Zm-.61,3a1.21,1.21,0,0,0,.31-.42,1.34,1.34,0,0,0,0-1.1,1.16,1.16,0,0,0-.31-.42.59.59,0,0,0-.38-.16H55.45v2.26h1.78A.58.58,0,0,0,57.62,14.94Z"/><path class="cls-2" d="M64.84,17.81a.57.57,0,0,1,.18.44.56.56,0,0,1-.18.42.62.62,0,0,1-.45.17H61.07a.61.61,0,0,1-.62-.62V12.29a.59.59,0,0,1,.18-.44.65.65,0,0,1,.47-.18.61.61,0,0,1,.44.18.59.59,0,0,1,.18.44v5.35H64.4A.63.63,0,0,1,64.84,17.81Z"/><path class="cls-2" d="M72.24,17.11A3.47,3.47,0,0,1,71,18.45a3.5,3.5,0,0,1-3.57,0,3.43,3.43,0,0,1-1.24-1.34,4.11,4.11,0,0,1,0-3.72,3.43,3.43,0,0,1,1.24-1.34,3.5,3.5,0,0,1,3.57,0,3.46,3.46,0,0,1,1.24,1.34,4.06,4.06,0,0,1,0,3.72ZM71.08,14a2.23,2.23,0,0,0-.77-.88,2,2,0,0,0-2.22,0,2.16,2.16,0,0,0-.76.88,3,3,0,0,0,0,2.5,2.16,2.16,0,0,0,.76.89,2.06,2.06,0,0,0,2.22,0,2.24,2.24,0,0,0,.77-.89,2.94,2.94,0,0,0,0-2.49Z"/><path class="cls-2" d="M79.7,18a.56.56,0,0,1,.08.28.52.52,0,0,1-.12.34.58.58,0,0,1-.47.18.91.91,0,0,1-.45-.11A1.8,1.8,0,0,1,78,17a.74.74,0,0,0-.24-.58,1,1,0,0,0-.69-.21H75.15v2a.67.67,0,0,1-.15.45.49.49,0,0,1-.39.17.8.8,0,0,1-.52-.18.56.56,0,0,1-.22-.45V12.29a.61.61,0,0,1,.62-.62h2.95a1.91,1.91,0,0,1,1,.29,2.12,2.12,0,0,1,.75.79,2.26,2.26,0,0,1,.28,1.13,2,2,0,0,1-.28,1,2.22,2.22,0,0,1-.72.77,1.57,1.57,0,0,1,.71,1.21,1.77,1.77,0,0,1,0,.32,3.28,3.28,0,0,0,.08.45.33.33,0,0,0,.18.21A.62.62,0,0,1,79.7,18Zm-2-3a1.3,1.3,0,0,0,.29-.47,1.7,1.7,0,0,0,.11-.63,1.22,1.22,0,0,0-.11-.53,1.06,1.06,0,0,0-.29-.38.55.55,0,0,0-.36-.14H75.15v2.32h2.24A.51.51,0,0,0,77.75,15Z"/><path class="cls-2" d="M86.58,18.28a.58.58,0,0,1-.18.44.56.56,0,0,1-.4.17.53.53,0,0,1-.33-.11.74.74,0,0,1-.23-.31l-.53-1.24H81.86l-.53,1.25a.64.64,0,0,1-.22.3.52.52,0,0,1-.86-.43.63.63,0,0,1,0-.19L82.82,12a.67.67,0,0,1,.25-.32.53.53,0,0,1,.37-.09A.6.6,0,0,1,84,12l2.52,6A.68.68,0,0,1,86.58,18.28Zm-4.22-2.23h2l-1-2.4Z"/><path class="cls-2" d="M94.71,17.81a.57.57,0,0,1,.18.44.56.56,0,0,1-.18.42.62.62,0,0,1-.45.17H90.94a.61.61,0,0,1-.62-.62V12.29a.59.59,0,0,1,.18-.44.65.65,0,0,1,.47-.18.61.61,0,0,1,.44.18.59.59,0,0,1,.18.44v5.35h2.67A.63.63,0,0,1,94.71,17.81Z"/><path class="cls-2" d="M101.74,18.28a.58.58,0,0,1-.18.44.56.56,0,0,1-.4.17.53.53,0,0,1-.33-.11.74.74,0,0,1-.23-.31l-.53-1.24H97l-.53,1.25a.64.64,0,0,1-.22.3.52.52,0,0,1-.86-.43.63.63,0,0,1,0-.19L98,12a.67.67,0,0,1,.25-.32.53.53,0,0,1,.37-.09.6.6,0,0,1,.57.41l2.52,6A.68.68,0,0,1,101.74,18.28Zm-4.22-2.23h2l-1-2.4Z"/><path class="cls-2" d="M109.43,12a2.3,2.3,0,0,1,.76.84,2.44,2.44,0,0,1,0,2.3,2.3,2.3,0,0,1-.76.84,1.76,1.76,0,0,1-1,.31h-1.78v1.94a.64.64,0,0,1-.16.45.57.57,0,0,1-.43.17.54.54,0,0,1-.42-.18.64.64,0,0,1-.16-.45V12.29a.61.61,0,0,1,.62-.62h2.33A1.76,1.76,0,0,1,109.43,12Zm-.61,3a1.21,1.21,0,0,0,.31-.42,1.34,1.34,0,0,0,0-1.1,1.16,1.16,0,0,0-.31-.42.59.59,0,0,0-.38-.16h-1.78v2.26h1.78A.58.58,0,0,0,108.82,14.94Z"/><path class="cls-2" d="M116.91,18.28a.58.58,0,0,1-.18.44.56.56,0,0,1-.4.17.53.53,0,0,1-.33-.11.74.74,0,0,1-.23-.31l-.53-1.24h-3.05l-.53,1.25a.64.64,0,0,1-.22.3.52.52,0,0,1-.86-.43.63.63,0,0,1,0-.19L113.16,12a.67.67,0,0,1,.25-.32.53.53,0,0,1,.37-.09.6.6,0,0,1,.57.41l2.52,6A.68.68,0,0,1,116.91,18.28Zm-4.22-2.23h2l-1-2.4Z"/><path class="cls-2" d="M123.15,12.66l-3.89,5h3.27a.64.64,0,0,1,.45.16.54.54,0,0,1,.18.42.55.55,0,0,1-.18.42.62.62,0,0,1-.44.17H118a.65.65,0,0,1-.46-.18.57.57,0,0,1-.19-.42.66.66,0,0,1,.14-.39l3.88-5h-3a.63.63,0,0,1-.45-.16.56.56,0,0,1-.18-.43.54.54,0,0,1,.18-.42.64.64,0,0,1,.44-.16h4.19a.7.7,0,0,1,.45.17.54.54,0,0,1,.21.43A.65.65,0,0,1,123.15,12.66Z"/></svg>