<svg id="Layer_1" data-name="Layer 1" xmlns="http://www.w3.org/2000/svg" viewBox="0 0 317.64 266"><defs><style>.cls-1{fill:#cbc5dd;}.cls-2{fill:#4ca2ae;}.cls-3{fill:#fff;}.cls-4{fill:#5c4d8c;}.cls-13,.cls-15,.cls-16,.cls-4,.cls-7{fill-rule:evenodd;}.cls-5{fill:#fcd380;}.cls-6{fill:none;}.cls-7,.cls-8{fill:#f7bb63;}.cls-9{fill:#eb619e;}.cls-10{fill:#e3589a;}.cls-11{fill:#eb91bc;}.cls-12{fill:#e24d94;}.cls-13{fill:#f6b247;}.cls-14{fill:#29233f;}.cls-15,.cls-18{fill:#6d59a2;}.cls-16{fill:#7867aa;}.cls-17{fill:#ff7701;}</style></defs><title>explorar</title><circle class="cls-1" cx="157.64" cy="130" r="130"/><rect class="cls-2" y="207.28" width="317.64" height="58.72" rx="17.67" ry="17.67"/><path class="cls-3" d="M118.17,243.11a1.1,1.1,0,0,1,.35.8,1,1,0,0,1-.35.81,1.22,1.22,0,0,1-.86.32h-6.6a1.18,1.18,0,0,1-1.2-1.2V232.44a1.18,1.18,0,0,1,1.2-1.2h6.6a1.2,1.2,0,0,1,.86.33,1.1,1.1,0,0,1,.35.84,1,1,0,0,1-.34.8,1.23,1.23,0,0,1-.87.31H112v3.35h4.46a1.2,1.2,0,0,1,.86.33,1.1,1.1,0,0,1,.35.84,1,1,0,0,1-.34.8,1.23,1.23,0,0,1-.87.31H112v3.65h5.34A1.17,1.17,0,0,1,118.17,243.11Z"/><path class="cls-3" d="M131.07,243.22a1.18,1.18,0,0,1,.24.73,1.09,1.09,0,0,1-.37.85,1.16,1.16,0,0,1-1.77-.18l-3.51-4.67-3.41,4.63a1.18,1.18,0,0,1-1,.55,1,1,0,0,1-.75-.32,1,1,0,0,1-.32-.73,1.28,1.28,0,0,1,.3-.81l3.8-5.14-3.8-5a1.09,1.09,0,0,1-.26-.71,1.13,1.13,0,0,1,.37-.85,1.16,1.16,0,0,1,1.79.16l3.47,4.61,3.39-4.51a1.45,1.45,0,0,1,.45-.42,1,1,0,0,1,.51-.15,1,1,0,0,1,.77.35,1.07,1.07,0,0,1,.33.76,1.15,1.15,0,0,1-.26.71l-3.84,5.07Z"/><path class="cls-3" d="M141.3,231.83a4.45,4.45,0,0,1,1.46,1.62,4.7,4.7,0,0,1,0,4.42,4.42,4.42,0,0,1-1.46,1.63,3.41,3.41,0,0,1-1.91.6H136v3.73a1.21,1.21,0,0,1-.32.87,1.08,1.08,0,0,1-.83.33,1,1,0,0,1-.81-.34,1.22,1.22,0,0,1-.32-.86V232.44a1.18,1.18,0,0,1,1.2-1.2h4.49A3.41,3.41,0,0,1,141.3,231.83Zm-1.17,5.71a2.32,2.32,0,0,0,.59-.82,2.57,2.57,0,0,0,0-2.11,2.22,2.22,0,0,0-.59-.81,1.15,1.15,0,0,0-.74-.31H136v4.36h3.43A1.13,1.13,0,0,0,140.13,237.54Z"/><path class="cls-3" d="M154,243a1.1,1.1,0,0,1,.34.84,1.08,1.08,0,0,1-.34.82,1.2,1.2,0,0,1-.86.33h-6.41a1.18,1.18,0,0,1-1.2-1.2V232.44a1.15,1.15,0,0,1,.36-.86,1.25,1.25,0,0,1,.91-.34,1.18,1.18,0,0,1,.85.34,1.15,1.15,0,0,1,.36.86v10.29h5.14A1.2,1.2,0,0,1,154,243Z"/><path class="cls-3" d="M168.28,241.71a6.65,6.65,0,0,1-2.39,2.57,6.72,6.72,0,0,1-6.88,0,6.57,6.57,0,0,1-2.38-2.57,7.89,7.89,0,0,1,0-7.15A6.56,6.56,0,0,1,159,232a6.72,6.72,0,0,1,6.88,0,6.64,6.64,0,0,1,2.39,2.57,7.81,7.81,0,0,1,0,7.15Zm-2.23-6a4.29,4.29,0,0,0-1.48-1.71,3.95,3.95,0,0,0-4.27,0,4.17,4.17,0,0,0-1.46,1.7,5.81,5.81,0,0,0,0,4.81,4.17,4.17,0,0,0,1.46,1.71,3.95,3.95,0,0,0,4.27,0,4.3,4.3,0,0,0,1.48-1.71,5.66,5.66,0,0,0,0-4.79Z"/><path class="cls-3" d="M182.64,243.51a1.06,1.06,0,0,1,.15.53,1,1,0,0,1-.24.65,1.11,1.11,0,0,1-.91.35,1.77,1.77,0,0,1-.87-.22q-1.42-.81-1.42-3.29a1.43,1.43,0,0,0-.46-1.12,1.94,1.94,0,0,0-1.33-.41h-3.69v3.82a1.3,1.3,0,0,1-.29.87,1,1,0,0,1-.76.33,1.53,1.53,0,0,1-1-.34,1.06,1.06,0,0,1-.42-.86V232.44a1.18,1.18,0,0,1,1.2-1.2h5.68a3.65,3.65,0,0,1,1.93.55,4.08,4.08,0,0,1,1.45,1.52,4.35,4.35,0,0,1,.54,2.17,3.85,3.85,0,0,1-.53,1.92,4.25,4.25,0,0,1-1.38,1.49,3,3,0,0,1,1.36,2.33,3.27,3.27,0,0,1,.06.61,6.13,6.13,0,0,0,.16.88.65.65,0,0,0,.36.4A1.18,1.18,0,0,1,182.64,243.51Zm-3.76-5.87a2.52,2.52,0,0,0,.55-.9,3.34,3.34,0,0,0,.22-1.21,2.37,2.37,0,0,0-.22-1,2.07,2.07,0,0,0-.55-.74,1.08,1.08,0,0,0-.69-.28h-4.32V238h4.32A1,1,0,0,0,178.89,237.64Z"/><path class="cls-3" d="M195.88,244a1.12,1.12,0,0,1-.33.84,1.07,1.07,0,0,1-.77.33,1,1,0,0,1-.64-.22,1.41,1.41,0,0,1-.44-.59l-1-2.38h-5.87l-1,2.41a1.21,1.21,0,0,1-.42.58,1,1,0,0,1-.62.21.94.94,0,0,1-1-1,1.28,1.28,0,0,1,.06-.37l4.91-11.79a1.3,1.3,0,0,1,.47-.61,1,1,0,0,1,.71-.18,1.16,1.16,0,0,1,.66.21,1.17,1.17,0,0,1,.44.58l4.85,11.55A1.35,1.35,0,0,1,195.88,244Zm-8.12-4.3h3.94l-2-4.61Z"/><path class="cls-3" d="M208.78,243.51a1.05,1.05,0,0,1,.15.53,1,1,0,0,1-.24.65,1.12,1.12,0,0,1-.91.35,1.77,1.77,0,0,1-.87-.22q-1.42-.81-1.42-3.29a1.43,1.43,0,0,0-.46-1.12,1.94,1.94,0,0,0-1.33-.41H200v3.82a1.29,1.29,0,0,1-.29.87,1,1,0,0,1-.76.33,1.53,1.53,0,0,1-1-.34,1.06,1.06,0,0,1-.42-.86V232.44a1.18,1.18,0,0,1,1.2-1.2h5.68a3.66,3.66,0,0,1,1.93.55,4.08,4.08,0,0,1,1.45,1.52,4.35,4.35,0,0,1,.54,2.17,3.85,3.85,0,0,1-.53,1.92,4.25,4.25,0,0,1-1.38,1.49,3,3,0,0,1,1.36,2.33,3.27,3.27,0,0,1,.06.61,6.13,6.13,0,0,0,.16.88.65.65,0,0,0,.35.4A1.16,1.16,0,0,1,208.78,243.51ZM205,237.64a2.54,2.54,0,0,0,.55-.9,3.34,3.34,0,0,0,.22-1.21,2.37,2.37,0,0,0-.22-1,2.08,2.08,0,0,0-.55-.74,1.08,1.08,0,0,0-.69-.28H200V238h4.32A1,1,0,0,0,205,237.64Z"/><path class="cls-4" d="M152,186.27c14.58,0,26.47-25.19,26.47-56.08S166.53,74.11,152,74.11s-26.47,25.19-26.47,56.08S137.37,186.27,152,186.27Z"/><path class="cls-5" d="M162.76,207H145.91a24.71,24.71,0,0,1,16.86,0Z"/><path class="cls-5" d="M129.7,126.13c-2.41.5-4.41,2.44-6.08,4.54a49.5,49.5,0,0,0-6.32,10.77c-1.65,3.72-3,7.61-4.35,11.49q-2.65,7.68-5.26,15.39a96.75,96.75,0,0,0-2.93,9.79c-.81,3.61-2.42,8.45-1.17,11.92s5.82,5.23,8.85,4.14c2.65-1,4.11-4.19,5.3-7.13l13.83-34.27c1-2.43,5-12.21,5.55-14.81C138.43,132.23,137,124.61,129.7,126.13Z"/><path class="cls-5" d="M74.26,127.09l-8.67,3.37c-.14-.41-.28-.82-.42-1.25a5.49,5.49,0,0,1-.24-4c.29-.62.47-2.33,1-2.78,1.23-1.1,3.11-.95,4.7-.53a4.62,4.62,0,0,1,2.56,2.37A23,23,0,0,1,74.26,127.09Z"/><path class="cls-5" d="M79.92,140.94a44.78,44.78,0,0,1-6.25,4.92c-.21.13-.58,0-1.15-.91s-.07-1.38-.21-1.56a42.47,42.47,0,0,1-6.72-12.93l8.67-3.37a6.6,6.6,0,0,0,.6,1.3c.56.87,1.23,2.07,1.54,2.11s-.65-2.33.16-2.65,1.36.89,1.7,1.68c1.09,2.5.81,6.37,1.9,8.86C81.15,140.67,81.29,139.62,79.92,140.94Z"/><line class="cls-6" x1="79.64" y1="125" x2="74.26" y2="127.09"/><line class="cls-6" x1="65.59" y1="130.46" x2="61.64" y2="132"/><path class="cls-5" d="M109.72,195.86c-2,.07-4.13-1.33-6-3-2.89-2.47-5.22-5.76-7.67-9.08s-4.54-6.58-6.71-10c-2.85-4.49-6.35-10.73-7.19-12.12-1.73-2.85-4.77-8.11-6.32-11.14-1.67-3.27-4.36-8.28-4.62-11.89a3.42,3.42,0,0,1,3.35-3.54c2.34.23,7.46,5.8,9.27,8.31,5.42,7.49,11.81,15.16,19.73,26.55,1.46,2.1,7.36,10.54,8.57,12.89C114.76,188.06,115.87,195.65,109.72,195.86Z"/><path class="cls-7" d="M113.6,165.5s-4.25,10.83-1.5,17.39L106,173.54l3-9.07Z"/><path class="cls-7" d="M181.22,167s8.06,22.62,10.73,24.58Z"/><path class="cls-5" d="M176.93,124.81c2.38.5,4.35,2.43,6,4.53a49.5,49.5,0,0,1,6.21,10.76c1.62,3.71,3,7.6,4.27,11.49q2.6,7.68,5.16,15.38a97.61,97.61,0,0,1,2.88,9.79c.8,3.61,2.37,8.45,1.13,11.92a7.3,7.3,0,0,1-8.73,4.15c-2.61-1-4-4.18-5.21-7.13l-13.58-34.25c-1-2.43-4.87-12.2-5.45-14.81C168.32,130.92,169.69,123.3,176.93,124.81Z"/><path class="cls-5" d="M204.76,201.76c-.1,1.74-.25,3.49-.43,5.24H190.19c.28-3.25,1.08-12.41,1.62-14.83,0-.2.09-.41.14-.6h0c1.4-5.52,5.29-11.47,10-7.84A5.17,5.17,0,0,1,203,184.9h0v0a13.31,13.31,0,0,1,1.66,4.94C205.32,193.62,205,197.64,204.76,201.76Z"/><path class="cls-5" d="M179.52,157.6h0q-.29,1.38-.6,2.81c0,.17-.07.33-.11.5s-.12.58-.18.87h0c-.12.54-.23,1.08-.34,1.62h0c-.09.39-.17.78-.25,1.18h0c-.06.24-.11.49-.17.73h0c-1.38,6.66-2.64,13.46-2.63,18.19,0,10.11,2.82,17.28,4.1,23.47H129c1-6.17,3.65-12.95,3.67-23.47,0-5.67-2.07-14.3-4-22.13h0l0-.11c-.07-.26-.12-.51-.18-.76-.21-.82-.41-1.62-.6-2.42s-.41-1.69-.6-2.51h0c-1.09-4.58-1.86-8.42-1.74-10.56v0c.17-3.24.12-6.5.12-9.05v0a20.25,20.25,0,0,1,.26-4.36,15.33,15.33,0,0,1,1.53-2.73s0,0,0,0a14.92,14.92,0,0,1,2.18-2.67h0a5.67,5.67,0,0,1,1.1-.79,34.64,34.64,0,0,1,3.83-1.69,11.13,11.13,0,0,1,1.62-.46c1.6-.3,4.22-1.64,7.38-2.15L144,121h0l.19,0a14.06,14.06,0,0,1,2-.11c3.21,0,4.16-.69,6.95-.55,2.85-.13,3.67.22,6.95.27a12.12,12.12,0,0,1,1.74.09h.1l.17,0,.25,0a17.23,17.23,0,0,1,1.91.38l.08,0c2.24.57,4.23,1.44,5.63,1.86a6.31,6.31,0,0,0,.8.21,17.08,17.08,0,0,1,3.88,1.44h0c.7.33,1.24.61,1.42.71a5.09,5.09,0,0,1,.89.6,10.17,10.17,0,0,1,1.42,1.44,19.77,19.77,0,0,1,1.33,1.81,13.93,13.93,0,0,1,1.31,2.35,21.49,21.49,0,0,1,.26,4.68c0,1.83,0,4,0,6.26,0,.84,0,1.68.09,2.53C181.55,147.47,180.66,152.15,179.52,157.6Z"/><path class="cls-8" d="M162,115.32a18.09,18.09,0,0,0,.13,6.37,5.14,5.14,0,0,1-.82.56c-3.82,2.21-11,1.14-14.76.1-1.56-.44-2.54-.87-2.46-1.06a10.74,10.74,0,0,0,.37-5.6v-.05h0a17.25,17.25,0,0,0-.36-1.76h18.26c-.06.2-.12.4-.17.6S162,115,162,115.32Z"/><path class="cls-5" d="M133.72,83.16c0-9.86,8.59-17.85,19.2-17.85s19.2,8,19.2,17.85a16.66,16.66,0,0,1-.71,4.75c0,.39,0,.78,0,1.2a50.58,50.58,0,0,1-.8,10.64c-1.35,6.83-4.89,13.17-11.57,17.06a14.86,14.86,0,0,1-7.44,2.26,14.38,14.38,0,0,1-9.35-4.15c-8.21-7.54-8.92-18.88-8.34-29.58A16.66,16.66,0,0,1,133.72,83.16Z"/><path class="cls-9" d="M187.58,136.48c-7.18-14.57-25.85-16.22-25.85-16.22l6.38,7.7,2.15,6.45,9.59,28.78,17.9-1.65A257.72,257.72,0,0,0,187.58,136.48Z"/><polygon class="cls-10" points="170.69 133.65 178.63 167.05 182.89 166.75 170.69 133.65"/><path class="cls-11" d="M187.47,136c-7.1-14.22-25.73-15.73-25.73-15.73s18.82,5.52,23.47,15.39c1.12,2.38,5.42,13.55,9.52,25.07l2.77-.26A246.45,246.45,0,0,0,187.47,136Z"/><path class="cls-12" d="M198,158.17l-20.64,5.5,1.17,3.87,20.92-4.24a1.6,1.6,0,0,0,1.22-2l-.51-1.89A1.76,1.76,0,0,0,198,158.17Z"/><path class="cls-9" d="M118.2,137.12c7.18-14.57,25.85-16.22,25.85-16.22l-6.38,7.7-2.15,6.45-9.59,28.78L108,162.18A257.72,257.72,0,0,1,118.2,137.12Z"/><polygon class="cls-10" points="135.09 134.29 127.16 167.68 122.89 167.38 135.09 134.29"/><path class="cls-11" d="M118.32,136.63c7.1-14.22,25.73-15.73,25.73-15.73s-18.82,5.52-23.47,15.39c-1.12,2.38-5.42,13.55-9.52,25.07l-2.77-.26A246.45,246.45,0,0,1,118.32,136.63Z"/><path class="cls-12" d="M107.77,158.8l20.64,5.5-1.17,3.87-20.92-4.24a1.6,1.6,0,0,1-1.22-2l.51-1.89A1.76,1.76,0,0,1,107.77,158.8Z"/><path class="cls-9" d="M179.78,207H128.54a116.73,116.73,0,0,0-.31-43.8l0-.13.37-1.78.52-2.51h0l0-.11,1.86-8.92.39-1.87.25-1.21h0v0l1.47-7h0l2-9.39,1.32-1.37L144,121l.06-.06h0a.11.11,0,0,1,0,.06c-.41.87-3.5,8.27,8.15,9.21,9.47.77,10.06-5.45,9.81-8.41,0-.47-.1-.86-.15-1.13s-.08-.39-.08-.39h0l.12.1.46.35,7.29,5.57.44,1.74h0l3.18,12.51h0l.89,3.52,1.14,4.49,1,3.79h0v.06l1.44,5.67v0l.94,3.66h0q-.16.81-.3,1.62c-.09.47-.17.94-.24,1.41l-.12.82C175.62,181.51,178,197.91,179.78,207Z"/><path class="cls-12" d="M164,169.38l-.86,0-2.32-.14a23.26,23.26,0,0,0-7.3.48c-.69.18-1.37.39-2.07.58a16.85,16.85,0,0,1-2.06.43,15.94,15.94,0,0,1-3.55.11,6.06,6.06,0,0,1-1.38-.26,3.1,3.1,0,0,1-.95-.48,2.09,2.09,0,0,1-.45-.48l-.11-.19.17.15a2.15,2.15,0,0,0,.53.3,4.41,4.41,0,0,0,2.17.12,25.84,25.84,0,0,0,3.27-.67c.6-.16,1.22-.36,1.87-.58s1.35-.47,2.11-.67a12.58,12.58,0,0,1,4.41-.33,19.5,19.5,0,0,1,3.46.67c1,.27,1.71.54,2.23.73Z"/><path class="cls-11" d="M148.67,107.9c.82.32,3.12-.91,4.23-.83s1-.2,1.77-.34,2.74.07,4-.62a8.14,8.14,0,0,1-2.36,3.56,4.68,4.68,0,0,1-4.24.74A7.29,7.29,0,0,1,148.67,107.9Z"/><path class="cls-11" d="M147.72,107.5l.14,0,.38.14c.32.13.78.3,1.33.46a8.31,8.31,0,0,0,.91.21,8.51,8.51,0,0,0,1,.11,7.33,7.33,0,0,0,1.1,0,9.34,9.34,0,0,0,1.13-.18,12,12,0,0,0,4-1.47c.24-.16.46-.31.65-.46a5.2,5.2,0,0,0,.46-.4l.28-.28.1-.1-.08.12a3.69,3.69,0,0,1-.24.32,5.37,5.37,0,0,1-.42.46,5.15,5.15,0,0,1-.62.53,8.31,8.31,0,0,1-1.77,1,12.33,12.33,0,0,1-2.23.68,9.92,9.92,0,0,1-1.18.18,6.73,6.73,0,0,1-1.16,0,6.37,6.37,0,0,1-1.07-.17,8.86,8.86,0,0,1-.92-.28,10.27,10.27,0,0,1-1.3-.61l-.35-.19Z"/><path class="cls-3" d="M149.16,108.09a12.14,12.14,0,0,0,9-1.62,6.19,6.19,0,0,1-4.58,2.84A6,6,0,0,1,149.16,108.09Z"/><path class="cls-13" d="M150.54,101.49c3.21.67,4.53-1.29,4.56-2.94C155.91,101.59,153.72,103.23,150.54,101.49Z"/><path class="cls-14" d="M160.19,90.84a1.36,1.36,0,0,0-.32.71c-.13.92-.31,2.59.72,3.1,1.23.61,1.81-1,1.84-2a2.64,2.64,0,0,0-.46-1.75A1.12,1.12,0,0,0,160.19,90.84Z"/><path class="cls-14" d="M159.07,91.32s1.51-1.86,5,0C164.09,91.32,160.79,88.6,159.07,91.32Z"/><path class="cls-14" d="M145.46,90.84a1.36,1.36,0,0,1,.32.71c.13.92.31,2.59-.72,3.1-1.23.61-1.81-1-1.84-2a2.64,2.64,0,0,1,.46-1.75A1.12,1.12,0,0,1,145.46,90.84Z"/><path class="cls-14" d="M146.58,91.32s-1.51-1.86-5,0C141.56,91.32,144.86,88.6,146.58,91.32Z"/><path class="cls-7" d="M123.49,96.44a4.46,4.46,0,0,1-.46-1,13.16,13.16,0,0,0-.59,3.49c.28-.24.57-.48.88-.71a3,3,0,0,1,.84-.42A8.85,8.85,0,0,0,123.49,96.44Z"/><path class="cls-7" d="M152.82,66.41c-7.74-4.35-20.26,2.89-22.56,13.35a27,27,0,0,1-3.06,7.8l.34.32c2.44-1.16,6.11,0,6.15,3.57a71.34,71.34,0,0,0,.64,7.57,8.18,8.18,0,0,1,2.33-3.25c4.11-3.14,3.22-4.87,3.93-12.21s7.58-2.77,13-9.16C155.72,71.73,160.56,70.76,152.82,66.41Z"/><path class="cls-7" d="M137.81,94.79a31.42,31.42,0,0,0,6.73,21.88s-8.14-4.29-10.22-17.65A4.62,4.62,0,0,1,137.81,94.79Z"/><path class="cls-15" d="M157,84.09c1.68-.37,4.43-1.14,7.34,1.4,1.31,1.14,1.07,1.69-.39.62-2.49-1.82-4.15-1.22-6.79-.7C156.12,85.62,155.84,84.35,157,84.09Z"/><path class="cls-15" d="M147.8,84.09c-1.68-.37-4.43-1.14-7.34,1.4-1.31,1.14-1.07,1.69.39.62,2.49-1.82,4.15-1.22,6.79-.7C148.66,85.62,148.94,84.35,147.8,84.09Z"/><path class="cls-15" d="M152.52,71.8c-5.38,6.39-12.24,1.82-13,9.16s.18,9.07-3.93,12.21-5.13,13.67-2.72,21.16,2.19,11.88-.71,17-3,8.7-1.56,13.77,2.36,7.77-6.18-1.14-6.53-18.19-3.14-26.9,1.63-8,.25-17.69,5.36-11.71,7.66-22.17,14.82-17.7,22.56-13.35S154.7,69.14,152.52,71.8Z"/><path class="cls-16" d="M149.25,65.28c-.93,4.18-6.5,5.72-9.9,6.8s-5.91,3.68-5.29,8.32-2.75,10.7-5.07,13-1.62,12.37.15,18.56c1.65,5.74-1.53,14.25-3,17.54-1.61,3.52-2.38,8-.52,10.91-3.19-2.81-3.07-7.27-1.08-12.06s4.3-7.77,2.47-16.21c-2.31-10.69-3.78-14.57.76-20.53,3.59-4.7,4.46-5.32,4.34-10.9s.77-8.35,5.72-10.05S147.24,69.3,149.25,65.28Z"/><path class="cls-15" d="M152,71.8c5.38,6.39,12.24,1.82,13,9.16s-.18,9.07,3.93,12.21,5.13,13.67,2.72,21.16-2.19,11.88.71,17,3,8.7,1.56,13.77-2.36,7.77,6.18-1.14,6.53-18.19,3.14-26.9-1.63-8-.25-17.69-5.36-11.71-7.66-22.17-14.82-17.7-22.56-13.35S149.82,69.14,152,71.8Z"/><path class="cls-16" d="M155.27,65.28c.93,4.18,6.5,5.72,9.9,6.8s5.91,3.68,5.29,8.32,2.75,10.7,5.07,13,1.62,12.37-.15,18.56c-1.65,5.74,1.53,14.25,3,17.54,1.61,3.52,2.38,8,.52,10.91,3.19-2.81,3.07-7.27,1.08-12.06s-4.3-7.77-2.47-16.21c2.31-10.69,3.78-14.57-.76-20.53-3.59-4.7-4.46-5.32-4.34-10.9s-.77-8.35-5.72-10.05S157.28,69.3,155.27,65.28Z"/><path class="cls-17" d="M83.73,183.08l-.14.21a2,2,0,0,1,.12-.23Z"/><path class="cls-17" d="M85,181.42l-.46.58h0C84.65,181.8,84.8,181.61,85,181.42Z"/><path class="cls-17" d="M107,204.06a.79.79,0,0,1,.12-.17c0,.27,0,.55,0,.82,0,.08-.09.17-.13.25Z"/><path class="cls-17" d="M113.58,185.27c0,1-.07,2.15-.09,3.31,0-1.13,0-2.25.07-3.31Z"/><path class="cls-17" d="M136.12,182.77l-.17-.25v-.22A3.09,3.09,0,0,1,136.12,182.77Z"/><path class="cls-18" d="M85.64,108a7,7,0,1,1-7,7,7,7,0,0,1,7-7m0-3a10,10,0,1,0,10,10,10,10,0,0,0-10-10Z"/><rect class="cls-18" x="70.64" y="117.24" width="4" height="20.51" rx="2" ry="2" transform="translate(111.43 -14.02) rotate(45)"/></svg>