<?xml version="1.0" encoding="utf-8"?>
<!-- Generator: Adobe Illustrator 19.2.1, SVG Export Plug-In . SVG Version: 6.00 Build 0)  -->
<svg version="1.1" id="Capa_1" xmlns="http://www.w3.org/2000/svg" xmlns:xlink="http://www.w3.org/1999/xlink" x="0px" y="0px"
	 viewBox="0 0 1659.2 1118.6" style="enable-background:new 0 0 1659.2 1118.6;" xml:space="preserve">
<style type="text/css">
	.st0{fill:#FFFFFF;}
	.st1{fill:none;}
	.st2{fill:none;stroke:#4CA1AE;stroke-width:4;stroke-miterlimit:10;}
	.st3{opacity:0.36;}
	.st4{fill:#4CA1AE;}
	.st5{opacity:0.36;fill:#7E6BB0;enable-background:new    ;}
	.st6{opacity:0.21;fill:#7E6BB0;enable-background:new    ;}
	.st7{fill:#4DA2AD;}
	.st8{fill:#FFD784;}
	.st9{fill:#7E6BB0;}
</style>
<g id="Capa_2">
	<rect x="111.2" y="75" class="st0" width="1436.8" height="968.7"/>
</g>
<g id="Layer_1">
	<title>2</title>
	<path class="st1" d="M692.6,437.5"/>
	<path class="st2" d="M802.2,86V309H491.7c-5.7,0-10.4,4.7-10.4,10.4v219.3H121.6c-5.7,0-10.4-4.7-10.4-10.4V86
		c0-5.7,4.7-10.4,10.4-10.4h670.1C797.5,75.5,802.2,80.2,802.2,86z"/>
	<path class="st2" d="M802.2,334v194.3c0,5.7-4.7,10.4-10.4,10.4H502.4V344.5c0-5.7,4.7-10.4,10.4-10.4H802.2z"/>
	<path class="st2" d="M801.8,590.5v156.8h-289c-5.7,0-10.4-4.7-10.4-10.4V580.1h289C797.1,580.1,801.8,584.8,801.8,590.5z"/>
	<path class="st2" d="M801.8,772.2v260.4c0,5.7-4.7,10.4-10.4,10.4H121.6c-5.7,0-10.4-4.7-10.4-10.4V590.5c0-5.7,4.7-10.4,10.4-10.4
		h359.6v181.8c0,5.7,4.7,10.4,10.4,10.4L801.8,772.2L801.8,772.2z"/>
	<path class="st2" d="M1548,86v442.4c0,5.7-4.7,10.4-10.4,10.4h-365.5V319.5c0-5.7-4.7-10.4-10.4-10.4H857V86
		c0-5.7,4.7-10.4,10.4-10.4h670.1C1543.3,75.5,1548,80.2,1548,86z"/>
	<path class="st2" d="M1151,344.5v194.3H867.5c-5.7,0-10.4-4.7-10.4-10.4V334h283.5C1146.3,334,1151,338.7,1151,344.5z"/>
	<path class="st2" d="M1548,586.5v446.2c0,5.7-4.7,10.4-10.4,10.4H861.8c-5.7,0-10.4-4.7-10.4-10.4V772.2h310.4
		c5.7,0,10.4-4.7,10.4-10.4V576.1h365.4C1543.4,576.1,1548,580.7,1548,586.5z"/>
	<path class="st2" d="M1151,576.1v160.8c0,5.7-4.7,10.4-10.4,10.4H851.4V586.5c0-5.7,4.7-10.4,10.4-10.4H1151z"/>
	<g class="st3">
		<path class="st4" d="M607.5,517.9c-0.5,0.4-1.1,0.7-1.8,0.7c-0.7,0-1.4-0.3-1.8-0.7c-0.5-0.4-0.8-1.1-0.7-1.8v-23.8
			c0-0.7,0.3-1.3,0.7-1.8c0.5-0.5,1.2-0.8,1.9-0.7c0.7,0,1.3,0.3,1.7,0.7c0.5,0.4,0.8,1.1,0.7,1.8v23.9
			C608.2,516.8,608,517.4,607.5,517.9z"/>
		<path class="st4" d="M631.6,498.6c1,1.6,1.6,4,1.6,6.9v10.6c0,0.7-0.3,1.3-0.7,1.8c-1,1-2.5,1-3.6,0c-0.4-0.5-0.7-1.1-0.7-1.8
			v-10.6c0.1-1.3-0.3-2.5-1-3.6c-0.8-1-2-1.4-3.3-1.3c-1.4-0.1-2.8,0.4-3.7,1.4c-0.9,1-1.4,2.2-1.4,3.5v10.6c0,0.7-0.3,1.3-0.7,1.8
			c-1,1-2.5,1-3.6,0c-0.4-0.5-0.7-1.1-0.7-1.8v-17c0-0.7,0.3-1.3,0.7-1.8c1-1,2.5-1,3.6,0c0.4,0.5,0.7,1.1,0.7,1.8v0.7
			c0.8-1,1.8-1.9,2.9-2.5c1.2-0.7,2.5-1.1,3.9-1C628.6,496.1,630.6,497,631.6,498.6z"/>
		<path class="st4" d="M658.2,488.8c0.4,0.5,0.7,1.1,0.7,1.8v25.4c0,0.7-0.3,1.3-0.7,1.8c-0.4,0.4-1,0.7-1.7,0.7
			c-0.7,0-1.3-0.3-1.7-0.7s-0.7-1.1-0.7-1.7c-1.6,1.8-4,2.9-6.5,2.9c-1.8,0-3.6-0.5-5.1-1.5c-1.6-1-2.8-2.4-3.6-4.1
			c-1-1.8-1.4-3.8-1.3-5.9c0-2.1,0.4-4.1,1.3-5.9c0.8-1.6,2.1-3,3.6-4.1c1.5-1,3.3-1.5,5-1.5c1.3,0,2.5,0.3,3.7,0.7
			c1,0.4,2.1,1,3,1.8v-8.1c0-0.7,0.3-1.3,0.7-1.8c0.4-0.4,1-0.7,1.7-0.7C657.1,488.1,657.7,488.4,658.2,488.8z M652.5,512.5
			c1.1-1.4,1.7-3.1,1.7-4.9c0.1-1.8-0.5-3.6-1.7-4.9c-2.1-2.4-5.7-2.6-8.2-0.5c-0.2,0.2-0.3,0.3-0.5,0.5c-2.3,3-2.3,6.9,0,9.9
			c1,1.3,2.7,2,4.3,2C649.8,514.5,651.4,513.8,652.5,512.5z"/>
		<path class="st4" d="M664.4,493.4c-0.4-0.4-0.6-1-0.6-1.6v-0.8c-0.1-0.6,0.2-1.2,0.6-1.6c1.3-0.6,2.8-0.6,4,0
			c0.4,0.4,0.6,1,0.6,1.6v0.8c0.1,0.6-0.2,1.2-0.6,1.6c-0.6,0.3-1.3,0.5-2,0.4C665.7,493.9,665,493.8,664.4,493.4z M668.2,517.9
			c-1,1-2.5,1-3.6,0c-0.4-0.5-0.7-1.1-0.7-1.8v-17c0-0.7,0.3-1.3,0.7-1.8c1-1,2.5-1,3.6,0c0.4,0.5,0.7,1.1,0.7,1.8v17
			C668.9,516.8,668.7,517.4,668.2,517.9L668.2,517.9z"/>
		<path class="st4" d="M692.6,497.2c0.4,0.4,0.7,1,0.6,1.6c0,0.4-0.2,0.9-0.3,1.2l-7.6,17c-0.2,0.4-0.5,0.9-0.9,1.1
			c-0.3,0.3-0.8,0.4-1.3,0.4h-0.3c-0.4,0-1-0.2-1.3-0.4c-0.4-0.3-0.7-0.7-1-1.1l-7.6-17c-0.2-0.4-0.3-0.9-0.3-1.3
			c0-0.6,0.3-1.1,0.7-1.5c0.4-0.4,1.1-0.7,1.7-0.7c0.5,0,1,0.2,1.5,0.4s0.8,0.7,1,1.1l5.6,13l5.6-13c0.2-0.4,0.4-0.9,0.9-1.2
			c0.3-0.3,0.8-0.4,1.3-0.3C691.5,496.5,692.2,496.8,692.6,497.2z"/>
		<path class="st4" d="M697.3,493.4c-0.4-0.4-0.6-1-0.6-1.6v-0.8c-0.1-0.6,0.2-1.2,0.6-1.6c1.3-0.6,2.8-0.6,4,0
			c0.4,0.4,0.6,1,0.6,1.6v0.8c0.1,0.6-0.2,1.2-0.6,1.6c-0.6,0.3-1.3,0.5-2,0.4C698.6,493.9,697.9,493.8,697.3,493.4z M701.1,517.9
			c-1,1-2.5,1-3.6,0c-0.4-0.5-0.7-1.1-0.7-1.8v-17c0-0.7,0.3-1.3,0.7-1.8c1-1,2.5-1,3.6,0c0.4,0.5,0.7,1.1,0.7,1.8v17
			C701.8,516.8,701.6,517.4,701.1,517.9z"/>
		<path class="st4" d="M726.5,488.8c0.4,0.5,0.7,1.1,0.7,1.8v25.4c0,0.7-0.3,1.3-0.7,1.8c-0.4,0.4-1,0.7-1.7,0.7
			c-0.7,0-1.3-0.3-1.7-0.7s-0.7-1.1-0.7-1.7c-1.6,1.8-4,2.9-6.5,2.9c-1.8,0-3.6-0.5-5.1-1.5c-1.6-1-2.8-2.4-3.6-4.1
			c-1-1.8-1.4-3.8-1.3-5.9c0-2.1,0.4-4.1,1.3-5.9c0.8-1.6,2.1-3,3.6-4.1c1.5-1,3.3-1.5,5-1.5c1.3,0,2.5,0.3,3.7,0.7
			c1,0.4,2.1,1,3,1.8v-8.1c0-0.7,0.3-1.3,0.7-1.8c0.4-0.4,1-0.7,1.7-0.7C725.4,488.1,726,488.4,726.5,488.8z M720.7,512.5
			c1.1-1.4,1.7-3.1,1.7-4.9c0.1-1.8-0.5-3.6-1.7-4.9c-2.1-2.4-5.7-2.6-8.2-0.5c-0.2,0.2-0.3,0.3-0.5,0.5c-2.3,3-2.3,6.9,0,9.9
			c1,1.3,2.7,2,4.3,2C718.1,514.5,719.7,513.8,720.7,512.5z"/>
		<path class="st4" d="M751.4,497.2c0.4,0.5,0.7,1.1,0.7,1.8v10.5c0,3-0.8,5.3-2.4,6.9c-1.6,1.6-4,2.5-6.9,2.5c-3,0-5.3-0.9-6.9-2.5
			c-1.6-1.6-2.4-4-2.4-6.9v-10.5c0-0.7,0.3-1.3,0.7-1.8c1-1,2.5-1,3.6,0c0.4,0.5,0.7,1.1,0.7,1.8v10.5c-0.1,1.3,0.3,2.7,1.1,3.7
			c0.9,0.9,2.1,1.3,3.3,1.2c1.2,0.1,2.5-0.3,3.4-1.2c0.8-1,1.2-2.4,1.1-3.7v-10.5c0-0.7,0.3-1.3,0.7-1.8
			C748.9,496.3,750.4,496.3,751.4,497.2L751.4,497.2z"/>
		<path class="st4" d="M777.1,496.8c0.4,0.5,0.7,1.1,0.7,1.8v17.4c0,0.7-0.3,1.3-0.7,1.8c-0.4,0.4-1,0.7-1.7,0.7
			c-0.7,0-1.3-0.3-1.7-0.7s-0.7-1.1-0.7-1.7c-1.6,1.8-4,2.9-6.5,2.9c-1.8,0-3.6-0.5-5.1-1.5c-1.6-1-2.8-2.4-3.6-4.1
			c-1-1.8-1.4-3.8-1.3-5.9c0-2.1,0.4-4.1,1.3-5.9c0.8-1.6,2.1-3,3.6-4.1c1.5-1,3.3-1.5,5-1.5c1.3,0,2.5,0.3,3.7,0.7
			c1,0.4,2.1,1,3,1.8l0,0c0-0.7,0.3-1.3,0.7-1.8c0.4-0.4,1-0.7,1.7-0.7C776,496.2,776.6,496.4,777.1,496.8z M771.4,512.5
			c1.1-1.4,1.7-3.1,1.7-4.9c0.1-1.8-0.5-3.6-1.7-4.9c-2.1-2.4-5.7-2.6-8.2-0.5c-0.2,0.2-0.3,0.3-0.5,0.5c-2.3,3-2.3,6.9,0,9.9
			c1,1.3,2.7,2,4.3,2C768.7,514.5,770.3,513.8,771.4,512.5z"/>
		<path class="st4" d="M787.8,517.9c-0.4,0.5-1.1,0.8-1.8,0.7c-0.7,0-1.3-0.3-1.7-0.7c-0.4-0.5-0.7-1.1-0.7-1.8v-25.4
			c0-1.4,1-2.5,2.4-2.5h0.1c0.7,0,1.3,0.3,1.7,0.7c0.4,0.5,0.7,1.1,0.7,1.8v25.4C788.5,516.8,788.2,517.4,787.8,517.9z"/>
	</g>
	<g class="st3">
		<path class="st4" d="M877.3,517.9c-0.5,0.4-1.1,0.7-1.8,0.7c-0.7,0-1.4-0.3-1.8-0.7c-0.5-0.4-0.8-1.1-0.7-1.8v-23.8
			c0-0.7,0.3-1.3,0.8-1.8c0.5-0.5,1.2-0.8,1.9-0.7c0.7,0,1.3,0.3,1.7,0.7c0.5,0.4,0.8,1.1,0.7,1.8v23.9
			C878,516.8,877.8,517.4,877.3,517.9z"/>
		<path class="st4" d="M901.4,498.6c1,1.6,1.6,4,1.6,6.9v10.6c0,0.7-0.3,1.3-0.7,1.8c-1,1-2.5,1-3.6,0c-0.4-0.5-0.7-1.1-0.7-1.8
			v-10.6c0.1-1.3-0.3-2.5-1-3.6c-0.8-1-2-1.4-3.3-1.3c-1.4-0.1-2.8,0.4-3.7,1.4c-0.9,1-1.4,2.2-1.4,3.5v10.6c0,0.7-0.3,1.3-0.7,1.8
			c-1,1-2.5,1-3.6,0c-0.4-0.5-0.7-1.1-0.7-1.8v-17c0-0.7,0.3-1.3,0.7-1.8c1-1,2.5-1,3.6,0c0.4,0.5,0.7,1.1,0.7,1.8v0.7
			c0.8-1,1.8-1.9,2.9-2.5c1.2-0.7,2.5-1.1,3.9-1C898.3,496.1,900.3,497,901.4,498.6z"/>
		<path class="st4" d="M928,488.8c0.4,0.5,0.7,1.1,0.7,1.8v25.4c0,0.7-0.3,1.3-0.7,1.8c-0.4,0.4-1,0.7-1.7,0.7
			c-0.7,0-1.3-0.3-1.7-0.7c-0.4-0.4-0.7-1.1-0.7-1.7c-1.6,1.8-4,2.9-6.5,2.9c-1.8,0-3.6-0.5-5.1-1.5c-1.6-1-2.8-2.4-3.6-4.1
			c-1-1.8-1.4-3.8-1.3-5.9c0-2.1,0.4-4.1,1.3-5.9c0.8-1.6,2.1-3,3.6-4.1c1.5-1,3.3-1.5,5-1.5c1.3,0,2.5,0.3,3.7,0.7
			c1,0.4,2.1,1,3,1.8v-8.1c0-0.7,0.3-1.3,0.7-1.8c0.4-0.4,1-0.7,1.7-0.7C926.8,488.1,927.5,488.4,928,488.8z M922.2,512.5
			c1.1-1.4,1.7-3.1,1.6-4.9c0.1-1.8-0.5-3.6-1.6-4.9c-2.1-2.4-5.7-2.6-8.2-0.5c-0.2,0.2-0.3,0.3-0.5,0.5c-2.3,3-2.3,6.9,0,9.9
			c1,1.3,2.7,2,4.3,2C919.5,514.5,921.2,513.8,922.2,512.5L922.2,512.5z"/>
		<path class="st4" d="M934.2,493.4c-0.4-0.4-0.6-1-0.6-1.6v-0.8c-0.1-0.6,0.2-1.2,0.6-1.6c1.3-0.6,2.8-0.6,4,0
			c0.4,0.4,0.6,1,0.6,1.6v0.8c0.1,0.6-0.2,1.2-0.6,1.6c-0.6,0.3-1.3,0.5-2,0.4C935.5,493.9,934.8,493.8,934.2,493.4z M937.9,517.9
			c-1,1-2.5,1-3.6,0c-0.4-0.5-0.7-1.1-0.7-1.8v-17c0-0.7,0.3-1.3,0.7-1.8c1-1,2.5-1,3.6,0c0.4,0.5,0.7,1.1,0.7,1.8v17
			C938.7,516.8,938.5,517.4,937.9,517.9L937.9,517.9z"/>
		<path class="st4" d="M962.3,497.2c0.4,0.4,0.7,1,0.7,1.6c0,0.4-0.2,0.9-0.3,1.2l-7.6,17c-0.2,0.4-0.5,0.9-0.9,1.1
			c-0.3,0.3-0.8,0.4-1.2,0.4h-0.3c-0.4,0-1-0.2-1.3-0.4c-0.4-0.3-0.7-0.7-1-1.1l-7.6-17c-0.2-0.4-0.3-0.9-0.3-1.3
			c0-0.6,0.3-1.1,0.7-1.5c0.4-0.4,1.1-0.7,1.7-0.7c0.5,0,1,0.2,1.5,0.4c0.4,0.3,0.8,0.7,1,1.1l5.7,13l5.6-13
			c0.2-0.4,0.4-0.9,0.9-1.2c0.3-0.3,0.8-0.4,1.3-0.3C961.3,496.5,961.9,496.8,962.3,497.2z"/>
		<path class="st4" d="M967.1,493.4c-0.4-0.4-0.6-1-0.6-1.6v-0.8c-0.1-0.6,0.2-1.2,0.6-1.6c1.3-0.6,2.8-0.6,4,0
			c0.4,0.4,0.6,1,0.6,1.6v0.8c0.1,0.6-0.2,1.2-0.6,1.6c-0.6,0.3-1.3,0.5-2,0.4C968.4,493.9,967.7,493.8,967.1,493.4z M970.8,517.9
			c-1,1-2.5,1-3.6,0c-0.4-0.5-0.7-1.1-0.7-1.8v-17c0-0.7,0.3-1.3,0.7-1.8c1-1,2.5-1,3.6,0c0.4,0.5,0.7,1.1,0.7,1.8v17
			C971.6,516.8,971.4,517.4,970.8,517.9L970.8,517.9z"/>
		<path class="st4" d="M996.3,488.8c0.4,0.5,0.7,1.1,0.7,1.8v25.4c0,0.7-0.3,1.3-0.7,1.8c-0.4,0.4-1,0.7-1.7,0.7
			c-0.7,0-1.3-0.3-1.7-0.7s-0.7-1.1-0.7-1.7c-1.6,1.8-4,2.9-6.5,2.9c-1.8,0-3.6-0.5-5.1-1.5c-1.6-1-2.8-2.4-3.6-4.1
			c-1-1.8-1.4-3.8-1.3-5.9c0-2.1,0.4-4.1,1.3-5.9c0.8-1.6,2.1-3,3.6-4.1c1.5-1,3.3-1.5,5-1.5c1.3,0,2.5,0.3,3.7,0.7
			c1,0.4,2.1,1,3,1.8v-8.1c0-0.7,0.3-1.3,0.7-1.8c0.4-0.4,1-0.7,1.7-0.7C995.1,488.1,995.7,488.4,996.3,488.8z M990.5,512.5
			c1.1-1.4,1.7-3.1,1.6-4.9c0.1-1.8-0.5-3.6-1.6-4.9c-2.1-2.4-5.7-2.6-8.2-0.5c-0.2,0.2-0.3,0.3-0.5,0.5c-2.3,3-2.3,6.9,0,9.9
			c1,1.3,2.7,2,4.3,2C987.8,514.5,989.5,513.8,990.5,512.5z"/>
		<path class="st4" d="M1021.1,497.2c0.4,0.5,0.7,1.1,0.7,1.8v10.5c0,3-0.8,5.3-2.4,6.9c-1.6,1.6-3.9,2.5-6.9,2.5s-5.3-0.9-6.9-2.5
			c-1.6-1.6-2.4-4-2.4-6.9v-10.5c0-0.7,0.3-1.3,0.7-1.8c1-1,2.5-1,3.6,0c0.4,0.5,0.7,1.1,0.7,1.8v10.5c-0.1,1.3,0.3,2.7,1.1,3.7
			c0.9,0.9,2.1,1.3,3.3,1.2c1.2,0.1,2.5-0.3,3.4-1.2c0.8-1,1.2-2.4,1.1-3.7v-10.5c0-0.7,0.3-1.3,0.7-1.8
			C1018.7,496.3,1020.2,496.3,1021.1,497.2L1021.1,497.2z"/>
		<path class="st4" d="M1046.8,496.8c0.4,0.5,0.7,1.1,0.7,1.8v17.4c0,0.7-0.3,1.3-0.7,1.8c-0.4,0.4-1,0.7-1.7,0.7
			c-0.7,0-1.3-0.3-1.7-0.7c-0.4-0.4-0.7-1.1-0.7-1.7c-1.6,1.8-4,2.9-6.5,2.9c-1.8,0-3.6-0.5-5.1-1.5c-1.6-1-2.8-2.4-3.6-4.1
			c-1-1.8-1.4-3.8-1.3-5.9c0-2.1,0.4-4.1,1.3-5.9c0.8-1.6,2.1-3,3.6-4.1c1.5-1,3.3-1.5,5-1.5c1.3,0,2.5,0.3,3.7,0.7
			c1,0.4,2.1,1,3,1.8l0,0c0-0.7,0.3-1.3,0.7-1.8c0.4-0.4,1-0.7,1.7-0.7C1045.7,496.2,1046.4,496.4,1046.8,496.8z M1041.1,512.5
			c1.1-1.4,1.7-3.1,1.6-4.9c0.1-1.8-0.5-3.6-1.6-4.9c-2.1-2.4-5.7-2.6-8.2-0.5c-0.2,0.2-0.3,0.3-0.5,0.5c-2.3,3-2.3,6.9,0,9.9
			c1,1.3,2.7,2,4.3,2C1038.4,514.5,1040,513.8,1041.1,512.5z"/>
		<path class="st4" d="M1057.5,517.9c-0.4,0.4-1.1,0.7-1.8,0.7s-1.3-0.3-1.7-0.7c-0.4-0.5-0.7-1.1-0.7-1.8v-25.4
			c0-1.4,1-2.5,2.4-2.5h0.1c0.7,0,1.3,0.3,1.7,0.7c0.4,0.5,0.7,1.1,0.7,1.8v25.4C1058.2,516.8,1058,517.4,1057.5,517.9z"/>
	</g>
	<g class="st3">
		<path class="st4" d="M607.5,735.4c-0.5,0.4-1.1,0.7-1.8,0.7c-0.7,0-1.4-0.3-1.8-0.7c-0.5-0.4-0.8-1.1-0.7-1.8v-23.8
			c0-0.7,0.3-1.3,0.7-1.8c0.5-0.5,1.2-0.8,1.9-0.7c0.7,0,1.3,0.3,1.7,0.7c0.5,0.4,0.8,1.1,0.7,1.8v23.9
			C608.2,734.3,608,734.9,607.5,735.4z"/>
		<path class="st4" d="M631.6,716.2c1,1.6,1.6,4,1.6,6.9v10.6c0,0.7-0.3,1.3-0.7,1.8c-1,1-2.5,1-3.6,0c-0.4-0.5-0.7-1.1-0.7-1.8
			v-10.6c0.1-1.3-0.3-2.5-1-3.6c-0.8-1-2-1.4-3.3-1.3c-1.4-0.1-2.8,0.4-3.7,1.4c-0.9,1-1.4,2.2-1.4,3.5v10.6c0,0.7-0.3,1.3-0.7,1.8
			c-1,1-2.5,1-3.6,0c-0.4-0.5-0.7-1.1-0.7-1.8v-17c0-0.7,0.3-1.3,0.7-1.8c1-1,2.5-1,3.6,0c0.4,0.5,0.7,1.1,0.7,1.8v0.7
			c0.8-1,1.8-1.9,2.9-2.5c1.2-0.7,2.5-1.1,3.9-1C628.6,713.6,630.6,714.5,631.6,716.2z"/>
		<path class="st4" d="M658.2,706.3c0.4,0.5,0.7,1.1,0.7,1.8v25.4c0,0.7-0.3,1.3-0.7,1.8c-0.4,0.4-1,0.7-1.7,0.7
			c-0.7,0-1.3-0.3-1.7-0.7c-0.4-0.4-0.7-1.1-0.7-1.7c-1.6,1.8-4,2.9-6.5,2.9c-1.8,0-3.6-0.5-5.1-1.5c-1.6-1-2.8-2.4-3.6-4.1
			c-1-1.8-1.4-3.8-1.3-5.9c0-2.1,0.4-4.1,1.3-5.9c0.8-1.6,2.1-3,3.6-4.1c1.5-1,3.3-1.5,5-1.5c1.3,0,2.5,0.3,3.7,0.7
			c1,0.4,2.1,1,3,1.8V708c0-0.7,0.3-1.3,0.7-1.8c0.4-0.4,1-0.7,1.7-0.7C657.1,705.6,657.7,705.8,658.2,706.3z M652.5,730
			c1.1-1.4,1.7-3.1,1.7-4.9c0.1-1.8-0.5-3.6-1.7-4.9c-2.1-2.4-5.7-2.6-8.2-0.5c-0.2,0.2-0.3,0.3-0.5,0.5c-2.3,3-2.3,6.9,0,9.9
			c1,1.3,2.7,2,4.3,2C649.8,732,651.4,731.3,652.5,730L652.5,730z"/>
		<path class="st4" d="M664.4,710.9c-0.4-0.4-0.6-1-0.6-1.6v-0.8c-0.1-0.6,0.2-1.2,0.6-1.6c1.3-0.6,2.8-0.6,4,0
			c0.4,0.4,0.6,1,0.6,1.6v0.8c0.1,0.6-0.2,1.2-0.6,1.6c-0.6,0.3-1.3,0.5-2,0.4C665.7,711.5,665,711.3,664.4,710.9z M668.2,735.4
			c-1,1-2.5,1-3.6,0c-0.4-0.5-0.7-1.1-0.7-1.8v-17c0-0.7,0.3-1.3,0.7-1.8c1-1,2.5-1,3.6,0c0.4,0.5,0.7,1.1,0.7,1.8v17
			C668.9,734.3,668.7,734.9,668.2,735.4L668.2,735.4z"/>
		<path class="st4" d="M692.6,714.8c0.4,0.4,0.7,1,0.7,1.6c0,0.4-0.2,0.9-0.3,1.2l-7.7,17c-0.2,0.4-0.5,0.9-0.9,1.1
			c-0.3,0.3-0.8,0.4-1.3,0.4h-0.3c-0.4,0-1-0.2-1.3-0.4c-0.4-0.3-0.7-0.7-1-1.1l-7.6-16.9c-0.2-0.4-0.3-0.9-0.3-1.3
			c0-0.6,0.3-1.1,0.7-1.5c0.4-0.4,1.1-0.7,1.7-0.7c0.5,0,1,0.2,1.5,0.4c0.4,0.3,0.8,0.7,1,1.1l5.6,13l5.6-13
			c0.2-0.4,0.4-0.9,0.9-1.2c0.3-0.3,0.8-0.4,1.3-0.3C691.6,714.1,692.2,714.2,692.6,714.8z"/>
		<path class="st4" d="M697.3,710.9c-0.4-0.4-0.6-1-0.6-1.6v-0.8c-0.1-0.6,0.2-1.2,0.6-1.6c1.3-0.6,2.8-0.6,4,0
			c0.4,0.4,0.6,1,0.6,1.6v0.8c0.1,0.6-0.2,1.2-0.6,1.6c-0.6,0.3-1.3,0.5-2,0.4C698.6,711.5,697.9,711.3,697.3,710.9z M701.1,735.4
			c-1,1-2.5,1-3.6,0c-0.4-0.5-0.7-1.1-0.7-1.8v-17c0-0.7,0.3-1.3,0.7-1.8c1-1,2.5-1,3.6,0c0.4,0.5,0.7,1.1,0.7,1.8v17
			C701.8,734.3,701.6,734.9,701.1,735.4z"/>
		<path class="st4" d="M726.5,706.3c0.4,0.5,0.7,1.1,0.7,1.8v25.4c0,0.7-0.3,1.3-0.7,1.8c-0.4,0.4-1,0.7-1.7,0.7
			c-0.7,0-1.3-0.3-1.7-0.7c-0.4-0.4-0.7-1.1-0.7-1.7c-1.6,1.8-4,2.9-6.5,2.9c-1.8,0-3.6-0.5-5.1-1.5c-1.6-1-2.8-2.4-3.6-4.1
			c-1-1.8-1.4-3.8-1.3-5.9c0-2.1,0.4-4.1,1.3-5.9c0.8-1.6,2.1-3,3.6-4.1c1.5-1,3.3-1.5,5-1.5c1.3,0,2.5,0.3,3.7,0.7
			c1,0.4,2.1,1,3,1.8V708c0-0.7,0.3-1.3,0.7-1.8c0.4-0.4,1-0.7,1.7-0.7C725.4,705.6,726,705.8,726.5,706.3z M720.7,730
			c1.1-1.4,1.7-3.1,1.7-4.9c0.1-1.8-0.5-3.6-1.7-4.9c-2.1-2.4-5.7-2.6-8.2-0.5c-0.2,0.2-0.3,0.3-0.5,0.5c-2.3,3-2.3,6.9,0,9.9
			c1,1.3,2.7,2,4.3,2C718.1,732,719.7,731.3,720.7,730L720.7,730z"/>
		<path class="st4" d="M751.4,714.8c0.4,0.5,0.7,1.1,0.7,1.8v10.5c0,3-0.8,5.3-2.4,6.9c-1.6,1.6-4,2.5-6.9,2.5c-3,0-5.3-0.9-6.9-2.5
			c-1.6-1.6-2.4-4-2.4-6.9v-10.5c0-0.7,0.3-1.3,0.7-1.8c1-1,2.5-1,3.6,0c0.4,0.5,0.7,1.1,0.7,1.8v10.5c-0.1,1.3,0.3,2.7,1.1,3.7
			c0.9,0.9,2.1,1.3,3.3,1.2c1.2,0.1,2.5-0.3,3.4-1.2c0.8-1,1.2-2.4,1.1-3.7v-10.5c0-0.7,0.3-1.3,0.7-1.8
			C748.9,713.8,750.4,713.8,751.4,714.8L751.4,714.8z"/>
		<path class="st4" d="M777.1,714.3c0.4,0.5,0.7,1.1,0.7,1.8v17.4c0,0.7-0.3,1.3-0.7,1.8c-0.4,0.4-1,0.7-1.7,0.7
			c-0.7,0-1.3-0.3-1.7-0.7s-0.7-1.1-0.7-1.7c-1.6,1.8-4,2.9-6.5,2.9c-1.8,0-3.6-0.5-5.1-1.5c-1.6-1-2.8-2.4-3.6-4.1
			c-1-1.8-1.4-3.8-1.3-5.9c0-2.1,0.4-4.1,1.3-5.9c0.8-1.6,2.1-3,3.6-4.1c1.5-1,3.3-1.5,5-1.5c1.3,0,2.5,0.3,3.7,0.7
			c1,0.4,2.1,1,3,1.8l0,0c0-0.7,0.3-1.3,0.7-1.8c0.4-0.4,1-0.7,1.7-0.7C776,713.6,776.6,713.9,777.1,714.3z M771.4,730
			c1.1-1.4,1.7-3.1,1.7-4.9c0.1-1.8-0.5-3.6-1.7-4.9c-2.1-2.4-5.7-2.6-8.2-0.5c-0.2,0.2-0.3,0.3-0.5,0.5c-2.3,3-2.3,6.9,0,9.9
			c1,1.3,2.7,2,4.3,2C768.7,732,770.3,731.3,771.4,730z"/>
		<path class="st4" d="M787.8,735.4c-0.4,0.5-1.1,0.8-1.8,0.7c-0.7,0-1.3-0.3-1.7-0.7c-0.4-0.5-0.7-1.1-0.7-1.8v-25.4
			c0-1.4,1-2.5,2.4-2.5h0.1c0.7,0,1.3,0.3,1.7,0.7c0.4,0.5,0.7,1.1,0.7,1.8v25.4C788.5,734.3,788.2,734.9,787.8,735.4z"/>
	</g>
	<g class="st3">
		<path class="st4" d="M868.6,735.4c-0.5,0.4-1.1,0.7-1.8,0.7c-0.7,0-1.4-0.3-1.8-0.7c-0.5-0.4-0.8-1.1-0.7-1.8v-23.8
			c0-0.7,0.3-1.3,0.8-1.8c0.5-0.5,1.2-0.8,1.9-0.7c0.7,0,1.3,0.3,1.7,0.7c0.5,0.4,0.8,1.1,0.7,1.8v23.9
			C869.4,734.3,869.1,734.9,868.6,735.4z"/>
		<path class="st4" d="M892.7,716.2c1,1.6,1.6,4,1.6,6.9v10.6c0,0.7-0.3,1.3-0.7,1.8c-1,1-2.5,1-3.6,0c-0.4-0.5-0.7-1.1-0.7-1.8
			v-10.6c0.1-1.3-0.3-2.5-1-3.6c-0.8-1-2-1.4-3.3-1.3c-1.4-0.1-2.8,0.4-3.7,1.4c-0.9,1-1.4,2.2-1.4,3.5v10.6c0,0.7-0.3,1.3-0.7,1.8
			c-1,1-2.5,1-3.6,0c-0.4-0.5-0.7-1.1-0.7-1.8v-17c0-0.7,0.3-1.3,0.7-1.8c1-1,2.5-1,3.6,0c0.4,0.5,0.7,1.1,0.7,1.8v0.7
			c0.8-1,1.8-1.9,2.9-2.5c1.2-0.7,2.5-1.1,3.9-1C889.7,713.6,891.7,714.5,892.7,716.2z"/>
		<path class="st4" d="M919.3,706.3c0.4,0.5,0.7,1.1,0.7,1.8v25.4c0,0.7-0.3,1.3-0.7,1.8c-0.4,0.4-1,0.7-1.7,0.7
			c-0.7,0-1.3-0.3-1.7-0.7c-0.4-0.4-0.7-1.1-0.7-1.7c-1.6,1.8-4,2.9-6.5,2.9c-1.8,0-3.6-0.5-5.1-1.5c-1.6-1-2.8-2.4-3.6-4.1
			c-1-1.8-1.4-3.8-1.3-5.9c0-2.1,0.4-4.1,1.3-5.9c0.8-1.6,2.1-3,3.6-4.1c1.5-1,3.3-1.5,5-1.5c1.3,0,2.5,0.3,3.7,0.7
			c1,0.4,2.1,1,3,1.8V708c0-0.7,0.3-1.3,0.7-1.8c0.4-0.4,1-0.7,1.7-0.7C918.1,705.6,918.8,705.8,919.3,706.3z M913.5,730
			c1.1-1.4,1.7-3.1,1.6-4.9c0.1-1.8-0.5-3.6-1.6-4.9c-2.1-2.4-5.7-2.6-8.2-0.5c-0.2,0.2-0.3,0.3-0.5,0.5c-2.3,3-2.3,6.9,0,9.9
			c1,1.3,2.7,2,4.3,2C910.8,732,912.5,731.3,913.5,730L913.5,730z"/>
		<path class="st4" d="M925.5,710.9c-0.4-0.4-0.6-1-0.6-1.6v-0.8c-0.1-0.6,0.2-1.2,0.6-1.6c1.3-0.6,2.8-0.6,4,0
			c0.4,0.4,0.6,1,0.6,1.6v0.8c0.1,0.6-0.2,1.2-0.6,1.6c-0.6,0.3-1.3,0.5-2,0.4C926.8,711.5,926.1,711.3,925.5,710.9z M929.3,735.4
			c-1,1-2.5,1-3.6,0c-0.4-0.5-0.7-1.1-0.7-1.8v-17c0-0.7,0.3-1.3,0.7-1.8c1-1,2.5-1,3.6,0c0.4,0.5,0.7,1.1,0.7,1.8v17
			C930,734.2,929.8,734.9,929.3,735.4L929.3,735.4z"/>
		<path class="st4" d="M953.6,714.8c0.4,0.4,0.7,1,0.7,1.6c0,0.4-0.2,0.9-0.3,1.2l-7.7,17c-0.2,0.4-0.5,0.9-0.9,1.1
			c-0.3,0.3-0.8,0.4-1.2,0.4h-0.3c-0.4,0-1-0.2-1.3-0.4c-0.4-0.3-0.7-0.7-1-1.1l-7.6-16.9c-0.2-0.4-0.3-0.9-0.3-1.3
			c0-0.6,0.3-1.1,0.7-1.5c0.4-0.4,1.1-0.7,1.7-0.7c0.5,0,1,0.2,1.5,0.4c0.4,0.3,0.8,0.7,1,1.1l5.7,13l5.6-13
			c0.2-0.4,0.4-0.9,0.9-1.2c0.3-0.3,0.8-0.4,1.3-0.3C952.6,714.1,953.2,714.3,953.6,714.8z"/>
		<path class="st4" d="M958.4,710.9c-0.4-0.4-0.6-1-0.6-1.6v-0.8c-0.1-0.6,0.2-1.2,0.6-1.6c1.3-0.6,2.8-0.6,4,0
			c0.4,0.4,0.6,1,0.6,1.6v0.8c0.1,0.6-0.2,1.2-0.6,1.6c-0.6,0.3-1.3,0.5-2,0.4C959.7,711.5,959,711.3,958.4,710.9z M962.2,735.4
			c-1,1-2.5,1-3.6,0c-0.4-0.5-0.7-1.1-0.7-1.8v-17c0-0.7,0.3-1.3,0.7-1.8c1-1,2.5-1,3.6,0c0.4,0.5,0.7,1.1,0.7,1.8v17
			C962.9,734.3,962.7,734.9,962.2,735.4L962.2,735.4z"/>
		<path class="st4" d="M987.6,706.3c0.4,0.5,0.7,1.1,0.7,1.8v25.4c0,0.7-0.3,1.3-0.7,1.8c-0.4,0.4-1,0.7-1.7,0.7
			c-0.7,0-1.3-0.3-1.7-0.7c-0.4-0.4-0.7-1.1-0.7-1.7c-1.6,1.8-4,2.9-6.5,2.9c-1.8,0-3.6-0.5-5.1-1.5c-1.6-1-2.8-2.4-3.6-4.1
			c-1-1.8-1.4-3.8-1.3-5.9c0-2.1,0.4-4.1,1.3-5.9c0.8-1.6,2.1-3,3.6-4.1c1.5-1,3.3-1.5,5-1.5c1.3,0,2.5,0.3,3.7,0.7
			c1,0.4,2.1,1,3,1.8V708c0-0.7,0.2-1.3,0.6-1.8c0.4-0.4,1-0.7,1.7-0.7C986.5,705.6,987.1,705.8,987.6,706.3z M981.9,730
			c1.1-1.4,1.7-3.1,1.6-4.9c0.1-1.8-0.5-3.6-1.6-4.9c-2.1-2.4-5.7-2.6-8.2-0.5c-0.2,0.2-0.3,0.3-0.5,0.5c-2.3,3-2.3,6.9,0,9.9
			c1,1.3,2.7,2,4.3,2C979.2,732,980.8,731.3,981.9,730L981.9,730z"/>
		<path class="st4" d="M1012.4,714.8c0.4,0.5,0.7,1.1,0.7,1.8v10.5c0,3-0.8,5.3-2.4,6.9c-1.6,1.6-3.9,2.5-6.9,2.5
			c-3,0-5.3-0.9-6.9-2.5c-1.6-1.6-2.4-4-2.4-6.9v-10.5c0-0.7,0.3-1.3,0.7-1.8c1-1,2.5-1,3.6,0c0.4,0.5,0.7,1.1,0.7,1.8v10.5
			c-0.1,1.3,0.3,2.7,1.1,3.7c0.9,0.9,2.1,1.3,3.3,1.2c1.2,0.1,2.5-0.3,3.4-1.2c0.8-1,1.2-2.4,1.1-3.7v-10.5c0-0.7,0.3-1.3,0.7-1.8
			C1010,713.8,1011.5,713.8,1012.4,714.8L1012.4,714.8z"/>
		<path class="st4" d="M1038.1,714.3c0.4,0.5,0.7,1.1,0.7,1.8v17.4c0,0.7-0.3,1.3-0.7,1.8c-0.4,0.4-1,0.7-1.7,0.7
			c-0.7,0-1.3-0.3-1.7-0.7c-0.4-0.4-0.7-1.1-0.7-1.7c-1.6,1.8-4,2.9-6.5,2.9c-1.8,0-3.6-0.5-5.1-1.5c-1.6-1-2.8-2.4-3.6-4.1
			c-1-1.8-1.4-3.8-1.3-5.9c0-2.1,0.4-4.1,1.3-5.9c0.8-1.6,2.1-3,3.6-4.1c1.5-1,3.3-1.5,5-1.5c1.3,0,2.5,0.3,3.7,0.7
			c1,0.4,2.1,1,3,1.8l0,0c0-0.7,0.3-1.3,0.7-1.8c0.4-0.4,1-0.7,1.7-0.7C1037,713.6,1037.7,713.9,1038.1,714.3z M1032.4,730
			c1.1-1.4,1.7-3.1,1.6-4.9c0.1-1.8-0.5-3.6-1.6-4.9c-2.1-2.4-5.7-2.6-8.2-0.5c-0.2,0.2-0.3,0.3-0.5,0.5c-2.3,3-2.3,6.9,0,9.9
			c1,1.3,2.7,2,4.3,2C1029.7,732,1031.3,731.3,1032.4,730z"/>
		<path class="st4" d="M1048.8,735.4c-0.4,0.4-1.1,0.7-1.8,0.7s-1.3-0.3-1.7-0.7c-0.4-0.5-0.7-1.1-0.7-1.8v-25.4
			c0-1.4,1-2.5,2.4-2.5h0.1c0.7,0,1.3,0.3,1.7,0.7c0.4,0.5,0.7,1.1,0.7,1.8v25.4C1049.6,734.3,1049.3,734.9,1048.8,735.4z"/>
	</g>
	<g class="st3">
		<path class="st4" d="M631,107c1.4,0.7,2.2,1.7,2.2,3c0,0.6-0.2,1.1-0.5,1.6c-0.3,0.4-0.9,0.7-1.4,0.7c-0.3,0-0.7-0.1-1-0.2
			c-0.3-0.2-0.5-0.3-0.8-0.5c-0.3-0.2-0.5-0.3-0.8-0.5c-0.3-0.2-0.8-0.3-1.2-0.3s-0.9-0.2-1.3-0.2c-1.8-0.1-3.6,0.6-4.9,1.9
			c-1.2,1.4-1.8,3.2-1.7,5c-0.1,1.8,0.5,3.6,1.7,4.9c1.1,1.3,2.8,2,4.5,2c1,0.1,2.1-0.1,3-0.5c0.3-0.1,0.4-0.3,0.7-0.4
			c0.3-0.2,0.5-0.3,0.8-0.5c0.3-0.1,0.6-0.2,0.9-0.2c0.6,0,1.2,0.2,1.6,0.7c0.4,0.4,0.6,1,0.6,1.6c-0.1,0.8-0.5,1.5-1.1,1.8
			c-1,0.6-2,1.1-3,1.4c-1.3,0.3-2.7,0.5-4.1,0.5c-2,0-3.9-0.4-5.6-1.5c-1.6-1-2.9-2.4-3.7-4.1c-0.9-1.8-1.4-3.8-1.3-5.8
			c0-2.1,0.4-4.1,1.4-5.9c0.9-1.6,2.3-3.1,3.8-4.1c1.7-1,3.6-1.5,5.6-1.5C627.3,105.9,629.2,106.3,631,107z"/>
		<path class="st4" d="M656.7,123.4c-1,1.7-2.3,3.1-4.1,4.1c-3.6,1.9-7.8,1.9-11.4,0c-1.7-1-3.1-2.3-4.1-4.1c-2-3.7-2-8.2,0-11.8
			c1-1.7,2.3-3.1,4.1-4.1c3.6-1.9,7.8-1.9,11.4,0c1.7,1,3.1,2.3,4.1,4.1C658.6,115.2,658.6,119.6,656.7,123.4z M652.3,113.8
			c-0.5-1-1.3-1.8-2.3-2.4c-1.9-1.1-4.3-1.1-6.3,0c-1,0.6-1.7,1.5-2.3,2.4c-0.6,1.1-0.9,2.3-0.9,3.6c0,1.2,0.3,2.5,0.9,3.6
			c0.5,1,1.3,1.8,2.3,2.4c1.9,1.1,4.3,1.1,6.3,0c1-0.6,1.7-1.4,2.3-2.4c0.6-1.1,0.9-2.3,0.9-3.6C653.2,116.2,653,114.9,652.3,113.8
			L652.3,113.8z"/>
		<path class="st4" d="M666.9,127.7c-0.4,0.5-1.1,0.8-1.8,0.7c-0.7,0-1.3-0.3-1.7-0.7c-0.4-0.5-0.7-1.1-0.7-1.8v-25.4
			c0-1.4,1-2.5,2.4-2.5h0.1c0.7,0,1.3,0.3,1.7,0.7c0.4,0.5,0.7,1.1,0.7,1.8v25.4C667.6,126.6,667.4,127.3,666.9,127.7z"/>
		<path class="st4" d="M691.9,118.5c-0.5,0.4-1.1,0.6-1.7,0.6h-13.6c0.3,1.5,1,2.9,2.3,3.8c1.1,0.9,2.5,1.4,4,1.4
			c0.9,0,1.7-0.1,2.6-0.3c0.5-0.2,1-0.3,1.5-0.7l0.8-0.5c0.4-0.3,0.9-0.3,1.4-0.3s1.1,0.2,1.5,0.6c0.4,0.3,0.6,0.9,0.6,1.5
			c-0.1,0.8-0.4,1.6-1.1,2c-1,0.7-2,1.3-3.1,1.6c-3.3,1.1-6.9,0.8-10-0.8c-1.6-1-3-2.3-4-4c-1-1.7-1.4-3.7-1.4-5.7
			c-0.1-2.2,0.4-4.3,1.5-6.2c0.9-1.7,2.3-3.1,3.9-4.1c1.6-1,3.4-1.4,5.2-1.4s3.6,0.5,5.1,1.5s3,2.3,3.8,4c1,1.6,1.5,3.6,1.5,5.5
			C692.7,117.5,692.4,118.1,691.9,118.5z M676.6,115h10.8v-0.3c-0.1-1.2-0.8-2.3-1.7-3c-1-0.8-2.2-1.2-3.5-1.2
			C679.2,110.5,677.3,112,676.6,115L676.6,115z"/>
		<path class="st4" d="M712.2,107c1.4,0.7,2.2,1.7,2.2,3c0,0.6-0.2,1.1-0.5,1.6s-0.9,0.7-1.4,0.7c-0.3,0-0.7-0.1-1-0.2
			c-0.3-0.2-0.5-0.3-0.8-0.5c-0.3-0.2-0.5-0.3-0.8-0.5c-0.3-0.2-0.8-0.3-1.2-0.3c-0.4-0.1-0.9-0.2-1.3-0.2c-1.8-0.1-3.6,0.6-4.9,1.9
			c-1.2,1.4-1.8,3.2-1.7,5c-0.1,1.8,0.5,3.6,1.7,4.9c1.1,1.3,2.8,2,4.5,2c1,0.1,2.1-0.1,3-0.5c0.3-0.1,0.4-0.3,0.7-0.4
			c0.3-0.2,0.5-0.3,0.8-0.5c0.3-0.1,0.6-0.2,0.9-0.2c0.6,0,1.2,0.2,1.6,0.7c0.4,0.4,0.6,1,0.6,1.6c-0.1,0.8-0.5,1.5-1.1,1.8
			c-1,0.6-2,1.1-3,1.4c-1.3,0.3-2.7,0.5-4.1,0.5c-2,0-3.9-0.4-5.6-1.5c-1.6-1-2.9-2.4-3.7-4.1c-0.9-1.8-1.4-3.8-1.3-5.8
			c0-2.1,0.4-4.1,1.4-5.9c0.9-1.6,2.3-3.1,3.8-4.1c1.7-1,3.6-1.5,5.6-1.5C708.4,105.9,710.3,106.3,712.2,107z"/>
		<path class="st4" d="M729.8,124.3c0.8,1,0.6,2.3-0.3,3.1c-0.1,0.1-0.3,0.2-0.3,0.3c-0.8,0.5-1.7,0.8-2.8,0.8
			c-1.6,0.1-3-0.3-4.3-1.1c-1.1-0.7-1.7-2.3-1.7-4.6v-11.5h-1.9c-1.2,0-2.3-1-2.3-2.2V109c0-0.6,0.3-1.2,0.7-1.6
			c0.4-0.4,1-0.7,1.6-0.6h1.9v-2.6c0-1.4,1-2.5,2.4-2.5h0.1c0.7,0,1.3,0.3,1.7,0.7c0.4,0.5,0.7,1.1,0.7,1.8v2.6h3
			c1.2,0,2.3,1,2.3,2.2v0.1c0,0.6-0.3,1.2-0.7,1.6c-0.4,0.4-1,0.7-1.6,0.6h-3v11.2c-0.1,0.4,0.1,1,0.4,1.2c0.3,0.3,0.8,0.4,1.2,0.3
			c0.3,0,0.6-0.1,0.9-0.2c0.3-0.2,0.6-0.2,1-0.2C729.2,123.8,729.5,124,729.8,124.3z"/>
		<path class="st4" d="M735.2,103.2c-0.4-0.4-0.6-1-0.6-1.6v-0.8c-0.1-0.6,0.2-1.2,0.6-1.6c1.3-0.6,2.8-0.6,4,0
			c0.4,0.4,0.6,1,0.6,1.6v0.8c0.1,0.6-0.2,1.2-0.6,1.6c-0.6,0.3-1.3,0.5-2,0.4C736.4,103.7,735.7,103.6,735.2,103.2z M738.9,127.7
			c-1,1-2.5,1-3.6,0c-0.4-0.5-0.7-1.1-0.7-1.8v-17c0-0.7,0.3-1.3,0.7-1.8c1-1,2.5-1,3.6,0c0.4,0.5,0.7,1.1,0.7,1.8v17
			C739.7,126.6,739.4,127.3,738.9,127.7z"/>
		<path class="st4" d="M763.3,107c0.4,0.4,0.7,1,0.7,1.6c0,0.4-0.2,0.9-0.3,1.2l-7.7,17c-0.2,0.4-0.5,0.9-0.9,1.1
			c-0.3,0.3-0.8,0.4-1.3,0.4h-0.3c-0.4,0-1-0.2-1.3-0.4c-0.4-0.3-0.7-0.7-1-1.2l-7.6-16.9c-0.2-0.4-0.3-0.9-0.3-1.3
			c0-0.6,0.3-1.1,0.7-1.5c0.4-0.4,1.1-0.7,1.7-0.7c0.5,0,1,0.2,1.5,0.4s0.8,0.7,1,1.1l5.6,13l5.6-13c0.2-0.4,0.4-0.9,0.9-1.2
			c0.3-0.3,0.8-0.4,1.3-0.3C762.2,106.4,762.8,106.6,763.3,107z"/>
		<path class="st4" d="M787.3,123.4c-1,1.7-2.3,3.1-4.1,4.1c-3.6,1.9-7.8,1.9-11.4,0c-1.7-1-3.1-2.3-4.1-4.1c-2-3.7-2-8.2,0-11.8
			c1-1.7,2.3-3.1,4.1-4.1c3.6-1.9,7.8-1.9,11.4,0c1.7,1,3.1,2.3,4.1,4.1C789.3,115.2,789.3,119.6,787.3,123.4z M783,113.8
			c-0.5-1-1.3-1.8-2.3-2.4c-1.9-1.1-4.3-1.1-6.3,0c-1,0.6-1.7,1.5-2.3,2.4c-0.6,1.1-0.9,2.3-0.9,3.6c0,1.2,0.3,2.5,0.9,3.6
			c0.5,1,1.3,1.8,2.3,2.4c1.9,1.1,4.3,1.1,6.3,0c1-0.6,1.7-1.4,2.3-2.4c0.6-1.1,0.9-2.3,0.9-3.6C783.9,116.2,783.6,114.9,783,113.8
			L783,113.8z"/>
	</g>
	<g class="st3">
		<path class="st4" d="M896.1,107c1.4,0.7,2.2,1.7,2.2,3c0,0.6-0.2,1.1-0.5,1.6c-0.3,0.4-0.9,0.7-1.4,0.7c-0.3,0-0.7-0.1-1-0.2
			c-0.3-0.2-0.5-0.3-0.8-0.5c-0.3-0.2-0.5-0.3-0.8-0.5c-0.3-0.2-0.8-0.3-1.2-0.3s-0.9-0.2-1.3-0.2c-1.8-0.1-3.6,0.6-4.9,1.9
			c-1.2,1.4-1.8,3.2-1.7,5c-0.1,1.8,0.5,3.6,1.7,4.9c1.1,1.3,2.8,2,4.5,2c1,0.1,2.1-0.1,3-0.5c0.3-0.1,0.4-0.3,0.7-0.4
			c0.3-0.2,0.5-0.3,0.8-0.5c0.3-0.1,0.6-0.2,0.9-0.2c0.6,0,1.2,0.2,1.6,0.7c0.4,0.4,0.6,1,0.6,1.6c-0.1,0.8-0.5,1.5-1.1,1.8
			c-1,0.6-2,1.1-3,1.4c-1.3,0.3-2.7,0.5-4.1,0.5c-2,0-3.9-0.4-5.6-1.5c-1.6-1-2.9-2.4-3.7-4.1c-0.9-1.8-1.4-3.8-1.3-5.8
			c0-2.1,0.4-4.1,1.4-5.9c0.9-1.6,2.3-3.1,3.8-4.1c1.7-1,3.6-1.5,5.6-1.5C892.4,105.9,894.3,106.3,896.1,107z"/>
		<path class="st4" d="M921.8,123.4c-1,1.7-2.3,3.1-4.1,4.1c-3.6,1.9-7.8,1.9-11.4,0c-1.7-1-3.1-2.3-4.1-4.1c-2-3.7-2-8.2,0-11.8
			c1-1.7,2.3-3.1,4.1-4.1c3.6-1.9,7.8-1.9,11.4,0c1.7,1,3.1,2.3,4.1,4.1C923.8,115.2,923.8,119.6,921.8,123.4z M917.4,113.8
			c-0.5-1-1.3-1.8-2.3-2.4c-1.9-1.1-4.3-1.1-6.3,0c-1,0.6-1.7,1.5-2.3,2.4c-0.6,1.1-0.9,2.3-0.9,3.6c0,1.2,0.3,2.5,0.9,3.6
			c0.5,1,1.3,1.8,2.3,2.4c1.9,1.1,4.3,1.1,6.3,0c1-0.6,1.7-1.4,2.3-2.4c0.6-1.1,0.9-2.3,0.9-3.6
			C918.3,116.2,918.1,114.9,917.4,113.8L917.4,113.8z"/>
		<path class="st4" d="M932,127.7c-0.4,0.5-1.1,0.8-1.8,0.7c-0.7,0-1.3-0.3-1.7-0.7c-0.4-0.5-0.7-1.1-0.7-1.8v-25.4
			c0-1.4,1-2.5,2.4-2.5h0.1c0.7,0,1.3,0.3,1.7,0.7c0.4,0.5,0.7,1.1,0.7,1.8v25.4C932.7,126.6,932.5,127.3,932,127.7z"/>
		<path class="st4" d="M957.1,118.5c-0.5,0.4-1.1,0.6-1.7,0.6h-13.6c0.3,1.5,1,2.9,2.3,3.8c1.1,0.9,2.5,1.4,4,1.4
			c0.9,0,1.7-0.1,2.6-0.3c0.5-0.2,1-0.3,1.5-0.7l0.8-0.5c0.4-0.3,1-0.3,1.4-0.3c0.5,0,1.1,0.2,1.5,0.6c0.4,0.3,0.6,0.9,0.6,1.5
			c-0.1,0.8-0.4,1.6-1.1,2c-1,0.7-2,1.3-3.1,1.6c-3.3,1.1-6.9,0.8-10-0.8c-1.6-1-3-2.3-4-4c-1-1.7-1.4-3.7-1.4-5.7
			c-0.1-2.2,0.4-4.3,1.5-6.2c0.9-1.7,2.3-3.1,3.9-4.1c1.6-1,3.4-1.4,5.2-1.4s3.6,0.5,5.1,1.5s3,2.3,3.8,4c1,1.6,1.5,3.6,1.5,5.5
			C957.9,117.5,957.6,118.1,957.1,118.5z M941.8,115h10.8v-0.3c-0.1-1.2-0.8-2.3-1.6-3c-1-0.8-2.2-1.2-3.5-1.2
			C944.3,110.5,942.4,112,941.8,115L941.8,115z"/>
		<path class="st4" d="M977.3,107c1.4,0.7,2.2,1.7,2.2,3c0,0.6-0.2,1.1-0.5,1.6c-0.3,0.4-0.9,0.7-1.4,0.7c-0.3,0-0.7-0.1-1-0.2
			c-0.3-0.2-0.5-0.3-0.8-0.5c-0.3-0.2-0.5-0.3-0.8-0.5c-0.3-0.2-0.8-0.3-1.2-0.3s-0.9-0.2-1.3-0.2c-1.8-0.1-3.6,0.6-4.9,1.9
			c-1.2,1.4-1.8,3.2-1.7,5c-0.1,1.8,0.5,3.6,1.7,4.9c1.1,1.3,2.8,2,4.5,2c1,0.1,2.1-0.1,3-0.5c0.3-0.1,0.4-0.3,0.7-0.4
			c0.3-0.2,0.5-0.3,0.8-0.5c0.3-0.1,0.6-0.2,0.9-0.2c0.6,0,1.2,0.2,1.6,0.7c0.4,0.4,0.6,1,0.6,1.6c-0.1,0.8-0.5,1.5-1.1,1.8
			c-1,0.6-2,1.1-3,1.4c-1.3,0.3-2.7,0.5-4.1,0.5c-2,0-3.9-0.4-5.6-1.5c-1.6-1-2.9-2.4-3.7-4.1c-0.9-1.8-1.4-3.8-1.3-5.8
			c0-2.1,0.4-4.1,1.4-5.9c0.9-1.6,2.3-3.1,3.8-4.1c1.7-1,3.6-1.5,5.6-1.5C973.5,105.9,975.4,106.3,977.3,107z"/>
		<path class="st4" d="M994.9,124.3c0.8,1,0.6,2.3-0.3,3.1c-0.1,0.1-0.3,0.2-0.3,0.3c-0.8,0.5-1.7,0.8-2.8,0.8
			c-1.6,0.1-3-0.3-4.3-1.1c-1.1-0.7-1.7-2.3-1.7-4.6v-11.5h-1.9c-1.2,0-2.3-1-2.3-2.2V109c0-0.6,0.3-1.2,0.7-1.6
			c0.4-0.4,1-0.7,1.6-0.6h1.9v-2.6c0-1.4,1-2.5,2.4-2.5h0.1c0.7,0,1.3,0.3,1.7,0.7c0.4,0.5,0.7,1.1,0.7,1.8v2.6h3
			c1.2,0,2.3,1,2.3,2.2v0.1c0,0.6-0.3,1.2-0.7,1.6c-0.4,0.4-1,0.7-1.6,0.6h-3v11.2c-0.1,0.4,0.1,1,0.4,1.2c0.3,0.3,0.8,0.4,1.2,0.3
			c0.3,0,0.6-0.1,0.9-0.2c0.3-0.2,0.6-0.2,1-0.2C994.3,123.8,994.6,124,994.9,124.3z"/>
		<path class="st4" d="M1000.3,103.2c-0.4-0.4-0.6-1-0.6-1.6v-0.8c-0.1-0.6,0.2-1.2,0.6-1.6c1.3-0.6,2.8-0.6,4,0
			c0.4,0.4,0.6,1,0.6,1.6v0.8c0.1,0.6-0.2,1.2-0.6,1.6c-0.6,0.3-1.3,0.5-2,0.4C1001.6,103.7,1000.9,103.6,1000.3,103.2z M1004,127.7
			c-1,1-2.5,1-3.6,0c-0.4-0.5-0.7-1.1-0.7-1.8v-17c0-0.7,0.3-1.3,0.7-1.8c1-1,2.5-1,3.6,0c0.4,0.5,0.7,1.1,0.7,1.8v17
			C1004.8,126.6,1004.5,127.3,1004,127.7L1004,127.7z"/>
		<path class="st4" d="M1028.4,107c0.4,0.4,0.7,1,0.7,1.6c0,0.4-0.2,0.9-0.3,1.2l-7.7,17c-0.2,0.4-0.5,0.9-0.9,1.1
			c-0.3,0.3-0.8,0.4-1.2,0.4h-0.3c-0.4,0-1-0.2-1.3-0.4c-0.4-0.3-0.7-0.7-1-1.2l-7.6-17c-0.2-0.4-0.3-0.9-0.3-1.3
			c0-0.6,0.3-1.1,0.7-1.5c0.4-0.4,1.1-0.7,1.7-0.7c0.5,0,1,0.2,1.5,0.4c0.4,0.3,0.8,0.7,1,1.1l5.7,13l5.6-13
			c0.2-0.4,0.4-0.9,0.9-1.2c0.3-0.3,0.8-0.4,1.3-0.3C1027.3,106.4,1027.9,106.6,1028.4,107z"/>
		<path class="st4" d="M1052.4,123.4c-1,1.7-2.3,3.1-4.1,4.1c-3.6,1.9-7.8,1.9-11.4,0c-1.7-1-3.1-2.3-4.1-4.1c-2-3.7-2-8.2,0-11.8
			c1-1.7,2.3-3.1,4.1-4.1c3.6-1.9,7.8-1.9,11.4,0c1.7,1,3.1,2.3,4.1,4.1C1054.4,115.2,1054.4,119.6,1052.4,123.4z M1048.1,113.8
			c-0.5-1-1.3-1.8-2.3-2.4c-1.9-1.1-4.3-1.1-6.3,0c-1,0.6-1.7,1.5-2.3,2.4c-0.6,1.1-0.9,2.3-0.9,3.6c0,1.2,0.3,2.5,0.9,3.6
			c0.5,1,1.3,1.8,2.3,2.4c1.9,1.1,4.3,1.1,6.3,0c1-0.6,1.7-1.4,2.3-2.4c0.6-1.1,0.9-2.3,0.9-3.6
			C1049,116.2,1048.7,114.9,1048.1,113.8L1048.1,113.8z"/>
	</g>
	<g class="st3">
		<path class="st4" d="M631,1005.4c1.4,0.7,2.2,1.7,2.2,2.9c0,0.6-0.2,1.1-0.5,1.6c-0.3,0.4-0.9,0.7-1.4,0.7c-0.3,0-0.7-0.1-1-0.2
			c-0.3-0.2-0.5-0.3-0.8-0.5c-0.3-0.2-0.5-0.3-0.8-0.5c-0.3-0.2-0.8-0.3-1.2-0.3s-0.9-0.2-1.3-0.2c-1.8-0.1-3.6,0.6-4.9,1.9
			c-1.2,1.4-1.8,3.2-1.7,5c-0.1,1.8,0.5,3.6,1.7,4.9c1.1,1.3,2.8,2,4.5,2c1,0.1,2.1-0.1,3-0.5c0.3-0.1,0.4-0.3,0.7-0.4
			c0.3-0.2,0.5-0.3,0.8-0.5c0.3-0.1,0.6-0.2,0.9-0.2c0.6,0,1.2,0.2,1.6,0.7c0.4,0.4,0.6,1,0.6,1.6c-0.1,0.8-0.5,1.5-1.1,1.8
			c-1,0.6-2,1.1-3,1.4c-1.3,0.3-2.7,0.5-4.1,0.5c-2,0-3.9-0.4-5.6-1.5c-1.6-1-2.9-2.4-3.7-4.1c-0.9-1.8-1.4-3.8-1.3-5.8
			c0-2.1,0.4-4.1,1.4-5.9c0.9-1.6,2.3-3.1,3.8-4.1c1.7-1,3.6-1.5,5.6-1.5C627.3,1004.3,629.2,1004.6,631,1005.4z"/>
		<path class="st4" d="M656.7,1021.7c-1,1.7-2.3,3.1-4.1,4.1c-3.6,1.9-7.8,1.9-11.4,0c-1.7-1-3.1-2.3-4.1-4.1c-2-3.7-2-8.2,0-11.8
			c1-1.7,2.3-3.1,4.1-4.1c3.6-1.9,7.8-1.9,11.4,0c1.7,1,3.1,2.3,4.1,4.1C658.6,1013.6,658.6,1018,656.7,1021.7z M652.3,1012.2
			c-0.5-1-1.3-1.8-2.3-2.4c-1.9-1.1-4.3-1.1-6.3,0c-1,0.6-1.7,1.5-2.3,2.4c-0.6,1.1-0.9,2.3-0.9,3.6c0,1.2,0.3,2.5,0.9,3.6
			c0.5,1,1.3,1.8,2.3,2.4c1.9,1.1,4.3,1.1,6.3,0c1-0.6,1.7-1.4,2.3-2.4c0.6-1.1,0.9-2.3,0.9-3.6
			C653.2,1014.5,653,1013.3,652.3,1012.2L652.3,1012.2z"/>
		<path class="st4" d="M666.9,1026.1c-0.4,0.5-1.1,0.8-1.8,0.7c-0.7,0-1.3-0.3-1.7-0.7c-0.4-0.5-0.7-1.1-0.7-1.8v-25.4
			c0-1.4,1-2.5,2.4-2.5h0.1c0.7,0,1.3,0.3,1.7,0.7c0.4,0.5,0.7,1.1,0.7,1.8v25.4C667.6,1024.9,667.4,1025.6,666.9,1026.1z"/>
		<path class="st4" d="M691.9,1016.9c-0.5,0.4-1.1,0.6-1.7,0.6h-13.6c0.3,1.5,1,2.9,2.3,3.8c1.1,0.9,2.5,1.4,4,1.4
			c0.9,0,1.7-0.1,2.6-0.3c0.5-0.2,1-0.3,1.5-0.7l0.8-0.5c0.4-0.3,0.9-0.3,1.4-0.3s1.1,0.2,1.5,0.6c0.4,0.3,0.6,0.9,0.6,1.5
			c-0.1,0.8-0.4,1.6-1.1,2c-1,0.7-2,1.2-3.1,1.6c-3.3,1.1-6.9,0.8-10-0.8c-1.6-1-3-2.3-4-4s-1.4-3.7-1.4-5.7
			c-0.1-2.2,0.4-4.3,1.5-6.2c0.9-1.7,2.3-3.1,3.9-4.1c1.6-1,3.4-1.4,5.2-1.4s3.6,0.5,5.1,1.5c1.6,1,3,2.3,3.8,4
			c1,1.6,1.5,3.6,1.5,5.5C692.7,1015.9,692.4,1016.5,691.9,1016.9z M676.6,1013.4h10.8v-0.3c-0.1-1.2-0.8-2.3-1.7-3
			c-1-0.8-2.2-1.2-3.5-1.2C679.2,1008.9,677.3,1010.3,676.6,1013.4L676.6,1013.4z"/>
		<path class="st4" d="M712.2,1005.4c1.4,0.7,2.2,1.7,2.2,2.9c0,0.6-0.2,1.1-0.5,1.6c-0.3,0.4-0.9,0.7-1.4,0.7c-0.3,0-0.7-0.1-1-0.2
			c-0.3-0.2-0.5-0.3-0.8-0.5c-0.3-0.2-0.5-0.3-0.8-0.5c-0.3-0.2-0.8-0.3-1.2-0.3c-0.4-0.1-0.9-0.2-1.3-0.2c-1.8-0.1-3.6,0.6-4.9,1.9
			c-1.2,1.4-1.8,3.2-1.7,5c-0.1,1.8,0.5,3.6,1.7,4.9c1.1,1.3,2.8,2,4.5,2c1,0.1,2.1-0.1,3-0.5c0.3-0.1,0.4-0.3,0.7-0.4
			c0.3-0.2,0.5-0.3,0.8-0.5c0.3-0.1,0.6-0.2,0.9-0.2c0.6,0,1.2,0.2,1.6,0.7c0.4,0.4,0.6,1,0.6,1.6c-0.1,0.8-0.5,1.5-1.1,1.8
			c-1,0.6-2,1.1-3,1.4c-1.3,0.3-2.7,0.5-4.1,0.5c-2,0-3.9-0.4-5.6-1.5c-1.6-1-2.9-2.4-3.7-4.1c-0.9-1.8-1.4-3.8-1.3-5.8
			c0-2.1,0.4-4.1,1.4-5.9c0.9-1.6,2.3-3.1,3.8-4.1c1.7-1,3.6-1.5,5.6-1.5C708.4,1004.3,710.3,1004.6,712.2,1005.4z"/>
		<path class="st4" d="M729.8,1022.7c0.8,1,0.6,2.3-0.3,3.1c-0.1,0.1-0.3,0.2-0.3,0.3c-0.8,0.5-1.7,0.8-2.8,0.8
			c-1.6,0.1-3-0.3-4.3-1.1c-1.1-0.7-1.7-2.3-1.7-4.6v-11.4h-1.9c-1.2,0-2.3-1-2.3-2.2v-0.1c0-0.6,0.3-1.2,0.7-1.6
			c0.4-0.4,1-0.7,1.6-0.6h1.9v-2.6c0-1.4,1-2.5,2.4-2.5h0.1c0.7,0,1.3,0.3,1.7,0.7c0.4,0.5,0.7,1.1,0.7,1.8v2.6h3
			c1.2,0,2.3,1,2.3,2.2v0.1c0,0.6-0.3,1.2-0.7,1.6c-0.4,0.4-1,0.7-1.6,0.6h-3v11.2c-0.1,0.4,0.1,1,0.4,1.2c0.3,0.3,0.8,0.4,1.2,0.3
			c0.3,0,0.6-0.1,0.9-0.2c0.3-0.2,0.6-0.2,1-0.2C729.2,1022.1,729.5,1022.3,729.8,1022.7z"/>
		<path class="st4" d="M735.2,1001.6c-0.4-0.4-0.6-1-0.6-1.6v-0.8c-0.1-0.6,0.2-1.2,0.6-1.6c1.3-0.6,2.8-0.6,4,0
			c0.4,0.4,0.6,1,0.6,1.6v0.8c0.1,0.6-0.2,1.2-0.6,1.6c-0.6,0.3-1.3,0.5-2,0.4C736.4,1002.1,735.7,1002,735.2,1001.6z M738.9,1026.1
			c-1,1-2.5,1-3.6,0c-0.4-0.5-0.7-1.1-0.7-1.8v-17c0-0.7,0.3-1.3,0.7-1.8c1-1,2.5-1,3.6,0c0.4,0.5,0.7,1.1,0.7,1.8v17
			C739.7,1024.9,739.4,1025.6,738.9,1026.1z"/>
		<path class="st4" d="M763.3,1005.4c0.4,0.4,0.7,1,0.7,1.6c0,0.4-0.2,0.9-0.3,1.2l-7.7,17c-0.2,0.4-0.5,0.9-0.9,1.1
			c-0.3,0.3-0.8,0.4-1.3,0.4h-0.3c-0.4,0-1-0.2-1.3-0.4c-0.4-0.3-0.7-0.7-1-1.1l-7.6-16.9c-0.2-0.4-0.3-0.9-0.3-1.3
			c0-0.6,0.3-1.1,0.7-1.5c0.4-0.4,1.1-0.7,1.7-0.7c0.5,0,1,0.2,1.5,0.4c0.4,0.3,0.8,0.7,1,1.1l5.6,13l5.6-13
			c0.2-0.4,0.4-0.9,0.9-1.2c0.3-0.3,0.8-0.4,1.3-0.3C762.2,1004.7,762.8,1005,763.3,1005.4z"/>
		<path class="st4" d="M787.3,1021.7c-1,1.7-2.3,3.1-4.1,4.1c-3.6,1.9-7.8,1.9-11.4,0c-1.7-1-3.1-2.3-4.1-4.1c-2-3.7-2-8.2,0-11.8
			c1-1.7,2.3-3.1,4.1-4.1c3.6-1.9,7.8-1.9,11.4,0c1.7,1,3.1,2.3,4.1,4.1C789.3,1013.6,789.3,1018,787.3,1021.7z M783,1012.2
			c-0.5-1-1.3-1.8-2.3-2.4c-1.9-1.1-4.3-1.1-6.3,0c-1,0.6-1.7,1.5-2.3,2.4c-0.6,1.1-0.9,2.3-0.9,3.6c0,1.2,0.3,2.5,0.9,3.6
			c0.5,1,1.3,1.8,2.3,2.4c1.9,1.1,4.3,1.1,6.3,0c1-0.6,1.7-1.4,2.3-2.4c0.6-1.1,0.9-2.3,0.9-3.6
			C783.9,1014.5,783.6,1013.3,783,1012.2L783,1012.2z"/>
	</g>
	<g class="st3">
		<path class="st4" d="M896.1,1005.4c1.4,0.7,2.2,1.7,2.2,2.9c0,0.6-0.2,1.1-0.5,1.6c-0.3,0.4-0.9,0.7-1.4,0.7c-0.3,0-0.7-0.1-1-0.2
			c-0.3-0.2-0.5-0.3-0.8-0.5c-0.3-0.2-0.5-0.3-0.8-0.5c-0.3-0.2-0.8-0.3-1.2-0.3s-0.9-0.2-1.3-0.2c-1.8-0.1-3.6,0.6-4.9,1.9
			c-1.2,1.4-1.8,3.2-1.7,5c-0.1,1.8,0.5,3.6,1.7,4.9c1.1,1.3,2.8,2,4.5,2c1,0.1,2.1-0.1,3-0.5c0.3-0.1,0.4-0.3,0.7-0.4
			c0.3-0.2,0.5-0.3,0.8-0.5c0.3-0.1,0.6-0.2,0.9-0.2c0.6,0,1.2,0.2,1.6,0.7c0.4,0.4,0.6,1,0.6,1.6c-0.1,0.8-0.5,1.5-1.1,1.8
			c-1,0.6-2,1.1-3,1.4c-1.3,0.3-2.7,0.5-4.1,0.5c-2,0-3.9-0.4-5.6-1.5c-1.6-1-2.9-2.4-3.7-4.1c-0.9-1.8-1.4-3.8-1.3-5.8
			c0-2.1,0.4-4.1,1.4-5.9c0.9-1.6,2.3-3.1,3.8-4.1c1.7-1,3.6-1.5,5.6-1.5C892.4,1004.3,894.3,1004.6,896.1,1005.4z"/>
		<path class="st4" d="M921.8,1021.7c-1,1.7-2.3,3.1-4.1,4.1c-3.6,1.9-7.8,1.9-11.4,0c-1.7-1-3.1-2.3-4.1-4.1c-2-3.7-2-8.2,0-11.8
			c1-1.7,2.3-3.1,4.1-4.1c3.6-1.9,7.8-1.9,11.4,0c1.7,1,3.1,2.3,4.1,4.1C923.8,1013.6,923.8,1018,921.8,1021.7z M917.4,1012.2
			c-0.5-1-1.3-1.8-2.3-2.4c-1.9-1.1-4.3-1.1-6.3,0c-1,0.6-1.7,1.5-2.3,2.4c-0.6,1.1-0.9,2.3-0.9,3.6c0,1.2,0.3,2.5,0.9,3.6
			c0.5,1,1.3,1.8,2.3,2.4c1.9,1.1,4.3,1.1,6.3,0c1-0.6,1.7-1.4,2.3-2.4c0.6-1.1,0.9-2.3,0.9-3.6
			C918.3,1014.5,918.1,1013.3,917.4,1012.2L917.4,1012.2z"/>
		<path class="st4" d="M932,1026.1c-0.4,0.5-1.1,0.8-1.8,0.7c-0.7,0-1.3-0.3-1.7-0.7c-0.4-0.5-0.7-1.1-0.7-1.8v-25.4
			c0-1.4,1-2.5,2.4-2.5h0.1c0.7,0,1.3,0.3,1.7,0.7c0.4,0.5,0.7,1.1,0.7,1.8v25.4C932.7,1024.9,932.5,1025.6,932,1026.1z"/>
		<path class="st4" d="M957.1,1016.9c-0.5,0.4-1.1,0.6-1.7,0.6h-13.6c0.3,1.5,1,2.9,2.3,3.8c1.1,0.9,2.5,1.4,4,1.4
			c0.9,0,1.7-0.1,2.6-0.3c0.5-0.2,1-0.3,1.5-0.7l0.8-0.5c0.4-0.3,1-0.3,1.4-0.3c0.5,0,1.1,0.2,1.5,0.6c0.4,0.3,0.6,0.9,0.6,1.5
			c-0.1,0.8-0.4,1.6-1.1,2c-1,0.7-2,1.2-3.1,1.6c-3.3,1.1-6.9,0.8-10-0.8c-1.6-1-3-2.3-4-4s-1.4-3.7-1.4-5.7
			c-0.1-2.2,0.4-4.3,1.5-6.2c0.9-1.7,2.3-3.1,3.9-4.1c1.6-1,3.4-1.4,5.2-1.4s3.6,0.5,5.1,1.5c1.6,1,3,2.3,3.8,4
			c1,1.6,1.5,3.6,1.5,5.5C957.9,1015.9,957.6,1016.5,957.1,1016.9z M941.8,1013.4h10.8v-0.3c-0.1-1.2-0.8-2.3-1.6-3
			c-1-0.8-2.2-1.2-3.5-1.2C944.3,1008.9,942.4,1010.3,941.8,1013.4L941.8,1013.4z"/>
		<path class="st4" d="M977.3,1005.4c1.4,0.7,2.2,1.7,2.2,2.9c0,0.6-0.2,1.1-0.5,1.6c-0.3,0.4-0.9,0.7-1.4,0.7c-0.3,0-0.7-0.1-1-0.2
			c-0.3-0.2-0.5-0.3-0.8-0.5c-0.3-0.2-0.5-0.3-0.8-0.5c-0.3-0.2-0.8-0.3-1.2-0.3s-0.9-0.2-1.3-0.2c-1.8-0.1-3.6,0.6-4.9,1.9
			c-1.2,1.4-1.8,3.2-1.7,5c-0.1,1.8,0.5,3.6,1.7,4.9c1.1,1.3,2.8,2,4.5,2c1,0.1,2.1-0.1,3-0.5c0.3-0.1,0.4-0.3,0.7-0.4
			c0.3-0.2,0.5-0.3,0.8-0.5c0.3-0.1,0.6-0.2,0.9-0.2c0.6,0,1.2,0.2,1.6,0.7c0.4,0.4,0.6,1,0.6,1.6c-0.1,0.8-0.5,1.5-1.1,1.8
			c-1,0.6-2,1.1-3,1.4c-1.3,0.3-2.7,0.5-4.1,0.5c-1.9,0-3.9-0.4-5.6-1.5c-1.6-1-2.9-2.4-3.7-4.1c-0.9-1.8-1.4-3.8-1.3-5.8
			c0-2.1,0.4-4.1,1.4-5.9c0.9-1.6,2.3-3.1,3.8-4.1c1.7-1,3.6-1.5,5.6-1.5C973.5,1004.3,975.4,1004.6,977.3,1005.4z"/>
		<path class="st4" d="M994.9,1022.7c0.8,1,0.6,2.3-0.3,3.1c-0.1,0.1-0.3,0.2-0.3,0.3c-0.8,0.5-1.7,0.8-2.8,0.8
			c-1.6,0.1-3-0.3-4.3-1.1c-1.1-0.7-1.7-2.3-1.7-4.6v-11.4h-1.9c-1.2,0-2.3-1-2.3-2.2v-0.1c0-0.6,0.3-1.2,0.7-1.6
			c0.4-0.4,1-0.7,1.6-0.6h1.9v-2.6c0-1.4,1-2.5,2.4-2.5h0.1c0.7,0,1.3,0.3,1.7,0.7c0.4,0.5,0.7,1.1,0.7,1.8v2.6h3
			c1.2,0,2.3,1,2.3,2.2v0.1c0,0.6-0.3,1.2-0.7,1.6c-0.4,0.4-1,0.7-1.6,0.6h-3v11.2c-0.1,0.4,0.1,1,0.4,1.2c0.3,0.3,0.8,0.4,1.2,0.3
			c0.3,0,0.6-0.1,0.9-0.2c0.3-0.2,0.6-0.2,1-0.2C994.3,1022.1,994.6,1022.3,994.9,1022.7z"/>
		<path class="st4" d="M1000.3,1001.6c-0.4-0.4-0.6-1-0.6-1.6v-0.8c-0.1-0.6,0.2-1.2,0.6-1.6c1.3-0.6,2.8-0.6,4,0
			c0.4,0.4,0.6,1,0.6,1.6v0.8c0.1,0.6-0.2,1.2-0.6,1.6c-0.6,0.3-1.3,0.5-2,0.4C1001.6,1002.1,1000.9,1002,1000.3,1001.6z
			 M1004,1026.1c-1,1-2.5,1-3.6,0c-0.4-0.5-0.7-1.1-0.7-1.8v-17c0-0.7,0.3-1.3,0.7-1.8c1-1,2.5-1,3.6,0c0.4,0.5,0.7,1.1,0.7,1.8v17
			C1004.8,1024.9,1004.5,1025.6,1004,1026.1L1004,1026.1z"/>
		<path class="st4" d="M1028.4,1005.4c0.4,0.4,0.7,1,0.7,1.6c0,0.4-0.2,0.9-0.3,1.2l-7.7,17c-0.2,0.4-0.5,0.9-0.9,1.1
			c-0.3,0.3-0.8,0.4-1.2,0.4h-0.3c-0.4,0-1-0.2-1.3-0.4c-0.4-0.3-0.7-0.7-1-1.1l-7.6-17c-0.2-0.4-0.3-0.9-0.3-1.3
			c0-0.6,0.3-1.1,0.7-1.5c0.4-0.4,1.1-0.7,1.7-0.7c0.5,0,1,0.2,1.5,0.4c0.4,0.3,0.8,0.7,1,1.1l5.7,13l5.6-13
			c0.2-0.4,0.4-0.9,0.9-1.2c0.3-0.3,0.8-0.4,1.3-0.3C1027.3,1004.7,1027.9,1005,1028.4,1005.4z"/>
		<path class="st4" d="M1052.4,1021.7c-1,1.7-2.3,3.1-4.1,4.1c-3.6,1.9-7.8,1.9-11.4,0c-1.7-1-3.1-2.3-4.1-4.1c-2-3.7-2-8.2,0-11.8
			c1-1.7,2.3-3.1,4.1-4.1c3.6-1.9,7.8-1.9,11.4,0c1.7,1,3.1,2.3,4.1,4.1C1054.4,1013.6,1054.4,1018,1052.4,1021.7z M1048.1,1012.2
			c-0.5-1-1.3-1.8-2.3-2.4c-1.9-1.1-4.3-1.1-6.3,0c-1,0.6-1.7,1.5-2.3,2.4c-0.6,1.1-0.9,2.3-0.9,3.6c0,1.2,0.3,2.5,0.9,3.6
			c0.5,1,1.3,1.8,2.3,2.4c1.9,1.1,4.3,1.1,6.3,0c1-0.6,1.7-1.4,2.3-2.4c0.6-1.1,0.9-2.3,0.9-3.6
			C1049,1014.5,1048.7,1013.3,1048.1,1012.2L1048.1,1012.2z"/>
	</g>
	<circle class="st5" cx="159" cy="123.7" r="30.3"/>
	<circle class="st6" cx="165.3" cy="121.5" r="30.3"/>
	<path class="st0" d="M159.2,106.4c0.5,0.5,0.9,1.3,0.8,2.1v27.3c0,0.8-0.3,1.6-0.9,2.1c-0.6,0.6-1.4,0.9-2.3,0.9
		c-0.8,0-1.6-0.3-2.2-0.9c-0.6-0.5-0.9-1.3-0.9-2.1v-22.5l-3,1.7c-0.4,0.3-1,0.4-1.6,0.4c-0.8,0-1.5-0.3-2-0.9
		c-0.5-0.5-0.9-1.2-0.9-2c0-0.5,0.2-1,0.4-1.4c0.3-0.4,0.6-0.8,1-1l7.1-4.3c0.6-0.3,1.3-0.4,2.1-0.4
		C158,105.6,158.7,105.8,159.2,106.4z"/>
	<path class="st0" d="M167,137.9c-0.5-0.6-0.8-1.3-0.8-2.1v-0.8c-0.2-1.4,1-2.7,2.3-2.9c0.2,0,0.3,0,0.5,0h0.6
		c1.4-0.2,2.7,1,2.9,2.3c0,0.2,0,0.3,0,0.5v0.8c0.2,1.4-1,2.7-2.3,2.9c-0.2,0-0.3,0-0.5,0h-0.6C168.4,138.7,167.6,138.5,167,137.9z"
		/>
	<circle class="st5" cx="159" cy="998.8" r="30.3"/>
	<circle class="st6" cx="165.3" cy="996.5" r="30.3"/>
	<path class="st0" d="M164.9,994.3c1.3,1,2.4,2.3,3.1,3.7c0.7,1.6,1.1,3.2,1.1,4.9c0.1,2.2-0.5,4.3-1.6,6.1c-1,1.7-2.6,3.1-4.4,4
		c-2.1,1-4.3,1.4-6.6,1.4c-1.1,0-2.3-0.2-3.4-0.4c-1-0.3-2.1-0.6-3-1.1c-1-0.4-1.7-1.5-1.7-2.5c0-0.8,0.3-1.5,0.8-2.1
		c0.4-0.6,1.2-1,1.9-1s1.5,0.3,2.1,0.7c1.3,1,2.9,1.6,4.5,1.6c2.1,0,3.9-1.1,4.9-2.9c0.6-1,0.9-2.1,0.9-3.2c0.1-1.5-0.4-3-1.6-4
		c-1-1-2.3-1.5-3.7-1.4c-0.5,0-1.1,0.1-1.6,0.2l-0.9,0.3c-0.7,0.3-1.3,0.3-2.1,0.3c-0.6,0-1.2-0.3-1.6-0.7c-0.4-0.5-0.6-1.1-0.6-1.8
		c0-0.4,0.1-0.8,0.3-1.2c0.2-0.4,0.5-0.8,0.8-1.1l7.3-8h-9.4c-1.5,0-2.6-1.1-2.7-2.5v-0.1c0-0.7,0.3-1.4,0.8-1.8
		c0.5-0.5,1.2-0.8,1.9-0.7h14.5c0.8-0.1,1.6,0.3,2.2,0.8c0.5,0.5,0.8,1.3,0.8,2.1c-0.1,0.9-0.4,1.7-1.1,2.3l-6.3,7
		C162,992.9,163.6,993.3,164.9,994.3z"/>
	<path class="st0" d="M174.6,1013c-0.5-0.6-0.8-1.3-0.8-2.1v-0.8c-0.2-1.4,1-2.7,2.3-2.9c0.2,0,0.3,0,0.5,0h0.6
		c1.4-0.2,2.7,1,2.9,2.3c0,0.2,0,0.3,0,0.5v0.8c0.2,1.4-1,2.7-2.3,2.9c-0.2,0-0.3,0-0.5,0h-0.6
		C175.9,1013.8,175.1,1013.6,174.6,1013z"/>
	<circle class="st5" cx="1485.8" cy="998.8" r="30.3"/>
	<circle class="st6" cx="1492" cy="996.5" r="30.3"/>
	<path class="st0" d="M1492.5,1000.4c0.5,0.5,0.8,1.2,0.8,1.9c0,0.7-0.3,1.4-0.8,1.8c-0.5,0.5-1.2,0.8-1.9,0.7h-2v6.1
		c0,1.6-1.2,2.9-2.8,2.9h-0.1c-0.8,0-1.5-0.3-2-0.9c-0.5-0.5-0.9-1.3-0.8-2.1v-6.1h-12.3c-0.7,0-1.5-0.3-1.9-0.9
		c-0.5-0.5-0.9-1.2-0.9-2c0-0.7,0.3-1.4,0.7-1.9l14.9-18.3c0.5-0.8,1.5-1.1,2.3-1.1c0.8,0,1.5,0.3,2,0.9c0.5,0.5,0.9,1.3,0.8,2.1
		v16.1h2C1491.3,999.6,1492,999.8,1492.5,1000.4z M1475.3,999.6h7.6v-9.5L1475.3,999.6z"/>
	<path class="st0" d="M1500.5,1013c-0.5-0.6-0.8-1.3-0.7-2.1v-0.8c-0.2-1.4,1-2.7,2.3-2.9c0.2,0,0.3,0,0.5,0h0.6
		c1.4-0.2,2.7,1,2.9,2.3c0,0.2,0,0.3,0,0.5v0.8c0.2,1.4-1,2.7-2.3,2.9c-0.2,0-0.3,0-0.5,0h-0.6
		C1501.8,1013.8,1501,1013.6,1500.5,1013z"/>
	<circle class="st5" cx="1482.7" cy="123.7" r="30.3"/>
	<circle class="st6" cx="1489" cy="121.5" r="30.3"/>
	<path class="st0" d="M1493.2,134.2c0.5,0.5,0.8,1.2,0.8,1.9s-0.3,1.4-0.8,1.8c-0.5,0.5-1.2,0.8-1.9,0.8h-16.1
		c-0.7,0-1.5-0.3-1.9-0.8c-0.5-0.5-0.8-1.2-0.7-1.9c0-0.8,0.3-1.6,0.9-2.1l10.3-11c1-1.1,2-2.4,2.8-3.8c0.6-1,1-2.3,1-3.6
		c0-1.4-0.5-2.7-1.6-3.7c-0.9-1-2.2-1.6-3.5-1.6c-1,0-2,0.3-2.8,1c-1,0.7-1.8,1.5-2.5,2.4c-0.5,0.7-1.3,1.1-2.2,1.1
		c-0.7,0-1.4-0.3-1.9-0.8c-0.5-0.4-0.9-1.1-0.9-1.8c0-0.5,0.2-1,0.4-1.5c0.4-0.6,0.9-1.2,1.4-1.6c1.2-1.2,2.6-2.2,4.2-2.9
		c1.4-0.7,3-1,4.5-1.1c1.9,0,3.8,0.4,5.5,1.3c1.6,0.9,2.8,2.1,3.6,3.6c0.9,1.6,1.3,3.4,1.3,5.3c0,2.1-0.5,4.1-1.6,5.9
		c-1.1,2.2-2.5,4.1-4.2,5.8l-6,6.4h9.7C1492,133.5,1492.7,133.8,1493.2,134.2z"/>
	<path class="st0" d="M1498.9,137.9c-0.5-0.6-0.8-1.3-0.7-2.1v-0.8c-0.2-1.4,1-2.7,2.3-2.9c0.2,0,0.3,0,0.5,0h0.6
		c1.4-0.2,2.7,1,2.9,2.3c0,0.2,0,0.3,0,0.5v0.8c0.2,1.4-1,2.7-2.3,2.9c-0.2,0-0.3,0-0.5,0h-0.6
		C1500.2,138.7,1499.4,138.5,1498.9,137.9z"/>
	<circle class="st7" cx="705" cy="644.9" r="16.8"/>
	<circle class="st7" cx="652.3" cy="388.4" r="16.8"/>
	<circle class="st7" cx="1047.5" cy="429.1" r="16.8"/>
	<circle class="st7" cx="1219.3" cy="871.4" r="16.8"/>
	<circle class="st7" cx="624" cy="628.1" r="16.8"/>
	<circle class="st7" cx="319.9" cy="437.5" r="16.8"/>
	<circle class="st7" cx="542" cy="628.1" r="16.8"/>
	<circle class="st8" cx="254.6" cy="215.4" r="16.8"/>
	<circle class="st8" cx="923.3" cy="445.8" r="16.8"/>
	<circle class="st8" cx="574.7" cy="437.5" r="16.8"/>
	<circle class="st8" cx="1167.7" cy="232.1" r="16.8"/>
	<circle class="st8" cx="981.2" cy="412.3" r="16.8"/>
	<circle class="st8" cx="1105.4" cy="488.1" r="16.8"/>
	<circle class="st8" cx="924.9" cy="661.6" r="16.8"/>
	<circle class="st8" cx="1105.4" cy="678.4" r="16.8"/>
	<circle class="st8" cx="714.5" cy="429.1" r="16.8"/>
	<circle class="st8" cx="1151" cy="949.5" r="16.8"/>
	<circle class="st8" cx="624" cy="883.2" r="16.8"/>
	<circle class="st8" cx="1044.6" cy="655.3" r="16.8"/>
	<circle class="st8" cx="591.5" cy="672.1" r="16.8"/>
	<circle class="st8" cx="456.7" cy="913.6" r="16.8"/>
	<circle class="st8" cx="1410.5" cy="445.8" r="16.8"/>
	<path class="st9" d="M230.1,111c0,0.6-0.3,1.1-0.6,1.6c-0.3,0.5-1,0.9-1.6,0.9c-0.4,0-1-0.1-1.3-0.3c-1.3-0.6-2.7-0.9-4.2-0.9
		c-1.6,0-3.3,0.3-4.8,1.1c-1.3,0.8-2.4,1.9-3.1,3.3c-0.8,1.5-1.1,3.1-1.1,4.8c0,3.1,0.9,5.5,2.5,7c3,2.5,7.1,3.1,10.7,1.5
		c0.4-0.2,0.8-0.3,1.3-0.3c0.7,0,1.3,0.3,1.7,0.9c0.3,0.4,0.6,1,0.6,1.6c0,0.4-0.1,0.8-0.3,1.1c-0.2,0.3-0.5,0.6-0.9,0.8
		c-2,1-4.3,1.6-6.5,1.6c-2.4,0-4.9-0.5-7-1.6c-2.2-1-3.9-2.8-5.1-4.8c-1.3-2.3-2-5-1.9-7.7c0-2.5,0.6-5,1.8-7.2c1.2-2.1,3-3.8,5-4.9
		c2.3-1.2,4.7-1.8,7.3-1.8c2.3,0,4.5,0.5,6.5,1.6C229.7,109.5,230.2,110.3,230.1,111z"/>
	<path class="st9" d="M234.1,111.2c-0.4-0.4-0.6-1-0.5-1.6v-0.8c-0.1-0.6,0.2-1.1,0.6-1.6c1.2-0.6,2.6-0.6,3.8,0
		c0.4,0.4,0.6,1,0.5,1.6v0.8c0.1,0.6-0.2,1.1-0.6,1.6c-0.6,0.3-1.3,0.4-1.9,0.4C235.3,111.7,234.6,111.6,234.1,111.2z M237.7,134.6
		c-1,1-2.4,1-3.4,0c-0.4-0.4-0.7-1.1-0.7-1.7v-16.2c0-0.6,0.2-1.3,0.7-1.7c1-1,2.4-1,3.4,0c0.4,0.4,0.7,1.1,0.7,1.7v16.2
		C238.4,133.4,238.1,134.1,237.7,134.6z"/>
	<path class="st9" d="M260.5,114.9c0.4,0.4,0.7,1.1,0.7,1.7v10c0.2,2.4-0.7,4.9-2.3,6.6c-1.6,1.6-3.8,2.4-6.7,2.4s-5.1-0.8-6.6-2.4
		c-1.6-1.8-2.4-4.2-2.3-6.6v-10.1c0-0.6,0.2-1.3,0.7-1.7c1-1,2.4-1,3.4,0c0.4,0.4,0.7,1.1,0.7,1.7v10c-0.1,1.3,0.3,2.5,1,3.6
		c0.9,0.9,2,1.2,3.2,1.1c1.2,0.1,2.3-0.3,3.2-1.1c0.8-1,1.1-2.3,1-3.6v-10c0-0.6,0.2-1.3,0.7-1.7C258.1,114,259.6,114,260.5,114.9
		L260.5,114.9z"/>
	<path class="st9" d="M285,106.9c0.4,0.4,0.7,1.1,0.7,1.7v24.3c0,0.6-0.2,1.3-0.7,1.7c-0.4,0.4-1,0.7-1.7,0.7
		c-0.6,0-1.2-0.3-1.6-0.7c-0.4-0.4-0.7-1-0.7-1.6c-1.6,1.7-3.8,2.7-6.2,2.8c-1.7,0-3.5-0.4-4.9-1.4c-1.5-1-2.7-2.3-3.5-3.9
		c-0.9-1.7-1.3-3.6-1.3-5.6c0-1.9,0.4-3.9,1.3-5.6c0.8-1.6,2-3,3.5-3.9c1.5-1,3.1-1.4,4.8-1.4c1.2,0,2.4,0.3,3.6,0.7
		c1,0.4,2,1,2.8,1.7v-7.8c0-0.6,0.2-1.3,0.7-1.7c0.4-0.4,1-0.7,1.7-0.7C283.9,106.1,284.6,106.4,285,106.9z M279.5,129.4
		c1.1-1.3,1.6-3,1.6-4.7c0.1-1.7-0.5-3.4-1.6-4.7c-2-2.3-5.5-2.5-7.7-0.5c-0.2,0.2-0.3,0.3-0.5,0.5c-2.2,2.8-2.2,6.6,0,9.4
		c1,1.2,2.5,1.9,4.2,1.8C276.9,131.4,278.5,130.7,279.5,129.4L279.5,129.4z"/>
	<path class="st9" d="M309.4,114.5c0.4,0.4,0.7,1.1,0.7,1.7v16.6c0,0.6-0.2,1.3-0.7,1.7c-0.4,0.4-1,0.7-1.7,0.7
		c-0.6,0-1.2-0.3-1.6-0.7c-0.4-0.4-0.7-1-0.7-1.6c-1.6,1.7-3.8,2.7-6.2,2.8c-1.7,0-3.5-0.4-4.9-1.4c-1.5-1-2.7-2.3-3.5-3.9
		c-0.9-1.7-1.3-3.7-1.2-5.6c0-1.9,0.4-3.9,1.3-5.6c0.8-1.6,2-3,3.5-3.9s3.1-1.4,4.8-1.4c1.2,0,2.4,0.3,3.6,0.7c1,0.4,2,1,2.8,1.7
		l0,0c0-0.6,0.2-1.3,0.7-1.7c0.4-0.4,1-0.7,1.7-0.7C308.4,113.8,309,114.1,309.4,114.5z M304,129.4c1.1-1.3,1.6-3,1.6-4.7
		c0.1-1.7-0.5-3.4-1.6-4.7c-2-2.3-5.5-2.5-7.7-0.5c-0.2,0.2-0.3,0.3-0.5,0.5c-2.2,2.8-2.2,6.6,0,9.4c1,1.2,2.5,1.9,4.2,1.8
		C301.4,131.4,303,130.7,304,129.4L304,129.4z"/>
	<path class="st9" d="M333.9,106.9c0.4,0.4,0.7,1.1,0.7,1.7v24.3c0,0.6-0.2,1.3-0.7,1.7c-0.4,0.4-1,0.7-1.7,0.7
		c-0.6,0-1.2-0.3-1.6-0.7s-0.7-1-0.7-1.6c-1.6,1.7-3.8,2.7-6.2,2.8c-1.7,0-3.5-0.4-4.9-1.4c-1.5-1-2.7-2.3-3.5-3.9
		c-0.9-1.7-1.3-3.6-1.3-5.6c0-1.9,0.4-3.9,1.3-5.6c0.8-1.6,2-3,3.5-3.9c1.5-1,3.1-1.4,4.8-1.4c1.2,0,2.4,0.3,3.6,0.7
		c1,0.4,2,1,2.8,1.7v-7.8c0-0.6,0.2-1.3,0.7-1.7c0.4-0.4,1-0.7,1.6-0.7C332.9,106.1,333.5,106.4,333.9,106.9z M328.5,129.4
		c1.1-1.3,1.6-3,1.6-4.7c0.1-1.7-0.5-3.4-1.6-4.7c-2-2.3-5.5-2.5-7.7-0.5c-0.2,0.2-0.3,0.3-0.5,0.5c-2.2,2.8-2.2,6.6,0,9.4
		c1,1.2,2.5,1.9,4.2,1.9C325.9,131.4,327.4,130.7,328.5,129.4L328.5,129.4z"/>
	<path class="st9" d="M1228.4,111c0,0.6-0.3,1.1-0.6,1.6c-0.3,0.5-1,0.9-1.6,0.9c-0.4,0-1-0.1-1.3-0.3c-1.3-0.6-2.7-0.9-4.2-0.9
		c-1.6,0-3.3,0.3-4.8,1.1c-1.3,0.8-2.4,1.9-3.1,3.3c-0.8,1.5-1.1,3.1-1.1,4.8c0,3.1,0.9,5.5,2.5,7c3,2.5,7.1,3.1,10.7,1.5
		c0.4-0.2,0.8-0.3,1.2-0.3c0.7,0,1.3,0.3,1.7,0.9c0.3,0.4,0.6,1,0.6,1.6c0,0.4-0.1,0.8-0.3,1.1c-0.2,0.3-0.5,0.6-0.9,0.8
		c-2,1-4.3,1.6-6.5,1.6c-2.4,0-4.9-0.5-7.1-1.6c-2.2-1-3.9-2.8-5.1-4.8c-1.3-2.3-2-5-1.9-7.7c0-2.5,0.6-5,1.8-7.2
		c1.2-2.1,3-3.8,5-4.9c2.3-1.2,4.7-1.8,7.3-1.8c2.3,0,4.5,0.5,6.5,1.6C1227.9,109.5,1228.4,110.3,1228.4,111z"/>
	<path class="st9" d="M1250.9,114.5c0.4,0.4,0.7,1.1,0.7,1.7v16.6c0,0.6-0.2,1.3-0.7,1.7c-0.4,0.4-1,0.7-1.6,0.7
		c-0.6,0-1.2-0.3-1.6-0.7c-0.4-0.4-0.7-1-0.7-1.6c-1.6,1.7-3.8,2.7-6.2,2.8c-1.7,0-3.5-0.4-4.9-1.4c-1.5-1-2.7-2.3-3.5-3.9
		c-0.9-1.7-1.3-3.6-1.3-5.6c0-1.9,0.4-3.9,1.2-5.6c0.8-1.6,2-3,3.5-3.9c1.5-1,3.1-1.4,4.8-1.4c1.2,0,2.4,0.3,3.6,0.7
		c1,0.4,2,1,2.8,1.7l0,0c0-0.6,0.2-1.3,0.7-1.7c0.4-0.4,1-0.7,1.6-0.7C1249.8,113.8,1250.4,114.1,1250.9,114.5z M1245.4,129.4
		c1.1-1.3,1.6-3,1.6-4.7c0.1-1.7-0.5-3.4-1.6-4.7c-2-2.3-5.5-2.5-7.7-0.5c-0.2,0.2-0.3,0.3-0.5,0.5c-2.2,2.8-2.2,6.6,0,9.4
		c1,1.2,2.5,1.9,4.2,1.8C1242.9,131.4,1244.4,130.7,1245.4,129.4z"/>
	<path class="st9" d="M1255.1,130.7c0.1-1.1,1-2.1,2.2-2.1c0.6,0,1.1,0.3,1.6,0.8c0.7,0.8,1.6,1.4,2.4,1.8c1,0.4,2,0.6,3.1,0.6
		c2.1-0.1,3-0.9,3-2.3c0-0.7-0.3-1.4-1-1.7c-1-0.5-2.1-1-3.2-1.2c-1.3-0.3-2.5-0.8-3.7-1.2c-1-0.4-1.8-1-2.4-1.9
		c-0.8-1-1.1-2.3-1-3.5c0-1.2,0.3-2.3,1.1-3.3c0.8-1,1.7-1.7,2.9-2.2c1.1-0.5,2.4-0.8,3.7-0.8c1.4,0,2.7,0.3,4,0.8
		c1.2,0.4,2.3,1.2,3.1,2.2c0.3,0.4,0.5,0.9,0.5,1.4c0,0.6-0.3,1.1-0.8,1.5c-0.3,0.3-0.8,0.4-1.2,0.4c-0.5,0-1-0.2-1.4-0.5
		c-0.5-0.6-1.1-1-1.8-1.4c-0.8-0.3-1.6-0.5-2.5-0.5c-2,0-3,0.7-3,2.2c0,0.5,0.2,1,0.5,1.4c0.4,0.3,0.9,0.7,1.4,0.9
		c0.6,0.2,1.4,0.4,2.3,0.7c1.2,0.3,2.3,0.7,3.6,1.2c1,0.4,1.7,1.1,2.4,1.9c0.7,1,1,2.2,1,3.4c0,1.2-0.3,2.4-1.1,3.4
		c-0.8,1-1.8,1.7-3,2.2c-1.1,0.5-2.4,0.8-3.6,0.8c-1.6,0-3.3-0.3-4.9-0.9c-1.5-0.5-2.7-1.6-3.6-2.8
		C1255.2,131.6,1255,131.2,1255.1,130.7z"/>
	<path class="st9" d="M1294.6,114.5c0.4,0.4,0.7,1.1,0.7,1.7v16.6c0,0.6-0.2,1.3-0.7,1.7c-0.4,0.4-1,0.7-1.6,0.7s-1.2-0.3-1.6-0.7
		c-0.4-0.4-0.7-1-0.7-1.6c-1.6,1.7-3.8,2.7-6.2,2.8c-1.7,0-3.5-0.4-4.9-1.4c-1.5-1-2.7-2.3-3.5-3.9c-0.9-1.7-1.3-3.6-1.3-5.6
		c0-1.9,0.4-3.9,1.2-5.6c0.8-1.6,2-3,3.5-3.9c1.5-1,3.1-1.4,4.8-1.4c1.2,0,2.4,0.3,3.6,0.7c1,0.4,2,1,2.8,1.7l0,0
		c0-0.6,0.3-1.3,0.7-1.7c0.4-0.4,1-0.7,1.6-0.7C1293.6,113.8,1294.2,114.1,1294.6,114.5z M1289.1,129.4c1.1-1.3,1.6-3,1.6-4.7
		c0.1-1.7-0.5-3.4-1.6-4.7c-2-2.3-5.5-2.5-7.7-0.5c-0.2,0.2-0.3,0.3-0.5,0.5c-2.2,2.8-2.2,6.6,0,9.4c1,1.2,2.5,1.9,4.2,1.8
		C1286.5,131.4,1288.1,130.7,1289.1,129.4z"/>
	<path class="st9" d="M1299.7,139.9c-0.4-0.3-0.7-0.9-0.7-1.4c0-0.3,0.1-0.7,0.3-1l16-32.6c0.2-0.3,0.4-0.6,0.7-0.9
		c0.3-0.2,0.6-0.3,1-0.3c0.5,0,1,0.2,1.4,0.6c0.4,0.3,0.7,0.9,0.7,1.4c0,0.3-0.1,0.7-0.3,1l-15.9,32.6c-0.2,0.3-0.4,0.6-0.7,0.9
		c-0.3,0.2-0.6,0.3-1,0.3C1300.6,140.5,1300.1,140.3,1299.7,139.9z"/>
	<path class="st9" d="M1344.8,108.4c0.4,0.4,0.7,1.1,0.7,1.7v22.7c0,0.7-0.3,1.3-0.7,1.7c-0.5,0.4-1.1,0.7-1.8,0.7
		c-0.6,0-1.2-0.3-1.6-0.7c-0.4-0.4-0.7-1-0.7-1.7v-9.1h-12.5v9.1c0,0.7-0.3,1.3-0.8,1.7c-0.4,0.4-1.1,0.7-1.7,0.7
		c-0.6,0-1.3-0.3-1.7-0.7c-0.4-0.4-0.7-1.1-0.7-1.7v-22.7c0-0.7,0.3-1.3,0.7-1.7c0.5-0.4,1.1-0.7,1.8-0.7c0.6,0,1.2,0.3,1.6,0.7
		c0.4,0.4,0.7,1,0.7,1.7v9h12.5v-9c0-0.7,0.3-1.3,0.8-1.7c0.4-0.4,1.1-0.7,1.7-0.7C1343.7,107.7,1344.3,107.9,1344.8,108.4z"/>
	<path class="st9" d="M1369.7,130.4c-0.9,1.6-2.3,3-3.9,3.9c-3.4,1.8-7.5,1.8-10.9,0c-1.6-0.9-3-2.3-3.8-3.9
		c-1.9-3.6-1.9-7.7,0-11.3c0.9-1.6,2.3-3,3.8-3.9c3.4-1.8,7.5-1.8,10.9,0c1.6,1,3,2.3,3.9,3.9
		C1371.6,122.6,1371.6,126.8,1369.7,130.4z M1365.6,121.3c-0.5-1-1.2-1.7-2.2-2.3c-1.8-1.1-4.2-1.1-6,0c-1,0.6-1.6,1.4-2.2,2.3
		c-0.5,1-0.9,2.3-0.8,3.5c0,1.2,0.3,2.3,0.8,3.4c0.5,1,1.2,1.7,2.2,2.3c1.8,1.1,4.2,1.1,6,0c1-0.5,1.6-1.4,2.2-2.3
		c0.5-1,0.9-2.3,0.8-3.4C1366.4,123.5,1366.1,122.4,1365.6,121.3L1365.6,121.3z"/>
	<path class="st9" d="M1394.1,114.5c0.4,0.4,0.7,1.1,0.7,1.7v17.4c0,3.2-1,5.6-3,7.1c-2.2,1.6-4.9,2.4-7.6,2.3
		c-1.1,0-2.2-0.2-3.2-0.3c-1-0.2-2-0.4-3-0.8c-1.3-0.6-1.9-1.3-1.9-2.3c0-0.2,0.1-0.4,0.1-0.6c0.1-0.5,0.4-1,0.8-1.3
		c0.3-0.3,0.8-0.4,1.2-0.4c0.3,0,0.5,0,0.8,0.1c0.1,0,0.8,0.3,1.9,0.7c1,0.4,2.1,0.7,3.2,0.7c1.6,0.1,3-0.3,4.3-1.1
		c1-0.8,1.5-2,1.5-3.3v-1.9c-0.7,1-1.6,1.6-2.6,2.2c-1.1,0.6-2.4,1-3.7,1c-1.7,0-3.5-0.4-5-1.4c-1.5-1-2.8-2.3-3.6-3.9
		c-0.9-1.7-1.3-3.6-1.3-5.6s0.4-3.9,1.3-5.6c0.8-1.6,2-3,3.5-3.9c1.5-1,3.2-1.4,4.9-1.4c1.3,0,2.6,0.3,3.7,0.9c1,0.5,2,1.1,2.8,2
		v-0.4c0-0.6,0.2-1.3,0.7-1.7c0.4-0.4,1-0.7,1.6-0.7C1393.1,113.8,1393.7,114.1,1394.1,114.5z M1388.6,129.4c1.1-1.3,1.7-3,1.6-4.7
		c0.1-1.7-0.5-3.4-1.6-4.7c-1.1-1.2-2.7-1.9-4.3-1.9c-1.6-0.1-3.2,0.6-4.3,1.9c-1.1,1.3-1.7,3-1.6,4.7c-0.1,1.7,0.5,3.4,1.6,4.7
		c1,1.2,2.6,1.9,4.3,1.8C1385.9,131.4,1387.5,130.7,1388.6,129.4z"/>
	<path class="st9" d="M1418.4,114.5c0.4,0.4,0.7,1.1,0.7,1.7v16.6c0,0.6-0.2,1.3-0.7,1.7c-0.4,0.4-1,0.7-1.6,0.7
		c-0.6,0-1.2-0.3-1.6-0.7c-0.4-0.4-0.7-1-0.7-1.6c-1.6,1.7-3.8,2.7-6.2,2.8c-1.7,0-3.5-0.4-4.9-1.4c-1.5-1-2.7-2.3-3.5-3.9
		c-0.9-1.7-1.3-3.6-1.3-5.6c0-1.9,0.4-3.9,1.2-5.6c0.8-1.6,2-3,3.5-3.9c1.5-1,3.1-1.4,4.8-1.4c1.2,0,2.4,0.3,3.6,0.7
		c1,0.4,2,1,2.8,1.7l0,0c0-0.6,0.3-1.3,0.7-1.7c0.4-0.4,1-0.7,1.6-0.7C1417.4,113.8,1418,114.1,1418.4,114.5z M1412.9,129.4
		c1.1-1.3,1.6-3,1.6-4.7c0.1-1.7-0.5-3.4-1.6-4.7c-2-2.3-5.5-2.5-7.7-0.5c-0.2,0.2-0.3,0.3-0.5,0.5c-2.2,2.8-2.2,6.6,0,9.4
		c1,1.2,2.5,1.9,4.2,1.8C1410.4,131.4,1411.9,130.7,1412.9,129.4z"/>
	<path class="st9" d="M1437.1,114.5c0.5,0.3,0.8,1,0.8,1.6c0.1,0.7-0.2,1.3-0.6,1.8c-0.4,0.4-1,0.6-1.5,0.6c-0.4,0-0.9-0.1-1.3-0.3
		l-0.5-0.2c-0.3-0.1-0.6-0.1-0.9-0.1c-0.7,0-1.4,0.3-2,0.6c-0.7,0.5-1.2,1.1-1.6,1.9c-0.4,1-0.6,2-0.6,3v9.3c0,0.6-0.2,1.3-0.7,1.7
		c-1,1-2.4,1-3.4,0c-0.4-0.4-0.7-1.1-0.7-1.7v-16.2c0-0.6,0.2-1.3,0.7-1.7c1-1,2.4-1,3.4,0c0.4,0.4,0.7,1.1,0.7,1.7v0.5
		c0.6-1,1.5-1.9,2.6-2.4c1.1-0.6,2.3-0.9,3.6-0.9C1435.8,113.8,1436.5,114,1437.1,114.5z"/>
	<path class="st9" d="M215.1,996.4c-0.4,0.4-1.1,0.7-1.7,0.7c-0.6,0-1.3-0.3-1.7-0.7c-0.4-0.4-0.7-1.1-0.7-1.7v-22.7
		c0-0.7,0.3-1.3,0.7-1.7c0.5-0.4,1.1-0.7,1.8-0.7c0.6,0,1.2,0.3,1.7,0.7c0.4,0.4,0.7,1,0.7,1.7v22.7
		C215.9,995.3,215.5,995.9,215.1,996.4z"/>
	<path class="st9" d="M238.1,978c1.1,2,1.6,4.3,1.6,6.6v10.1c0,0.6-0.2,1.3-0.7,1.7c-1,1-2.4,1-3.4,0c-0.4-0.4-0.7-1.1-0.7-1.7
		v-10.1c0.1-1.2-0.3-2.3-0.9-3.4c-0.8-0.9-1.9-1.4-3.1-1.2c-1.3-0.1-2.6,0.4-3.6,1.3c-0.9,0.9-1.3,2.1-1.3,3.3v10.1
		c0,0.6-0.2,1.3-0.7,1.7c-1,1-2.4,1-3.4,0c-0.4-0.4-0.7-1.1-0.7-1.7v-16.2c0-0.6,0.2-1.3,0.7-1.7c1-1,2.4-1,3.4,0
		c0.4,0.4,0.7,1.1,0.7,1.7v0.7c0.8-1,1.7-1.8,2.8-2.4c1.1-0.7,2.4-1,3.7-1C235.2,975.6,237.1,976.4,238.1,978z"/>
	<path class="st9" d="M243.1,992.6c0.1-1.1,1-2.1,2.2-2.1c0.6,0,1.1,0.3,1.6,0.8c0.7,0.8,1.6,1.4,2.4,1.8c1,0.4,2,0.6,3,0.6
		c2.1-0.1,3-0.9,3-2.3c0-0.7-0.3-1.4-1-1.7c-1-0.5-2.1-1-3.2-1.2c-1.3-0.3-2.5-0.8-3.7-1.2c-1-0.4-1.8-1-2.5-1.9
		c-0.8-1-1.1-2.3-1-3.5c0-1.2,0.3-2.3,1-3.3c0.8-1,1.7-1.6,2.9-2.2c1.1-0.5,2.4-0.8,3.7-0.8c1.4,0,2.7,0.3,4,0.8
		c1.2,0.4,2.3,1.2,3.1,2.2c0.3,0.4,0.5,0.9,0.5,1.4c0,0.6-0.3,1.1-0.8,1.5c-0.3,0.3-0.8,0.4-1.3,0.4s-1-0.2-1.4-0.5
		c-0.5-0.6-1.1-1-1.8-1.4c-0.8-0.3-1.6-0.5-2.5-0.5c-2,0-3,0.7-3,2.2c0,0.5,0.2,1,0.5,1.4c0.4,0.3,0.9,0.7,1.4,0.9
		c0.6,0.2,1.4,0.4,2.3,0.7c1.2,0.3,2.3,0.7,3.6,1.2c1,0.4,1.7,1.1,2.4,1.9c0.7,1,1,2.2,1,3.4c0,1.2-0.3,2.4-1.1,3.4s-1.8,1.7-3,2.2
		c-1.1,0.5-2.4,0.8-3.6,0.8c-1.6,0-3.3-0.3-4.9-0.9c-1.5-0.5-2.7-1.6-3.6-2.8C243.3,993.5,243.1,993.1,243.1,992.6z"/>
	<path class="st9" d="M263.8,973.1c-0.4-0.4-0.6-1-0.5-1.6v-0.8c-0.1-0.6,0.2-1.1,0.6-1.6c1.2-0.6,2.6-0.6,3.8,0
		c0.4,0.4,0.6,1,0.5,1.6v0.8c0.1,0.6-0.2,1.1-0.6,1.6c-0.6,0.3-1.3,0.4-1.9,0.4S264.4,973.4,263.8,973.1z M267.4,996.4
		c-1,1-2.4,1-3.4,0c-0.4-0.4-0.7-1.1-0.7-1.7v-16.2c0-0.6,0.2-1.3,0.7-1.7c1-1,2.4-1,3.4,0c0.4,0.4,0.7,1.1,0.7,1.7v16.2
		C268.1,995.3,267.9,995.9,267.4,996.4L267.4,996.4z"/>
	<path class="st9" d="M284.1,993.2c0.7,0.9,0.6,2.3-0.3,3c-0.1,0.1-0.3,0.2-0.3,0.3c-0.8,0.5-1.6,0.8-2.6,0.7
		c-1.5,0.1-2.9-0.3-4.1-1c-1.1-0.7-1.6-2.2-1.6-4.4v-10.9h-1.8c-1.2,0-2.2-0.9-2.2-2.1v-0.1c0-0.6,0.2-1.1,0.6-1.5
		c0.4-0.4,1-0.6,1.6-0.6h1.8V974c0-1.3,1-2.3,2.3-2.4h0.1c0.6,0,1.2,0.3,1.6,0.7c0.4,0.4,0.7,1.1,0.7,1.7v2.5h2.8
		c1.2,0,2.2,0.9,2.2,2.1v0.1c0,0.6-0.2,1.1-0.6,1.5c-0.4,0.4-1,0.6-1.6,0.6h-2.8v10.7c0,0.4,0.1,0.9,0.4,1.2
		c0.3,0.3,0.8,0.4,1.2,0.3c0.3,0,0.6-0.1,0.9-0.2c0.3-0.1,0.6-0.2,0.9-0.2C283.5,992.6,283.9,992.8,284.1,993.2z"/>
	<path class="st9" d="M306.3,976.7c0.4,0.4,0.7,1.1,0.7,1.7v9.9c0.2,2.4-0.7,4.9-2.3,6.7c-1.6,1.6-3.8,2.4-6.7,2.4
		c-2.9,0-5.1-0.8-6.6-2.4c-1.6-1.8-2.4-4.2-2.3-6.7v-10c0-0.6,0.2-1.3,0.7-1.7c1-1,2.4-1,3.4,0c0.4,0.4,0.7,1.1,0.7,1.7v10
		c-0.1,1.3,0.3,2.5,1,3.6c0.9,0.9,2,1.2,3.2,1.1c1.2,0.1,2.3-0.3,3.2-1.1c0.8-1,1.1-2.3,1-3.6v-10c0-0.6,0.2-1.3,0.7-1.7
		C303.9,975.8,305.4,975.8,306.3,976.7L306.3,976.7z"/>
	<path class="st9" d="M326.7,976.7c1.4,0.7,2.1,1.6,2.1,2.8c0,0.5-0.2,1-0.5,1.5s-0.8,0.7-1.3,0.7c-0.3,0-0.7-0.1-1-0.2
		c-0.3-0.1-0.5-0.3-0.8-0.4c-0.3-0.2-0.4-0.3-0.7-0.5c-0.3-0.2-0.8-0.3-1.1-0.3c-0.4-0.1-0.8-0.2-1.2-0.2c-1.7-0.1-3.4,0.6-4.6,1.8
		c-2.3,2.8-2.3,6.7,0,9.5c1.1,1.2,2.7,1.9,4.3,1.9c1,0.1,2-0.1,2.9-0.4c0.3-0.1,0.4-0.3,0.7-0.4c0.3-0.2,0.5-0.3,0.8-0.4
		c0.3-0.1,0.6-0.2,0.9-0.2c0.6,0,1.1,0.2,1.6,0.6s0.6,1,0.6,1.6c-0.1,0.7-0.5,1.4-1.1,1.7c-0.9,0.6-1.8,1-3,1.3
		c-1.2,0.3-2.5,0.5-3.8,0.5c-1.9,0-3.7-0.4-5.3-1.4c-1.6-1-2.8-2.3-3.6-3.9c-0.9-1.7-1.3-3.6-1.3-5.6c0-2,0.4-3.9,1.3-5.6
		c0.9-1.6,2.1-3,3.6-3.9c1.6-1,3.5-1.4,5.3-1.4C323.1,975.5,324.9,976,326.7,976.7z"/>
	<path class="st9" d="M332.5,973.1c-0.4-0.4-0.6-1-0.5-1.6v-0.8c-0.1-0.6,0.2-1.1,0.6-1.6c1.2-0.6,2.6-0.6,3.8,0
		c0.4,0.4,0.6,1,0.5,1.6v0.8c0.1,0.6-0.2,1.1-0.6,1.6c-0.6,0.3-1.3,0.4-1.9,0.4C333.7,973.5,333,973.4,332.5,973.1z M336,996.4
		c-1,1-2.4,1-3.4,0c-0.4-0.4-0.7-1.1-0.7-1.7v-16.2c0-0.6,0.2-1.3,0.7-1.7c1-1,2.4-1,3.4,0c0.4,0.4,0.7,1.1,0.7,1.7v16.2
		C336.8,995.3,336.5,995.9,336,996.4L336,996.4z"/>
	<path class="st9" d="M360.3,992.2c-0.9,1.6-2.3,3-3.9,3.9c-3.4,1.8-7.5,1.8-10.9,0c-1.6-0.9-3-2.3-3.8-3.9c-1.9-3.6-1.9-7.7,0-11.3
		c0.9-1.6,2.3-3,3.8-3.9c3.4-1.8,7.5-1.8,10.9,0c1.6,1,3,2.3,3.9,3.9C362.2,984.5,362.2,988.7,360.3,992.2z M356.3,983.2
		c-0.5-1-1.2-1.7-2.2-2.3c-1.8-1.1-4.2-1.1-6,0c-1,0.6-1.6,1.4-2.2,2.3c-0.5,1-0.9,2.3-0.8,3.5c0,1.2,0.3,2.3,0.8,3.4
		c0.5,1,1.2,1.7,2.2,2.3c1.8,1.1,4.2,1.1,6,0c1-0.5,1.6-1.4,2.2-2.3c0.5-1,0.9-2.3,0.8-3.4C357,985.4,356.8,984.2,356.3,983.2z
		 M350.4,974.4c-0.3-0.3-0.4-0.6-0.4-1c0-0.3,0.1-0.5,0.3-0.8l2.3-4c0.3-0.4,0.5-0.9,1-1.1c0.3-0.3,0.8-0.4,1.2-0.4
		c0.6-0.1,1.1,0.2,1.6,0.5c0.3,0.3,0.5,0.9,0.5,1.4c-0.1,0.6-0.3,1.2-0.8,1.6l-3,3.3c-0.4,0.4-1.1,0.7-1.7,0.7
		C351,974.7,350.7,974.6,350.4,974.4L350.4,974.4z"/>
	<path class="st9" d="M382.5,978c1.1,2,1.6,4.3,1.6,6.6v10.1c0,0.6-0.2,1.3-0.7,1.7c-1,1-2.4,1-3.4,0c-0.4-0.4-0.7-1.1-0.7-1.7
		v-10.1c0.1-1.2-0.3-2.3-0.9-3.4c-0.8-0.9-1.9-1.4-3.1-1.2c-1.3-0.1-2.6,0.4-3.6,1.3c-0.9,0.9-1.3,2.1-1.3,3.3v10.1
		c0,0.6-0.2,1.3-0.7,1.7c-1,1-2.4,1-3.4,0c-0.4-0.4-0.7-1.1-0.7-1.7v-16.2c0-0.6,0.2-1.3,0.7-1.7c1-1,2.4-1,3.4,0
		c0.4,0.4,0.7,1.1,0.7,1.7v0.7c0.8-1,1.7-1.8,2.8-2.4c1.1-0.7,2.4-1,3.7-1C379.6,975.6,381.4,976.4,382.5,978z"/>
	<path class="st9" d="M228.6,1019.7c-0.4,0.3-1,0.6-1.6,0.6h-12.9c0.3,1.5,1,2.7,2.2,3.6c1,0.9,2.4,1.3,3.8,1.3
		c0.9,0,1.7-0.1,2.5-0.3c0.5-0.2,1-0.3,1.4-0.6l0.7-0.4c0.4-0.3,0.9-0.3,1.3-0.3c0.5,0,1,0.2,1.4,0.6c0.3,0.3,0.6,0.9,0.6,1.4
		c0,0.8-0.4,1.5-1.1,1.9c-0.9,0.7-1.9,1.2-3,1.6c-3.1,1-6.6,0.8-9.5-0.8c-1.6-0.9-3-2.2-3.8-3.8s-1.4-3.6-1.3-5.5
		c-0.1-2.1,0.4-4.1,1.4-5.9c0.9-1.6,2.2-3,3.7-3.9c1.5-0.9,3.2-1.4,4.9-1.4s3.4,0.5,4.9,1.4c1.6,1,2.8,2.3,3.6,3.8
		c1,1.6,1.4,3.4,1.4,5.2C229.4,1018.8,229.1,1019.4,228.6,1019.7z M214.1,1016.4h10.3v-0.3c-0.1-1.1-0.7-2.2-1.6-2.9
		c-1-0.8-2.1-1.2-3.3-1.2C216.4,1012.1,214.7,1013.6,214.1,1016.4z"/>
	<path class="st9" d="M252,1000.8c0.4,0.4,0.7,1.1,0.7,1.7v24.3c0,0.6-0.2,1.3-0.7,1.7c-0.4,0.4-1,0.7-1.7,0.7
		c-0.6,0-1.2-0.3-1.6-0.7c-0.4-0.4-0.7-1-0.7-1.6c-1.6,1.7-3.8,2.7-6.2,2.8c-1.7,0-3.5-0.4-4.9-1.4c-1.5-1-2.7-2.3-3.5-3.9
		c-0.9-1.7-1.3-3.6-1.3-5.6c0-1.9,0.4-3.9,1.3-5.6c0.8-1.6,2-3,3.5-3.9c1.5-1,3.1-1.4,4.8-1.4c1.2,0,2.4,0.3,3.6,0.7
		c1,0.4,2,1,2.8,1.7v-7.7c0-0.6,0.2-1.3,0.7-1.7c0.4-0.4,1-0.7,1.7-0.7C251,1000.1,251.6,1000.4,252,1000.8z M246.5,1023.4
		c1.1-1.3,1.6-3,1.6-4.7c0.1-1.7-0.5-3.4-1.6-4.7c-2-2.3-5.5-2.5-7.7-0.5c-0.2,0.2-0.3,0.3-0.5,0.5c-2.2,2.8-2.2,6.6,0,9.4
		c1,1.2,2.5,1.9,4.2,1.9C244,1025.3,245.5,1024.6,246.5,1023.4L246.5,1023.4z"/>
	<path class="st9" d="M275.7,1008.9c0.4,0.4,0.7,1.1,0.7,1.7v9.9c0.2,2.4-0.7,4.9-2.3,6.7c-1.6,1.6-3.8,2.4-6.7,2.4
		c-2.9,0-5.1-0.8-6.6-2.4c-1.6-1.8-2.4-4.2-2.3-6.7v-10c0-0.6,0.2-1.3,0.7-1.7c1-1,2.4-1,3.4,0c0.4,0.4,0.7,1.1,0.7,1.7v10
		c-0.1,1.3,0.3,2.5,1,3.6c0.9,0.9,2,1.2,3.2,1.1c1.2,0.1,2.3-0.3,3.2-1.1c0.8-1,1.1-2.3,1-3.6v-10c0-0.6,0.2-1.3,0.7-1.7
		C273.3,1007.9,274.7,1007.9,275.7,1008.9L275.7,1008.9z"/>
	<path class="st9" d="M296,1008.9c1.4,0.7,2.1,1.6,2.1,2.8c0,0.5-0.2,1-0.5,1.5s-0.8,0.7-1.3,0.7c-0.3,0-0.7-0.1-1-0.2
		c-0.3-0.1-0.5-0.3-0.8-0.4c-0.3-0.2-0.4-0.3-0.7-0.5c-0.3-0.2-0.8-0.3-1.1-0.3c-0.4-0.1-0.8-0.2-1.2-0.2c-1.7-0.1-3.4,0.6-4.6,1.8
		c-2.3,2.8-2.3,6.7,0,9.5c1.1,1.2,2.7,1.9,4.3,1.9c1,0.1,2-0.1,2.9-0.4c0.3-0.1,0.4-0.3,0.7-0.4c0.3-0.2,0.5-0.3,0.8-0.4
		c0.3-0.1,0.6-0.2,0.9-0.2c0.6,0,1.1,0.2,1.6,0.6c0.4,0.4,0.6,1,0.6,1.6c-0.1,0.7-0.5,1.4-1.1,1.7c-0.9,0.6-1.8,1-3,1.3
		c-1.2,0.3-2.5,0.5-3.8,0.5c-1.9,0-3.7-0.4-5.3-1.4s-2.8-2.3-3.6-3.9c-0.9-1.7-1.3-3.6-1.3-5.6c0-2,0.4-3.9,1.3-5.6
		c0.9-1.6,2.1-3,3.6-3.9c1.6-1,3.5-1.4,5.3-1.4C292.4,1007.6,294.4,1008.1,296,1008.9z"/>
	<path class="st9" d="M320.4,1008.4c0.4,0.4,0.7,1.1,0.7,1.7v16.6c0,0.6-0.2,1.3-0.7,1.7c-0.4,0.4-1,0.7-1.7,0.7
		c-0.6,0-1.2-0.3-1.6-0.7c-0.4-0.4-0.7-1-0.7-1.6c-1.6,1.7-3.8,2.7-6.2,2.8c-1.7,0-3.5-0.4-4.9-1.4c-1.5-1-2.7-2.3-3.5-3.9
		c-0.9-1.7-1.3-3.6-1.3-5.6c0-1.9,0.4-3.9,1.3-5.6c0.8-1.6,2-3,3.5-3.9c1.5-1,3.1-1.4,4.8-1.4c1.2,0,2.4,0.3,3.6,0.7
		c1,0.4,2,1,2.8,1.7l0,0c0-0.6,0.2-1.3,0.7-1.7c0.4-0.4,1-0.7,1.7-0.7C319.4,1007.8,320,1008,320.4,1008.4z M314.9,1023.4
		c1.1-1.3,1.6-3,1.6-4.7c0.1-1.7-0.5-3.4-1.6-4.7c-2-2.3-5.5-2.5-7.7-0.5c-0.2,0.2-0.3,0.3-0.5,0.5c-2.2,2.8-2.2,6.6,0,9.4
		c1,1.2,2.5,1.9,4.2,1.9C312.4,1025.3,313.9,1024.7,314.9,1023.4L314.9,1023.4z"/>
	<path class="st9" d="M337.3,1025.3c0.7,0.9,0.6,2.3-0.3,3c-0.1,0.1-0.3,0.2-0.3,0.3c-0.8,0.5-1.6,0.8-2.6,0.7
		c-1.5,0.1-2.9-0.3-4.1-1c-1.1-0.7-1.6-2.2-1.6-4.4v-10.9h-1.8c-1.2,0-2.2-0.9-2.2-2.1v-0.1c0-0.6,0.2-1.1,0.6-1.5
		c0.4-0.4,1-0.6,1.6-0.6h1.8v-2.5c0-1.3,1-2.3,2.3-2.4h0.1c0.6,0,1.2,0.3,1.6,0.7c0.4,0.4,0.7,1.1,0.7,1.7v2.5h2.8
		c1.2,0,2.2,0.9,2.2,2.1v0.1c0,0.6-0.2,1.1-0.6,1.5c-0.4,0.4-1,0.6-1.6,0.6h-2.8v10.7c0,0.4,0.1,0.9,0.4,1.2
		c0.3,0.3,0.8,0.4,1.2,0.3c0.3,0,0.6-0.1,0.9-0.2s0.6-0.2,0.9-0.2C336.7,1024.7,337.1,1024.9,337.3,1025.3z"/>
	<path class="st9" d="M342.4,1005.2c-0.4-0.4-0.6-1-0.5-1.6v-0.8c-0.1-0.6,0.2-1.1,0.6-1.6c1.2-0.6,2.6-0.6,3.8,0
		c0.4,0.4,0.6,1,0.5,1.6v0.8c0.1,0.6-0.2,1.1-0.6,1.6c-0.6,0.3-1.3,0.4-1.9,0.4S343,1005.5,342.4,1005.2z M346,1028.5
		c-1,1-2.4,1-3.4,0c-0.4-0.4-0.7-1.1-0.7-1.7v-16.2c0-0.6,0.2-1.3,0.7-1.7c1-1,2.4-1,3.4,0c0.4,0.4,0.7,1.1,0.7,1.7v16.2
		C346.7,1027.4,346.4,1028,346,1028.5L346,1028.5z"/>
	<path class="st9" d="M369.3,1008.9c0.4,0.4,0.6,1,0.6,1.5c0,0.4-0.1,0.8-0.3,1.2l-7.4,16.1c-0.2,0.4-0.4,0.8-0.8,1
		c-0.3,0.3-0.8,0.4-1.2,0.4h-0.3c-0.4,0-0.9-0.2-1.2-0.4c-0.3-0.3-0.7-0.7-0.9-1.1l-7.3-16.1c-0.2-0.4-0.3-0.8-0.3-1.2
		c0-0.5,0.3-1,0.7-1.5c0.4-0.4,1-0.7,1.6-0.7c0.5,0,1,0.2,1.4,0.3c0.4,0.3,0.8,0.6,1,1.1l5.5,12.4l5.4-12.4c0.2-0.4,0.5-0.9,0.9-1.1
		c0.3-0.3,0.8-0.3,1.2-0.3C368.2,1008.2,368.8,1008.4,369.3,1008.9z"/>
	<path class="st9" d="M392.2,1008.4c0.4,0.4,0.7,1.1,0.7,1.7v16.6c0,0.6-0.2,1.3-0.7,1.7c-0.4,0.4-1,0.7-1.7,0.7
		c-0.6,0-1.2-0.3-1.6-0.7c-0.4-0.4-0.7-1-0.7-1.6c-1.6,1.7-3.8,2.7-6.2,2.8c-1.7,0-3.5-0.4-4.9-1.4s-2.7-2.3-3.5-3.9
		c-0.9-1.7-1.3-3.6-1.3-5.6c0-1.9,0.4-3.9,1.3-5.6c0.8-1.6,2-3,3.5-3.9s3.1-1.4,4.8-1.4c1.2,0,2.4,0.3,3.6,0.7c1,0.4,2,1,2.8,1.7
		l0,0c0-0.6,0.2-1.3,0.7-1.7c0.4-0.4,1-0.7,1.7-0.7C391.1,1007.8,391.8,1008,392.2,1008.4z M386.7,1023.4c1.1-1.3,1.6-3,1.6-4.7
		c0.1-1.7-0.5-3.4-1.6-4.7c-2-2.3-5.5-2.5-7.7-0.5c-0.2,0.2-0.3,0.3-0.5,0.5c-2.2,2.8-2.2,6.6,0,9.4c1,1.2,2.5,1.9,4.2,1.9
		C384.2,1025.3,385.8,1024.7,386.7,1023.4L386.7,1023.4z"/>
	<path class="st9" d="M1355.7,1000.7c1,1.2,1.4,2.8,1.3,4.3c0,3.1-0.9,5.3-2.7,6.5c-1.9,1.3-4.1,1.9-6.3,1.8h-9.8
		c-1.3,0-2.3-1-2.4-2.3v-0.1v-22.7c0-1.3,1-2.3,2.3-2.4h0.1h9.9c4.9,0,7.5,2.3,7.5,7c0,1.1-0.3,2.2-0.9,3.1c-0.6,1-1.4,1.6-2.4,2.2
		C1353.6,998.8,1354.8,999.7,1355.7,1000.7z M1349.7,991.4c-0.6-0.6-1.4-0.9-2.3-0.8h-6.5v6.2h6.6c0.8,0,1.5-0.3,2.1-0.8
		c0.6-0.5,0.9-1.3,0.9-2.1C1350.5,993,1350.3,992.1,1349.7,991.4L1349.7,991.4z M1350.9,1008c0.7-0.8,1.1-1.8,1-2.9
		c0-1.6-0.4-2.5-1.2-3c-1-0.5-1.9-0.8-3-0.7h-6.8v7.6h7.1C1349,1009,1350.1,1008.7,1350.9,1008L1350.9,1008z"/>
	<path class="st9" d="M1379.9,992.7c0.4,0.4,0.7,1.1,0.7,1.7v16.6c0,0.6-0.2,1.3-0.7,1.7c-0.4,0.4-1,0.7-1.6,0.7s-1.2-0.3-1.6-0.7
		c-0.4-0.4-0.7-1-0.7-1.6c-1.6,1.7-3.8,2.7-6.2,2.8c-1.7,0-3.5-0.4-4.9-1.4s-2.7-2.3-3.5-3.9c-0.9-1.7-1.3-3.6-1.3-5.6
		c0-1.9,0.4-3.9,1.2-5.6c0.8-1.6,2-3,3.5-3.9c1.5-1,3.1-1.4,4.8-1.4c1.2,0,2.4,0.3,3.6,0.7c1,0.4,2,1,2.8,1.7l0,0
		c0-0.6,0.3-1.3,0.7-1.7c0.4-0.4,1-0.7,1.6-0.7C1378.8,992.1,1379.4,992.3,1379.9,992.7z M1374.4,1007.7c1.1-1.3,1.6-3,1.6-4.7
		c0.1-1.7-0.5-3.4-1.6-4.7c-2-2.3-5.5-2.5-7.7-0.5c-0.2,0.2-0.3,0.3-0.5,0.5c-2.2,2.8-2.2,6.6,0,9.4c1,1.2,2.5,1.9,4.2,1.9
		C1371.9,1009.6,1373.3,1009,1374.4,1007.7L1374.4,1007.7z"/>
	<path class="st9" d="M1398.5,992.7c0.5,0.3,0.8,1,0.8,1.6c0.1,0.7-0.2,1.3-0.6,1.8c-0.4,0.4-1,0.6-1.5,0.6c-0.4,0-0.9-0.1-1.3-0.3
		l-0.5-0.2c-0.3-0.1-0.6-0.1-0.9-0.1c-0.7,0-1.4,0.3-2,0.6c-0.7,0.5-1.2,1.1-1.6,1.9c-0.4,1-0.6,2-0.6,3v9.3c0,0.6-0.2,1.3-0.7,1.7
		c-1,1-2.4,1-3.4,0c-0.4-0.4-0.7-1.1-0.7-1.7v-16.2c0-0.6,0.2-1.3,0.7-1.7c1-1,2.4-1,3.4,0c0.4,0.4,0.7,1.1,0.7,1.7v0.5
		c0.6-1,1.5-1.9,2.6-2.4c1.1-0.6,2.3-0.9,3.6-0.9C1397.3,992,1398,992.3,1398.5,992.7z"/>
	<path class="st9" d="M1415.6,992.7c0.5,0.3,0.8,1,0.8,1.6c0.1,0.7-0.2,1.3-0.6,1.8c-0.4,0.4-1,0.6-1.5,0.6c-0.4,0-0.9-0.1-1.3-0.3
		l-0.5-0.2c-0.3-0.1-0.6-0.1-0.9-0.1c-0.7,0-1.4,0.3-2,0.6c-0.7,0.5-1.2,1.1-1.6,1.9c-0.4,1-0.6,2-0.6,3v9.3c0,0.6-0.2,1.3-0.7,1.7
		c-1,1-2.4,1-3.4,0c-0.4-0.4-0.7-1.1-0.7-1.7v-16.2c0-0.6,0.2-1.3,0.7-1.7c1-1,2.4-1,3.4,0c0.4,0.4,0.7,1.1,0.7,1.7v0.5
		c0.6-1,1.5-1.9,2.6-2.4c1.1-0.6,2.3-0.9,3.6-0.9C1414.3,992,1415,992.3,1415.6,992.7z"/>
	<path class="st9" d="M1419.9,989.5c-0.4-0.4-0.6-1-0.5-1.6v-0.8c-0.1-0.6,0.2-1.1,0.6-1.6c1.2-0.6,2.6-0.6,3.8,0
		c0.4,0.4,0.6,1,0.5,1.6v0.8c0.1,0.6-0.2,1.1-0.6,1.6c-0.6,0.3-1.3,0.4-1.9,0.4C1421.1,989.9,1420.5,989.8,1419.9,989.5z
		 M1423.5,1012.8c-1,1-2.4,1-3.4,0c-0.4-0.4-0.7-1.1-0.7-1.7v-16.2c0-0.6,0.2-1.3,0.7-1.7c1-1,2.4-1,3.4,0c0.4,0.4,0.7,1.1,0.7,1.7
		v16.2C1424.2,1011.7,1424,1012.3,1423.5,1012.8z"/>
	<path class="st9" d="M1447.7,1008.6c-0.9,1.6-2.3,3-3.9,3.9c-3.4,1.8-7.5,1.8-10.9,0c-1.6-0.9-3-2.3-3.8-3.9
		c-1.9-3.6-1.9-7.7,0-11.3c0.9-1.6,2.3-3,3.8-3.9c3.4-1.8,7.5-1.8,10.9,0c1.6,1,3,2.3,3.9,3.9
		C1449.6,1000.9,1449.6,1005.1,1447.7,1008.6z M1443.7,999.6c-0.5-1-1.2-1.7-2.2-2.3c-1.8-1.1-4.2-1.1-6,0c-1,0.6-1.6,1.4-2.2,2.3
		c-0.5,1-0.9,2.3-0.8,3.5c0,1.2,0.3,2.3,0.8,3.4c0.5,1,1.2,1.7,2.2,2.3c1.8,1.1,4.2,1.1,6,0c1-0.5,1.6-1.4,2.2-2.3
		c0.5-1,0.9-2.3,0.8-3.4C1444.5,1001.8,1444.2,1000.6,1443.7,999.6L1443.7,999.6z"/>
</g>
</svg>
