<svg xmlns="http://www.w3.org/2000/svg" viewBox="0 0 348.06 271"><defs><style>.cls-1{isolation:isolate;}.cls-2{fill:#cbc5dd;}.cls-3{fill:#5c4d8c;}.cls-13,.cls-15,.cls-16,.cls-28,.cls-3,.cls-30,.cls-40,.cls-41,.cls-6{fill-rule:evenodd;}.cls-4{fill:#fcd380;}.cls-5{fill:none;}.cls-6,.cls-7{fill:#f7bb63;}.cls-8{fill:#eb619e;}.cls-9{fill:#e3589a;}.cls-10{fill:#eb91bc;}.cls-11{fill:#e24d94;}.cls-12{fill:#fff;}.cls-13{fill:#f6b247;}.cls-14{fill:#29233f;}.cls-15{fill:#6d59a2;}.cls-16{fill:#7867aa;}.cls-17{fill:#ff7701;}.cls-18{fill:#e675a9;}.cls-19{fill:#7a67a6;}.cls-20{fill:#523f8e;}.cls-21{mix-blend-mode:soft-light;}.cls-22{fill:#c2c1c1;}.cls-23,.cls-28{fill:#d76ba4;}.cls-24{fill:#e7344c;}.cls-25{fill:#515151;}.cls-26,.cls-30{fill:#3d3d3d;}.cls-27{fill:#e4032e;}.cls-29{fill:#282828;}.cls-31{fill:#377d82;}.cls-32{fill:#4da2ae;}.cls-33{fill:#ffd880;}.cls-34{fill:#efbd50;}.cls-35{fill:#e8b142;}.cls-36{fill:#6f62a4;}.cls-37,.cls-40{fill:#e6c37a;}.cls-38{fill:#e89ac2;}.cls-39{fill:#161717;}.cls-41{fill:#5ba2ad;}.cls-42{fill:#4ca2ae;}</style></defs><title>graciasporparticipar</title><g class="cls-1"><g id="Layer_1" data-name="Layer 1"><circle class="cls-2" cx="170" cy="130" r="130"/><path class="cls-3" d="M90.31,191.27c14.58,0,26.47-25.19,26.47-56.08S104.89,79.11,90.31,79.11,63.84,104.3,63.84,135.19,75.73,191.27,90.31,191.27Z"/><path class="cls-4" d="M101.12,212H84.26a27.66,27.66,0,0,1,9-1.47A27.65,27.65,0,0,1,101.12,212Z"/><path class="cls-4" d="M68.05,131.13c-2.41.5-4.41,2.44-6.08,4.54a49.5,49.5,0,0,0-6.32,10.77c-1.65,3.72-3,7.61-4.35,11.49q-2.65,7.68-5.26,15.39a96.75,96.75,0,0,0-2.93,9.79c-.81,3.61-2.42,8.45-1.17,11.92s5.82,5.23,8.85,4.14c2.65-1,4.11-4.19,5.3-7.13l13.83-34.27c1-2.43,5-12.21,5.55-14.81C76.78,137.23,75.4,129.61,68.05,131.13Z"/><path class="cls-4" d="M12.62,132.09,4,135.46c-.14-.41-.28-.82-.42-1.25a5.49,5.49,0,0,1-.24-4c.29-.62.47-2.33,1-2.78,1.23-1.1,3.11-.95,4.7-.53a4.62,4.62,0,0,1,2.56,2.37A23,23,0,0,1,12.62,132.09Z"/><path class="cls-4" d="M18.28,145.94A44.78,44.78,0,0,1,12,150.86c-.21.13-.58,0-1.15-.91s-.07-1.38-.21-1.56A42.47,42.47,0,0,1,4,135.46l8.67-3.37a6.6,6.6,0,0,0,.6,1.3c.56.87,1.23,2.07,1.54,2.11s-.65-2.33.16-2.65,1.36.89,1.7,1.68c1.09,2.5.81,6.37,1.9,8.86C19.51,145.67,19.65,144.62,18.28,145.94Z"/><line class="cls-5" x1="18" y1="130" x2="12.62" y2="132.09"/><line class="cls-5" x1="3.95" y1="135.46" y2="137"/><path class="cls-4" d="M48.08,200.86c-2,.07-4.13-1.33-6-3-2.89-2.47-5.22-5.76-7.67-9.08s-4.54-6.58-6.71-10c-2.85-4.49-6.35-10.73-7.19-12.12-1.73-2.85-4.77-8.11-6.32-11.14-1.67-3.27-4.36-8.28-4.62-11.89a3.42,3.42,0,0,1,3.35-3.54c2.34.23,7.46,5.8,9.27,8.31C27.57,155.94,34,163.61,41.88,175c1.46,2.1,7.36,10.54,8.57,12.89C53.11,193.06,54.23,200.65,48.08,200.86Z"/><path class="cls-6" d="M52,170.5s-4.25,10.83-1.5,17.39l-6.12-9.36,3-9.07Z"/><path class="cls-6" d="M119.58,172s8.06,22.62,10.73,24.58Z"/><path class="cls-4" d="M115.29,129.81c2.38.5,4.35,2.43,6,4.53a49.5,49.5,0,0,1,6.21,10.76c1.62,3.71,3,7.6,4.27,11.49q2.6,7.68,5.16,15.38a97.61,97.61,0,0,1,2.88,9.79c.8,3.61,2.37,8.45,1.13,11.92a7.3,7.3,0,0,1-8.73,4.15c-2.61-1-4-4.18-5.21-7.13l-13.58-34.25c-1-2.43-4.87-12.2-5.45-14.81C106.68,135.92,108,128.3,115.29,129.81Z"/><path class="cls-4" d="M143.11,206.76c-.1,1.74-.25,3.49-.43,5.24H128.54c.28-3.25,1.08-12.41,1.62-14.83,0-.2.09-.41.14-.6h0c1.4-5.52,5.29-11.47,10-7.84a5.17,5.17,0,0,1,1.07,1.17h0v0a13.31,13.31,0,0,1,1.66,4.94C143.68,198.62,143.35,202.64,143.11,206.76Z"/><path class="cls-4" d="M117.87,162.6h0q-.29,1.38-.6,2.81c0,.17-.07.33-.11.5s-.12.58-.18.87h0c-.12.54-.23,1.08-.34,1.62h0c-.09.39-.17.78-.25,1.18h0c-.06.24-.11.49-.17.73h0c-1.38,6.66-2.64,13.46-2.63,18.19,0,10.11,2.82,17.28,4.1,23.47H67.32c1-6.17,3.65-12.95,3.67-23.47,0-5.67-2.07-14.3-4-22.13h0l0-.11c-.07-.26-.12-.51-.18-.76-.21-.82-.41-1.62-.6-2.42s-.41-1.69-.6-2.51h0c-1.09-4.58-1.86-8.42-1.74-10.56v0c.17-3.24.12-6.5.12-9.05v0a20.25,20.25,0,0,1,.26-4.36,15.33,15.33,0,0,1,1.53-2.73s0,0,0,0A14.92,14.92,0,0,1,68,131.15h0a5.67,5.67,0,0,1,1.1-.79,34.64,34.64,0,0,1,3.83-1.69,11.13,11.13,0,0,1,1.62-.46c1.6-.3,4.22-1.64,7.38-2.15l.41-.06h0l.19,0a14.06,14.06,0,0,1,2-.11c3.21,0,4.16-.69,6.95-.55,2.85-.13,3.67.22,6.95.27a12.12,12.12,0,0,1,1.74.09h.1l.17,0,.25,0a17.23,17.23,0,0,1,1.91.38l.08,0c2.24.57,4.23,1.44,5.63,1.86a6.31,6.31,0,0,0,.8.21,17.08,17.08,0,0,1,3.88,1.44h0c.7.33,1.24.61,1.42.71a5.09,5.09,0,0,1,.89.6,10.17,10.17,0,0,1,1.42,1.44,19.77,19.77,0,0,1,1.33,1.81,13.93,13.93,0,0,1,1.31,2.35,21.49,21.49,0,0,1,.26,4.68c0,1.83,0,4,0,6.26,0,.84,0,1.68.09,2.53C119.91,152.47,119,157.15,117.87,162.6Z"/><path class="cls-7" d="M100.32,120.32a18.09,18.09,0,0,0,.13,6.37,5.14,5.14,0,0,1-.82.56c-3.82,2.21-11,1.14-14.76.1-1.56-.44-2.54-.87-2.46-1.06a10.74,10.74,0,0,0,.37-5.6v-.05h0a17.25,17.25,0,0,0-.36-1.76h18.26c-.06.2-.12.4-.17.6S100.37,120,100.32,120.32Z"/><path class="cls-4" d="M72.07,88.16c0-9.86,8.59-17.85,19.2-17.85s19.2,8,19.2,17.85a16.66,16.66,0,0,1-.71,4.75c0,.39,0,.78,0,1.2a50.58,50.58,0,0,1-.8,10.64c-1.35,6.83-4.89,13.17-11.57,17.06a14.86,14.86,0,0,1-7.44,2.26,14.38,14.38,0,0,1-9.35-4.15c-8.21-7.54-8.92-18.88-8.34-29.58A16.66,16.66,0,0,1,72.07,88.16Z"/><path class="cls-8" d="M125.94,141.48c-7.18-14.57-25.85-16.22-25.85-16.22l6.38,7.7,2.15,6.45,9.59,28.78,17.9-1.65A257.72,257.72,0,0,0,125.94,141.48Z"/><polygon class="cls-9" points="109.05 138.65 116.98 172.05 121.25 171.75 109.05 138.65"/><path class="cls-10" d="M125.82,141c-7.1-14.22-25.73-15.73-25.73-15.73s18.82,5.52,23.47,15.39c1.12,2.38,5.42,13.55,9.52,25.07l2.77-.26A246.45,246.45,0,0,0,125.82,141Z"/><path class="cls-11" d="M136.37,163.17l-20.64,5.5,1.17,3.87,20.92-4.24a1.6,1.6,0,0,0,1.22-2l-.51-1.89A1.76,1.76,0,0,0,136.37,163.17Z"/><path class="cls-8" d="M56.56,142.12c7.18-14.57,25.85-16.22,25.85-16.22L76,133.6l-2.15,6.45L64.3,168.83l-17.9-1.65A257.72,257.72,0,0,1,56.56,142.12Z"/><polygon class="cls-9" points="73.45 139.29 65.51 172.68 61.25 172.38 73.45 139.29"/><path class="cls-10" d="M56.67,141.63c7.1-14.22,25.73-15.73,25.73-15.73s-18.82,5.52-23.47,15.39c-1.12,2.38-5.42,13.55-9.52,25.07l-2.77-.26A246.45,246.45,0,0,1,56.67,141.63Z"/><path class="cls-11" d="M46.13,163.8l20.64,5.5-1.17,3.87-20.92-4.24a1.6,1.6,0,0,1-1.22-2L44,165A1.76,1.76,0,0,1,46.13,163.8Z"/><path class="cls-8" d="M118.14,212H66.89a116.73,116.73,0,0,0-.31-43.8l0-.13.37-1.78.52-2.51h0l0-.11,1.86-8.92.39-1.87.25-1.21h0v0l1.47-7h0l2-9.39,1.32-1.37L82.32,126l.06-.06h0a.11.11,0,0,1,0,.06c-.41.87-3.5,8.27,8.15,9.21,9.47.77,10.06-5.45,9.81-8.41,0-.47-.1-.86-.15-1.13s-.08-.39-.08-.39h0l.12.1.46.35L108,131.3l.44,1.74h0l3.18,12.51h0l.89,3.52,1.14,4.49,1,3.79h0v.06l1.44,5.67v0l.94,3.66h0q-.16.81-.3,1.62c-.09.47-.17.94-.24,1.41l-.12.82C114,186.51,116.33,202.91,118.14,212Z"/><path class="cls-11" d="M102.32,174.38l-.86,0-2.32-.14a23.26,23.26,0,0,0-7.3.48c-.69.18-1.37.39-2.07.58a16.85,16.85,0,0,1-2.06.43,15.94,15.94,0,0,1-3.55.11,6.06,6.06,0,0,1-1.38-.26,3.1,3.1,0,0,1-.95-.48,2.09,2.09,0,0,1-.45-.48l-.11-.19.17.15a2.15,2.15,0,0,0,.53.3,4.41,4.41,0,0,0,2.17.12,25.84,25.84,0,0,0,3.27-.67c.6-.16,1.22-.36,1.87-.58s1.35-.47,2.11-.67a12.58,12.58,0,0,1,4.41-.33,19.5,19.5,0,0,1,3.46.67c1,.27,1.71.54,2.23.73Z"/><path class="cls-10" d="M87,112.9c.82.32,3.12-.91,4.23-.83s1-.2,1.77-.34,2.74.07,4-.62a8.14,8.14,0,0,1-2.36,3.56,4.68,4.68,0,0,1-4.24.74A7.29,7.29,0,0,1,87,112.9Z"/><path class="cls-10" d="M86.08,112.5l.14,0,.38.14c.32.13.78.3,1.33.46a8.31,8.31,0,0,0,.91.21,8.51,8.51,0,0,0,1,.11,7.33,7.33,0,0,0,1.1,0,9.34,9.34,0,0,0,1.13-.18,12,12,0,0,0,4-1.47c.24-.16.46-.31.65-.46a5.2,5.2,0,0,0,.46-.4l.28-.28.1-.1-.08.12a3.69,3.69,0,0,1-.24.32,5.37,5.37,0,0,1-.42.46,5.15,5.15,0,0,1-.62.53,8.31,8.31,0,0,1-1.77,1,12.33,12.33,0,0,1-2.23.68,9.92,9.92,0,0,1-1.18.18,6.73,6.73,0,0,1-1.16,0,6.37,6.37,0,0,1-1.07-.17,8.86,8.86,0,0,1-.92-.28,10.27,10.27,0,0,1-1.3-.61l-.35-.19Z"/><path class="cls-12" d="M87.51,113.09a12.14,12.14,0,0,0,9-1.62,6.19,6.19,0,0,1-4.58,2.84A6,6,0,0,1,87.51,113.09Z"/><path class="cls-13" d="M88.89,106.49c3.21.67,4.53-1.29,4.56-2.94C94.27,106.59,92.07,108.23,88.89,106.49Z"/><path class="cls-14" d="M98.55,95.84a1.36,1.36,0,0,0-.32.71c-.13.92-.31,2.59.72,3.1,1.23.61,1.81-1,1.84-2a2.64,2.64,0,0,0-.46-1.75A1.12,1.12,0,0,0,98.55,95.84Z"/><path class="cls-14" d="M97.43,96.32s1.51-1.86,5,0C102.45,96.32,99.15,93.6,97.43,96.32Z"/><path class="cls-14" d="M83.81,95.84a1.36,1.36,0,0,1,.32.71c.13.92.31,2.59-.72,3.1-1.23.61-1.81-1-1.84-2A2.64,2.64,0,0,1,82,95.95,1.12,1.12,0,0,1,83.81,95.84Z"/><path class="cls-14" d="M84.93,96.32s-1.51-1.86-5,0C79.91,96.32,83.21,93.6,84.93,96.32Z"/><path class="cls-6" d="M61.84,101.44a4.46,4.46,0,0,1-.46-1,13.16,13.16,0,0,0-.59,3.49c.28-.24.57-.48.88-.71a3,3,0,0,1,.84-.42A8.85,8.85,0,0,0,61.84,101.44Z"/><path class="cls-6" d="M91.18,71.41c-7.74-4.35-20.26,2.89-22.56,13.35a27,27,0,0,1-3.06,7.8l.34.32c2.44-1.16,6.11,0,6.15,3.57a71.34,71.34,0,0,0,.64,7.57A8.18,8.18,0,0,1,75,100.76c4.11-3.14,3.22-4.87,3.93-12.21s7.58-2.77,13-9.16C94.08,76.73,98.92,75.76,91.18,71.41Z"/><path class="cls-6" d="M76.17,99.79a31.42,31.42,0,0,0,6.73,21.88S74.77,117.38,72.68,104A4.62,4.62,0,0,1,76.17,99.79Z"/><path class="cls-15" d="M95.34,89.09c1.68-.37,4.43-1.14,7.34,1.4,1.31,1.14,1.07,1.69-.39.62-2.49-1.82-4.15-1.22-6.79-.7C94.47,90.62,94.19,89.35,95.34,89.09Z"/><path class="cls-15" d="M86.16,89.09c-1.68-.37-4.43-1.14-7.34,1.4-1.31,1.14-1.07,1.69.39.62,2.49-1.82,4.15-1.22,6.79-.7C87,90.62,87.3,89.35,86.16,89.09Z"/><path class="cls-15" d="M90.88,76.8c-5.38,6.39-12.24,1.82-13,9.16S78.1,95,74,98.18s-5.13,13.67-2.72,21.16,2.19,11.88-.71,17-3,8.7-1.56,13.77,2.36,7.77-6.18-1.14-6.53-18.19-3.14-26.9,1.63-8,.25-17.69,5.36-11.71,7.66-22.17,14.82-17.7,22.56-13.35S93.05,74.14,90.88,76.8Z"/><path class="cls-16" d="M87.61,70.28c-.93,4.18-6.5,5.72-9.9,6.8s-5.91,3.68-5.29,8.32-2.75,10.7-5.07,13S65.73,110.8,67.5,117c1.65,5.74-1.53,14.25-3,17.54-1.61,3.52-2.38,8-.52,10.91-3.19-2.81-3.07-7.27-1.08-12.06s4.3-7.77,2.47-16.21c-2.31-10.69-3.78-14.57.76-20.53,3.59-4.7,4.46-5.32,4.34-10.9s.77-8.35,5.72-10.05S85.6,74.3,87.61,70.28Z"/><path class="cls-15" d="M90.35,76.8c5.38,6.39,12.24,1.82,13,9.16s-.18,9.07,3.93,12.21,5.13,13.67,2.72,21.16-2.19,11.88.71,17,3,8.7,1.56,13.77-2.36,7.77,6.18-1.14,6.53-18.19,3.14-26.9-1.63-8-.25-17.69-5.36-11.71-7.66-22.17S98.82,64.47,91.08,68.82,88.18,74.14,90.35,76.8Z"/><path class="cls-16" d="M93.62,70.28c.93,4.18,6.5,5.72,9.9,6.8s5.91,3.68,5.29,8.32,2.75,10.7,5.07,13,1.62,12.37-.15,18.56c-1.65,5.74,1.53,14.25,3,17.54,1.61,3.52,2.38,8,.52,10.91,3.19-2.81,3.07-7.27,1.08-12.06s-4.3-7.77-2.47-16.21c2.31-10.69,3.78-14.57-.76-20.53-3.59-4.7-4.46-5.32-4.34-10.9s-.77-8.35-5.72-10.05S95.63,74.3,93.62,70.28Z"/><path class="cls-17" d="M22.08,188.08l-.14.21a2,2,0,0,1,.12-.23Z"/><path class="cls-17" d="M23.33,186.42l-.46.58h0C23,186.8,23.16,186.61,23.33,186.42Z"/><path class="cls-17" d="M45.38,209.06a.79.79,0,0,1,.12-.17c0,.27,0,.55,0,.82,0,.08-.09.17-.13.25Z"/><path class="cls-17" d="M51.93,190.27c0,1-.07,2.15-.09,3.31,0-1.13,0-2.25.07-3.31Z"/><path class="cls-17" d="M74.48,187.77l-.17-.25v-.22A3.09,3.09,0,0,1,74.48,187.77Z"/><path class="cls-18" d="M223,183.27c2,1,3.2,3.36,4.08,5.8,1.34,3.7,1.66,7.82,2.08,12,.41,4,.53,8.18.61,12.31.11,5.45-.16,12.77-.16,14.44,0,3.42-.15,9.64-.43,13.12-.3,3.75-.65,9.57-2.5,12.87-1.27,2.26-4.35,2-5.3,1.32-2.12-1.44-3.79-9-4.07-12.21-.84-9.44-2.51-19.55-3.48-33.74-.18-2.61-.92-13.15-.71-15.85C213.6,187.42,217,180.18,223,183.27Z"/><path class="cls-19" d="M230,243.6c-.07.9-.15,1.92-.23,3-.53.09-1.06.15-1.59.23a38.39,38.39,0,0,1-12.08-1.9c-1-11.11-2.85-23.09-3.94-39.7-.21-3.16-1.07-15.89-.83-19.16.54-7.18,4.45-15.92,11.48-12.19,2.31,1.22,3.72,4.07,4.74,7,1.56,4.48,1.92,9.45,2.42,14.54.47,4.87.61,9.89.71,14.88.13,6.58-.18,15.44-.19,17.45C230.45,231.87,230.28,239.4,230,243.6Z"/><path class="cls-20" d="M218.53,242.11c10.72-8.6,7.43-26.44,7.33-37.93,0-3.57-3.31-5.21-6.34-4.95a6.47,6.47,0,0,0-3.9.5,7.06,7.06,0,0,0-3.35,2.91c-.32-4.93-.86-13.88-.66-16.54.54-7.18,4.45-15.92,11.48-12.19,2.31,1.22,3.72,4.07,4.74,7,1.56,4.48,1.92,9.45,2.42,14.54.47,4.87.61,9.89.71,14.88.13,6.58-.18,15.44-.19,17.45,0,4.13-.17,11.65-.5,15.86-.07.9-.15,1.92-.23,3-.53.09-1.06.15-1.59.23a38.39,38.39,0,0,1-12.08-1.9q-.08-.86-.16-1.73A6.22,6.22,0,0,0,218.53,242.11Z"/><g class="cls-21"><path class="cls-22" d="M211.77,199.82c0,.63.08,1.24.11,1.8l18.46-.45c0-.64-.07-1.27-.11-1.9l-18.44.44S211.78,199.79,211.77,199.82Z"/><path class="cls-22" d="M212,203.5h0c0,.7.08,1.29.11,1.7,0,.07,0,.13,0,.21L230.5,205l-.07-1.91Z"/><path class="cls-22" d="M212.34,208.25c0,.64.09,1.28.15,1.9l18.14-.44c0-.63,0-1.27,0-1.9Z"/><path class="cls-22" d="M213.86,224.8c.07.64.15,1.27.22,1.9l16.41-.4c0-.54,0-1.19,0-1.91Z"/><path class="cls-22" d="M214.29,228.59c.07.64.15,1.28.22,1.9l15.93-.39c0-.68,0-1.32,0-1.9Z"/><path class="cls-22" d="M214.83,233.33c.07.64.15,1.28.22,1.9l15.29-.37c0-.65,0-1.28,0-1.91Z"/></g><path class="cls-18" d="M196.8,125.93c2.87.52,5.25,2.52,7.24,4.68a50.32,50.32,0,0,1,7.55,11.06c2,3.82,3.61,7.81,5.22,11.8q3.18,7.88,6.31,15.79a90,90,0,0,1,3.53,10c1,3.71,2.91,8.67,1.44,12.22s-6.87,5.34-10.48,4.2c-3.15-1-4.89-4.31-6.32-7.33l-16.57-35.18c-1.18-2.49-5.95-12.54-6.66-15.21C186.48,132.14,188.08,124.34,196.8,125.93Z"/><path class="cls-19" d="M195.1,122.7c3.1.54,5.67,2.66,7.81,4.95A52.94,52.94,0,0,1,211,139.39c2.12,4.05,3.87,8.29,5.6,12.53q3.41,8.37,6.77,16.77a94,94,0,0,1,3.78,10.67c1,3.94,3.11,9.21,1.51,13s-7.46,5.7-11.36,4.5c-3.4-1-5.28-4.57-6.81-7.78l-17.79-37.36c-1.26-2.65-6.38-13.31-7.15-16.15C183.91,129.34,185.67,121,195.1,122.7Z"/><path class="cls-20" d="M195,122.75a11.67,11.67,0,0,1,5,2.37,8.07,8.07,0,0,0-1.69.43c-9.73,3.69-5.27,17.75-2.64,24a210.41,210.41,0,0,0,21.19,38.31c1.75,2.56,5,3.1,7.85,1.87a6.84,6.84,0,0,0,4.15-4.55c.68,2.78,1.06,5.63.08,7.94-1.62,3.82-7.54,5.76-11.48,4.55-3.44-1.06-5.34-4.62-6.88-7.86l-18-37.76c-1.28-2.68-6.45-13.46-7.23-16.32C183.66,129.46,185.44,121.07,195,122.75Z"/><g class="cls-21"><path class="cls-22" d="M190.78,147.59c.23.51.45,1,.67,1.42L208.4,134.8c-.27-.43-.56-.86-.84-1.28Z"/><path class="cls-22" d="M192.12,150.42l.61,1.3a.6.6,0,0,1,.06.12L210,137.44c-.25-.45-.51-.9-.77-1.34Z"/><path class="cls-22" d="M193.81,154c.23.48.44.95.67,1.41l17.32-14.52-.71-1.38Z"/><path class="cls-22" d="M198.31,163.43l.68,1.41,17.07-14.31c-.19-.49-.4-1-.61-1.47Z"/><path class="cls-22" d="M199.66,166.26l.68,1.42,16.93-14.2c-.19-.49-.4-1-.6-1.47Z"/><path class="cls-22" d="M201.36,169.79c.22.47.44.95.67,1.42l16.75-14c-.19-.49-.4-1-.6-1.48Z"/><path class="cls-22" d="M207.24,182.16l.67,1.42L224,170.11c-.18-.48-.37-1-.57-1.43l0-.05Z"/><path class="cls-22" d="M208.58,185q.34.7.68,1.42l15.87-13.31-.58-1.5Z"/><path class="cls-22" d="M210.27,188.53c.09.18.17.36.26.55s.27.58.42.87l15.52-13c-.16-.53-.34-1-.52-1.56Z"/></g><path class="cls-18" d="M228.49,245.18c.28,0,.57.28.57,1.41s-.74,1.24-.72,1.48c.68,6.07.07,10.22-1.41,16.22a5.46,5.46,0,0,1-2.09,3.6c-.65.39-1.82,1.79-2.57,1.92-1.83.3-3.55-.82-4.84-2a4.44,4.44,0,0,1-1.08-3.44c0-1.24.81-3.25.77-4.48,0-1.05,0-2.46-.25-2.66s-.74,2.38-1.71,2.24-.79-1.51-.66-2.38c.41-2.76,2.95-6,3.36-8.76.38-2.53-.38-1.69,1.72-2.11A55.45,55.45,0,0,1,228.49,245.18Z"/><rect class="cls-12" x="215.58" y="243.78" width="15.38" height="3.51" rx="0.98" ry="0.98"/><path class="cls-18" d="M120.16,183.27c-2,1-3.2,3.36-4.08,5.8-1.34,3.7-1.66,7.82-2.08,12-.41,4-.53,8.18-.61,12.31-.11,5.45.16,12.77.16,14.44,0,3.42.15,9.64.43,13.12.3,3.75.65,9.57,2.5,12.87,1.27,2.26,4.35,2,5.3,1.32,2.12-1.44,3.79-9,4.07-12.21.84-9.44,2.51-19.55,3.48-33.74.18-2.61.92-13.15.71-15.85C129.58,187.42,126.21,180.18,120.16,183.27Z"/><path class="cls-19" d="M113.23,243.6c.07.9.15,1.92.23,3,.53.09,1.06.15,1.59.23a38.39,38.39,0,0,0,12.08-1.9c1-11.11,2.85-23.09,3.94-39.7.21-3.16,1.07-15.89.83-19.16-.54-7.18-4.45-15.92-11.48-12.19-2.31,1.22-3.72,4.07-4.74,7-1.56,4.48-1.92,9.45-2.42,14.54-.47,4.87-.61,9.89-.71,14.88-.13,6.58.18,15.44.19,17.45C112.73,231.87,112.9,239.4,113.23,243.6Z"/><path class="cls-20" d="M124.65,242.11c-10.72-8.6-7.43-26.44-7.33-37.93,0-3.57,3.31-5.21,6.34-4.95a6.47,6.47,0,0,1,3.9.5,7.06,7.06,0,0,1,3.35,2.91c.32-4.93.86-13.88.66-16.54-.54-7.18-4.45-15.92-11.48-12.19-2.31,1.22-3.72,4.07-4.74,7-1.56,4.48-1.92,9.45-2.42,14.54-.47,4.87-.61,9.89-.71,14.88-.13,6.58.18,15.44.19,17.45,0,4.13.17,11.65.5,15.86.07.9.15,1.92.23,3,.53.09,1.06.15,1.59.23A38.39,38.39,0,0,0,126.8,245q.08-.86.16-1.73A6.22,6.22,0,0,1,124.65,242.11Z"/><g class="cls-21"><path class="cls-22" d="M131.41,199.82c0,.63-.08,1.24-.11,1.8l-18.46-.45c0-.64.07-1.27.11-1.9l18.44.44S131.4,199.79,131.41,199.82Z"/><path class="cls-22" d="M131.17,203.5h0c0,.7-.08,1.29-.11,1.7,0,.07,0,.13,0,.21L112.68,205l.07-1.91Z"/><path class="cls-22" d="M130.84,208.25c0,.64-.09,1.28-.15,1.9l-18.14-.44c0-.63,0-1.27,0-1.9Z"/><path class="cls-22" d="M129.32,224.8c-.07.64-.15,1.27-.22,1.9l-16.41-.4c0-.54,0-1.19,0-1.91Z"/><path class="cls-22" d="M128.89,228.59c-.07.64-.15,1.28-.22,1.9l-15.93-.39c0-.68,0-1.32,0-1.9Z"/><path class="cls-22" d="M128.35,233.33c-.07.64-.15,1.28-.22,1.9l-15.29-.37c0-.65,0-1.28,0-1.91Z"/></g><path class="cls-18" d="M146.38,125.93c-2.87.52-5.25,2.52-7.24,4.68a50.32,50.32,0,0,0-7.55,11.06c-2,3.82-3.61,7.81-5.22,11.8q-3.18,7.88-6.31,15.79a90,90,0,0,0-3.53,10c-1,3.71-2.91,8.67-1.44,12.22s6.87,5.34,10.48,4.2c3.15-1,4.89-4.31,6.32-7.33l16.57-35.18c1.18-2.49,5.95-12.54,6.66-15.21C156.7,132.14,155.11,124.34,146.38,125.93Z"/><path class="cls-19" d="M148.08,122.7c-3.1.54-5.67,2.66-7.81,4.95a52.94,52.94,0,0,0-8.12,11.74c-2.12,4.05-3.87,8.29-5.6,12.53q-3.41,8.37-6.77,16.77A94,94,0,0,0,116,179.36c-1,3.94-3.11,9.21-1.51,13s7.46,5.7,11.36,4.5c3.4-1,5.28-4.57,6.81-7.78l17.79-37.36c1.26-2.65,6.38-13.31,7.15-16.15C159.27,129.34,157.51,121,148.08,122.7Z"/><path class="cls-20" d="M148.2,122.75a11.67,11.67,0,0,0-5,2.37,8.07,8.07,0,0,1,1.69.43c9.73,3.69,5.27,17.75,2.64,24a210.41,210.41,0,0,1-21.19,38.31c-1.75,2.56-5,3.1-7.85,1.87a6.84,6.84,0,0,1-4.15-4.55c-.68,2.78-1.06,5.63-.08,7.94,1.62,3.82,7.54,5.76,11.48,4.55,3.44-1.06,5.34-4.62,6.88-7.86l18-37.76c1.28-2.68,6.45-13.46,7.23-16.32C159.52,129.46,157.74,121.07,148.2,122.75Z"/><g class="cls-21"><path class="cls-22" d="M152.4,147.59c-.23.51-.45,1-.67,1.42L134.78,134.8c.27-.43.56-.86.84-1.28Z"/><path class="cls-22" d="M151.06,150.42l-.61,1.3a.6.6,0,0,0-.06.12l-17.19-14.4c.25-.45.51-.9.77-1.34Z"/><path class="cls-22" d="M149.37,154c-.23.48-.44.95-.67,1.41l-17.32-14.52.71-1.38Z"/><path class="cls-22" d="M144.87,163.43l-.68,1.41-17.07-14.31c.19-.49.4-1,.61-1.47Z"/><path class="cls-22" d="M143.52,166.26l-.68,1.42-16.93-14.2c.19-.49.4-1,.6-1.47Z"/><path class="cls-22" d="M141.83,169.79c-.22.47-.44.95-.67,1.42l-16.75-14c.19-.49.4-1,.6-1.48Z"/><path class="cls-22" d="M135.94,182.16l-.67,1.42-16.05-13.47c.18-.48.37-1,.57-1.43l0-.05Z"/><path class="cls-22" d="M134.6,185q-.34.7-.68,1.42L118,173.1l.58-1.5Z"/><path class="cls-22" d="M132.91,188.53c-.09.18-.17.36-.26.55s-.27.58-.42.87l-15.52-13c.16-.53.34-1,.52-1.56Z"/></g><path class="cls-18" d="M114.69,245.18c-.28,0-.57.28-.57,1.41s.74,1.24.72,1.48c-.68,6.07-.07,10.22,1.41,16.22a5.46,5.46,0,0,0,2.09,3.6c.65.39,1.82,1.79,2.57,1.92,1.83.3,3.55-.82,4.84-2a4.44,4.44,0,0,0,1.08-3.44c0-1.24-.81-3.25-.77-4.48,0-1.05,0-2.46.25-2.66s.74,2.38,1.71,2.24.79-1.51.66-2.38c-.41-2.76-2.95-6-3.36-8.76-.38-2.53.38-1.69-1.72-2.11A55.45,55.45,0,0,0,114.69,245.18Z"/><path class="cls-18" d="M160.76,114.7v15.19s10.72,3,21.44,0V112.82S160.76,105.83,160.76,114.7Z"/><path class="cls-18" d="M206.81,251.35C205.69,207.41,173,207.41,173,207.41s-33.93-1.69-34.15,45c0,4.24,4.61,2.77,15.35,3.77L169,258.82s.53-2.37,4-2.25a3.56,3.56,0,0,1,3.9,2.93l14.88-3.23C202.57,255.27,206.92,255.58,206.81,251.35Z"/><path class="cls-18" d="M157.31,112.31s1.86,5.62,0,9.09c-.46.86,19.25,5.47,26.37.49,0,0-1.38-5.12.33-9.58Z"/><path class="cls-23" d="M183.42,120.8a6,6,0,0,0-5.83-1.34c-3.87,1.42-9.53,1.61-13.24,0a7.39,7.39,0,0,0-6.36.1,16.83,16.83,0,0,0-.67-7.07H184A16.67,16.67,0,0,0,183.42,120.8Z"/><path class="cls-18" d="M150.56,83.28c0-9.76,9.37-17.68,20.92-17.68s20.92,7.91,20.92,17.68a15.11,15.11,0,0,1-.77,4.7c0,.38,0,.78,0,1.19a45.63,45.63,0,0,1-.87,10.54,24.32,24.32,0,0,1-12.61,16.89,17.38,17.38,0,0,1-8.11,2.24,16.44,16.44,0,0,1-10.19-4.11c-9-7.47-9.72-18.7-9.09-29.3A15,15,0,0,1,150.56,83.28Z"/><path class="cls-23" d="M163.55,115.56c-7-5.2-9.78-13-10.35-21-.6-8.49-.11-17.19,4-24.85a17,17,0,0,0-6.57,13.12,15.57,15.57,0,0,0,.18,2.23c-.65,11,.15,22.61,9.42,30.35a17,17,0,0,0,10.55,4.26l.69,0A26.86,26.86,0,0,1,163.55,115.56Z"/><path class="cls-24" d="M206.81,237.55c.4-.93.27-15.29.32-16.39.32-6.47.11-21,.08-35.18,0-11.93-.16-32.54-.6-39.55-.4-6.53.13-13.23-.48-14.94-.3-.83-3.31-5.62-6.1-6.88a30.67,30.67,0,0,0-6.59-2.39c-2.54-.42-5.36-1.5-9.88-2.15-1.21,4.1-10,5.5-13.57,5.65-3.45-.15-11.62-2.27-12-5.54-2.13.54-4.74,1.62-7.23,2a33.67,33.67,0,0,0-6.73,2.39c-2.73,1.25-5.68,6-6,6.88-.6,1.71-.08,8.41-.47,14.94-.42,7,1.53,32.92,1.3,44.85-.16,8.35.28,20.73,0,28.87,0,1.1-.28,15.92.11,16.85s3.31,2.24,5,2.88a113.38,113.38,0,0,0,29,3.9C189.47,243.89,206.81,237.55,206.81,237.55Z"/><path class="cls-19" d="M206.81,237.55c.4-.93.27-15.29.32-16.39.32-6.47.11-21,.08-35.18,0-11.93-.16-32.54-.6-39.55-.4-6.53.13-13.23-.48-14.94-.3-.83-3.31-5.62-6.1-6.88a30.67,30.67,0,0,0-6.59-2.39c-2.54-.42-5.36-1.5-9.88-2.15-1.21,4.1-10,5.5-13.57,5.65-3.45-.15-11.62-2.27-12-5.54-2.13.54-4.74,1.62-7.23,2a33.67,33.67,0,0,0-6.73,2.39c-2.73,1.25-5.68,6-6,6.88-.6,1.71-.08,8.41-.47,14.94-.42,7,1.53,32.92,1.3,44.85-.16,8.35.28,20.73,0,28.87,0,1.1-.28,15.92.11,16.85s3.31,2.24,5,2.88a113.38,113.38,0,0,0,29,3.9C189.47,243.89,206.81,237.55,206.81,237.55Z"/><path class="cls-24" d="M175.58,243.74c2.85-.09,5.68-.36,8.43-.72A80.85,80.85,0,0,1,175.58,243.74Z"/><path class="cls-25" d="M191,99.09a92.15,92.15,0,0,0,4.45-11.87c2.26-6.91,4.35-14.41,2.61-21.41a21,21,0,0,0-3.42-7,21,21,0,0,0-8.33-4.54A155.18,155.18,0,0,0,170.82,52c-11.49-.27-19.08,2.8-23.66,7.34-.46.45-2.31,3.33-2.76,3.76a5,5,0,0,0-1,1.53c-1.21,2.53-2.43,5.1-2.68,7.79a21.26,21.26,0,0,0,.57,6,58.12,58.12,0,0,0,2,7.87,42.39,42.39,0,0,0,7.34,12.78c0-6.52.94-7.46,1.37-11.33.22-2,.25-5.44.5-7.42s.15-3.87,2.06-5.27c1.75-1.28,2.39-.58,4.8-.61s4.91.1,7.12-.63l.68-2.14a3.75,3.75,0,0,0,2,3.21,13.31,13.31,0,0,0,4.29,1.57,18.52,18.52,0,0,0,5.11.52c1.68-.11,3.29-.56,5-.71s3.55.08,4.64,1.08a4.59,4.59,0,0,1,1.13,3.47,66.25,66.25,0,0,0,1.23,10.28"/><path class="cls-26" d="M173.54,54.25a6.51,6.51,0,0,1,2.11.3,40.94,40.94,0,0,1,12.15.19,12.36,12.36,0,0,0-1.46-.45A155.17,155.17,0,0,0,170.84,52c-11.49-.27-19.08,2.8-23.66,7.34-.46.45-2.31,3.33-2.76,3.76a5,5,0,0,0-1,1.53c-1.21,2.53-2.43,5.1-2.68,7.79a21.26,21.26,0,0,0,.57,6,58.12,58.12,0,0,0,2,7.87,42.38,42.38,0,0,0,7.34,12.78V99a5.45,5.45,0,0,1-.44-1.11c-2.78-10-7.89-19.92-2.18-30C152.51,60,163.92,54.38,173.54,54.25Z"/><path class="cls-26" d="M192,77.56c-.85-4.82-8-3.27-11.94-3.13s-8.05.31-11.63-1.6a6.16,6.16,0,0,1-.87-.58c0,.07,0,.13-.06.2s-.11.27-.16.4a4.53,4.53,0,0,0,1.81,2.05,13.31,13.31,0,0,0,4.29,1.57,18.52,18.52,0,0,0,5.11.52c1.68-.11,3.29-.56,5-.71s3.55.08,4.64,1.08a4.59,4.59,0,0,1,1.13,3.47c.05,1.31.16,2.61.29,3.91C191.1,82.55,192.54,80.5,192,77.56Z"/><path class="cls-20" d="M206.86,237.38a.88.88,0,0,1,0,.17,122.3,122.3,0,0,1-17,4.54c-1.63.31-3.32.59-5.06.84l-.75.1c-2.75.36-5.58.63-8.43.72-.92,0-1.83.05-2.73,0l-1.54,0a112.62,112.62,0,0,1-27.23-3.88c-1.74-.64-4.63-1.89-5-2.88s-.15-15.75-.11-16.86c.28-8.13-.16-20.52,0-28.87.23-11.93-1.72-37.84-1.29-44.85.39-6.53-.14-13.23.47-14.94a21,21,0,0,1,3.91-5.38,65.78,65.78,0,0,0,.9,9.58c.66,3.91-.4,8.07-.52,12-.25,8.66-.19,17.5.06,26.16.26,9,2.22,17.91,2.53,26.92.27,8.11,1,14.86,6.41,21.67a6.93,6.93,0,0,0,.71.75c5.37,6.39,17.18,9.65,25,11.31C186.72,236.56,196.87,237.15,206.86,237.38Z"/><path class="cls-27" d="M207.08,237.39l0,.15a123.15,123.15,0,0,1-17.22,4.54,122.3,122.3,0,0,0,17-4.54.88.88,0,0,0,0-.17Z"/><rect class="cls-12" x="112.23" y="243.78" width="15.38" height="3.51" rx="0.98" ry="0.98"/><path class="cls-12" d="M165.83,106.39a15.72,15.72,0,0,0,10.79-.45,7.59,7.59,0,0,1-5.82,2.38A7.37,7.37,0,0,1,165.83,106.39Z"/><path class="cls-28" d="M168.58,99.92c3.81.72,5.37-1.39,5.4-3.17C175,100,172.35,101.79,168.58,99.92Z"/><path class="cls-29" d="M180,88.45a1.41,1.41,0,0,0-.38.77c-.15,1-.36,2.79.85,3.34,1.46.66,2.14-1.1,2.18-2.11a2.66,2.66,0,0,0-.55-1.88A1.41,1.41,0,0,0,180,88.45Z"/><path class="cls-29" d="M162.56,88.45a1.41,1.41,0,0,1,.38.77c.15,1,.36,2.79-.85,3.34-1.46.66-2.14-1.1-2.18-2.11a2.66,2.66,0,0,1,.55-1.88A1.41,1.41,0,0,1,162.56,88.45Z"/><path class="cls-30" d="M176.22,81.18c2-.4,5.25-1.23,8.71,1.51,1.56,1.23,1.27,1.82-.47.67-2.95-2-4.92-1.31-8.05-.75C175.19,82.83,174.86,81.45,176.22,81.18Z"/><path class="cls-30" d="M165.33,81.18c-2-.4-5.25-1.23-8.71,1.51-1.56,1.23-1.27,1.82.47.67,2.95-2,4.92-1.31,8.05-.75C166.36,82.83,166.69,81.45,165.33,81.18Z"/><g class="cls-21"><path class="cls-22" d="M206.43,134.14H137.8a15.38,15.38,0,0,1,.15-2.06h68.33A17.55,17.55,0,0,1,206.43,134.14Z"/><path class="cls-22" d="M206.45,136.2v2.06H137.77c0-.72,0-1.42,0-2.06Z"/><path class="cls-22" d="M206.49,143.42H137.74c0-.7,0-1.39,0-2.06h68.7C206.46,142,206.47,142.73,206.49,143.42Z"/><path class="cls-22" d="M206.95,156.82H137.74c0-.71-.06-1.4-.08-2.06H206.9C206.91,155.43,206.94,156.11,206.95,156.82Z"/><path class="cls-22" d="M207,160.95h-69.1c0-.7-.06-1.39-.09-2.06H207C207,159.56,207,160.25,207,160.95Z"/><path class="cls-22" d="M207.07,166.1H138.15L138,164h69C207.06,164.72,207.07,165.41,207.07,166.1Z"/><path class="cls-22" d="M207.19,180.54H138.75l-.07-2.06h68.49C207.17,179.18,207.19,179.87,207.19,180.54Z"/><path class="cls-22" d="M207.2,182.6v2.06H138.88c0-.67,0-1.36-.06-2.06Z"/><path class="cls-22" d="M138.92,189.82c0-.66,0-1.34,0-2.06h68.29c0,.69,0,1.37,0,2.06Z"/><path class="cls-22" d="M207.26,199.1H138.89c0-.7,0-1.38,0-2.06h68.38C207.26,197.73,207.26,198.42,207.26,199.1Z"/><path class="cls-22" d="M207.29,203.22H138.93c0-.69,0-1.38,0-2.06h68.37C207.28,201.86,207.29,202.54,207.29,203.22Z"/><path class="cls-22" d="M207.3,208.38H139c0-.69,0-1.37,0-2.06h68.32C207.3,207,207.3,207.71,207.3,208.38Z"/><path class="cls-22" d="M207.24,217.66c0,.74,0,1.42-.06,2.06H138.92c0-.66,0-1.35,0-2.06Z"/><path class="cls-22" d="M207.12,221.78c0,.48,0,1.2,0,2.06H138.84c0-.78,0-1.48,0-2.06Z"/><path class="cls-22" d="M207.09,226.93c0,.67,0,1.36,0,2.06H138.81c0-.69,0-1.38,0-2.06Z"/></g><path class="cls-12" d="M158.24,120.18s10.93,11.24,25.55-.11a3.68,3.68,0,0,1,3.54.65s-14.52,15.08-31.79.28C154.11,119.77,158,118.92,158.24,120.18Z"/><path class="cls-31" d="M252.92,61.11c-10.3-2.49-21.46,4.48-26.85,16.76-3.68,8.4-4.68,18.41-6.16,28a238.16,238.16,0,0,1-6.3,28.86c-.89,3.13-1.89,6.31-3.59,8.74-3.88,5.53-11,6.64-13.09,13.75-1.44,4.89.18,11-1.89,15.44s-6.53,4.87-9.71,7.7c-4.85,4.32-5.74,15-1.72,20.67,1.12,1.6,2.52,2.8,3.6,4.45,2.47,3.79,2.92,9.39,5.15,13.44s5.77,5.92,9.24,7.35a57.43,57.43,0,0,0,18.81,4.31c4.25.23,8.82-.17,12.22-3.69,1.55-1.61,2.77-3.79,4.41-5.24,3-2.67,6.85-2.5,10.38-1.84,7.06,1.31,14.28,4.19,21.19,1.78,4.11-1.43,7.75-4.63,11.32-7.78,2.66-2.35,5.56-5.19,6.1-9.46.81-6.43-4-11.29-6-17.24s-.94-12.81-1.68-19.21c-.42-3.61-1.39-7.06-2-10.62a95.29,95.29,0,0,1-1-17C275.66,113,279.83,67.62,252.92,61.11Z"/><path class="cls-32" d="M280,187.09c-2-5.91-.94-12.81-1.68-19.21-.42-3.61-1.39-7.06-2-10.62a95.28,95.28,0,0,1-1-17c.28-27.26,4.45-72.63-22.46-79.14-10.3-2.49-21.46,4.48-26.85,16.76-3.68,8.4-4.68,18.41-6.16,28a238.15,238.15,0,0,1-6.3,28.86c-.89,3.13-1.89,6.31-3.59,8.74-3.88,5.53-11,6.64-13.09,13.75-1.44,4.89.18,11-1.89,15.44s-6.53,4.87-9.71,7.7c-4.85,4.32-5.74,15-1.72,20.67,1.12,1.6,2.52,2.8,3.6,4.45,2.47,3.79,2.91,9.39,5.15,13.44,2,3.58,5.1,5.52,8.25,6.92-5-7.08-7.14-17.09-6.45-25.15a27.58,27.58,0,0,1,5.46-13.85,45.34,45.34,0,0,0,7.71-16.46c3.26-13.78,10.08-26,15.83-38.94a5.46,5.46,0,0,1,6.57-3.41c2.18-2.73,5.87-3.76,9.74-3.47,5.26-3.24,10.65-5.78,17-2a13.18,13.18,0,0,1,4.79,4.85c3.91-1.43,9.58.64,10.11,6.15,1.55,16.17-4.44,32.13-.21,48.33.95,3.63,3.28,6.57,4.85,10a60.36,60.36,0,0,1,4.18,12,78.25,78.25,0,0,1,1.4,8.44c2.09-2.05,4-4.52,4.42-7.9C286.82,197.9,282,193,280,187.09Z"/><path class="cls-33" d="M202,270.32a34.82,34.82,0,0,0-7.46-1.11c-.23,0-.48.32-.48,1.6"/><path class="cls-33" d="M221.13,132.27c-2.4.59-4.4,2.87-6.07,5.33a61.35,61.35,0,0,0-6.33,12.59c-1.66,4.34-3,8.89-4.38,13.43q-2.67,9-5.29,18c-1.1,3.76-2.2,7.53-3,11.44-.82,4.22-2.44,9.87-1.21,13.91s5.77,6.08,8.79,4.78c2.64-1.13,4.1-4.91,5.3-8.35l13.9-40.05c1-2.84,5-14.27,5.59-17.31C229.79,139.34,228.45,130.46,221.13,132.27Z"/><path class="cls-33" d="M203.91,265.48c.7-10.75,2.1-22.26,2.92-38.41.15-3,.78-15,.6-18-.39-6.76-3.21-15-8.29-11.48-1.67,1.15-2.69,3.83-3.42,6.6-1.12,4.22-1.39,8.9-1.74,13.69-.34,4.59-.44,9.31-.51,14-.09,6.2.13,14.54.13,16.43,0,3.89.12,11,.36,14.93"/><path class="cls-33" d="M336.79,152.33c.2.13.58,0,1.26-1.1s.22-1.53.38-1.74a63,63,0,0,0,8.79-16.28c.58-1.46,1.13-3.11.69-4.4-.22-.66-.21-2.54-.67-3-1.12-1.1-3-.79-4.67-.18a6.31,6.31,0,0,0-2.85,2.84c-.72,1.21-1.39,3.49-2.16,4.66-.66,1-1.47,2.39-1.78,2.46s.92-2.63.14-2.92-1.47,1.11-1.9,2c-1.37,2.85-1.53,7.1-2.9,9.95-1.26,2.61-1.28,1.46-.05,2.8A34.82,34.82,0,0,0,336.79,152.33Z"/><path class="cls-33" d="M275.3,131.3c2.4.59,4.4,2.87,6.07,5.33a61.35,61.35,0,0,1,6.33,12.59c1.66,4.34,3,8.89,4.38,13.43q2.67,9,5.29,18c1.1,3.76,2.2,7.53,3,11.44.82,4.22,2.44,9.87,1.21,13.91s-5.77,6.08-8.79,4.78c-2.64-1.13-4.1-4.91-5.3-8.35l-13.9-40.05c-1-2.84-5-14.27-5.59-17.31C266.65,138.37,268,129.49,275.3,131.3Z"/><path class="cls-33" d="M294.89,210.64c2-.09,4.31-1.82,6.4-3.78,3.19-3,5.9-6.81,8.74-10.68,2.72-3.71,5.31-7.66,7.87-11.61,3.37-5.21,7.6-12.4,8.6-14,2.06-3.3,5.72-9.37,7.62-12.85,2-3.75,5.32-9.53,6-13.53a2.91,2.91,0,0,0-3-3.63c-2.38.45-8.16,7-10.27,10-6.3,8.74-13.59,17.75-22.84,31-1.71,2.44-8.6,12.28-10.08,15C290.7,202.44,288.73,210.92,294.89,210.64Z"/><path class="cls-33" d="M282.89,243.57c-.27-9.49-9.78-19.58-9.82-36.09,0-13.91,9-34.56,8.59-42.73-.38-7.62-4.88-23-5.46-24.94-.28-1,4.93-5.17,2.31-6.63-.57-.32-3.14-2.51-5.51-3s-5.68-.8-8.31-1.8a30.7,30.7,0,0,0-10.93-2c-3.32-.17-4.33.27-8,.34,0-.13,0-.25,0-.38a60.15,60.15,0,0,1-6.44.66c-5.51-.1-7.62,2-10.19,2.49a72.28,72.28,0,0,0-9.54,3.2c-2.82,1.43,4.73,5.74,4.42,6.68-.62,1.95-5.48,16.92-5.89,24.35-.44,8,9.29,28.14,9.26,41.72,0,16.12-10.28,26-10.58,35.23,0,1.25-1.47,19-1.07,20s2.07,2.49,3.86,3.22l1.54-.68a11.73,11.73,0,0,0,.07,2.17c.41,1.16,1.36-1,3.06-.29l5.07.91c0,.06,5.6.5,5.9.56.86.24,6.73,1.2,6.87,1.26,2.19.84,8.18-.08,13.76.78,5.45-.86,7.14.06,9.28-.78.14-.06,5.88-1,6.72-1.26.29-.07,5.78-.5,5.78-.56l2.68,1.3a7,7,0,0,0,3.58-3.3C284.25,263,282.93,244.85,282.89,243.57Z"/><path class="cls-34" d="M238.18,119.92s2.6,4.94,0,8.57c-.48.67,12.88,5.16,17.65.46,0,0-2.35-4.64.22-9Z"/><path class="cls-35" d="M246,123.8h7.81a6.74,6.74,0,0,1,1.06.11,8.77,8.77,0,0,1,1.19-4H238.18s2.6,4.94,0,8.57c-.09.13.31.39,1.06.7A7.12,7.12,0,0,1,246,123.8Z"/><path class="cls-33" d="M227.35,84.61a19.76,19.76,0,1,1,39.5-.38,20.45,20.45,0,0,1-.68,5.36c0,.44,0,.88,0,1.35a62.36,62.36,0,0,1-.71,12c-1.32,7.71-4.88,14.9-11.72,19.35a14.35,14.35,0,0,1-7.64,2.62c-3.68,0-7.08-2-9.66-4.59-8.53-8.42-9.39-21.2-8.91-33.27A20.55,20.55,0,0,1,227.35,84.61Z"/><path class="cls-34" d="M248.44,122.53c-9.59-3.51-14-13.31-14.12-23-.08-5.37,1.46-10.6,1.65-15.94.13-3.79-.27-7.53,1.48-11,3.75-7.5,11.66-6.05,18.64-5.72.23,0,.45,0,.67.07a19.36,19.36,0,0,0-9.86-2.59,19.94,19.94,0,0,0-19.56,20.31,20.55,20.55,0,0,0,.18,2.45c-.48,12.07.37,24.84,8.91,33.27,2.58,2.55,6,4.59,9.66,4.59a12.79,12.79,0,0,0,5.7-1.51A19.05,19.05,0,0,1,248.44,122.53Z"/><path class="cls-31" d="M229.37,148.41l-.86-19.48a6.1,6.1,0,0,1-2.73-5.5c.16-7.09,1.45-14,1.93-21.11A55.67,55.67,0,0,0,227,91c0,.14,0,.28,0,.43-.3,6.26-.4,12.72-1.73,18.48a38.89,38.89,0,0,0-1.27,6.4,29.88,29.88,0,0,0,.23,4.95l3.31,32.1a20.8,20.8,0,0,0,.94,5.08c1.31,3.42,3.94,3.4,5.92,5.3a19.71,19.71,0,0,1-4.21-7.66A38.58,38.58,0,0,1,229.37,148.41Z"/><path class="cls-31" d="M269.2,130c0,.34,0,.68,0,1a37,37,0,0,1-.83,6.56,195.75,195.75,0,0,0-2.67,21c1.94-8.56,3.9-17.24,4.62-26.47.18-2.3.29-4.63.55-6.9Q270.15,127.63,269.2,130Z"/><path class="cls-19" d="M278.6,182.91c-1.6,2.15-4.88,5.93-8.85,6.74-5.62,1.13-9.77.43-15.7-1.83.21.32,3.75,5.34,12.66,5.34a14.61,14.61,0,0,0,9-3.42c-1,10.16-3.81,21.28-1,28.08,0,0-20.73,13.5-49.55.9,0,0,3.5-16.79-2.45-31.65a18.8,18.8,0,0,0,11.81,4.08c.9,0,1.68,0,2.37-.11a10,10,0,0,0,3.17-.79c1.28-.61,1.46-1.28,1.46-1.28-8.49,2.33-13.59-2.74-14.09-3.28l0,0h0a2.72,2.72,0,0,1-.33-.23l-.14-.11c-.72-.63-2.1-2.21-3.32-5.71-.32-.92-.63-2-.92-3.21a15.63,15.63,0,0,1-.69-3.63,23.45,23.45,0,0,1,0-4.05,2.68,2.68,0,0,1,0-.34c0-.06,0-.11,0-.17a20.06,20.06,0,0,1,.5-3.23c0-.15.07-.32.11-.48l0-.18c.19-1,.44-1.94.7-2.88.17-.58.32-1.17.47-1.75a94.42,94.42,0,0,0,1.94-9.62c0-.14,0-.26.07-.4s.06-.41.08-.62a146.72,146.72,0,0,0,1.27-18.86l-2.48.77c1.43,3.12,1,8.62,0,14.14a4,4,0,0,0-.37.33c1.13-5.64,1.65-11.36.17-14.53,0,0,7.38-2.26,8.85-2.62,0,0,6.36,33,16.41,33.61s20.39-27.34,19.64-32.38c0,0,7.66,1.86,9.47,3.85,0,0-.5,20.32,2.08,32C281,165.28,284.17,170.61,278.6,182.91Z"/><path class="cls-36" d="M228.27,220q-.71-5.47-1.24-11c-.57-5.85.69-12.78-2.05-18.14-.37-.16-.75-.3-1.12-.48,4.26,13.92,1.27,28.3,1.27,28.3C226.19,219.18,227.24,219.59,228.27,220Z"/><path class="cls-36" d="M241.49,189s-.18.68-1.46,1.28a10,10,0,0,1-3.17.79c-.69.07-1.48.11-2.37.11a18.8,18.8,0,0,1-11.81-4.08c-.34-.88-.73-1.76-1.16-2.63-7.53-15.44-1.61-23.1-1.61-23.1a126.62,126.62,0,0,0,4.47-15.92,4,4,0,0,1,.37-.33c1-5.53,1.41-11,0-14.14l2.48-.77A146.72,146.72,0,0,1,225.93,149c0,.21-.06.4-.08.62s0,.26-.07.4a94.42,94.42,0,0,1-1.94,9.62c-.15.58-.3,1.17-.47,1.75-.26.94-.51,1.9-.7,2.88l0,.18c0,.17-.08.33-.11.48a20.06,20.06,0,0,0-.5,3.23c0,.06,0,.11,0,.17a2.68,2.68,0,0,0,0,.34,23.45,23.45,0,0,0,0,4.05,15.63,15.63,0,0,0,.69,3.63c.29,1.23.61,2.29.92,3.21,1.23,3.5,2.61,5.07,3.32,5.71l.14.11a2.72,2.72,0,0,0,.33.23h0l0,0C227.9,186.22,233,191.29,241.49,189Z"/><path class="cls-23" d="M221.93,172.73a23.45,23.45,0,0,1,0-4.05C221.9,169.77,221.89,171.05,221.93,172.73Z"/><path class="cls-23" d="M222.62,176.36a15.63,15.63,0,0,1-.69-3.63C222.13,174.07,222.37,175.27,222.62,176.36Z"/><path class="cls-36" d="M278.6,182.91c-.12.28-.25.55-.39.84q-1.43,3-2.51,6a14.61,14.61,0,0,1-9,3.42c-8.91,0-12.45-5-12.66-5.34,5.93,2.26,10.08,3,15.7,1.83C273.72,188.84,277,185.06,278.6,182.91Z"/><path class="cls-31" d="M240.46,96.54c-2.77,3.35-6.2,6.05-10.15,7.1a6.46,6.46,0,0,1-5.34-.51c-2.16-1.48-3-4.58-3.56-7.36a17,17,0,0,1-.55-5.86,15.45,15.45,0,0,1,1.57-4.34c1.52-3.16,3-6.29,4.58-9.44,0,.45,0,.92,0,1.39a13.57,13.57,0,0,0-1.67,3.86,13,13,0,0,0-3,13.85,9.36,9.36,0,0,0,.54,1.2h0c1.52,2.78,4.59,4.63,7.93,3.61A92.49,92.49,0,0,0,240.46,96.54Z"/><path class="cls-37" d="M240.66,92.29a29.72,29.72,0,0,1-4.25,3.76C238.44,94.41,240.08,92.85,240.66,92.29Z"/><path class="cls-31" d="M272.29,98a5.29,5.29,0,0,1-5.16,1.66c-2.19-.47-4.12-2-5.94-3.49-2-1.68-3.9-3.45-5.76-5.32s-3.63-4.77-5.65-6.19c-1-.7-1.7-.52-2.22.08,1.27,1.53,2.51,3.17,3.75,4.4,2.33,2.32,4.76,4.52,7.25,6.59,2.29,1.9,4.74,3.74,7.54,4.27a7.06,7.06,0,0,0,6.23-1.77C272.31,98.17,272.3,98.09,272.29,98Z"/><path class="cls-38" d="M244.86,114c.8.31,3-.88,4.1-.8s.93-.19,1.71-.33,2.66.06,3.89-.61a7.9,7.9,0,0,1-2.29,3.46,4.55,4.55,0,0,1-4.11.72A7.08,7.08,0,0,1,244.86,114Z"/><path class="cls-38" d="M243.94,113.63l.13,0,.37.13c.31.12.75.29,1.29.45a8.07,8.07,0,0,0,.88.2,8.26,8.26,0,0,0,1,.11,7.11,7.11,0,0,0,1.07,0,9.06,9.06,0,0,0,1.1-.18,11.68,11.68,0,0,0,3.84-1.42c.23-.15.45-.3.63-.44a5,5,0,0,0,.45-.39l.27-.27.09-.1-.08.11a3.58,3.58,0,0,1-.23.31,5.21,5.21,0,0,1-.41.45,5,5,0,0,1-.6.51,8.07,8.07,0,0,1-1.72,1,12,12,0,0,1-2.17.66,9.63,9.63,0,0,1-1.14.17,6.54,6.54,0,0,1-1.12,0,6.18,6.18,0,0,1-1-.17,8.6,8.6,0,0,1-.89-.27,10,10,0,0,1-1.26-.59l-.34-.18Z"/><path class="cls-12" d="M245.33,114.2a11.78,11.78,0,0,0,8.71-1.57,6,6,0,0,1-4.45,2.75A5.8,5.8,0,0,1,245.33,114.2Z"/><path class="cls-39" d="M256,97.46a1.32,1.32,0,0,0-.31.69c-.13.9-.3,2.51.7,3,1.19.59,1.75-1,1.79-1.9a2.57,2.57,0,0,0-.45-1.7A1.09,1.09,0,0,0,256,97.46Z"/><path class="cls-39" d="M241.74,97.46a1.32,1.32,0,0,1,.31.69c.13.9.3,2.51-.7,3-1.19.59-1.75-1-1.79-1.9a2.57,2.57,0,0,1,.45-1.7A1.09,1.09,0,0,1,241.74,97.46Z"/><path class="cls-40" d="M252.92,90.91c1.63-.36,4.3-1.1,7.13,1.36,1.28,1.11,1,1.64-.38.6-2.41-1.77-4-1.18-6.59-.68C252.09,92.39,251.82,91.16,252.92,90.91Z"/><path class="cls-40" d="M244,90.91c-1.63-.36-4.3-1.1-7.13,1.36-1.28,1.11-1,1.64.38.6,2.41-1.77,4-1.18,6.59-.68C244.85,92.39,245.12,91.16,244,90.91Z"/><path class="cls-32" d="M241.26,95.53c-2.9,3.81-6.62,7-10.95,8.12a6.43,6.43,0,0,1-5.34-.52c-2.17-1.47-3-4.57-3.56-7.36a16.68,16.68,0,0,1-.55-5.86,15.14,15.14,0,0,1,1.57-4.34L227.54,75c1.4-2.89,2.83-5.82,5-8s5.1-3.61,8-2.83c1.31.36,2.63-.29,3.89-.76.63-.23,1.17.68,1.71.24,4.14-3.47,10.37-2.07,14.51,1.73s6.62,9.46,8.71,15q1.69,4.48,3.16,9.06c.81,2.5,1.54,5.37.46,7.65a5.1,5.1,0,0,1-5.75,2.55c-2.19-.46-4.13-2-5.95-3.49q-3-2.51-5.76-5.32c-1.82-1.83-3.63-4.77-5.65-6.2-2.39-1.68-3,1.71-4.11,3.77A51.06,51.06,0,0,1,241.26,95.53Z"/><path class="cls-41" d="M248.75,108.53c1.69.35,2.39-.68,2.4-1.55C251.58,108.58,250.42,109.44,248.75,108.53Z"/><rect class="cls-42" x="10.36" y="212.28" width="317.64" height="58.72" rx="17.67" ry="17.67"/><path class="cls-12" d="M46,236.67a1.19,1.19,0,0,1,.31.88v.33a1.07,1.07,0,0,1-1.18,1.18h-.26a1.07,1.07,0,0,1-1.18-1.18v-.33a1.07,1.07,0,0,1,1.18-1.18h.26A1.19,1.19,0,0,1,46,236.67Zm-.29,4.8.57,7.25a1.35,1.35,0,0,1-.33,1,1.21,1.21,0,0,1-1,.41,1.24,1.24,0,0,1-1-.41,1.28,1.28,0,0,1-.32-1l.55-7.25q.06-.75.71-.75T45.75,241.47Z"/><path class="cls-12" d="M60.16,239.92a1.18,1.18,0,0,1,.34.86V245a1.18,1.18,0,0,1-.61,1.06,7.86,7.86,0,0,1-4.24,1.2,7.09,7.09,0,0,1-3.61-1,7.16,7.16,0,0,1-2.62-2.58,7,7,0,0,1,0-7.12A7.16,7.16,0,0,1,52,234a7.09,7.09,0,0,1,3.61-1,7,7,0,0,1,3.39.79,1.07,1.07,0,0,1,.59,1,1.25,1.25,0,0,1-.33.86,1,1,0,0,1-.8.37,1.61,1.61,0,0,1-.65-.16,5.59,5.59,0,0,0-2.21-.45,4.43,4.43,0,0,0-2.33.64,4.77,4.77,0,0,0,0,8.18,4.43,4.43,0,0,0,2.33.64,7.71,7.71,0,0,0,1.18-.1,6.92,6.92,0,0,0,1.1-.26v-2.56H56.08a1.18,1.18,0,0,1-.86-.33,1.21,1.21,0,0,1,0-1.7,1.18,1.18,0,0,1,.86-.33h3.23A1.13,1.13,0,0,1,60.16,239.92Z"/><path class="cls-12" d="M74.09,245.51a1.05,1.05,0,0,1,.15.53,1,1,0,0,1-.24.65,1.11,1.11,0,0,1-.91.35,1.77,1.77,0,0,1-.87-.22q-1.42-.81-1.42-3.29a1.43,1.43,0,0,0-.46-1.12A1.94,1.94,0,0,0,69,242H65.33v3.82a1.29,1.29,0,0,1-.29.87,1,1,0,0,1-.76.33,1.53,1.53,0,0,1-1-.34,1.06,1.06,0,0,1-.42-.86V234.44a1.18,1.18,0,0,1,1.2-1.2h5.68a3.65,3.65,0,0,1,1.93.55,4.08,4.08,0,0,1,1.45,1.52,4.35,4.35,0,0,1,.54,2.17,3.85,3.85,0,0,1-.53,1.92,4.25,4.25,0,0,1-1.38,1.49,3,3,0,0,1,1.36,2.33,3.31,3.31,0,0,1,.06.61,6.19,6.19,0,0,0,.16.88.65.65,0,0,0,.35.4A1.17,1.17,0,0,1,74.09,245.51Zm-3.75-5.87a2.54,2.54,0,0,0,.55-.9,3.34,3.34,0,0,0,.22-1.21,2.37,2.37,0,0,0-.22-1,2.09,2.09,0,0,0-.55-.74,1.08,1.08,0,0,0-.69-.28H65.33V240h4.32A1,1,0,0,0,70.33,239.64Z"/><path class="cls-12" d="M87.32,246a1.12,1.12,0,0,1-.34.84,1.07,1.07,0,0,1-.77.33,1,1,0,0,1-.64-.22,1.41,1.41,0,0,1-.44-.59l-1-2.38H78.24l-1,2.41a1.22,1.22,0,0,1-.42.58,1,1,0,0,1-.62.21.94.94,0,0,1-1-1,1.3,1.3,0,0,1,.06-.37l4.91-11.79a1.3,1.3,0,0,1,.47-.61,1,1,0,0,1,.71-.18,1.16,1.16,0,0,1,.66.21,1.17,1.17,0,0,1,.44.58l4.85,11.55A1.33,1.33,0,0,1,87.32,246Zm-8.12-4.3h3.94l-2-4.61Z"/><path class="cls-12" d="M99.17,234.91a1.33,1.33,0,0,1-.3.81,1,1,0,0,1-.81.41,1.42,1.42,0,0,1-.67-.18,4.86,4.86,0,0,0-2.09-.45,4.79,4.79,0,0,0-2.4.58,3.94,3.94,0,0,0-1.58,1.64,5.13,5.13,0,0,0-.55,2.42A4.67,4.67,0,0,0,92,243.66a5.07,5.07,0,0,0,5.37.75,1.58,1.58,0,0,1,.63-.16,1.08,1.08,0,0,1,.87.43,1.28,1.28,0,0,1,.3.81,1.07,1.07,0,0,1-.16.57,1,1,0,0,1-.45.39,7.23,7.23,0,0,1-3.27.77,7.73,7.73,0,0,1-3.55-.82A6.29,6.29,0,0,1,89.18,244a7.33,7.33,0,0,1-1-3.86,7.11,7.11,0,0,1,.92-3.61A6.51,6.51,0,0,1,91.66,234a7.39,7.39,0,0,1,3.65-.9,7,7,0,0,1,3.25.77A1.05,1.05,0,0,1,99.17,234.91Z"/><path class="cls-12" d="M103.35,246.69a1.24,1.24,0,0,1-.87.34,1.19,1.19,0,0,1-.88-.34,1.16,1.16,0,0,1-.35-.86V234.44a1.15,1.15,0,0,1,.35-.86,1.25,1.25,0,0,1,.91-.34,1.18,1.18,0,0,1,.85.34,1.15,1.15,0,0,1,.35.86v11.39A1.12,1.12,0,0,1,103.35,246.69Z"/><path class="cls-12" d="M117.6,246a1.12,1.12,0,0,1-.34.84,1.07,1.07,0,0,1-.77.33,1,1,0,0,1-.64-.22,1.41,1.41,0,0,1-.44-.59l-1-2.38h-5.87l-1,2.41a1.22,1.22,0,0,1-.42.58,1,1,0,0,1-.62.21.94.94,0,0,1-1-1,1.3,1.3,0,0,1,.06-.37l4.91-11.79a1.3,1.3,0,0,1,.47-.61,1,1,0,0,1,.71-.18,1.16,1.16,0,0,1,.66.21,1.17,1.17,0,0,1,.44.58l4.85,11.55A1.33,1.33,0,0,1,117.6,246Zm-8.12-4.3h3.94l-2-4.61Z"/><path class="cls-12" d="M121.18,246.87a5.84,5.84,0,0,1-2.07-1.2,1.38,1.38,0,0,1-.53-1,1.11,1.11,0,0,1,.33-.8,1.09,1.09,0,0,1,.81-.34,1,1,0,0,1,.67.24,5.8,5.8,0,0,0,1.54.95,4.82,4.82,0,0,0,1.77.3,3.54,3.54,0,0,0,1.9-.49,1.43,1.43,0,0,0,.8-1.22,1.57,1.57,0,0,0-.79-1.39,6.69,6.69,0,0,0-2.5-.76q-4.32-.63-4.32-4a3.63,3.63,0,0,1,.65-2.16,4.11,4.11,0,0,1,1.77-1.4,6.29,6.29,0,0,1,2.5-.48,7.18,7.18,0,0,1,2.34.37,5.7,5.7,0,0,1,1.82,1,1.32,1.32,0,0,1,.57,1,1.11,1.11,0,0,1-.33.8,1.07,1.07,0,0,1-.79.34.86.86,0,0,1-.53-.18,5.25,5.25,0,0,0-1.43-.76,4.75,4.75,0,0,0-1.65-.34,3.39,3.39,0,0,0-1.92.46,1.47,1.47,0,0,0,0,2.49,6.6,6.6,0,0,0,2.2.71,11.42,11.42,0,0,1,2.71.76,3.46,3.46,0,0,1,1.53,1.26,3.88,3.88,0,0,1,.51,2.12,3.54,3.54,0,0,1-.7,2.18,4.5,4.5,0,0,1-1.86,1.44,6.25,6.25,0,0,1-2.5.5A8.24,8.24,0,0,1,121.18,246.87Z"/><path class="cls-12" d="M144.17,233.83a4.46,4.46,0,0,1,1.46,1.62,4.71,4.71,0,0,1,0,4.42,4.43,4.43,0,0,1-1.46,1.63,3.41,3.41,0,0,1-1.91.6h-3.43v3.73a1.22,1.22,0,0,1-.32.87,1.08,1.08,0,0,1-.83.33,1,1,0,0,1-.81-.34,1.22,1.22,0,0,1-.32-.86V234.44a1.18,1.18,0,0,1,1.2-1.2h4.49A3.41,3.41,0,0,1,144.17,233.83ZM143,239.54a2.32,2.32,0,0,0,.59-.82,2.57,2.57,0,0,0,0-2.11,2.22,2.22,0,0,0-.59-.81,1.15,1.15,0,0,0-.74-.31h-3.43v4.36h3.43A1.13,1.13,0,0,0,143,239.54Z"/><path class="cls-12" d="M160.27,243.71a6.64,6.64,0,0,1-2.39,2.57,6.72,6.72,0,0,1-6.88,0,6.57,6.57,0,0,1-2.38-2.57,7.89,7.89,0,0,1,0-7.15A6.56,6.56,0,0,1,151,234a6.72,6.72,0,0,1,6.88,0,6.64,6.64,0,0,1,2.39,2.57,7.81,7.81,0,0,1,0,7.15Zm-2.23-6a4.29,4.29,0,0,0-1.48-1.71,3.95,3.95,0,0,0-4.27,0,4.16,4.16,0,0,0-1.46,1.7,5.8,5.8,0,0,0,0,4.81,4.17,4.17,0,0,0,1.46,1.71,3.95,3.95,0,0,0,4.27,0,4.3,4.3,0,0,0,1.48-1.71,5.65,5.65,0,0,0,0-4.79Z"/><path class="cls-12" d="M174.63,245.51a1.05,1.05,0,0,1,.15.53,1,1,0,0,1-.24.65,1.11,1.11,0,0,1-.91.35,1.77,1.77,0,0,1-.87-.22q-1.42-.81-1.42-3.29a1.43,1.43,0,0,0-.46-1.12,1.94,1.94,0,0,0-1.33-.41h-3.69v3.82a1.29,1.29,0,0,1-.29.87,1,1,0,0,1-.76.33,1.53,1.53,0,0,1-1-.34,1.06,1.06,0,0,1-.42-.86V234.44a1.18,1.18,0,0,1,1.2-1.2h5.68a3.65,3.65,0,0,1,1.93.55,4.08,4.08,0,0,1,1.45,1.52,4.35,4.35,0,0,1,.54,2.17,3.85,3.85,0,0,1-.53,1.92,4.25,4.25,0,0,1-1.38,1.49,3,3,0,0,1,1.36,2.33,3.31,3.31,0,0,1,.06.61,6.19,6.19,0,0,0,.16.88.65.65,0,0,0,.35.4A1.17,1.17,0,0,1,174.63,245.51Zm-3.75-5.87a2.54,2.54,0,0,0,.55-.9,3.34,3.34,0,0,0,.22-1.21,2.37,2.37,0,0,0-.22-1,2.09,2.09,0,0,0-.55-.74,1.08,1.08,0,0,0-.69-.28h-4.32V240h4.32A1,1,0,0,0,170.87,239.64Z"/><path class="cls-12" d="M190.07,233.83a4.46,4.46,0,0,1,1.46,1.62,4.71,4.71,0,0,1,0,4.42,4.43,4.43,0,0,1-1.46,1.63,3.41,3.41,0,0,1-1.91.6h-3.43v3.73a1.22,1.22,0,0,1-.32.87,1.08,1.08,0,0,1-.83.33,1,1,0,0,1-.81-.34,1.22,1.22,0,0,1-.32-.86V234.44a1.18,1.18,0,0,1,1.2-1.2h4.49A3.41,3.41,0,0,1,190.07,233.83Zm-1.17,5.71a2.32,2.32,0,0,0,.59-.82,2.57,2.57,0,0,0,0-2.11,2.22,2.22,0,0,0-.59-.81,1.15,1.15,0,0,0-.74-.31h-3.43v4.36h3.43A1.13,1.13,0,0,0,188.9,239.54Z"/><path class="cls-12" d="M204.48,246a1.12,1.12,0,0,1-.34.84,1.07,1.07,0,0,1-.77.33,1,1,0,0,1-.64-.22,1.41,1.41,0,0,1-.44-.59l-1-2.38h-5.87l-1,2.41a1.22,1.22,0,0,1-.42.58,1,1,0,0,1-.62.21.94.94,0,0,1-1-1,1.3,1.3,0,0,1,.06-.37l4.91-11.79a1.3,1.3,0,0,1,.47-.61,1,1,0,0,1,.71-.18,1.16,1.16,0,0,1,.66.21,1.17,1.17,0,0,1,.44.58l4.85,11.55A1.33,1.33,0,0,1,204.48,246Zm-8.12-4.3h3.94l-2-4.61Z"/><path class="cls-12" d="M217.38,245.51a1.05,1.05,0,0,1,.15.53,1,1,0,0,1-.24.65,1.11,1.11,0,0,1-.91.35,1.77,1.77,0,0,1-.87-.22q-1.42-.81-1.42-3.29a1.43,1.43,0,0,0-.46-1.12,1.94,1.94,0,0,0-1.33-.41h-3.69v3.82a1.29,1.29,0,0,1-.29.87,1,1,0,0,1-.76.33,1.53,1.53,0,0,1-1-.34,1.06,1.06,0,0,1-.42-.86V234.44a1.18,1.18,0,0,1,1.2-1.2H213a3.65,3.65,0,0,1,1.93.55,4.08,4.08,0,0,1,1.45,1.52,4.35,4.35,0,0,1,.54,2.17,3.85,3.85,0,0,1-.53,1.92,4.25,4.25,0,0,1-1.38,1.49,3,3,0,0,1,1.36,2.33,3.31,3.31,0,0,1,.06.61,6.19,6.19,0,0,0,.16.88.65.65,0,0,0,.35.4A1.17,1.17,0,0,1,217.38,245.51Zm-3.75-5.87a2.54,2.54,0,0,0,.55-.9,3.34,3.34,0,0,0,.22-1.21,2.37,2.37,0,0,0-.22-1,2.09,2.09,0,0,0-.55-.74,1.08,1.08,0,0,0-.69-.28h-4.32V240h4.32A1,1,0,0,0,213.62,239.64Z"/><path class="cls-12" d="M229.33,233.55a1.08,1.08,0,0,1,.34.83,1.05,1.05,0,0,1-.34.82,1.24,1.24,0,0,1-.87.31h-3.09v10.33a1.12,1.12,0,0,1-.37.86,1.32,1.32,0,0,1-.93.34,1.25,1.25,0,0,1-.91-.34,1.15,1.15,0,0,1-.35-.86V235.5h-3.09a1.22,1.22,0,0,1-.87-.32,1.08,1.08,0,0,1-.33-.83,1,1,0,0,1,.34-.81,1.22,1.22,0,0,1,.86-.32h8.75A1.22,1.22,0,0,1,229.33,233.55Z"/><path class="cls-12" d="M233.83,246.69a1.24,1.24,0,0,1-.87.34,1.19,1.19,0,0,1-.88-.34,1.16,1.16,0,0,1-.35-.86V234.44a1.15,1.15,0,0,1,.35-.86,1.25,1.25,0,0,1,.91-.34,1.18,1.18,0,0,1,.85.34,1.15,1.15,0,0,1,.35.86v11.39A1.12,1.12,0,0,1,233.83,246.69Z"/><path class="cls-12" d="M247.43,234.91a1.33,1.33,0,0,1-.3.81,1,1,0,0,1-.81.41,1.42,1.42,0,0,1-.67-.18,4.86,4.86,0,0,0-2.09-.45,4.79,4.79,0,0,0-2.4.58,3.94,3.94,0,0,0-1.58,1.64,5.13,5.13,0,0,0-.55,2.42,4.67,4.67,0,0,0,1.25,3.53,5.07,5.07,0,0,0,5.37.75,1.58,1.58,0,0,1,.63-.16,1.08,1.08,0,0,1,.87.43,1.28,1.28,0,0,1,.3.81,1.07,1.07,0,0,1-.16.57,1,1,0,0,1-.45.39,7.23,7.23,0,0,1-3.27.77,7.73,7.73,0,0,1-3.55-.82,6.29,6.29,0,0,1-2.58-2.41,7.33,7.33,0,0,1-1-3.86,7.11,7.11,0,0,1,.92-3.61,6.51,6.51,0,0,1,2.53-2.49,7.39,7.39,0,0,1,3.65-.9,7,7,0,0,1,3.25.77A1.05,1.05,0,0,1,247.43,234.91Z"/><path class="cls-12" d="M251.61,246.69a1.24,1.24,0,0,1-.87.34,1.19,1.19,0,0,1-.88-.34,1.16,1.16,0,0,1-.35-.86V234.44a1.15,1.15,0,0,1,.35-.86,1.25,1.25,0,0,1,.91-.34,1.18,1.18,0,0,1,.85.34,1.15,1.15,0,0,1,.35.86v11.39A1.12,1.12,0,0,1,251.61,246.69Z"/><path class="cls-12" d="M262.55,233.83a4.46,4.46,0,0,1,1.46,1.62,4.71,4.71,0,0,1,0,4.42,4.43,4.43,0,0,1-1.46,1.63,3.41,3.41,0,0,1-1.91.6H257.2v3.73a1.22,1.22,0,0,1-.32.87,1.08,1.08,0,0,1-.83.33,1,1,0,0,1-.81-.34,1.22,1.22,0,0,1-.32-.86V234.44a1.18,1.18,0,0,1,1.2-1.2h4.49A3.41,3.41,0,0,1,262.55,233.83Zm-1.17,5.71a2.32,2.32,0,0,0,.59-.82,2.57,2.57,0,0,0,0-2.11,2.22,2.22,0,0,0-.59-.81,1.15,1.15,0,0,0-.74-.31H257.2v4.36h3.43A1.13,1.13,0,0,0,261.37,239.54Z"/><path class="cls-12" d="M277,246a1.12,1.12,0,0,1-.34.84,1.07,1.07,0,0,1-.77.33,1,1,0,0,1-.64-.22,1.41,1.41,0,0,1-.44-.59l-1-2.38h-5.87l-1,2.41a1.22,1.22,0,0,1-.42.58,1,1,0,0,1-.62.21.94.94,0,0,1-1-1,1.3,1.3,0,0,1,.06-.37l4.91-11.79a1.3,1.3,0,0,1,.47-.61,1,1,0,0,1,.71-.18,1.16,1.16,0,0,1,.66.21,1.17,1.17,0,0,1,.44.58l4.85,11.55A1.33,1.33,0,0,1,277,246Zm-8.12-4.3h3.94l-2-4.61Z"/><path class="cls-12" d="M289.85,245.51a1.05,1.05,0,0,1,.15.53,1,1,0,0,1-.24.65,1.12,1.12,0,0,1-.91.35,1.77,1.77,0,0,1-.87-.22q-1.42-.81-1.42-3.29a1.43,1.43,0,0,0-.46-1.12,1.94,1.94,0,0,0-1.33-.41h-3.69v3.82a1.29,1.29,0,0,1-.29.87,1,1,0,0,1-.76.33,1.53,1.53,0,0,1-1-.34,1.06,1.06,0,0,1-.42-.86V234.44a1.18,1.18,0,0,1,1.2-1.2h5.68a3.65,3.65,0,0,1,1.93.55,4.08,4.08,0,0,1,1.45,1.52,4.35,4.35,0,0,1,.54,2.17,3.84,3.84,0,0,1-.53,1.92,4.26,4.26,0,0,1-1.38,1.49,3,3,0,0,1,1.36,2.33,3.27,3.27,0,0,1,.06.61,6.13,6.13,0,0,0,.16.88.65.65,0,0,0,.36.4A1.17,1.17,0,0,1,289.85,245.51Zm-3.75-5.87a2.55,2.55,0,0,0,.55-.9,3.34,3.34,0,0,0,.22-1.21,2.37,2.37,0,0,0-.22-1,2.1,2.1,0,0,0-.55-.74,1.08,1.08,0,0,0-.69-.28h-4.32V240h4.32A1,1,0,0,0,286.1,239.64Z"/><path class="cls-12" d="M292.32,246.72a1.19,1.19,0,0,1-.3-.88v-.33a1.07,1.07,0,0,1,1.18-1.18h.26a1.07,1.07,0,0,1,1.18,1.18v.33a1.07,1.07,0,0,1-1.18,1.18h-.26A1.19,1.19,0,0,1,292.32,246.72Zm.29-4.8-.57-7.25a1.35,1.35,0,0,1,.33-1,1.21,1.21,0,0,1,1-.41,1.24,1.24,0,0,1,1,.41,1.28,1.28,0,0,1,.32,1l-.55,7.25q-.06.75-.71.75T292.6,241.93Z"/></g></g></svg>