<svg id="Layer_1" data-name="Layer 1" xmlns="http://www.w3.org/2000/svg" viewBox="0 0 165 30.5"><defs><style>.cls-1{fill:#4ca2ae;}.cls-2{fill:#fff;}</style></defs><title>guardartexto</title><rect class="cls-1" width="165" height="30.5" rx="14.53" ry="14.53"/><path class="cls-2" d="M46.75,14.36a.61.61,0,0,1,.18.44V17a.62.62,0,0,1-.32.55,4.1,4.1,0,0,1-2.2.62,3.75,3.75,0,0,1-3.24-1.84,3.65,3.65,0,0,1,0-3.7,3.75,3.75,0,0,1,3.24-1.84,3.61,3.61,0,0,1,1.76.41.55.55,0,0,1,.31.5.65.65,0,0,1-.17.44.54.54,0,0,1-.42.19.84.84,0,0,1-.34-.08A2.9,2.9,0,0,0,44.41,12a2.31,2.31,0,0,0-1.21.33,2.48,2.48,0,0,0,0,4.25,2.31,2.31,0,0,0,1.21.33,4,4,0,0,0,.61-.05,3.58,3.58,0,0,0,.57-.13V15.41h-1a.61.61,0,0,1-.44-.17.63.63,0,0,1,0-.88.61.61,0,0,1,.44-.17h1.68A.59.59,0,0,1,46.75,14.36Z"/><path class="cls-2" d="M53.68,11a.64.64,0,0,1,.16.45v3.71a3.09,3.09,0,0,1-.36,1.5,2.58,2.58,0,0,1-1,1A2.92,2.92,0,0,1,51,18.1a3,3,0,0,1-1.48-.37,2.57,2.57,0,0,1-1-1,3.07,3.07,0,0,1-.36-1.5V11.5a.6.6,0,0,1,.18-.45.65.65,0,0,1,.47-.18.62.62,0,0,1,.61.62v3.71a1.74,1.74,0,0,0,.22.87,1.49,1.49,0,0,0,.58.59,1.56,1.56,0,0,0,.78.21,1.72,1.72,0,0,0,.82-.21,1.55,1.55,0,0,0,.61-.59,1.65,1.65,0,0,0,.23-.87V11.5a.66.66,0,0,1,.15-.45.53.53,0,0,1,.42-.17A.57.57,0,0,1,53.68,11Z"/><path class="cls-2" d="M60.94,17.5a.58.58,0,0,1-.18.44.56.56,0,0,1-.4.17A.53.53,0,0,1,60,18a.74.74,0,0,1-.23-.31l-.53-1.24H56.22l-.53,1.25a.64.64,0,0,1-.22.3.52.52,0,0,1-.86-.43.63.63,0,0,1,0-.19l2.55-6.12a.67.67,0,0,1,.25-.32.53.53,0,0,1,.37-.09.6.6,0,0,1,.57.41l2.52,6A.68.68,0,0,1,60.94,17.5Zm-4.22-2.23h2l-1-2.4Z"/><path class="cls-2" d="M67.64,17.26a.56.56,0,0,1,.08.28.52.52,0,0,1-.12.34.58.58,0,0,1-.47.18.91.91,0,0,1-.45-.11,1.8,1.8,0,0,1-.74-1.71.74.74,0,0,0-.24-.58,1,1,0,0,0-.69-.21H63.09v2a.67.67,0,0,1-.15.45.49.49,0,0,1-.39.17.8.8,0,0,1-.52-.18.56.56,0,0,1-.22-.45V11.51a.61.61,0,0,1,.62-.62h2.95a1.91,1.91,0,0,1,1,.29,2.12,2.12,0,0,1,.75.79,2.26,2.26,0,0,1,.28,1.13,2,2,0,0,1-.28,1,2.22,2.22,0,0,1-.72.77,1.57,1.57,0,0,1,.71,1.21,1.77,1.77,0,0,1,0,.32,3.28,3.28,0,0,0,.08.45.33.33,0,0,0,.18.21A.62.62,0,0,1,67.64,17.26Zm-2-3a1.3,1.3,0,0,0,.29-.47,1.7,1.7,0,0,0,.11-.63,1.22,1.22,0,0,0-.11-.53,1.06,1.06,0,0,0-.29-.38.55.55,0,0,0-.36-.14H63.09v2.32h2.24A.51.51,0,0,0,65.69,14.21Z"/><path class="cls-2" d="M73.57,11.36a3,3,0,0,1,1.05,1.29,4.71,4.71,0,0,1,0,3.63,3,3,0,0,1-1.05,1.29,2.84,2.84,0,0,1-1.65.48H69.47a.61.61,0,0,1-.62-.62V11.51a.61.61,0,0,1,.62-.62h2.45A2.84,2.84,0,0,1,73.57,11.36ZM73.2,16.2a3,3,0,0,0,.46-1.73,3,3,0,0,0-.47-1.72,1.56,1.56,0,0,0-1.38-.68H70.13v4.81h1.69A1.56,1.56,0,0,0,73.2,16.2Z"/><path class="cls-2" d="M81.79,17.5a.58.58,0,0,1-.18.44.56.56,0,0,1-.4.17.53.53,0,0,1-.33-.11.74.74,0,0,1-.23-.31l-.53-1.24H77.07l-.53,1.25a.64.64,0,0,1-.22.3.52.52,0,0,1-.86-.43.63.63,0,0,1,0-.19L78,11.26a.67.67,0,0,1,.25-.32.53.53,0,0,1,.37-.09.6.6,0,0,1,.57.41l2.52,6A.68.68,0,0,1,81.79,17.5Zm-4.22-2.23h2l-1-2.4Z"/><path class="cls-2" d="M88.49,17.26a.56.56,0,0,1,.08.28.52.52,0,0,1-.12.34.58.58,0,0,1-.47.18.91.91,0,0,1-.45-.11,1.8,1.8,0,0,1-.74-1.71.74.74,0,0,0-.24-.58,1,1,0,0,0-.69-.21H83.94v2a.67.67,0,0,1-.15.45.49.49,0,0,1-.39.17.8.8,0,0,1-.52-.18.56.56,0,0,1-.22-.45V11.51a.61.61,0,0,1,.62-.62h2.95a1.91,1.91,0,0,1,1,.29A2.12,2.12,0,0,1,88,12a2.26,2.26,0,0,1,.28,1.13,2,2,0,0,1-.28,1,2.22,2.22,0,0,1-.72.77A1.57,1.57,0,0,1,88,16.07a1.77,1.77,0,0,1,0,.32,3.28,3.28,0,0,0,.08.45.33.33,0,0,0,.18.21A.62.62,0,0,1,88.49,17.26Zm-2-3a1.3,1.3,0,0,0,.29-.47,1.7,1.7,0,0,0,.11-.63,1.22,1.22,0,0,0-.11-.53,1.06,1.06,0,0,0-.29-.38.55.55,0,0,0-.36-.14H83.94v2.32h2.24A.51.51,0,0,0,86.54,14.21Z"/><path class="cls-2" d="M97.72,11a.56.56,0,0,1,.18.43.55.55,0,0,1-.18.43.64.64,0,0,1-.45.16H95.66v5.36a.58.58,0,0,1-.19.45.69.69,0,0,1-.48.18.65.65,0,0,1-.47-.18.6.6,0,0,1-.18-.45V12.06H92.72a.63.63,0,0,1-.45-.16.56.56,0,0,1-.18-.43.55.55,0,0,1,.18-.42.64.64,0,0,1,.45-.16h4.55A.63.63,0,0,1,97.72,11Z"/><path class="cls-2" d="M103.47,17.05a.57.57,0,0,1,.18.42.54.54,0,0,1-.18.42.64.64,0,0,1-.45.16H99.59a.61.61,0,0,1-.62-.62V11.51a.61.61,0,0,1,.62-.62H103a.63.63,0,0,1,.45.17.57.57,0,0,1,.18.44.53.53,0,0,1-.18.42.64.64,0,0,1-.45.16h-2.78V13.8h2.31A.62.62,0,0,1,103,14a.58.58,0,0,1,.18.44.54.54,0,0,1-.18.42.64.64,0,0,1-.45.16h-2.31v1.89H103A.61.61,0,0,1,103.47,17.05Z"/><path class="cls-2" d="M110.17,17.11a.61.61,0,0,1,.12.38.57.57,0,0,1-.19.44.62.62,0,0,1-.42.17.61.61,0,0,1-.5-.27l-1.82-2.43-1.77,2.41a.61.61,0,0,1-.51.29.53.53,0,0,1-.39-.16.52.52,0,0,1-.16-.38.68.68,0,0,1,.15-.42l2-2.67-2-2.62a.57.57,0,0,1-.13-.37.58.58,0,0,1,.19-.44.6.6,0,0,1,.93.08l1.8,2.4,1.76-2.35a.75.75,0,0,1,.23-.22.53.53,0,0,1,.27-.08.54.54,0,0,1,.4.18.56.56,0,0,1,.17.39.61.61,0,0,1-.13.37l-2,2.63Z"/><path class="cls-2" d="M116.69,11a.56.56,0,0,1,.18.43.55.55,0,0,1-.18.43.64.64,0,0,1-.45.16h-1.61v5.36a.58.58,0,0,1-.19.45.69.69,0,0,1-.48.18.65.65,0,0,1-.47-.18.6.6,0,0,1-.18-.45V12.06H111.7a.63.63,0,0,1-.45-.16.56.56,0,0,1-.18-.43.55.55,0,0,1,.18-.42.64.64,0,0,1,.45-.16h4.55A.63.63,0,0,1,116.69,11Z"/><path class="cls-2" d="M123.88,16.33a3.47,3.47,0,0,1-1.24,1.34,3.5,3.5,0,0,1-3.57,0,3.43,3.43,0,0,1-1.24-1.34,4.11,4.11,0,0,1,0-3.72,3.43,3.43,0,0,1,1.24-1.34,3.5,3.5,0,0,1,3.57,0,3.46,3.46,0,0,1,1.24,1.34,4.06,4.06,0,0,1,0,3.72Zm-1.16-3.1a2.23,2.23,0,0,0-.77-.88,2,2,0,0,0-2.22,0,2.16,2.16,0,0,0-.76.88,3,3,0,0,0,0,2.5,2.16,2.16,0,0,0,.76.89,2.06,2.06,0,0,0,2.22,0,2.24,2.24,0,0,0,.77-.89,2.94,2.94,0,0,0,0-2.49Z"/></svg>