<svg id="Layer_1" data-name="Layer 1" xmlns="http://www.w3.org/2000/svg" viewBox="0 0 165 30.5"><defs><style>.cls-1{fill:#4ca2ae;}.cls-2{fill:#fff;}</style></defs><title>guardarDIbujo</title><rect class="cls-1" width="165" height="30.5" rx="14.53" ry="14.53"/><path class="cls-2" d="M44.54,15.14a.61.61,0,0,1,.18.44v2.17a.62.62,0,0,1-.32.55,4.1,4.1,0,0,1-2.2.62A3.75,3.75,0,0,1,39,17.1a3.65,3.65,0,0,1,0-3.7,3.75,3.75,0,0,1,3.24-1.84A3.61,3.61,0,0,1,44,12a.55.55,0,0,1,.31.5.65.65,0,0,1-.17.44.54.54,0,0,1-.42.19.84.84,0,0,1-.34-.08,2.9,2.9,0,0,0-1.15-.24,2.31,2.31,0,0,0-1.21.33,2.48,2.48,0,0,0,0,4.25,2.31,2.31,0,0,0,1.21.33,4,4,0,0,0,.61-.05,3.58,3.58,0,0,0,.57-.13V16.19h-1A.61.61,0,0,1,42,16a.63.63,0,0,1,0-.88.61.61,0,0,1,.44-.17H44.1A.59.59,0,0,1,44.54,15.14Z"/><path class="cls-2" d="M51.46,11.83a.64.64,0,0,1,.16.45V16a3.09,3.09,0,0,1-.36,1.5,2.58,2.58,0,0,1-1,1,2.92,2.92,0,0,1-1.47.37,3,3,0,0,1-1.48-.37,2.57,2.57,0,0,1-1-1,3.07,3.07,0,0,1-.36-1.5V12.28a.6.6,0,0,1,.18-.45.65.65,0,0,1,.47-.18.62.62,0,0,1,.61.62V16a1.74,1.74,0,0,0,.22.87,1.49,1.49,0,0,0,.58.59,1.56,1.56,0,0,0,.78.21,1.72,1.72,0,0,0,.82-.21,1.55,1.55,0,0,0,.61-.59,1.65,1.65,0,0,0,.23-.87V12.28a.66.66,0,0,1,.15-.45.53.53,0,0,1,.42-.17A.57.57,0,0,1,51.46,11.83Z"/><path class="cls-2" d="M58.73,18.28a.58.58,0,0,1-.18.44.56.56,0,0,1-.4.17.53.53,0,0,1-.33-.11.74.74,0,0,1-.23-.31l-.53-1.24H54l-.53,1.25a.64.64,0,0,1-.22.3.52.52,0,0,1-.86-.43.63.63,0,0,1,0-.19L55,12a.67.67,0,0,1,.25-.32.53.53,0,0,1,.37-.09.6.6,0,0,1,.57.41l2.52,6A.68.68,0,0,1,58.73,18.28Zm-4.22-2.23h2l-1-2.4Z"/><path class="cls-2" d="M65.43,18a.56.56,0,0,1,.08.28.52.52,0,0,1-.12.34.58.58,0,0,1-.47.18.91.91,0,0,1-.45-.11A1.8,1.8,0,0,1,63.72,17a.74.74,0,0,0-.24-.58,1,1,0,0,0-.69-.21H60.88v2a.67.67,0,0,1-.15.45.49.49,0,0,1-.39.17.8.8,0,0,1-.52-.18.56.56,0,0,1-.22-.45V12.29a.61.61,0,0,1,.62-.62h2.95a1.91,1.91,0,0,1,1,.29,2.12,2.12,0,0,1,.75.79,2.26,2.26,0,0,1,.28,1.13,2,2,0,0,1-.28,1,2.22,2.22,0,0,1-.72.77,1.57,1.57,0,0,1,.71,1.21,1.77,1.77,0,0,1,0,.32,3.28,3.28,0,0,0,.08.45.33.33,0,0,0,.18.21A.62.62,0,0,1,65.43,18Zm-2-3a1.3,1.3,0,0,0,.29-.47,1.7,1.7,0,0,0,.11-.63,1.22,1.22,0,0,0-.11-.53,1.06,1.06,0,0,0-.29-.38.55.55,0,0,0-.36-.14H60.88v2.32h2.24A.51.51,0,0,0,63.48,15Z"/><path class="cls-2" d="M71.36,12.14a3,3,0,0,1,1.05,1.29,4.71,4.71,0,0,1,0,3.63,3,3,0,0,1-1.05,1.29,2.84,2.84,0,0,1-1.65.48H67.25a.61.61,0,0,1-.62-.62V12.29a.61.61,0,0,1,.62-.62H69.7A2.84,2.84,0,0,1,71.36,12.14ZM71,17a3,3,0,0,0,.46-1.73A3,3,0,0,0,71,13.53a1.56,1.56,0,0,0-1.38-.68H67.91v4.81H69.6A1.56,1.56,0,0,0,71,17Z"/><path class="cls-2" d="M79.57,18.28a.58.58,0,0,1-.18.44.56.56,0,0,1-.4.17.53.53,0,0,1-.33-.11.74.74,0,0,1-.23-.31l-.53-1.24H74.85l-.53,1.25a.64.64,0,0,1-.22.3.52.52,0,0,1-.86-.43.63.63,0,0,1,0-.19L75.82,12a.67.67,0,0,1,.25-.32.53.53,0,0,1,.37-.09A.6.6,0,0,1,77,12l2.52,6A.68.68,0,0,1,79.57,18.28Zm-4.22-2.23h2l-1-2.4Z"/><path class="cls-2" d="M86.27,18a.56.56,0,0,1,.08.28.52.52,0,0,1-.12.34.58.58,0,0,1-.47.18.91.91,0,0,1-.45-.11A1.8,1.8,0,0,1,84.57,17a.74.74,0,0,0-.24-.58,1,1,0,0,0-.69-.21H81.72v2a.67.67,0,0,1-.15.45.49.49,0,0,1-.39.17.8.8,0,0,1-.52-.18.56.56,0,0,1-.22-.45V12.29a.61.61,0,0,1,.62-.62H84A1.91,1.91,0,0,1,85,12a2.12,2.12,0,0,1,.75.79,2.26,2.26,0,0,1,.28,1.13,2,2,0,0,1-.28,1,2.22,2.22,0,0,1-.72.77,1.57,1.57,0,0,1,.71,1.21,1.77,1.77,0,0,1,0,.32,3.28,3.28,0,0,0,.08.45.33.33,0,0,0,.18.21A.62.62,0,0,1,86.27,18Zm-2-3a1.3,1.3,0,0,0,.29-.47,1.7,1.7,0,0,0,.11-.63,1.22,1.22,0,0,0-.11-.53,1.06,1.06,0,0,0-.29-.38.55.55,0,0,0-.36-.14H81.72v2.32H84A.51.51,0,0,0,84.32,15Z"/><path class="cls-2" d="M95.07,12.14a3,3,0,0,1,1.05,1.29,4.71,4.71,0,0,1,0,3.63,3,3,0,0,1-1.05,1.29,2.84,2.84,0,0,1-1.65.48H91a.61.61,0,0,1-.62-.62V12.29a.61.61,0,0,1,.62-.62h2.45A2.84,2.84,0,0,1,95.07,12.14ZM94.69,17a3,3,0,0,0,.46-1.73,3,3,0,0,0-.47-1.72,1.56,1.56,0,0,0-1.38-.68H91.62v4.81h1.69A1.56,1.56,0,0,0,94.69,17Z"/><path class="cls-2" d="M98.75,18.66a.64.64,0,0,1-.45.18.62.62,0,0,1-.45-.18.6.6,0,0,1-.18-.45V12.29a.59.59,0,0,1,.18-.44.65.65,0,0,1,.47-.18.61.61,0,0,1,.44.18.59.59,0,0,1,.18.44v5.92A.58.58,0,0,1,98.75,18.66Z"/><path class="cls-2" d="M105.66,15.52a1.79,1.79,0,0,1,.34,1.14,1.92,1.92,0,0,1-.7,1.7,2.84,2.84,0,0,1-1.66.48H101.1a.61.61,0,0,1-.62-.62V12.29a.61.61,0,0,1,.62-.62h2.58q1.94,0,1.95,1.82a1.52,1.52,0,0,1-.22.81,1.55,1.55,0,0,1-.63.56A2,2,0,0,1,105.66,15.52Zm-1.58-2.43a.8.8,0,0,0-.59-.21h-1.69v1.6h1.72a.78.78,0,0,0,.54-.2.7.7,0,0,0,.23-.55A.85.85,0,0,0,104.09,13.09Zm.32,4.32a1,1,0,0,0,.27-.75c0-.4-.1-.66-.32-.79a1.51,1.51,0,0,0-.78-.19h-1.77v2h1.84A1,1,0,0,0,104.41,17.4Z"/><path class="cls-2" d="M112.7,11.83a.64.64,0,0,1,.16.45V16a3.09,3.09,0,0,1-.36,1.5,2.58,2.58,0,0,1-1,1,2.92,2.92,0,0,1-1.47.37,3,3,0,0,1-1.48-.37,2.57,2.57,0,0,1-1-1,3.07,3.07,0,0,1-.36-1.5V12.28a.6.6,0,0,1,.18-.45.65.65,0,0,1,.47-.18.62.62,0,0,1,.61.62V16a1.74,1.74,0,0,0,.22.87,1.49,1.49,0,0,0,.58.59,1.56,1.56,0,0,0,.78.21,1.72,1.72,0,0,0,.82-.21,1.55,1.55,0,0,0,.61-.59,1.65,1.65,0,0,0,.23-.87V12.28a.66.66,0,0,1,.15-.45.53.53,0,0,1,.42-.17A.57.57,0,0,1,112.7,11.83Z"/><path class="cls-2" d="M114.88,18.7a2.13,2.13,0,0,1-.82-.67.65.65,0,0,1-.12-.36.56.56,0,0,1,.19-.43.59.59,0,0,1,.4-.18.86.86,0,0,1,.57.31,1.24,1.24,0,0,0,.4.26,1.33,1.33,0,0,0,.46.08,1.13,1.13,0,0,0,.57-.15,1.21,1.21,0,0,0,.44-.41,1,1,0,0,0,.16-.55v-4.3a.58.58,0,0,1,.19-.44.65.65,0,0,1,.45-.18.62.62,0,0,1,.46.17.6.6,0,0,1,.18.45v4.3a2.2,2.2,0,0,1-.33,1.16A2.47,2.47,0,0,1,116,18.94,2.47,2.47,0,0,1,114.88,18.7Z"/><path class="cls-2" d="M126.1,17.11a3.47,3.47,0,0,1-1.24,1.34,3.5,3.5,0,0,1-3.57,0A3.43,3.43,0,0,1,120,17.11a4.11,4.11,0,0,1,0-3.72,3.43,3.43,0,0,1,1.24-1.34,3.5,3.5,0,0,1,3.57,0,3.46,3.46,0,0,1,1.24,1.34,4.06,4.06,0,0,1,0,3.72ZM124.94,14a2.23,2.23,0,0,0-.77-.88,2,2,0,0,0-2.22,0,2.16,2.16,0,0,0-.76.88,3,3,0,0,0,0,2.5,2.16,2.16,0,0,0,.76.89,2.06,2.06,0,0,0,2.22,0,2.24,2.24,0,0,0,.77-.89,2.94,2.94,0,0,0,0-2.49Z"/></svg>