<svg id="Layer_1" data-name="Layer 1" xmlns="http://www.w3.org/2000/svg" viewBox="0 0 317.64 289"><defs><style>.cls-1{fill:#cbc5dd;}.cls-2{fill:#5c4d8c;}.cls-11,.cls-13,.cls-14,.cls-2,.cls-4{fill-rule:evenodd;}.cls-3{fill:#fcd380;}.cls-4,.cls-5{fill:#f7bb63;}.cls-6{fill:#eb619e;}.cls-7{fill:#e3589a;}.cls-8{fill:#eb91bc;}.cls-9{fill:#e24d94;}.cls-10{fill:#fff;}.cls-11{fill:#f6b247;}.cls-12{fill:#29233f;}.cls-13{fill:#6d59a2;}.cls-14{fill:#7867aa;}.cls-15{fill:#ff7701;}.cls-16{fill:#4ca2ae;}</style></defs><title>indivudual</title><circle class="cls-1" cx="156.64" cy="130" r="130"/><path class="cls-2" d="M159.94,230c17.6,0,32-30.42,32-67.71s-14.36-67.71-32-67.71S128,125,128,162.27,142.34,230,159.94,230Z"/><path class="cls-3" d="M173,255H152.64A29.83,29.83,0,0,1,173,255Z"/><path class="cls-3" d="M133.08,157.36c-2.91.6-5.33,2.95-7.34,5.48a59.76,59.76,0,0,0-7.63,13c-2,4.49-3.63,9.18-5.25,13.88q-3.2,9.27-6.35,18.58A116.81,116.81,0,0,0,103,220.12c-1,4.36-2.92,10.21-1.41,14.39s7,6.32,10.69,5c3.2-1.16,5-5.06,6.39-8.61l16.69-41.37c1.18-2.93,6-14.74,6.71-17.89C143.61,164.73,141.95,155.53,133.08,157.36Z"/><path class="cls-3" d="M65.43,181.19c-.25.16-.7,0-1.39-1.1s-.08-1.66-.25-1.88c-4.33-5.74-6.32-10.25-8.63-17.12-.52-1.56-1-3.32-.29-4.79.35-.75.57-2.82,1.18-3.36,1.49-1.32,3.76-1.15,5.67-.64a5.58,5.58,0,0,1,3.1,2.86c.72,1.27,1.25,3.72,2,4.94.68,1,1.48,2.5,1.85,2.55s-.78-2.81.19-3.2,1.64,1.08,2.06,2c1.31,3,1,7.68,2.29,10.69,1.2,2.76,1.37,1.49-.28,3.09A54.2,54.2,0,0,1,65.43,181.19Z"/><path class="cls-3" d="M109,241.55c-2.44.08-5-1.61-7.29-3.57-3.49-3-6.3-7-9.26-11-2.84-3.83-5.49-7.95-8.1-12.06-3.44-5.42-7.67-13-8.69-14.63-2.09-3.44-5.76-9.79-7.63-13.45-2-3.95-5.27-10-5.58-14.35a4.13,4.13,0,0,1,4-4.27c2.82.28,9,7,11.2,10,6.54,9,14.26,18.3,23.82,32.05,1.76,2.53,8.89,12.73,10.35,15.57C115,232.13,116.38,241.29,109,241.55Z"/><path class="cls-4" d="M113.64,204.89s-5.13,13.07-1.81,21l-7.39-11.3,3.64-11Z"/><path class="cls-4" d="M195.28,206.69s9.74,27.31,13,29.68Z"/><path class="cls-3" d="M190.1,155.77c2.87.6,5.25,2.94,7.23,5.47a59.76,59.76,0,0,1,7.5,13c2,4.48,3.57,9.18,5.16,13.87q3.14,9.27,6.23,18.57a117.84,117.84,0,0,1,3.48,11.82c1,4.36,2.86,10.2,1.37,14.39s-6.93,6.33-10.54,5c-3.15-1.15-4.88-5.05-6.29-8.6l-16.39-41.35C186.68,185,182,173.18,181.25,170,179.71,163.14,181.36,153.95,190.1,155.77Z"/><path class="cls-3" d="M223.69,248.67c-.12,2.1-.3,4.21-.52,6.33H206.1c.34-3.92,1.3-15,2-17.9.05-.24.11-.49.17-.73h0c1.69-6.66,6.39-13.85,12.05-9.46a6.25,6.25,0,0,1,1.29,1.41h0v0a16.07,16.07,0,0,1,2,6C224.37,238.85,224,243.7,223.69,248.67Z"/><path class="cls-3" d="M193.22,195.36h0q-.35,1.66-.72,3.39c0,.2-.08.4-.13.6s-.14.7-.22,1h0c-.14.65-.28,1.3-.41,2h0c-.11.47-.21.94-.3,1.42h0c-.07.29-.13.59-.2.88h0c-1.67,8-3.19,16.25-3.18,22,0,12.21,3.41,20.86,5,28.33H132.18c1.25-7.45,4.41-15.63,4.43-28.33,0-6.85-2.5-17.27-4.81-26.72h0l0-.13c-.08-.31-.15-.61-.22-.92-.25-1-.49-2-.72-2.92s-.5-2-.73-3h0c-1.31-5.53-2.24-10.17-2.1-12.75v0c.21-3.91.15-7.85.15-10.93v0a24.45,24.45,0,0,1,.31-5.26,18.51,18.51,0,0,1,1.85-3.29s0,0,0,0a18,18,0,0,1,2.63-3.22h0a6.85,6.85,0,0,1,1.33-1,41.82,41.82,0,0,1,4.63-2,13.44,13.44,0,0,1,2-.56c1.93-.36,5.09-2,8.91-2.6l.49-.07h.06l.23,0A17,17,0,0,1,153,151c3.87-.06,5-.83,8.39-.67,3.44-.16,4.43.27,8.39.33a14.63,14.63,0,0,1,2.1.11H172l.2,0,.3,0a20.8,20.8,0,0,1,2.3.46l.1,0c2.71.69,5.11,1.74,6.8,2.25a7.61,7.61,0,0,0,1,.25,20.62,20.62,0,0,1,4.69,1.74h0c.85.4,1.5.74,1.72.86a6.15,6.15,0,0,1,1.08.72,12.28,12.28,0,0,1,1.71,1.74,23.87,23.87,0,0,1,1.6,2.19,16.82,16.82,0,0,1,1.58,2.84,25.94,25.94,0,0,1,.31,5.65c0,2.21,0,4.84,0,7.56,0,1,0,2,.11,3C195.68,183.13,194.6,188.78,193.22,195.36Z"/><path class="cls-5" d="M172,144.32a21.84,21.84,0,0,0,.16,7.69,6.21,6.21,0,0,1-1,.68c-4.61,2.67-13.27,1.38-17.82.12-1.89-.53-3.07-1-3-1.28.92-2,.74-4.84.45-6.76,0,0,0,0,0-.06h0a20.83,20.83,0,0,0-.44-2.13h22c-.08.24-.15.48-.21.72S172.09,144,172,144.32Z"/><path class="cls-3" d="M137.93,105.48c0-11.9,10.38-21.55,23.17-21.55s23.17,9.65,23.17,21.55a20.11,20.11,0,0,1-.85,5.73c0,.47,0,.95,0,1.45a61.07,61.07,0,0,1-1,12.85c-1.63,8.24-5.9,15.91-14,20.59a17.94,17.94,0,0,1-9,2.73c-4.32,0-8.28-2.25-11.29-5-9.92-9.11-10.77-22.8-10.07-35.72A20.12,20.12,0,0,1,137.93,105.48Z"/><path class="cls-6" d="M203,169.86c-8.67-17.59-31.21-19.58-31.21-19.58l7.7,9.3,2.59,7.78,11.58,34.74,21.61-2A311.15,311.15,0,0,0,203,169.86Z"/><polygon class="cls-7" points="182.57 166.45 192.15 206.77 197.3 206.4 182.57 166.45"/><path class="cls-8" d="M202.82,169.28c-8.57-17.17-31.07-19-31.07-19s22.73,6.67,28.33,18.58c1.35,2.87,6.55,16.36,11.49,30.27l3.34-.32A297.55,297.55,0,0,0,202.82,169.28Z"/><path class="cls-9" d="M215.55,196l-24.92,6.64,1.41,4.67,25.26-5.12a1.93,1.93,0,0,0,1.48-2.4l-.62-2.29A2.13,2.13,0,0,0,215.55,196Z"/><path class="cls-6" d="M119.2,170.63c8.67-17.59,31.21-19.58,31.21-19.58l-7.7,9.3-2.59,7.78-11.58,34.74-21.61-2A311.15,311.15,0,0,1,119.2,170.63Z"/><polygon class="cls-7" points="139.59 167.21 130.01 207.53 124.86 207.17 139.59 167.21"/><path class="cls-8" d="M119.34,170c8.57-17.17,31.07-19,31.07-19s-22.73,6.67-28.33,18.58c-1.35,2.87-6.55,16.36-11.49,30.27l-3.34-.32A297.55,297.55,0,0,1,119.34,170Z"/><path class="cls-9" d="M106.6,196.81l24.92,6.64-1.41,4.67L104.86,203a1.93,1.93,0,0,1-1.48-2.4l.62-2.29A2.13,2.13,0,0,1,106.6,196.81Z"/><path class="cls-6" d="M193.54,255H131.67c5.3-29.56-.38-52.88-.38-52.88l0-.16.45-2.15.63-3h0l0-.13,2.24-10.77.47-2.26.3-1.46h0v0l1.77-8.48h0l2.36-11.34,1.59-1.65,9.12-9.46.07-.07h0a.13.13,0,0,1,0,.07c-.49,1.05-4.23,10,9.84,11.12,11.43.93,12.14-6.58,11.84-10.15,0-.57-.12-1-.18-1.36s-.1-.47-.1-.47h0l.15.12.55.42,8.8,6.73.53,2.1h0l3.84,15.1h0l1.08,4.25,1.38,5.42,1.16,4.57h0v.07L191,196v0l1.13,4.42h0q-.2,1-.36,2c-.11.57-.2,1.13-.29,1.7l-.15,1C188.51,224.23,191.36,244,193.54,255Z"/><path class="cls-9" d="M174.44,209.58l-1-.05-2.8-.17a28.08,28.08,0,0,0-8.81.57c-.83.22-1.66.48-2.5.7a20.35,20.35,0,0,1-2.48.52,19.24,19.24,0,0,1-4.28.14,7.32,7.32,0,0,1-1.66-.31,3.75,3.75,0,0,1-1.15-.58,2.53,2.53,0,0,1-.55-.58l-.14-.24.2.18a2.6,2.6,0,0,0,.64.36,5.32,5.32,0,0,0,2.62.14,31.2,31.2,0,0,0,4-.81c.73-.2,1.47-.43,2.26-.71s1.63-.57,2.55-.81a15.19,15.19,0,0,1,5.33-.4,23.55,23.55,0,0,1,4.18.8c1.16.33,2.07.65,2.69.88Z"/><path class="cls-8" d="M156,135.36c1,.38,3.77-1.1,5.1-1s1.16-.24,2.13-.41,3.3.08,4.84-.75a9.83,9.83,0,0,1-2.85,4.3,5.65,5.65,0,0,1-5.12.89A8.8,8.8,0,0,1,156,135.36Z"/><path class="cls-8" d="M154.84,134.87l.17,0,.46.16c.38.16.94.36,1.61.56a10,10,0,0,0,1.1.25,10.27,10.27,0,0,0,1.24.13,8.85,8.85,0,0,0,1.33,0,11.27,11.27,0,0,0,1.37-.22,14.53,14.53,0,0,0,4.78-1.77c.29-.19.56-.37.78-.55a6.28,6.28,0,0,0,.56-.48l.34-.34.12-.12-.1.14a4.45,4.45,0,0,1-.29.39,6.48,6.48,0,0,1-.51.55,6.22,6.22,0,0,1-.74.64,10,10,0,0,1-2.14,1.21,14.88,14.88,0,0,1-2.69.82,12,12,0,0,1-1.42.21,8.13,8.13,0,0,1-1.4,0,7.69,7.69,0,0,1-1.29-.21,10.7,10.7,0,0,1-1.11-.34,12.39,12.39,0,0,1-1.56-.73l-.42-.22Z"/><path class="cls-10" d="M156.57,135.59a14.65,14.65,0,0,0,10.83-2,7.48,7.48,0,0,1-5.53,3.42A7.22,7.22,0,0,1,156.57,135.59Z"/><path class="cls-11" d="M158.23,127.62c3.88.81,5.47-1.56,5.5-3.55C164.72,127.73,162.07,129.71,158.23,127.62Z"/><path class="cls-12" d="M169.89,114.76a1.64,1.64,0,0,0-.39.86c-.16,1.11-.37,3.13.87,3.74,1.49.74,2.18-1.23,2.22-2.37a3.19,3.19,0,0,0-.56-2.11A1.35,1.35,0,0,0,169.89,114.76Z"/><path class="cls-12" d="M168.54,115.34s1.82-2.25,6.06,0C174.6,115.34,170.62,112.05,168.54,115.34Z"/><path class="cls-12" d="M152.1,114.76a1.64,1.64,0,0,1,.39.86c.16,1.11.37,3.13-.87,3.74-1.49.74-2.18-1.23-2.22-2.37a3.19,3.19,0,0,1,.56-2.11A1.35,1.35,0,0,1,152.1,114.76Z"/><path class="cls-12" d="M153.45,115.34s-1.82-2.25-6.06,0C147.39,115.34,151.38,112.05,153.45,115.34Z"/><path class="cls-4" d="M125.58,121.51a5.38,5.38,0,0,1-.56-1.2,15.89,15.89,0,0,0-.71,4.21c.34-.29.69-.58,1.07-.85a3.63,3.63,0,0,1,1-.51A10.69,10.69,0,0,0,125.58,121.51Z"/><path class="cls-4" d="M161,85.26c-9.34-5.26-24.46,3.49-27.24,16.12a32.54,32.54,0,0,1-3.7,9.42l.41.39c2.95-1.4,7.38,0,7.42,4.31a86.14,86.14,0,0,0,.77,9.14,9.88,9.88,0,0,1,2.81-3.93c5-3.8,3.88-5.88,4.75-14.75s9.15-3.34,15.65-11.06C164.5,91.68,170.34,90.52,161,85.26Z"/><path class="cls-4" d="M142.87,119.53A37.94,37.94,0,0,0,151,145.94s-9.82-5.18-12.34-21.31A5.57,5.57,0,0,1,142.87,119.53Z"/><path class="cls-13" d="M166,106.61c2-.45,5.35-1.37,8.87,1.69,1.59,1.38,1.29,2-.47.75-3-2.2-5-1.47-8.2-.84C165,108.46,164.63,106.92,166,106.61Z"/><path class="cls-13" d="M154.93,106.61c-2-.45-5.35-1.37-8.87,1.69-1.59,1.38-1.29,2,.47.75,3-2.2,5-1.47,8.2-.84C156,108.46,156.31,106.92,154.93,106.61Z"/><path class="cls-13" d="M160.63,91.77C154.14,99.49,145.85,94,145,102.83s.22,11-4.75,14.75-6.2,16.5-3.28,25.55,2.65,14.34-.85,20.47-3.63,10.5-1.88,16.63,2.85,9.38-7.46-1.38-7.88-22-3.8-32.48,2-9.64.3-21.35,6.47-14.14,9.25-26.76,17.89-21.37,27.24-16.12S163.26,88.56,160.63,91.77Z"/><path class="cls-14" d="M156.68,83.9c-1.12,5-7.84,6.91-11.95,8.22s-7.13,4.45-6.38,10-3.33,12.92-6.13,15.72-2,14.93.19,22.41c2,6.93-1.85,17.21-3.67,21.18-1.94,4.25-2.87,9.63-.63,13.17-3.86-3.4-3.71-8.78-1.31-14.56s5.19-9.38,3-19.57c-2.79-12.9-4.56-17.59.92-24.78,4.33-5.68,5.38-6.42,5.25-13.16-.14-6.92.93-10.08,6.91-12.14S154.26,88.76,156.68,83.9Z"/><path class="cls-13" d="M160,91.77c6.49,7.72,14.78,2.19,15.65,11.06s-.22,11,4.75,14.75,6.2,16.5,3.28,25.55-2.65,14.34.85,20.47,3.63,10.5,1.88,16.63-2.85,9.38,7.46-1.38,7.88-22,3.8-32.48-2-9.64-.3-21.35-6.47-14.14-9.25-26.76-17.89-21.37-27.24-16.12S157.37,88.56,160,91.77Z"/><path class="cls-14" d="M163.94,83.9c1.12,5,7.84,6.91,11.95,8.22s7.13,4.45,6.38,10,3.33,12.92,6.13,15.72,2,14.93-.19,22.41c-2,6.93,1.85,17.21,3.67,21.18,1.94,4.25,2.87,9.63.63,13.17,3.86-3.4,3.71-8.78,1.31-14.56s-5.19-9.38-3-19.57c2.79-12.9,4.56-17.59-.92-24.78-4.33-5.68-5.38-6.42-5.25-13.16.14-6.92-.93-10.08-6.91-12.14S166.37,88.76,163.94,83.9Z"/><path class="cls-15" d="M77.57,226.12l-.17.25a2.43,2.43,0,0,1,.14-.28Z"/><path class="cls-15" d="M79.07,224.12l-.56.7h0C78.69,224.58,78.87,224.35,79.07,224.12Z"/><path class="cls-15" d="M105.7,251.45a1,1,0,0,1,.15-.2c0,.33,0,.66,0,1-.06.1-.11.2-.16.3Z"/><path class="cls-15" d="M113.61,228.76c0,1.24-.08,2.6-.11,4,0-1.36,0-2.72.08-4C113.59,228.75,113.6,228.76,113.61,228.76Z"/><path class="cls-15" d="M140.83,225.75c-.06-.1-.13-.2-.2-.3v-.26A3.73,3.73,0,0,1,140.83,225.75Z"/><rect class="cls-16" y="230.28" width="317.64" height="58.72" rx="17.67" ry="17.67"/><path class="cls-10" d="M117.54,266.21a1.24,1.24,0,0,1-.87.34,1.19,1.19,0,0,1-.88-.34,1.16,1.16,0,0,1-.35-.86V254a1.15,1.15,0,0,1,.35-.86,1.25,1.25,0,0,1,.91-.34,1.18,1.18,0,0,1,.85.34,1.15,1.15,0,0,1,.35.86v11.39A1.12,1.12,0,0,1,117.54,266.21Z"/><path class="cls-10" d="M132.11,253.07a1.11,1.11,0,0,1,.3.79v11.49a1.18,1.18,0,0,1-1.2,1.2,1.69,1.69,0,0,1-.54-.09.76.76,0,0,1-.38-.25L123,257v8.42a1.09,1.09,0,0,1-.31.79,1.06,1.06,0,0,1-.8.32,1,1,0,0,1-.77-.32,1.11,1.11,0,0,1-.3-.79V254a1.18,1.18,0,0,1,1.2-1.2,1.5,1.5,0,0,1,.58.12.94.94,0,0,1,.42.32l7.17,9.15v-8.48a1.09,1.09,0,0,1,.31-.79,1,1,0,0,1,.78-.32A1,1,0,0,1,132.11,253.07Z"/><path class="cls-10" d="M144.46,253.67a5.83,5.83,0,0,1,2,2.48,9.1,9.1,0,0,1,0,7,5.82,5.82,0,0,1-2,2.48,5.47,5.47,0,0,1-3.18.92h-4.71a1.18,1.18,0,0,1-1.2-1.2V254a1.18,1.18,0,0,1,1.2-1.2h4.71A5.48,5.48,0,0,1,144.46,253.67Zm-.72,9.3a6.63,6.63,0,0,0,0-6.64,3,3,0,0,0-2.65-1.31h-3.25v9.26h3.25A3,3,0,0,0,143.74,263Z"/><path class="cls-10" d="M151.54,266.21a1.24,1.24,0,0,1-.87.34,1.19,1.19,0,0,1-.88-.34,1.16,1.16,0,0,1-.35-.86V254a1.15,1.15,0,0,1,.35-.86,1.25,1.25,0,0,1,.91-.34,1.18,1.18,0,0,1,.85.34,1.15,1.15,0,0,1,.35.86v11.39A1.12,1.12,0,0,1,151.54,266.21Z"/><path class="cls-10" d="M165.8,253.05a1.06,1.06,0,0,1,.36.81,1.34,1.34,0,0,1-.12.53l-4.87,11.39a1.31,1.31,0,0,1-.49.57,1.13,1.13,0,0,1-1.29,0,1.22,1.22,0,0,1-.44-.54l-4.87-11.43a1.1,1.1,0,0,1-.1-.49,1.06,1.06,0,0,1,.39-.86,1.26,1.26,0,0,1,.81-.33,1.12,1.12,0,0,1,.63.2,1.25,1.25,0,0,1,.45.57l4,9.32,3.63-9.32a1.26,1.26,0,0,1,.45-.55,1.12,1.12,0,0,1,.63-.2A1.23,1.23,0,0,1,165.8,253.05Z"/><path class="cls-10" d="M170.33,266.21a1.24,1.24,0,0,1-.87.34,1.19,1.19,0,0,1-.88-.34,1.16,1.16,0,0,1-.35-.86V254a1.15,1.15,0,0,1,.35-.86,1.25,1.25,0,0,1,.91-.34,1.18,1.18,0,0,1,.85.34,1.15,1.15,0,0,1,.35.86v11.39A1.12,1.12,0,0,1,170.33,266.21Z"/><path class="cls-10" d="M182.75,253.67a5.83,5.83,0,0,1,2,2.48,9.1,9.1,0,0,1,0,7,5.82,5.82,0,0,1-2,2.48,5.47,5.47,0,0,1-3.18.92h-4.71a1.18,1.18,0,0,1-1.2-1.2V254a1.18,1.18,0,0,1,1.2-1.2h4.71A5.48,5.48,0,0,1,182.75,253.67ZM182,263a6.63,6.63,0,0,0,0-6.64,3,3,0,0,0-2.65-1.31h-3.25v9.26h3.25A3,3,0,0,0,182,263Z"/><path class="cls-10" d="M198.37,253.07a1.21,1.21,0,0,1,.32.87v7.13A5.94,5.94,0,0,1,198,264a5,5,0,0,1-1.93,2,6,6,0,0,1-5.69,0,5,5,0,0,1-1.94-2,5.94,5.94,0,0,1-.69-2.9v-7.13a1.15,1.15,0,0,1,.35-.86,1.24,1.24,0,0,1,.91-.35,1.2,1.2,0,0,1,1.18,1.2v7.13a3.39,3.39,0,0,0,.41,1.69,2.89,2.89,0,0,0,1.11,1.13,3,3,0,0,0,1.51.39,3.31,3.31,0,0,0,1.59-.39,3,3,0,0,0,1.18-1.13,3.22,3.22,0,0,0,.44-1.69v-7.13a1.26,1.26,0,0,1,.3-.87,1,1,0,0,1,.81-.34A1.08,1.08,0,0,1,198.37,253.07Z"/><path class="cls-10" d="M212.37,265.49a1.12,1.12,0,0,1-.34.84,1.07,1.07,0,0,1-.77.33,1,1,0,0,1-.64-.22,1.41,1.41,0,0,1-.44-.59l-1-2.38h-5.87l-1,2.41a1.22,1.22,0,0,1-.42.58,1,1,0,0,1-.62.21.94.94,0,0,1-1-1,1.3,1.3,0,0,1,.06-.37l4.91-11.79a1.3,1.3,0,0,1,.47-.61,1,1,0,0,1,.71-.18,1.16,1.16,0,0,1,.66.21,1.17,1.17,0,0,1,.44.58L212.27,265A1.33,1.33,0,0,1,212.37,265.49Zm-8.12-4.3h3.94l-2-4.61Z"/><path class="cls-10" d="M222.51,264.57a1.1,1.1,0,0,1,.34.84,1.08,1.08,0,0,1-.34.82,1.2,1.2,0,0,1-.86.33h-6.41a1.18,1.18,0,0,1-1.2-1.2V254a1.15,1.15,0,0,1,.35-.86,1.25,1.25,0,0,1,.91-.34,1.18,1.18,0,0,1,.85.34,1.15,1.15,0,0,1,.35.86v10.29h5.14A1.2,1.2,0,0,1,222.51,264.57Z"/></svg>