<svg id="Layer_1" data-name="Layer 1" xmlns="http://www.w3.org/2000/svg" viewBox="0 0 165 30.5"><defs><style>.cls-1{fill:#4ca2ae;}.cls-2{fill:#fff;}</style></defs><title>ingresarGrupo</title><rect class="cls-1" width="165" height="30.5" rx="14.53" ry="14.53"/><path class="cls-2" d="M27.64,18.59a.63.63,0,0,1-.44.18.61.61,0,0,1-.45-.18.59.59,0,0,1-.18-.44v-5.8a.58.58,0,0,1,.18-.44.64.64,0,0,1,.46-.18.6.6,0,0,1,.43.18.58.58,0,0,1,.18.44v5.8A.57.57,0,0,1,27.64,18.59Z"/><path class="cls-2" d="M35.06,11.9a.56.56,0,0,1,.15.4v5.85a.6.6,0,0,1-.61.61.87.87,0,0,1-.28,0,.39.39,0,0,1-.2-.13l-3.69-4.68V18.2a.55.55,0,0,1-.16.4.54.54,0,0,1-.41.16.51.51,0,0,1-.39-.16.56.56,0,0,1-.15-.4V12.35a.6.6,0,0,1,.61-.61.77.77,0,0,1,.3.06.48.48,0,0,1,.22.16l3.66,4.66V12.3a.55.55,0,0,1,.16-.4.53.53,0,0,1,.4-.16A.51.51,0,0,1,35.06,11.9Z"/><path class="cls-2" d="M42.33,15.15a.6.6,0,0,1,.17.44v2.13a.6.6,0,0,1-.31.54,4,4,0,0,1-2.16.61,3.68,3.68,0,0,1-3.17-1.8,3.58,3.58,0,0,1,0-3.63A3.68,3.68,0,0,1,40,11.64a3.54,3.54,0,0,1,1.73.4.54.54,0,0,1,.3.49.63.63,0,0,1-.17.44.52.52,0,0,1-.41.19.82.82,0,0,1-.33-.08A2.84,2.84,0,0,0,40,12.84a2.25,2.25,0,0,0-1.19.33,2.43,2.43,0,0,0,0,4.17,2.25,2.25,0,0,0,1.19.33,3.89,3.89,0,0,0,.6-.05,3.5,3.5,0,0,0,.56-.13V16.18h-.94a.6.6,0,0,1-.44-.17.62.62,0,0,1,0-.86.6.6,0,0,1,.44-.17H41.9A.58.58,0,0,1,42.33,15.15Z"/><path class="cls-2" d="M49.43,18a.54.54,0,0,1,.08.27.52.52,0,0,1-.12.33.57.57,0,0,1-.46.18.9.9,0,0,1-.44-.11A1.76,1.76,0,0,1,47.76,17a.73.73,0,0,0-.24-.57,1,1,0,0,0-.68-.21H45v1.95a.66.66,0,0,1-.15.44.48.48,0,0,1-.39.17.78.78,0,0,1-.51-.18.54.54,0,0,1-.22-.44v-5.8a.6.6,0,0,1,.61-.61h2.89a1.86,1.86,0,0,1,1,.28,2.08,2.08,0,0,1,.74.77,2.22,2.22,0,0,1,.28,1.1,2,2,0,0,1-.27,1,2.16,2.16,0,0,1-.7.76,1.54,1.54,0,0,1,.69,1.19,1.69,1.69,0,0,1,0,.31,3.18,3.18,0,0,0,.08.45.33.33,0,0,0,.18.21A.6.6,0,0,1,49.43,18Zm-1.91-3a1.3,1.3,0,0,0,.28-.46,1.71,1.71,0,0,0,.11-.62,1.21,1.21,0,0,0-.11-.52,1.07,1.07,0,0,0-.28-.38.55.55,0,0,0-.35-.14H45v2.28h2.2A.5.5,0,0,0,47.52,15Z"/><path class="cls-2" d="M55,17.79a.56.56,0,0,1,.18.41.53.53,0,0,1-.18.41.62.62,0,0,1-.44.16H51.22a.6.6,0,0,1-.61-.61v-5.8a.6.6,0,0,1,.61-.61h3.36a.61.61,0,0,1,.44.17.56.56,0,0,1,.18.43.52.52,0,0,1-.17.41.63.63,0,0,1-.44.16H51.86V14.6h2.27a.61.61,0,0,1,.44.17.56.56,0,0,1,.18.43.52.52,0,0,1-.17.41.63.63,0,0,1-.44.16H51.86v1.86h2.72A.59.59,0,0,1,55,17.79Z"/><path class="cls-2" d="M57.33,18.69a3,3,0,0,1-1.05-.61.7.7,0,0,1-.27-.53.57.57,0,0,1,.17-.41.55.55,0,0,1,.41-.18.53.53,0,0,1,.34.12,3,3,0,0,0,.78.48,2.45,2.45,0,0,0,.9.15,1.81,1.81,0,0,0,1-.25.73.73,0,0,0,.41-.62.8.8,0,0,0-.4-.71,3.41,3.41,0,0,0-1.28-.39q-2.2-.32-2.2-2a1.85,1.85,0,0,1,.33-1.1,2.09,2.09,0,0,1,.9-.71,3.2,3.2,0,0,1,1.28-.25,3.66,3.66,0,0,1,1.19.19,2.89,2.89,0,0,1,.93.5.67.67,0,0,1,.29.53.57.57,0,0,1-.17.41.54.54,0,0,1-.4.18.44.44,0,0,1-.27-.09,2.65,2.65,0,0,0-.73-.39,2.42,2.42,0,0,0-.84-.18,1.73,1.73,0,0,0-1,.24.75.75,0,0,0,0,1.27,3.38,3.38,0,0,0,1.12.36,5.82,5.82,0,0,1,1.38.39,1.76,1.76,0,0,1,.78.64,2,2,0,0,1,.26,1.08,1.81,1.81,0,0,1-.36,1.11,2.29,2.29,0,0,1-.95.73,3.18,3.18,0,0,1-1.28.26A4.19,4.19,0,0,1,57.33,18.69Z"/><path class="cls-2" d="M67.91,18.22a.57.57,0,0,1-.17.43.54.54,0,0,1-.39.17.53.53,0,0,1-.33-.11.72.72,0,0,1-.23-.3l-.52-1.22h-3l-.52,1.23a.62.62,0,0,1-.22.3.51.51,0,0,1-.85-.42.66.66,0,0,1,0-.19l2.5-6a.67.67,0,0,1,.24-.31.53.53,0,0,1,.36-.09.59.59,0,0,1,.34.11.6.6,0,0,1,.23.3L67.86,18A.67.67,0,0,1,67.91,18.22ZM63.77,16h2l-1-2.35Z"/><path class="cls-2" d="M74.49,18a.54.54,0,0,1,.08.27.52.52,0,0,1-.12.33.57.57,0,0,1-.46.18.9.9,0,0,1-.44-.11A1.76,1.76,0,0,1,72.81,17a.73.73,0,0,0-.24-.57,1,1,0,0,0-.68-.21H70v1.95a.66.66,0,0,1-.15.44.48.48,0,0,1-.39.17.78.78,0,0,1-.51-.18.54.54,0,0,1-.22-.44v-5.8a.6.6,0,0,1,.61-.61h2.89a1.86,1.86,0,0,1,1,.28,2.08,2.08,0,0,1,.74.77,2.22,2.22,0,0,1,.28,1.1,2,2,0,0,1-.27,1,2.16,2.16,0,0,1-.7.76A1.54,1.54,0,0,1,74,16.82a1.69,1.69,0,0,1,0,.31,3.18,3.18,0,0,0,.08.45.33.33,0,0,0,.18.21A.6.6,0,0,1,74.49,18Zm-1.91-3a1.3,1.3,0,0,0,.28-.46,1.71,1.71,0,0,0,.11-.62,1.21,1.21,0,0,0-.11-.52,1.07,1.07,0,0,0-.28-.38.55.55,0,0,0-.35-.14H70v2.28h2.2A.5.5,0,0,0,72.57,15Z"/><path class="cls-2" d="M84,18.22a.57.57,0,0,1-.17.43.54.54,0,0,1-.39.17.53.53,0,0,1-.33-.11.72.72,0,0,1-.23-.3l-.52-1.22h-3l-.52,1.23a.62.62,0,0,1-.22.3.51.51,0,0,1-.85-.42.66.66,0,0,1,0-.19l2.5-6a.67.67,0,0,1,.24-.31A.53.53,0,0,1,81,11.7a.59.59,0,0,1,.34.11.6.6,0,0,1,.23.3L84,18A.67.67,0,0,1,84,18.22ZM79.9,16h2l-1-2.35Z"/><path class="cls-2" d="M93.12,11.9a.62.62,0,0,1,.16.44V16a3,3,0,0,1-.35,1.48,2.53,2.53,0,0,1-1,1,3.08,3.08,0,0,1-2.9,0,2.52,2.52,0,0,1-1-1A3,3,0,0,1,87.71,16V12.34a.58.58,0,0,1,.18-.44.64.64,0,0,1,.46-.18.61.61,0,0,1,.6.61V16a1.73,1.73,0,0,0,.21.86,1.47,1.47,0,0,0,.57.58,1.53,1.53,0,0,0,.77.2,1.69,1.69,0,0,0,.81-.2,1.53,1.53,0,0,0,.6-.58,1.63,1.63,0,0,0,.23-.86V12.34a.64.64,0,0,1,.15-.44.52.52,0,0,1,.41-.17A.55.55,0,0,1,93.12,11.9Z"/><path class="cls-2" d="M100.51,11.9a.56.56,0,0,1,.15.4v5.85a.6.6,0,0,1-.61.61.87.87,0,0,1-.28,0,.39.39,0,0,1-.2-.13l-3.69-4.68V18.2a.55.55,0,0,1-.16.4.54.54,0,0,1-.41.16.51.51,0,0,1-.39-.16.56.56,0,0,1-.15-.4V12.35a.6.6,0,0,1,.61-.61.77.77,0,0,1,.3.06.48.48,0,0,1,.22.16l3.66,4.66V12.3a.55.55,0,0,1,.16-.4.53.53,0,0,1,.4-.16A.51.51,0,0,1,100.51,11.9Z"/><path class="cls-2" d="M110.59,15.15a.6.6,0,0,1,.17.44v2.13a.6.6,0,0,1-.31.54,4,4,0,0,1-2.16.61,3.68,3.68,0,0,1-3.17-1.8,3.58,3.58,0,0,1,0-3.63,3.68,3.68,0,0,1,3.17-1.8A3.55,3.55,0,0,1,110,12a.55.55,0,0,1,.3.49.63.63,0,0,1-.17.44.52.52,0,0,1-.41.19.82.82,0,0,1-.33-.08,2.84,2.84,0,0,0-1.12-.23,2.26,2.26,0,0,0-1.18.33,2.43,2.43,0,0,0,0,4.17,2.26,2.26,0,0,0,1.18.33,3.91,3.91,0,0,0,.6-.05,3.58,3.58,0,0,0,.56-.13V16.18h-.95a.6.6,0,0,1-.44-.17.62.62,0,0,1,0-.86.6.6,0,0,1,.44-.17h1.65A.58.58,0,0,1,110.59,15.15Z"/><path class="cls-2" d="M117.69,18a.54.54,0,0,1,.08.27.52.52,0,0,1-.12.33.57.57,0,0,1-.46.18.9.9,0,0,1-.44-.11A1.76,1.76,0,0,1,116,17a.73.73,0,0,0-.24-.57,1,1,0,0,0-.68-.21h-1.88v1.95a.66.66,0,0,1-.15.44.48.48,0,0,1-.39.17.78.78,0,0,1-.51-.18.54.54,0,0,1-.22-.44v-5.8a.6.6,0,0,1,.61-.61h2.89a1.86,1.86,0,0,1,1,.28,2.08,2.08,0,0,1,.74.77,2.23,2.23,0,0,1,.28,1.1,2,2,0,0,1-.27,1,2.16,2.16,0,0,1-.7.76,1.54,1.54,0,0,1,.69,1.19,1.74,1.74,0,0,1,0,.31,3.06,3.06,0,0,0,.08.45.33.33,0,0,0,.18.21A.6.6,0,0,1,117.69,18Zm-1.91-3a1.31,1.31,0,0,0,.28-.46,1.71,1.71,0,0,0,.11-.62,1.21,1.21,0,0,0-.11-.52,1.07,1.07,0,0,0-.28-.38.55.55,0,0,0-.35-.14h-2.2v2.28h2.2A.5.5,0,0,0,115.78,15Z"/><path class="cls-2" d="M124.23,11.9a.62.62,0,0,1,.16.44V16a3,3,0,0,1-.35,1.48,2.53,2.53,0,0,1-1,1,3.08,3.08,0,0,1-2.9,0,2.53,2.53,0,0,1-1-1,3,3,0,0,1-.35-1.48V12.34a.59.59,0,0,1,.18-.44.64.64,0,0,1,.46-.18.61.61,0,0,1,.6.61V16a1.73,1.73,0,0,0,.21.86,1.47,1.47,0,0,0,.57.58,1.54,1.54,0,0,0,.77.2,1.69,1.69,0,0,0,.81-.2,1.53,1.53,0,0,0,.6-.58,1.64,1.64,0,0,0,.23-.86V12.34a.64.64,0,0,1,.15-.44.52.52,0,0,1,.41-.17A.55.55,0,0,1,124.23,11.9Z"/><path class="cls-2" d="M129.78,12a2.27,2.27,0,0,1,.74.82,2.4,2.4,0,0,1,0,2.25,2.26,2.26,0,0,1-.74.83,1.74,1.74,0,0,1-1,.31h-1.75v1.9a.62.62,0,0,1-.16.44.55.55,0,0,1-.42.17.53.53,0,0,1-.41-.18.62.62,0,0,1-.16-.44v-5.8a.6.6,0,0,1,.61-.61h2.29A1.74,1.74,0,0,1,129.78,12Zm-.6,2.91a1.17,1.17,0,0,0,.3-.42,1.3,1.3,0,0,0,0-1.07,1.12,1.12,0,0,0-.3-.41.59.59,0,0,0-.38-.16h-1.75v2.22h1.75A.58.58,0,0,0,129.18,15Z"/><path class="cls-2" d="M138,17.07a3.39,3.39,0,0,1-1.22,1.31,3.42,3.42,0,0,1-3.5,0A3.34,3.34,0,0,1,132,17.07a4,4,0,0,1,0-3.65,3.35,3.35,0,0,1,1.21-1.31,3.43,3.43,0,0,1,3.5,0A3.39,3.39,0,0,1,138,13.43a4,4,0,0,1,0,3.65Zm-1.14-3a2.19,2.19,0,0,0-.75-.87,2,2,0,0,0-2.17,0,2.11,2.11,0,0,0-.74.87,2.95,2.95,0,0,0,0,2.45,2.11,2.11,0,0,0,.74.87,2,2,0,0,0,2.17,0,2.18,2.18,0,0,0,.75-.87,2.88,2.88,0,0,0,0-2.44Z"/></svg>