<svg id="Layer_1" data-name="Layer 1" xmlns="http://www.w3.org/2000/svg" viewBox="0 0 165 30.5"><defs><style>.cls-1{fill:#4ca2ae;}.cls-2{fill:#fff;}</style></defs><title>ingresar</title><rect class="cls-1" width="165" height="30.5" rx="14.53" ry="14.53"/><path class="cls-2" d="M59.13,18.66a.64.64,0,0,1-.45.18.62.62,0,0,1-.45-.18.6.6,0,0,1-.18-.45V12.29a.59.59,0,0,1,.18-.44.65.65,0,0,1,.47-.18.61.61,0,0,1,.44.18.59.59,0,0,1,.18.44v5.92A.58.58,0,0,1,59.13,18.66Z"/><path class="cls-2" d="M66.69,11.83a.58.58,0,0,1,.15.41v6a.61.61,0,0,1-.62.62.89.89,0,0,1-.28,0,.4.4,0,0,1-.2-.13L62,13.89v4.37a.56.56,0,0,1-.16.41.55.55,0,0,1-.41.16.52.52,0,0,1-.4-.16.58.58,0,0,1-.15-.41v-6a.61.61,0,0,1,.62-.62.76.76,0,0,1,.3.06.48.48,0,0,1,.22.16l3.73,4.75v-4.4a.57.57,0,0,1,.16-.41.54.54,0,0,1,.4-.16A.53.53,0,0,1,66.69,11.83Z"/><path class="cls-2" d="M74.1,15.14a.61.61,0,0,1,.18.44v2.17a.62.62,0,0,1-.32.55,4.1,4.1,0,0,1-2.2.62,3.75,3.75,0,0,1-3.24-1.84,3.65,3.65,0,0,1,0-3.7,3.75,3.75,0,0,1,3.24-1.84,3.61,3.61,0,0,1,1.76.41.55.55,0,0,1,.31.5.65.65,0,0,1-.17.44.54.54,0,0,1-.42.19.84.84,0,0,1-.34-.08,2.9,2.9,0,0,0-1.15-.24,2.31,2.31,0,0,0-1.21.33,2.48,2.48,0,0,0,0,4.25,2.31,2.31,0,0,0,1.21.33,4,4,0,0,0,.61-.05,3.58,3.58,0,0,0,.57-.13V16.19H72a.61.61,0,0,1-.44-.17.63.63,0,0,1,0-.88A.61.61,0,0,1,72,15h1.68A.59.59,0,0,1,74.1,15.14Z"/><path class="cls-2" d="M81.34,18a.56.56,0,0,1,.08.28.52.52,0,0,1-.12.34.58.58,0,0,1-.47.18.91.91,0,0,1-.45-.11A1.8,1.8,0,0,1,79.63,17a.74.74,0,0,0-.24-.58,1,1,0,0,0-.69-.21H76.79v2a.67.67,0,0,1-.15.45.49.49,0,0,1-.39.17.8.8,0,0,1-.52-.18.56.56,0,0,1-.22-.45V12.29a.61.61,0,0,1,.62-.62h2.95a1.91,1.91,0,0,1,1,.29,2.12,2.12,0,0,1,.75.79,2.26,2.26,0,0,1,.28,1.13,2,2,0,0,1-.28,1,2.22,2.22,0,0,1-.72.77,1.57,1.57,0,0,1,.71,1.21,1.77,1.77,0,0,1,0,.32,3.28,3.28,0,0,0,.08.45.33.33,0,0,0,.18.21A.62.62,0,0,1,81.34,18Zm-2-3a1.3,1.3,0,0,0,.29-.47,1.7,1.7,0,0,0,.11-.63,1.22,1.22,0,0,0-.11-.53,1.06,1.06,0,0,0-.29-.38.55.55,0,0,0-.36-.14H76.79v2.32H79A.51.51,0,0,0,79.39,15Z"/><path class="cls-2" d="M87,17.84a.57.57,0,0,1,.18.42.54.54,0,0,1-.18.42.64.64,0,0,1-.45.16H83.17a.61.61,0,0,1-.62-.62V12.29a.61.61,0,0,1,.62-.62H86.6a.63.63,0,0,1,.45.17.57.57,0,0,1,.18.44.53.53,0,0,1-.18.42.64.64,0,0,1-.45.16H83.82v1.74h2.31a.62.62,0,0,1,.44.17.58.58,0,0,1,.18.44.54.54,0,0,1-.18.42.64.64,0,0,1-.45.16H83.82v1.89H86.6A.61.61,0,0,1,87,17.84Z"/><path class="cls-2" d="M89.39,18.75a3.05,3.05,0,0,1-1.07-.62.72.72,0,0,1-.28-.54.58.58,0,0,1,.17-.41.56.56,0,0,1,.42-.18.55.55,0,0,1,.35.12,3,3,0,0,0,.8.49,2.53,2.53,0,0,0,.92.15,1.85,1.85,0,0,0,1-.26.74.74,0,0,0,.42-.64.82.82,0,0,0-.41-.72,3.48,3.48,0,0,0-1.3-.39q-2.24-.33-2.24-2.09a1.9,1.9,0,0,1,.34-1.12,2.13,2.13,0,0,1,.92-.73,3.24,3.24,0,0,1,1.3-.25,3.72,3.72,0,0,1,1.21.19,2.91,2.91,0,0,1,.95.51.68.68,0,0,1,.3.54.57.57,0,0,1-.18.41.54.54,0,0,1-.41.18.46.46,0,0,1-.28-.09,2.65,2.65,0,0,0-.74-.4,2.45,2.45,0,0,0-.85-.18,1.76,1.76,0,0,0-1,.24.76.76,0,0,0,0,1.3,3.46,3.46,0,0,0,1.14.37,5.87,5.87,0,0,1,1.41.39,1.8,1.8,0,0,1,.79.66,2,2,0,0,1,.27,1.1A1.84,1.84,0,0,1,93,17.93a2.32,2.32,0,0,1-1,.75,3.22,3.22,0,0,1-1.3.26A4.29,4.29,0,0,1,89.39,18.75Z"/><path class="cls-2" d="M100.18,18.28a.58.58,0,0,1-.18.44.56.56,0,0,1-.4.17.53.53,0,0,1-.33-.11.74.74,0,0,1-.23-.31l-.53-1.24H95.46l-.53,1.25a.64.64,0,0,1-.22.3.52.52,0,0,1-.86-.43.63.63,0,0,1,0-.19L96.42,12a.67.67,0,0,1,.25-.32.53.53,0,0,1,.37-.09.6.6,0,0,1,.57.41l2.52,6A.68.68,0,0,1,100.18,18.28ZM96,16.05h2l-1-2.4Z"/><path class="cls-2" d="M106.88,18a.56.56,0,0,1,.08.28.52.52,0,0,1-.12.34.58.58,0,0,1-.47.18.91.91,0,0,1-.45-.11,1.8,1.8,0,0,1-.74-1.71.74.74,0,0,0-.24-.58,1,1,0,0,0-.69-.21h-1.92v2a.67.67,0,0,1-.15.45.49.49,0,0,1-.39.17.8.8,0,0,1-.52-.18.56.56,0,0,1-.22-.45V12.29a.61.61,0,0,1,.62-.62h2.95a1.91,1.91,0,0,1,1,.29,2.12,2.12,0,0,1,.75.79,2.26,2.26,0,0,1,.28,1.13,2,2,0,0,1-.28,1,2.22,2.22,0,0,1-.72.77,1.57,1.57,0,0,1,.71,1.21,1.77,1.77,0,0,1,0,.32,3.28,3.28,0,0,0,.08.45.33.33,0,0,0,.18.21A.62.62,0,0,1,106.88,18Zm-2-3a1.3,1.3,0,0,0,.29-.47,1.7,1.7,0,0,0,.11-.63,1.22,1.22,0,0,0-.11-.53,1.06,1.06,0,0,0-.29-.38.55.55,0,0,0-.36-.14h-2.24v2.32h2.24A.51.51,0,0,0,104.93,15Z"/></svg>