<svg id="Layer_1" data-name="Layer 1" xmlns="http://www.w3.org/2000/svg" viewBox="0 0 165 30.5"><defs><style>.cls-1{fill:#4ca2ae;}.cls-2{fill:#fff;}</style></defs><title>iraLaPantalladeInicio</title><rect class="cls-1" width="165" height="30.5" rx="14.53" ry="14.53"/><path class="cls-2" d="M15.83,18.66a.64.64,0,0,1-.45.18.62.62,0,0,1-.45-.18.6.6,0,0,1-.18-.45V12.29a.59.59,0,0,1,.18-.44.65.65,0,0,1,.47-.18.61.61,0,0,1,.44.18.59.59,0,0,1,.18.44v5.92A.58.58,0,0,1,15.83,18.66Z"/><path class="cls-2" d="M23.39,18a.56.56,0,0,1,.08.28.52.52,0,0,1-.12.34.58.58,0,0,1-.47.18.91.91,0,0,1-.45-.11A1.8,1.8,0,0,1,21.69,17a.74.74,0,0,0-.24-.58,1,1,0,0,0-.69-.21H18.84v2a.67.67,0,0,1-.15.45.49.49,0,0,1-.39.17.8.8,0,0,1-.52-.18.56.56,0,0,1-.22-.45V12.29a.61.61,0,0,1,.62-.62h2.95a1.91,1.91,0,0,1,1,.29,2.12,2.12,0,0,1,.75.79,2.26,2.26,0,0,1,.28,1.13,2,2,0,0,1-.28,1,2.22,2.22,0,0,1-.72.77,1.57,1.57,0,0,1,.71,1.21,1.77,1.77,0,0,1,0,.32,3.28,3.28,0,0,0,.08.45.33.33,0,0,0,.18.21A.62.62,0,0,1,23.39,18Zm-2-3a1.3,1.3,0,0,0,.29-.47,1.7,1.7,0,0,0,.11-.63,1.22,1.22,0,0,0-.11-.53,1.06,1.06,0,0,0-.29-.38.55.55,0,0,0-.36-.14H18.84v2.32h2.24A.51.51,0,0,0,21.44,15Z"/><path class="cls-2" d="M33.14,18.28a.58.58,0,0,1-.18.44.56.56,0,0,1-.4.17.53.53,0,0,1-.33-.11.74.74,0,0,1-.23-.31l-.53-1.24H28.42l-.53,1.25a.64.64,0,0,1-.22.3.52.52,0,0,1-.86-.43.63.63,0,0,1,0-.19L29.38,12a.67.67,0,0,1,.25-.32.53.53,0,0,1,.37-.09.6.6,0,0,1,.57.41l2.52,6A.68.68,0,0,1,33.14,18.28Zm-4.22-2.23h2l-1-2.4Z"/><path class="cls-2" d="M41.27,17.81a.57.57,0,0,1,.18.44.56.56,0,0,1-.18.42.62.62,0,0,1-.45.17H37.5a.61.61,0,0,1-.62-.62V12.29a.59.59,0,0,1,.18-.44.65.65,0,0,1,.47-.18.61.61,0,0,1,.44.18.59.59,0,0,1,.18.44v5.35h2.67A.63.63,0,0,1,41.27,17.81Z"/><path class="cls-2" d="M48.3,18.28a.58.58,0,0,1-.18.44.56.56,0,0,1-.4.17.53.53,0,0,1-.33-.11.74.74,0,0,1-.23-.31l-.53-1.24H43.58L43,18.48a.64.64,0,0,1-.22.3.52.52,0,0,1-.86-.43.63.63,0,0,1,0-.19L44.54,12a.67.67,0,0,1,.25-.32.53.53,0,0,1,.37-.09.6.6,0,0,1,.57.41l2.52,6A.68.68,0,0,1,48.3,18.28Zm-4.22-2.23h2l-1-2.4Z"/><path class="cls-2" d="M56,12a2.3,2.3,0,0,1,.76.84,2.44,2.44,0,0,1,0,2.3A2.3,2.3,0,0,1,56,16a1.76,1.76,0,0,1-1,.31H53.21v1.94a.64.64,0,0,1-.16.45.57.57,0,0,1-.43.17.54.54,0,0,1-.42-.18.64.64,0,0,1-.16-.45V12.29a.61.61,0,0,1,.62-.62H55A1.76,1.76,0,0,1,56,12Zm-.61,3a1.21,1.21,0,0,0,.31-.42,1.34,1.34,0,0,0,0-1.1,1.16,1.16,0,0,0-.31-.42.59.59,0,0,0-.38-.16H53.21v2.26H55A.58.58,0,0,0,55.38,14.94Z"/><path class="cls-2" d="M63.47,18.28a.58.58,0,0,1-.18.44.56.56,0,0,1-.4.17.53.53,0,0,1-.33-.11.74.74,0,0,1-.23-.31l-.53-1.24H58.75l-.53,1.25a.64.64,0,0,1-.22.3.52.52,0,0,1-.86-.43.63.63,0,0,1,0-.19L59.72,12a.67.67,0,0,1,.25-.32.53.53,0,0,1,.37-.09.6.6,0,0,1,.57.41l2.52,6A.68.68,0,0,1,63.47,18.28Zm-4.22-2.23h2l-1-2.4Z"/><path class="cls-2" d="M70.18,11.83a.58.58,0,0,1,.15.41v6a.61.61,0,0,1-.62.62.89.89,0,0,1-.28,0,.4.4,0,0,1-.2-.13l-3.76-4.77v4.37a.56.56,0,0,1-.16.41.55.55,0,0,1-.41.16.52.52,0,0,1-.4-.16.58.58,0,0,1-.15-.41v-6a.61.61,0,0,1,.62-.62.76.76,0,0,1,.3.06.48.48,0,0,1,.22.16l3.73,4.75v-4.4a.57.57,0,0,1,.16-.41.54.54,0,0,1,.4-.16A.53.53,0,0,1,70.18,11.83Z"/><path class="cls-2" d="M77,11.83a.56.56,0,0,1,.18.43.55.55,0,0,1-.18.43.64.64,0,0,1-.45.16H75v5.36a.58.58,0,0,1-.19.45.69.69,0,0,1-.48.18.65.65,0,0,1-.47-.18.6.6,0,0,1-.18-.45V12.85H72a.63.63,0,0,1-.45-.16.56.56,0,0,1-.18-.43.55.55,0,0,1,.18-.42.64.64,0,0,1,.45-.16h4.55A.63.63,0,0,1,77,11.83Z"/><path class="cls-2" d="M83.44,18.28a.58.58,0,0,1-.18.44.56.56,0,0,1-.4.17.53.53,0,0,1-.33-.11.74.74,0,0,1-.23-.31l-.53-1.24H78.72l-.53,1.25a.64.64,0,0,1-.22.3.52.52,0,0,1-.86-.43.63.63,0,0,1,0-.19L79.68,12a.67.67,0,0,1,.25-.32.53.53,0,0,1,.37-.09.6.6,0,0,1,.57.41l2.52,6A.68.68,0,0,1,83.44,18.28Zm-4.22-2.23h2l-1-2.4Z"/><path class="cls-2" d="M88.71,17.81a.57.57,0,0,1,.18.44.56.56,0,0,1-.18.42.62.62,0,0,1-.45.17H84.93a.61.61,0,0,1-.62-.62V12.29a.59.59,0,0,1,.18-.44.65.65,0,0,1,.47-.18.61.61,0,0,1,.44.18.59.59,0,0,1,.18.44v5.35h2.67A.63.63,0,0,1,88.71,17.81Z"/><path class="cls-2" d="M94.46,17.81a.57.57,0,0,1,.18.44.56.56,0,0,1-.18.42.62.62,0,0,1-.45.17H90.69a.61.61,0,0,1-.62-.62V12.29a.59.59,0,0,1,.18-.44.65.65,0,0,1,.47-.18.61.61,0,0,1,.44.18.59.59,0,0,1,.18.44v5.35H94A.63.63,0,0,1,94.46,17.81Z"/><path class="cls-2" d="M101.49,18.28a.58.58,0,0,1-.18.44.56.56,0,0,1-.4.17.53.53,0,0,1-.33-.11.74.74,0,0,1-.23-.31l-.53-1.24H96.77l-.53,1.25a.64.64,0,0,1-.22.3.52.52,0,0,1-.86-.43.63.63,0,0,1,0-.19L97.73,12a.67.67,0,0,1,.25-.32.53.53,0,0,1,.37-.09.6.6,0,0,1,.57.41l2.52,6A.68.68,0,0,1,101.49,18.28Zm-4.22-2.23h2l-1-2.4Z"/><path class="cls-2" d="M109.95,12.14A3,3,0,0,1,111,13.43a4.71,4.71,0,0,1,0,3.63,3,3,0,0,1-1.05,1.29,2.84,2.84,0,0,1-1.65.48h-2.45a.61.61,0,0,1-.62-.62V12.29a.61.61,0,0,1,.62-.62h2.45A2.84,2.84,0,0,1,109.95,12.14ZM109.58,17a3,3,0,0,0,.46-1.73,3,3,0,0,0-.47-1.72,1.56,1.56,0,0,0-1.38-.68H106.5v4.81h1.69A1.56,1.56,0,0,0,109.58,17Z"/><path class="cls-2" d="M117,17.84a.57.57,0,0,1,.18.42.54.54,0,0,1-.18.42.64.64,0,0,1-.45.16h-3.43a.61.61,0,0,1-.62-.62V12.29a.61.61,0,0,1,.62-.62h3.43a.63.63,0,0,1,.45.17.57.57,0,0,1,.18.44.53.53,0,0,1-.18.42.64.64,0,0,1-.45.16h-2.78v1.74h2.31a.62.62,0,0,1,.44.17.58.58,0,0,1,.18.44.54.54,0,0,1-.18.42.64.64,0,0,1-.45.16h-2.31v1.89h2.78A.61.61,0,0,1,117,17.84Z"/><path class="cls-2" d="M122.35,18.66a.64.64,0,0,1-.45.18.62.62,0,0,1-.45-.18.6.6,0,0,1-.18-.45V12.29a.59.59,0,0,1,.18-.44.65.65,0,0,1,.47-.18.61.61,0,0,1,.44.18.59.59,0,0,1,.18.44v5.92A.58.58,0,0,1,122.35,18.66Z"/><path class="cls-2" d="M129.92,11.83a.58.58,0,0,1,.15.41v6a.61.61,0,0,1-.62.62.89.89,0,0,1-.28,0,.4.4,0,0,1-.2-.13l-3.76-4.77v4.37a.56.56,0,0,1-.16.41.55.55,0,0,1-.41.16.52.52,0,0,1-.4-.16.58.58,0,0,1-.15-.41v-6a.61.61,0,0,1,.62-.62.76.76,0,0,1,.3.06.48.48,0,0,1,.22.16L129,16.64v-4.4a.57.57,0,0,1,.16-.41.54.54,0,0,1,.4-.16A.53.53,0,0,1,129.92,11.83Z"/><path class="cls-2" d="M132.69,18.66a.64.64,0,0,1-.45.18.62.62,0,0,1-.45-.18.6.6,0,0,1-.18-.45V12.29a.59.59,0,0,1,.18-.44.65.65,0,0,1,.47-.18.61.61,0,0,1,.44.18.59.59,0,0,1,.18.44v5.92A.58.58,0,0,1,132.69,18.66Z"/><path class="cls-2" d="M139.76,12.54a.7.7,0,0,1-.15.42.51.51,0,0,1-.42.21.75.75,0,0,1-.35-.09,2.69,2.69,0,0,0-2.33.07,2.05,2.05,0,0,0-.82.85,2.65,2.65,0,0,0-.29,1.25,2.42,2.42,0,0,0,.65,1.83,2.63,2.63,0,0,0,2.79.39.84.84,0,0,1,.33-.08.56.56,0,0,1,.45.23.66.66,0,0,1,.15.42.56.56,0,0,1-.08.3.55.55,0,0,1-.23.21,3.76,3.76,0,0,1-1.7.4,4,4,0,0,1-1.84-.43,3.26,3.26,0,0,1-1.34-1.25,3.8,3.8,0,0,1-.5-2,3.69,3.69,0,0,1,.48-1.87,3.36,3.36,0,0,1,1.31-1.3,3.84,3.84,0,0,1,1.89-.47,3.65,3.65,0,0,1,1.69.4A.55.55,0,0,1,139.76,12.54Z"/><path class="cls-2" d="M141.93,18.66a.64.64,0,0,1-.45.18.62.62,0,0,1-.45-.18.6.6,0,0,1-.18-.45V12.29a.59.59,0,0,1,.18-.44.65.65,0,0,1,.47-.18.61.61,0,0,1,.44.18.59.59,0,0,1,.18.44v5.92A.58.58,0,0,1,141.93,18.66Z"/><path class="cls-2" d="M149.8,17.11a3.47,3.47,0,0,1-1.24,1.34,3.5,3.5,0,0,1-3.57,0,3.43,3.43,0,0,1-1.24-1.34,4.11,4.11,0,0,1,0-3.72A3.43,3.43,0,0,1,145,12.06a3.5,3.5,0,0,1,3.57,0,3.46,3.46,0,0,1,1.24,1.34,4.06,4.06,0,0,1,0,3.72ZM148.65,14a2.23,2.23,0,0,0-.77-.88,2,2,0,0,0-2.22,0,2.16,2.16,0,0,0-.76.88,3,3,0,0,0,0,2.5,2.16,2.16,0,0,0,.76.89,2.06,2.06,0,0,0,2.22,0,2.24,2.24,0,0,0,.77-.89,2.94,2.94,0,0,0,0-2.49Z"/></svg>