<svg id="Layer_1" data-name="Layer 1" xmlns="http://www.w3.org/2000/svg" viewBox="0 0 63.25 50.36"><defs><style>.cls-1{font-size:14.95px;fill:#7e6bb0;font-family:Quicksand;font-weight:700;}.cls-2{fill:none;stroke:#7e6bb0;stroke-miterlimit:10;stroke-width:1.3px;}</style></defs><title>Libertad</title><text class="cls-1" transform="translate(1.05 45.82)">Libertad</text><path class="cls-2" d="M99.4,58.37c0.44-2.92-3.65-8.92-6.34-8.77s-5.22,3.71-8.15,4S73.76,52.37,71.63,50.4,71.47,60,81.75,59.73c0,0-5.54,1.27-7.59.71s1.27,5.62,9.81,2.93a3.85,3.85,0,0,1-1.58,2.69c-1.34.71,2.29,1.82,5.85-.47a6.73,6.73,0,0,1-.87,3c-0.47.87,3.16,0.08,4.46-2.06,0,0,.35,2.37,0,2.93S97.66,69.84,99.4,58.37Z" transform="translate(-70.21 -48.95)"/><path class="cls-2" d="M104.26,58.37c-0.44-2.92,3.65-8.92,6.34-8.77s5.22,3.71,8.15,4S129.9,52.37,132,50.4s0.16,9.65-10.12,9.33c0,0,5.54,1.27,7.59.71s-1.26,5.62-9.81,2.93a3.85,3.85,0,0,0,1.58,2.69c1.34,0.71-2.29,1.82-5.85-.47a6.75,6.75,0,0,0,.87,3c0.47,0.87-3.15.08-4.46-2.06,0,0-.35,2.37,0,2.93S106,69.84,104.26,58.37Z" transform="translate(-70.21 -48.95)"/></svg>