<svg xmlns="http://www.w3.org/2000/svg" viewBox="0 0 502.28 198.55"><defs><style>.cls-1{fill:#584e89;}.cls-1,.cls-10,.cls-12,.cls-13,.cls-3{fill-rule:evenodd;}.cls-2{fill:#f2d385;}.cls-3,.cls-4{fill:#e8ba69;}.cls-5{fill:#cf629c;}.cls-6{fill:#c75998;}.cls-7{fill:#d691ba;}.cls-8{fill:#c54e92;}.cls-9{fill:#fff;}.cls-10{fill:#e6b250;}.cls-11{fill:#2b2740;}.cls-12{fill:#685a9f;}.cls-13{fill:#7267a8;}.cls-14{fill:#a6d0e1;}.cls-15{fill:#222220;opacity:0.8;}</style></defs><title>personaje2</title><g id="Cabello"><path class="cls-1" d="M1100.08,199.47a90.22,90.22,0,0,1-3.93,21.07q-1,3.18-2.16,6.44h0a133.52,133.52,0,0,1-6.91,15.62c-.37.72-.75,1.45-1.15,2.17a1.27,1.27,0,0,1-.12.23l-.19.35-.94,1.7-.08.14-.45.79h0c-1,1.76-2,3.48-3.09,5.16l-.08.12q-3.3,5.21-6.86,9.85c-1.94,2.55-3.94,5-6,7.23-.67.75-1.35,1.49-2,2.2s-1.46,1.54-2.2,2.27l0,0-.21.21c-10.31,10.23-21,16.5-30,17.27V208q3.06-4.71,6.34-8.93,2.14-2.78,4.36-5.33A96.79,96.79,0,0,1,1059,179.84h0a54.22,54.22,0,0,1,13-7.49,26.08,26.08,0,0,1,11.48-1.95,16.36,16.36,0,0,1,2.36.37,15.1,15.1,0,0,1,4.22,1.61,14.5,14.5,0,0,1,2.5,1.77h0a17,17,0,0,1,3.15,3.63,26,26,0,0,1,3.48,8.76h0A49.07,49.07,0,0,1,1100.08,199.47Z" transform="translate(-1033.68 -134.49)"/><path class="cls-2" d="M1082.65,240.29c2.24,2,3.2,5.18,3.71,8.38a59.67,59.67,0,0,1,.26,15.07c-.46,4.89-1.34,9.78-2.24,14.66-1.17,6.44-2.38,12.87-3.59,19.3a117.47,117.47,0,0,1-2.72,12c-1.29,4.29-2.47,10.33-5.84,13.23s-9.22,2-11.76-.9c-2.22-2.58-1.84-6.84-1.35-10.64,2.23-17,3.56-27.22,5.78-44.24.41-3.14,2-15.78,2.94-18.87C1069.86,241.53,1075.82,234.34,1082.65,240.29Z" transform="translate(-1033.68 -134.49)"/><path class="cls-2" d="M1129.88,294.26c.14.26.59.37,1.75-.28s.88-1.41,1.14-1.52c6.59-2.87,10.54-5.83,15.92-10.68,1.22-1.1,2.48-2.41,2.6-4,.06-.83.89-2.73.63-3.51-.65-1.88-2.71-2.84-4.63-3.34a5.61,5.61,0,0,0-4.11,1c-1.25.75-2.91,2.63-4.2,3.3-1.1.57-2.51,1.45-2.87,1.3s2.07-2.06,1.41-2.88-2,.13-2.79.76c-2.62,2-4.62,6.21-7.24,8.19-2.41,1.81-1.93.62-1.27,2.83A53.69,53.69,0,0,0,1129.88,294.26Z" transform="translate(-1033.68 -134.49)"/><path class="cls-2" d="M1062.32,325.47c2.09,1.27,5.14,1,8.1.46,4.51-.88,8.91-3,13.46-5,4.35-1.95,8.68-4.23,13-6.54,5.66-3,13.05-7.52,14.75-8.48,3.51-2,9.83-5.7,13.26-8,3.69-2.45,9.5-6.13,11.91-9.76a4.13,4.13,0,0,0-1.43-5.71c-2.59-1.15-11.28,1.68-14.68,3.24-10.14,4.67-21.41,8.94-36.49,16.22-2.78,1.34-14,6.73-16.66,8.48C1061.65,314.28,1056,321.6,1062.32,325.47Z" transform="translate(-1033.68 -134.49)"/><path class="cls-3" d="M1076.24,291.24s-2,13.9-8.73,19.18l12-6.21,2.21-11.33Z" transform="translate(-1033.68 -134.49)"/><path class="cls-2" d="M1039.1,217.16a8.22,8.22,0,0,1,0,1.21,13.22,13.22,0,0,1-1.12,4,20.52,20.52,0,0,1-3.49,5.31c-.2.22-.46.49-.78.79V210.88l.08,0,.42.15a4.35,4.35,0,0,1,.63.25,2.43,2.43,0,0,1,.37.16,7.56,7.56,0,0,1,1.09.62,6.37,6.37,0,0,1,1.41,1.25A6.17,6.17,0,0,1,1039.1,217.16Z" transform="translate(-1033.68 -134.49)"/><path class="cls-2" d="M1083.45,248.26a25.27,25.27,0,0,1-2.4,4.9l-.08.12c-1.48,2.64-3.4,6-5.08,9.34,0,0,0,0,0,0-1.14,2.31-4.25,5.91-8.1,10.1h0l-2.11,2.25h0c-.66.72-1.35,1.46-2.05,2.2l-.65.7-.1.11h0c-6.67,7.08-13.95,14.91-17.29,20.88-7.5,13.37-7.81,23.24-11.86,31.07V212a4.6,4.6,0,0,1,.64,0c.26,0,1,0,2,.1a20.38,20.38,0,0,1,4.94.8,9.65,9.65,0,0,0,1,.26c1.71.37,4.3.63,7,1.35a20.09,20.09,0,0,1,2.39.77,1.62,1.62,0,0,1,.28.11.77.77,0,0,1,.19.08.31.31,0,0,1,.12.05,14.27,14.27,0,0,1,1.88.93c3.47,1.89,4.55,2,7.47,3.84,3,1.51,3.64,2.75,7,4.7a16.55,16.55,0,0,1,2,1.29l.17.12,0,0h0l.36.28h0c3,2.41,5,5.41,6.53,6.67a13.92,13.92,0,0,1,1.43,1.44,42.4,42.4,0,0,1,3,4.07,6,6,0,0,1,.67,1.46h0a17.16,17.16,0,0,1,.74,4.12A18.58,18.58,0,0,1,1083.45,248.26Z" transform="translate(-1033.68 -134.49)"/><path class="cls-4" d="M1055.12,209.79a21.66,21.66,0,0,1-3.91,6.63,6.75,6.75,0,0,0,.53,1.08c2.71,4.59,10.88,7.72,15.46,8.85,1.9.47,3.19.6,3.21.34.21-2.23,1.74-4.58,2.94-6.11l0-.05h0c.79-1,1.42-1.64,1.42-1.64l-19.2-10.83c0,.24-.11.49-.17.73S1055.24,209.47,1055.12,209.79Z" transform="translate(-1033.68 -134.49)"/><path class="cls-2" d="M1103.9,192.71c5.84-10.37,1.54-23.86-9.61-30.15s-24.92-3-30.77,7.39a20.54,20.54,0,0,0-2.07,5.41c-.21.42-.44.84-.69,1.28a60.59,60.59,0,0,0-5.47,11.67c-2.62,8-2.67,16.75,2.06,24.8a18,18,0,0,0,6.49,6.79c3.78,2.09,8.32,2.1,12.29,1.17,13.11-3.06,20.58-14.57,26.32-26.16A20.9,20.9,0,0,0,1103.9,192.71Z" transform="translate(-1033.68 -134.49)"/><path class="cls-5" d="M1052.44,215.13l-.29.11-.34.13-10.65,4.09-3.21,2.91-2.87,2.59-1.4,1.27V211.46a0,0,0,0,1,0,0c.49,0,1,0,1.45,0a46.52,46.52,0,0,1,7.46.79,53.14,53.14,0,0,1,7.63,2c.4.14.75.27,1,.39l.29.12c.32.12.55.22.68.28l.14.06Z" transform="translate(-1033.68 -134.49)"/><polygon class="cls-6" points="1.39 89.41 0 90.91 0 90.58 1.39 89.41"/><path class="cls-7" d="M1052.42,215.12l-.16,0c-.41-.09-1.52-.33-3.12-.6-1.86-.31-4.38-.68-7.23-.92-1.35-.11-2.77-.2-4.23-.24s-2.65,0-4,0v-2.07h1.13a46.65,46.65,0,0,1,7.87.87,50.78,50.78,0,0,1,7.59,2.1c.4.14.75.27,1,.39l.29.12c.32.12.55.22.68.28Z" transform="translate(-1033.68 -134.49)"/><path class="cls-5" d="M1088.23,258.66c1.08-19.59-17.58-32.38-17.58-32.38l2.14,11.88-1.56,8.06-7,36,19.79,8.88A312.66,312.66,0,0,0,1088.23,258.66Z" transform="translate(-1033.68 -134.49)"/><polygon class="cls-6" points="38.46 111.18 27.01 151 31.67 153.22 38.46 111.18"/><path class="cls-7" d="M1088.4,258.08c1-19.16-17.75-31.8-17.75-31.8s16.53,17,15.56,30.1c-.23,3.16-2.33,17.47-4.86,32l3.07,1.37A296.76,296.76,0,0,0,1088.4,258.08Z" transform="translate(-1033.68 -134.49)"/><path class="cls-8" d="M1086.35,287.65l-25-6.46-1.07,4.76,24.52,7.94a1.94,1.94,0,0,0,2.47-1.36l.58-2.3A2.13,2.13,0,0,0,1086.35,287.65Z" transform="translate(-1033.68 -134.49)"/><path class="cls-5" d="M1074.57,241.36l-3.52,11.07h0v0l-2.61,8.2-.47,1.48s0,0,0,0l-.7,2.19-3.34,10.49,0,.07v0l-1,3-.71,2.22a0,0,0,0,1,0,0c-.59.63-19.27,20.93-28.54,52.87V224l5.39-5.64,1.49-1.57,11-1.54.68-.1.23,0-.32.37c-.21.25-.51.63-.83,1.1-2,3-5.07,9.85,5.33,14.65,12.86,5.93,13.94-3.77,14-4.87a.67.67,0,0,0,0-.1l0,.13,3.32,12.74h0Z" transform="translate(-1033.68 -134.49)"/><path class="cls-8" d="M1043.1,277.93l-.23.14a2.72,2.72,0,0,1-.76.24,3.88,3.88,0,0,1-1.29-.06,7.36,7.36,0,0,1-1.6-.54,19.54,19.54,0,0,1-3.66-2.22,21.77,21.77,0,0,1-1.88-1.65v-2.92c.51.52,1,1,1.4,1.53s1.08,1.19,1.62,1.72a31.29,31.29,0,0,0,3,2.65,5.32,5.32,0,0,0,2.35,1.16,2.25,2.25,0,0,0,.74,0Z" transform="translate(-1033.68 -134.49)"/><path class="cls-7" d="M1073.51,209.88c-1.06-.16-2.75-2.81-4-3.38s-.89-.78-1.66-1.4-2.91-1.55-3.84-3a9.84,9.84,0,0,0,.37,5.15,5.66,5.66,0,0,0,4,3.29A8.82,8.82,0,0,0,1073.51,209.88Z" transform="translate(-1033.68 -134.49)"/><path class="cls-7" d="M1074.74,210l-.17,0-.47-.08a15.3,15.3,0,0,1-1.68-.3,8.63,8.63,0,0,1-1.08-.32,10.28,10.28,0,0,1-1.15-.5,8.36,8.36,0,0,1-1.14-.68,12.33,12.33,0,0,1-1.08-.86,14.63,14.63,0,0,1-3.29-3.89,9.25,9.25,0,0,1-.41-.86,5.55,5.55,0,0,1-.25-.7c-.06-.2-.11-.35-.13-.46l-.05-.17,0,.17a4.6,4.6,0,0,0,.07.48,4.38,4.38,0,0,0,.17.73,6.17,6.17,0,0,0,.33.93,11.49,11.49,0,0,0,.54,1,8.58,8.58,0,0,0,.74,1.07,14.78,14.78,0,0,0,1.94,2,10.81,10.81,0,0,0,1.14.88,8,8,0,0,0,2.44,1.13,11.43,11.43,0,0,0,1.14.26,12.36,12.36,0,0,0,1.72.12l.48,0Z" transform="translate(-1033.68 -134.49)"/><path class="cls-9" d="M1072.88,209.78a14.64,14.64,0,0,1-8.48-7,7.45,7.45,0,0,0,3.14,5.69A7.19,7.19,0,0,0,1072.88,209.78Z" transform="translate(-1033.68 -134.49)"/><path class="cls-10" d="M1075.34,202c-3.78-1.21-4-4.05-3-5.8C1069.63,198.94,1071,202,1075.34,202Z" transform="translate(-1033.68 -134.49)"/><path class="cls-11" d="M1071.5,185.1a1.63,1.63,0,0,1-.09.94c-.41,1.05-1.21,2.91-2.59,2.84-1.66-.09-1.3-2.15-.78-3.16a3.22,3.22,0,0,1,1.53-1.56A1.35,1.35,0,0,1,1071.5,185.1Z" transform="translate(-1033.68 -134.49)"/><path class="cls-11" d="M1072.39,186.27s-.48-2.85-5.28-3C1067.11,183.29,1072.2,182.38,1072.39,186.27Z" transform="translate(-1033.68 -134.49)"/><path class="cls-11" d="M1087,193.84a1.65,1.65,0,0,0-.77.55c-.68.9-1.85,2.54-1.08,3.69.94,1.37,2.51,0,3.1-1a3.11,3.11,0,0,0,.55-2.11A1.35,1.35,0,0,0,1087,193.84Z" transform="translate(-1033.68 -134.49)"/><path class="cls-11" d="M1085.53,193.68s2.69-1.07,5.28,3C1090.81,196.65,1089,191.83,1085.53,193.68Z" transform="translate(-1033.68 -134.49)"/><path class="cls-3" d="M1106.79,212.74a5.25,5.25,0,0,0,1.07-.77,15.61,15.61,0,0,1-1.44,4c-.15-.42-.32-.84-.51-1.27a3.55,3.55,0,0,0-.64-.94A10.77,10.77,0,0,1,1106.79,212.74Z" transform="translate(-1033.68 -134.49)"/><path class="cls-3" d="M1093.74,163.77c10.71,0,19.58,15,15.81,27.41a32.59,32.59,0,0,0-1.41,10l-.55.13c-1.87-2.67-6.44-3.59-8.57.11a87,87,0,0,1-5.16,7.58,10,10,0,0,0-.52-4.8c-2.46-5.75-.5-7,3.1-15.18s-6.33-7.4-8.2-17.32C1087.53,167.64,1083,163.76,1093.74,163.77Z" transform="translate(-1033.68 -134.49)"/><path class="cls-3" d="M1092.69,202.52a38,38,0,0,1-20,19s11.1.31,21.22-12.51A5.57,5.57,0,0,0,1092.69,202.52Z" transform="translate(-1033.68 -134.49)"/><path class="cls-12" d="M1078.88,179.91c-1.55-1.39-4-3.83-8.56-2.88-2.06.42-2.13,1.14,0,.88,3.69-.44,5.08,1.18,7.55,3.3C1078.88,182,1079.93,180.85,1078.88,179.91Z" transform="translate(-1033.68 -134.49)"/><path class="cls-12" d="M1088.53,185.35c2,.6,5.33,1.43,6.9,5.83.7,2,.12,2.41-.78.42-1.54-3.39-3.64-3.74-6.73-4.76C1086.72,186.44,1087.18,184.94,1088.53,185.35Z" transform="translate(-1033.68 -134.49)"/><path class="cls-12" d="M1090.86,169.62c1.86,9.91,11.8,9.17,8.2,17.32s-5.57,9.43-3.11,15.18-2.7,17.41-9.69,23.86-9.35,11.19-9.31,18.26-2,10.92-6.53,15.4-7.08,6.78,7.18,2.47,17.66-15.27,19.26-26.43,3-9.36,10.22-18.75,1.3-15.5,5.08-27.86-5.09-27.4-15.81-27.41S1090.14,165.53,1090.86,169.62Z" transform="translate(-1033.68 -134.49)"/><path class="cls-13" d="M1098.16,164.7c-1.5,4.94,3.44,9.87,6.37,13s4,7.37.63,11.88-3.45,12.89-2.38,16.7-5.63,14-11.17,19.43c-5.13,5.06-6.83,15.9-7.2,20.25-.4,4.65-2.23,9.8-5.92,11.79,5-1.07,7.54-5.83,8.29-12s.08-10.72,7-18.51c8.77-9.87,12.62-13.09,11.37-22-1-7.07-1.53-8.23,1.89-14s4.14-9.24,0-14S1097.89,170.12,1098.16,164.7Z" transform="translate(-1033.68 -134.49)"/><path class="cls-12" d="M1091.4,169.93a3.81,3.81,0,0,1-.44.15,12.58,12.58,0,0,1-5.1.69,14.37,14.37,0,0,1-2.36-.37c-4.57-1-7.73-3.42-11.16,1.48l-.32.47c-4.79,6.93-5,9.2-11,10.05a9.61,9.61,0,0,0-4.11,1.81c-5,3.54-9.8,11.54-11.3,18.84a37.17,37.17,0,0,1-2.88,9.12l0,.08c-.16.31-.31.6-.48.89s-.16.29-.25.43a16.91,16.91,0,0,1-2.81,3.59,22,22,0,0,1-4.33,3.3c-.38.23-.74.45-1.09.68V197.39c6.5-5.65,4.9-6.71,8.85-16.84,4.31-11,12.58-9.14,21.2-18.78s26.08-9.83,31.64-.66c.12.19.23.38.33.56a20.42,20.42,0,0,1,1.4,2.73C1099.35,169.81,1094.72,168.64,1091.4,169.93Z" transform="translate(-1033.68 -134.49)"/><path class="cls-13" d="M1091.83,161.14c0,.05-.09.1-.15.15-3.48,3.64-10.13,2-14.29,1.14s-8.4.37-10.5,5.61a16.6,16.6,0,0,1-5.2,6.38,24.52,24.52,0,0,1-7.85,4.31c-3.09.86-7.08,8.19-9.46,15-.56,1.62-1,3.2-1.38,4.65-1.11,4.66-5.18,9.34-8.82,12.71l-.27.24-.18.17,0,0v-2.73A21.48,21.48,0,0,0,1040,199c.2-.56.4-1.15.59-1.77,3.91-12.61,4.67-17.57,13-21.14,6.56-2.82,7.84-3,11-8.88,3.28-6.1,5.76-8.33,12-7.19l.12,0h0c6,1.15,10.5,4,14.9,1.21h0Z" transform="translate(-1033.68 -134.49)"/><path class="cls-14" d="M1110.7,207.94,1134.76,223v20.92c0,15.54,11,25.92,26.5,25.92h344.93c15.54,0,29.77-10.38,29.77-25.92V164.86c0-15.55-14.23-30.37-29.77-30.37H1161.26c-15.54,0-26.5,14.82-26.5,30.37v25.85Z" transform="translate(-1033.68 -134.49)"/><path class="cls-15" d="M1204.2,196.89a.72.72,0,0,1-.21.53.74.74,0,0,1-.51.2.64.64,0,0,1-.4-.13.88.88,0,0,1-.3-.38l-1-2.35h-5l-1,2.37a.68.68,0,0,1-.27.37.7.7,0,0,1-.4.12.74.74,0,0,1-.52-.17.69.69,0,0,1-.17-.48,2,2,0,0,1,0-.26l4.08-9.89a1,1,0,0,1,.31-.39.67.67,0,0,1,.46-.1.73.73,0,0,1,.43.13.62.62,0,0,1,.27.36l4.07,9.76A1.06,1.06,0,0,1,1204.2,196.89Zm-6.75-3.59h3.73l-1.87-4.48Z" transform="translate(-1033.68 -134.49)"/><path class="cls-15" d="M1213,189.38a.77.77,0,0,1,.22.56V200a.77.77,0,0,1-.22.54.73.73,0,0,1-.55.23.75.75,0,0,1-.55-.22.79.79,0,0,1-.2-.55v-3.65a3.28,3.28,0,0,1-1.13,1,3.19,3.19,0,0,1-1.56.41,3.62,3.62,0,0,1-2-.56,4,4,0,0,1-1.39-1.56,5.26,5.26,0,0,1,0-4.5,3.89,3.89,0,0,1,1.38-1.56,3.66,3.66,0,0,1,3.51-.21,3.47,3.47,0,0,1,1.17.91v-.32a.83.83,0,0,1,.2-.56.71.71,0,0,1,.55-.22A.72.72,0,0,1,1213,189.38Zm-2.48,6.56a2.59,2.59,0,0,0,.91-1.05,3.67,3.67,0,0,0,0-3,2.62,2.62,0,0,0-.91-1.06,2.54,2.54,0,0,0-2.67,0,2.55,2.55,0,0,0-.91,1.06,3.67,3.67,0,0,0,0,3,2.52,2.52,0,0,0,.91,1.05,2.48,2.48,0,0,0,2.67,0Z" transform="translate(-1033.68 -134.49)"/><path class="cls-15" d="M1222.24,189.42a.72.72,0,0,1,.22.54v4.26a3.67,3.67,0,0,1-6.1,2.58,3.54,3.54,0,0,1-.91-2.58V190a.72.72,0,0,1,.22-.54.7.7,0,0,1,.53-.23.75.75,0,0,1,.77.77v4.26c0,1.39.66,2.09,2,2.09a2,2,0,0,0,1.49-.53,2.16,2.16,0,0,0,.51-1.56V190a.72.72,0,0,1,.22-.54.7.7,0,0,1,.53-.23A.72.72,0,0,1,1222.24,189.42Z" transform="translate(-1033.68 -134.49)"/><path class="cls-15" d="M1226,197.35a.75.75,0,0,1-.56.23.7.7,0,0,1-.53-.23.73.73,0,0,1-.22-.54v-6.93a.75.75,0,0,1,.22-.55.73.73,0,0,1,.53-.22.74.74,0,0,1,.77.77v6.93A.76.76,0,0,1,1226,197.35Zm-.88-8.86a.35.35,0,0,1-.12-.31.57.57,0,0,1,.09-.28l1-1.59a1.25,1.25,0,0,1,.31-.37.68.68,0,0,1,.42-.14.73.73,0,0,1,.54.18.64.64,0,0,1,.17.49.84.84,0,0,1-.24.56l-1.2,1.31a.88.88,0,0,1-.64.26A.5.5,0,0,1,1225.08,188.49Z" transform="translate(-1033.68 -134.49)"/><path class="cls-15" d="M1239,189.6a3.85,3.85,0,0,1,1.39,1.54,5.27,5.27,0,0,1,0,4.48,3.91,3.91,0,0,1-1.39,1.54,3.56,3.56,0,0,1-1.93.56,3.32,3.32,0,0,1-1.56-.37,3.54,3.54,0,0,1-1.16-.89V200a.77.77,0,0,1-.22.54.73.73,0,0,1-.55.23.74.74,0,0,1-.75-.77V189.94a.83.83,0,0,1,.2-.56.71.71,0,0,1,.55-.22.72.72,0,0,1,.55.22.8.8,0,0,1,.22.56v.47a3,3,0,0,1,1.12-1,3.18,3.18,0,0,1,1.56-.4A3.61,3.61,0,0,1,1239,189.6Zm-.81,6.33a2.68,2.68,0,0,0,.92-1.05,3.65,3.65,0,0,0,0-3,2.61,2.61,0,0,0-.92-1,2.37,2.37,0,0,0-1.33-.38,2.49,2.49,0,0,0-1.35.37,2.55,2.55,0,0,0-.92,1,3.7,3.7,0,0,0,0,3,2.68,2.68,0,0,0,.92,1.05,2.49,2.49,0,0,0,1.35.37A2.46,2.46,0,0,0,1238.16,195.93Z" transform="translate(-1033.68 -134.49)"/><path class="cls-15" d="M1249.41,189.42a.72.72,0,0,1,.22.54v4.26a3.51,3.51,0,1,1-7,0V190a.72.72,0,0,1,.22-.54.7.7,0,0,1,.53-.23.77.77,0,0,1,.77.77v4.26c0,1.39.66,2.09,2,2.09a2,2,0,0,0,1.49-.53,2.16,2.16,0,0,0,.51-1.56V190a.75.75,0,0,1,.75-.77A.73.73,0,0,1,1249.41,189.42Z" transform="translate(-1033.68 -134.49)"/><path class="cls-15" d="M1259,193.55a.79.79,0,0,1-.53.2h-5.63a2.73,2.73,0,0,0,2.78,2.58,2.94,2.94,0,0,0,1.25-.23,3.33,3.33,0,0,0,.85-.57.86.86,0,0,1,.46-.15.61.61,0,0,1,.46.2.6.6,0,0,1,.18.44.76.76,0,0,1-.32.61,3.9,3.9,0,0,1-1.23.79,4.08,4.08,0,0,1-1.57.32,4.69,4.69,0,0,1-2.28-.55,3.83,3.83,0,0,1-1.52-1.52,4.6,4.6,0,0,1-.53-2.21,4.87,4.87,0,0,1,.55-2.36,4.07,4.07,0,0,1,1.46-1.56,3.71,3.71,0,0,1,1.94-.54,3.75,3.75,0,0,1,1.92.53,3.93,3.93,0,0,1,1.44,1.45,4.2,4.2,0,0,1,.56,2.08A.66.66,0,0,1,1259,193.55Zm-5.23-2.64a2.5,2.5,0,0,0-.87,1.56h4.72v-.13a1.92,1.92,0,0,0-.76-1.39,2.39,2.39,0,0,0-1.54-.54A2.5,2.5,0,0,0,1253.79,190.91Z" transform="translate(-1033.68 -134.49)"/><path class="cls-15" d="M1268.37,186a.74.74,0,0,1,.22.55v10.31a.77.77,0,0,1-.77.77.72.72,0,0,1-.54-.22.75.75,0,0,1-.21-.55v-.45a3.28,3.28,0,0,1-1.13,1,3.19,3.19,0,0,1-1.56.41,3.62,3.62,0,0,1-2-.56,4,4,0,0,1-1.39-1.56,4.9,4.9,0,0,1-.51-2.25,5,5,0,0,1,.5-2.25,3.84,3.84,0,0,1,1.39-1.56,3.54,3.54,0,0,1,1.93-.56,3.58,3.58,0,0,1,1.57.35,3.47,3.47,0,0,1,1.17.91V186.5a.77.77,0,0,1,.21-.55.72.72,0,0,1,.54-.21A.75.75,0,0,1,1268.37,186Zm-2.48,10a2.59,2.59,0,0,0,.91-1.05,3.67,3.67,0,0,0,0-3,2.62,2.62,0,0,0-.91-1.06,2.54,2.54,0,0,0-2.67,0,2.62,2.62,0,0,0-.91,1.06,3.67,3.67,0,0,0,0,3,2.59,2.59,0,0,0,.91,1.05,2.48,2.48,0,0,0,2.67,0Z" transform="translate(-1033.68 -134.49)"/><path class="cls-15" d="M1278,193.55a.77.77,0,0,1-.52.2h-5.64a2.79,2.79,0,0,0,.89,1.87,2.73,2.73,0,0,0,1.9.71,3,3,0,0,0,1.25-.23,3.11,3.11,0,0,0,.84-.57.89.89,0,0,1,.47-.15.59.59,0,0,1,.45.2.58.58,0,0,1,.19.44.79.79,0,0,1-.32.61,3.9,3.9,0,0,1-1.23.79,4.16,4.16,0,0,1-1.57.32,4.63,4.63,0,0,1-2.28-.55,3.71,3.71,0,0,1-1.52-1.52,4.49,4.49,0,0,1-.54-2.21,5,5,0,0,1,.55-2.36,4.15,4.15,0,0,1,1.46-1.56,3.75,3.75,0,0,1,3.86,0,3.93,3.93,0,0,1,1.44,1.45,4.1,4.1,0,0,1,.56,2.08A.66.66,0,0,1,1278,193.55Zm-5.23-2.64a2.49,2.49,0,0,0-.86,1.56h4.72v-.13a2,2,0,0,0-.76-1.39,2.44,2.44,0,0,0-1.55-.54A2.52,2.52,0,0,0,1272.73,190.91Z" transform="translate(-1033.68 -134.49)"/><path class="cls-15" d="M1279.34,195.83a.64.64,0,0,1,.34-.54.57.57,0,0,1,.36-.11.72.72,0,0,1,.53.24,3.47,3.47,0,0,0,1,.81,3,3,0,0,0,1.32.27,2.22,2.22,0,0,0,1.08-.28,1,1,0,0,0,0-1.68,5.18,5.18,0,0,0-1.39-.53,9.66,9.66,0,0,1-1.48-.51,2.59,2.59,0,0,1-1-.76,2.25,2.25,0,0,1,0-2.59,2.79,2.79,0,0,1,1.08-.85,3.66,3.66,0,0,1,1.48-.3,4.28,4.28,0,0,1,1.53.29,2.79,2.79,0,0,1,1.24.88.64.64,0,0,1-.06,1,.66.66,0,0,1-.87,0,2.13,2.13,0,0,0-.82-.59,2.74,2.74,0,0,0-1.08-.21,1.94,1.94,0,0,0-1,.25.87.87,0,0,0-.43.84.94.94,0,0,0,.49.83,6.36,6.36,0,0,0,1.45.53,9.17,9.17,0,0,1,1.41.48,2.38,2.38,0,0,1,.94.76,2.07,2.07,0,0,1,.39,1.32,2,2,0,0,1-.44,1.3,2.74,2.74,0,0,1-1.12.85,3.73,3.73,0,0,1-1.48.3,4.76,4.76,0,0,1-1.87-.36,3.42,3.42,0,0,1-1.45-1.12A.84.84,0,0,1,1279.34,195.83Z" transform="translate(-1033.68 -134.49)"/><path class="cls-15" d="M1299.15,193.55a.79.79,0,0,1-.53.2H1293a2.75,2.75,0,0,0,.89,1.87,2.69,2.69,0,0,0,1.89.71,3,3,0,0,0,1.25-.23,3.33,3.33,0,0,0,.85-.57.86.86,0,0,1,.46-.15.61.61,0,0,1,.46.2.6.6,0,0,1,.18.44.79.79,0,0,1-.32.61,3.9,3.9,0,0,1-1.23.79,4.12,4.12,0,0,1-1.57.32,4.69,4.69,0,0,1-2.28-.55,3.83,3.83,0,0,1-1.52-1.52,4.49,4.49,0,0,1-.53-2.21,4.87,4.87,0,0,1,.55-2.36,4.12,4.12,0,0,1,1.45-1.56,3.77,3.77,0,0,1,3.87,0,4.08,4.08,0,0,1,1.44,1.45,4.2,4.2,0,0,1,.56,2.08A.66.66,0,0,1,1299.15,193.55Zm-5.23-2.64a2.5,2.5,0,0,0-.87,1.56h4.72v-.13A2,2,0,0,0,1297,191a2.41,2.41,0,0,0-1.54-.54A2.48,2.48,0,0,0,1293.92,190.91Z" transform="translate(-1033.68 -134.49)"/><path class="cls-15" d="M1308.3,192.46v4.35a.73.73,0,0,1-.22.54.72.72,0,0,1-.55.23.7.7,0,0,1-.53-.23.73.73,0,0,1-.22-.54v-4.34a2.37,2.37,0,0,0-.43-1.5,1.66,1.66,0,0,0-1.41-.56,2.37,2.37,0,0,0-1.16.28,2.05,2.05,0,0,0-.82.75,2,2,0,0,0-.29,1v4.34a.77.77,0,0,1-.77.77.72.72,0,0,1-.54-.22.75.75,0,0,1-.21-.55V190a.75.75,0,0,1,.75-.77.73.73,0,0,1,.55.23.72.72,0,0,1,.22.54v.56a3.28,3.28,0,0,1,1.16-1.08,3.07,3.07,0,0,1,1.59-.44Q1308.3,189,1308.3,192.46Z" transform="translate(-1033.68 -134.49)"/><path class="cls-15" d="M1316.32,189.4q.84.4.84,1a.79.79,0,0,1-.17.49.55.55,0,0,1-.45.22.62.62,0,0,1-.33-.07,2.7,2.7,0,0,1-.33-.21,2,2,0,0,0-.3-.22,2.2,2.2,0,0,0-.54-.16,3.91,3.91,0,0,0-.64-.06,2.88,2.88,0,0,0-1.48.38,2.73,2.73,0,0,0-1,1.06,3.33,3.33,0,0,0-.35,1.52,3.3,3.3,0,0,0,.34,1.52,2.64,2.64,0,0,0,2.4,1.44,3,3,0,0,0,1.34-.26l.3-.21a2.33,2.33,0,0,1,.28-.19.67.67,0,0,1,.3-.06.62.62,0,0,1,.5.2.69.69,0,0,1,.19.52.88.88,0,0,1-.43.66,3.4,3.4,0,0,1-1.13.54,5.44,5.44,0,0,1-1.53.21,4,4,0,0,1-2.14-.57,3.83,3.83,0,0,1-1.44-1.57,5,5,0,0,1-.5-2.23,4.71,4.71,0,0,1,.53-2.23,3.91,3.91,0,0,1,1.47-1.57,4.1,4.1,0,0,1,2.16-.57A4.83,4.83,0,0,1,1316.32,189.4Z" transform="translate(-1033.68 -134.49)"/><path class="cls-15" d="M1326.17,195.62a4.09,4.09,0,0,1-1.53,1.56,4.18,4.18,0,0,1-2.13.56,4.13,4.13,0,0,1-3.67-2.12,4.49,4.49,0,0,1-.56-2.24,4.58,4.58,0,0,1,.56-2.25,4.12,4.12,0,0,1,1.53-1.57,4.25,4.25,0,0,1,2.14-.56,4.18,4.18,0,0,1,2.13.56,4,4,0,0,1,1.53,1.57,4.58,4.58,0,0,1,.56,2.25A4.49,4.49,0,0,1,1326.17,195.62Zm-1.32-3.78a2.69,2.69,0,0,0-1-1.06,2.72,2.72,0,0,0-2.74,0,2.71,2.71,0,0,0-1,1.06,3.24,3.24,0,0,0-.36,1.54,3.13,3.13,0,0,0,.36,1.52,2.69,2.69,0,0,0,1,1,2.66,2.66,0,0,0,2.74,0,2.66,2.66,0,0,0,1-1,3.13,3.13,0,0,0,.36-1.52A3.24,3.24,0,0,0,1324.85,191.84Z" transform="translate(-1033.68 -134.49)"/><path class="cls-15" d="M1335.64,192.46v4.35a.76.76,0,0,1-.21.54.75.75,0,0,1-.55.23.71.71,0,0,1-.54-.23.73.73,0,0,1-.22-.54v-4.34a2.37,2.37,0,0,0-.43-1.5,1.66,1.66,0,0,0-1.41-.56,2.4,2.4,0,0,0-1.16.28,2,2,0,0,0-.81.75,1.88,1.88,0,0,0-.3,1v4.34a.73.73,0,0,1-.22.54.72.72,0,0,1-.55.23.74.74,0,0,1-.54-.22.75.75,0,0,1-.21-.55V190a.72.72,0,0,1,.22-.54.7.7,0,0,1,.53-.23.77.77,0,0,1,.77.77v.56a3.36,3.36,0,0,1,1.16-1.08,3.13,3.13,0,0,1,1.59-.44Q1335.64,189,1335.64,192.46Z" transform="translate(-1033.68 -134.49)"/><path class="cls-15" d="M1340.19,190.68v4.77c0,.53.24.8.72.8a1.11,1.11,0,0,0,.3-.06,1,1,0,0,1,.3-.05.44.44,0,0,1,.36.17.73.73,0,0,1,.14.45.68.68,0,0,1-.38.57,1.55,1.55,0,0,1-.87.25,3.74,3.74,0,0,1-1-.12,1.42,1.42,0,0,1-.78-.56,2.32,2.32,0,0,1-.34-1.39v-4.83h-.93a.73.73,0,0,1-.51-.2.69.69,0,0,1-.2-.5.67.67,0,0,1,.2-.5.72.72,0,0,1,.51-.19h.93v-1.35a.76.76,0,0,1,.21-.54.74.74,0,0,1,.55-.22.7.7,0,0,1,.54.22.77.77,0,0,1,.22.54v1.35h1.32a.67.67,0,0,1,.51.2.72.72,0,0,1,0,1,.7.7,0,0,1-.51.19Z" transform="translate(-1033.68 -134.49)"/><path class="cls-15" d="M1348.89,189.22a.63.63,0,0,1,.3.53.74.74,0,0,1-.2.58.63.63,0,0,1-.48.21,1.81,1.81,0,0,1-.44-.1,1.45,1.45,0,0,0-1.49.23,2.52,2.52,0,0,0-.77,1,2.92,2.92,0,0,0-.3,1.33v3.86a.76.76,0,0,1-.21.54.76.76,0,0,1-1.31-.54V190a.76.76,0,0,1,.22-.54.71.71,0,0,1,.54-.23.75.75,0,0,1,.76.77v.82a3.08,3.08,0,0,1,1.06-1.28,2.86,2.86,0,0,1,1.6-.5A1.16,1.16,0,0,1,1348.89,189.22Z" transform="translate(-1033.68 -134.49)"/><path class="cls-15" d="M1357.76,189.3a.73.73,0,0,1,.22.56v6.95a.77.77,0,0,1-.77.77.72.72,0,0,1-.54-.22.75.75,0,0,1-.21-.55v-.42a3.49,3.49,0,0,1-1.14,1,3.22,3.22,0,0,1-1.55.4,3.68,3.68,0,0,1-2-.56,4,4,0,0,1-1.39-1.56,5.31,5.31,0,0,1,0-4.5,3.84,3.84,0,0,1,1.39-1.56,3.54,3.54,0,0,1,1.93-.56,3.65,3.65,0,0,1,1.58.35,3.32,3.32,0,0,1,1.16.9v-.39a.79.79,0,0,1,.21-.56.69.69,0,0,1,.54-.22A.72.72,0,0,1,1357.76,189.3Zm-2.48,6.64a2.52,2.52,0,0,0,.91-1.05,3.43,3.43,0,0,0,.33-1.52,3.38,3.38,0,0,0-.33-1.51,2.61,2.61,0,0,0-.91-1.06,2.34,2.34,0,0,0-1.33-.39,2.42,2.42,0,0,0-1.34.38,2.62,2.62,0,0,0-.91,1.06,3.67,3.67,0,0,0,0,3,2.59,2.59,0,0,0,.91,1.05,2.48,2.48,0,0,0,2.67,0Z" transform="translate(-1033.68 -134.49)"/><path class="cls-15" d="M1365.13,189.22a.63.63,0,0,1,.3.53.74.74,0,0,1-.2.58.63.63,0,0,1-.48.21,1.81,1.81,0,0,1-.44-.1,1.45,1.45,0,0,0-1.49.23,2.52,2.52,0,0,0-.77,1,2.92,2.92,0,0,0-.3,1.33v3.86a.76.76,0,0,1-.21.54.76.76,0,0,1-1.31-.54V190a.76.76,0,0,1,.22-.54.71.71,0,0,1,.54-.23.75.75,0,0,1,.76.77v.82a3.08,3.08,0,0,1,1.06-1.28,2.86,2.86,0,0,1,1.6-.5A1.16,1.16,0,0,1,1365.13,189.22Z" transform="translate(-1033.68 -134.49)"/><path class="cls-15" d="M1378.63,189.38a.76.76,0,0,1,.21.56V200a.76.76,0,0,1-.21.54.75.75,0,0,1-.56.23.74.74,0,0,1-.54-.22.75.75,0,0,1-.21-.55v-3.65a3.46,3.46,0,0,1-2.69,1.38,3.59,3.59,0,0,1-2-.56,4.07,4.07,0,0,1-1.4-1.56,5.22,5.22,0,0,1,0-4.5,3.75,3.75,0,0,1,1.38-1.56,3.65,3.65,0,0,1,3.5-.21,3.47,3.47,0,0,1,1.17.91v-.32a.79.79,0,0,1,.21-.56.7.7,0,0,1,.54-.22A.75.75,0,0,1,1378.63,189.38Zm-2.48,6.56a2.59,2.59,0,0,0,.91-1.05,3.67,3.67,0,0,0,0-3,2.62,2.62,0,0,0-.91-1.06,2.55,2.55,0,0,0-2.68,0,2.62,2.62,0,0,0-.91,1.06,3.67,3.67,0,0,0,0,3,2.59,2.59,0,0,0,.91,1.05,2.5,2.5,0,0,0,2.68,0Z" transform="translate(-1033.68 -134.49)"/><path class="cls-15" d="M1387.89,189.42a.76.76,0,0,1,.22.54v4.26a3.51,3.51,0,1,1-7,0V190a.75.75,0,0,1,.75-.77.73.73,0,0,1,.55.23.72.72,0,0,1,.22.54v4.26c0,1.39.65,2.09,2,2.09a1.93,1.93,0,0,0,1.48-.53,2.12,2.12,0,0,0,.52-1.56V190a.75.75,0,0,1,.75-.77A.73.73,0,0,1,1387.89,189.42Z" transform="translate(-1033.68 -134.49)"/><path class="cls-15" d="M1397.5,193.55a.79.79,0,0,1-.53.2h-5.63a2.75,2.75,0,0,0,.89,1.87,2.71,2.71,0,0,0,1.89.71,3,3,0,0,0,1.25-.23,3.33,3.33,0,0,0,.85-.57.86.86,0,0,1,.46-.15.61.61,0,0,1,.46.2.6.6,0,0,1,.18.44.79.79,0,0,1-.32.61,3.9,3.9,0,0,1-1.23.79,4.08,4.08,0,0,1-1.57.32,4.69,4.69,0,0,1-2.28-.55,3.83,3.83,0,0,1-1.52-1.52,4.49,4.49,0,0,1-.53-2.21,4.87,4.87,0,0,1,.55-2.36,4.12,4.12,0,0,1,1.45-1.56,3.77,3.77,0,0,1,3.87,0,4,4,0,0,1,1.44,1.45,4.2,4.2,0,0,1,.56,2.08A.66.66,0,0,1,1397.5,193.55Zm-5.23-2.64a2.5,2.5,0,0,0-.87,1.56h4.72v-.13a1.92,1.92,0,0,0-.76-1.39,2.41,2.41,0,0,0-1.54-.54A2.48,2.48,0,0,0,1392.27,190.91Zm1.23-2.42a.33.33,0,0,1-.13-.31.5.5,0,0,1,.1-.28l.94-1.59a1.42,1.42,0,0,1,.31-.37.71.71,0,0,1,.43-.14.72.72,0,0,1,.53.18.64.64,0,0,1,.17.49.84.84,0,0,1-.24.56l-1.2,1.31a.87.87,0,0,1-.64.26A.45.45,0,0,1,1393.5,188.49Z" transform="translate(-1033.68 -134.49)"/><path class="cls-15" d="M1411.05,193.55a.79.79,0,0,1-.53.2h-5.63a2.75,2.75,0,0,0,.89,1.87,2.71,2.71,0,0,0,1.89.71,2.94,2.94,0,0,0,1.25-.23,3.33,3.33,0,0,0,.85-.57.86.86,0,0,1,.46-.15.61.61,0,0,1,.46.2.6.6,0,0,1,.18.44.76.76,0,0,1-.32.61,3.9,3.9,0,0,1-1.23.79,4.08,4.08,0,0,1-1.57.32,4.69,4.69,0,0,1-2.28-.55,3.83,3.83,0,0,1-1.52-1.52,4.6,4.6,0,0,1-.53-2.21,4.87,4.87,0,0,1,.55-2.36,4.12,4.12,0,0,1,1.45-1.56,3.77,3.77,0,0,1,3.87,0,3.93,3.93,0,0,1,1.44,1.45,4.2,4.2,0,0,1,.56,2.08A.66.66,0,0,1,1411.05,193.55Zm-5.23-2.64a2.5,2.5,0,0,0-.87,1.56h4.72v-.13a1.92,1.92,0,0,0-.76-1.39,2.39,2.39,0,0,0-1.54-.54A2.48,2.48,0,0,0,1405.82,190.91Z" transform="translate(-1033.68 -134.49)"/><path class="cls-15" d="M1412.43,195.83a.65.65,0,0,1,.33-.54.6.6,0,0,1,.37-.11.74.74,0,0,1,.53.24,3.35,3.35,0,0,0,1,.81,3,3,0,0,0,1.32.27,2.18,2.18,0,0,0,1.07-.28,1,1,0,0,0,0-1.68,5,5,0,0,0-1.38-.53,9.82,9.82,0,0,1-1.49-.51,2.67,2.67,0,0,1-1-.76,2.25,2.25,0,0,1,0-2.59,2.82,2.82,0,0,1,1.09-.85,3.63,3.63,0,0,1,1.48-.3,4.36,4.36,0,0,1,1.53.29,2.85,2.85,0,0,1,1.24.88.69.69,0,0,1,.19.46.7.7,0,0,1-.26.5.65.65,0,0,1-.86,0,2.21,2.21,0,0,0-.82-.59,2.74,2.74,0,0,0-1.08-.21,2,2,0,0,0-1,.25.89.89,0,0,0-.42.84.92.92,0,0,0,.49.83,6,6,0,0,0,1.45.53,9,9,0,0,1,1.4.48,2.41,2.41,0,0,1,1,.76,2.13,2.13,0,0,1,.38,1.32,2,2,0,0,1-.43,1.3,2.78,2.78,0,0,1-1.13.85,3.69,3.69,0,0,1-1.48.3,4.74,4.74,0,0,1-1.86-.36,3.36,3.36,0,0,1-1.45-1.12A.76.76,0,0,1,1412.43,195.83Z" transform="translate(-1033.68 -134.49)"/><path class="cls-15" d="M1426.54,197.35a.75.75,0,0,1-.55.23.7.7,0,0,1-.53-.23.73.73,0,0,1-.22-.54V186.5a.77.77,0,0,1,.22-.54.74.74,0,0,1,.55-.22.69.69,0,0,1,.53.22.73.73,0,0,1,.22.54v10.31A.73.73,0,0,1,1426.54,197.35Z" transform="translate(-1033.68 -134.49)"/><path class="cls-15" d="M1436.51,189.3a.73.73,0,0,1,.22.56v6.95a.73.73,0,0,1-.22.54.77.77,0,0,1-1.09,0,.75.75,0,0,1-.21-.55v-.42a3.49,3.49,0,0,1-1.14,1,3.19,3.19,0,0,1-1.55.4,3.68,3.68,0,0,1-2-.56,4,4,0,0,1-1.39-1.56,5.31,5.31,0,0,1,0-4.5,3.84,3.84,0,0,1,1.39-1.56,3.54,3.54,0,0,1,1.93-.56,3.65,3.65,0,0,1,1.58.35,3.32,3.32,0,0,1,1.16.9v-.39a.79.79,0,0,1,.21-.56.69.69,0,0,1,.54-.22A.71.71,0,0,1,1436.51,189.3Zm-2.48,6.64a2.61,2.61,0,0,0,.92-1.05,3.56,3.56,0,0,0,.32-1.52,3.52,3.52,0,0,0-.32-1.51,2.71,2.71,0,0,0-.92-1.06,2.34,2.34,0,0,0-1.33-.39,2.44,2.44,0,0,0-1.34.38,2.62,2.62,0,0,0-.91,1.06,3.67,3.67,0,0,0,0,3,2.59,2.59,0,0,0,.91,1.05,2.37,2.37,0,0,0,1.34.39A2.34,2.34,0,0,0,1434,195.94Z" transform="translate(-1033.68 -134.49)"/><path class="cls-15" d="M1449.59,189.6a3.85,3.85,0,0,1,1.39,1.54,5.27,5.27,0,0,1,0,4.48,3.91,3.91,0,0,1-1.39,1.54,3.54,3.54,0,0,1-1.93.56,3.25,3.25,0,0,1-1.55-.37,3.7,3.7,0,0,1-1.17-.89V200a.77.77,0,0,1-.77.77.77.77,0,0,1-.54-.22.75.75,0,0,1-.21-.55V189.94a.79.79,0,0,1,.21-.56.69.69,0,0,1,.54-.22.72.72,0,0,1,.55.22.76.76,0,0,1,.22.56v.47a3,3,0,0,1,1.12-1,3.19,3.19,0,0,1,1.57-.4A3.58,3.58,0,0,1,1449.59,189.6Zm-.81,6.33a2.68,2.68,0,0,0,.92-1.05,3.55,3.55,0,0,0,0-3,2.61,2.61,0,0,0-.92-1,2.37,2.37,0,0,0-1.33-.38,2.43,2.43,0,0,0-2.26,1.42,3.6,3.6,0,0,0,0,3,2.53,2.53,0,0,0,.92,1.05,2.56,2.56,0,0,0,2.67,0Z" transform="translate(-1033.68 -134.49)"/><path class="cls-15" d="M1460.59,189.3a.73.73,0,0,1,.22.56v6.95a.73.73,0,0,1-.22.54.72.72,0,0,1-.55.23.74.74,0,0,1-.54-.22.75.75,0,0,1-.21-.55v-.42a3.49,3.49,0,0,1-1.14,1,3.19,3.19,0,0,1-1.55.4,3.64,3.64,0,0,1-2-.56,3.92,3.92,0,0,1-1.4-1.56,5.31,5.31,0,0,1,0-4.5,3.84,3.84,0,0,1,1.39-1.56,3.54,3.54,0,0,1,1.93-.56,3.65,3.65,0,0,1,1.58.35,3.32,3.32,0,0,1,1.16.9v-.39a.79.79,0,0,1,.21-.56.7.7,0,0,1,.54-.22A.71.71,0,0,1,1460.59,189.3Zm-2.48,6.64a2.61,2.61,0,0,0,.92-1.05,3.56,3.56,0,0,0,.32-1.52,3.52,3.52,0,0,0-.32-1.51,2.71,2.71,0,0,0-.92-1.06,2.34,2.34,0,0,0-1.33-.39,2.44,2.44,0,0,0-1.34.38,2.62,2.62,0,0,0-.91,1.06,3.67,3.67,0,0,0,0,3,2.59,2.59,0,0,0,.91,1.05,2.37,2.37,0,0,0,1.34.39A2.34,2.34,0,0,0,1458.11,195.94Z" transform="translate(-1033.68 -134.49)"/><path class="cls-15" d="M1468.89,196.37a.66.66,0,0,1,.21.5.69.69,0,0,1-.21.51.73.73,0,0,1-.51.2h-5.17a.64.64,0,0,1-.5-.23.66.66,0,0,1-.2-.46,1.48,1.48,0,0,1,.06-.35,1.15,1.15,0,0,1,.18-.31l4.19-5.6h-3.47a.7.7,0,0,1-.52-.21.69.69,0,0,1-.2-.51.61.61,0,0,1,.2-.49.7.7,0,0,1,.52-.2h4.91a.64.64,0,0,1,.5.23.75.75,0,0,1,.19.54,1.7,1.7,0,0,1-.06.28.84.84,0,0,1-.17.27l-4.22,5.63h3.76A.69.69,0,0,1,1468.89,196.37Z" transform="translate(-1033.68 -134.49)"/><path class="cls-15" d="M1197.1,208.8a3.75,3.75,0,0,1,1.38,1.54,5.17,5.17,0,0,1,0,4.48,3.82,3.82,0,0,1-1.38,1.54,3.56,3.56,0,0,1-1.93.56,3.32,3.32,0,0,1-1.56-.37,3.7,3.7,0,0,1-1.17-.89v3.55a.76.76,0,0,1-.21.54.75.75,0,0,1-.55.23.75.75,0,0,1-.76-.77V209.14a.79.79,0,0,1,.21-.56.71.71,0,0,1,.55-.22.74.74,0,0,1,.55.22.79.79,0,0,1,.21.56v.47a3.05,3.05,0,0,1,1.12-1,3.24,3.24,0,0,1,1.57-.4A3.61,3.61,0,0,1,1197.1,208.8Zm-.81,6.33a2.68,2.68,0,0,0,.92-1,3.65,3.65,0,0,0,0-3,2.68,2.68,0,0,0-.92-1.05,2.37,2.37,0,0,0-1.33-.38,2.49,2.49,0,0,0-1.35.37,2.55,2.55,0,0,0-.92,1.05,3.7,3.7,0,0,0,0,3,2.61,2.61,0,0,0,.92,1,2.49,2.49,0,0,0,1.35.37A2.46,2.46,0,0,0,1196.29,215.13Z" transform="translate(-1033.68 -134.49)"/><path class="cls-15" d="M1208.1,208.5a.73.73,0,0,1,.22.56V216a.77.77,0,0,1-.77.77.76.76,0,0,1-.55-.22.79.79,0,0,1-.2-.55v-.42a3.49,3.49,0,0,1-1.14.95,3.22,3.22,0,0,1-1.55.4,3.65,3.65,0,0,1-2-.56,4,4,0,0,1-1.39-1.56,5.31,5.31,0,0,1,0-4.5,3.84,3.84,0,0,1,1.39-1.56,3.54,3.54,0,0,1,1.93-.56,3.65,3.65,0,0,1,1.58.35,3.32,3.32,0,0,1,1.16.9v-.39a.83.83,0,0,1,.2-.56.8.8,0,0,1,1.1,0Zm-2.48,6.64a2.53,2.53,0,0,0,.91-1,3.43,3.43,0,0,0,.33-1.52,3.38,3.38,0,0,0-.33-1.51,2.69,2.69,0,0,0-.91-1.06,2.34,2.34,0,0,0-1.33-.39,2.42,2.42,0,0,0-1.34.38,2.62,2.62,0,0,0-.91,1.06,3.67,3.67,0,0,0,0,3,2.53,2.53,0,0,0,.91,1,2.48,2.48,0,0,0,2.67,0Z" transform="translate(-1033.68 -134.49)"/><path class="cls-15" d="M1215.47,208.42a.63.63,0,0,1,.3.53.78.78,0,0,1-.2.59.66.66,0,0,1-.49.2,1.86,1.86,0,0,1-.43-.1,1.45,1.45,0,0,0-1.49.23,2.52,2.52,0,0,0-.77.95,2.92,2.92,0,0,0-.3,1.33V216a.76.76,0,0,1-.21.54.76.76,0,0,1-1.31-.54v-6.85a.76.76,0,0,1,.22-.54.71.71,0,0,1,.54-.23.75.75,0,0,1,.76.77V210a3.08,3.08,0,0,1,1.06-1.28,2.86,2.86,0,0,1,1.6-.5A1.16,1.16,0,0,1,1215.47,208.42Z" transform="translate(-1033.68 -134.49)"/><path class="cls-15" d="M1224.34,208.5a.73.73,0,0,1,.22.56V216a.77.77,0,0,1-.77.77.72.72,0,0,1-.54-.22.75.75,0,0,1-.21-.55v-.42a3.49,3.49,0,0,1-1.14.95,3.22,3.22,0,0,1-1.55.4,3.65,3.65,0,0,1-2-.56,4,4,0,0,1-1.39-1.56,5.31,5.31,0,0,1,0-4.5,3.84,3.84,0,0,1,1.39-1.56,3.54,3.54,0,0,1,1.93-.56,3.65,3.65,0,0,1,1.58.35,3.32,3.32,0,0,1,1.16.9v-.39a.79.79,0,0,1,.21-.56.69.69,0,0,1,.54-.22A.72.72,0,0,1,1224.34,208.5Zm-2.48,6.64a2.53,2.53,0,0,0,.91-1,3.43,3.43,0,0,0,.33-1.52,3.38,3.38,0,0,0-.33-1.51,2.69,2.69,0,0,0-.91-1.06,2.34,2.34,0,0,0-1.33-.39,2.42,2.42,0,0,0-1.34.38,2.62,2.62,0,0,0-.91,1.06,3.67,3.67,0,0,0,0,3,2.53,2.53,0,0,0,.91,1,2.48,2.48,0,0,0,2.67,0Z" transform="translate(-1033.68 -134.49)"/><path class="cls-15" d="M1232.67,216.55a.74.74,0,0,1-.54.23.71.71,0,0,1-.54-.23.73.73,0,0,1-.22-.54V205.7a.74.74,0,0,1,.23-.54.77.77,0,0,1,1.08,0,.76.76,0,0,1,.21.54V216A.73.73,0,0,1,1232.67,216.55Z" transform="translate(-1033.68 -134.49)"/><path class="cls-15" d="M1242.64,208.5a.73.73,0,0,1,.22.56V216a.73.73,0,0,1-.22.54.72.72,0,0,1-.55.23.74.74,0,0,1-.54-.22.75.75,0,0,1-.21-.55v-.42a3.49,3.49,0,0,1-1.14.95,3.19,3.19,0,0,1-1.55.4,3.64,3.64,0,0,1-2-.56,3.92,3.92,0,0,1-1.4-1.56,5.31,5.31,0,0,1,0-4.5,3.84,3.84,0,0,1,1.39-1.56,3.54,3.54,0,0,1,1.93-.56,3.62,3.62,0,0,1,1.58.35,3.23,3.23,0,0,1,1.16.9v-.39a.79.79,0,0,1,.21-.56.7.7,0,0,1,.54-.22A.71.71,0,0,1,1242.64,208.5Zm-2.48,6.64a2.55,2.55,0,0,0,.92-1,3.56,3.56,0,0,0,.32-1.52,3.52,3.52,0,0,0-.32-1.51,2.71,2.71,0,0,0-.92-1.06,2.31,2.31,0,0,0-1.33-.39,2.44,2.44,0,0,0-1.34.38,2.62,2.62,0,0,0-.91,1.06,3.67,3.67,0,0,0,0,3,2.53,2.53,0,0,0,.91,1,2.37,2.37,0,0,0,1.34.39A2.31,2.31,0,0,0,1240.16,215.14Z" transform="translate(-1033.68 -134.49)"/><path class="cls-15" d="M1244.49,215a.64.64,0,0,1,.34-.54.6.6,0,0,1,.37-.11.72.72,0,0,1,.52.24,3.38,3.38,0,0,0,1,.81,3,3,0,0,0,1.32.27,2.21,2.21,0,0,0,1.07-.28.9.9,0,0,0,.46-.85.91.91,0,0,0-.47-.83,5.09,5.09,0,0,0-1.38-.53,9.45,9.45,0,0,1-1.49-.51,2.59,2.59,0,0,1-1-.76,2.25,2.25,0,0,1,0-2.59,2.75,2.75,0,0,1,1.09-.85,3.59,3.59,0,0,1,1.48-.3,4.27,4.27,0,0,1,1.52.29,2.74,2.74,0,0,1,1.24.88.62.62,0,0,1-.06,1,.61.61,0,0,1-.4.14.58.58,0,0,1-.46-.19,2.25,2.25,0,0,0-.83-.59,2.67,2.67,0,0,0-1.08-.21,2,2,0,0,0-1,.25.89.89,0,0,0-.42.84.93.93,0,0,0,.48.83,6.36,6.36,0,0,0,1.45.53,8.81,8.81,0,0,1,1.41.48,2.38,2.38,0,0,1,.94.76,2.07,2.07,0,0,1,.39,1.32,2.09,2.09,0,0,1-.43,1.3,2.84,2.84,0,0,1-1.13.85,3.73,3.73,0,0,1-1.48.3,4.83,4.83,0,0,1-1.87-.36,3.33,3.33,0,0,1-1.44-1.12A.77.77,0,0,1,1244.49,215Z" transform="translate(-1033.68 -134.49)"/><path class="cls-15" d="M1263.36,208.8a3.9,3.9,0,0,1,1.38,1.54,5.27,5.27,0,0,1,0,4.48,4,4,0,0,1-1.38,1.54,3.59,3.59,0,0,1-1.94.56,3.31,3.31,0,0,1-1.55-.37,3.7,3.7,0,0,1-1.17-.89v3.55a.73.73,0,0,1-.22.54.72.72,0,0,1-.55.23.73.73,0,0,1-.53-.22.72.72,0,0,1-.22-.55V209.14a.79.79,0,0,1,.21-.56.7.7,0,0,1,.54-.22.71.71,0,0,1,.55.22.76.76,0,0,1,.22.56v.47a3.05,3.05,0,0,1,1.12-1,3.19,3.19,0,0,1,1.57-.4A3.64,3.64,0,0,1,1263.36,208.8Zm-.82,6.33a2.68,2.68,0,0,0,.92-1,3.55,3.55,0,0,0,0-3,2.68,2.68,0,0,0-.92-1.05,2.35,2.35,0,0,0-1.33-.38,2.43,2.43,0,0,0-1.34.37,2.48,2.48,0,0,0-.92,1.05,3.6,3.6,0,0,0,0,3,2.54,2.54,0,0,0,.92,1,2.56,2.56,0,0,0,2.67,0Z" transform="translate(-1033.68 -134.49)"/><path class="cls-15" d="M1274.12,212.75a.77.77,0,0,1-.52.2H1268a2.79,2.79,0,0,0,.89,1.87,2.73,2.73,0,0,0,1.9.71,3,3,0,0,0,1.25-.23,3.11,3.11,0,0,0,.84-.57.89.89,0,0,1,.47-.15.59.59,0,0,1,.45.2.58.58,0,0,1,.19.44.79.79,0,0,1-.32.61,3.9,3.9,0,0,1-1.23.79,4.16,4.16,0,0,1-1.57.32,4.63,4.63,0,0,1-2.28-.55,3.77,3.77,0,0,1-1.52-1.52,4.49,4.49,0,0,1-.54-2.21,5,5,0,0,1,.55-2.36,4.15,4.15,0,0,1,1.46-1.56,3.75,3.75,0,0,1,3.86,0,3.93,3.93,0,0,1,1.44,1.45,4.1,4.1,0,0,1,.56,2.08A.66.66,0,0,1,1274.12,212.75Zm-5.23-2.64a2.54,2.54,0,0,0-.86,1.56h4.72v-.13a2,2,0,0,0-.76-1.39,2.42,2.42,0,0,0-1.55-.54A2.52,2.52,0,0,0,1268.89,210.11Z" transform="translate(-1033.68 -134.49)"/><path class="cls-15" d="M1281,208.42a.63.63,0,0,1,.3.53.82.82,0,0,1-.19.59.7.7,0,0,1-.49.2,1.81,1.81,0,0,1-.44-.1,1.45,1.45,0,0,0-1.49.23,2.52,2.52,0,0,0-.77.95,2.92,2.92,0,0,0-.3,1.33V216a.76.76,0,0,1-.21.54.75.75,0,0,1-1.3-.54v-6.85a.75.75,0,0,1,.21-.54.71.71,0,0,1,.54-.23.75.75,0,0,1,.76.77V210a3.08,3.08,0,0,1,1.06-1.28,2.86,2.86,0,0,1,1.6-.5A1.16,1.16,0,0,1,1281,208.42Z" transform="translate(-1033.68 -134.49)"/><path class="cls-15" d="M1282.11,215a.65.65,0,0,1,.33-.54.6.6,0,0,1,.37-.11.74.74,0,0,1,.53.24,3.35,3.35,0,0,0,1,.81,3,3,0,0,0,1.32.27,2.15,2.15,0,0,0,1.07-.28.9.9,0,0,0,.47-.85.92.92,0,0,0-.47-.83,5.18,5.18,0,0,0-1.39-.53,10.22,10.22,0,0,1-1.49-.51,2.75,2.75,0,0,1-1-.76,2.3,2.3,0,0,1,0-2.59,2.9,2.9,0,0,1,1.09-.85,3.66,3.66,0,0,1,1.48-.3,4.36,4.36,0,0,1,1.53.29,2.79,2.79,0,0,1,1.24.88.64.64,0,0,1-.06,1,.61.61,0,0,1-.4.14.6.6,0,0,1-.47-.19,2.21,2.21,0,0,0-.82-.59,2.74,2.74,0,0,0-1.08-.21,1.94,1.94,0,0,0-1,.25.87.87,0,0,0-.43.84.94.94,0,0,0,.49.83,6.36,6.36,0,0,0,1.45.53,9.56,9.56,0,0,1,1.41.48,2.46,2.46,0,0,1,.94.76,2.07,2.07,0,0,1,.38,1.32,2,2,0,0,1-.43,1.3,2.78,2.78,0,0,1-1.13.85,3.66,3.66,0,0,1-1.48.3,4.74,4.74,0,0,1-1.86-.36,3.42,3.42,0,0,1-1.45-1.12A.84.84,0,0,1,1282.11,215Z" transform="translate(-1033.68 -134.49)"/><path class="cls-15" d="M1297.74,214.82a4.09,4.09,0,0,1-1.53,1.56,4.35,4.35,0,0,1-4.27,0,4.17,4.17,0,0,1-1.53-1.56,4.49,4.49,0,0,1-.56-2.24,4.58,4.58,0,0,1,.56-2.25,4.05,4.05,0,0,1,1.53-1.57,4.35,4.35,0,0,1,4.27,0,4,4,0,0,1,1.53,1.57,4.58,4.58,0,0,1,.56,2.25A4.49,4.49,0,0,1,1297.74,214.82Zm-1.32-3.78a2.71,2.71,0,0,0-1-1.06,2.55,2.55,0,0,0-1.36-.37,2.58,2.58,0,0,0-1.37.37,2.71,2.71,0,0,0-1,1.06,3.24,3.24,0,0,0-.36,1.54,3.13,3.13,0,0,0,.36,1.52,2.69,2.69,0,0,0,1,1.05,2.59,2.59,0,0,0,1.37.38,2.56,2.56,0,0,0,1.36-.38,2.69,2.69,0,0,0,1-1.05,3.13,3.13,0,0,0,.36-1.52A3.24,3.24,0,0,0,1296.42,211Z" transform="translate(-1033.68 -134.49)"/><path class="cls-15" d="M1307.21,211.66V216a.76.76,0,0,1-.21.54.75.75,0,0,1-.56.23.7.7,0,0,1-.53-.23.73.73,0,0,1-.22-.54v-4.34a2.37,2.37,0,0,0-.43-1.5,1.66,1.66,0,0,0-1.41-.56,2.4,2.4,0,0,0-1.16.28,2,2,0,0,0-.81.75,1.88,1.88,0,0,0-.3,1V216a.73.73,0,0,1-.22.54.72.72,0,0,1-.55.23.74.74,0,0,1-.54-.22.75.75,0,0,1-.21-.55v-6.85a.72.72,0,0,1,.22-.54.7.7,0,0,1,.53-.23.77.77,0,0,1,.77.77v.56a3.36,3.36,0,0,1,1.16-1.08,3.13,3.13,0,0,1,1.59-.44Q1307.21,208.2,1307.21,211.66Z" transform="translate(-1033.68 -134.49)"/><path class="cls-15" d="M1316.84,208.5a.76.76,0,0,1,.21.56V216a.76.76,0,0,1-.21.54.75.75,0,0,1-.56.23.74.74,0,0,1-.54-.22.75.75,0,0,1-.21-.55v-.42a3.45,3.45,0,0,1-1.13.95,3.23,3.23,0,0,1-1.56.4,3.64,3.64,0,0,1-2-.56,3.9,3.9,0,0,1-1.39-1.56,5.22,5.22,0,0,1,0-4.5,3.75,3.75,0,0,1,1.38-1.56,3.57,3.57,0,0,1,1.94-.56,3.61,3.61,0,0,1,1.57.35,3.23,3.23,0,0,1,1.16.9v-.39a.79.79,0,0,1,.21-.56.7.7,0,0,1,.54-.22A.75.75,0,0,1,1316.84,208.5Zm-2.48,6.64a2.53,2.53,0,0,0,.91-1,3.43,3.43,0,0,0,.33-1.52,3.38,3.38,0,0,0-.33-1.51,2.69,2.69,0,0,0-.91-1.06,2.37,2.37,0,0,0-1.34-.39,2.44,2.44,0,0,0-1.34.38,2.62,2.62,0,0,0-.91,1.06,3.67,3.67,0,0,0,0,3,2.53,2.53,0,0,0,.91,1,2.5,2.5,0,0,0,2.68,0Z" transform="translate(-1033.68 -134.49)"/><path class="cls-15" d="M1318.68,215a.66.66,0,0,1,.34-.54.6.6,0,0,1,.37-.11.74.74,0,0,1,.53.24,3.35,3.35,0,0,0,1,.81,3,3,0,0,0,1.32.27,2.21,2.21,0,0,0,1.07-.28.9.9,0,0,0,.46-.85.91.91,0,0,0-.47-.83,5,5,0,0,0-1.38-.53,9.45,9.45,0,0,1-1.49-.51,2.67,2.67,0,0,1-1-.76,2.25,2.25,0,0,1,0-2.59,2.75,2.75,0,0,1,1.09-.85,3.59,3.59,0,0,1,1.48-.3,4.36,4.36,0,0,1,1.53.29,2.85,2.85,0,0,1,1.24.88.74.74,0,0,1,.19.46.7.7,0,0,1-.26.5.65.65,0,0,1-.86-.05,2.25,2.25,0,0,0-.83-.59,2.67,2.67,0,0,0-1.08-.21,2,2,0,0,0-1,.25.89.89,0,0,0-.42.84.92.92,0,0,0,.49.83,6.07,6.07,0,0,0,1.44.53,8.81,8.81,0,0,1,1.41.48,2.41,2.41,0,0,1,1,.76,2.13,2.13,0,0,1,.38,1.32,2,2,0,0,1-.43,1.3,2.84,2.84,0,0,1-1.13.85,3.69,3.69,0,0,1-1.48.3,4.74,4.74,0,0,1-1.86-.36,3.36,3.36,0,0,1-1.45-1.12A.77.77,0,0,1,1318.68,215Z" transform="translate(-1033.68 -134.49)"/><path class="cls-15" d="M1338.72,205.15a.74.74,0,0,1,.22.55V216a.73.73,0,0,1-.22.54.72.72,0,0,1-.55.23.74.74,0,0,1-.54-.22.75.75,0,0,1-.21-.55v-.45a3.32,3.32,0,0,1-1.13,1,3.23,3.23,0,0,1-1.56.4,3.64,3.64,0,0,1-2-.56,4,4,0,0,1-1.39-1.56,4.9,4.9,0,0,1-.51-2.25,5,5,0,0,1,.5-2.25,3.84,3.84,0,0,1,1.39-1.56,3.54,3.54,0,0,1,1.93-.56,3.58,3.58,0,0,1,1.57.35,3.47,3.47,0,0,1,1.17.91V205.7a.77.77,0,0,1,.21-.55.73.73,0,0,1,.54-.21A.74.74,0,0,1,1338.72,205.15Zm-2.48,10a2.55,2.55,0,0,0,.92-1,3.56,3.56,0,0,0,.32-1.52,3.52,3.52,0,0,0-.32-1.51,2.61,2.61,0,0,0-.92-1.07,2.41,2.41,0,0,0-1.33-.38,2.44,2.44,0,0,0-1.34.38,2.59,2.59,0,0,0-.91,1.07,3.38,3.38,0,0,0-.33,1.51,3.43,3.43,0,0,0,.33,1.52,2.53,2.53,0,0,0,.91,1,2.37,2.37,0,0,0,1.34.39A2.34,2.34,0,0,0,1336.24,215.14Z" transform="translate(-1033.68 -134.49)"/><path class="cls-15" d="M1348.32,212.75a.79.79,0,0,1-.53.2h-5.63a2.78,2.78,0,0,0,.88,1.87,2.73,2.73,0,0,0,1.9.71,3,3,0,0,0,1.25-.23,3.33,3.33,0,0,0,.85-.57.86.86,0,0,1,.46-.15.63.63,0,0,1,.46.2.6.6,0,0,1,.18.44.79.79,0,0,1-.32.61,3.9,3.9,0,0,1-1.23.79,4.12,4.12,0,0,1-1.57.32,4.69,4.69,0,0,1-2.28-.55,3.77,3.77,0,0,1-1.52-1.52,4.49,4.49,0,0,1-.54-2.21,4.87,4.87,0,0,1,.56-2.36,4,4,0,0,1,1.45-1.56,3.77,3.77,0,0,1,3.87,0,4.08,4.08,0,0,1,1.44,1.45,4.31,4.31,0,0,1,.56,2.08A.74.74,0,0,1,1348.32,212.75Zm-5.24-2.64a2.54,2.54,0,0,0-.86,1.56h4.72v-.13a2,2,0,0,0-.76-1.39,2.41,2.41,0,0,0-1.54-.54A2.53,2.53,0,0,0,1343.08,210.11Z" transform="translate(-1033.68 -134.49)"/><path class="cls-15" d="M1357,209.88v4.77c0,.53.24.8.72.8a1,1,0,0,0,.3-.06,1,1,0,0,1,.31,0,.43.43,0,0,1,.35.17.67.67,0,0,1,.14.45.68.68,0,0,1-.38.58,1.59,1.59,0,0,1-.86.24,3.63,3.63,0,0,1-1-.12,1.41,1.41,0,0,1-.79-.56,2.32,2.32,0,0,1-.34-1.39v-4.83h-.93a.69.69,0,0,1-.5-.2.65.65,0,0,1-.2-.5.63.63,0,0,1,.2-.5.68.68,0,0,1,.5-.19h.93v-1.35a.73.73,0,0,1,.22-.54.71.71,0,0,1,.55-.22.69.69,0,0,1,.53.22.73.73,0,0,1,.22.54v1.35h1.33a.65.65,0,0,1,.5.2.73.73,0,0,1,0,1,.68.68,0,0,1-.5.19Z" transform="translate(-1033.68 -134.49)"/><path class="cls-15" d="M1367.62,208.62a.76.76,0,0,1,.22.54v4.26a3.51,3.51,0,1,1-7,0v-4.26a.75.75,0,0,1,.75-.77.73.73,0,0,1,.55.23.72.72,0,0,1,.22.54v4.26c0,1.39.65,2.09,2,2.09a1.93,1.93,0,0,0,1.48-.53,2.16,2.16,0,0,0,.52-1.56v-4.26a.75.75,0,0,1,.21-.54.76.76,0,0,1,1.09,0Z" transform="translate(-1033.68 -134.49)"/><path class="cls-15" d="M1380.29,208.6q.84.41.84,1a.79.79,0,0,1-.17.49.55.55,0,0,1-.45.22.62.62,0,0,1-.33-.07l-.33-.2a1.43,1.43,0,0,0-.3-.23,2.16,2.16,0,0,0-.55-.16,3.72,3.72,0,0,0-.64-.06,2.87,2.87,0,0,0-1.47.38,2.56,2.56,0,0,0-1,1.07,3.26,3.26,0,0,0-.35,1.51,3.3,3.3,0,0,0,.34,1.52,2.53,2.53,0,0,0,1,1,2.63,2.63,0,0,0,1.42.39,3,3,0,0,0,1.35-.26l.3-.21a2.33,2.33,0,0,1,.28-.19.67.67,0,0,1,.3-.06.62.62,0,0,1,.5.2.74.74,0,0,1,.19.52.91.91,0,0,1-.43.66,3.4,3.4,0,0,1-1.13.54,5.44,5.44,0,0,1-1.53.21,4,4,0,0,1-2.15-.57,3.81,3.81,0,0,1-1.43-1.57,5,5,0,0,1-.5-2.23,4.59,4.59,0,0,1,.53-2.23,3.91,3.91,0,0,1,1.47-1.57,4.1,4.1,0,0,1,2.16-.57A4.83,4.83,0,0,1,1380.29,208.6Z" transform="translate(-1033.68 -134.49)"/><path class="cls-15" d="M1390.14,214.82a4.09,4.09,0,0,1-1.53,1.56,4.35,4.35,0,0,1-4.27,0,4.09,4.09,0,0,1-1.53-1.56,4.49,4.49,0,0,1-.56-2.24,4.58,4.58,0,0,1,.56-2.25,4,4,0,0,1,1.53-1.57,4.35,4.35,0,0,1,4.27,0,4,4,0,0,1,1.53,1.57,4.58,4.58,0,0,1,.56,2.25A4.49,4.49,0,0,1,1390.14,214.82Zm-1.32-3.78a2.71,2.71,0,0,0-1-1.06,2.7,2.7,0,0,0-2.73,0,2.71,2.71,0,0,0-1,1.06,3.24,3.24,0,0,0-.36,1.54,3.13,3.13,0,0,0,.36,1.52,2.69,2.69,0,0,0,1,1.05,2.64,2.64,0,0,0,2.73,0,2.69,2.69,0,0,0,1-1.05,3.13,3.13,0,0,0,.36-1.52A3.24,3.24,0,0,0,1388.82,211Z" transform="translate(-1033.68 -134.49)"/><path class="cls-15" d="M1404.88,211.74V216a.75.75,0,0,1-.21.55.75.75,0,0,1-.55.22.73.73,0,0,1-.55-.23.76.76,0,0,1-.21-.54v-4.26c0-1.4-.59-2.09-1.77-2.09a2.22,2.22,0,0,0-1.12.28,2,2,0,0,0-.79.76,2.11,2.11,0,0,0-.28,1.05V216a.76.76,0,0,1-.21.54.75.75,0,0,1-.56.23.74.74,0,0,1-.54-.22.75.75,0,0,1-.21-.55v-4.27a2.58,2.58,0,0,0-.4-1.52,1.49,1.49,0,0,0-1.32-.56,2.18,2.18,0,0,0-1.57.6,2,2,0,0,0-.61,1.48V216a.77.77,0,0,1-1.31.55.75.75,0,0,1-.21-.55v-6.85a.75.75,0,0,1,.75-.77.73.73,0,0,1,.55.23.72.72,0,0,1,.22.54v.56a3.49,3.49,0,0,1,1.11-1.05,2.87,2.87,0,0,1,1.51-.42,2.45,2.45,0,0,1,2.58,1.76,3.29,3.29,0,0,1,1.17-1.22,3.07,3.07,0,0,1,1.73-.54C1403.94,208.25,1404.88,209.41,1404.88,211.74Z" transform="translate(-1033.68 -134.49)"/><path class="cls-15" d="M1413.94,208.62a.76.76,0,0,1,.22.54v4.26a3.51,3.51,0,0,1-.92,2.58,3.56,3.56,0,0,1-2.61.92,3.18,3.18,0,0,1-3.48-3.5v-4.26a.75.75,0,0,1,.75-.77.73.73,0,0,1,.55.23.76.76,0,0,1,.22.54v4.26c0,1.39.65,2.09,2,2.09a1.94,1.94,0,0,0,1.49-.53,2.16,2.16,0,0,0,.51-1.56v-4.26a.76.76,0,0,1,.22-.54.73.73,0,0,1,.54-.23A.75.75,0,0,1,1413.94,208.62Z" transform="translate(-1033.68 -134.49)"/><path class="cls-15" d="M1423.58,211.66V216a.73.73,0,0,1-.22.54.72.72,0,0,1-.55.23.74.74,0,0,1-.54-.23.76.76,0,0,1-.21-.54v-4.34a2.37,2.37,0,0,0-.43-1.5,1.66,1.66,0,0,0-1.41-.56,2.37,2.37,0,0,0-1.16.28,2.05,2.05,0,0,0-.82.75,1.87,1.87,0,0,0-.29,1V216a.77.77,0,0,1-.77.77.76.76,0,0,1-.55-.22.79.79,0,0,1-.2-.55v-6.85a.75.75,0,0,1,.21-.54.76.76,0,0,1,1.09,0,.72.72,0,0,1,.22.54v.56a3.28,3.28,0,0,1,1.16-1.08,3.07,3.07,0,0,1,1.59-.44Q1423.58,208.2,1423.58,211.66Z" transform="translate(-1033.68 -134.49)"/><path class="cls-15" d="M1425.86,207.09a.67.67,0,0,1-.2-.54v-.25a.63.63,0,0,1,.22-.55,1.14,1.14,0,0,1,.66-.16,1,1,0,0,1,.65.17.67.67,0,0,1,.2.54v.25a.65.65,0,0,1-.21.55,1.14,1.14,0,0,1-.66.16A1,1,0,0,1,1425.86,207.09Zm1.21,9.46a.72.72,0,0,1-.55.23.7.7,0,0,1-.53-.23.73.73,0,0,1-.22-.54v-6.93a.73.73,0,0,1,.22-.54.7.7,0,0,1,.53-.23.72.72,0,0,1,.55.23.73.73,0,0,1,.22.54V216A.73.73,0,0,1,1427.07,216.55Z" transform="translate(-1033.68 -134.49)"/><path class="cls-15" d="M1436.83,205.15a.74.74,0,0,1,.22.55V216a.73.73,0,0,1-.22.54.72.72,0,0,1-.55.23.74.74,0,0,1-.54-.22.75.75,0,0,1-.21-.55v-.45a3.32,3.32,0,0,1-1.13,1,3.23,3.23,0,0,1-1.56.4,3.64,3.64,0,0,1-2-.56,4,4,0,0,1-1.39-1.56,4.9,4.9,0,0,1-.51-2.25,5,5,0,0,1,.5-2.25,3.84,3.84,0,0,1,1.39-1.56,3.65,3.65,0,0,1,3.5-.21,3.47,3.47,0,0,1,1.17.91V205.7a.77.77,0,0,1,.21-.55.73.73,0,0,1,.54-.21A.74.74,0,0,1,1436.83,205.15Zm-2.48,10a2.55,2.55,0,0,0,.92-1,3.42,3.42,0,0,0,.32-1.52,3.38,3.38,0,0,0-.32-1.51,2.61,2.61,0,0,0-.92-1.07,2.41,2.41,0,0,0-1.33-.38,2.44,2.44,0,0,0-1.34.38,2.59,2.59,0,0,0-.91,1.07,3.38,3.38,0,0,0-.33,1.51,3.43,3.43,0,0,0,.33,1.52,2.53,2.53,0,0,0,.91,1,2.37,2.37,0,0,0,1.34.39A2.34,2.34,0,0,0,1434.35,215.14Z" transform="translate(-1033.68 -134.49)"/><path class="cls-15" d="M1446.66,208.5a.76.76,0,0,1,.21.56V216a.76.76,0,0,1-.21.54.76.76,0,0,1-1.31-.54v-.42a3.35,3.35,0,0,1-1.13.95,3.22,3.22,0,0,1-1.55.4,3.65,3.65,0,0,1-2-.56,3.9,3.9,0,0,1-1.39-1.56,5.22,5.22,0,0,1,0-4.5,3.75,3.75,0,0,1,1.38-1.56,3.57,3.57,0,0,1,1.94-.56,3.61,3.61,0,0,1,1.57.35,3.14,3.14,0,0,1,1.16.9v-.39a.79.79,0,0,1,.21-.56.71.71,0,0,1,.55-.22A.74.74,0,0,1,1446.66,208.5Zm-2.48,6.64a2.53,2.53,0,0,0,.91-1,3.43,3.43,0,0,0,.33-1.52,3.38,3.38,0,0,0-.33-1.51,2.69,2.69,0,0,0-.91-1.06,2.37,2.37,0,0,0-1.34-.39,2.41,2.41,0,0,0-1.33.38,2.64,2.64,0,0,0-.92,1.06,3.77,3.77,0,0,0,0,3,2.55,2.55,0,0,0,.92,1,2.34,2.34,0,0,0,1.33.39A2.37,2.37,0,0,0,1444.18,215.14Z" transform="translate(-1033.68 -134.49)"/><path class="cls-15" d="M1456.48,205.15a.74.74,0,0,1,.22.55V216a.77.77,0,0,1-.77.77.72.72,0,0,1-.54-.22.75.75,0,0,1-.21-.55v-.45a3.38,3.38,0,0,1-2.69,1.38,3.62,3.62,0,0,1-2-.56,4,4,0,0,1-1.39-1.56,4.9,4.9,0,0,1-.51-2.25,5,5,0,0,1,.5-2.25,3.84,3.84,0,0,1,1.39-1.56,3.54,3.54,0,0,1,1.93-.56,3.58,3.58,0,0,1,1.57.35,3.47,3.47,0,0,1,1.17.91V205.7a.77.77,0,0,1,.21-.55.72.72,0,0,1,.54-.21A.75.75,0,0,1,1456.48,205.15Zm-2.48,10a2.46,2.46,0,0,0,.91-1,3.43,3.43,0,0,0,.33-1.52,3.38,3.38,0,0,0-.33-1.51A2.52,2.52,0,0,0,1454,210a2.41,2.41,0,0,0-1.33-.38,2.44,2.44,0,0,0-1.34.38,2.59,2.59,0,0,0-.91,1.07,3.38,3.38,0,0,0-.33,1.51,3.43,3.43,0,0,0,.33,1.52,2.53,2.53,0,0,0,.91,1,2.37,2.37,0,0,0,1.34.39A2.34,2.34,0,0,0,1454,215.14Z" transform="translate(-1033.68 -134.49)"/><path class="cls-15" d="M1458.91,216.55a.86.86,0,0,1-.2-.61v-.3a.83.83,0,0,1,.2-.59.79.79,0,0,1,.59-.21h.16a.8.8,0,0,1,.6.21.83.83,0,0,1,.2.59v.3a.72.72,0,0,1-.8.82h-.16A.79.79,0,0,1,1458.91,216.55Z" transform="translate(-1033.68 -134.49)"/></g></svg>