<svg xmlns="http://www.w3.org/2000/svg" viewBox="0 0 505.96 194.49"><defs><style>.cls-1{fill:#584e89;}.cls-1,.cls-10,.cls-12,.cls-13,.cls-3{fill-rule:evenodd;}.cls-2{fill:#f2d385;}.cls-3,.cls-4{fill:#e8ba69;}.cls-5{fill:#cf629c;}.cls-6{fill:#c75998;}.cls-7{fill:#d691ba;}.cls-8{fill:#c54e92;}.cls-9{fill:#fff;}.cls-10{fill:#e6b250;}.cls-11{fill:#2b2740;}.cls-12{fill:#685a9f;}.cls-13{fill:#7267a8;}.cls-14{fill:#f9e7bc;}.cls-15{fill:#222220;opacity:0.8;}</style></defs><title>personaje1</title><g id="Cabello"><path class="cls-1" d="M1637.64,26.77v84.39c-9-.77-19.7-7-30-17.25l-.21-.21,0,0c-.74-.74-1.47-1.5-2.2-2.28s-1.37-1.46-2-2.22h0q-3-3.39-6-7.21-3.54-4.63-6.85-9.84l-.08-.12c-1-1.68-2.09-3.39-3.09-5.16a0,0,0,0,1,0,0l-.45-.79-.08-.14-.94-1.7h0c-.07-.11-.13-.23-.19-.34a1.27,1.27,0,0,1-.12-.23c-.4-.73-.79-1.46-1.16-2.19,0,0,0,0,0,0a133.39,133.39,0,0,1-6.88-15.56h0c-.8-2.18-1.52-4.32-2.17-6.45h0a90.12,90.12,0,0,1-3.93-21.07,49,49,0,0,1,.86-12.91h0a25.92,25.92,0,0,1,3.48-8.76l0,0a16.75,16.75,0,0,1,3.12-3.6h0a14.5,14.5,0,0,1,2.5-1.77,15.1,15.1,0,0,1,4.22-1.61,16.72,16.72,0,0,1,2.37-.37,26.08,26.08,0,0,1,11.48,1.95,54,54,0,0,1,13,7.49,96.6,96.6,0,0,1,14.59,13.83c1.47,1.69,2.92,3.47,4.35,5.31Q1634.56,22.05,1637.64,26.77Z" transform="translate(-1131.68 42.64)"/><path class="cls-2" d="M1588.68,59.13c-2.25,1.95-3.2,5.18-3.71,8.38a60.13,60.13,0,0,0-.27,15.07c.47,4.88,1.35,9.78,2.24,14.66q1.77,9.66,3.6,19.3a114.88,114.88,0,0,0,2.72,12c1.28,4.29,2.46,10.33,5.84,13.23s9.22,2.05,11.76-.9c2.22-2.58,1.84-6.84,1.34-10.64L1606.43,86c-.41-3.14-2-15.79-2.94-18.87C1601.47,60.37,1595.5,53.17,1588.68,59.13Z" transform="translate(-1131.68 42.64)"/><path class="cls-2" d="M1541.45,113.09c-.15.27-.59.38-1.75-.27s-.89-1.41-1.14-1.52c-6.6-2.87-10.54-5.83-15.92-10.68-1.22-1.1-2.49-2.41-2.61-4-.06-.83-.89-2.73-.62-3.51.65-1.88,2.71-2.84,4.63-3.34a5.62,5.62,0,0,1,4.11,1c1.25.75,2.91,2.63,4.19,3.3,1.11.58,2.52,1.46,2.87,1.31s-2.06-2.06-1.4-2.88,2,.13,2.79.76c2.62,2,4.62,6.21,7.24,8.19,2.4,1.81,1.93.62,1.27,2.83A54.46,54.46,0,0,1,1541.45,113.09Z" transform="translate(-1131.68 42.64)"/><path class="cls-2" d="M1609,144.31c-2.08,1.27-5.13,1.05-8.1.46-4.51-.88-8.9-3-13.45-5-4.36-1.94-8.68-4.22-13-6.53-5.66-3-13-7.52-14.76-8.48-3.5-2-9.83-5.7-13.25-8-3.7-2.45-9.5-6.13-11.91-9.77a4.12,4.12,0,0,1,1.43-5.7c2.59-1.15,11.28,1.67,14.67,3.24,10.15,4.67,21.41,8.94,36.5,16.22,2.78,1.34,14,6.72,16.66,8.48C1609.68,133.12,1615.35,140.44,1609,144.31Z" transform="translate(-1131.68 42.64)"/><path class="cls-3" d="M1595.09,110.07s2,13.91,8.73,19.19l-12-6.21-2.21-11.34Z" transform="translate(-1131.68 42.64)"/><path class="cls-2" d="M1637.64,29.72V47.31c-.31-.3-.57-.57-.77-.79a20.65,20.65,0,0,1-3.48-5.31,12.61,12.61,0,0,1-1.12-4,7,7,0,0,1,0-1.21,6.14,6.14,0,0,1,1.42-3.84,6.37,6.37,0,0,1,1.41-1.25,7.56,7.56,0,0,1,1.09-.62,3.29,3.29,0,0,1,.39-.17,6.44,6.44,0,0,1,.61-.24c.14-.06.28-.1.42-.15Z" transform="translate(-1131.68 42.64)"/><path class="cls-2" d="M1637,30.82a4.6,4.6,0,0,1,.64,0v118c-4-7.84-4.35-17.69-11.85-31-3.35-6-10.65-13.82-17.3-20.91l-.1-.11-.65-.69-2-2.19v0c-.75-.78-1.44-1.53-2.13-2.28-3.85-4.18-6.94-7.76-8.09-10.07,0,0,0,0,0,0-1.68-3.39-3.6-6.7-5.08-9.34l-.08-.12a24.67,24.67,0,0,1-2.4-4.9,19.18,19.18,0,0,1,0-3.75,17.51,17.51,0,0,1,.75-4.15h0a6,6,0,0,1,.68-1.48,39.76,39.76,0,0,1,3-4.06,13,13,0,0,1,1.43-1.44c1.51-1.27,3.48-4.26,6.52-6.67h0l.35-.27h0l0,0,.18-.14a16.94,16.94,0,0,1,2-1.28c3.34-2,4-3.19,7-4.71,2.92-1.83,4-1.94,7.47-3.83a14.27,14.27,0,0,1,1.88-.93.31.31,0,0,1,.12-.05.64.64,0,0,1,.19-.08,1.36,1.36,0,0,1,.28-.11,21.94,21.94,0,0,1,2.38-.77c2.68-.72,5.27-1,7-1.35a9.65,9.65,0,0,0,.95-.26,20.46,20.46,0,0,1,5-.8C1636,30.85,1636.74,30.84,1637,30.82Z" transform="translate(-1131.68 42.64)"/><path class="cls-4" d="M1616.2,28.63a22,22,0,0,0,3.92,6.63,6.75,6.75,0,0,1-.53,1.08c-2.71,4.59-10.88,7.72-15.46,8.85-1.91.47-3.2.6-3.22.34-.2-2.23-1.73-4.58-2.93-6.11l0-.05h0a19.89,19.89,0,0,0-1.43-1.65l19.21-10.82c0,.24.1.49.17.73S1616.09,28.31,1616.2,28.63Z" transform="translate(-1131.68 42.64)"/><path class="cls-2" d="M1567.43,11.55c-5.85-10.37-1.55-23.87,9.6-30.15s24.93-3,30.77,7.39a19.87,19.87,0,0,1,2.07,5.41c.22.42.44.84.7,1.27A61.72,61.72,0,0,1,1616,7.14c2.62,8,2.67,16.76-2.06,24.81a17.87,17.87,0,0,1-6.48,6.78c-3.78,2.1-8.33,2.11-12.3,1.18-13.11-3.06-20.57-14.57-26.31-26.17A19.78,19.78,0,0,1,1567.43,11.55Z" transform="translate(-1131.68 42.64)"/><path class="cls-5" d="M1637.64,30.3V45.06l-1.39-1.26-2.86-2.59-3.23-2.92-10.64-4.08-.35-.13-.28-.11h0l.13-.06.22-.09.22-.09.58-.24.32-.12a52.34,52.34,0,0,1,8.3-2.27,46.65,46.65,0,0,1,7.47-.79c.48,0,1,0,1.45,0C1637.61,30.29,1637.62,30.29,1637.64,30.3Z" transform="translate(-1131.68 42.64)"/><polygon class="cls-6" points="504.57 85.38 505.96 86.56 505.96 86.88 504.57 85.38"/><path class="cls-7" d="M1637.64,30.12V32.2c-1.35-.06-2.68-.06-4,0-1.46,0-2.89.13-4.24.24-2.85.25-5.37.61-7.23.92-1.59.28-2.7.51-3.11.6h0l-.15,0,.13-.06.22-.09.22-.09.58-.24.32-.12a50.35,50.35,0,0,1,8.26-2.36,46.9,46.9,0,0,1,7.9-.87h1.1Z" transform="translate(-1131.68 42.64)"/><path class="cls-5" d="M1583.1,77.5c-1.09-19.59,17.57-32.38,17.57-32.38L1598.53,57l1.57,8,7,36-19.8,8.87A309.38,309.38,0,0,1,1583.1,77.5Z" transform="translate(-1131.68 42.64)"/><polygon class="cls-6" points="467.5 107.14 478.95 146.97 474.29 149.18 467.5 107.14"/><path class="cls-7" d="M1582.93,76.92c-1-19.16,17.74-31.8,17.74-31.8s-16.52,17-15.55,30.1c.23,3.16,2.33,17.47,4.85,32l-3.07,1.36A298.53,298.53,0,0,1,1582.93,76.92Z" transform="translate(-1131.68 42.64)"/><path class="cls-8" d="M1585,106.49l25-6.46,1.07,4.76-24.53,7.94a1.93,1.93,0,0,1-2.46-1.36l-.58-2.3A2.12,2.12,0,0,1,1585,106.49Z" transform="translate(-1131.68 42.64)"/><path class="cls-5" d="M1637.64,42.85v109c-9.28-31.92-27.94-52.21-28.53-52.84a0,0,0,0,1,0,0l-.71-2.24-1-3h0l0-.06-3.34-10.51-.7-2.18h0l-.46-1.45v0l-2.63-8.27v0h0l-3.5-11,.57-2.21,3.3-12.73,0-.14a.87.87,0,0,0,0,.11c.09,1.17,1.22,10.76,14,4.86,10.4-4.8,7.36-11.67,5.34-14.65-.32-.47-.62-.85-.83-1.1l-.32-.37.22,0,.69.1,11,1.54,1.51,1.58Z" transform="translate(-1131.68 42.64)"/><path class="cls-8" d="M1637.64,89.76v2.92a19.52,19.52,0,0,1-5.54,3.87,7.19,7.19,0,0,1-1.6.54,3.55,3.55,0,0,1-1.28,0,2.77,2.77,0,0,1-.76-.23l-.23-.14.26,0a2.19,2.19,0,0,0,.73,0,5.35,5.35,0,0,0,2.36-1.16,31.27,31.27,0,0,0,3-2.65c.54-.53,1.07-1.1,1.62-1.72S1637.14,90.28,1637.64,89.76Z" transform="translate(-1131.68 42.64)"/><path class="cls-7" d="M1597.82,28.71c1-.15,2.74-2.8,4-3.37s.89-.78,1.65-1.4,2.92-1.55,3.85-3a9.84,9.84,0,0,1-.37,5.15,5.66,5.66,0,0,1-4,3.29A8.77,8.77,0,0,1,1597.82,28.71Z" transform="translate(-1131.68 42.64)"/><path class="cls-7" d="M1596.59,28.85l.16-.05.48-.08c.41,0,1-.15,1.68-.3.34-.08.7-.19,1.08-.32a11.14,11.14,0,0,0,1.15-.5,10.38,10.38,0,0,0,1.14-.68,12.1,12.1,0,0,0,1.08-.87,14.44,14.44,0,0,0,3.29-3.88c.16-.31.3-.6.41-.87s.19-.5.25-.69.1-.36.13-.46,0-.17,0-.17v.17c0,.11,0,.27-.07.48s-.09.45-.17.73a6.19,6.19,0,0,1-.34.92,9.31,9.31,0,0,1-.53,1,11.44,11.44,0,0,1-.74,1.07,15.46,15.46,0,0,1-1.95,2,12.19,12.19,0,0,1-1.13.88,7.38,7.38,0,0,1-1.22.68,7.06,7.06,0,0,1-1.23.45,8.94,8.94,0,0,1-1.13.25,11.2,11.2,0,0,1-1.72.13l-.48,0Z" transform="translate(-1131.68 42.64)"/><path class="cls-9" d="M1598.45,28.62a14.63,14.63,0,0,0,8.48-7,7.5,7.5,0,0,1-3.14,5.7A7.19,7.19,0,0,1,1598.45,28.62Z" transform="translate(-1131.68 42.64)"/><path class="cls-10" d="M1596,20.86c3.78-1.2,4-4,3-5.79C1601.7,17.77,1600.36,20.8,1596,20.86Z" transform="translate(-1131.68 42.64)"/><path class="cls-11" d="M1599.83,3.94a1.71,1.71,0,0,0,.08.94c.41,1,1.21,2.9,2.6,2.83,1.65-.08,1.29-2.14.77-3.15A3.2,3.2,0,0,0,1601.76,3,1.35,1.35,0,0,0,1599.83,3.94Z" transform="translate(-1131.68 42.64)"/><path class="cls-11" d="M1598.93,5.11s.48-2.86,5.28-3C1604.21,2.13,1599.13,1.22,1598.93,5.11Z" transform="translate(-1131.68 42.64)"/><path class="cls-11" d="M1584.33,12.67a1.7,1.7,0,0,1,.76.56c.69.9,1.86,2.54,1.08,3.69-.93,1.37-2.5,0-3.1-1a3.19,3.19,0,0,1-.54-2.11A1.35,1.35,0,0,1,1584.33,12.67Z" transform="translate(-1131.68 42.64)"/><path class="cls-11" d="M1585.79,12.51s-2.68-1.06-5.28,3C1580.51,15.49,1582.37,10.67,1585.79,12.51Z" transform="translate(-1131.68 42.64)"/><path class="cls-3" d="M1564.54,31.58a5.62,5.62,0,0,1-1.08-.77,16,16,0,0,0,1.45,4c.15-.42.32-.84.51-1.27a3.77,3.77,0,0,1,.63-.94A11.29,11.29,0,0,0,1564.54,31.58Z" transform="translate(-1131.68 42.64)"/><path class="cls-3" d="M1577.59-17.39c-10.72,0-19.59,15.05-15.81,27.41a32.53,32.53,0,0,1,1.4,10l.55.14c1.88-2.67,6.44-3.59,8.58.1a85.72,85.72,0,0,0,5.16,7.59,9.83,9.83,0,0,1,.52-4.8c2.46-5.75.49-7-3.11-15.18s6.34-7.41,8.21-17.32C1583.8-13.52,1588.31-17.4,1577.59-17.39Z" transform="translate(-1131.68 42.64)"/><path class="cls-3" d="M1578.63,21.36a38,38,0,0,0,20,19s-11.1.31-21.21-12.51A5.58,5.58,0,0,1,1578.63,21.36Z" transform="translate(-1131.68 42.64)"/><path class="cls-12" d="M1592.45-1.26c1.54-1.38,4-3.82,8.56-2.87,2.06.42,2.12,1.14,0,.88-3.69-.44-5.08,1.18-7.56,3.29C1592.45.86,1591.4-.31,1592.45-1.26Z" transform="translate(-1131.68 42.64)"/><path class="cls-12" d="M1582.79,4.19c-2,.6-5.33,1.43-6.89,5.83-.7,2-.12,2.41.78.42,1.53-3.39,3.64-3.74,6.73-4.76C1584.61,5.28,1584.14,3.78,1582.79,4.19Z" transform="translate(-1131.68 42.64)"/><path class="cls-12" d="M1580.47-11.54c-1.87,9.91-11.8,9.17-8.2,17.32s5.57,9.43,3.11,15.17,2.7,17.42,9.69,23.87,9.35,11.19,9.3,18.25,2,10.93,6.53,15.41,7.09,6.77-7.17,2.47-17.66-15.27-19.26-26.43-3-9.36-10.22-18.75-1.31-15.5-5.09-27.86,5.1-27.4,15.82-27.41S1581.18-15.63,1580.47-11.54Z" transform="translate(-1131.68 42.64)"/><path class="cls-13" d="M1573.17-16.46c1.5,4.94-3.44,9.87-6.38,13s-4,7.38-.62,11.89,3.44,12.89,2.38,16.7,5.62,14,11.16,19.43c5.13,5.06,6.84,15.9,7.21,20.25.39,4.65,2.23,9.8,5.92,11.79-5-1.07-7.55-5.83-8.29-12.05s-.08-10.72-7-18.51c-8.77-9.87-12.61-13.09-11.37-22,1-7.07,1.54-8.23-1.89-14-3.51-6-4.14-9.24.06-14S1573.44-11,1573.17-16.46Z" transform="translate(-1131.68 42.64)"/><path class="cls-12" d="M1637.64,16.23V40c-.34-.22-.7-.45-1.08-.67a21.71,21.71,0,0,1-4.33-3.29,16.7,16.7,0,0,1-2.82-3.6c-.09-.14-.17-.28-.25-.43s-.32-.58-.48-.89l0-.09a37,37,0,0,1-2.88-9.12c-1.49-7.3-6.31-15.31-11.3-18.84a9.55,9.55,0,0,0-4.1-1.8c-6-.85-6.26-3.12-11-10l-.33-.47c-3.42-4.9-6.58-2.5-11.15-1.48a14.67,14.67,0,0,1-2.37.37,12.69,12.69,0,0,1-5.09-.68l-.45-.16c-3.31-1.3-8-.12-5.69-5.54a22.09,22.09,0,0,1,1.39-2.72c.1-.18.21-.37.33-.56,5.56-9.17,23-9,31.64.66s16.9,7.75,21.2,18.78C1632.75,9.52,1631.14,10.58,1637.64,16.23Z" transform="translate(-1131.68 42.64)"/><path class="cls-13" d="M1637.64,27.61v2.72l0,0-.19-.18-.26-.23c-3.64-3.37-7.72-8-8.82-12.71a47.88,47.88,0,0,0-1.39-4.67c-2.38-6.76-6.38-14.08-9.45-14.94a24.45,24.45,0,0,1-7.86-4.31,16.6,16.6,0,0,1-5.2-6.38c-2.1-5.24-6.27-6.49-10.49-5.62s-10.81,2.51-14.3-1.14c-.06-.05-.1-.1-.15-.15l.2.13c4.4,2.8,8.86-.05,14.92-1.2h0l.12,0c6.21-1.14,8.7,1.09,12,7.18,3.19,5.94,4.47,6.07,11,8.89,8.3,3.57,9.06,8.52,13,21.14.19.61.38,1.18.58,1.73A21.53,21.53,0,0,0,1637.64,27.61Z" transform="translate(-1131.68 42.64)"/><path class="cls-14" d="M1556.94,19.29,1532.88,4.2V-16.72c0-15.54-11-25.92-26.5-25.92H1161.45c-15.54,0-29.77,10.38-29.77,25.92V62.37c0,15.54,14.23,30.36,29.77,30.36h344.93c15.54,0,26.5-14.82,26.5-30.36V36.51Z" transform="translate(-1131.68 42.64)"/><path class="cls-15" d="M1173.47.35a.77.77,0,0,1,.22.53.69.69,0,0,1-.22.52.79.79,0,0,1-.55.2h-5.57a.77.77,0,0,1-.54-.22.76.76,0,0,1-.23-.55V-8.83a.75.75,0,0,1,.23-.55.73.73,0,0,1,.54-.22h5.57a.75.75,0,0,1,.55.21.74.74,0,0,1,.22.54.68.68,0,0,1-.22.52.75.75,0,0,1-.55.2h-4.75v3.27h4a.79.79,0,0,1,.55.2.73.73,0,0,1,.22.53.68.68,0,0,1-.22.53.78.78,0,0,1-.55.19h-4V.13h4.75A.72.72,0,0,1,1173.47.35Z" transform="translate(-1131.68 42.64)"/><path class="cls-15" d="M1176.93,1.38a.76.76,0,0,1-.54.22.77.77,0,0,1-.54-.22.79.79,0,0,1-.21-.55V-9.47a.74.74,0,0,1,.22-.55.74.74,0,0,1,.55-.22.69.69,0,0,1,.53.22.74.74,0,0,1,.22.55V.83A.76.76,0,0,1,1176.93,1.38Z" transform="translate(-1131.68 42.64)"/><path class="cls-15" d="M1190.17-6.38a3.93,3.93,0,0,1,1.38,1.55,4.83,4.83,0,0,1,.5,2.24,4.78,4.78,0,0,1-.5,2.23,3.9,3.9,0,0,1-1.38,1.54,3.51,3.51,0,0,1-1.94.56,3.43,3.43,0,0,1-1.55-.36,3.87,3.87,0,0,1-1.17-.9V4a.75.75,0,0,1-.22.55.71.71,0,0,1-.55.22.69.69,0,0,1-.53-.22A.71.71,0,0,1,1184,4V-6a.78.78,0,0,1,.21-.56.71.71,0,0,1,.54-.23.72.72,0,0,1,.55.23.75.75,0,0,1,.22.56v.46a3.25,3.25,0,0,1,1.12-1,3.3,3.3,0,0,1,1.57-.4A3.72,3.72,0,0,1,1190.17-6.38ZM1189.35,0a2.48,2.48,0,0,0,.92-1,3.3,3.3,0,0,0,.33-1.49,3.31,3.31,0,0,0-.33-1.5,2.6,2.6,0,0,0-.92-1,2.43,2.43,0,0,0-1.33-.38,2.36,2.36,0,0,0-1.34.38,2.51,2.51,0,0,0-.92,1,3.38,3.38,0,0,0-.33,1.51,3.37,3.37,0,0,0,.33,1.5,2.48,2.48,0,0,0,.92,1.05,2.44,2.44,0,0,0,1.34.38A2.36,2.36,0,0,0,1189.35,0Z" transform="translate(-1131.68 42.64)"/><path class="cls-15" d="M1198.71-6.76a.63.63,0,0,1,.3.54.76.76,0,0,1-.2.58.66.66,0,0,1-.48.2,1.43,1.43,0,0,1-.44-.1,1.93,1.93,0,0,0-.52-.11,1.63,1.63,0,0,0-1,.35,2.49,2.49,0,0,0-.77.94,3,3,0,0,0-.3,1.34V.83a.79.79,0,0,1-.21.55.78.78,0,0,1-.55.22.71.71,0,0,1-.55-.22.74.74,0,0,1-.21-.55V-6a.77.77,0,0,1,.22-.54.7.7,0,0,1,.54-.22.74.74,0,0,1,.55.22.76.76,0,0,1,.21.54v.82a3.05,3.05,0,0,1,1.06-1.27A2.79,2.79,0,0,1,1198-7,1.23,1.23,0,0,1,1198.71-6.76Z" transform="translate(-1131.68 42.64)"/><path class="cls-15" d="M1207.45-.35a4.14,4.14,0,0,1-1.53,1.55,4.25,4.25,0,0,1-2.14.56,4.18,4.18,0,0,1-2.13-.56,4,4,0,0,1-1.53-1.55,4.51,4.51,0,0,1-.56-2.24,4.62,4.62,0,0,1,.56-2.26,4.05,4.05,0,0,1,1.53-1.57,4.18,4.18,0,0,1,2.13-.56,4.25,4.25,0,0,1,2.14.56,4.19,4.19,0,0,1,1.53,1.57,4.62,4.62,0,0,1,.56,2.26A4.51,4.51,0,0,1,1207.45-.35Zm-1.32-3.79a2.69,2.69,0,0,0-1-1.05,2.59,2.59,0,0,0-1.37-.38,2.62,2.62,0,0,0-1.37.38,2.66,2.66,0,0,0-1,1.05,3.28,3.28,0,0,0-.36,1.55,3.19,3.19,0,0,0,.36,1.52,2.66,2.66,0,0,0,1,1.05,2.61,2.61,0,0,0,1.37.37,2.58,2.58,0,0,0,1.37-.37,2.69,2.69,0,0,0,1-1,3.19,3.19,0,0,0,.36-1.52A3.28,3.28,0,0,0,1206.13-4.14Z" transform="translate(-1131.68 42.64)"/><path class="cls-15" d="M1216.56-6.64a.76.76,0,0,1,.21.54V.82a3.8,3.8,0,0,1-1.1,3,4.21,4.21,0,0,1-2.91,1,6.45,6.45,0,0,1-1.17-.11,3.56,3.56,0,0,1-.94-.31c-.4-.18-.6-.42-.6-.73a1,1,0,0,1,0-.21.9.9,0,0,1,.27-.42.65.65,0,0,1,.4-.14.69.69,0,0,1,.24.05c.33.15.62.26.88.35a2.93,2.93,0,0,0,.89.13,2.22,2.22,0,0,0,2.48-2.55V.54a2.74,2.74,0,0,1-1.11.9,3.65,3.65,0,0,1-1.56.32,2.61,2.61,0,0,1-2.07-.85,3.22,3.22,0,0,1-.74-2.22V-6.1a.81.81,0,0,1,.2-.55.74.74,0,0,1,.55-.21.72.72,0,0,1,.55.22.77.77,0,0,1,.22.54v4.39a2.25,2.25,0,0,0,.46,1.56,1.85,1.85,0,0,0,1.41.5,2.06,2.06,0,0,0,1.5-.57,2,2,0,0,0,.59-1.49V-6.1a.77.77,0,0,1,.21-.55.74.74,0,0,1,.55-.21A.72.72,0,0,1,1216.56-6.64Z" transform="translate(-1131.68 42.64)"/><path class="cls-15" d="M1226.07-2.42a.78.78,0,0,1-.53.2h-5.63a2.77,2.77,0,0,0,.89,1.87,2.71,2.71,0,0,0,1.89.7,3,3,0,0,0,1.25-.22,3.12,3.12,0,0,0,.85-.58.94.94,0,0,1,.46-.14.59.59,0,0,1,.46.19.64.64,0,0,1,.18.45.79.79,0,0,1-.32.61,3.71,3.71,0,0,1-1.23.78,4.08,4.08,0,0,1-1.57.32,4.69,4.69,0,0,1-2.28-.54A3.9,3.9,0,0,1,1219-.3a4.63,4.63,0,0,1-.53-2.21,4.84,4.84,0,0,1,.55-2.36,3.93,3.93,0,0,1,1.46-1.56,3.72,3.72,0,0,1,1.94-.55,3.75,3.75,0,0,1,1.92.53A4,4,0,0,1,1225.75-5a4.17,4.17,0,0,1,.56,2.08A.7.7,0,0,1,1226.07-2.42Zm-5.23-2.64A2.45,2.45,0,0,0,1220-3.5h4.72v-.13a1.9,1.9,0,0,0-.76-1.39,2.35,2.35,0,0,0-1.54-.55A2.45,2.45,0,0,0,1220.84-5.06Z" transform="translate(-1131.68 42.64)"/><path class="cls-15" d="M1233.82-6.58c.56.27.84.61.84,1a.81.81,0,0,1-.17.49.57.57,0,0,1-.45.21.75.75,0,0,1-.33-.06c-.08,0-.19-.11-.33-.21a1.45,1.45,0,0,0-.3-.22,1.82,1.82,0,0,0-.55-.16,3,3,0,0,0-.64-.07,2.78,2.78,0,0,0-1.47.39,2.67,2.67,0,0,0-1,1.06,3.29,3.29,0,0,0-.35,1.51,3.27,3.27,0,0,0,.34,1.52,2.61,2.61,0,0,0,1,1.06,2.72,2.72,0,0,0,1.42.38,3,3,0,0,0,1.35-.25l.3-.21a1.54,1.54,0,0,1,.28-.19.56.56,0,0,1,.3-.07.65.65,0,0,1,.5.2.73.73,0,0,1,.19.52.91.91,0,0,1-.43.67,3.61,3.61,0,0,1-1.13.53,5.44,5.44,0,0,1-1.53.21,4,4,0,0,1-2.15-.57,3.88,3.88,0,0,1-1.43-1.57,4.94,4.94,0,0,1-.5-2.23,4.62,4.62,0,0,1,.53-2.23,3.91,3.91,0,0,1,1.47-1.57,4.1,4.1,0,0,1,2.16-.57A5,5,0,0,1,1233.82-6.58Z" transform="translate(-1131.68 42.64)"/><path class="cls-15" d="M1238.57-5.3V-.53c0,.53.24.8.72.8a1.53,1.53,0,0,0,.3-.05,1.11,1.11,0,0,1,.3-.06.45.45,0,0,1,.36.18.68.68,0,0,1,.14.44.69.69,0,0,1-.38.58,1.63,1.63,0,0,1-.87.24,4.23,4.23,0,0,1-1-.11,1.49,1.49,0,0,1-.78-.57,2.28,2.28,0,0,1-.34-1.38V-5.3h-.93a.69.69,0,0,1-.51-.2.69.69,0,0,1-.2-.5.69.69,0,0,1,.2-.5.76.76,0,0,1,.51-.19h.93V-8a.77.77,0,0,1,.21-.55.74.74,0,0,1,.55-.22.7.7,0,0,1,.54.22.78.78,0,0,1,.22.55v1.34h1.32a.71.71,0,0,1,.51.2.71.71,0,0,1,.2.51.66.66,0,0,1-.2.49.7.7,0,0,1-.51.19Z" transform="translate(-1131.68 42.64)"/><path class="cls-15" d="M1249.67-.35a4,4,0,0,1-1.53,1.55,4.21,4.21,0,0,1-2.13.56,4.25,4.25,0,0,1-2.14-.56,4,4,0,0,1-1.53-1.55,4.51,4.51,0,0,1-.56-2.24,4.62,4.62,0,0,1,.56-2.26,4.05,4.05,0,0,1,1.53-1.57A4.25,4.25,0,0,1,1246-7a4.21,4.21,0,0,1,2.13.56,4.05,4.05,0,0,1,1.53,1.57,4.62,4.62,0,0,1,.56,2.26A4.51,4.51,0,0,1,1249.67-.35Zm-1.32-3.79a2.69,2.69,0,0,0-1-1.05,2.56,2.56,0,0,0-1.36-.38,2.57,2.57,0,0,0-1.37.38,2.69,2.69,0,0,0-1,1.05,3.28,3.28,0,0,0-.36,1.55,3.19,3.19,0,0,0,.36,1.52,2.69,2.69,0,0,0,1,1.05,2.56,2.56,0,0,0,1.37.37,2.55,2.55,0,0,0,1.36-.37,2.69,2.69,0,0,0,1-1,3.19,3.19,0,0,0,.36-1.52A3.28,3.28,0,0,0,1248.35-4.14Z" transform="translate(-1131.68 42.64)"/><path class="cls-15" d="M1265.48-9.4a.68.68,0,0,1,.19.5V.82a.76.76,0,0,1-.22.56.75.75,0,0,1-.55.22,1,1,0,0,1-.34-.06.61.61,0,0,1-.27-.16L1258-6.82V.9a.69.69,0,0,1-.2.5.73.73,0,0,1-.51.2.65.65,0,0,1-.49-.2.69.69,0,0,1-.2-.5V-8.83a.75.75,0,0,1,.22-.55.7.7,0,0,1,.54-.22.89.89,0,0,1,.36.07.75.75,0,0,1,.28.2l6.27,8.21V-8.9a.65.65,0,0,1,.2-.5.69.69,0,0,1,.5-.2A.69.69,0,0,1,1265.48-9.4Z" transform="translate(-1131.68 42.64)"/><path class="cls-15" d="M1275.49-6.68a.77.77,0,0,1,.21.57V.83a.79.79,0,0,1-.21.55.79.79,0,0,1-.56.22.7.7,0,0,1-.54-.22.74.74,0,0,1-.21-.55V.42a3.45,3.45,0,0,1-1.13,1,3.22,3.22,0,0,1-1.56.39,3.64,3.64,0,0,1-2-.56,3.77,3.77,0,0,1-1.39-1.56,4.9,4.9,0,0,1-.51-2.25,4.9,4.9,0,0,1,.51-2.25,3.87,3.87,0,0,1,1.38-1.56,3.57,3.57,0,0,1,1.94-.56,3.48,3.48,0,0,1,1.57.36,3.21,3.21,0,0,1,1.16.89v-.38a.78.78,0,0,1,.21-.56.71.71,0,0,1,.54-.23A.79.79,0,0,1,1275.49-6.68ZM1273,0a2.62,2.62,0,0,0,.91-1.06,3.4,3.4,0,0,0,.33-1.52,3.37,3.37,0,0,0-.33-1.5,2.65,2.65,0,0,0-.91-1.07,2.37,2.37,0,0,0-1.34-.39,2.37,2.37,0,0,0-1.34.39,2.53,2.53,0,0,0-.91,1,3.43,3.43,0,0,0-.33,1.52,3.4,3.4,0,0,0,.33,1.52,2.62,2.62,0,0,0,.91,1.06,2.44,2.44,0,0,0,1.34.38A2.44,2.44,0,0,0,1273,0Z" transform="translate(-1131.68 42.64)"/><path class="cls-15" d="M1282.85-6.76a.62.62,0,0,1,.31.54.8.8,0,0,1-.2.58.7.7,0,0,1-.49.2,1.33,1.33,0,0,1-.43-.1,2,2,0,0,0-.53-.11,1.65,1.65,0,0,0-1,.35,2.58,2.58,0,0,0-.77.94,3.1,3.1,0,0,0-.29,1.34V.83a.75.75,0,0,1-.22.55.76.76,0,0,1-.55.22.69.69,0,0,1-.54-.22.74.74,0,0,1-.21-.55V-6a.76.76,0,0,1,.21-.54.73.73,0,0,1,.54-.22.72.72,0,0,1,.55.22.73.73,0,0,1,.22.54v.82a3,3,0,0,1,1-1.27,2.82,2.82,0,0,1,1.6-.51A1.23,1.23,0,0,1,1282.85-6.76Z" transform="translate(-1131.68 42.64)"/><path class="cls-15" d="M1289.46-6.76a.62.62,0,0,1,.31.54.8.8,0,0,1-.2.58.7.7,0,0,1-.49.2,1.33,1.33,0,0,1-.43-.1,2,2,0,0,0-.53-.11,1.63,1.63,0,0,0-1,.35,2.58,2.58,0,0,0-.77.94,3,3,0,0,0-.29,1.34V.83a.8.8,0,0,1-.22.55.76.76,0,0,1-.55.22.71.71,0,0,1-.55-.22.77.77,0,0,1-.2-.55V-6a.76.76,0,0,1,.21-.54.72.72,0,0,1,.54-.22.72.72,0,0,1,.55.22.77.77,0,0,1,.22.54v.82a3,3,0,0,1,1.05-1.27,2.79,2.79,0,0,1,1.6-.51A1.23,1.23,0,0,1,1289.46-6.76Z" transform="translate(-1131.68 42.64)"/><path class="cls-15" d="M1298.33-6.68a.74.74,0,0,1,.22.57V.83a.75.75,0,0,1-.22.55.75.75,0,0,1-.55.22.7.7,0,0,1-.54-.22.74.74,0,0,1-.21-.55V.42a3.49,3.49,0,0,1-1.14,1,3.19,3.19,0,0,1-1.55.39,3.64,3.64,0,0,1-2-.56A3.79,3.79,0,0,1,1291-.36a5,5,0,0,1-.5-2.25,5,5,0,0,1,.5-2.25,4,4,0,0,1,1.39-1.56,3.56,3.56,0,0,1,1.93-.56,3.52,3.52,0,0,1,1.58.36,3.21,3.21,0,0,1,1.16.89v-.38a.78.78,0,0,1,.21-.56.71.71,0,0,1,.54-.23A.75.75,0,0,1,1298.33-6.68ZM1295.85,0a2.64,2.64,0,0,0,.92-1.06,3.39,3.39,0,0,0,.32-1.52,3.36,3.36,0,0,0-.32-1.5,2.67,2.67,0,0,0-.92-1.07,2.34,2.34,0,0,0-1.33-.39,2.37,2.37,0,0,0-1.34.39,2.53,2.53,0,0,0-.91,1,3.43,3.43,0,0,0-.33,1.52,3.4,3.4,0,0,0,.33,1.52,2.62,2.62,0,0,0,.91,1.06,2.44,2.44,0,0,0,1.34.38A2.41,2.41,0,0,0,1295.85,0Z" transform="translate(-1131.68 42.64)"/><path class="cls-15" d="M1303.08-5.3V-.53c0,.53.24.8.72.8a1.53,1.53,0,0,0,.3-.05,1.1,1.1,0,0,1,.31-.06.45.45,0,0,1,.35.18.68.68,0,0,1,.14.44.69.69,0,0,1-.38.58,1.63,1.63,0,0,1-.87.24,4.08,4.08,0,0,1-1-.11,1.48,1.48,0,0,1-.79-.57,2.28,2.28,0,0,1-.34-1.38V-5.3h-.93a.65.65,0,0,1-.5-.2.65.65,0,0,1-.2-.5.65.65,0,0,1,.2-.5.72.72,0,0,1,.5-.19h.93V-8a.77.77,0,0,1,.21-.55.75.75,0,0,1,.56-.22.69.69,0,0,1,.53.22.74.74,0,0,1,.22.55v1.34h1.33a.69.69,0,0,1,.5.2.71.71,0,0,1,.2.51.66.66,0,0,1-.2.49.68.68,0,0,1-.5.19Z" transform="translate(-1131.68 42.64)"/><path class="cls-15" d="M1306.89-8.09a.66.66,0,0,1-.2-.53v-.26a.62.62,0,0,1,.22-.54,1.1,1.1,0,0,1,.67-.16,1,1,0,0,1,.64.16.65.65,0,0,1,.2.54v.26a.65.65,0,0,1-.21.54,1,1,0,0,1-.65.16A1.08,1.08,0,0,1,1306.89-8.09Zm1.22,9.47a.76.76,0,0,1-.55.22.77.77,0,0,1-.54-.22.79.79,0,0,1-.21-.55V-6.1a.76.76,0,0,1,.21-.54.73.73,0,0,1,.54-.22.72.72,0,0,1,.55.22.77.77,0,0,1,.22.54V.83A.8.8,0,0,1,1308.11,1.38Z" transform="translate(-1131.68 42.64)"/><path class="cls-15" d="M1317.43-6.66a.62.62,0,0,1,.21.47,1.21,1.21,0,0,1-.11.4l-3,6.91a.93.93,0,0,1-.28.34.73.73,0,0,1-.38.14.7.7,0,0,1-.47-.1.77.77,0,0,1-.33-.38l-3-6.91a1.47,1.47,0,0,1-.08-.4.66.66,0,0,1,.21-.47.77.77,0,0,1,.54-.2.77.77,0,0,1,.43.12.85.85,0,0,1,.31.36l2.41,5.61,2.42-5.61a.73.73,0,0,1,.69-.48A.69.69,0,0,1,1317.43-6.66Z" transform="translate(-1131.68 42.64)"/><path class="cls-15" d="M1326.61-6.68a.77.77,0,0,1,.21.57V.83a.79.79,0,0,1-.21.55.79.79,0,0,1-.56.22.7.7,0,0,1-.54-.22.74.74,0,0,1-.21-.55V.42a3.45,3.45,0,0,1-1.13,1,3.22,3.22,0,0,1-1.56.39,3.64,3.64,0,0,1-2-.56,3.77,3.77,0,0,1-1.39-1.56,4.9,4.9,0,0,1-.51-2.25,4.9,4.9,0,0,1,.51-2.25,3.87,3.87,0,0,1,1.38-1.56,3.57,3.57,0,0,1,1.94-.56,3.48,3.48,0,0,1,1.57.36,3.21,3.21,0,0,1,1.16.89v-.38a.78.78,0,0,1,.21-.56.71.71,0,0,1,.54-.23A.79.79,0,0,1,1326.61-6.68ZM1324.13,0a2.62,2.62,0,0,0,.91-1.06,3.4,3.4,0,0,0,.33-1.52,3.37,3.37,0,0,0-.33-1.5,2.65,2.65,0,0,0-.91-1.07,2.37,2.37,0,0,0-1.34-.39,2.37,2.37,0,0,0-1.34.39,2.53,2.53,0,0,0-.91,1,3.43,3.43,0,0,0-.33,1.52,3.4,3.4,0,0,0,.33,1.52,2.62,2.62,0,0,0,.91,1.06,2.44,2.44,0,0,0,1.34.38A2.44,2.44,0,0,0,1324.13,0Z" transform="translate(-1131.68 42.64)"/><path class="cls-15" d="M1328.45-.14a.66.66,0,0,1,.34-.55.67.67,0,0,1,.37-.11.74.74,0,0,1,.53.24,3.55,3.55,0,0,0,1,.82,3,3,0,0,0,1.32.27,2.33,2.33,0,0,0,1.07-.28.91.91,0,0,0,.46-.86.91.91,0,0,0-.47-.83,5.3,5.3,0,0,0-1.38-.53,11.19,11.19,0,0,1-1.49-.5,2.62,2.62,0,0,1-1-.77,2.06,2.06,0,0,1-.41-1.32,2,2,0,0,1,.41-1.26,2.58,2.58,0,0,1,1.09-.85A3.44,3.44,0,0,1,1331.8-7a4.36,4.36,0,0,1,1.53.29,2.93,2.93,0,0,1,1.24.88.76.76,0,0,1,.19.47.69.69,0,0,1-.26.49.55.55,0,0,1-.4.15.6.6,0,0,1-.46-.2,2.37,2.37,0,0,0-.83-.59,2.67,2.67,0,0,0-1.08-.21,2.07,2.07,0,0,0-1,.25.91.91,0,0,0-.42.84.91.91,0,0,0,.49.83,5.65,5.65,0,0,0,1.44.53,8.81,8.81,0,0,1,1.41.48,2.51,2.51,0,0,1,1,.76A2.17,2.17,0,0,1,1335-.69a2.06,2.06,0,0,1-.43,1.31,2.82,2.82,0,0,1-1.13.84,3.69,3.69,0,0,1-1.48.3,4.93,4.93,0,0,1-1.86-.35A3.52,3.52,0,0,1,1328.6.29.8.8,0,0,1,1328.45-.14Z" transform="translate(-1131.68 42.64)"/><path class="cls-15" d="M1348.49-10a.71.71,0,0,1,.22.55V.83a.75.75,0,0,1-.22.55.75.75,0,0,1-.55.22.7.7,0,0,1-.54-.22.74.74,0,0,1-.21-.55V.38a3.21,3.21,0,0,1-1.13,1,3.12,3.12,0,0,1-1.56.4,3.64,3.64,0,0,1-2-.56,3.91,3.91,0,0,1-1.39-1.56,4.9,4.9,0,0,1-.51-2.25,5,5,0,0,1,.5-2.25,4,4,0,0,1,1.39-1.56,3.54,3.54,0,0,1,1.93-.56,3.45,3.45,0,0,1,1.57.36,3.24,3.24,0,0,1,1.17.91V-9.47a.74.74,0,0,1,.21-.55.7.7,0,0,1,.54-.22A.71.71,0,0,1,1348.49-10ZM1346,0a2.64,2.64,0,0,0,.92-1.06,3.53,3.53,0,0,0,.32-1.52,3.55,3.55,0,0,0-.32-1.51,2.58,2.58,0,0,0-.92-1.06,2.34,2.34,0,0,0-1.33-.39,2.37,2.37,0,0,0-1.34.39,2.56,2.56,0,0,0-.91,1.06,3.41,3.41,0,0,0-.33,1.51,3.4,3.4,0,0,0,.33,1.52,2.62,2.62,0,0,0,.91,1.06,2.44,2.44,0,0,0,1.34.38A2.41,2.41,0,0,0,1346,0Z" transform="translate(-1131.68 42.64)"/><path class="cls-15" d="M1358.09-2.42a.79.79,0,0,1-.53.2h-5.63a2.8,2.8,0,0,0,.88,1.87,2.72,2.72,0,0,0,1.9.7A3,3,0,0,0,1356,.13a3.12,3.12,0,0,0,.85-.58.94.94,0,0,1,.46-.14.62.62,0,0,1,.46.19.64.64,0,0,1,.18.45.82.82,0,0,1-.32.61,3.71,3.71,0,0,1-1.23.78,4.12,4.12,0,0,1-1.57.32,4.69,4.69,0,0,1-2.28-.54A3.83,3.83,0,0,1,1351-.3a4.52,4.52,0,0,1-.54-2.21,4.84,4.84,0,0,1,.56-2.36,3.91,3.91,0,0,1,1.45-1.56,3.73,3.73,0,0,1,2-.55,3.75,3.75,0,0,1,1.92.53A4.11,4.11,0,0,1,1357.77-5a4.17,4.17,0,0,1,.56,2.08A.7.7,0,0,1,1358.09-2.42Zm-5.24-2.64A2.49,2.49,0,0,0,1352-3.5h4.72v-.13A1.94,1.94,0,0,0,1356-5a2.37,2.37,0,0,0-1.54-.55A2.48,2.48,0,0,0,1352.85-5.06Z" transform="translate(-1131.68 42.64)"/><path class="cls-15" d="M1370.76-9.14a3.18,3.18,0,0,1,1.14,1.24,3.57,3.57,0,0,1,.43,1.72,3.74,3.74,0,0,1-.43,1.75,3.31,3.31,0,0,1-1.14,1.26,2.86,2.86,0,0,1-1.57.47h-3V.83a.79.79,0,0,1-.21.55.71.71,0,0,1-.52.22.67.67,0,0,1-.54-.22.77.77,0,0,1-.2-.55V-8.83a.74.74,0,0,1,.22-.55.74.74,0,0,1,.55-.22h3.71A2.85,2.85,0,0,1,1370.76-9.14Zm-.77,4.7a2,2,0,0,0,.58-.74,2.25,2.25,0,0,0,.22-1,2.12,2.12,0,0,0-.47-1.38,1.43,1.43,0,0,0-1.13-.57h-3v4h3A1.28,1.28,0,0,0,1370-4.44Z" transform="translate(-1131.68 42.64)"/><path class="cls-15" d="M1381.39-6.68a.78.78,0,0,1,.22.57V.83a.8.8,0,0,1-.22.55.76.76,0,0,1-.55.22.71.71,0,0,1-.55-.22.74.74,0,0,1-.21-.55V.42a3.35,3.35,0,0,1-1.13,1,3.21,3.21,0,0,1-1.55.39,3.65,3.65,0,0,1-2-.56A3.84,3.84,0,0,1,1374-.36a4.9,4.9,0,0,1-.5-2.25,4.9,4.9,0,0,1,.5-2.25,4,4,0,0,1,1.38-1.56,3.59,3.59,0,0,1,1.94-.56,3.48,3.48,0,0,1,1.57.36,3.12,3.12,0,0,1,1.16.89v-.38a.78.78,0,0,1,.21-.56.72.72,0,0,1,.55-.23A.76.76,0,0,1,1381.39-6.68ZM1378.91,0a2.62,2.62,0,0,0,.91-1.06,3.4,3.4,0,0,0,.33-1.52,3.37,3.37,0,0,0-.33-1.5,2.65,2.65,0,0,0-.91-1.07,2.37,2.37,0,0,0-1.34-.39,2.34,2.34,0,0,0-1.33.39,2.46,2.46,0,0,0-.91,1,3.43,3.43,0,0,0-.33,1.52,3.4,3.4,0,0,0,.33,1.52,2.55,2.55,0,0,0,.91,1.06,2.41,2.41,0,0,0,1.33.38A2.44,2.44,0,0,0,1378.91,0Z" transform="translate(-1131.68 42.64)"/><path class="cls-15" d="M1389.69.39a.69.69,0,0,1,.2.51.69.69,0,0,1-.2.5.73.73,0,0,1-.52.2H1384a.67.67,0,0,1-.5-.22.72.72,0,0,1-.2-.47,1,1,0,0,1,.07-.34,1.21,1.21,0,0,1,.17-.31l4.19-5.6h-3.47a.69.69,0,0,1-.51-.21.69.69,0,0,1-.21-.51.67.67,0,0,1,.2-.5.73.73,0,0,1,.52-.19h4.91a.65.65,0,0,1,.51.22.75.75,0,0,1,.18.55,2,2,0,0,1,0,.28,1,1,0,0,1-.17.26L1385.41.19h3.76A.73.73,0,0,1,1389.69.39Z" transform="translate(-1131.68 42.64)"/><path class="cls-15" d="M1402.18-6.42a3.81,3.81,0,0,1,1.38,1.56,4.8,4.8,0,0,1,.51,2.24,4.9,4.9,0,0,1-.51,2.25,3.78,3.78,0,0,1-1.38,1.57,3.56,3.56,0,0,1-1.93.56,3.32,3.32,0,0,1-1.56-.37,3.6,3.6,0,0,1-1.17-.91V.94a.77.77,0,0,1-.21.55.72.72,0,0,1-.55.22.75.75,0,0,1-.54-.21.79.79,0,0,1-.22-.56V-9.47a.74.74,0,0,1,.21-.55.71.71,0,0,1,.55-.22.72.72,0,0,1,.55.22.77.77,0,0,1,.21.55v3.9a3.31,3.31,0,0,1,1.12-1,3.16,3.16,0,0,1,1.57-.42A3.62,3.62,0,0,1,1402.18-6.42ZM1401.37,0a2.67,2.67,0,0,0,.92-1.07,3.58,3.58,0,0,0,.32-1.51,3.52,3.52,0,0,0-.32-1.51,2.55,2.55,0,0,0-.92-1,2.38,2.38,0,0,0-1.33-.39,2.42,2.42,0,0,0-1.35.39,2.58,2.58,0,0,0-.92,1,3.39,3.39,0,0,0-.32,1.52,3.42,3.42,0,0,0,.32,1.52,2.71,2.71,0,0,0,.92,1.06,2.42,2.42,0,0,0,1.35.39A2.38,2.38,0,0,0,1401.37,0Z" transform="translate(-1131.68 42.64)"/><path class="cls-15" d="M1412.62-6.56a.77.77,0,0,1,.22.54v4.26a3.49,3.49,0,0,1-.92,2.58,3.5,3.5,0,0,1-2.6.92,3.45,3.45,0,0,1-2.58-.92,3.49,3.49,0,0,1-.91-2.58V-6a.76.76,0,0,1,.21-.54.73.73,0,0,1,.54-.22.72.72,0,0,1,.55.22.73.73,0,0,1,.22.54v4.26c0,1.4.65,2.1,2,2.1a2,2,0,0,0,1.48-.53,2.14,2.14,0,0,0,.52-1.57V-6a.76.76,0,0,1,.21-.54.73.73,0,0,1,.54-.22A.72.72,0,0,1,1412.62-6.56Z" transform="translate(-1131.68 42.64)"/><path class="cls-15" d="M1414.49-.14a.65.65,0,0,1,.33-.55.67.67,0,0,1,.37-.11.74.74,0,0,1,.53.24,3.55,3.55,0,0,0,1,.82,3,3,0,0,0,1.32.27,2.33,2.33,0,0,0,1.07-.28.92.92,0,0,0,.47-.86.91.91,0,0,0-.48-.83,5.3,5.3,0,0,0-1.38-.53,11.19,11.19,0,0,1-1.49-.5,2.69,2.69,0,0,1-1-.77,2.06,2.06,0,0,1-.41-1.32,2,2,0,0,1,.41-1.26,2.65,2.65,0,0,1,1.09-.85,3.47,3.47,0,0,1,1.48-.31,4.36,4.36,0,0,1,1.53.29,2.93,2.93,0,0,1,1.24.88.71.71,0,0,1,.19.47.69.69,0,0,1-.26.49.55.55,0,0,1-.4.15.6.6,0,0,1-.46-.2,2.33,2.33,0,0,0-.82-.59,2.74,2.74,0,0,0-1.08-.21,2.11,2.11,0,0,0-1,.25.91.91,0,0,0-.42.84.91.91,0,0,0,.49.83,5.61,5.61,0,0,0,1.45.53,9,9,0,0,1,1.4.48,2.51,2.51,0,0,1,.95.76A2.17,2.17,0,0,1,1421-.69a2.06,2.06,0,0,1-.43,1.31,2.75,2.75,0,0,1-1.13.84,3.69,3.69,0,0,1-1.48.3,4.93,4.93,0,0,1-1.86-.35,3.52,3.52,0,0,1-1.45-1.12A.78.78,0,0,1,1414.49-.14Z" transform="translate(-1131.68 42.64)"/><path class="cls-15" d="M1428.49-6.58c.56.27.84.61.84,1a.81.81,0,0,1-.17.49.57.57,0,0,1-.45.21.75.75,0,0,1-.33-.06c-.08,0-.19-.11-.33-.21a1.45,1.45,0,0,0-.3-.22,1.84,1.84,0,0,0-.54-.16,3.12,3.12,0,0,0-.64-.07,2.8,2.8,0,0,0-1.48.39,2.67,2.67,0,0,0-1,1.06,3.29,3.29,0,0,0-.35,1.51,3.27,3.27,0,0,0,.34,1.52,2.68,2.68,0,0,0,1,1.06,2.73,2.73,0,0,0,1.43.38,3,3,0,0,0,1.34-.25l.3-.21a1.54,1.54,0,0,1,.28-.19.56.56,0,0,1,.3-.07.65.65,0,0,1,.5.2.73.73,0,0,1,.19.52A.88.88,0,0,1,1429,1a3.61,3.61,0,0,1-1.13.53,5.44,5.44,0,0,1-1.53.21,4,4,0,0,1-2.14-.57,3.83,3.83,0,0,1-1.44-1.57,4.94,4.94,0,0,1-.5-2.23,4.74,4.74,0,0,1,.53-2.23,3.91,3.91,0,0,1,1.47-1.57,4.1,4.1,0,0,1,2.16-.57A5,5,0,0,1,1428.49-6.58Z" transform="translate(-1131.68 42.64)"/><path class="cls-15" d="M1438.32-6.68a.77.77,0,0,1,.21.57V.83a.79.79,0,0,1-.21.55.79.79,0,0,1-.56.22.7.7,0,0,1-.54-.22.74.74,0,0,1-.21-.55V.42a3.35,3.35,0,0,1-1.13,1,3.21,3.21,0,0,1-1.55.39,3.65,3.65,0,0,1-2-.56A3.77,3.77,0,0,1,1431-.36a4.9,4.9,0,0,1-.51-2.25,4.9,4.9,0,0,1,.51-2.25,3.87,3.87,0,0,1,1.38-1.56,3.57,3.57,0,0,1,1.94-.56,3.48,3.48,0,0,1,1.57.36,3.21,3.21,0,0,1,1.16.89v-.38a.78.78,0,0,1,.21-.56.71.71,0,0,1,.54-.23A.79.79,0,0,1,1438.32-6.68ZM1435.84,0a2.62,2.62,0,0,0,.91-1.06,3.4,3.4,0,0,0,.33-1.52,3.37,3.37,0,0,0-.33-1.5,2.65,2.65,0,0,0-.91-1.07,2.37,2.37,0,0,0-1.34-.39,2.31,2.31,0,0,0-1.33.39,2.55,2.55,0,0,0-.92,1,3.43,3.43,0,0,0-.33,1.52,3.4,3.4,0,0,0,.33,1.52,2.64,2.64,0,0,0,.92,1.06,2.38,2.38,0,0,0,1.33.38A2.44,2.44,0,0,0,1435.84,0Z" transform="translate(-1131.68 42.64)"/><path class="cls-15" d="M1452.78-6.68a.78.78,0,0,1,.22.57v7a4,4,0,0,1-.56,2.17A3.21,3.21,0,0,1,1451,4.38a5.19,5.19,0,0,1-2.13.42,5.9,5.9,0,0,1-1.49-.22,2.62,2.62,0,0,1-1.1-.47c-.33-.17-.5-.38-.5-.64a.6.6,0,0,1,.07-.25.59.59,0,0,1,.59-.4,1.29,1.29,0,0,1,.45.09,6,6,0,0,0,2,.5,2.84,2.84,0,0,0,2-.62,2.17,2.17,0,0,0,.68-1.69V.24a2.8,2.8,0,0,1-1.13,1.07,3.35,3.35,0,0,1-1.67.45,3.82,3.82,0,0,1-2-.56,3.86,3.86,0,0,1-1.43-1.56,4.78,4.78,0,0,1-.52-2.25,4.78,4.78,0,0,1,.52-2.25,4,4,0,0,1,1.42-1.56,3.74,3.74,0,0,1,2-.56,3.59,3.59,0,0,1,1.65.4,3.66,3.66,0,0,1,1.19,1v-.51a.82.82,0,0,1,.2-.56.72.72,0,0,1,.55-.23A.76.76,0,0,1,1452.78-6.68ZM1450.25,0a2.64,2.64,0,0,0,1-1.06,3.31,3.31,0,0,0,.34-1.53,3.3,3.3,0,0,0-.34-1.52,2.62,2.62,0,0,0-1-1,2.54,2.54,0,0,0-1.4-.39,2.47,2.47,0,0,0-1.37.39,2.6,2.6,0,0,0-1,1.06,3.29,3.29,0,0,0-.34,1.51,3.26,3.26,0,0,0,.34,1.51,2.62,2.62,0,0,0,1,1.07,2.54,2.54,0,0,0,1.37.38A2.62,2.62,0,0,0,1450.25,0Z" transform="translate(-1131.68 42.64)"/><path class="cls-15" d="M1462.05-2.42a.77.77,0,0,1-.52.2h-5.64a2.81,2.81,0,0,0,.89,1.87,2.72,2.72,0,0,0,1.9.7,3,3,0,0,0,1.25-.22,2.93,2.93,0,0,0,.84-.58,1,1,0,0,1,.47-.14.58.58,0,0,1,.45.19.61.61,0,0,1,.19.45.82.82,0,0,1-.32.61,3.71,3.71,0,0,1-1.23.78,4.16,4.16,0,0,1-1.57.32,4.63,4.63,0,0,1-2.28-.54A3.77,3.77,0,0,1,1455-.3a4.52,4.52,0,0,1-.54-2.21,5,5,0,0,1,.55-2.36,4,4,0,0,1,1.46-1.56,3.72,3.72,0,0,1,1.94-.55,3.7,3.7,0,0,1,1.92.53A4,4,0,0,1,1461.73-5a4.07,4.07,0,0,1,.56,2.08A.7.7,0,0,1,1462.05-2.42Zm-5.23-2.64A2.44,2.44,0,0,0,1456-3.5h4.72v-.13a2,2,0,0,0-.76-1.39,2.39,2.39,0,0,0-1.55-.55A2.47,2.47,0,0,0,1456.82-5.06Z" transform="translate(-1131.68 42.64)"/><path class="cls-15" d="M1471.21-3.52V.83a.8.8,0,0,1-.22.55.79.79,0,0,1-1.09,0,.79.79,0,0,1-.21-.55V-3.5a2.42,2.42,0,0,0-.44-1.51,1.65,1.65,0,0,0-1.4-.56,2.34,2.34,0,0,0-1.16.28,2.2,2.2,0,0,0-.82.75,1.91,1.91,0,0,0-.3,1V.83a.79.79,0,0,1-.21.55.78.78,0,0,1-.55.22.71.71,0,0,1-.55-.22.74.74,0,0,1-.21-.55V-6a.77.77,0,0,1,.22-.54.7.7,0,0,1,.54-.22.74.74,0,0,1,.55.22.76.76,0,0,1,.21.54v.56a3.67,3.67,0,0,1,1.16-1.08,3.13,3.13,0,0,1,1.6-.44C1470.25-7,1471.21-5.82,1471.21-3.52Z" transform="translate(-1131.68 42.64)"/><path class="cls-15" d="M1480.6-2.42a.79.79,0,0,1-.53.2h-5.63a2.77,2.77,0,0,0,.89,1.87,2.68,2.68,0,0,0,1.89.7,3,3,0,0,0,1.25-.22,3.12,3.12,0,0,0,.85-.58.94.94,0,0,1,.46-.14.6.6,0,0,1,.46.19.64.64,0,0,1,.18.45.79.79,0,0,1-.32.61,3.71,3.71,0,0,1-1.23.78,4.12,4.12,0,0,1-1.57.32,4.69,4.69,0,0,1-2.28-.54A3.9,3.9,0,0,1,1473.5-.3a4.51,4.51,0,0,1-.53-2.21,4.84,4.84,0,0,1,.55-2.36A4,4,0,0,1,1475-6.43a3.76,3.76,0,0,1,2-.55,3.75,3.75,0,0,1,1.92.53A4,4,0,0,1,1480.28-5a4.17,4.17,0,0,1,.56,2.08A.7.7,0,0,1,1480.6-2.42Zm-5.23-2.64a2.45,2.45,0,0,0-.87,1.56h4.72v-.13a1.9,1.9,0,0,0-.76-1.39,2.37,2.37,0,0,0-1.54-.55A2.43,2.43,0,0,0,1475.37-5.06Z" transform="translate(-1131.68 42.64)"/><path class="cls-15" d="M1487.49-6.76a.62.62,0,0,1,.31.54.8.8,0,0,1-.2.58.7.7,0,0,1-.49.2,1.33,1.33,0,0,1-.43-.1,2,2,0,0,0-.53-.11,1.65,1.65,0,0,0-1,.35,2.58,2.58,0,0,0-.77.94,3.1,3.1,0,0,0-.29,1.34V.83a.75.75,0,0,1-.22.55.76.76,0,0,1-.55.22.69.69,0,0,1-.54-.22.74.74,0,0,1-.21-.55V-6a.76.76,0,0,1,.21-.54.73.73,0,0,1,.54-.22.72.72,0,0,1,.55.22.73.73,0,0,1,.22.54v.82a3,3,0,0,1,1.05-1.27,2.82,2.82,0,0,1,1.6-.51A1.23,1.23,0,0,1,1487.49-6.76Z" transform="translate(-1131.68 42.64)"/><path class="cls-15" d="M1496.37-6.68a.77.77,0,0,1,.21.57V.83a.79.79,0,0,1-.21.55.79.79,0,0,1-.56.22.7.7,0,0,1-.54-.22.74.74,0,0,1-.21-.55V.42a3.45,3.45,0,0,1-1.13,1,3.22,3.22,0,0,1-1.56.39,3.64,3.64,0,0,1-2-.56A3.77,3.77,0,0,1,1489-.36a4.9,4.9,0,0,1-.51-2.25,4.9,4.9,0,0,1,.51-2.25,3.87,3.87,0,0,1,1.38-1.56,3.57,3.57,0,0,1,1.94-.56,3.48,3.48,0,0,1,1.57.36,3.21,3.21,0,0,1,1.16.89v-.38a.78.78,0,0,1,.21-.56.71.71,0,0,1,.54-.23A.79.79,0,0,1,1496.37-6.68ZM1493.89,0a2.62,2.62,0,0,0,.91-1.06,3.4,3.4,0,0,0,.33-1.52,3.37,3.37,0,0,0-.33-1.5,2.65,2.65,0,0,0-.91-1.07,2.37,2.37,0,0,0-1.34-.39,2.37,2.37,0,0,0-1.34.39,2.53,2.53,0,0,0-.91,1,3.43,3.43,0,0,0-.33,1.52,3.4,3.4,0,0,0,.33,1.52,2.62,2.62,0,0,0,.91,1.06,2.44,2.44,0,0,0,1.34.38A2.44,2.44,0,0,0,1493.89,0Z" transform="translate(-1131.68 42.64)"/><path class="cls-15" d="M1503.73-6.76a.62.62,0,0,1,.31.54.8.8,0,0,1-.2.58.68.68,0,0,1-.49.2,1.33,1.33,0,0,1-.43-.1,2,2,0,0,0-.53-.11,1.65,1.65,0,0,0-1,.35,2.58,2.58,0,0,0-.77.94,3.1,3.1,0,0,0-.29,1.34V.83a.75.75,0,0,1-.22.55.76.76,0,0,1-.55.22.69.69,0,0,1-.54-.22.74.74,0,0,1-.21-.55V-6a.76.76,0,0,1,.21-.54.73.73,0,0,1,.54-.22.72.72,0,0,1,.55.22.73.73,0,0,1,.22.54v.82a3,3,0,0,1,1.05-1.27A2.82,2.82,0,0,1,1503-7,1.23,1.23,0,0,1,1503.73-6.76Z" transform="translate(-1131.68 42.64)"/><path class="cls-15" d="M1173.51,16.78a.78.78,0,0,1-.53.2h-5.63a2.77,2.77,0,0,0,.89,1.87,2.71,2.71,0,0,0,1.89.7,2.73,2.73,0,0,0,2.1-.8.94.94,0,0,1,.46-.14.59.59,0,0,1,.46.19.64.64,0,0,1,.18.45.79.79,0,0,1-.32.61,3.61,3.61,0,0,1-1.23.78,4.08,4.08,0,0,1-1.57.32,4.69,4.69,0,0,1-2.28-.54,3.81,3.81,0,0,1-1.51-1.52,4.49,4.49,0,0,1-.54-2.21,4.84,4.84,0,0,1,.55-2.36,3.93,3.93,0,0,1,1.46-1.56,3.72,3.72,0,0,1,3.86,0,4,4,0,0,1,1.44,1.46,4.17,4.17,0,0,1,.56,2.08A.7.7,0,0,1,1173.51,16.78Zm-5.23-2.64a2.4,2.4,0,0,0-.86,1.56h4.71v-.13a1.93,1.93,0,0,0-.75-1.39,2.39,2.39,0,0,0-1.55-.55A2.45,2.45,0,0,0,1168.28,14.14Z" transform="translate(-1131.68 42.64)"/><path class="cls-15" d="M1182.66,15.68V20a.77.77,0,0,1-.21.55.75.75,0,0,1-.56.22.69.69,0,0,1-.53-.22.74.74,0,0,1-.22-.55V15.7a2.42,2.42,0,0,0-.43-1.51,1.68,1.68,0,0,0-1.41-.56,2.52,2.52,0,0,0-1.16.28,2.17,2.17,0,0,0-.81.75,1.91,1.91,0,0,0-.3,1V20a.74.74,0,0,1-.22.55.71.71,0,0,1-.55.22.7.7,0,0,1-.54-.22.74.74,0,0,1-.21-.55V13.18a.73.73,0,0,1,.22-.54.69.69,0,0,1,.53-.22.71.71,0,0,1,.55.22.73.73,0,0,1,.22.54v.56a3.56,3.56,0,0,1,1.16-1.08,3.13,3.13,0,0,1,1.59-.44C1181.7,12.22,1182.66,13.38,1182.66,15.68Z" transform="translate(-1131.68 42.64)"/><path class="cls-15" d="M1187.21,13.9v4.77c0,.54.24.8.72.8a1.53,1.53,0,0,0,.3,0,1.11,1.11,0,0,1,.3-.06.45.45,0,0,1,.36.18.68.68,0,0,1,.14.44.69.69,0,0,1-.38.58,1.63,1.63,0,0,1-.87.24,4.23,4.23,0,0,1-1-.11,1.49,1.49,0,0,1-.78-.57,2.28,2.28,0,0,1-.34-1.38V13.9h-.93a.71.71,0,0,1-.51-1.2.76.76,0,0,1,.51-.19h.93V11.17a.77.77,0,0,1,.21-.55.74.74,0,0,1,.55-.22.7.7,0,0,1,.54.22.78.78,0,0,1,.22.55v1.34h1.32a.69.69,0,0,1,.51.2.71.71,0,0,1,.2.51.66.66,0,0,1-.2.49.69.69,0,0,1-.51.19Z" transform="translate(-1131.68 42.64)"/><path class="cls-15" d="M1198.31,18.85a4,4,0,0,1-1.53,1.55,4.35,4.35,0,0,1-4.27,0,4.14,4.14,0,0,1-1.53-1.55,4.51,4.51,0,0,1-.56-2.24,4.62,4.62,0,0,1,.56-2.26,4.19,4.19,0,0,1,1.53-1.57,4.35,4.35,0,0,1,4.27,0,4.05,4.05,0,0,1,1.53,1.57,4.62,4.62,0,0,1,.56,2.26A4.51,4.51,0,0,1,1198.31,18.85ZM1197,15.06a2.69,2.69,0,0,0-1-1.05,2.56,2.56,0,0,0-1.36-.38,2.59,2.59,0,0,0-1.37.38,2.69,2.69,0,0,0-1,1.05,3.28,3.28,0,0,0-.36,1.55,3.19,3.19,0,0,0,.36,1.52,2.69,2.69,0,0,0,1,1.05,2.58,2.58,0,0,0,1.37.37,2.55,2.55,0,0,0,1.36-.37,2.69,2.69,0,0,0,1-1.05,3.19,3.19,0,0,0,.36-1.52A3.28,3.28,0,0,0,1197,15.06Z" transform="translate(-1131.68 42.64)"/><path class="cls-15" d="M1205.53,12.44a.63.63,0,0,1,.3.54.8.8,0,0,1-.2.58.68.68,0,0,1-.49.2,1.38,1.38,0,0,1-.43-.1,1.91,1.91,0,0,0-.53-.11,1.65,1.65,0,0,0-1,.35,2.47,2.47,0,0,0-.76.94,3,3,0,0,0-.3,1.34V20a.74.74,0,0,1-.22.55.71.71,0,0,1-.55.22.7.7,0,0,1-.54-.22.74.74,0,0,1-.21-.55V13.18a.73.73,0,0,1,.22-.54.69.69,0,0,1,.53-.22.71.71,0,0,1,.55.22.73.73,0,0,1,.22.54V14a3.05,3.05,0,0,1,1.06-1.27,2.79,2.79,0,0,1,1.6-.51A1.28,1.28,0,0,1,1205.53,12.44Z" transform="translate(-1131.68 42.64)"/><path class="cls-15" d="M1214.39,15.68V20a.74.74,0,0,1-.22.55.71.71,0,0,1-.55.22.69.69,0,0,1-.53-.22.74.74,0,0,1-.22-.55V15.7a2.42,2.42,0,0,0-.43-1.51,1.68,1.68,0,0,0-1.41-.56,2.49,2.49,0,0,0-1.16.28,2.2,2.2,0,0,0-.82.75,2,2,0,0,0-.29,1V20a.74.74,0,0,1-.22.55.72.72,0,0,1-.55.22.69.69,0,0,1-.54-.22.74.74,0,0,1-.21-.55V13.18a.76.76,0,0,1,.21-.54.73.73,0,0,1,.54-.22.72.72,0,0,1,.55.22.73.73,0,0,1,.22.54v.56a3.56,3.56,0,0,1,1.16-1.08,3.07,3.07,0,0,1,1.59-.44C1213.43,12.22,1214.39,13.38,1214.39,15.68Z" transform="translate(-1131.68 42.64)"/><path class="cls-15" d="M1224,18.85a4,4,0,0,1-1.53,1.55,4.35,4.35,0,0,1-4.27,0,4,4,0,0,1-1.53-1.55,4.51,4.51,0,0,1-.56-2.24,4.62,4.62,0,0,1,.56-2.26,4.05,4.05,0,0,1,1.53-1.57,4.35,4.35,0,0,1,4.27,0,4.05,4.05,0,0,1,1.53,1.57,4.62,4.62,0,0,1,.56,2.26A4.51,4.51,0,0,1,1224,18.85Zm-1.32-3.79a2.69,2.69,0,0,0-1-1.05,2.64,2.64,0,0,0-2.73,0,2.69,2.69,0,0,0-1,1.05,3.28,3.28,0,0,0-.36,1.55,3.19,3.19,0,0,0,.36,1.52,2.69,2.69,0,0,0,1,1.05,2.7,2.7,0,0,0,2.73,0,2.69,2.69,0,0,0,1-1.05,3.19,3.19,0,0,0,.36-1.52A3.28,3.28,0,0,0,1222.72,15.06Z" transform="translate(-1131.68 42.64)"/><path class="cls-15" d="M1225.73,19.06a.66.66,0,0,1,.34-.55.67.67,0,0,1,.37-.11.74.74,0,0,1,.53.24,3.55,3.55,0,0,0,1,.82,3,3,0,0,0,1.32.27,2.33,2.33,0,0,0,1.07-.28,1,1,0,0,0,0-1.69,5.3,5.3,0,0,0-1.38-.53,11.19,11.19,0,0,1-1.49-.5,2.69,2.69,0,0,1-1-.77,2.23,2.23,0,0,1,0-2.58,2.58,2.58,0,0,1,1.09-.85,3.6,3.6,0,0,1,1.48-.31,4.36,4.36,0,0,1,1.53.29,2.93,2.93,0,0,1,1.24.88.76.76,0,0,1,.19.47.69.69,0,0,1-.26.49.55.55,0,0,1-.4.15.6.6,0,0,1-.46-.2,2.37,2.37,0,0,0-.83-.59,2.67,2.67,0,0,0-1.08-.21,2.07,2.07,0,0,0-1,.25,1,1,0,0,0,.07,1.67,5.65,5.65,0,0,0,1.44.53,8.81,8.81,0,0,1,1.41.48,2.51,2.51,0,0,1,.95.76,2.17,2.17,0,0,1,.38,1.32,2.06,2.06,0,0,1-.43,1.31,2.82,2.82,0,0,1-1.13.84,3.69,3.69,0,0,1-1.48.3,4.93,4.93,0,0,1-1.86-.35,3.52,3.52,0,0,1-1.45-1.12A.8.8,0,0,1,1225.73,19.06Z" transform="translate(-1131.68 42.64)"/><path class="cls-15" d="M1245.77,12.52a.74.74,0,0,1,.22.57V20a.74.74,0,0,1-.22.55.71.71,0,0,1-.55.22.7.7,0,0,1-.54-.22.74.74,0,0,1-.21-.55v-.41a3.49,3.49,0,0,1-1.14.95,3.19,3.19,0,0,1-1.55.39,3.64,3.64,0,0,1-2-.56,3.79,3.79,0,0,1-1.4-1.56,5.31,5.31,0,0,1,0-4.5,4,4,0,0,1,1.39-1.56,3.62,3.62,0,0,1,3.51-.2,3.29,3.29,0,0,1,1.16.89v-.38a.78.78,0,0,1,.21-.56.71.71,0,0,1,.54-.23A.75.75,0,0,1,1245.77,12.52Zm-2.48,6.65a2.64,2.64,0,0,0,.92-1.06,3.72,3.72,0,0,0,0-3,2.74,2.74,0,0,0-.92-1.07,2.34,2.34,0,0,0-1.33-.39,2.37,2.37,0,0,0-1.34.39,2.53,2.53,0,0,0-.91,1.05,3.67,3.67,0,0,0,0,3,2.62,2.62,0,0,0,.91,1.06,2.44,2.44,0,0,0,1.34.38A2.41,2.41,0,0,0,1243.29,19.17Z" transform="translate(-1131.68 42.64)"/><path class="cls-15" d="M1260.66,15.76V20a.74.74,0,0,1-.21.55.69.69,0,0,1-.54.22.72.72,0,0,1-.55-.22.74.74,0,0,1-.22-.55V15.78c0-1.4-.58-2.1-1.76-2.1a2.28,2.28,0,0,0-1.13.28,2.11,2.11,0,0,0-.78.76,2,2,0,0,0-.28,1.06V20a.74.74,0,0,1-.22.55.71.71,0,0,1-.55.22.7.7,0,0,1-.54-.22.74.74,0,0,1-.21-.55V15.76a2.55,2.55,0,0,0-.4-1.51,1.51,1.51,0,0,0-1.33-.57,2.14,2.14,0,0,0-1.56.6,2,2,0,0,0-.61,1.48V20a.78.78,0,0,1-.22.55.72.72,0,0,1-.55.22.71.71,0,0,1-.55-.22.77.77,0,0,1-.2-.55V13.18a.76.76,0,0,1,.21-.54.79.79,0,0,1,1.09,0,.77.77,0,0,1,.22.54v.56a3.37,3.37,0,0,1,1.11-1,2.79,2.79,0,0,1,1.51-.43A2.47,2.47,0,0,1,1255,14a3.31,3.31,0,0,1,1.16-1.21,3,3,0,0,1,1.73-.55Q1260.67,12.27,1260.66,15.76Z" transform="translate(-1131.68 42.64)"/><path class="cls-15" d="M1262.94,11.11a.66.66,0,0,1-.2-.53v-.26a.6.6,0,0,1,.22-.54,1.07,1.07,0,0,1,.66-.16,1,1,0,0,1,.65.16.69.69,0,0,1,.2.54v.26a.65.65,0,0,1-.21.54,1,1,0,0,1-.65.16A1.08,1.08,0,0,1,1262.94,11.11Zm1.22,9.47a.74.74,0,0,1-.55.22.7.7,0,0,1-.54-.22.78.78,0,0,1-.22-.55V13.1a.77.77,0,0,1,.22-.54.7.7,0,0,1,.54-.22.74.74,0,0,1,.55.22.77.77,0,0,1,.22.54V20A.78.78,0,0,1,1264.16,20.58Z" transform="translate(-1131.68 42.64)"/><path class="cls-15" d="M1274.13,12.52a.77.77,0,0,1,.21.57v7a4,4,0,0,1-.55,2.17,3.28,3.28,0,0,1-1.5,1.28,5.11,5.11,0,0,1-2.12.42,6,6,0,0,1-1.5-.22,2.68,2.68,0,0,1-1.1-.47c-.33-.17-.49-.38-.49-.64a.74.74,0,0,1,.06-.25.61.61,0,0,1,.59-.4,1.29,1.29,0,0,1,.45.09,6.09,6.09,0,0,0,2,.5,2.81,2.81,0,0,0,2-.62,2.14,2.14,0,0,0,.68-1.69v-.86a2.73,2.73,0,0,1-1.13,1.07A3.3,3.3,0,0,1,1270,21a3.78,3.78,0,0,1-2-.56,3.88,3.88,0,0,1-1.44-1.56,5.13,5.13,0,0,1,0-4.5,4.07,4.07,0,0,1,1.43-1.56,3.71,3.71,0,0,1,2-.56,3.62,3.62,0,0,1,2.83,1.38v-.51a.78.78,0,0,1,.21-.56.71.71,0,0,1,.54-.23A.79.79,0,0,1,1274.13,12.52Zm-2.54,6.66a2.57,2.57,0,0,0,1-1.06,3.5,3.5,0,0,0,0-3.05,2.63,2.63,0,0,0-3.72-1.05,2.64,2.64,0,0,0-1,1.06,3.52,3.52,0,0,0,0,3,2.67,2.67,0,0,0,1,1.07,2.75,2.75,0,0,0,2.77,0Z" transform="translate(-1131.68 42.64)"/><path class="cls-15" d="M1283.87,12.52a.78.78,0,0,1,.22.57V20a.78.78,0,0,1-.22.55.72.72,0,0,1-.55.22.71.71,0,0,1-.55-.22.77.77,0,0,1-.2-.55v-.41a3.49,3.49,0,0,1-1.14.95,3.21,3.21,0,0,1-1.55.39,3.65,3.65,0,0,1-2-.56,3.84,3.84,0,0,1-1.39-1.56,4.9,4.9,0,0,1-.5-2.25,4.9,4.9,0,0,1,.5-2.25,4,4,0,0,1,1.38-1.56,3.59,3.59,0,0,1,1.94-.56,3.52,3.52,0,0,1,1.58.36,3.29,3.29,0,0,1,1.16.89v-.38a.82.82,0,0,1,.2-.56.72.72,0,0,1,.55-.23A.76.76,0,0,1,1283.87,12.52Zm-2.48,6.65a2.62,2.62,0,0,0,.91-1.06,3.62,3.62,0,0,0,0-3,2.72,2.72,0,0,0-.91-1.07,2.48,2.48,0,0,0-2.67,0,2.46,2.46,0,0,0-.91,1.05,3.67,3.67,0,0,0,0,3,2.55,2.55,0,0,0,.91,1.06,2.54,2.54,0,0,0,2.67,0Z" transform="translate(-1131.68 42.64)"/><path class="cls-15" d="M1292.52,12.78a3.88,3.88,0,0,1,1.38,1.56,4.8,4.8,0,0,1,.51,2.24,4.9,4.9,0,0,1-.51,2.25,3.85,3.85,0,0,1-1.38,1.57,3.57,3.57,0,0,1-1.94.56,3.31,3.31,0,0,1-1.55-.37,3.6,3.6,0,0,1-1.17-.91v.46a.77.77,0,0,1-.21.55.75.75,0,0,1-.56.22.72.72,0,0,1-.53-.21.75.75,0,0,1-.22-.56V9.73a.74.74,0,0,1,.21-.55.7.7,0,0,1,.54-.22.75.75,0,0,1,.56.22.77.77,0,0,1,.21.55v3.9a3.31,3.31,0,0,1,1.12-1,3.13,3.13,0,0,1,1.57-.42A3.62,3.62,0,0,1,1292.52,12.78Zm-.82,6.38a2.6,2.6,0,0,0,.92-1.07,3.44,3.44,0,0,0,.33-1.51,3.38,3.38,0,0,0-.33-1.51,2.48,2.48,0,0,0-.92-1.05,2.34,2.34,0,0,0-1.33-.39A2.37,2.37,0,0,0,1289,14a2.58,2.58,0,0,0-.92,1,3.67,3.67,0,0,0,0,3,2.71,2.71,0,0,0,.92,1.06,2.37,2.37,0,0,0,1.34.39A2.34,2.34,0,0,0,1291.7,19.16Z" transform="translate(-1131.68 42.64)"/><path class="cls-15" d="M1297.59,20.58a.73.73,0,0,1-.54.22.7.7,0,0,1-.54-.22.78.78,0,0,1-.22-.55V9.73a.75.75,0,0,1,.23-.55.73.73,0,0,1,.54-.22.72.72,0,0,1,.54.22.77.77,0,0,1,.21.55V20A.74.74,0,0,1,1297.59,20.58Z" transform="translate(-1131.68 42.64)"/><path class="cls-15" d="M1307.17,16.78a.75.75,0,0,1-.52.2H1301a2.81,2.81,0,0,0,.89,1.87,2.72,2.72,0,0,0,1.9.7,3,3,0,0,0,1.25-.22,2.93,2.93,0,0,0,.84-.58,1,1,0,0,1,.47-.14.58.58,0,0,1,.45.19.61.61,0,0,1,.19.45.82.82,0,0,1-.32.61,3.71,3.71,0,0,1-1.23.78,4.16,4.16,0,0,1-1.57.32,4.63,4.63,0,0,1-2.28-.54,3.83,3.83,0,0,1-1.52-1.52,4.49,4.49,0,0,1-.54-2.21,5,5,0,0,1,.55-2.36,4,4,0,0,1,1.46-1.56,3.74,3.74,0,0,1,3.87,0,4,4,0,0,1,1.43,1.46,4.18,4.18,0,0,1,.57,2.08A.75.75,0,0,1,1307.17,16.78Zm-5.23-2.64a2.44,2.44,0,0,0-.86,1.56h4.72v-.13a1.94,1.94,0,0,0-.76-1.39,2.38,2.38,0,0,0-1.54-.55A2.48,2.48,0,0,0,1301.94,14.14Z" transform="translate(-1131.68 42.64)"/><path class="cls-15" d="M1308.55,19.06a.73.73,0,0,1,.7-.66.72.72,0,0,1,.53.24,3.68,3.68,0,0,0,1,.82,3,3,0,0,0,1.32.27,2.34,2.34,0,0,0,1.08-.28.91.91,0,0,0,.46-.86.92.92,0,0,0-.47-.83,5.54,5.54,0,0,0-1.39-.53,11,11,0,0,1-1.48-.5,2.62,2.62,0,0,1-1-.77,2,2,0,0,1-.41-1.32,2,2,0,0,1,.41-1.26,2.58,2.58,0,0,1,1.09-.85,3.58,3.58,0,0,1,1.47-.31,4.28,4.28,0,0,1,1.53.29,2.87,2.87,0,0,1,1.24.88.71.71,0,0,1,.19.47.67.67,0,0,1-.25.49.57.57,0,0,1-.4.15.62.62,0,0,1-.47-.2,2.24,2.24,0,0,0-.82-.59,2.7,2.7,0,0,0-1.08-.21,2.07,2.07,0,0,0-1,.25.91.91,0,0,0-.42.84.92.92,0,0,0,.48.83,5.91,5.91,0,0,0,1.45.53,8.81,8.81,0,0,1,1.41.48,2.47,2.47,0,0,1,.94.76,2.31,2.31,0,0,1,0,2.63,2.82,2.82,0,0,1-1.13.84,3.73,3.73,0,0,1-1.48.3,4.94,4.94,0,0,1-1.87-.35,3.58,3.58,0,0,1-1.45-1.12A.87.87,0,0,1,1308.55,19.06Z" transform="translate(-1131.68 42.64)"/><path class="cls-15" d="M1318.47,21.62a3,3,0,0,1-.65.89,1.16,1.16,0,0,1-.81.37.68.68,0,0,1-.44-.14.46.46,0,0,1-.18-.39.39.39,0,0,1,.11-.31,1.15,1.15,0,0,1,.27-.14,1.18,1.18,0,0,0,.23-.08.81.81,0,0,0,.34-.29.73.73,0,0,0,.12-.41.36.36,0,0,0-.14-.3.52.52,0,0,0-.37-.13.69.69,0,0,0-.43.13.61.61,0,0,1-.24-.2.62.62,0,0,1-.08-.33.9.9,0,0,1,.41-.68,1.4,1.4,0,0,1,.85-.3,1.17,1.17,0,0,1,.93.37,1.49,1.49,0,0,1,.34,1A2.12,2.12,0,0,1,1318.47,21.62Z" transform="translate(-1131.68 42.64)"/><path class="cls-15" d="M1332.21,16.78a.75.75,0,0,1-.52.2h-5.64a2.81,2.81,0,0,0,.89,1.87,2.72,2.72,0,0,0,1.9.7,3,3,0,0,0,1.25-.22,2.93,2.93,0,0,0,.84-.58,1,1,0,0,1,.47-.14.58.58,0,0,1,.45.19.61.61,0,0,1,.19.45.82.82,0,0,1-.32.61,3.71,3.71,0,0,1-1.23.78,4.16,4.16,0,0,1-1.57.32,4.63,4.63,0,0,1-2.28-.54,3.83,3.83,0,0,1-1.52-1.52,4.49,4.49,0,0,1-.54-2.21,5,5,0,0,1,.55-2.36,4,4,0,0,1,1.46-1.56,3.74,3.74,0,0,1,3.87,0,4,4,0,0,1,1.43,1.46,4.18,4.18,0,0,1,.57,2.08A.75.75,0,0,1,1332.21,16.78ZM1327,14.14a2.44,2.44,0,0,0-.86,1.56h4.72v-.13a1.94,1.94,0,0,0-.76-1.39,2.37,2.37,0,0,0-1.54-.55A2.48,2.48,0,0,0,1327,14.14Z" transform="translate(-1131.68 42.64)"/><path class="cls-15" d="M1341.37,15.68V20a.78.78,0,0,1-.22.55.72.72,0,0,1-.55.22.73.73,0,0,1-.54-.22.77.77,0,0,1-.21-.55V15.7a2.48,2.48,0,0,0-.43-1.51,1.68,1.68,0,0,0-1.41-.56,2.46,2.46,0,0,0-1.16.28,2.2,2.2,0,0,0-.82.75,1.91,1.91,0,0,0-.3,1V20a.77.77,0,0,1-.21.55.72.72,0,0,1-.55.22.71.71,0,0,1-.55-.22.74.74,0,0,1-.21-.55V13.18a.77.77,0,0,1,.22-.54.79.79,0,0,1,1.09,0,.76.76,0,0,1,.21.54v.56a3.67,3.67,0,0,1,1.16-1.08,3.13,3.13,0,0,1,1.6-.44C1340.41,12.22,1341.37,13.38,1341.37,15.68Z" transform="translate(-1131.68 42.64)"/><path class="cls-15" d="M1349.49,20.58a.77.77,0,0,1-1.08,0,.77.77,0,0,1-.21-.55V9.73A.75.75,0,0,1,1349,9a.69.69,0,0,1,.53.22.74.74,0,0,1,.22.55V20A.75.75,0,0,1,1349.49,20.58Z" transform="translate(-1131.68 42.64)"/><path class="cls-15" d="M1359.33,18.85a4,4,0,0,1-1.52,1.55,4.37,4.37,0,0,1-4.28,0,4,4,0,0,1-1.52-1.55,4.41,4.41,0,0,1-.56-2.24,4.51,4.51,0,0,1,.56-2.26,4.1,4.1,0,0,1,1.52-1.57,4.37,4.37,0,0,1,4.28,0,4.1,4.1,0,0,1,1.52,1.57,4.51,4.51,0,0,1,.56,2.26A4.41,4.41,0,0,1,1359.33,18.85ZM1358,15.06a2.66,2.66,0,0,0-1-1.05,2.66,2.66,0,0,0-2.74,0,2.66,2.66,0,0,0-1,1.05,3.28,3.28,0,0,0-.36,1.55,3.19,3.19,0,0,0,.36,1.52,2.66,2.66,0,0,0,1,1.05,2.72,2.72,0,0,0,2.74,0,2.66,2.66,0,0,0,1-1.05,3.19,3.19,0,0,0,.36-1.52A3.28,3.28,0,0,0,1358,15.06Z" transform="translate(-1131.68 42.64)"/><path class="cls-15" d="M1361,19.06a.64.64,0,0,1,.34-.55.61.61,0,0,1,.36-.11.72.72,0,0,1,.53.24,3.68,3.68,0,0,0,1,.82,3,3,0,0,0,1.32.27,2.34,2.34,0,0,0,1.08-.28.91.91,0,0,0,.46-.86.92.92,0,0,0-.47-.83,5.54,5.54,0,0,0-1.39-.53,11,11,0,0,1-1.48-.5,2.62,2.62,0,0,1-1-.77,2,2,0,0,1-.41-1.32,2,2,0,0,1,.41-1.26,2.62,2.62,0,0,1,1.08-.85,3.67,3.67,0,0,1,1.48-.31,4.28,4.28,0,0,1,1.53.29,2.87,2.87,0,0,1,1.24.88.71.71,0,0,1,.19.47.67.67,0,0,1-.25.49.57.57,0,0,1-.4.15.62.62,0,0,1-.47-.2,2.33,2.33,0,0,0-.82-.59,2.74,2.74,0,0,0-1.08-.21,2,2,0,0,0-1,.25.91.91,0,0,0-.43.84.93.93,0,0,0,.49.83,5.91,5.91,0,0,0,1.45.53,9.17,9.17,0,0,1,1.41.48,2.47,2.47,0,0,1,.94.76,2.11,2.11,0,0,1,.39,1.32,2.07,2.07,0,0,1-.44,1.31,2.72,2.72,0,0,1-1.12.84,3.73,3.73,0,0,1-1.48.3,4.94,4.94,0,0,1-1.87-.35,3.58,3.58,0,0,1-1.45-1.12A.87.87,0,0,1,1361,19.06Z" transform="translate(-1131.68 42.64)"/><path class="cls-15" d="M1381.07,12.6a.78.78,0,0,1,.22.57V23.23a.8.8,0,0,1-.22.55.72.72,0,0,1-.55.22.71.71,0,0,1-.55-.22.73.73,0,0,1-.2-.55V19.58a3.31,3.31,0,0,1-1.13,1,3.18,3.18,0,0,1-1.56.4,3.62,3.62,0,0,1-2-.56,3.84,3.84,0,0,1-1.39-1.56,5.26,5.26,0,0,1,0-4.5,4,4,0,0,1,1.38-1.56,3.59,3.59,0,0,1,1.94-.56,3.48,3.48,0,0,1,1.57.36,3.24,3.24,0,0,1,1.17.91v-.32a.77.77,0,0,1,.2-.56.72.72,0,0,1,.55-.23A.76.76,0,0,1,1381.07,12.6Zm-2.48,6.57a2.62,2.62,0,0,0,.91-1.06,3.64,3.64,0,0,0,0-3,2.56,2.56,0,0,0-.91-1.06,2.37,2.37,0,0,0-1.34-.39,2.34,2.34,0,0,0-1.33.39,2.49,2.49,0,0,0-.91,1.06,3.64,3.64,0,0,0,0,3,2.55,2.55,0,0,0,.91,1.06,2.41,2.41,0,0,0,1.33.38A2.44,2.44,0,0,0,1378.59,19.17Z" transform="translate(-1131.68 42.64)"/><path class="cls-15" d="M1390.33,12.64a.73.73,0,0,1,.22.54v4.26a3.49,3.49,0,0,1-.92,2.58,4.11,4.11,0,0,1-5.18,0,3.53,3.53,0,0,1-.91-2.58V13.18a.73.73,0,0,1,.22-.54.69.69,0,0,1,.53-.22.75.75,0,0,1,.56.22.76.76,0,0,1,.21.54v4.26c0,1.4.66,2.1,2,2.1a2,2,0,0,0,1.49-.53,2.18,2.18,0,0,0,.51-1.57V13.18a.73.73,0,0,1,.22-.54.69.69,0,0,1,.53-.22A.71.71,0,0,1,1390.33,12.64Z" transform="translate(-1131.68 42.64)"/><path class="cls-15" d="M1399.94,16.78a.78.78,0,0,1-.53.2h-5.63a2.81,2.81,0,0,0,.89,1.87,2.72,2.72,0,0,0,1.9.7,2.93,2.93,0,0,0,1.24-.22,3,3,0,0,0,.85-.58,1,1,0,0,1,.47-.14.58.58,0,0,1,.45.19.65.65,0,0,1,.19.45.82.82,0,0,1-.32.61,3.66,3.66,0,0,1-1.24.78,4.07,4.07,0,0,1-1.56.32,4.63,4.63,0,0,1-2.28-.54,3.77,3.77,0,0,1-1.52-1.52,4.49,4.49,0,0,1-.54-2.21,4.84,4.84,0,0,1,.55-2.36,3.93,3.93,0,0,1,1.46-1.56,3.72,3.72,0,0,1,3.86,0,4,4,0,0,1,1.44,1.46,4.17,4.17,0,0,1,.56,2.08A.7.7,0,0,1,1399.94,16.78Zm-5.23-2.64a2.4,2.4,0,0,0-.86,1.56h4.72v-.13a2,2,0,0,0-.76-1.39,2.39,2.39,0,0,0-1.55-.55A2.45,2.45,0,0,0,1394.71,14.14Z" transform="translate(-1131.68 42.64)"/><path class="cls-15" d="M1407.8,20.58a.74.74,0,0,1-.55.22.69.69,0,0,1-.53-.22.74.74,0,0,1-.22-.55V9.73a.78.78,0,0,1,.22-.55.75.75,0,0,1,.55-.22.69.69,0,0,1,.53.22.74.74,0,0,1,.22.55V20A.74.74,0,0,1,1407.8,20.58Z" transform="translate(-1131.68 42.64)"/><path class="cls-15" d="M1417.64,18.85a4.14,4.14,0,0,1-1.53,1.55A4.25,4.25,0,0,1,1414,21a4.18,4.18,0,0,1-2.13-.56,4,4,0,0,1-1.53-1.55,4.51,4.51,0,0,1-.56-2.24,4.62,4.62,0,0,1,.56-2.26,4.05,4.05,0,0,1,1.53-1.57,4.18,4.18,0,0,1,2.13-.56,4.25,4.25,0,0,1,2.14.56,4.19,4.19,0,0,1,1.53,1.57,4.62,4.62,0,0,1,.56,2.26A4.51,4.51,0,0,1,1417.64,18.85Zm-1.32-3.79a2.69,2.69,0,0,0-1-1.05,2.66,2.66,0,0,0-2.74,0,2.66,2.66,0,0,0-1,1.05,3.28,3.28,0,0,0-.36,1.55,3.19,3.19,0,0,0,.36,1.52,2.66,2.66,0,0,0,1,1.05,2.72,2.72,0,0,0,2.74,0,2.69,2.69,0,0,0,1-1.05,3.19,3.19,0,0,0,.36-1.52A3.28,3.28,0,0,0,1416.32,15.06Z" transform="translate(-1131.68 42.64)"/><path class="cls-15" d="M1419.33,19.06a.66.66,0,0,1,.34-.55.67.67,0,0,1,.37-.11.74.74,0,0,1,.53.24,3.42,3.42,0,0,0,1,.82,3,3,0,0,0,1.32.27,2.33,2.33,0,0,0,1.07-.28,1,1,0,0,0,0-1.69,5.3,5.3,0,0,0-1.38-.53,10.71,10.71,0,0,1-1.49-.5,2.62,2.62,0,0,1-1-.77,2.23,2.23,0,0,1,0-2.58,2.58,2.58,0,0,1,1.09-.85,3.6,3.6,0,0,1,1.48-.31,4.36,4.36,0,0,1,1.53.29,2.93,2.93,0,0,1,1.24.88.76.76,0,0,1,.19.47.69.69,0,0,1-.26.49.57.57,0,0,1-.4.15.58.58,0,0,1-.46-.2,2.37,2.37,0,0,0-.83-.59,2.67,2.67,0,0,0-1.08-.21,2.07,2.07,0,0,0-1,.25,1,1,0,0,0,.07,1.67,5.65,5.65,0,0,0,1.44.53,8.81,8.81,0,0,1,1.41.48,2.58,2.58,0,0,1,1,.76,2.17,2.17,0,0,1,.38,1.32,2.12,2.12,0,0,1-.43,1.31,2.82,2.82,0,0,1-1.13.84,3.73,3.73,0,0,1-1.48.3,5,5,0,0,1-1.87-.35,3.49,3.49,0,0,1-1.44-1.12A.8.8,0,0,1,1419.33,19.06Z" transform="translate(-1131.68 42.64)"/><path class="cls-15" d="M1439.37,9.18a.71.71,0,0,1,.22.55V20a.74.74,0,0,1-.22.55.72.72,0,0,1-.55.22.7.7,0,0,1-.54-.22.74.74,0,0,1-.21-.55v-.45a3.21,3.21,0,0,1-1.13,1,3.15,3.15,0,0,1-1.56.4,3.64,3.64,0,0,1-2-.56,3.91,3.91,0,0,1-1.39-1.56,4.9,4.9,0,0,1-.51-2.25,5,5,0,0,1,.5-2.25,4,4,0,0,1,1.39-1.56,3.54,3.54,0,0,1,1.93-.56,3.45,3.45,0,0,1,1.57.36,3.24,3.24,0,0,1,1.17.91V9.73a.74.74,0,0,1,.21-.55.7.7,0,0,1,.54-.22A.72.72,0,0,1,1439.37,9.18Zm-2.48,10a2.55,2.55,0,0,0,.91-1.06,3.64,3.64,0,0,0,0-3,2.49,2.49,0,0,0-.91-1.06,2.48,2.48,0,0,0-2.67,0,2.56,2.56,0,0,0-.91,1.06,3.64,3.64,0,0,0,0,3,2.62,2.62,0,0,0,.91,1.06,2.54,2.54,0,0,0,2.67,0Z" transform="translate(-1131.68 42.64)"/><path class="cls-15" d="M1441.85,11.11a.66.66,0,0,1-.2-.53v-.26a.6.6,0,0,1,.22-.54,1.07,1.07,0,0,1,.66-.16,1,1,0,0,1,.65.16.69.69,0,0,1,.2.54v.26a.65.65,0,0,1-.21.54,1,1,0,0,1-.65.16A1.08,1.08,0,0,1,1441.85,11.11Zm1.22,9.47a.74.74,0,0,1-.55.22.72.72,0,0,1-.54-.22.78.78,0,0,1-.22-.55V13.1a.77.77,0,0,1,.22-.54.72.72,0,0,1,.54-.22.74.74,0,0,1,.55.22.77.77,0,0,1,.22.54V20A.78.78,0,0,1,1443.07,20.58Z" transform="translate(-1131.68 42.64)"/><path class="cls-15" d="M1448.28,10.66a1.25,1.25,0,0,0-.24.78v1.12h1.58a.72.72,0,0,1,.52.2.69.69,0,0,1,.2.5.67.67,0,0,1-.2.5.71.71,0,0,1-.52.19H1448V20a.78.78,0,0,1-.22.55.79.79,0,0,1-1.09,0,.77.77,0,0,1-.21-.55V14h-1a.72.72,0,0,1-.51-.19.64.64,0,0,1-.21-.5.66.66,0,0,1,.21-.5.73.73,0,0,1,.51-.2h1V11.44a2.29,2.29,0,0,1,.72-1.78,2.84,2.84,0,0,1,2-.67,2.26,2.26,0,0,1,1,.2.64.64,0,0,1,.41.6.76.76,0,0,1-.18.51.59.59,0,0,1-.44.2l-.35-.07a2.57,2.57,0,0,0-.61-.09A.92.92,0,0,0,1448.28,10.66Z" transform="translate(-1131.68 42.64)"/><path class="cls-15" d="M1458.84,16.78a.79.79,0,0,1-.53.2h-5.63a2.8,2.8,0,0,0,.88,1.87,2.72,2.72,0,0,0,1.9.7,3,3,0,0,0,1.25-.22,3.12,3.12,0,0,0,.85-.58.94.94,0,0,1,.46-.14.62.62,0,0,1,.46.19.64.64,0,0,1,.18.45.82.82,0,0,1-.32.61,3.71,3.71,0,0,1-1.23.78,4.12,4.12,0,0,1-1.57.32,4.69,4.69,0,0,1-2.28-.54,3.83,3.83,0,0,1-1.52-1.52,4.49,4.49,0,0,1-.53-2.21,4.84,4.84,0,0,1,.55-2.36,4,4,0,0,1,1.45-1.56,3.74,3.74,0,0,1,3.87,0,4.11,4.11,0,0,1,1.44,1.46,4.17,4.17,0,0,1,.56,2.08A.7.7,0,0,1,1458.84,16.78Zm-5.24-2.64a2.49,2.49,0,0,0-.86,1.56h4.72v-.13a1.94,1.94,0,0,0-.76-1.39,2.37,2.37,0,0,0-1.54-.55A2.48,2.48,0,0,0,1453.6,14.14Z" transform="translate(-1131.68 42.64)"/><path class="cls-15" d="M1465.73,12.44a.62.62,0,0,1,.31.54.8.8,0,0,1-.2.58.7.7,0,0,1-.49.2,1.33,1.33,0,0,1-.43-.1,2,2,0,0,0-.53-.11,1.65,1.65,0,0,0-1,.35,2.58,2.58,0,0,0-.77.94,3.1,3.1,0,0,0-.29,1.34V20a.74.74,0,0,1-.22.55.8.8,0,0,1-1.1,0,.77.77,0,0,1-.2-.55V13.18a.76.76,0,0,1,.21-.54.73.73,0,0,1,.54-.22.72.72,0,0,1,.55.22.73.73,0,0,1,.22.54V14a3,3,0,0,1,1.05-1.27,2.82,2.82,0,0,1,1.6-.51A1.23,1.23,0,0,1,1465.73,12.44Z" transform="translate(-1131.68 42.64)"/><path class="cls-15" d="M1474.21,16.78a.77.77,0,0,1-.52.2h-5.64a2.81,2.81,0,0,0,.89,1.87,2.72,2.72,0,0,0,1.9.7,3,3,0,0,0,1.25-.22,2.93,2.93,0,0,0,.84-.58,1,1,0,0,1,.47-.14.58.58,0,0,1,.45.19.61.61,0,0,1,.19.45.82.82,0,0,1-.32.61,3.71,3.71,0,0,1-1.23.78,4.16,4.16,0,0,1-1.57.32,4.63,4.63,0,0,1-2.28-.54,3.83,3.83,0,0,1-1.52-1.52,4.49,4.49,0,0,1-.54-2.21,5,5,0,0,1,.55-2.36,4,4,0,0,1,1.46-1.56,3.72,3.72,0,0,1,3.86,0,4,4,0,0,1,1.44,1.46,4.07,4.07,0,0,1,.56,2.08A.7.7,0,0,1,1474.21,16.78ZM1469,14.14a2.44,2.44,0,0,0-.86,1.56h4.72v-.13a2,2,0,0,0-.76-1.39,2.39,2.39,0,0,0-1.55-.55A2.47,2.47,0,0,0,1469,14.14Z" transform="translate(-1131.68 42.64)"/><path class="cls-15" d="M1483.37,15.68V20a.78.78,0,0,1-.22.55.79.79,0,0,1-1.09,0,.77.77,0,0,1-.21-.55V15.7a2.42,2.42,0,0,0-.44-1.51,1.65,1.65,0,0,0-1.4-.56,2.46,2.46,0,0,0-1.16.28,2.2,2.2,0,0,0-.82.75,1.91,1.91,0,0,0-.3,1V20a.77.77,0,0,1-.21.55.74.74,0,0,1-.55.22.71.71,0,0,1-.55-.22.74.74,0,0,1-.21-.55V13.18a.77.77,0,0,1,.22-.54.7.7,0,0,1,.54-.22.74.74,0,0,1,.55.22.76.76,0,0,1,.21.54v.56a3.67,3.67,0,0,1,1.16-1.08,3.13,3.13,0,0,1,1.6-.44C1482.41,12.22,1483.37,13.38,1483.37,15.68Z" transform="translate(-1131.68 42.64)"/><path class="cls-15" d="M1487.91,13.9v4.77c0,.54.24.8.72.8a1.42,1.42,0,0,0,.3,0,1.1,1.1,0,0,1,.31-.06.44.44,0,0,1,.35.18.63.63,0,0,1,.14.44.67.67,0,0,1-.38.58,1.59,1.59,0,0,1-.86.24,4.11,4.11,0,0,1-1-.11,1.48,1.48,0,0,1-.79-.57,2.28,2.28,0,0,1-.34-1.38V13.9h-.93a.71.71,0,0,1-.5-1.2.72.72,0,0,1,.5-.19h.93V11.17a.74.74,0,0,1,.22-.55.71.71,0,0,1,.55-.22.69.69,0,0,1,.53.22.74.74,0,0,1,.22.55v1.34h1.33a.69.69,0,0,1,.5.2.67.67,0,0,1,.2.51.63.63,0,0,1-.2.49.68.68,0,0,1-.5.19Z" transform="translate(-1131.68 42.64)"/><path class="cls-15" d="M1498.76,16.78a.79.79,0,0,1-.53.2h-5.63a2.77,2.77,0,0,0,.89,1.87,2.68,2.68,0,0,0,1.89.7,3,3,0,0,0,1.25-.22,3.12,3.12,0,0,0,.85-.58.94.94,0,0,1,.46-.14.6.6,0,0,1,.46.19.64.64,0,0,1,.18.45.79.79,0,0,1-.32.61,3.71,3.71,0,0,1-1.23.78,4.08,4.08,0,0,1-1.57.32,4.69,4.69,0,0,1-2.28-.54,3.9,3.9,0,0,1-1.52-1.52,4.49,4.49,0,0,1-.53-2.21,4.84,4.84,0,0,1,.55-2.36,4,4,0,0,1,1.45-1.56,3.74,3.74,0,0,1,3.87,0,4,4,0,0,1,1.44,1.46,4.17,4.17,0,0,1,.56,2.08A.7.7,0,0,1,1498.76,16.78Zm-5.23-2.64a2.45,2.45,0,0,0-.87,1.56h4.72v-.13a1.9,1.9,0,0,0-.76-1.39,2.37,2.37,0,0,0-1.54-.55A2.43,2.43,0,0,0,1493.53,14.14Z" transform="translate(-1131.68 42.64)"/><path class="cls-15" d="M1500.13,19.06a.66.66,0,0,1,.34-.55.67.67,0,0,1,.37-.11.74.74,0,0,1,.53.24,3.55,3.55,0,0,0,1,.82,3,3,0,0,0,1.32.27,2.33,2.33,0,0,0,1.07-.28,1,1,0,0,0,0-1.69,5.3,5.3,0,0,0-1.38-.53,10.71,10.71,0,0,1-1.49-.5,2.69,2.69,0,0,1-1-.77,2.23,2.23,0,0,1,0-2.58,2.58,2.58,0,0,1,1.09-.85,3.6,3.6,0,0,1,1.48-.31,4.36,4.36,0,0,1,1.53.29,2.93,2.93,0,0,1,1.24.88.76.76,0,0,1,.19.47.69.69,0,0,1-.26.49.55.55,0,0,1-.4.15.6.6,0,0,1-.46-.2,2.37,2.37,0,0,0-.83-.59,2.67,2.67,0,0,0-1.08-.21,2.09,2.09,0,0,0-1,.25,1,1,0,0,0,.07,1.67,5.65,5.65,0,0,0,1.44.53,8.81,8.81,0,0,1,1.41.48,2.51,2.51,0,0,1,1,.76,2.17,2.17,0,0,1,.38,1.32,2.06,2.06,0,0,1-.43,1.31,2.82,2.82,0,0,1-1.13.84,3.69,3.69,0,0,1-1.48.3,4.93,4.93,0,0,1-1.86-.35,3.52,3.52,0,0,1-1.45-1.12A.8.8,0,0,1,1500.13,19.06Z" transform="translate(-1131.68 42.64)"/><path class="cls-15" d="M1166.4,30.31a.66.66,0,0,1-.2-.53v-.26a.6.6,0,0,1,.22-.54,1.07,1.07,0,0,1,.66-.16,1,1,0,0,1,.65.16.69.69,0,0,1,.2.54v.26a.65.65,0,0,1-.21.54,1.07,1.07,0,0,1-.66.16A1,1,0,0,1,1166.4,30.31Zm1.21,9.47a.71.71,0,0,1-.55.22.69.69,0,0,1-.53-.22.74.74,0,0,1-.22-.55V32.3a.73.73,0,0,1,.22-.54.69.69,0,0,1,.53-.22.71.71,0,0,1,.55.22.73.73,0,0,1,.22.54v6.93A.74.74,0,0,1,1167.61,39.78Z" transform="translate(-1131.68 42.64)"/><path class="cls-15" d="M1177.17,34.88v4.35a.77.77,0,0,1-.21.55.74.74,0,0,1-.55.22.7.7,0,0,1-.54-.22.78.78,0,0,1-.22-.55V34.9a2.42,2.42,0,0,0-.43-1.51,1.68,1.68,0,0,0-1.41-.56,2.52,2.52,0,0,0-1.16.28,2.25,2.25,0,0,0-.81.75,1.91,1.91,0,0,0-.3,1v4.33a.77.77,0,0,1-.21.55.75.75,0,0,1-.56.22.7.7,0,0,1-.54-.22.74.74,0,0,1-.21-.55V32.38a.73.73,0,0,1,.22-.54.69.69,0,0,1,.53-.22.75.75,0,0,1,.56.22.76.76,0,0,1,.21.54v.56a3.67,3.67,0,0,1,1.16-1.08,3.13,3.13,0,0,1,1.59-.44C1176.21,31.42,1177.17,32.58,1177.17,34.88Z" transform="translate(-1131.68 42.64)"/><path class="cls-15" d="M1186.8,28.38a.74.74,0,0,1,.21.55v10.3a.77.77,0,0,1-.21.55.74.74,0,0,1-.55.22.71.71,0,0,1-.55-.22.74.74,0,0,1-.21-.55v-.45a3.34,3.34,0,0,1-2.68,1.38,3.6,3.6,0,0,1-2-.56,3.84,3.84,0,0,1-1.39-1.56,4.78,4.78,0,0,1-.52-2.25,4.9,4.9,0,0,1,.51-2.25,4,4,0,0,1,1.38-1.56,3.57,3.57,0,0,1,1.94-.56,3.48,3.48,0,0,1,1.57.36,3.12,3.12,0,0,1,1.16.91V28.93a.74.74,0,0,1,.21-.55.71.71,0,0,1,.55-.22A.74.74,0,0,1,1186.8,28.38Zm-2.48,10a2.62,2.62,0,0,0,.91-1.06,3.64,3.64,0,0,0,0-3,2.56,2.56,0,0,0-.91-1.06,2.37,2.37,0,0,0-1.34-.39,2.34,2.34,0,0,0-1.33.39,2.58,2.58,0,0,0-.92,1.06,3.75,3.75,0,0,0,0,3,2.64,2.64,0,0,0,.92,1.06,2.41,2.41,0,0,0,1.33.38A2.44,2.44,0,0,0,1184.32,38.37Z" transform="translate(-1131.68 42.64)"/><path class="cls-15" d="M1189.28,30.31a.66.66,0,0,1-.2-.53v-.26a.62.62,0,0,1,.21-.54,1.12,1.12,0,0,1,.67-.16,1,1,0,0,1,.65.16.69.69,0,0,1,.2.54v.26a.65.65,0,0,1-.21.54,1.07,1.07,0,0,1-.66.16A1,1,0,0,1,1189.28,30.31Zm1.21,9.47a.71.71,0,0,1-.55.22.69.69,0,0,1-.53-.22.74.74,0,0,1-.22-.55V32.3a.73.73,0,0,1,.22-.54.69.69,0,0,1,.53-.22.71.71,0,0,1,.55.22.73.73,0,0,1,.22.54v6.93A.74.74,0,0,1,1190.49,39.78Z" transform="translate(-1131.68 42.64)"/><path class="cls-15" d="M1199.81,31.74a.62.62,0,0,1,.21.47,1.21,1.21,0,0,1-.11.4l-3,6.91a.82.82,0,0,1-.27.34.8.8,0,0,1-.39.14.71.71,0,0,1-.47-.1.83.83,0,0,1-.33-.38l-3-6.91a1.47,1.47,0,0,1-.08-.4.66.66,0,0,1,.21-.47.77.77,0,0,1,.55-.2.8.8,0,0,1,.43.12.77.77,0,0,1,.3.36l2.42,5.61,2.41-5.61a.73.73,0,0,1,.69-.48A.67.67,0,0,1,1199.81,31.74Z" transform="translate(-1131.68 42.64)"/><path class="cls-15" d="M1201.68,30.31a.63.63,0,0,1-.2-.53v-.26a.62.62,0,0,1,.21-.54,1.12,1.12,0,0,1,.67-.16,1,1,0,0,1,.65.16.69.69,0,0,1,.2.54v.26a.65.65,0,0,1-.21.54,1.07,1.07,0,0,1-.66.16A1,1,0,0,1,1201.68,30.31Zm1.21,9.47a.71.71,0,0,1-.55.22.69.69,0,0,1-.53-.22.74.74,0,0,1-.22-.55V32.3a.73.73,0,0,1,.22-.54.69.69,0,0,1,.53-.22.71.71,0,0,1,.55.22.73.73,0,0,1,.22.54v6.93A.74.74,0,0,1,1202.89,39.78Z" transform="translate(-1131.68 42.64)"/><path class="cls-15" d="M1212.65,28.38a.71.71,0,0,1,.22.55v10.3a.74.74,0,0,1-.22.55.71.71,0,0,1-.55.22.7.7,0,0,1-.54-.22.74.74,0,0,1-.21-.55v-.45a3.21,3.21,0,0,1-1.13,1,3.12,3.12,0,0,1-1.56.4,3.64,3.64,0,0,1-2-.56A3.91,3.91,0,0,1,1205.3,38a4.9,4.9,0,0,1-.51-2.25,5,5,0,0,1,.5-2.25,4,4,0,0,1,1.39-1.56,3.54,3.54,0,0,1,1.93-.56,3.45,3.45,0,0,1,1.57.36,3.24,3.24,0,0,1,1.17.91V28.93a.74.74,0,0,1,.21-.55.7.7,0,0,1,.54-.22A.71.71,0,0,1,1212.65,28.38Zm-2.48,10a2.64,2.64,0,0,0,.92-1.06,3.75,3.75,0,0,0,0-3,2.58,2.58,0,0,0-.92-1.06,2.34,2.34,0,0,0-1.33-.39,2.37,2.37,0,0,0-1.34.39,2.56,2.56,0,0,0-.91,1.06,3.64,3.64,0,0,0,0,3,2.62,2.62,0,0,0,.91,1.06,2.44,2.44,0,0,0,1.34.38A2.41,2.41,0,0,0,1210.17,38.37Z" transform="translate(-1131.68 42.64)"/><path class="cls-15" d="M1222.17,31.84a.73.73,0,0,1,.22.54v4.26a3.2,3.2,0,0,1-3.52,3.5,3.45,3.45,0,0,1-2.58-.92,3.53,3.53,0,0,1-.91-2.58V32.38a.73.73,0,0,1,.22-.54.69.69,0,0,1,.53-.22.75.75,0,0,1,.56.22.76.76,0,0,1,.21.54v4.26c0,1.4.66,2.1,2,2.1a2,2,0,0,0,1.49-.53,2.18,2.18,0,0,0,.51-1.57V32.38a.73.73,0,0,1,.22-.54.69.69,0,0,1,.53-.22A.71.71,0,0,1,1222.17,31.84Z" transform="translate(-1131.68 42.64)"/><path class="cls-15" d="M1232,38.05a4.07,4.07,0,0,1-1.53,1.55,4.25,4.25,0,0,1-2.14.56,4.18,4.18,0,0,1-2.13-.56,4,4,0,0,1-1.53-1.55,4.51,4.51,0,0,1-.56-2.24,4.62,4.62,0,0,1,.56-2.26,4.05,4.05,0,0,1,1.53-1.57,4.18,4.18,0,0,1,2.13-.56,4.25,4.25,0,0,1,2.14.56,4.12,4.12,0,0,1,1.53,1.57,4.62,4.62,0,0,1,.56,2.26A4.51,4.51,0,0,1,1232,38.05Zm-1.32-3.79a2.69,2.69,0,0,0-1-1,2.64,2.64,0,0,0-2.73,0,2.62,2.62,0,0,0-1,1,3.28,3.28,0,0,0-.36,1.55,3.19,3.19,0,0,0,.36,1.52,2.62,2.62,0,0,0,1,1.05,2.7,2.7,0,0,0,2.73,0,2.69,2.69,0,0,0,1-1.05,3.19,3.19,0,0,0,.36-1.52A3.28,3.28,0,0,0,1230.72,34.26Z" transform="translate(-1131.68 42.64)"/><path class="cls-15" d="M1233.73,38.26a.66.66,0,0,1,.34-.55.67.67,0,0,1,.37-.11.74.74,0,0,1,.53.24,3.55,3.55,0,0,0,1,.82,3,3,0,0,0,1.32.27,2.33,2.33,0,0,0,1.07-.28,1,1,0,0,0,0-1.69,5.3,5.3,0,0,0-1.38-.53,10.71,10.71,0,0,1-1.49-.5,2.62,2.62,0,0,1-1-.77,2.23,2.23,0,0,1,0-2.58,2.58,2.58,0,0,1,1.09-.85,3.6,3.6,0,0,1,1.48-.31,4.36,4.36,0,0,1,1.53.29,2.93,2.93,0,0,1,1.24.88.76.76,0,0,1,.19.47.69.69,0,0,1-.26.49.57.57,0,0,1-.4.15.6.6,0,0,1-.46-.2,2.37,2.37,0,0,0-.83-.59,2.67,2.67,0,0,0-1.08-.21,2.07,2.07,0,0,0-1,.25,1,1,0,0,0,.07,1.67,5.65,5.65,0,0,0,1.44.53,8.81,8.81,0,0,1,1.41.48,2.58,2.58,0,0,1,.95.76,2.17,2.17,0,0,1,.38,1.32,2.12,2.12,0,0,1-.43,1.31,2.82,2.82,0,0,1-1.13.84,3.69,3.69,0,0,1-1.48.3,4.93,4.93,0,0,1-1.86-.35,3.45,3.45,0,0,1-1.45-1.12A.8.8,0,0,1,1233.73,38.26Z" transform="translate(-1131.68 42.64)"/><path class="cls-15" d="M1253.77,28.38a.71.71,0,0,1,.22.55v10.3a.74.74,0,0,1-.22.55.71.71,0,0,1-.55.22.7.7,0,0,1-.54-.22.74.74,0,0,1-.21-.55v-.45a3.21,3.21,0,0,1-1.13,1,3.15,3.15,0,0,1-1.56.4,3.64,3.64,0,0,1-2-.56,3.91,3.91,0,0,1-1.39-1.56,4.9,4.9,0,0,1-.51-2.25,5,5,0,0,1,.5-2.25A4,4,0,0,1,1247.8,32a3.54,3.54,0,0,1,1.93-.56,3.45,3.45,0,0,1,1.57.36,3.24,3.24,0,0,1,1.17.91V28.93a.74.74,0,0,1,.21-.55.7.7,0,0,1,.54-.22A.71.71,0,0,1,1253.77,28.38Zm-2.48,10a2.64,2.64,0,0,0,.92-1.06,3.75,3.75,0,0,0,0-3,2.58,2.58,0,0,0-.92-1.06,2.34,2.34,0,0,0-1.33-.39,2.37,2.37,0,0,0-1.34.39,2.56,2.56,0,0,0-.91,1.06,3.64,3.64,0,0,0,0,3,2.62,2.62,0,0,0,.91,1.06,2.44,2.44,0,0,0,1.34.38A2.41,2.41,0,0,0,1251.29,38.37Z" transform="translate(-1131.68 42.64)"/><path class="cls-15" d="M1263.37,36a.79.79,0,0,1-.53.2h-5.63a2.8,2.8,0,0,0,.88,1.87,2.72,2.72,0,0,0,1.9.7,3,3,0,0,0,1.25-.22,2.93,2.93,0,0,0,.84-.58,1,1,0,0,1,.47-.14.58.58,0,0,1,.45.19.61.61,0,0,1,.19.45.82.82,0,0,1-.32.61,3.71,3.71,0,0,1-1.23.78,4.12,4.12,0,0,1-1.57.32,4.69,4.69,0,0,1-2.28-.54,3.83,3.83,0,0,1-1.52-1.52,4.49,4.49,0,0,1-.54-2.21,4.84,4.84,0,0,1,.56-2.36,3.91,3.91,0,0,1,1.45-1.56,3.74,3.74,0,0,1,3.87,0,4,4,0,0,1,1.43,1.46,4.18,4.18,0,0,1,.57,2.08A.79.79,0,0,1,1263.37,36Zm-5.24-2.64a2.49,2.49,0,0,0-.86,1.56H1262v-.13a1.94,1.94,0,0,0-.76-1.39,2.37,2.37,0,0,0-1.54-.55A2.48,2.48,0,0,0,1258.13,33.34Z" transform="translate(-1131.68 42.64)"/><path class="cls-15" d="M1276.59,31.84a.76.76,0,0,1,.21.54v4.26a3.66,3.66,0,0,1-6.09,2.58,3.49,3.49,0,0,1-.91-2.58V32.38a.76.76,0,0,1,.21-.54.79.79,0,0,1,1.09,0,.73.73,0,0,1,.22.54v4.26c0,1.4.65,2.1,2,2.1a2,2,0,0,0,1.48-.53,2.18,2.18,0,0,0,.52-1.57V32.38a.76.76,0,0,1,.21-.54.7.7,0,0,1,.54-.22A.72.72,0,0,1,1276.59,31.84Z" transform="translate(-1131.68 42.64)"/><path class="cls-15" d="M1286.23,34.88v4.35a.74.74,0,0,1-.22.55.72.72,0,0,1-.55.22.73.73,0,0,1-.54-.22.77.77,0,0,1-.21-.55V34.9a2.48,2.48,0,0,0-.43-1.51,1.68,1.68,0,0,0-1.41-.56,2.46,2.46,0,0,0-1.16.28,2.2,2.2,0,0,0-.82.75,2,2,0,0,0-.29,1v4.33a.78.78,0,0,1-.22.55.72.72,0,0,1-.55.22.67.67,0,0,1-.54-.22.74.74,0,0,1-.21-.55V32.38a.76.76,0,0,1,.21-.54.73.73,0,0,1,.54-.22.72.72,0,0,1,.55.22.77.77,0,0,1,.22.54v.56a3.46,3.46,0,0,1,1.16-1.08,3.07,3.07,0,0,1,1.59-.44C1285.27,31.42,1286.23,32.58,1286.23,34.88Z" transform="translate(-1131.68 42.64)"/><path class="cls-15" d="M1295.85,31.72a.74.74,0,0,1,.22.57v6.94a.74.74,0,0,1-.22.55.72.72,0,0,1-.55.22.69.69,0,0,1-.54-.22.74.74,0,0,1-.21-.55v-.41a3.49,3.49,0,0,1-1.14,1,3.19,3.19,0,0,1-1.55.39,3.68,3.68,0,0,1-2-.56,3.84,3.84,0,0,1-1.39-1.56,5.31,5.31,0,0,1,0-4.5,4,4,0,0,1,1.39-1.56,3.62,3.62,0,0,1,3.51-.2,3.29,3.29,0,0,1,1.16.89v-.38a.78.78,0,0,1,.21-.56.69.69,0,0,1,.54-.23A.76.76,0,0,1,1295.85,31.72Zm-2.48,6.65a2.55,2.55,0,0,0,.91-1.06,3.62,3.62,0,0,0,0-3,2.64,2.64,0,0,0-.91-1.07,2.34,2.34,0,0,0-1.33-.39,2.37,2.37,0,0,0-1.34.39,2.53,2.53,0,0,0-.91,1.05,3.67,3.67,0,0,0,0,3,2.62,2.62,0,0,0,.91,1.06,2.44,2.44,0,0,0,1.34.38A2.41,2.41,0,0,0,1293.37,38.37Z" transform="translate(-1131.68 42.64)"/><path class="cls-15" d="M1308.51,31.82c.56.27.84.61.84,1a.76.76,0,0,1-.18.49.55.55,0,0,1-.45.21.7.7,0,0,1-.32-.06,2.7,2.7,0,0,1-.33-.21,2,2,0,0,0-.31-.22,1.74,1.74,0,0,0-.54-.16,3,3,0,0,0-.64-.07,2.76,2.76,0,0,0-1.47.39,2.53,2.53,0,0,0-1,1.06,3.18,3.18,0,0,0-.36,1.51,3.27,3.27,0,0,0,.35,1.52,2.61,2.61,0,0,0,1,1.06,2.69,2.69,0,0,0,1.42.38,3,3,0,0,0,1.34-.25l.31-.21a1.26,1.26,0,0,1,.28-.19.54.54,0,0,1,.29-.07.66.66,0,0,1,.51.2.77.77,0,0,1,.18.52.89.89,0,0,1-.42.67,3.56,3.56,0,0,1-1.14.53,5.34,5.34,0,0,1-1.53.21,4,4,0,0,1-2.14-.57,3.75,3.75,0,0,1-1.43-1.57,4.82,4.82,0,0,1-.51-2.23,4.74,4.74,0,0,1,.53-2.23,3.91,3.91,0,0,1,1.47-1.57,4.1,4.1,0,0,1,2.16-.57A5,5,0,0,1,1308.51,31.82Z" transform="translate(-1131.68 42.64)"/><path class="cls-15" d="M1318.36,38.05a4.14,4.14,0,0,1-1.53,1.55,4.25,4.25,0,0,1-2.14.56,4.18,4.18,0,0,1-2.13-.56,4,4,0,0,1-1.53-1.55,4.41,4.41,0,0,1-.56-2.24,4.51,4.51,0,0,1,.56-2.26,4.05,4.05,0,0,1,1.53-1.57,4.18,4.18,0,0,1,2.13-.56,4.25,4.25,0,0,1,2.14.56,4.19,4.19,0,0,1,1.53,1.57,4.62,4.62,0,0,1,.56,2.26A4.51,4.51,0,0,1,1318.36,38.05ZM1317,34.26a2.69,2.69,0,0,0-1-1,2.66,2.66,0,0,0-2.74,0,2.66,2.66,0,0,0-1,1,3.28,3.28,0,0,0-.36,1.55,3.19,3.19,0,0,0,.36,1.52,2.66,2.66,0,0,0,1,1.05,2.72,2.72,0,0,0,2.74,0,2.69,2.69,0,0,0,1-1.05,3.19,3.19,0,0,0,.36-1.52A3.28,3.28,0,0,0,1317,34.26Z" transform="translate(-1131.68 42.64)"/><path class="cls-15" d="M1333.09,35v4.27a.74.74,0,0,1-.21.55.7.7,0,0,1-.54.22.72.72,0,0,1-.55-.22.74.74,0,0,1-.22-.55V35c0-1.4-.59-2.1-1.76-2.1a2.28,2.28,0,0,0-1.13.28,2.11,2.11,0,0,0-.78.76,2,2,0,0,0-.28,1.06v4.25a.74.74,0,0,1-.22.55.71.71,0,0,1-.55.22.7.7,0,0,1-.54-.22.74.74,0,0,1-.21-.55V35a2.55,2.55,0,0,0-.4-1.51,1.51,1.51,0,0,0-1.33-.57,2.14,2.14,0,0,0-1.56.6,2,2,0,0,0-.61,1.48v4.27a.78.78,0,0,1-.22.55.74.74,0,0,1-.55.22.71.71,0,0,1-.55-.22.73.73,0,0,1-.2-.55V32.38a.76.76,0,0,1,.21-.54.72.72,0,0,1,.54-.22.74.74,0,0,1,.55.22.77.77,0,0,1,.22.54v.56a3.37,3.37,0,0,1,1.11-1,2.79,2.79,0,0,1,1.51-.43,2.47,2.47,0,0,1,2.58,1.76,3.31,3.31,0,0,1,1.16-1.21,3,3,0,0,1,1.73-.55Q1333.1,31.47,1333.09,35Z" transform="translate(-1131.68 42.64)"/><path class="cls-15" d="M1342.16,31.84a.76.76,0,0,1,.21.54v4.26a3.2,3.2,0,0,1-3.52,3.5,3.41,3.41,0,0,1-2.57-.92,3.49,3.49,0,0,1-.92-2.58V32.38a.77.77,0,0,1,.22-.54.7.7,0,0,1,.54-.22.74.74,0,0,1,.55.22.76.76,0,0,1,.21.54v4.26c0,1.4.66,2.1,2,2.1a2,2,0,0,0,1.49-.53,2.18,2.18,0,0,0,.51-1.57V32.38a.73.73,0,0,1,.22-.54.69.69,0,0,1,.53-.22A.75.75,0,0,1,1342.16,31.84Z" transform="translate(-1131.68 42.64)"/><path class="cls-15" d="M1351.79,34.88v4.35a.77.77,0,0,1-.21.55.72.72,0,0,1-.55.22.7.7,0,0,1-.54-.22.77.77,0,0,1-.21-.55V34.9a2.42,2.42,0,0,0-.44-1.51,1.66,1.66,0,0,0-1.4-.56,2.46,2.46,0,0,0-1.16.28,2.2,2.2,0,0,0-.82.75,1.91,1.91,0,0,0-.3,1v4.33a.77.77,0,0,1-.21.55.74.74,0,0,1-.55.22.71.71,0,0,1-.55-.22.74.74,0,0,1-.21-.55V32.38a.73.73,0,0,1,.22-.54.7.7,0,0,1,.54-.22.74.74,0,0,1,.55.22.76.76,0,0,1,.21.54v.56a3.67,3.67,0,0,1,1.16-1.08,3.13,3.13,0,0,1,1.6-.44C1350.83,31.42,1351.79,32.58,1351.79,34.88Z" transform="translate(-1131.68 42.64)"/><path class="cls-15" d="M1354.08,30.31a.63.63,0,0,1-.2-.53v-.26a.62.62,0,0,1,.21-.54,1.11,1.11,0,0,1,.66-.16,1,1,0,0,1,.65.16.65.65,0,0,1,.2.54v.26a.65.65,0,0,1-.21.54,1.38,1.38,0,0,1-1.31,0Zm1.21,9.47a.72.72,0,0,1-.55.22.73.73,0,0,1-.54-.22.77.77,0,0,1-.21-.55V32.3a.76.76,0,0,1,.21-.54.73.73,0,0,1,.54-.22.72.72,0,0,1,.55.22.77.77,0,0,1,.22.54v6.93A.78.78,0,0,1,1355.29,39.78Z" transform="translate(-1131.68 42.64)"/><path class="cls-15" d="M1365.05,28.38a.75.75,0,0,1,.22.55v10.3a.78.78,0,0,1-.22.55.72.72,0,0,1-.55.22.67.67,0,0,1-.54-.22.74.74,0,0,1-.21-.55v-.45a3.31,3.31,0,0,1-1.13,1,3.18,3.18,0,0,1-1.56.4,3.62,3.62,0,0,1-2-.56A3.84,3.84,0,0,1,1357.7,38a5.26,5.26,0,0,1,0-4.5,4,4,0,0,1,1.39-1.56,3.54,3.54,0,0,1,1.93-.56,3.45,3.45,0,0,1,1.57.36,3.24,3.24,0,0,1,1.17.91V28.93a.74.74,0,0,1,.21-.55.67.67,0,0,1,.54-.22A.72.72,0,0,1,1365.05,28.38Zm-2.48,10a2.62,2.62,0,0,0,.91-1.06,3.64,3.64,0,0,0,0-3,2.56,2.56,0,0,0-.91-1.06,2.48,2.48,0,0,0-2.67,0,2.56,2.56,0,0,0-.91,1.06,3.64,3.64,0,0,0,0,3,2.62,2.62,0,0,0,.91,1.06,2.54,2.54,0,0,0,2.67,0Z" transform="translate(-1131.68 42.64)"/><path class="cls-15" d="M1374.87,31.72a.74.74,0,0,1,.22.57v6.94a.74.74,0,0,1-.22.55.71.71,0,0,1-.55.22.7.7,0,0,1-.54-.22.74.74,0,0,1-.21-.55v-.41a3.49,3.49,0,0,1-1.14,1,3.19,3.19,0,0,1-1.55.39,3.64,3.64,0,0,1-2-.56,3.79,3.79,0,0,1-1.4-1.56,5.31,5.31,0,0,1,0-4.5A4,4,0,0,1,1368.9,32a3.56,3.56,0,0,1,1.93-.56,3.52,3.52,0,0,1,1.58.36,3.21,3.21,0,0,1,1.16.89v-.38a.78.78,0,0,1,.21-.56.71.71,0,0,1,.54-.23A.75.75,0,0,1,1374.87,31.72Zm-2.48,6.65a2.64,2.64,0,0,0,.92-1.06,3.72,3.72,0,0,0,0-3,2.74,2.74,0,0,0-.92-1.07,2.34,2.34,0,0,0-1.33-.39,2.37,2.37,0,0,0-1.34.39,2.53,2.53,0,0,0-.91,1.05,3.67,3.67,0,0,0,0,3,2.62,2.62,0,0,0,.91,1.06,2.44,2.44,0,0,0,1.34.38A2.41,2.41,0,0,0,1372.39,38.37Z" transform="translate(-1131.68 42.64)"/><path class="cls-15" d="M1384.7,28.38a.75.75,0,0,1,.22.55v10.3a.78.78,0,0,1-.22.55.74.74,0,0,1-.55.22.71.71,0,0,1-.55-.22.74.74,0,0,1-.21-.55v-.45a3.34,3.34,0,0,1-2.68,1.38,3.62,3.62,0,0,1-2-.56,3.84,3.84,0,0,1-1.39-1.56,4.78,4.78,0,0,1-.52-2.25,4.9,4.9,0,0,1,.51-2.25,4,4,0,0,1,1.38-1.56,3.59,3.59,0,0,1,1.94-.56,3.48,3.48,0,0,1,1.57.36,3.12,3.12,0,0,1,1.16.91V28.93a.74.74,0,0,1,.21-.55.71.71,0,0,1,.55-.22A.74.74,0,0,1,1384.7,28.38Zm-2.48,10a2.62,2.62,0,0,0,.91-1.06,3.64,3.64,0,0,0,0-3,2.56,2.56,0,0,0-.91-1.06,2.37,2.37,0,0,0-1.34-.39,2.34,2.34,0,0,0-1.33.39,2.58,2.58,0,0,0-.92,1.06,3.75,3.75,0,0,0,0,3,2.64,2.64,0,0,0,.92,1.06,2.41,2.41,0,0,0,1.33.38A2.44,2.44,0,0,0,1382.22,38.37Z" transform="translate(-1131.68 42.64)"/><path class="cls-15" d="M1397.78,32a3.78,3.78,0,0,1,1.38,1.55,5.15,5.15,0,0,1,0,4.47,3.75,3.75,0,0,1-1.38,1.54,3.49,3.49,0,0,1-1.94.56,3.43,3.43,0,0,1-1.55-.36,3.87,3.87,0,0,1-1.17-.9v3.55a.77.77,0,0,1-.21.55.75.75,0,0,1-.56.22.69.69,0,0,1-.53-.22.71.71,0,0,1-.22-.55V32.37a.78.78,0,0,1,.21-.56.71.71,0,0,1,.54-.23.75.75,0,0,1,.56.23.78.78,0,0,1,.21.56v.46a3.25,3.25,0,0,1,1.12-1,3.33,3.33,0,0,1,1.57-.4A3.7,3.7,0,0,1,1397.78,32Zm-.82,6.33a2.48,2.48,0,0,0,.92-1.05,3.55,3.55,0,0,0,0-3,2.6,2.6,0,0,0-.92-1.05,2.41,2.41,0,0,0-1.33-.38,2.44,2.44,0,0,0-1.34.38,2.58,2.58,0,0,0-.92,1,3.6,3.6,0,0,0,0,3,2.55,2.55,0,0,0,.92,1,2.44,2.44,0,0,0,1.34.38A2.34,2.34,0,0,0,1397,38.35Z" transform="translate(-1131.68 42.64)"/><path class="cls-15" d="M1408.22,31.84a.76.76,0,0,1,.21.54v4.26a3.66,3.66,0,0,1-6.09,2.58,3.49,3.49,0,0,1-.91-2.58V32.38a.76.76,0,0,1,.21-.54.79.79,0,0,1,1.09,0,.73.73,0,0,1,.22.54v4.26c0,1.4.65,2.1,2,2.1a2,2,0,0,0,1.48-.53,2.18,2.18,0,0,0,.52-1.57V32.38a.76.76,0,0,1,.21-.54.7.7,0,0,1,.54-.22A.72.72,0,0,1,1408.22,31.84Z" transform="translate(-1131.68 42.64)"/><path class="cls-15" d="M1417.83,36a.79.79,0,0,1-.53.2h-5.63a2.8,2.8,0,0,0,.88,1.87,2.72,2.72,0,0,0,1.9.7,3,3,0,0,0,1.25-.22,3.12,3.12,0,0,0,.85-.58.94.94,0,0,1,.46-.14.62.62,0,0,1,.46.19.64.64,0,0,1,.18.45.82.82,0,0,1-.32.61,3.71,3.71,0,0,1-1.23.78,4.12,4.12,0,0,1-1.57.32,4.69,4.69,0,0,1-2.28-.54,3.83,3.83,0,0,1-1.52-1.52,4.49,4.49,0,0,1-.54-2.21,4.84,4.84,0,0,1,.56-2.36A3.91,3.91,0,0,1,1412.2,32a3.74,3.74,0,0,1,3.87,0,4.11,4.11,0,0,1,1.44,1.46,4.17,4.17,0,0,1,.56,2.08A.7.7,0,0,1,1417.83,36Zm-5.24-2.64a2.49,2.49,0,0,0-.86,1.56h4.72v-.13a1.94,1.94,0,0,0-.76-1.39,2.37,2.37,0,0,0-1.54-.55A2.48,2.48,0,0,0,1412.59,33.34Z" transform="translate(-1131.68 42.64)"/><path class="cls-15" d="M1427.18,28.38a.74.74,0,0,1,.21.55v10.3a.77.77,0,0,1-.21.55.74.74,0,0,1-.55.22.71.71,0,0,1-.55-.22.74.74,0,0,1-.21-.55v-.45a3.34,3.34,0,0,1-2.68,1.38,3.6,3.6,0,0,1-2-.56,3.84,3.84,0,0,1-1.39-1.56,4.78,4.78,0,0,1-.52-2.25,4.9,4.9,0,0,1,.51-2.25A4,4,0,0,1,1421.2,32a3.57,3.57,0,0,1,1.94-.56,3.48,3.48,0,0,1,1.57.36,3.12,3.12,0,0,1,1.16.91V28.93a.74.74,0,0,1,.21-.55.71.71,0,0,1,.55-.22A.74.74,0,0,1,1427.18,28.38Zm-2.48,10a2.62,2.62,0,0,0,.91-1.06,3.64,3.64,0,0,0,0-3,2.56,2.56,0,0,0-.91-1.06,2.37,2.37,0,0,0-1.34-.39,2.34,2.34,0,0,0-1.33.39,2.58,2.58,0,0,0-.92,1.06,3.75,3.75,0,0,0,0,3,2.64,2.64,0,0,0,.92,1.06,2.41,2.41,0,0,0,1.33.38A2.44,2.44,0,0,0,1424.7,38.37Z" transform="translate(-1131.68 42.64)"/><path class="cls-15" d="M1436.77,36a.78.78,0,0,1-.53.2h-5.63a2.77,2.77,0,0,0,.89,1.87,2.71,2.71,0,0,0,1.89.7,2.73,2.73,0,0,0,2.1-.8.94.94,0,0,1,.46-.14.59.59,0,0,1,.46.19.64.64,0,0,1,.18.45.79.79,0,0,1-.32.61,3.71,3.71,0,0,1-1.23.78,4.08,4.08,0,0,1-1.57.32,4.69,4.69,0,0,1-2.28-.54,3.9,3.9,0,0,1-1.52-1.52,4.6,4.6,0,0,1-.53-2.21,4.84,4.84,0,0,1,.55-2.36,3.93,3.93,0,0,1,1.46-1.56,3.72,3.72,0,0,1,3.86,0,4,4,0,0,1,1.44,1.46,4.17,4.17,0,0,1,.56,2.08A.7.7,0,0,1,1436.77,36Zm-5.23-2.64a2.45,2.45,0,0,0-.87,1.56h4.72v-.13a1.9,1.9,0,0,0-.76-1.39,2.35,2.35,0,0,0-1.54-.55A2.45,2.45,0,0,0,1431.54,33.34Z" transform="translate(-1131.68 42.64)"/><path class="cls-15" d="M1445.92,34.88v4.35a.77.77,0,0,1-.21.55.75.75,0,0,1-.56.22.69.69,0,0,1-.53-.22.74.74,0,0,1-.22-.55V34.9a2.42,2.42,0,0,0-.43-1.51,1.68,1.68,0,0,0-1.41-.56,2.52,2.52,0,0,0-1.16.28,2.17,2.17,0,0,0-.81.75,1.91,1.91,0,0,0-.3,1v4.33a.74.74,0,0,1-.22.55.71.71,0,0,1-.55.22.7.7,0,0,1-.54-.22.74.74,0,0,1-.21-.55V32.38a.73.73,0,0,1,.22-.54.69.69,0,0,1,.53-.22.71.71,0,0,1,.55.22.73.73,0,0,1,.22.54v.56a3.56,3.56,0,0,1,1.16-1.08,3.13,3.13,0,0,1,1.59-.44C1445,31.42,1445.92,32.58,1445.92,34.88Z" transform="translate(-1131.68 42.64)"/><path class="cls-15" d="M1172.14,51c.56.27.84.61.84,1a.81.81,0,0,1-.17.49.57.57,0,0,1-.45.21.75.75,0,0,1-.33-.06,2.7,2.7,0,0,1-.33-.21,1.45,1.45,0,0,0-.3-.22,1.82,1.82,0,0,0-.55-.16,3,3,0,0,0-.64-.07,2.78,2.78,0,0,0-1.47.39,2.67,2.67,0,0,0-1,1.06,3.5,3.5,0,0,0,0,3,2.61,2.61,0,0,0,1,1.06,2.72,2.72,0,0,0,1.42.38,3,3,0,0,0,1.35-.25l.3-.21a1.54,1.54,0,0,1,.28-.19.56.56,0,0,1,.3-.07.65.65,0,0,1,.5.2.73.73,0,0,1,.19.52.88.88,0,0,1-.43.67,3.61,3.61,0,0,1-1.13.53,5.44,5.44,0,0,1-1.53.21,4,4,0,0,1-2.15-.57,3.88,3.88,0,0,1-1.43-1.57,4.94,4.94,0,0,1-.5-2.23,4.62,4.62,0,0,1,.53-2.23,3.91,3.91,0,0,1,1.47-1.57,4.1,4.1,0,0,1,2.16-.57A5,5,0,0,1,1172.14,51Z" transform="translate(-1131.68 42.64)"/><path class="cls-15" d="M1182,57.25a4,4,0,0,1-1.53,1.55,4.35,4.35,0,0,1-4.27,0,4.07,4.07,0,0,1-1.53-1.55,4.51,4.51,0,0,1-.56-2.24,4.62,4.62,0,0,1,.56-2.26,4.12,4.12,0,0,1,1.53-1.57,4.35,4.35,0,0,1,4.27,0,4.05,4.05,0,0,1,1.53,1.57,4.62,4.62,0,0,1,.56,2.26A4.51,4.51,0,0,1,1182,57.25Zm-1.32-3.79a2.69,2.69,0,0,0-1-1.05,2.56,2.56,0,0,0-1.36-.38,2.59,2.59,0,0,0-1.37.38,2.69,2.69,0,0,0-1,1.05,3.28,3.28,0,0,0-.36,1.55,3.19,3.19,0,0,0,.36,1.52,2.69,2.69,0,0,0,1,1,2.58,2.58,0,0,0,1.37.37,2.55,2.55,0,0,0,1.36-.37,2.69,2.69,0,0,0,1-1A3.19,3.19,0,0,0,1181,55,3.28,3.28,0,0,0,1180.67,53.46Z" transform="translate(-1131.68 42.64)"/><path class="cls-15" d="M1196.73,54.16v4.27a.74.74,0,0,1-.21.55.71.71,0,0,1-.55.22.74.74,0,0,1-.55-.22.77.77,0,0,1-.21-.55V54.18c0-1.4-.59-2.1-1.76-2.1a2.23,2.23,0,0,0-1.13.28,2.06,2.06,0,0,0-.79.76,2.12,2.12,0,0,0-.28,1.06v4.25a.77.77,0,0,1-.21.55.74.74,0,0,1-.55.22.71.71,0,0,1-.55-.22.74.74,0,0,1-.21-.55V54.16a2.55,2.55,0,0,0-.4-1.51,1.48,1.48,0,0,0-1.32-.57,2.14,2.14,0,0,0-1.56.6,2,2,0,0,0-.62,1.48v4.27a.74.74,0,0,1-.22.55.71.71,0,0,1-.55.22.7.7,0,0,1-.54-.22.74.74,0,0,1-.21-.55V51.58a.73.73,0,0,1,.22-.54.69.69,0,0,1,.53-.22.71.71,0,0,1,.55.22.73.73,0,0,1,.22.54v.56a3.58,3.58,0,0,1,1.11-1,2.81,2.81,0,0,1,1.51-.43,2.45,2.45,0,0,1,2.58,1.76,3.27,3.27,0,0,1,1.17-1.21,3,3,0,0,1,1.73-.55C1195.79,50.67,1196.73,51.83,1196.73,54.16Z" transform="translate(-1131.68 42.64)"/><path class="cls-15" d="M1205.79,51a.77.77,0,0,1,.22.54v4.26a3.2,3.2,0,0,1-3.52,3.5,3.45,3.45,0,0,1-2.58-.92,3.49,3.49,0,0,1-.91-2.58V51.58a.76.76,0,0,1,.21-.54.73.73,0,0,1,.54-.22.72.72,0,0,1,.55.22.73.73,0,0,1,.22.54v4.26c0,1.4.65,2.1,2,2.1a2,2,0,0,0,1.48-.53,2.14,2.14,0,0,0,.52-1.57V51.58a.76.76,0,0,1,.21-.54.79.79,0,0,1,1.09,0Z" transform="translate(-1131.68 42.64)"/><path class="cls-15" d="M1215.43,54.08v4.35a.74.74,0,0,1-.22.55.71.71,0,0,1-.55.22.69.69,0,0,1-.53-.22.74.74,0,0,1-.22-.55V54.1a2.42,2.42,0,0,0-.43-1.51,1.68,1.68,0,0,0-1.41-.56,2.49,2.49,0,0,0-1.16.28,2.2,2.2,0,0,0-.82.75,2,2,0,0,0-.29,1v4.33a.74.74,0,0,1-.22.55.72.72,0,0,1-.55.22.69.69,0,0,1-.54-.22.74.74,0,0,1-.21-.55V51.58a.76.76,0,0,1,.21-.54.73.73,0,0,1,.54-.22.72.72,0,0,1,.55.22.73.73,0,0,1,.22.54v.56a3.56,3.56,0,0,1,1.16-1.08,3.07,3.07,0,0,1,1.59-.44C1214.47,50.62,1215.43,51.78,1215.43,54.08Z" transform="translate(-1131.68 42.64)"/><path class="cls-15" d="M1217.71,49.51a.66.66,0,0,1-.2-.53v-.26a.6.6,0,0,1,.22-.54,1.07,1.07,0,0,1,.66-.16,1,1,0,0,1,.65.16.69.69,0,0,1,.2.54V49a.65.65,0,0,1-.21.54,1.07,1.07,0,0,1-.66.16A1,1,0,0,1,1217.71,49.51Zm1.22,9.47a.75.75,0,0,1-.56.22.69.69,0,0,1-.53-.22.74.74,0,0,1-.22-.55V51.5a.73.73,0,0,1,.22-.54.69.69,0,0,1,.53-.22.75.75,0,0,1,.56.22.76.76,0,0,1,.21.54v6.93A.77.77,0,0,1,1218.93,59Z" transform="translate(-1131.68 42.64)"/><path class="cls-15" d="M1227.09,51c.56.27.84.61.84,1a.76.76,0,0,1-.18.49.57.57,0,0,1-.45.21.75.75,0,0,1-.33-.06,2.11,2.11,0,0,1-.32-.21,2,2,0,0,0-.31-.22,1.84,1.84,0,0,0-.54-.16,3.12,3.12,0,0,0-.64-.07,2.74,2.74,0,0,0-1.47.39,2.62,2.62,0,0,0-1,1.06,3.45,3.45,0,0,0,0,3,2.66,2.66,0,0,0,1,1.06,2.73,2.73,0,0,0,1.43.38,3,3,0,0,0,1.34-.25l.31-.21a1.26,1.26,0,0,1,.28-.19.52.52,0,0,1,.29-.07.69.69,0,0,1,.51.2.77.77,0,0,1,.18.52.89.89,0,0,1-.42.67,3.78,3.78,0,0,1-1.14.53,5.34,5.34,0,0,1-1.53.21,4,4,0,0,1-2.14-.57,3.75,3.75,0,0,1-1.43-1.57,4.82,4.82,0,0,1-.51-2.23,4.74,4.74,0,0,1,.53-2.23,3.91,3.91,0,0,1,1.47-1.57,4.1,4.1,0,0,1,2.16-.57A5,5,0,0,1,1227.09,51Z" transform="translate(-1131.68 42.64)"/><path class="cls-15" d="M1236.91,50.92a.78.78,0,0,1,.22.57v6.94a.78.78,0,0,1-.22.55.72.72,0,0,1-.55.22.71.71,0,0,1-.55-.22.73.73,0,0,1-.2-.55V58a3.49,3.49,0,0,1-1.14.95,3.21,3.21,0,0,1-1.55.39,3.65,3.65,0,0,1-2-.56,3.84,3.84,0,0,1-1.39-1.56,5.31,5.31,0,0,1,0-4.5,4,4,0,0,1,1.38-1.56,3.59,3.59,0,0,1,1.94-.56,3.55,3.55,0,0,1,1.58.36,3.29,3.29,0,0,1,1.16.89v-.38a.77.77,0,0,1,.2-.56.72.72,0,0,1,.55-.23A.76.76,0,0,1,1236.91,50.92Zm-2.48,6.65a2.62,2.62,0,0,0,.91-1.06,3.62,3.62,0,0,0,0-3,2.72,2.72,0,0,0-.91-1.07,2.37,2.37,0,0,0-1.34-.39,2.34,2.34,0,0,0-1.33.39,2.46,2.46,0,0,0-.91,1,3.67,3.67,0,0,0,0,3,2.55,2.55,0,0,0,.91,1.06,2.41,2.41,0,0,0,1.33.38A2.44,2.44,0,0,0,1234.43,57.57Z" transform="translate(-1131.68 42.64)"/><path class="cls-15" d="M1244.28,50.84a.63.63,0,0,1,.3.54.8.8,0,0,1-.2.58.66.66,0,0,1-.49.2,1.38,1.38,0,0,1-.43-.1,1.91,1.91,0,0,0-.53-.11,1.6,1.6,0,0,0-1,.35,2.49,2.49,0,0,0-.77.94,3,3,0,0,0-.3,1.34v3.85a.77.77,0,0,1-.21.55.75.75,0,0,1-.56.22.7.7,0,0,1-.54-.22.74.74,0,0,1-.21-.55V51.58a.73.73,0,0,1,.22-.54.69.69,0,0,1,.53-.22.75.75,0,0,1,.56.22.76.76,0,0,1,.21.54v.82a3.05,3.05,0,0,1,1.06-1.27,2.79,2.79,0,0,1,1.6-.51A1.25,1.25,0,0,1,1244.28,50.84Z" transform="translate(-1131.68 42.64)"/><path class="cls-15" d="M1249.8,57.46a.65.65,0,0,1,.33-.55.67.67,0,0,1,.37-.11.74.74,0,0,1,.53.24,3.55,3.55,0,0,0,1,.82,3,3,0,0,0,1.32.27,2.29,2.29,0,0,0,1.07-.28,1,1,0,0,0,0-1.69,5.54,5.54,0,0,0-1.39-.53,11.19,11.19,0,0,1-1.49-.5,2.77,2.77,0,0,1-1-.77,2.28,2.28,0,0,1,0-2.58,2.71,2.71,0,0,1,1.09-.85,3.67,3.67,0,0,1,1.48-.31,4.36,4.36,0,0,1,1.53.29,2.87,2.87,0,0,1,1.24.88.71.71,0,0,1,.19.47.67.67,0,0,1-.25.49.57.57,0,0,1-.4.15.6.6,0,0,1-.47-.2,2.33,2.33,0,0,0-.82-.59,2.74,2.74,0,0,0-1.08-.21,2,2,0,0,0-1,.25.89.89,0,0,0-.43.84.91.91,0,0,0,.49.83,5.75,5.75,0,0,0,1.45.53,9.56,9.56,0,0,1,1.41.48,2.55,2.55,0,0,1,.94.76,2.11,2.11,0,0,1,.38,1.32,2.06,2.06,0,0,1-.43,1.31,2.75,2.75,0,0,1-1.13.84,3.66,3.66,0,0,1-1.48.3,4.93,4.93,0,0,1-1.86-.35,3.58,3.58,0,0,1-1.45-1.12A.87.87,0,0,1,1249.8,57.46Z" transform="translate(-1131.68 42.64)"/><path class="cls-15" d="M1264.85,51a.76.76,0,0,1,.21.54v4.26a3.2,3.2,0,0,1-3.52,3.5,3.41,3.41,0,0,1-2.57-.92,3.49,3.49,0,0,1-.92-2.58V51.58a.77.77,0,0,1,.22-.54.7.7,0,0,1,.54-.22.74.74,0,0,1,.55.22.76.76,0,0,1,.21.54v4.26c0,1.4.66,2.1,2,2.1a2,2,0,0,0,1.49-.53,2.18,2.18,0,0,0,.51-1.57V51.58a.73.73,0,0,1,.22-.54.69.69,0,0,1,.53-.22A.75.75,0,0,1,1264.85,51Z" transform="translate(-1131.68 42.64)"/><path class="cls-15" d="M1277.94,51.22a3.87,3.87,0,0,1,1.39,1.55,5.25,5.25,0,0,1,0,4.47,3.85,3.85,0,0,1-1.39,1.54,3.48,3.48,0,0,1-1.93.56,3.44,3.44,0,0,1-1.56-.36,3.71,3.71,0,0,1-1.16-.9v3.55a.8.8,0,0,1-.22.55.79.79,0,0,1-1.09,0,.74.74,0,0,1-.21-.55V51.57a.77.77,0,0,1,.2-.56.72.72,0,0,1,.55-.23.73.73,0,0,1,.55.23.79.79,0,0,1,.22.56V52a3.16,3.16,0,0,1,1.12-1,3.29,3.29,0,0,1,1.56-.4A3.7,3.7,0,0,1,1277.94,51.22Zm-.81,6.33a2.55,2.55,0,0,0,.92-1,3.65,3.65,0,0,0,0-3,2.68,2.68,0,0,0-.92-1,2.46,2.46,0,0,0-1.33-.38,2.5,2.5,0,0,0-1.35.38,2.58,2.58,0,0,0-.92,1,3.7,3.7,0,0,0,0,3,2.55,2.55,0,0,0,.92,1.05,2.5,2.5,0,0,0,1.35.38A2.38,2.38,0,0,0,1277.13,57.55Z" transform="translate(-1131.68 42.64)"/><path class="cls-15" d="M1288.71,55.18a.79.79,0,0,1-.53.2h-5.63a2.77,2.77,0,0,0,.89,1.87,2.71,2.71,0,0,0,1.89.7,3,3,0,0,0,1.25-.22,3.12,3.12,0,0,0,.85-.58.94.94,0,0,1,.46-.14.59.59,0,0,1,.46.19.64.64,0,0,1,.18.45.79.79,0,0,1-.32.61A3.71,3.71,0,0,1,1287,59a4.08,4.08,0,0,1-1.57.32,4.69,4.69,0,0,1-2.28-.54,3.9,3.9,0,0,1-1.52-1.52,4.6,4.6,0,0,1-.53-2.21,4.84,4.84,0,0,1,.55-2.36,3.93,3.93,0,0,1,1.46-1.56,3.72,3.72,0,0,1,3.86,0,4,4,0,0,1,1.44,1.46,4.17,4.17,0,0,1,.56,2.08A.7.7,0,0,1,1288.71,55.18Zm-5.23-2.64a2.45,2.45,0,0,0-.87,1.56h4.72V54a1.9,1.9,0,0,0-.76-1.39A2.35,2.35,0,0,0,1285,52,2.45,2.45,0,0,0,1283.48,52.54Z" transform="translate(-1131.68 42.64)"/><path class="cls-15" d="M1295.61,50.84a.63.63,0,0,1,.3.54.8.8,0,0,1-.2.58.68.68,0,0,1-.49.2,1.38,1.38,0,0,1-.43-.1,1.91,1.91,0,0,0-.53-.11,1.65,1.65,0,0,0-1,.35,2.47,2.47,0,0,0-.76.94,3,3,0,0,0-.3,1.34v3.85a.74.74,0,0,1-.22.55.71.71,0,0,1-.55.22.7.7,0,0,1-.54-.22.74.74,0,0,1-.21-.55V51.58a.73.73,0,0,1,.22-.54.69.69,0,0,1,.53-.22.71.71,0,0,1,.55.22.73.73,0,0,1,.22.54v.82a3,3,0,0,1,1.06-1.27,2.77,2.77,0,0,1,1.6-.51A1.28,1.28,0,0,1,1295.61,50.84Z" transform="translate(-1131.68 42.64)"/><path class="cls-15" d="M1302.72,51c.56.27.84.61.84,1a.76.76,0,0,1-.18.49.55.55,0,0,1-.45.21.7.7,0,0,1-.32-.06,2.7,2.7,0,0,1-.33-.21,2,2,0,0,0-.31-.22,1.74,1.74,0,0,0-.54-.16,3,3,0,0,0-.64-.07,2.76,2.76,0,0,0-1.47.39,2.53,2.53,0,0,0-1,1.06A3.18,3.18,0,0,0,1298,55a3.27,3.27,0,0,0,.35,1.52,2.61,2.61,0,0,0,1,1.06,2.69,2.69,0,0,0,1.42.38,3,3,0,0,0,1.34-.25l.31-.21a1.26,1.26,0,0,1,.28-.19.54.54,0,0,1,.29-.07.66.66,0,0,1,.51.2.77.77,0,0,1,.18.52.89.89,0,0,1-.42.67,3.56,3.56,0,0,1-1.14.53,5.34,5.34,0,0,1-1.53.21,4,4,0,0,1-2.14-.57,3.75,3.75,0,0,1-1.43-1.57,4.82,4.82,0,0,1-.51-2.23,4.74,4.74,0,0,1,.53-2.23,3.91,3.91,0,0,1,1.47-1.57,4.1,4.1,0,0,1,2.16-.57A5,5,0,0,1,1302.72,51Z" transform="translate(-1131.68 42.64)"/><path class="cls-15" d="M1312.31,55.18a.78.78,0,0,1-.53.2h-5.63a2.77,2.77,0,0,0,.89,1.87,2.71,2.71,0,0,0,1.89.7,2.73,2.73,0,0,0,2.1-.8.94.94,0,0,1,.46-.14.59.59,0,0,1,.46.19.64.64,0,0,1,.18.45.79.79,0,0,1-.32.61,3.71,3.71,0,0,1-1.23.78,4.08,4.08,0,0,1-1.57.32,4.69,4.69,0,0,1-2.28-.54,3.9,3.9,0,0,1-1.52-1.52,4.6,4.6,0,0,1-.53-2.21,4.84,4.84,0,0,1,.55-2.36,3.93,3.93,0,0,1,1.46-1.56,3.72,3.72,0,0,1,3.86,0,4,4,0,0,1,1.44,1.46,4.17,4.17,0,0,1,.56,2.08A.7.7,0,0,1,1312.31,55.18Zm-5.23-2.64a2.45,2.45,0,0,0-.87,1.56h4.72V54a1.9,1.9,0,0,0-.76-1.39,2.35,2.35,0,0,0-1.54-.55A2.45,2.45,0,0,0,1307.08,52.54Z" transform="translate(-1131.68 42.64)"/><path class="cls-15" d="M1320.49,51.22a3.93,3.93,0,0,1,1.38,1.55,5.15,5.15,0,0,1,0,4.47,3.9,3.9,0,0,1-1.38,1.54,3.51,3.51,0,0,1-1.94.56A3.43,3.43,0,0,1,1317,59a3.87,3.87,0,0,1-1.17-.9v3.55a.75.75,0,0,1-.22.55.71.71,0,0,1-.55.22.69.69,0,0,1-.53-.22.71.71,0,0,1-.22-.55V51.57a.78.78,0,0,1,.21-.56.76.76,0,0,1,1.09,0,.75.75,0,0,1,.22.56V52a3.25,3.25,0,0,1,1.12-1,3.3,3.3,0,0,1,1.57-.4A3.72,3.72,0,0,1,1320.49,51.22Zm-.82,6.33a2.48,2.48,0,0,0,.92-1,3.55,3.55,0,0,0,0-3,2.6,2.6,0,0,0-.92-1,2.54,2.54,0,0,0-2.67,0,2.51,2.51,0,0,0-.92,1,3.6,3.6,0,0,0,0,3,2.48,2.48,0,0,0,.92,1.05,2.44,2.44,0,0,0,1.34.38A2.36,2.36,0,0,0,1319.67,57.55Z" transform="translate(-1131.68 42.64)"/><path class="cls-15" d="M1329.89,51c.56.27.84.61.84,1a.76.76,0,0,1-.18.49.57.57,0,0,1-.45.21.75.75,0,0,1-.33-.06,2.11,2.11,0,0,1-.32-.21,2,2,0,0,0-.31-.22,1.84,1.84,0,0,0-.54-.16A3.12,3.12,0,0,0,1328,52a2.74,2.74,0,0,0-1.47.39,2.53,2.53,0,0,0-1,1.06,3.18,3.18,0,0,0-.36,1.51,3.27,3.27,0,0,0,.35,1.52,2.61,2.61,0,0,0,1,1.06,2.69,2.69,0,0,0,1.42.38,3,3,0,0,0,1.34-.25l.31-.21a1.26,1.26,0,0,1,.28-.19.54.54,0,0,1,.29-.07.68.68,0,0,1,.51.2.77.77,0,0,1,.18.52.89.89,0,0,1-.42.67,3.67,3.67,0,0,1-1.14.53,5.34,5.34,0,0,1-1.53.21,4,4,0,0,1-2.14-.57,3.75,3.75,0,0,1-1.43-1.57,4.82,4.82,0,0,1-.51-2.23,4.74,4.74,0,0,1,.53-2.23,3.91,3.91,0,0,1,1.47-1.57,4.1,4.1,0,0,1,2.16-.57A5,5,0,0,1,1329.89,51Z" transform="translate(-1131.68 42.64)"/><path class="cls-15" d="M1332.37,49.51a.63.63,0,0,1-.2-.53v-.26a.62.62,0,0,1,.21-.54,1.12,1.12,0,0,1,.67-.16,1,1,0,0,1,.64.16.65.65,0,0,1,.2.54V49a.64.64,0,0,1-.2.54,1.07,1.07,0,0,1-.66.16A1,1,0,0,1,1332.37,49.51Zm1.21,9.47a.72.72,0,0,1-.55.22.73.73,0,0,1-.54-.22.77.77,0,0,1-.21-.55V51.5a.76.76,0,0,1,.21-.54.73.73,0,0,1,.54-.22.72.72,0,0,1,.55.22.73.73,0,0,1,.22.54v6.93A.74.74,0,0,1,1333.58,59Z" transform="translate(-1131.68 42.64)"/><path class="cls-15" d="M1343.37,57.25a4.14,4.14,0,0,1-1.53,1.55,4.25,4.25,0,0,1-2.14.56,4.18,4.18,0,0,1-2.13-.56,4,4,0,0,1-1.53-1.55,4.51,4.51,0,0,1-.56-2.24,4.62,4.62,0,0,1,.56-2.26,4.05,4.05,0,0,1,1.53-1.57,4.18,4.18,0,0,1,2.13-.56,4.25,4.25,0,0,1,2.14.56,4.19,4.19,0,0,1,1.53,1.57,4.62,4.62,0,0,1,.56,2.26A4.51,4.51,0,0,1,1343.37,57.25Zm-1.32-3.79a2.69,2.69,0,0,0-1-1.05,2.66,2.66,0,0,0-2.74,0,2.66,2.66,0,0,0-1,1.05A3.28,3.28,0,0,0,1337,55a3.19,3.19,0,0,0,.36,1.52,2.66,2.66,0,0,0,1,1,2.72,2.72,0,0,0,2.74,0,2.69,2.69,0,0,0,1-1,3.19,3.19,0,0,0,.36-1.52A3.28,3.28,0,0,0,1342.05,53.46Zm-2.67-3.4a.33.33,0,0,1-.13-.3.63.63,0,0,1,.1-.29l.94-1.58a1.28,1.28,0,0,1,.32-.37.63.63,0,0,1,.42-.14.77.77,0,0,1,.54.18.59.59,0,0,1,.16.49.84.84,0,0,1-.24.56l-1.2,1.31a.87.87,0,0,1-.64.26A.45.45,0,0,1,1339.38,50.06Z" transform="translate(-1131.68 42.64)"/><path class="cls-15" d="M1352.84,54.08v4.35a.74.74,0,0,1-.22.55.72.72,0,0,1-.55.22.73.73,0,0,1-.54-.22.77.77,0,0,1-.21-.55V54.1a2.48,2.48,0,0,0-.43-1.51,1.68,1.68,0,0,0-1.41-.56,2.46,2.46,0,0,0-1.16.28,2.2,2.2,0,0,0-.82.75,1.9,1.9,0,0,0-.29,1v4.33a.78.78,0,0,1-.22.55.72.72,0,0,1-.55.22.71.71,0,0,1-.55-.22.73.73,0,0,1-.2-.55V51.58a.76.76,0,0,1,.21-.54.79.79,0,0,1,1.09,0,.77.77,0,0,1,.22.54v.56a3.46,3.46,0,0,1,1.16-1.08,3.07,3.07,0,0,1,1.59-.44C1351.88,50.62,1352.84,51.78,1352.84,54.08Z" transform="translate(-1131.68 42.64)"/><path class="cls-15" d="M1366.89,47.58a.71.71,0,0,1,.22.55v10.3a.74.74,0,0,1-.22.55.71.71,0,0,1-.55.22.7.7,0,0,1-.54-.22.74.74,0,0,1-.21-.55V58a3.21,3.21,0,0,1-1.13,1,3.12,3.12,0,0,1-1.56.4,3.64,3.64,0,0,1-2-.56,3.91,3.91,0,0,1-1.39-1.56A4.9,4.9,0,0,1,1359,55a5,5,0,0,1,.5-2.25,4,4,0,0,1,1.39-1.56,3.54,3.54,0,0,1,1.93-.56,3.45,3.45,0,0,1,1.57.36,3.24,3.24,0,0,1,1.17.91V48.13a.74.74,0,0,1,.21-.55.7.7,0,0,1,.54-.22A.71.71,0,0,1,1366.89,47.58Zm-2.48,10a2.64,2.64,0,0,0,.92-1.06,3.75,3.75,0,0,0,0-3,2.58,2.58,0,0,0-.92-1.06,2.34,2.34,0,0,0-1.33-.39,2.37,2.37,0,0,0-1.34.39,2.56,2.56,0,0,0-.91,1.06,3.64,3.64,0,0,0,0,3,2.62,2.62,0,0,0,.91,1.06,2.44,2.44,0,0,0,1.34.38A2.41,2.41,0,0,0,1364.41,57.57Z" transform="translate(-1131.68 42.64)"/><path class="cls-15" d="M1376.49,55.18a.79.79,0,0,1-.53.2h-5.63a2.8,2.8,0,0,0,.88,1.87,2.72,2.72,0,0,0,1.9.7,3,3,0,0,0,1.25-.22,3.12,3.12,0,0,0,.85-.58.94.94,0,0,1,.46-.14.62.62,0,0,1,.46.19.64.64,0,0,1,.18.45.82.82,0,0,1-.32.61,3.71,3.71,0,0,1-1.23.78,4.12,4.12,0,0,1-1.57.32,4.69,4.69,0,0,1-2.28-.54,3.83,3.83,0,0,1-1.52-1.52,4.49,4.49,0,0,1-.54-2.21,4.84,4.84,0,0,1,.56-2.36,3.91,3.91,0,0,1,1.45-1.56,3.74,3.74,0,0,1,3.87,0,4.11,4.11,0,0,1,1.44,1.46,4.17,4.17,0,0,1,.56,2.08A.7.7,0,0,1,1376.49,55.18Zm-5.24-2.64a2.49,2.49,0,0,0-.86,1.56h4.72V54a1.94,1.94,0,0,0-.76-1.39,2.37,2.37,0,0,0-1.54-.55A2.48,2.48,0,0,0,1371.25,52.54Z" transform="translate(-1131.68 42.64)"/><path class="cls-15" d="M1390.27,51a.78.78,0,0,1,.22.57V61.63a.8.8,0,0,1-.22.55.72.72,0,0,1-.55.22.71.71,0,0,1-.55-.22.77.77,0,0,1-.2-.55V58a3.31,3.31,0,0,1-1.13,1,3.18,3.18,0,0,1-1.56.4,3.62,3.62,0,0,1-2-.56,3.84,3.84,0,0,1-1.39-1.56,5.26,5.26,0,0,1,0-4.5,4,4,0,0,1,1.38-1.56,3.59,3.59,0,0,1,1.94-.56,3.48,3.48,0,0,1,1.57.36,3.24,3.24,0,0,1,1.17.91v-.32a.82.82,0,0,1,.2-.56.72.72,0,0,1,.55-.23A.76.76,0,0,1,1390.27,51Zm-2.48,6.57a2.62,2.62,0,0,0,.91-1.06,3.64,3.64,0,0,0,0-3,2.56,2.56,0,0,0-.91-1.06,2.48,2.48,0,0,0-2.67,0,2.49,2.49,0,0,0-.91,1.06,3.64,3.64,0,0,0,0,3,2.55,2.55,0,0,0,.91,1.06,2.54,2.54,0,0,0,2.67,0Z" transform="translate(-1131.68 42.64)"/><path class="cls-15" d="M1399.53,51a.73.73,0,0,1,.22.54v4.26a3.2,3.2,0,0,1-3.52,3.5,3.45,3.45,0,0,1-2.58-.92,3.53,3.53,0,0,1-.91-2.58V51.58A.73.73,0,0,1,1393,51a.69.69,0,0,1,.53-.22.75.75,0,0,1,.56.22.76.76,0,0,1,.21.54v4.26c0,1.4.66,2.1,2,2.1a2,2,0,0,0,1.49-.53,2.18,2.18,0,0,0,.51-1.57V51.58a.73.73,0,0,1,.22-.54.69.69,0,0,1,.53-.22A.71.71,0,0,1,1399.53,51Z" transform="translate(-1131.68 42.64)"/><path class="cls-15" d="M1409.14,55.18a.78.78,0,0,1-.53.2H1403a2.81,2.81,0,0,0,.89,1.87,2.72,2.72,0,0,0,1.9.7,2.93,2.93,0,0,0,1.24-.22,3,3,0,0,0,.85-.58,1,1,0,0,1,.47-.14.58.58,0,0,1,.45.19.65.65,0,0,1,.19.45.82.82,0,0,1-.32.61,3.66,3.66,0,0,1-1.24.78,4.07,4.07,0,0,1-1.56.32,4.63,4.63,0,0,1-2.28-.54,3.77,3.77,0,0,1-1.52-1.52,4.49,4.49,0,0,1-.54-2.21,4.84,4.84,0,0,1,.55-2.36,4,4,0,0,1,1.46-1.56,3.72,3.72,0,0,1,3.86,0,4,4,0,0,1,1.44,1.46,4.17,4.17,0,0,1,.56,2.08A.7.7,0,0,1,1409.14,55.18Zm-5.23-2.64a2.4,2.4,0,0,0-.86,1.56h4.72V54a2,2,0,0,0-.76-1.39,2.39,2.39,0,0,0-1.55-.55A2.45,2.45,0,0,0,1403.91,52.54Zm1.23-2.43a.33.33,0,0,1-.13-.3.63.63,0,0,1,.1-.29l.94-1.58a1.16,1.16,0,0,1,.32-.37.64.64,0,0,1,.42-.15.77.77,0,0,1,.54.19.61.61,0,0,1,.16.49.86.86,0,0,1-.24.56l-1.2,1.31a.86.86,0,0,1-.64.25A.43.43,0,0,1,1405.14,50.11Z" transform="translate(-1131.68 42.64)"/><path class="cls-15" d="M1422.69,55.18a.77.77,0,0,1-.52.2h-5.64a2.81,2.81,0,0,0,.89,1.87,2.72,2.72,0,0,0,1.9.7,3,3,0,0,0,1.25-.22,2.93,2.93,0,0,0,.84-.58,1,1,0,0,1,.47-.14.58.58,0,0,1,.45.19.61.61,0,0,1,.19.45.82.82,0,0,1-.32.61A3.66,3.66,0,0,1,1421,59a4.07,4.07,0,0,1-1.56.32,4.63,4.63,0,0,1-2.28-.54,3.77,3.77,0,0,1-1.52-1.52,4.49,4.49,0,0,1-.54-2.21,5,5,0,0,1,.55-2.36,4,4,0,0,1,1.46-1.56,3.72,3.72,0,0,1,3.86,0,4,4,0,0,1,1.44,1.46,4.07,4.07,0,0,1,.56,2.08A.7.7,0,0,1,1422.69,55.18Zm-5.23-2.64a2.44,2.44,0,0,0-.86,1.56h4.72V54a2,2,0,0,0-.76-1.39A2.39,2.39,0,0,0,1419,52,2.47,2.47,0,0,0,1417.46,52.54Z" transform="translate(-1131.68 42.64)"/><path class="cls-15" d="M1424.07,57.46a.64.64,0,0,1,.34-.55.61.61,0,0,1,.36-.11.72.72,0,0,1,.53.24,3.68,3.68,0,0,0,1,.82,3,3,0,0,0,1.32.27,2.34,2.34,0,0,0,1.08-.28,1,1,0,0,0,0-1.69,5.54,5.54,0,0,0-1.39-.53,11,11,0,0,1-1.48-.5,2.62,2.62,0,0,1-1-.77,2.23,2.23,0,0,1,0-2.58,2.62,2.62,0,0,1,1.08-.85,3.67,3.67,0,0,1,1.48-.31,4.32,4.32,0,0,1,1.53.29,2.87,2.87,0,0,1,1.24.88.71.71,0,0,1,.19.47.67.67,0,0,1-.25.49.57.57,0,0,1-.4.15.62.62,0,0,1-.47-.2,2.33,2.33,0,0,0-.82-.59,2.74,2.74,0,0,0-1.08-.21,2,2,0,0,0-1,.25.89.89,0,0,0-.43.84.93.93,0,0,0,.49.83,5.91,5.91,0,0,0,1.45.53,9.56,9.56,0,0,1,1.41.48,2.47,2.47,0,0,1,.94.76,2.11,2.11,0,0,1,.39,1.32,2.07,2.07,0,0,1-.44,1.31,2.72,2.72,0,0,1-1.12.84,3.73,3.73,0,0,1-1.48.3,4.94,4.94,0,0,1-1.87-.35,3.58,3.58,0,0,1-1.45-1.12A.87.87,0,0,1,1424.07,57.46Z" transform="translate(-1131.68 42.64)"/><path class="cls-15" d="M1442.93,51.22a3.87,3.87,0,0,1,1.39,1.55,5.25,5.25,0,0,1,0,4.47,3.85,3.85,0,0,1-1.39,1.54,3.45,3.45,0,0,1-1.93.56,3.37,3.37,0,0,1-1.55-.36,3.75,3.75,0,0,1-1.17-.9v3.55a.75.75,0,0,1-.22.55.79.79,0,0,1-1.09,0,.74.74,0,0,1-.21-.55V51.57a.82.82,0,0,1,.2-.56.77.77,0,0,1,1.1,0,.75.75,0,0,1,.22.56V52a3.16,3.16,0,0,1,1.12-1,3.29,3.29,0,0,1,1.56-.4A3.67,3.67,0,0,1,1442.93,51.22Zm-.81,6.33a2.55,2.55,0,0,0,.92-1,3.55,3.55,0,0,0,0-3,2.68,2.68,0,0,0-.92-1,2.54,2.54,0,0,0-2.67,0,2.54,2.54,0,0,0-.93,1,3.7,3.7,0,0,0,0,3,2.5,2.5,0,0,0,.93,1.05,2.44,2.44,0,0,0,1.34.38A2.38,2.38,0,0,0,1442.12,57.55Z" transform="translate(-1131.68 42.64)"/><path class="cls-15" d="M1453.93,50.92a.74.74,0,0,1,.22.57v6.94a.74.74,0,0,1-.22.55.71.71,0,0,1-.55.22.7.7,0,0,1-.54-.22.74.74,0,0,1-.21-.55V58a3.49,3.49,0,0,1-1.14.95,3.19,3.19,0,0,1-1.55.39,3.7,3.7,0,0,1-2-.56,3.84,3.84,0,0,1-1.39-1.56,5.31,5.31,0,0,1,0-4.5,4,4,0,0,1,1.39-1.56,3.62,3.62,0,0,1,3.51-.2,3.29,3.29,0,0,1,1.16.89v-.38a.78.78,0,0,1,.21-.56.71.71,0,0,1,.54-.23A.75.75,0,0,1,1453.93,50.92Zm-2.48,6.65a2.64,2.64,0,0,0,.92-1.06,3.72,3.72,0,0,0,0-3,2.74,2.74,0,0,0-.92-1.07,2.34,2.34,0,0,0-1.33-.39,2.37,2.37,0,0,0-1.34.39,2.53,2.53,0,0,0-.91,1,3.67,3.67,0,0,0,0,3,2.62,2.62,0,0,0,.91,1.06,2.44,2.44,0,0,0,1.34.38A2.41,2.41,0,0,0,1451.45,57.57Z" transform="translate(-1131.68 42.64)"/><path class="cls-15" d="M1462.23,58a.68.68,0,0,1,.21.51.66.66,0,0,1-.21.5.73.73,0,0,1-.51.2h-5.17A.67.67,0,0,1,1456,59a.71.71,0,0,1-.19-.47,1.39,1.39,0,0,1,.06-.34,1.21,1.21,0,0,1,.17-.31l4.2-5.6h-3.47a.72.72,0,0,1-.73-.72.64.64,0,0,1,.21-.5.69.69,0,0,1,.52-.19h4.91a.63.63,0,0,1,.5.22.76.76,0,0,1,.19.55,2,2,0,0,1-.06.28.81.81,0,0,1-.17.26L1458,57.79h3.76A.73.73,0,0,1,1462.23,58Z" transform="translate(-1131.68 42.64)"/><path class="cls-15" d="M1464.08,59a.83.83,0,0,1-.2-.61v-.31a.8.8,0,0,1,.2-.59.76.76,0,0,1,.58-.21h.16a.78.78,0,0,1,.6.21.84.84,0,0,1,.2.59v.31a.71.71,0,0,1-.8.81h-.16A.8.8,0,0,1,1464.08,59Z" transform="translate(-1131.68 42.64)"/></g></svg>