<?xml version="1.0" encoding="utf-8"?>
<!-- Generator: Adobe Illustrator 19.2.1, SVG Export Plug-In . SVG Version: 6.00 Build 0)  -->
<svg version="1.1" id="Capa_1" xmlns="http://www.w3.org/2000/svg" xmlns:xlink="http://www.w3.org/1999/xlink" x="0px" y="0px"
	 viewBox="0 0 1659.2 1118.6" style="enable-background:new 0 0 1659.2 1118.6;" xml:space="preserve">
<style type="text/css">
	.st0{fill:#FFFFFF;}
	.st1{fill:none;}
	.st2{fill:none;stroke:#4CA1AE;stroke-width:4;stroke-miterlimit:10;}
	.st3{opacity:0.36;}
	.st4{fill:#4CA1AE;}
	.st5{opacity:0.36;fill:#7E6BB0;enable-background:new    ;}
	.st6{opacity:0.21;fill:#7E6BB0;enable-background:new    ;}
	.st7{fill:#4DA2AD;}
	.st8{fill:#FFD784;}
	.st9{fill:#7E6BB0;}
</style>
<g id="Capa_2">
	<rect x="111" y="74.8" class="st0" width="1437.3" height="969"/>
</g>
<g id="Layer_1">
	<title>rompehielos1</title>
	<path class="st1" d="M692.4,437.3"/>
	<path class="st2" d="M802.1,85.2v223.4h-311c-5.7,0-10.4,4.7-10.4,10.4v219.6H120.5c-5.7,0-10.4-4.7-10.4-10.4v-443
		c0-5.7,4.7-10.4,10.4-10.4h671.1C797.4,74.8,802.1,79.5,802.1,85.2z"/>
	<path class="st2" d="M802.1,333.7v194.6c0,5.7-4.7,10.4-10.4,10.4H501.9V344.1c0-5.7,4.7-10.4,10.4-10.4H802.1z"/>
	<path class="st2" d="M801.8,590.6v157H512.4c-5.7,0-10.4-4.7-10.4-10.4v-157h289.4C797.1,580.2,801.8,584.9,801.8,590.6z"/>
	<path class="st2" d="M801.8,772.6v260.8c0,5.7-4.7,10.4-10.4,10.4H120.5c-5.7,0-10.4-4.7-10.4-10.4V590.6c0-5.7,4.7-10.4,10.4-10.4
		h360.2v182c0,5.7,4.7,10.4,10.4,10.4L801.8,772.6L801.8,772.6z"/>
	<path class="st2" d="M1549.1,85.2v443c0,5.7-4.7,10.4-10.4,10.4h-366V319.1c0-5.7-4.7-10.4-10.4-10.4H857.1V85.2
		c0-5.7,4.7-10.4,10.4-10.4h671.1C1544.4,74.8,1549.1,79.5,1549.1,85.2z"/>
	<path class="st2" d="M1151.4,344.1v194.6H867.6c-5.7,0-10.4-4.7-10.4-10.4V333.7h283.9C1146.7,333.7,1151.4,338.4,1151.4,344.1z"/>
	<path class="st2" d="M1549.1,586.5v446.9c0,5.7-4.7,10.4-10.4,10.4H861.9c-5.7,0-10.4-4.7-10.4-10.4V772.6h310.9
		c5.7,0,10.4-4.7,10.4-10.4v-186h366C1544.5,576.2,1549.1,580.8,1549.1,586.5z"/>
	<path class="st2" d="M1151.4,576.1v161c0,5.7-4.7,10.4-10.4,10.4H851.4v-161c0-5.7,4.7-10.4,10.4-10.4H1151.4z"/>
	<g class="st3">
		<path class="st4" d="M607.1,517.8c-0.5,0.4-1.1,0.7-1.8,0.7c-0.7,0-1.4-0.3-1.8-0.7c-0.5-0.4-0.8-1.1-0.7-1.8v-23.8
			c0-0.7,0.3-1.3,0.7-1.8c0.5-0.5,1.2-0.8,1.9-0.7c0.7,0,1.3,0.3,1.7,0.7c0.5,0.4,0.8,1.1,0.7,1.8v23.9
			C607.9,516.7,607.7,517.3,607.1,517.8z"/>
		<path class="st4" d="M631.3,498.5c1,1.7,1.6,4,1.6,7v10.6c0,0.7-0.3,1.3-0.7,1.8c-1,1-2.5,1-3.6,0c-0.4-0.5-0.7-1.1-0.7-1.8v-10.6
			c0.1-1.3-0.3-2.5-1-3.6c-0.8-1-2-1.4-3.3-1.3c-1.4-0.1-2.8,0.4-3.7,1.4c-0.9,1-1.4,2.2-1.4,3.5v10.6c0,0.7-0.3,1.3-0.7,1.8
			c-1,1-2.5,1-3.6,0c-0.4-0.5-0.7-1.1-0.7-1.8v-17c0-0.7,0.3-1.3,0.7-1.8c1-1,2.5-1,3.6,0c0.4,0.5,0.7,1.1,0.7,1.8v0.7
			c0.8-1,1.8-1.9,2.9-2.5c1.2-0.7,2.5-1.1,3.9-1C628.3,496,630.3,496.9,631.3,498.5z"/>
		<path class="st4" d="M658,488.7c0.4,0.5,0.7,1.1,0.7,1.8V516c0,0.7-0.3,1.3-0.7,1.8c-0.4,0.4-1,0.7-1.7,0.7s-1.3-0.3-1.7-0.7
			c-0.4-0.4-0.7-1.1-0.7-1.7c-1.7,1.8-4,2.9-6.5,2.9c-1.8,0-3.7-0.5-5.1-1.5c-1.6-1-2.8-2.4-3.7-4.1c-1-1.8-1.4-3.8-1.3-5.9
			c0-2.1,0.4-4.1,1.3-5.9c0.8-1.7,2.1-3,3.7-4.1c1.5-1,3.3-1.5,5-1.5c1.3,0,2.5,0.3,3.7,0.7c1,0.4,2.1,1,3,1.8v-8.1
			c0-0.7,0.3-1.3,0.7-1.8c0.4-0.4,1-0.7,1.7-0.7C656.9,488,657.5,488.3,658,488.7z M652.2,512.4c1.1-1.4,1.7-3.1,1.7-5
			c0.1-1.8-0.5-3.6-1.7-5c-2.1-2.4-5.7-2.6-8.2-0.5c-0.2,0.2-0.3,0.3-0.5,0.5c-2.3,3-2.3,7,0,9.9c1,1.3,2.7,2,4.3,2
			C649.6,514.4,651.1,513.7,652.2,512.4z"/>
		<path class="st4" d="M664.2,493.3c-0.4-0.4-0.6-1-0.6-1.6V491c-0.1-0.6,0.2-1.2,0.6-1.6c1.3-0.6,2.8-0.6,4,0
			c0.4,0.4,0.6,1,0.6,1.6v0.8c0.1,0.6-0.2,1.2-0.6,1.7c-0.6,0.3-1.3,0.5-2,0.4C665.5,493.8,664.8,493.7,664.2,493.3z M668,517.8
			c-1,1-2.5,1-3.6,0c-0.4-0.5-0.7-1.1-0.7-1.8v-17c0-0.7,0.3-1.3,0.7-1.8c1-1,2.5-1,3.6,0c0.4,0.5,0.7,1.1,0.7,1.8v17
			C668.7,516.7,668.4,517.3,668,517.8L668,517.8z"/>
		<path class="st4" d="M692.4,497.1c0.4,0.4,0.7,1,0.6,1.6c0,0.4-0.2,0.9-0.3,1.2l-7.7,17c-0.2,0.4-0.5,0.9-0.9,1.1
			c-0.3,0.3-0.8,0.4-1.3,0.4h-0.3c-0.4,0-1-0.2-1.3-0.4c-0.4-0.3-0.7-0.7-1-1.1l-7.7-17c-0.2-0.4-0.3-0.9-0.3-1.3
			c0-0.6,0.3-1.1,0.7-1.5c0.4-0.4,1.1-0.7,1.7-0.7c0.5,0,1,0.2,1.5,0.4s0.8,0.7,1,1.1l5.7,13l5.7-13c0.2-0.4,0.4-0.9,0.9-1.2
			c0.3-0.3,0.8-0.4,1.3-0.3C691.3,496.4,692,496.7,692.4,497.1z"/>
		<path class="st4" d="M697.1,493.3c-0.4-0.4-0.6-1-0.6-1.6V491c-0.1-0.6,0.2-1.2,0.6-1.6c1.3-0.6,2.8-0.6,4,0
			c0.4,0.4,0.6,1,0.6,1.6v0.8c0.1,0.6-0.2,1.2-0.6,1.7c-0.6,0.3-1.3,0.5-2,0.4C698.4,493.8,697.7,493.7,697.1,493.3z M700.9,517.8
			c-1,1-2.5,1-3.6,0c-0.4-0.5-0.7-1.1-0.7-1.8v-17c0-0.7,0.3-1.3,0.7-1.8c1-1,2.5-1,3.6,0c0.4,0.5,0.7,1.1,0.7,1.8v17
			C701.6,516.7,701.4,517.3,700.9,517.8z"/>
		<path class="st4" d="M726.3,488.7c0.4,0.5,0.7,1.1,0.7,1.8V516c0,0.7-0.3,1.3-0.7,1.8c-0.4,0.4-1,0.7-1.7,0.7s-1.3-0.3-1.7-0.7
			c-0.4-0.4-0.7-1.1-0.7-1.7c-1.7,1.8-4,2.9-6.5,2.9c-1.8,0-3.7-0.5-5.1-1.5c-1.6-1-2.8-2.4-3.7-4.1c-1-1.8-1.4-3.8-1.3-5.9
			c0-2.1,0.4-4.1,1.3-5.9c0.8-1.7,2.1-3,3.7-4.1c1.5-1,3.3-1.5,5-1.5c1.3,0,2.5,0.3,3.7,0.7c1,0.4,2.1,1,3,1.8v-8.1
			c0-0.7,0.3-1.3,0.7-1.8c0.4-0.4,1-0.7,1.7-0.7C725.3,488,725.9,488.3,726.3,488.7z M720.6,512.4c1.1-1.4,1.7-3.1,1.7-5
			c0.1-1.8-0.5-3.6-1.7-5c-2.1-2.4-5.7-2.6-8.2-0.5c-0.2,0.2-0.3,0.3-0.5,0.5c-2.3,3-2.3,7,0,9.9c1,1.3,2.7,2,4.3,2
			C718,514.4,719.5,513.7,720.6,512.4z"/>
		<path class="st4" d="M751.3,497.1c0.4,0.5,0.7,1.1,0.7,1.8v10.5c0,3-0.8,5.3-2.4,7s-4,2.5-7,2.5c-3,0-5.3-0.9-7-2.5
			c-1.7-1.7-2.4-4-2.4-7V499c0-0.7,0.3-1.3,0.7-1.8c1-1,2.5-1,3.6,0c0.4,0.5,0.7,1.1,0.7,1.8v10.5c-0.1,1.3,0.3,2.7,1.1,3.7
			c0.9,0.9,2.1,1.3,3.3,1.2c1.2,0.1,2.5-0.3,3.4-1.2c0.8-1,1.2-2.4,1.1-3.7V499c0-0.7,0.3-1.3,0.7-1.8
			C748.7,496.2,750.3,496.2,751.3,497.1L751.3,497.1z"/>
		<path class="st4" d="M777,496.7c0.4,0.5,0.7,1.1,0.7,1.8V516c0,0.7-0.3,1.3-0.7,1.8c-0.4,0.4-1,0.7-1.7,0.7
			c-0.7,0-1.3-0.3-1.7-0.7c-0.4-0.4-0.7-1.1-0.7-1.7c-1.7,1.8-4,2.9-6.5,2.9c-1.8,0-3.7-0.5-5.1-1.5c-1.6-1-2.8-2.4-3.7-4.1
			c-1-1.8-1.4-3.8-1.3-5.9c0-2.1,0.4-4.1,1.3-5.9c0.8-1.7,2.1-3,3.7-4.1c1.5-1,3.3-1.5,5-1.5c1.3,0,2.5,0.3,3.7,0.7
			c1,0.4,2.1,1,3,1.8l0,0c0-0.7,0.3-1.3,0.7-1.8c0.4-0.4,1-0.7,1.7-0.7C775.9,496.1,776.5,496.3,777,496.7z M771.3,512.4
			c1.1-1.4,1.7-3.1,1.7-5c0.1-1.8-0.5-3.6-1.7-5c-2.1-2.4-5.7-2.6-8.2-0.5c-0.2,0.2-0.3,0.3-0.5,0.5c-2.3,3-2.3,7,0,9.9
			c1,1.3,2.7,2,4.3,2C768.6,514.4,770.2,513.7,771.3,512.4z"/>
		<path class="st4" d="M787.7,517.8c-0.4,0.5-1.1,0.8-1.8,0.7c-0.7,0-1.3-0.3-1.7-0.7c-0.4-0.5-0.7-1.1-0.7-1.8v-25.5
			c0-1.4,1-2.5,2.4-2.5h0.1c0.7,0,1.3,0.3,1.7,0.7c0.4,0.5,0.7,1.1,0.7,1.8V516C788.4,516.7,788.1,517.3,787.7,517.8z"/>
	</g>
	<g class="st3">
		<path class="st4" d="M877.3,517.8c-0.5,0.4-1.1,0.7-1.8,0.7c-0.7,0-1.4-0.3-1.8-0.7c-0.5-0.4-0.8-1.1-0.7-1.8v-23.8
			c0-0.7,0.3-1.3,0.8-1.8c0.5-0.5,1.2-0.8,1.9-0.7c0.7,0,1.3,0.3,1.7,0.7c0.5,0.4,0.8,1.1,0.7,1.8v23.9
			C878.1,516.7,877.8,517.3,877.3,517.8z"/>
		<path class="st4" d="M901.5,498.5c1,1.7,1.6,4,1.6,7v10.6c0,0.7-0.3,1.3-0.7,1.8c-1,1-2.5,1-3.6,0c-0.4-0.5-0.7-1.1-0.7-1.8v-10.6
			c0.1-1.3-0.3-2.5-1-3.6c-0.8-1-2-1.4-3.3-1.3c-1.4-0.1-2.8,0.4-3.7,1.4c-0.9,1-1.4,2.2-1.4,3.5v10.6c0,0.7-0.3,1.3-0.7,1.8
			c-1,1-2.5,1-3.6,0c-0.4-0.5-0.7-1.1-0.7-1.8v-17c0-0.7,0.3-1.3,0.7-1.8c1-1,2.5-1,3.6,0c0.4,0.5,0.7,1.1,0.7,1.8v0.7
			c0.8-1,1.8-1.9,2.9-2.5c1.2-0.7,2.5-1.1,3.9-1C898.5,496,900.5,496.9,901.5,498.5z"/>
		<path class="st4" d="M928.1,488.7c0.4,0.5,0.7,1.1,0.7,1.8V516c0,0.7-0.3,1.3-0.7,1.8c-0.4,0.4-1,0.7-1.7,0.7s-1.3-0.3-1.7-0.7
			c-0.4-0.4-0.7-1.1-0.7-1.7c-1.7,1.8-4,2.9-6.5,2.9c-1.8,0-3.7-0.5-5.1-1.5c-1.6-1-2.8-2.4-3.7-4.1c-1-1.8-1.4-3.8-1.3-5.9
			c0-2.1,0.4-4.1,1.3-5.9c0.8-1.7,2.1-3,3.7-4.1c1.5-1,3.3-1.5,5-1.5c1.3,0,2.5,0.3,3.7,0.7c1,0.4,2.1,1,3,1.8v-8.1
			c0-0.7,0.3-1.3,0.7-1.8c0.4-0.4,1-0.7,1.7-0.7C927,488,927.7,488.3,928.1,488.7z M922.4,512.4c1.1-1.4,1.7-3.1,1.7-5
			c0.1-1.8-0.5-3.6-1.7-5c-2.1-2.4-5.7-2.6-8.2-0.5c-0.2,0.2-0.3,0.3-0.5,0.5c-2.3,3-2.3,7,0,9.9c1,1.3,2.7,2,4.3,2
			C919.7,514.4,921.3,513.7,922.4,512.4L922.4,512.4z"/>
		<path class="st4" d="M934.4,493.3c-0.4-0.4-0.6-1-0.6-1.6V491c-0.1-0.6,0.2-1.2,0.6-1.6c1.3-0.6,2.8-0.6,4,0
			c0.4,0.4,0.6,1,0.6,1.6v0.8c0.1,0.6-0.2,1.2-0.6,1.7c-0.6,0.3-1.3,0.5-2,0.4C935.7,493.8,935,493.7,934.4,493.3z M938.1,517.8
			c-1,1-2.5,1-3.6,0c-0.4-0.5-0.7-1.1-0.7-1.8v-17c0-0.7,0.3-1.3,0.7-1.8c1-1,2.5-1,3.6,0c0.4,0.5,0.7,1.1,0.7,1.8v17
			C938.9,516.7,938.6,517.3,938.1,517.8L938.1,517.8z"/>
		<path class="st4" d="M962.5,497.1c0.4,0.4,0.7,1,0.7,1.6c0,0.4-0.2,0.9-0.3,1.2l-7.7,17c-0.2,0.4-0.5,0.9-0.9,1.1
			c-0.3,0.3-0.8,0.4-1.2,0.4h-0.3c-0.4,0-1-0.2-1.3-0.4c-0.4-0.3-0.7-0.7-1-1.1l-7.7-17c-0.2-0.4-0.3-0.9-0.3-1.3
			c0-0.6,0.3-1.1,0.7-1.5c0.4-0.4,1.1-0.7,1.7-0.7c0.5,0,1,0.2,1.5,0.4s0.8,0.7,1,1.1l5.7,13l5.7-13c0.2-0.4,0.4-0.9,0.9-1.2
			c0.3-0.3,0.8-0.4,1.3-0.3C961.5,496.4,962.1,496.7,962.5,497.1z"/>
		<path class="st4" d="M967.3,493.3c-0.4-0.4-0.6-1-0.6-1.6V491c-0.1-0.6,0.2-1.2,0.6-1.6c1.3-0.6,2.8-0.6,4,0
			c0.4,0.4,0.6,1,0.6,1.6v0.8c0.1,0.6-0.2,1.2-0.6,1.7c-0.6,0.3-1.3,0.5-2,0.4C968.6,493.8,967.9,493.7,967.3,493.3z M971,517.8
			c-1,1-2.5,1-3.6,0c-0.4-0.5-0.7-1.1-0.7-1.8v-17c0-0.7,0.3-1.3,0.7-1.8c1-1,2.5-1,3.6,0c0.4,0.5,0.7,1.1,0.7,1.8v17
			C971.8,516.7,971.6,517.3,971,517.8L971,517.8z"/>
		<path class="st4" d="M996.5,488.7c0.4,0.5,0.7,1.1,0.7,1.8V516c0,0.7-0.3,1.3-0.7,1.8c-0.4,0.4-1,0.7-1.7,0.7s-1.3-0.3-1.7-0.7
			c-0.4-0.4-0.7-1.1-0.7-1.7c-1.7,1.8-4,2.9-6.5,2.9c-1.8,0-3.7-0.5-5.1-1.5c-1.6-1-2.8-2.4-3.7-4.1c-1-1.8-1.4-3.8-1.3-5.9
			c0-2.1,0.4-4.1,1.3-5.9c0.8-1.7,2.1-3,3.7-4.1c1.5-1,3.3-1.5,5-1.5c1.3,0,2.5,0.3,3.7,0.7c1,0.4,2.1,1,3,1.8v-8.1
			c0-0.7,0.3-1.3,0.7-1.8c0.4-0.4,1-0.7,1.7-0.7C995.4,488,996,488.3,996.5,488.7z M990.8,512.4c1.1-1.4,1.7-3.1,1.7-5
			c0.1-1.8-0.5-3.6-1.7-5c-2.1-2.4-5.7-2.6-8.2-0.5c-0.2,0.2-0.3,0.3-0.5,0.5c-2.3,3-2.3,7,0,9.9c1,1.3,2.7,2,4.3,2
			C988.1,514.4,989.7,513.7,990.8,512.4z"/>
		<path class="st4" d="M1021.4,497.1c0.4,0.5,0.7,1.1,0.7,1.8v10.5c0,3-0.8,5.3-2.4,7s-3.9,2.5-7,2.5s-5.3-0.9-7-2.5
			c-1.7-1.7-2.4-4-2.4-7V499c0-0.7,0.3-1.3,0.7-1.8c1-1,2.5-1,3.6,0c0.4,0.5,0.7,1.1,0.7,1.8v10.5c-0.1,1.3,0.3,2.7,1.1,3.7
			c0.9,0.9,2.1,1.3,3.3,1.2c1.2,0.1,2.5-0.3,3.4-1.2c0.8-1,1.2-2.4,1.1-3.7V499c0-0.7,0.3-1.3,0.7-1.8
			C1018.9,496.2,1020.5,496.2,1021.4,497.1L1021.4,497.1z"/>
		<path class="st4" d="M1047.1,496.7c0.4,0.5,0.7,1.1,0.7,1.8V516c0,0.7-0.3,1.3-0.7,1.8c-0.4,0.4-1,0.7-1.7,0.7s-1.3-0.3-1.7-0.7
			c-0.4-0.4-0.7-1.1-0.7-1.7c-1.7,1.8-4,2.9-6.5,2.9c-1.8,0-3.7-0.5-5.1-1.5c-1.6-1-2.8-2.4-3.7-4.1c-1-1.8-1.4-3.8-1.3-5.9
			c0-2.1,0.4-4.1,1.3-5.9c0.8-1.7,2.1-3,3.7-4.1c1.5-1,3.3-1.5,5-1.5c1.3,0,2.5,0.3,3.7,0.7c1,0.4,2.1,1,3,1.8l0,0
			c0-0.7,0.3-1.3,0.7-1.8c0.4-0.4,1-0.7,1.7-0.7C1046,496.1,1046.7,496.3,1047.1,496.7z M1041.4,512.4c1.1-1.4,1.7-3.1,1.7-5
			c0.1-1.8-0.5-3.6-1.7-5c-2.1-2.4-5.7-2.6-8.2-0.5c-0.2,0.2-0.3,0.3-0.5,0.5c-2.3,3-2.3,7,0,9.9c1,1.3,2.7,2,4.3,2
			C1038.7,514.4,1040.3,513.7,1041.4,512.4z"/>
		<path class="st4" d="M1057.8,517.8c-0.4,0.4-1.1,0.7-1.8,0.7c-0.7,0-1.3-0.3-1.7-0.7c-0.4-0.5-0.7-1.1-0.7-1.8v-25.5
			c0-1.4,1-2.5,2.4-2.5h0.1c0.7,0,1.3,0.3,1.7,0.7c0.4,0.5,0.7,1.1,0.7,1.8V516C1058.6,516.7,1058.3,517.3,1057.8,517.8z"/>
	</g>
	<g class="st3">
		<path class="st4" d="M607.1,735.7c-0.5,0.4-1.1,0.7-1.8,0.7c-0.7,0-1.4-0.3-1.8-0.7c-0.5-0.4-0.8-1.1-0.7-1.8V710
			c0-0.7,0.3-1.3,0.7-1.8c0.5-0.5,1.2-0.8,1.9-0.7c0.7,0,1.3,0.3,1.7,0.7c0.5,0.4,0.8,1.1,0.7,1.8V734
			C607.9,734.6,607.7,735.2,607.1,735.7z"/>
		<path class="st4" d="M631.3,716.4c1,1.7,1.6,4,1.6,7V734c0,0.7-0.3,1.3-0.7,1.8c-1,1-2.5,1-3.6,0c-0.4-0.5-0.7-1.1-0.7-1.8v-10.6
			c0.1-1.3-0.3-2.5-1-3.6c-0.8-1-2-1.4-3.3-1.3c-1.4-0.1-2.8,0.4-3.7,1.4c-0.9,1-1.4,2.2-1.4,3.5V734c0,0.7-0.3,1.3-0.7,1.8
			c-1,1-2.5,1-3.6,0c-0.4-0.5-0.7-1.1-0.7-1.8v-17c0-0.7,0.3-1.3,0.7-1.8c1-1,2.5-1,3.6,0c0.4,0.5,0.7,1.1,0.7,1.8v0.7
			c0.8-1,1.8-1.9,2.9-2.5c1.2-0.7,2.5-1.1,3.9-1C628.3,713.9,630.3,714.7,631.3,716.4z"/>
		<path class="st4" d="M658,706.5c0.4,0.5,0.7,1.1,0.7,1.8v25.5c0,0.7-0.3,1.3-0.7,1.8c-0.4,0.4-1,0.7-1.7,0.7s-1.3-0.3-1.7-0.7
			c-0.4-0.4-0.7-1.1-0.7-1.7c-1.7,1.8-4,2.9-6.5,2.9c-1.8,0-3.7-0.5-5.1-1.5c-1.6-1-2.8-2.4-3.7-4.1c-1-1.8-1.4-3.8-1.3-5.9
			c0-2.1,0.4-4.1,1.3-5.9c0.8-1.7,2.1-3,3.7-4.1c1.5-1,3.3-1.5,5-1.5c1.3,0,2.5,0.3,3.7,0.7c1,0.4,2.1,1,3,1.8v-8.1
			c0-0.7,0.3-1.3,0.7-1.8c0.4-0.4,1-0.7,1.7-0.7C656.9,705.8,657.5,706,658,706.5z M652.2,730.3c1.1-1.4,1.7-3.1,1.7-5
			c0.1-1.8-0.5-3.6-1.7-5c-2.1-2.4-5.7-2.6-8.2-0.5c-0.2,0.2-0.3,0.3-0.5,0.5c-2.3,3-2.3,7,0,9.9c1,1.3,2.7,2,4.3,2
			C649.6,732.3,651.1,731.5,652.2,730.3L652.2,730.3z"/>
		<path class="st4" d="M664.2,711.2c-0.4-0.4-0.6-1-0.6-1.6v-0.8c-0.1-0.6,0.2-1.2,0.6-1.6c1.3-0.6,2.8-0.6,4,0
			c0.4,0.4,0.6,1,0.6,1.6v0.8c0.1,0.6-0.2,1.2-0.6,1.7c-0.6,0.3-1.3,0.5-2,0.4C665.5,711.7,664.8,711.5,664.2,711.2z M668,735.7
			c-1,1-2.5,1-3.6,0c-0.4-0.5-0.7-1.1-0.7-1.8v-17c0-0.7,0.3-1.3,0.7-1.8c1-1,2.5-1,3.6,0c0.4,0.5,0.7,1.1,0.7,1.8v17
			C668.7,734.6,668.4,735.2,668,735.7L668,735.7z"/>
		<path class="st4" d="M692.4,715c0.4,0.4,0.7,1,0.7,1.6c0,0.4-0.2,0.9-0.3,1.2l-7.7,17c-0.2,0.4-0.5,0.9-0.9,1.1s-0.8,0.4-1.3,0.4
			h-0.3c-0.4,0-1-0.2-1.3-0.4c-0.4-0.3-0.7-0.7-1-1.1l-7.7-17c-0.2-0.4-0.3-0.9-0.3-1.3c0-0.6,0.3-1.1,0.7-1.5
			c0.4-0.4,1.1-0.7,1.7-0.7c0.5,0,1,0.2,1.5,0.4c0.4,0.3,0.8,0.7,1,1.1l5.7,13l5.7-13c0.2-0.4,0.4-0.9,0.9-1.2
			c0.3-0.3,0.8-0.4,1.3-0.3C691.4,714.3,692,714.5,692.4,715z"/>
		<path class="st4" d="M697.1,711.2c-0.4-0.4-0.6-1-0.6-1.6v-0.8c-0.1-0.6,0.2-1.2,0.6-1.6c1.3-0.6,2.8-0.6,4,0
			c0.4,0.4,0.6,1,0.6,1.6v0.8c0.1,0.6-0.2,1.2-0.6,1.7c-0.6,0.3-1.3,0.5-2,0.4C698.4,711.7,697.7,711.5,697.1,711.2z M700.9,735.7
			c-1,1-2.5,1-3.6,0c-0.4-0.5-0.7-1.1-0.7-1.8v-17c0-0.7,0.3-1.3,0.7-1.8c1-1,2.5-1,3.6,0c0.4,0.5,0.7,1.1,0.7,1.8v17
			C701.6,734.6,701.4,735.2,700.9,735.7z"/>
		<path class="st4" d="M726.3,706.5c0.4,0.5,0.7,1.1,0.7,1.8v25.5c0,0.7-0.3,1.3-0.7,1.8c-0.4,0.4-1,0.7-1.7,0.7s-1.3-0.3-1.7-0.7
			c-0.4-0.4-0.7-1.1-0.7-1.7c-1.7,1.8-4,2.9-6.5,2.9c-1.8,0-3.7-0.5-5.1-1.5c-1.6-1-2.8-2.4-3.7-4.1c-1-1.8-1.4-3.8-1.3-5.9
			c0-2.1,0.4-4.1,1.3-5.9c0.8-1.7,2.1-3,3.7-4.1c1.5-1,3.3-1.5,5-1.5c1.3,0,2.5,0.3,3.7,0.7c1,0.4,2.1,1,3,1.8v-8.1
			c0-0.7,0.3-1.3,0.7-1.8c0.4-0.4,1-0.7,1.7-0.7C725.3,705.8,725.9,706,726.3,706.5z M720.6,730.3c1.1-1.4,1.7-3.1,1.7-5
			c0.1-1.8-0.5-3.6-1.7-5c-2.1-2.4-5.7-2.6-8.2-0.5c-0.2,0.2-0.3,0.3-0.5,0.5c-2.3,3-2.3,7,0,9.9c1,1.3,2.7,2,4.3,2
			C718,732.3,719.5,731.5,720.6,730.3L720.6,730.3z"/>
		<path class="st4" d="M751.3,715c0.4,0.5,0.7,1.1,0.7,1.8v10.5c0,3-0.8,5.3-2.4,7c-1.7,1.7-4,2.5-7,2.5c-3,0-5.3-0.9-7-2.5
			c-1.7-1.7-2.4-4-2.4-7v-10.5c0-0.7,0.3-1.3,0.7-1.8c1-1,2.5-1,3.6,0c0.4,0.5,0.7,1.1,0.7,1.8v10.5c-0.1,1.3,0.3,2.7,1.1,3.7
			c0.9,0.9,2.1,1.3,3.3,1.2c1.2,0.1,2.5-0.3,3.4-1.2c0.8-1,1.2-2.4,1.1-3.7v-10.5c0-0.7,0.3-1.3,0.7-1.8
			C748.7,714,750.3,714,751.3,715L751.3,715z"/>
		<path class="st4" d="M777,714.6c0.4,0.5,0.7,1.1,0.7,1.8v17.5c0,0.7-0.3,1.3-0.7,1.8c-0.4,0.4-1,0.7-1.7,0.7
			c-0.7,0-1.3-0.3-1.7-0.7c-0.4-0.4-0.7-1.1-0.7-1.7c-1.7,1.8-4,2.9-6.5,2.9c-1.8,0-3.7-0.5-5.1-1.5c-1.6-1-2.8-2.4-3.7-4.1
			c-1-1.8-1.4-3.8-1.3-5.9c0-2.1,0.4-4.1,1.3-5.9c0.8-1.7,2.1-3,3.7-4.1c1.5-1,3.3-1.5,5-1.5c1.3,0,2.5,0.3,3.7,0.7
			c1,0.4,2.1,1,3,1.8l0,0c0-0.7,0.3-1.3,0.7-1.8c0.4-0.4,1-0.7,1.7-0.7C775.9,713.9,776.5,714.1,777,714.6z M771.3,730.3
			c1.1-1.4,1.7-3.1,1.7-5c0.1-1.8-0.5-3.6-1.7-5c-2.1-2.4-5.7-2.6-8.2-0.5c-0.2,0.2-0.3,0.3-0.5,0.5c-2.3,3-2.3,7,0,9.9
			c1,1.3,2.7,2,4.3,2S770.2,731.6,771.3,730.3z"/>
		<path class="st4" d="M787.7,735.7c-0.4,0.5-1.1,0.8-1.8,0.7c-0.7,0-1.3-0.3-1.7-0.7c-0.4-0.5-0.7-1.1-0.7-1.8v-25.5
			c0-1.4,1-2.5,2.4-2.5h0.1c0.7,0,1.3,0.3,1.7,0.7c0.4,0.5,0.7,1.1,0.7,1.8v25.5C788.4,734.6,788.1,735.2,787.7,735.7z"/>
	</g>
	<g class="st3">
		<path class="st4" d="M868.6,735.7c-0.5,0.4-1.1,0.7-1.8,0.7s-1.4-0.3-1.8-0.7c-0.5-0.4-0.8-1.1-0.7-1.8V710c0-0.7,0.3-1.3,0.8-1.8
			c0.5-0.5,1.2-0.8,1.9-0.7c0.7,0,1.3,0.3,1.7,0.7c0.5,0.4,0.8,1.1,0.7,1.8V734C869.4,734.6,869.2,735.2,868.6,735.7z"/>
		<path class="st4" d="M892.8,716.4c1,1.7,1.6,4,1.6,7V734c0,0.7-0.3,1.3-0.7,1.8c-1,1-2.5,1-3.6,0c-0.4-0.5-0.7-1.1-0.7-1.8v-10.6
			c0.1-1.3-0.3-2.5-1-3.6c-0.8-1-2-1.4-3.3-1.3c-1.4-0.1-2.8,0.4-3.7,1.4c-0.9,1-1.4,2.2-1.4,3.5V734c0,0.7-0.3,1.3-0.7,1.8
			c-1,1-2.5,1-3.6,0c-0.4-0.5-0.7-1.1-0.7-1.8v-17c0-0.7,0.3-1.3,0.7-1.8c1-1,2.5-1,3.6,0c0.4,0.5,0.7,1.1,0.7,1.8v0.7
			c0.8-1,1.8-1.9,2.9-2.5c1.2-0.7,2.5-1.1,3.9-1C889.8,713.9,891.8,714.7,892.8,716.4z"/>
		<path class="st4" d="M919.4,706.5c0.4,0.5,0.7,1.1,0.7,1.8v25.5c0,0.7-0.3,1.3-0.7,1.8c-0.4,0.4-1,0.7-1.7,0.7
			c-0.7,0-1.3-0.3-1.7-0.7c-0.4-0.4-0.7-1.1-0.7-1.7c-1.7,1.8-4,2.9-6.5,2.9c-1.8,0-3.7-0.5-5.1-1.5c-1.6-1-2.8-2.4-3.7-4.1
			c-1-1.8-1.4-3.8-1.3-5.9c0-2.1,0.4-4.1,1.3-5.9c0.8-1.7,2.1-3,3.7-4.1c1.5-1,3.3-1.5,5-1.5c1.3,0,2.5,0.3,3.7,0.7
			c1,0.4,2.1,1,3,1.8v-8.1c0-0.7,0.3-1.3,0.7-1.8c0.4-0.4,1-0.7,1.7-0.7C918.3,705.8,919,706,919.4,706.5z M913.7,730.3
			c1.1-1.4,1.7-3.1,1.7-5c0.1-1.8-0.5-3.6-1.7-5c-2.1-2.4-5.7-2.6-8.2-0.5c-0.2,0.2-0.3,0.3-0.5,0.5c-2.3,3-2.3,7,0,9.9
			c1,1.3,2.7,2,4.3,2S912.6,731.5,913.7,730.3L913.7,730.3z"/>
		<path class="st4" d="M925.7,711.2c-0.4-0.4-0.6-1-0.6-1.6v-0.8c-0.1-0.6,0.2-1.2,0.6-1.6c1.3-0.6,2.8-0.6,4,0
			c0.4,0.4,0.6,1,0.6,1.6v0.8c0.1,0.6-0.2,1.2-0.6,1.7c-0.6,0.3-1.3,0.5-2,0.4C927,711.7,926.3,711.5,925.7,711.2z M929.4,735.7
			c-1,1-2.5,1-3.6,0c-0.4-0.5-0.7-1.1-0.7-1.8v-17c0-0.7,0.3-1.3,0.7-1.8c1-1,2.5-1,3.6,0c0.4,0.5,0.7,1.1,0.7,1.8v17
			C930.2,734.5,929.9,735.2,929.4,735.7L929.4,735.7z"/>
		<path class="st4" d="M953.8,715c0.4,0.4,0.7,1,0.7,1.6c0,0.4-0.2,0.9-0.3,1.2l-7.7,17c-0.2,0.4-0.5,0.9-0.9,1.1s-0.8,0.4-1.2,0.4
			H944c-0.4,0-1-0.2-1.3-0.4c-0.4-0.3-0.7-0.7-1-1.1l-7.7-17c-0.2-0.4-0.3-0.9-0.3-1.3c0-0.6,0.3-1.1,0.7-1.5
			c0.4-0.4,1.1-0.7,1.7-0.7c0.5,0,1,0.2,1.5,0.4s0.8,0.7,1,1.1l5.7,13l5.7-13c0.2-0.4,0.4-0.9,0.9-1.2c0.3-0.3,0.8-0.4,1.3-0.3
			C952.8,714.3,953.4,714.6,953.8,715z"/>
		<path class="st4" d="M958.6,711.2c-0.4-0.4-0.6-1-0.6-1.6v-0.8c-0.1-0.6,0.2-1.2,0.6-1.6c1.3-0.6,2.8-0.6,4,0
			c0.4,0.4,0.6,1,0.6,1.6v0.8c0.1,0.6-0.2,1.2-0.6,1.7c-0.6,0.3-1.3,0.5-2,0.4C959.9,711.7,959.2,711.5,958.6,711.2z M962.4,735.7
			c-1,1-2.5,1-3.6,0c-0.4-0.5-0.7-1.1-0.7-1.8v-17c0-0.7,0.3-1.3,0.7-1.8c1-1,2.5-1,3.6,0c0.4,0.5,0.7,1.1,0.7,1.8v17
			C963.1,734.6,962.9,735.2,962.4,735.7L962.4,735.7z"/>
		<path class="st4" d="M987.8,706.5c0.4,0.5,0.7,1.1,0.7,1.8v25.5c0,0.7-0.3,1.3-0.7,1.8c-0.4,0.4-1,0.7-1.7,0.7
			c-0.7,0-1.3-0.3-1.7-0.7c-0.4-0.4-0.7-1.1-0.7-1.7c-1.7,1.8-4,2.9-6.5,2.9c-1.8,0-3.7-0.5-5.1-1.5c-1.6-1-2.8-2.4-3.7-4.1
			c-1-1.8-1.4-3.8-1.3-5.9c0-2.1,0.4-4.1,1.3-5.9c0.8-1.7,2.1-3,3.7-4.1c1.5-1,3.3-1.5,5-1.5c1.3,0,2.5,0.3,3.7,0.7
			c1,0.4,2.1,1,3,1.8v-8.1c0-0.7,0.2-1.3,0.6-1.8c0.4-0.4,1-0.7,1.7-0.7C986.7,705.8,987.3,706,987.8,706.5z M982.1,730.3
			c1.1-1.4,1.7-3.1,1.7-5c0.1-1.8-0.5-3.6-1.7-5c-2.1-2.4-5.7-2.6-8.2-0.5c-0.2,0.2-0.3,0.3-0.5,0.5c-2.3,3-2.3,7,0,9.9
			c1,1.3,2.7,2,4.3,2C979.4,732.3,981,731.5,982.1,730.3L982.1,730.3z"/>
		<path class="st4" d="M1012.7,715c0.4,0.5,0.7,1.1,0.7,1.8v10.5c0,3-0.8,5.3-2.4,7c-1.7,1.7-3.9,2.5-7,2.5c-3,0-5.3-0.9-7-2.5
			s-2.4-4-2.4-7v-10.5c0-0.7,0.3-1.3,0.7-1.8c1-1,2.5-1,3.6,0c0.4,0.5,0.7,1.1,0.7,1.8v10.5c-0.1,1.3,0.3,2.7,1.1,3.7
			c0.9,0.9,2.1,1.3,3.3,1.2c1.2,0.1,2.5-0.3,3.4-1.2c0.8-1,1.2-2.4,1.1-3.7v-10.5c0-0.7,0.3-1.3,0.7-1.8
			C1010.3,714,1011.8,714,1012.7,715L1012.7,715z"/>
		<path class="st4" d="M1038.4,714.6c0.4,0.5,0.7,1.1,0.7,1.8v17.5c0,0.7-0.3,1.3-0.7,1.8c-0.4,0.4-1,0.7-1.7,0.7
			c-0.7,0-1.3-0.3-1.7-0.7c-0.4-0.4-0.7-1.1-0.7-1.7c-1.7,1.8-4,2.9-6.5,2.9c-1.8,0-3.7-0.5-5.1-1.5c-1.6-1-2.8-2.4-3.7-4.1
			c-1-1.8-1.4-3.8-1.3-5.9c0-2.1,0.4-4.1,1.3-5.9c0.8-1.7,2.1-3,3.7-4.1c1.5-1,3.3-1.5,5-1.5c1.3,0,2.5,0.3,3.7,0.7
			c1,0.4,2.1,1,3,1.8l0,0c0-0.7,0.3-1.3,0.7-1.8c0.4-0.4,1-0.7,1.7-0.7C1037.3,713.9,1038,714.1,1038.4,714.6z M1032.7,730.3
			c1.1-1.4,1.7-3.1,1.7-5c0.1-1.8-0.5-3.6-1.7-5c-2.1-2.4-5.7-2.6-8.2-0.5c-0.2,0.2-0.3,0.3-0.5,0.5c-2.3,3-2.3,7,0,9.9
			c1,1.3,2.7,2,4.3,2C1030,732.3,1031.6,731.6,1032.7,730.3z"/>
		<path class="st4" d="M1049.1,735.7c-0.4,0.4-1.1,0.7-1.8,0.7s-1.3-0.3-1.7-0.7c-0.4-0.5-0.7-1.1-0.7-1.8v-25.5
			c0-1.4,1-2.5,2.4-2.5h0.1c0.7,0,1.3,0.3,1.7,0.7c0.4,0.5,0.7,1.1,0.7,1.8v25.5C1049.9,734.6,1049.6,735.2,1049.1,735.7z"/>
	</g>
	<g class="st3">
		<path class="st4" d="M630.7,106.4c1.4,0.7,2.2,1.7,2.2,3c0,0.6-0.2,1.1-0.5,1.6c-0.3,0.4-0.9,0.7-1.4,0.7c-0.3,0-0.7-0.1-1-0.2
			c-0.3-0.2-0.5-0.3-0.8-0.5c-0.3-0.2-0.5-0.3-0.8-0.5c-0.3-0.2-0.8-0.3-1.2-0.3s-0.9-0.2-1.3-0.2c-1.8-0.1-3.6,0.6-4.9,1.9
			c-1.2,1.4-1.8,3.2-1.7,5c-0.1,1.8,0.5,3.6,1.7,5c1.1,1.3,2.8,2,4.5,2c1,0.1,2.1-0.1,3-0.5c0.3-0.1,0.4-0.3,0.7-0.4
			c0.3-0.2,0.5-0.3,0.8-0.5c0.3-0.1,0.6-0.2,0.9-0.2c0.6,0,1.2,0.2,1.7,0.7c0.4,0.4,0.6,1,0.6,1.7c-0.1,0.8-0.5,1.5-1.1,1.8
			c-1,0.6-2,1.1-3,1.4c-1.3,0.3-2.7,0.5-4.1,0.5c-2,0-3.9-0.4-5.6-1.5c-1.7-1-2.9-2.4-3.7-4.1c-0.9-1.8-1.4-3.8-1.3-5.8
			c0-2.1,0.4-4.1,1.4-5.9c0.9-1.7,2.3-3.1,3.8-4.1c1.7-1,3.7-1.5,5.7-1.5C627,105.2,628.9,105.6,630.7,106.4z"/>
		<path class="st4" d="M656.4,122.7c-1,1.7-2.3,3.1-4.1,4.1c-3.6,1.9-7.8,1.9-11.4,0c-1.7-1-3.1-2.3-4.1-4.1c-2-3.7-2-8.2,0-11.8
			c1-1.7,2.3-3.1,4.1-4.1c3.6-1.9,7.8-1.9,11.4,0c1.7,1,3.1,2.3,4.1,4.1C658.3,114.5,658.3,119,656.4,122.7z M652.1,113.1
			c-0.5-1-1.3-1.8-2.3-2.4c-1.9-1.1-4.3-1.1-6.3,0c-1,0.6-1.7,1.5-2.3,2.4c-0.6,1.1-0.9,2.3-0.9,3.7c0,1.2,0.3,2.5,0.9,3.6
			c0.5,1,1.3,1.8,2.3,2.4c1.9,1.1,4.3,1.1,6.3,0c1-0.6,1.7-1.4,2.3-2.4c0.6-1.1,0.9-2.3,0.9-3.6
			C652.9,115.5,652.7,114.3,652.1,113.1L652.1,113.1z"/>
		<path class="st4" d="M666.7,127.1c-0.4,0.5-1.1,0.8-1.8,0.7c-0.7,0-1.3-0.3-1.7-0.7c-0.4-0.5-0.7-1.1-0.7-1.8V99.8
			c0-1.4,1-2.5,2.4-2.5h0.1c0.7,0,1.3,0.3,1.7,0.7c0.4,0.5,0.7,1.1,0.7,1.8v25.5C667.4,125.9,667.1,126.6,666.7,127.1z"/>
		<path class="st4" d="M691.7,117.8c-0.5,0.4-1.1,0.6-1.7,0.6h-13.6c0.3,1.5,1,2.9,2.3,3.8c1.1,0.9,2.5,1.4,4,1.4
			c0.9,0,1.7-0.1,2.6-0.3c0.5-0.2,1-0.3,1.5-0.7l0.8-0.5c0.4-0.3,0.9-0.3,1.4-0.3s1.1,0.2,1.5,0.6c0.4,0.3,0.6,0.9,0.6,1.5
			c-0.1,0.8-0.4,1.6-1.1,2c-1,0.7-2,1.3-3.1,1.7c-3.3,1.1-6.9,0.8-10-0.8c-1.7-1-3-2.3-4-4c-1-1.7-1.4-3.7-1.4-5.7
			c-0.1-2.2,0.4-4.3,1.5-6.3c0.9-1.7,2.3-3.1,3.9-4.1c1.6-1,3.4-1.4,5.2-1.4s3.6,0.5,5.1,1.5c1.6,1,3,2.3,3.8,4
			c1,1.7,1.5,3.6,1.5,5.5C692.5,116.9,692.2,117.4,691.7,117.8z M676.4,114.4h10.8v-0.3c-0.1-1.2-0.8-2.3-1.7-3
			c-1-0.8-2.2-1.2-3.5-1.2C678.9,109.8,677,111.3,676.4,114.4L676.4,114.4z"/>
		<path class="st4" d="M712,106.4c1.4,0.7,2.2,1.7,2.2,3c0,0.6-0.2,1.1-0.5,1.6c-0.3,0.4-0.9,0.7-1.4,0.7c-0.3,0-0.7-0.1-1-0.2
			c-0.3-0.2-0.5-0.3-0.8-0.5c-0.3-0.2-0.5-0.3-0.8-0.5c-0.3-0.2-0.8-0.3-1.2-0.3c-0.4-0.1-0.9-0.2-1.3-0.2c-1.8-0.1-3.6,0.6-4.9,1.9
			c-1.2,1.4-1.8,3.2-1.7,5c-0.1,1.8,0.5,3.6,1.7,5c1.1,1.3,2.8,2,4.5,2c1,0.1,2.1-0.1,3-0.5c0.3-0.1,0.4-0.3,0.7-0.4
			c0.3-0.2,0.5-0.3,0.8-0.5c0.3-0.1,0.6-0.2,0.9-0.2c0.6,0,1.2,0.2,1.7,0.7c0.4,0.4,0.6,1,0.6,1.7c-0.1,0.8-0.5,1.5-1.1,1.8
			c-1,0.6-2,1.1-3,1.4c-1.3,0.3-2.7,0.5-4.1,0.5c-2,0-3.9-0.4-5.6-1.5c-1.7-1-2.9-2.4-3.7-4.1c-0.9-1.8-1.4-3.8-1.3-5.8
			c0-2.1,0.4-4.1,1.4-5.9c0.9-1.7,2.3-3.1,3.8-4.1c1.7-1,3.7-1.5,5.7-1.5C708.2,105.2,710.1,105.6,712,106.4z"/>
		<path class="st4" d="M729.6,123.7c0.8,1,0.6,2.3-0.3,3.1c-0.1,0.1-0.3,0.2-0.3,0.3c-0.8,0.5-1.7,0.8-2.8,0.8
			c-1.6,0.1-3-0.3-4.3-1.1c-1.1-0.7-1.7-2.3-1.7-4.6v-11.5h-1.9c-1.2,0-2.3-1-2.3-2.2v-0.1c0-0.6,0.3-1.2,0.7-1.6
			c0.4-0.4,1-0.7,1.7-0.6h1.9v-2.6c0-1.4,1-2.5,2.4-2.5h0.1c0.7,0,1.3,0.3,1.7,0.7c0.4,0.5,0.7,1.1,0.7,1.8v2.6h3
			c1.2,0,2.3,1,2.3,2.2v0.1c0,0.6-0.3,1.2-0.7,1.6c-0.4,0.4-1,0.7-1.7,0.6h-3v11.2c-0.1,0.4,0.1,1,0.4,1.2s0.8,0.4,1.2,0.3
			c0.3,0,0.6-0.1,0.9-0.2c0.3-0.2,0.6-0.2,1-0.2C729,123.1,729.4,123.3,729.6,123.7z"/>
		<path class="st4" d="M735,102.5c-0.4-0.4-0.6-1-0.6-1.7v-0.8c-0.1-0.6,0.2-1.2,0.6-1.7c1.3-0.6,2.8-0.6,4,0c0.4,0.4,0.6,1,0.6,1.7
			v0.8c0.1,0.6-0.2,1.2-0.6,1.7c-0.6,0.3-1.3,0.5-2,0.4C736.2,103.1,735.5,102.9,735,102.5z M738.8,127.1c-1,1-2.5,1-3.6,0
			c-0.4-0.5-0.7-1.1-0.7-1.8v-17c0-0.7,0.3-1.3,0.7-1.8c1-1,2.5-1,3.6,0c0.4,0.5,0.7,1.1,0.7,1.8v17
			C739.5,125.9,739.3,126.6,738.8,127.1z"/>
		<path class="st4" d="M763.2,106.4c0.4,0.4,0.7,1,0.7,1.6c0,0.4-0.2,0.9-0.3,1.2l-7.7,17c-0.2,0.4-0.5,0.9-0.9,1.1
			s-0.8,0.4-1.3,0.4h-0.3c-0.4,0-1-0.2-1.3-0.4c-0.4-0.3-0.7-0.7-1-1.2l-7.7-17c-0.2-0.4-0.3-0.9-0.3-1.3c0-0.6,0.3-1.1,0.7-1.5
			c0.4-0.4,1.1-0.7,1.7-0.7c0.5,0,1,0.2,1.5,0.4s0.8,0.7,1,1.1l5.7,13l5.7-13c0.2-0.4,0.4-0.9,0.9-1.2c0.3-0.3,0.8-0.4,1.3-0.3
			C762.1,105.7,762.7,105.9,763.2,106.4z"/>
		<path class="st4" d="M787.3,122.7c-1,1.7-2.3,3.1-4.1,4.1c-3.6,1.9-7.8,1.9-11.4,0c-1.7-1-3.1-2.3-4.1-4.1c-2-3.7-2-8.2,0-11.8
			c1-1.7,2.3-3.1,4.1-4.1c3.6-1.9,7.8-1.9,11.4,0c1.7,1,3.1,2.3,4.1,4.1C789.3,114.5,789.3,119,787.3,122.7z M782.9,113.1
			c-0.5-1-1.3-1.8-2.3-2.4c-1.9-1.1-4.3-1.1-6.3,0c-1,0.6-1.7,1.5-2.3,2.4c-0.6,1.1-0.9,2.3-0.9,3.7c0,1.2,0.3,2.5,0.9,3.6
			c0.5,1,1.3,1.8,2.3,2.4c1.9,1.1,4.3,1.1,6.3,0c1-0.6,1.7-1.4,2.3-2.4c0.6-1.1,0.9-2.3,0.9-3.6
			C783.9,115.5,783.5,114.3,782.9,113.1L782.9,113.1z"/>
	</g>
	<g class="st3">
		<path class="st4" d="M896.2,106.4c1.4,0.7,2.2,1.7,2.2,3c0,0.6-0.2,1.1-0.5,1.6c-0.3,0.4-0.9,0.7-1.4,0.7c-0.3,0-0.7-0.1-1-0.2
			c-0.3-0.2-0.5-0.3-0.8-0.5c-0.3-0.2-0.5-0.3-0.8-0.5c-0.3-0.2-0.8-0.3-1.2-0.3s-0.9-0.2-1.3-0.2c-1.8-0.1-3.6,0.6-4.9,1.9
			c-1.2,1.4-1.8,3.2-1.7,5c-0.1,1.8,0.5,3.6,1.7,5c1.1,1.3,2.8,2,4.5,2c1,0.1,2.1-0.1,3-0.5c0.3-0.1,0.4-0.3,0.7-0.4
			c0.3-0.2,0.5-0.3,0.8-0.5c0.3-0.1,0.6-0.2,0.9-0.2c0.6,0,1.2,0.2,1.7,0.7c0.4,0.4,0.6,1,0.6,1.7c-0.1,0.8-0.5,1.5-1.1,1.8
			c-1,0.6-2,1.1-3,1.4c-1.3,0.3-2.7,0.5-4.1,0.5c-2,0-3.9-0.4-5.6-1.5c-1.7-1-2.9-2.4-3.7-4.1c-0.9-1.8-1.4-3.8-1.3-5.8
			c0-2.1,0.4-4.1,1.4-5.9c0.9-1.7,2.3-3.1,3.8-4.1c1.7-1,3.7-1.5,5.7-1.5C892.5,105.2,894.4,105.6,896.2,106.4z"/>
		<path class="st4" d="M921.9,122.7c-1,1.7-2.3,3.1-4.1,4.1c-3.6,1.9-7.8,1.9-11.4,0c-1.7-1-3.1-2.3-4.1-4.1c-2-3.7-2-8.2,0-11.8
			c1-1.7,2.3-3.1,4.1-4.1c3.6-1.9,7.8-1.9,11.4,0c1.7,1,3.1,2.3,4.1,4.1C923.9,114.5,923.9,119,921.9,122.7z M917.6,113.1
			c-0.5-1-1.3-1.8-2.3-2.4c-1.9-1.1-4.3-1.1-6.3,0c-1,0.6-1.7,1.5-2.3,2.4c-0.6,1.1-0.9,2.3-0.9,3.7c0,1.2,0.3,2.5,0.9,3.6
			c0.5,1,1.3,1.8,2.3,2.4c1.9,1.1,4.3,1.1,6.3,0c1-0.6,1.7-1.4,2.3-2.4c0.6-1.1,0.9-2.3,0.9-3.6
			C918.4,115.5,918.2,114.3,917.6,113.1L917.6,113.1z"/>
		<path class="st4" d="M932.2,127.1c-0.4,0.5-1.1,0.8-1.8,0.7c-0.7,0-1.3-0.3-1.7-0.7c-0.4-0.5-0.7-1.1-0.7-1.8V99.8
			c0-1.4,1-2.5,2.4-2.5h0.1c0.7,0,1.3,0.3,1.7,0.7c0.4,0.5,0.7,1.1,0.7,1.8v25.5C932.9,125.9,932.6,126.6,932.2,127.1z"/>
		<path class="st4" d="M957.3,117.8c-0.5,0.4-1.1,0.6-1.7,0.6h-13.6c0.3,1.5,1,2.9,2.3,3.8c1.1,0.9,2.5,1.4,4,1.4
			c0.9,0,1.7-0.1,2.6-0.3c0.5-0.2,1-0.3,1.5-0.7l0.8-0.5c0.4-0.3,1-0.3,1.4-0.3c0.5,0,1.1,0.2,1.5,0.6c0.4,0.3,0.6,0.9,0.6,1.5
			c-0.1,0.8-0.4,1.6-1.1,2c-1,0.7-2,1.3-3.1,1.7c-3.3,1.1-6.9,0.8-10-0.8c-1.7-1-3-2.3-4-4c-1-1.7-1.4-3.7-1.4-5.7
			c-0.1-2.2,0.4-4.3,1.5-6.3c0.9-1.7,2.3-3.1,3.9-4.1c1.6-1,3.4-1.4,5.2-1.4c1.8,0,3.6,0.5,5.1,1.5c1.6,1,3,2.3,3.8,4
			c1,1.7,1.5,3.6,1.5,5.5C958.1,116.9,957.7,117.4,957.3,117.8z M942,114.4h10.8v-0.3c-0.1-1.2-0.8-2.3-1.7-3
			c-1-0.8-2.2-1.2-3.5-1.2C944.4,109.8,942.5,111.3,942,114.4L942,114.4z"/>
		<path class="st4" d="M977.5,106.4c1.4,0.7,2.2,1.7,2.2,3c0,0.6-0.2,1.1-0.5,1.6c-0.3,0.4-0.9,0.7-1.4,0.7c-0.3,0-0.7-0.1-1-0.2
			c-0.3-0.2-0.5-0.3-0.8-0.5c-0.3-0.2-0.5-0.3-0.8-0.5c-0.3-0.2-0.8-0.3-1.2-0.3s-0.9-0.2-1.3-0.2c-1.8-0.1-3.6,0.6-4.9,1.9
			c-1.2,1.4-1.8,3.2-1.7,5c-0.1,1.8,0.5,3.6,1.7,5c1.1,1.3,2.8,2,4.5,2c1,0.1,2.1-0.1,3-0.5c0.3-0.1,0.4-0.3,0.7-0.4
			c0.3-0.2,0.5-0.3,0.8-0.5c0.3-0.1,0.6-0.2,0.9-0.2c0.6,0,1.2,0.2,1.7,0.7c0.4,0.4,0.6,1,0.6,1.7c-0.1,0.8-0.5,1.5-1.1,1.8
			c-1,0.6-2,1.1-3,1.4c-1.3,0.3-2.7,0.5-4.1,0.5c-2,0-3.9-0.4-5.6-1.5c-1.7-1-2.9-2.4-3.7-4.1c-0.9-1.8-1.4-3.8-1.3-5.8
			c0-2.1,0.4-4.1,1.4-5.9c0.9-1.7,2.3-3.1,3.8-4.1c1.7-1,3.7-1.5,5.7-1.5C973.7,105.2,975.7,105.6,977.5,106.4z"/>
		<path class="st4" d="M995.1,123.7c0.8,1,0.6,2.3-0.3,3.1c-0.1,0.1-0.3,0.2-0.3,0.3c-0.8,0.5-1.7,0.8-2.8,0.8
			c-1.6,0.1-3-0.3-4.3-1.1c-1.1-0.7-1.7-2.3-1.7-4.6v-11.5h-1.9c-1.2,0-2.3-1-2.3-2.2v-0.1c0-0.6,0.3-1.2,0.7-1.6
			c0.4-0.4,1-0.7,1.7-0.6h1.9v-2.6c0-1.4,1-2.5,2.4-2.5h0.1c0.7,0,1.3,0.3,1.7,0.7c0.4,0.5,0.7,1.1,0.7,1.8v2.6h3
			c1.2,0,2.3,1,2.3,2.2v0.1c0,0.6-0.3,1.2-0.7,1.6c-0.4,0.4-1,0.7-1.7,0.6h-3v11.2c-0.1,0.4,0.1,1,0.4,1.2c0.3,0.3,0.8,0.4,1.2,0.3
			c0.3,0,0.6-0.1,0.9-0.2c0.3-0.2,0.6-0.2,1-0.2C994.5,123.1,994.9,123.3,995.1,123.7z"/>
		<path class="st4" d="M1000.5,102.5c-0.4-0.4-0.6-1-0.6-1.7v-0.8c-0.1-0.6,0.2-1.2,0.6-1.7c1.3-0.6,2.8-0.6,4,0
			c0.4,0.4,0.6,1,0.6,1.7v0.8c0.1,0.6-0.2,1.2-0.6,1.7c-0.6,0.3-1.3,0.5-2,0.4C1001.8,103.1,1001.1,102.9,1000.5,102.5z
			 M1004.3,127.1c-1,1-2.5,1-3.6,0c-0.4-0.5-0.7-1.1-0.7-1.8v-17c0-0.7,0.3-1.3,0.7-1.8c1-1,2.5-1,3.6,0c0.4,0.5,0.7,1.1,0.7,1.8v17
			C1005,125.9,1004.8,126.6,1004.3,127.1L1004.3,127.1z"/>
		<path class="st4" d="M1028.7,106.4c0.4,0.4,0.7,1,0.7,1.6c0,0.4-0.2,0.9-0.3,1.2l-7.7,17c-0.2,0.4-0.5,0.9-0.9,1.1
			s-0.8,0.4-1.2,0.4h-0.3c-0.4,0-1-0.2-1.3-0.4c-0.4-0.3-0.7-0.7-1-1.2l-7.7-17c-0.2-0.4-0.3-0.9-0.3-1.3c0-0.6,0.3-1.1,0.7-1.5
			c0.4-0.4,1.1-0.7,1.7-0.7c0.5,0,1,0.2,1.5,0.4c0.4,0.3,0.8,0.7,1,1.1l5.7,13l5.7-13c0.2-0.4,0.4-0.9,0.9-1.2
			c0.3-0.3,0.8-0.4,1.3-0.3C1027.6,105.7,1028.2,105.9,1028.7,106.4z"/>
		<path class="st4" d="M1052.8,122.7c-1,1.7-2.3,3.1-4.1,4.1c-3.6,1.9-7.8,1.9-11.4,0c-1.7-1-3.1-2.3-4.1-4.1c-2-3.7-2-8.2,0-11.8
			c1-1.7,2.3-3.1,4.1-4.1c3.6-1.9,7.8-1.9,11.4,0c1.7,1,3.1,2.3,4.1,4.1C1054.8,114.5,1054.8,119,1052.8,122.7z M1048.4,113.1
			c-0.5-1-1.3-1.8-2.3-2.4c-1.9-1.1-4.3-1.1-6.3,0c-1,0.6-1.7,1.5-2.3,2.4c-0.6,1.1-0.9,2.3-0.9,3.7c0,1.2,0.3,2.5,0.9,3.6
			c0.5,1,1.3,1.8,2.3,2.4c1.9,1.1,4.3,1.1,6.3,0c1-0.6,1.7-1.4,2.3-2.4c0.6-1.1,0.9-2.3,0.9-3.6
			C1049.4,115.5,1049,114.3,1048.4,113.1L1048.4,113.1z"/>
	</g>
	<g class="st3">
		<path class="st4" d="M630.7,1006.1c1.4,0.7,2.2,1.7,2.2,2.9c0,0.6-0.2,1.1-0.5,1.6c-0.3,0.4-0.9,0.7-1.4,0.7c-0.3,0-0.7-0.1-1-0.2
			c-0.3-0.2-0.5-0.3-0.8-0.5c-0.3-0.2-0.5-0.3-0.8-0.5c-0.3-0.2-0.8-0.3-1.2-0.3s-0.9-0.2-1.3-0.2c-1.8-0.1-3.6,0.6-4.9,1.9
			c-1.2,1.4-1.8,3.2-1.7,5c-0.1,1.8,0.5,3.6,1.7,5c1.1,1.3,2.8,2,4.5,2c1,0.1,2.1-0.1,3-0.5c0.3-0.1,0.4-0.3,0.7-0.4
			s0.5-0.3,0.8-0.5c0.3-0.1,0.6-0.2,0.9-0.2c0.6,0,1.2,0.2,1.7,0.7c0.4,0.4,0.6,1,0.6,1.7c-0.1,0.8-0.5,1.5-1.1,1.8
			c-1,0.6-2,1.1-3,1.4c-1.3,0.3-2.7,0.5-4.1,0.5c-2,0-3.9-0.4-5.6-1.5c-1.7-1-2.9-2.4-3.7-4.1c-0.9-1.8-1.4-3.8-1.3-5.8
			c0-2.1,0.4-4.1,1.4-5.9c0.9-1.7,2.3-3.1,3.8-4.1c1.7-1,3.7-1.5,5.7-1.5C627,1004.9,628.9,1005.3,630.7,1006.1z"/>
		<path class="st4" d="M656.4,1022.4c-1,1.7-2.3,3.1-4.1,4.1c-3.6,1.9-7.8,1.9-11.4,0c-1.7-1-3.1-2.3-4.1-4.1c-2-3.7-2-8.2,0-11.8
			c1-1.7,2.3-3.1,4.1-4.1c3.6-1.9,7.8-1.9,11.4,0c1.7,1,3.1,2.3,4.1,4.1C658.3,1014.2,658.3,1018.7,656.4,1022.4z M652.1,1012.8
			c-0.5-1-1.3-1.8-2.3-2.4c-1.9-1.1-4.3-1.1-6.3,0c-1,0.6-1.7,1.5-2.3,2.4c-0.6,1.1-0.9,2.3-0.9,3.7c0,1.2,0.3,2.5,0.9,3.6
			c0.5,1,1.3,1.8,2.3,2.4c1.9,1.1,4.3,1.1,6.3,0c1-0.6,1.7-1.4,2.3-2.4c0.6-1.1,0.9-2.3,0.9-3.6
			C652.9,1015.2,652.7,1014,652.1,1012.8L652.1,1012.8z"/>
		<path class="st4" d="M666.7,1026.8c-0.4,0.5-1.1,0.8-1.8,0.7c-0.7,0-1.3-0.3-1.7-0.7c-0.4-0.5-0.7-1.1-0.7-1.8v-25.5
			c0-1.4,1-2.5,2.4-2.5h0.1c0.7,0,1.3,0.3,1.7,0.7c0.4,0.5,0.7,1.1,0.7,1.8v25.5C667.4,1025.6,667.1,1026.3,666.7,1026.8z"/>
		<path class="st4" d="M691.7,1017.5c-0.5,0.4-1.1,0.6-1.7,0.6h-13.6c0.3,1.5,1,2.9,2.3,3.8c1.1,0.9,2.5,1.4,4,1.4
			c0.9,0,1.7-0.1,2.6-0.3c0.5-0.2,1-0.3,1.5-0.7l0.8-0.5c0.4-0.3,0.9-0.3,1.4-0.3s1.1,0.2,1.5,0.6c0.4,0.3,0.6,0.9,0.6,1.5
			c-0.1,0.8-0.4,1.6-1.1,2c-1,0.7-2,1.2-3.1,1.6c-3.3,1.1-6.9,0.8-10-0.8c-1.7-1-3-2.3-4-4c-1-1.7-1.4-3.7-1.4-5.7
			c-0.1-2.2,0.4-4.3,1.5-6.3c0.9-1.7,2.3-3.1,3.9-4.1c1.6-1,3.4-1.4,5.2-1.4s3.6,0.5,5.1,1.5c1.6,1,3,2.3,3.8,4
			c1,1.7,1.5,3.6,1.5,5.5C692.5,1016.6,692.2,1017.2,691.7,1017.5z M676.4,1014.1h10.8v-0.3c-0.1-1.2-0.8-2.3-1.7-3
			c-1-0.8-2.2-1.2-3.5-1.2C678.9,1009.5,677,1011,676.4,1014.1L676.4,1014.1z"/>
		<path class="st4" d="M712,1006.1c1.4,0.7,2.2,1.7,2.2,2.9c0,0.6-0.2,1.1-0.5,1.6c-0.3,0.4-0.9,0.7-1.4,0.7c-0.3,0-0.7-0.1-1-0.2
			c-0.3-0.2-0.5-0.3-0.8-0.5c-0.3-0.2-0.5-0.3-0.8-0.5c-0.3-0.2-0.8-0.3-1.2-0.3c-0.4-0.1-0.9-0.2-1.3-0.2c-1.8-0.1-3.6,0.6-4.9,1.9
			c-1.2,1.4-1.8,3.2-1.7,5c-0.1,1.8,0.5,3.6,1.7,5c1.1,1.3,2.8,2,4.5,2c1,0.1,2.1-0.1,3-0.5c0.3-0.1,0.4-0.3,0.7-0.4
			s0.5-0.3,0.8-0.5c0.3-0.1,0.6-0.2,0.9-0.2c0.6,0,1.2,0.2,1.7,0.7c0.4,0.4,0.6,1,0.6,1.7c-0.1,0.8-0.5,1.5-1.1,1.8
			c-1,0.6-2,1.1-3,1.4c-1.3,0.3-2.7,0.5-4.1,0.5c-2,0-3.9-0.4-5.6-1.5c-1.7-1-2.9-2.4-3.7-4.1c-0.9-1.8-1.4-3.8-1.3-5.8
			c0-2.1,0.4-4.1,1.4-5.9c0.9-1.7,2.3-3.1,3.8-4.1c1.7-1,3.7-1.5,5.7-1.5C708.2,1004.9,710.1,1005.3,712,1006.1z"/>
		<path class="st4" d="M729.6,1023.4c0.8,1,0.6,2.3-0.3,3.1c-0.1,0.1-0.3,0.2-0.3,0.3c-0.8,0.5-1.7,0.8-2.8,0.8
			c-1.6,0.1-3-0.3-4.3-1.1c-1.1-0.7-1.7-2.3-1.7-4.6v-11.4h-1.9c-1.2,0-2.3-1-2.3-2.2v-0.1c0-0.6,0.3-1.2,0.7-1.6
			c0.4-0.4,1-0.7,1.7-0.6h1.9v-2.6c0-1.4,1-2.5,2.4-2.5h0.1c0.7,0,1.3,0.3,1.7,0.7c0.4,0.5,0.7,1.1,0.7,1.8v2.6h3
			c1.2,0,2.3,1,2.3,2.2v0.1c0,0.6-0.3,1.2-0.7,1.6c-0.4,0.4-1,0.7-1.7,0.6h-3v11.2c-0.1,0.4,0.1,1,0.4,1.2c0.3,0.3,0.8,0.4,1.2,0.3
			c0.3,0,0.6-0.1,0.9-0.2c0.3-0.2,0.6-0.2,1-0.2C729,1022.8,729.4,1023,729.6,1023.4z"/>
		<path class="st4" d="M735,1002.2c-0.4-0.4-0.6-1-0.6-1.6v-0.8c-0.1-0.6,0.2-1.2,0.6-1.6c1.3-0.6,2.8-0.6,4,0
			c0.4,0.4,0.6,1,0.6,1.6v0.8c0.1,0.6-0.2,1.2-0.6,1.7c-0.6,0.3-1.3,0.5-2,0.4C736.2,1002.8,735.5,1002.7,735,1002.2z M738.8,1026.8
			c-1,1-2.5,1-3.6,0c-0.4-0.5-0.7-1.1-0.7-1.8v-17c0-0.7,0.3-1.3,0.7-1.8c1-1,2.5-1,3.6,0c0.4,0.5,0.7,1.1,0.7,1.8v17
			C739.5,1025.6,739.3,1026.3,738.8,1026.8z"/>
		<path class="st4" d="M763.2,1006.1c0.4,0.4,0.7,1,0.7,1.6c0,0.4-0.2,0.9-0.3,1.2l-7.7,17c-0.2,0.4-0.5,0.9-0.9,1.1
			c-0.3,0.3-0.8,0.4-1.3,0.4h-0.3c-0.4,0-1-0.2-1.3-0.4c-0.4-0.3-0.7-0.7-1-1.1l-7.7-17c-0.2-0.4-0.3-0.9-0.3-1.3
			c0-0.6,0.3-1.1,0.7-1.5c0.4-0.4,1.1-0.7,1.7-0.7c0.5,0,1,0.2,1.5,0.4c0.4,0.3,0.8,0.7,1,1.1l5.7,13l5.7-13
			c0.2-0.4,0.4-0.9,0.9-1.2c0.3-0.3,0.8-0.4,1.3-0.3C762.1,1005.4,762.7,1005.6,763.2,1006.1z"/>
		<path class="st4" d="M787.3,1022.4c-1,1.7-2.3,3.1-4.1,4.1c-3.6,1.9-7.8,1.9-11.4,0c-1.7-1-3.1-2.3-4.1-4.1c-2-3.7-2-8.2,0-11.8
			c1-1.7,2.3-3.1,4.1-4.1c3.6-1.9,7.8-1.9,11.4,0c1.7,1,3.1,2.3,4.1,4.1C789.3,1014.2,789.3,1018.7,787.3,1022.4z M782.9,1012.8
			c-0.5-1-1.3-1.8-2.3-2.4c-1.9-1.1-4.3-1.1-6.3,0c-1,0.6-1.7,1.5-2.3,2.4c-0.6,1.1-0.9,2.3-0.9,3.7c0,1.2,0.3,2.5,0.9,3.6
			c0.5,1,1.3,1.8,2.3,2.4c1.9,1.1,4.3,1.1,6.3,0c1-0.6,1.7-1.4,2.3-2.4c0.6-1.1,0.9-2.3,0.9-3.6
			C783.9,1015.2,783.5,1014,782.9,1012.8L782.9,1012.8z"/>
	</g>
	<g class="st3">
		<path class="st4" d="M896.2,1006.1c1.4,0.7,2.2,1.7,2.2,2.9c0,0.6-0.2,1.1-0.5,1.6c-0.3,0.4-0.9,0.7-1.4,0.7c-0.3,0-0.7-0.1-1-0.2
			c-0.3-0.2-0.5-0.3-0.8-0.5c-0.3-0.2-0.5-0.3-0.8-0.5c-0.3-0.2-0.8-0.3-1.2-0.3s-0.9-0.2-1.3-0.2c-1.8-0.1-3.6,0.6-4.9,1.9
			c-1.2,1.4-1.8,3.2-1.7,5c-0.1,1.8,0.5,3.6,1.7,5c1.1,1.3,2.8,2,4.5,2c1,0.1,2.1-0.1,3-0.5c0.3-0.1,0.4-0.3,0.7-0.4
			s0.5-0.3,0.8-0.5c0.3-0.1,0.6-0.2,0.9-0.2c0.6,0,1.2,0.2,1.7,0.7c0.4,0.4,0.6,1,0.6,1.7c-0.1,0.8-0.5,1.5-1.1,1.8
			c-1,0.6-2,1.1-3,1.4c-1.3,0.3-2.7,0.5-4.1,0.5c-2,0-3.9-0.4-5.6-1.5c-1.7-1-2.9-2.4-3.7-4.1c-0.9-1.8-1.4-3.8-1.3-5.8
			c0-2.1,0.4-4.1,1.4-5.9c0.9-1.7,2.3-3.1,3.8-4.1c1.7-1,3.7-1.5,5.7-1.5C892.5,1004.9,894.4,1005.3,896.2,1006.1z"/>
		<path class="st4" d="M921.9,1022.4c-1,1.7-2.3,3.1-4.1,4.1c-3.6,1.9-7.8,1.9-11.4,0c-1.7-1-3.1-2.3-4.1-4.1c-2-3.7-2-8.2,0-11.8
			c1-1.7,2.3-3.1,4.1-4.1c3.6-1.9,7.8-1.9,11.4,0c1.7,1,3.1,2.3,4.1,4.1C923.9,1014.2,923.9,1018.7,921.9,1022.4z M917.6,1012.8
			c-0.5-1-1.3-1.8-2.3-2.4c-1.9-1.1-4.3-1.1-6.3,0c-1,0.6-1.7,1.5-2.3,2.4c-0.6,1.1-0.9,2.3-0.9,3.7c0,1.2,0.3,2.5,0.9,3.6
			c0.5,1,1.3,1.8,2.3,2.4c1.9,1.1,4.3,1.1,6.3,0c1-0.6,1.7-1.4,2.3-2.4c0.6-1.1,0.9-2.3,0.9-3.6
			C918.4,1015.2,918.2,1014,917.6,1012.8L917.6,1012.8z"/>
		<path class="st4" d="M932.2,1026.8c-0.4,0.5-1.1,0.8-1.8,0.7c-0.7,0-1.3-0.3-1.7-0.7c-0.4-0.5-0.7-1.1-0.7-1.8v-25.5
			c0-1.4,1-2.5,2.4-2.5h0.1c0.7,0,1.3,0.3,1.7,0.7c0.4,0.5,0.7,1.1,0.7,1.8v25.5C932.9,1025.6,932.6,1026.3,932.2,1026.8z"/>
		<path class="st4" d="M957.3,1017.5c-0.5,0.4-1.1,0.6-1.7,0.6h-13.6c0.3,1.5,1,2.9,2.3,3.8c1.1,0.9,2.5,1.4,4,1.4
			c0.9,0,1.7-0.1,2.6-0.3c0.5-0.2,1-0.3,1.5-0.7l0.8-0.5c0.4-0.3,1-0.3,1.4-0.3c0.5,0,1.1,0.2,1.5,0.6c0.4,0.3,0.6,0.9,0.6,1.5
			c-0.1,0.8-0.4,1.6-1.1,2c-1,0.7-2,1.2-3.1,1.6c-3.3,1.1-6.9,0.8-10-0.8c-1.7-1-3-2.3-4-4c-1-1.7-1.4-3.7-1.4-5.7
			c-0.1-2.2,0.4-4.3,1.5-6.3c0.9-1.7,2.3-3.1,3.9-4.1c1.6-1,3.4-1.4,5.2-1.4c1.8,0,3.6,0.5,5.1,1.5c1.6,1,3,2.3,3.8,4
			c1,1.7,1.5,3.6,1.5,5.5C958.1,1016.6,957.7,1017.2,957.3,1017.5z M942,1014.1h10.8v-0.3c-0.1-1.2-0.8-2.3-1.7-3
			c-1-0.8-2.2-1.2-3.5-1.2C944.4,1009.5,942.5,1011,942,1014.1L942,1014.1z"/>
		<path class="st4" d="M977.5,1006.1c1.4,0.7,2.2,1.7,2.2,2.9c0,0.6-0.2,1.1-0.5,1.6c-0.3,0.4-0.9,0.7-1.4,0.7c-0.3,0-0.7-0.1-1-0.2
			c-0.3-0.2-0.5-0.3-0.8-0.5c-0.3-0.2-0.5-0.3-0.8-0.5c-0.3-0.2-0.8-0.3-1.2-0.3s-0.9-0.2-1.3-0.2c-1.8-0.1-3.6,0.6-4.9,1.9
			c-1.2,1.4-1.8,3.2-1.7,5c-0.1,1.8,0.5,3.6,1.7,5c1.1,1.3,2.8,2,4.5,2c1,0.1,2.1-0.1,3-0.5c0.3-0.1,0.4-0.3,0.7-0.4
			s0.5-0.3,0.8-0.5c0.3-0.1,0.6-0.2,0.9-0.2c0.6,0,1.2,0.2,1.7,0.7c0.4,0.4,0.6,1,0.6,1.7c-0.1,0.8-0.5,1.5-1.1,1.8
			c-1,0.6-2,1.1-3,1.4c-1.3,0.3-2.7,0.5-4.1,0.5c-1.9,0-3.9-0.4-5.6-1.5c-1.7-1-2.9-2.4-3.7-4.1c-0.9-1.8-1.4-3.8-1.3-5.8
			c0-2.1,0.4-4.1,1.4-5.9c0.9-1.7,2.3-3.1,3.8-4.1c1.7-1,3.7-1.5,5.7-1.5C973.7,1004.9,975.7,1005.3,977.5,1006.1z"/>
		<path class="st4" d="M995.1,1023.4c0.8,1,0.6,2.3-0.3,3.1c-0.1,0.1-0.3,0.2-0.3,0.3c-0.8,0.5-1.7,0.8-2.8,0.8
			c-1.6,0.1-3-0.3-4.3-1.1c-1.1-0.7-1.7-2.3-1.7-4.6v-11.4h-1.9c-1.2,0-2.3-1-2.3-2.2v-0.1c0-0.6,0.3-1.2,0.7-1.6
			c0.4-0.4,1-0.7,1.7-0.6h1.9v-2.6c0-1.4,1-2.5,2.4-2.5h0.1c0.7,0,1.3,0.3,1.7,0.7c0.4,0.5,0.7,1.1,0.7,1.8v2.6h3
			c1.2,0,2.3,1,2.3,2.2v0.1c0,0.6-0.3,1.2-0.7,1.6c-0.4,0.4-1,0.7-1.7,0.6h-3v11.2c-0.1,0.4,0.1,1,0.4,1.2c0.3,0.3,0.8,0.4,1.2,0.3
			c0.3,0,0.6-0.1,0.9-0.2c0.3-0.2,0.6-0.2,1-0.2C994.5,1022.8,994.9,1023,995.1,1023.4z"/>
		<path class="st4" d="M1000.5,1002.2c-0.4-0.4-0.6-1-0.6-1.6v-0.8c-0.1-0.6,0.2-1.2,0.6-1.6c1.3-0.6,2.8-0.6,4,0
			c0.4,0.4,0.6,1,0.6,1.6v0.8c0.1,0.6-0.2,1.2-0.6,1.7c-0.6,0.3-1.3,0.5-2,0.4C1001.8,1002.8,1001.1,1002.7,1000.5,1002.2z
			 M1004.3,1026.8c-1,1-2.5,1-3.6,0c-0.4-0.5-0.7-1.1-0.7-1.8v-17c0-0.7,0.3-1.3,0.7-1.8c1-1,2.5-1,3.6,0c0.4,0.5,0.7,1.1,0.7,1.8
			v17C1005,1025.6,1004.8,1026.3,1004.3,1026.8L1004.3,1026.8z"/>
		<path class="st4" d="M1028.7,1006.1c0.4,0.4,0.7,1,0.7,1.6c0,0.4-0.2,0.9-0.3,1.2l-7.7,17c-0.2,0.4-0.5,0.9-0.9,1.1
			c-0.3,0.3-0.8,0.4-1.2,0.4h-0.3c-0.4,0-1-0.2-1.3-0.4c-0.4-0.3-0.7-0.7-1-1.1l-7.7-17c-0.2-0.4-0.3-0.9-0.3-1.3
			c0-0.6,0.3-1.1,0.7-1.5c0.4-0.4,1.1-0.7,1.7-0.7c0.5,0,1,0.2,1.5,0.4c0.4,0.3,0.8,0.7,1,1.1l5.7,13l5.7-13
			c0.2-0.4,0.4-0.9,0.9-1.2c0.3-0.3,0.8-0.4,1.3-0.3C1027.6,1005.4,1028.2,1005.6,1028.7,1006.1z"/>
		<path class="st4" d="M1052.8,1022.4c-1,1.7-2.3,3.1-4.1,4.1c-3.6,1.9-7.8,1.9-11.4,0c-1.7-1-3.1-2.3-4.1-4.1c-2-3.7-2-8.2,0-11.8
			c1-1.7,2.3-3.1,4.1-4.1c3.6-1.9,7.8-1.9,11.4,0c1.7,1,3.1,2.3,4.1,4.1C1054.8,1014.2,1054.8,1018.7,1052.8,1022.4z M1048.4,1012.8
			c-0.5-1-1.3-1.8-2.3-2.4c-1.9-1.1-4.3-1.1-6.3,0c-1,0.6-1.7,1.5-2.3,2.4c-0.6,1.1-0.9,2.3-0.9,3.7c0,1.2,0.3,2.5,0.9,3.6
			c0.5,1,1.3,1.8,2.3,2.4c1.9,1.1,4.3,1.1,6.3,0c1-0.6,1.7-1.4,2.3-2.4c0.6-1.1,0.9-2.3,0.9-3.6
			C1049.4,1015.2,1049,1014,1048.4,1012.8L1048.4,1012.8z"/>
	</g>
	<circle class="st5" cx="158" cy="123.1" r="30.3"/>
	<circle class="st6" cx="164.3" cy="120.8" r="30.3"/>
	<path class="st0" d="M158.2,105.8c0.5,0.5,0.9,1.3,0.8,2.1v27.4c0,0.8-0.3,1.6-0.9,2.1c-0.6,0.6-1.4,0.9-2.3,0.9
		c-0.8,0-1.6-0.3-2.2-0.9c-0.6-0.5-0.9-1.3-0.9-2.1v-22.5l-3,1.7c-0.4,0.3-1,0.4-1.6,0.4c-0.8,0-1.5-0.3-2-0.9
		c-0.5-0.5-0.9-1.2-0.9-2c0-0.5,0.2-1,0.4-1.4c0.3-0.4,0.6-0.8,1-1l7.1-4.3c0.6-0.3,1.3-0.4,2.1-0.4
		C157,104.9,157.7,105.1,158.2,105.8z"/>
	<path class="st0" d="M166,137.3c-0.5-0.6-0.8-1.3-0.8-2.1v-0.8c-0.2-1.4,1-2.7,2.3-2.9c0.2,0,0.3,0,0.5,0h0.6
		c1.4-0.2,2.7,1,2.9,2.3c0,0.2,0,0.3,0,0.5v0.8c0.2,1.4-1,2.7-2.3,2.9c-0.2,0-0.3,0-0.5,0h-0.6C167.4,138.1,166.6,137.8,166,137.3z"
		/>
	<circle class="st5" cx="158" cy="999.5" r="30.3"/>
	<circle class="st6" cx="164.3" cy="997.2" r="30.3"/>
	<path class="st0" d="M163.9,994.9c1.3,1,2.4,2.3,3.1,3.7c0.7,1.6,1.1,3.2,1.1,5c0.1,2.2-0.5,4.3-1.6,6.1c-1,1.7-2.6,3.1-4.4,4
		c-2.1,1-4.3,1.4-6.6,1.4c-1.1,0-2.3-0.2-3.4-0.4c-1-0.3-2.1-0.6-3-1.1c-1-0.4-1.7-1.5-1.7-2.5c0-0.8,0.3-1.5,0.8-2.1
		c0.4-0.6,1.2-1,1.9-1s1.5,0.3,2.1,0.7c1.3,1,2.9,1.6,4.5,1.6c2.1,0,3.9-1.1,5-2.9c0.6-1,0.9-2.1,0.9-3.2c0.1-1.5-0.4-3-1.6-4
		c-1-1-2.3-1.5-3.7-1.4c-0.5,0-1.1,0.1-1.7,0.2l-0.9,0.3c-0.7,0.3-1.3,0.3-2.1,0.3c-0.6,0-1.2-0.3-1.7-0.7c-0.4-0.5-0.6-1.1-0.6-1.8
		c0-0.4,0.1-0.8,0.3-1.2c0.2-0.4,0.5-0.8,0.8-1.1l7.3-8h-9.4c-1.5,0-2.6-1.1-2.7-2.5v-0.1c0-0.7,0.3-1.4,0.8-1.8
		c0.5-0.5,1.2-0.8,1.9-0.7h14.5c0.8-0.1,1.6,0.3,2.2,0.8c0.5,0.5,0.8,1.3,0.8,2.1c-0.1,0.9-0.4,1.7-1.1,2.3l-6.3,7
		C161,993.5,162.6,994,163.9,994.9z"/>
	<path class="st0" d="M173.6,1013.7c-0.5-0.6-0.8-1.3-0.8-2.1v-0.8c-0.2-1.4,1-2.7,2.3-2.9c0.2,0,0.3,0,0.5,0h0.6
		c1.4-0.2,2.7,1,2.9,2.3c0,0.2,0,0.3,0,0.5v0.8c0.2,1.4-1,2.7-2.3,2.9c-0.2,0-0.3,0-0.5,0h-0.6
		C174.9,1014.5,174.1,1014.2,173.6,1013.7z"/>
	<circle class="st5" cx="1486.8" cy="999.5" r="30.3"/>
	<circle class="st6" cx="1493" cy="997.2" r="30.3"/>
	<path class="st0" d="M1493.5,1001c0.5,0.5,0.8,1.2,0.8,1.9c0,0.7-0.3,1.4-0.8,1.8c-0.5,0.5-1.2,0.8-1.9,0.7h-2v6.1
		c0,1.6-1.2,2.9-2.8,2.9h-0.1c-0.8,0-1.5-0.3-2-0.9c-0.5-0.5-0.9-1.3-0.8-2.1v-6.1h-12.3c-0.7,0-1.5-0.3-1.9-0.9
		c-0.5-0.5-0.9-1.2-0.9-2c0-0.7,0.3-1.4,0.7-1.9l15-18.3c0.5-0.8,1.5-1.1,2.3-1.1c0.8,0,1.5,0.3,2,0.9c0.5,0.5,0.9,1.3,0.8,2.1v16.1
		h2C1492.3,1000.2,1493,1000.5,1493.5,1001z M1476.2,1000.2h7.7v-9.5L1476.2,1000.2z"/>
	<path class="st0" d="M1501.5,1013.7c-0.5-0.6-0.8-1.3-0.7-2.1v-0.8c-0.2-1.4,1-2.7,2.3-2.9c0.2,0,0.3,0,0.5,0h0.6
		c1.4-0.2,2.7,1,2.9,2.3c0,0.2,0,0.3,0,0.5v0.8c0.2,1.4-1,2.7-2.3,2.9c-0.2,0-0.3,0-0.5,0h-0.6
		C1502.8,1014.5,1502.1,1014.2,1501.5,1013.7z"/>
	<circle class="st5" cx="1483.7" cy="123.1" r="30.3"/>
	<circle class="st6" cx="1490" cy="120.8" r="30.3"/>
	<path class="st0" d="M1494.2,133.6c0.5,0.5,0.8,1.2,0.8,1.9c0,0.7-0.3,1.4-0.8,1.8c-0.5,0.5-1.2,0.8-1.9,0.8h-16.1
		c-0.7,0-1.5-0.3-1.9-0.8c-0.5-0.5-0.8-1.2-0.7-1.9c0-0.8,0.3-1.6,0.9-2.1l10.3-11c1-1.1,2-2.4,2.8-3.8c0.6-1,1-2.3,1-3.6
		c0-1.4-0.5-2.7-1.6-3.7c-0.9-1-2.2-1.6-3.5-1.6c-1,0-2,0.3-2.8,1c-1,0.7-1.8,1.5-2.5,2.4c-0.5,0.7-1.3,1.1-2.2,1.1
		c-0.7,0-1.4-0.3-1.9-0.8c-0.5-0.4-0.9-1.1-0.9-1.8c0-0.5,0.2-1,0.4-1.5c0.4-0.6,0.9-1.2,1.4-1.7c1.2-1.2,2.6-2.2,4.2-2.9
		c1.4-0.7,3-1,4.5-1.1c1.9,0,3.8,0.4,5.5,1.3c1.6,0.9,2.8,2.1,3.7,3.7c0.9,1.7,1.3,3.4,1.3,5.3c0,2.1-0.5,4.1-1.6,5.9
		c-1.1,2.2-2.5,4.1-4.2,5.8l-6,6.4h9.7C1493,132.9,1493.7,133.1,1494.2,133.6z"/>
	<path class="st0" d="M1499.9,137.3c-0.5-0.6-0.8-1.3-0.7-2.1v-0.8c-0.2-1.4,1-2.7,2.3-2.9c0.2,0,0.3,0,0.5,0h0.6
		c1.4-0.2,2.7,1,2.9,2.3c0,0.2,0,0.3,0,0.5v0.8c0.2,1.4-1,2.7-2.3,2.9c-0.2,0-0.3,0-0.5,0h-0.6
		C1501.2,138.1,1500.4,137.8,1499.9,137.3z"/>
	<circle class="st7" cx="211.4" cy="306.7" r="16.8"/>
	<circle class="st7" cx="652" cy="388.1" r="16.8"/>
	<circle class="st7" cx="1047.8" cy="428.9" r="16.8"/>
	<circle class="st7" cx="1219.9" cy="871.8" r="16.8"/>
	<circle class="st7" cx="228.2" cy="747.5" r="16.8"/>
	<circle class="st7" cx="1344.7" cy="689" r="16.8"/>
	<circle class="st7" cx="332.6" cy="811.9" r="16.8"/>
	<circle class="st8" cx="253.7" cy="214.9" r="16.8"/>
	<circle class="st8" cx="418.4" cy="214.9" r="16.8"/>
	<circle class="st8" cx="366.1" cy="388.1" r="16.8"/>
	<circle class="st8" cx="1168.2" cy="231.6" r="16.8"/>
	<circle class="st8" cx="981.4" cy="412.1" r="16.8"/>
	<circle class="st8" cx="1311.1" cy="371.3" r="16.8"/>
	<circle class="st8" cx="925.1" cy="661.8" r="16.8"/>
	<circle class="st8" cx="1348.8" cy="897.3" r="16.8"/>
	<circle class="st8" cx="349.4" cy="714.3" r="16.8"/>
	<circle class="st8" cx="1151.4" cy="950.1" r="16.8"/>
	<circle class="st8" cx="647.8" cy="866.9" r="16.8"/>
	<circle class="st8" cx="1044.9" cy="655.5" r="16.8"/>
	<circle class="st8" cx="591.1" cy="672.2" r="16.8"/>
	<circle class="st8" cx="456.1" cy="914.1" r="16.8"/>
	<circle class="st8" cx="1411.4" cy="445.7" r="16.8"/>
	<path class="st9" d="M229.2,110.4c0,0.6-0.3,1.1-0.6,1.7c-0.3,0.5-1,0.9-1.7,0.9c-0.4,0-1-0.1-1.3-0.3c-1.3-0.6-2.7-0.9-4.2-0.9
		c-1.7,0-3.3,0.3-4.8,1.1c-1.3,0.8-2.4,1.9-3.1,3.3c-0.8,1.5-1.1,3.1-1.1,4.8c0,3.1,0.9,5.5,2.5,7c3,2.5,7.1,3.1,10.7,1.5
		c0.4-0.2,0.8-0.3,1.3-0.3c0.7,0,1.3,0.3,1.7,0.9c0.3,0.4,0.6,1,0.6,1.7c0,0.4-0.1,0.8-0.3,1.1c-0.2,0.3-0.5,0.6-0.9,0.8
		c-2,1-4.3,1.6-6.5,1.6c-2.4,0-4.9-0.5-7-1.7c-2.2-1-3.9-2.8-5.1-4.8c-1.3-2.3-2-5-1.9-7.7c0-2.5,0.6-5,1.8-7.2c1.2-2.1,3-3.8,5-5
		c2.3-1.2,4.7-1.8,7.3-1.8c2.3,0,4.5,0.5,6.5,1.6C228.8,108.8,229.3,109.6,229.2,110.4z"/>
	<path class="st9" d="M233.2,110.5c-0.4-0.4-0.6-1-0.5-1.6v-0.8c-0.1-0.6,0.2-1.1,0.6-1.6c1.2-0.6,2.6-0.6,3.8,0
		c0.4,0.4,0.6,1,0.5,1.6v0.8c0.1,0.6-0.2,1.1-0.6,1.6c-0.6,0.3-1.3,0.4-1.9,0.4C234.4,111.1,233.7,110.9,233.2,110.5z M236.8,133.9
		c-1,1-2.4,1-3.4,0c-0.4-0.4-0.7-1.1-0.7-1.7v-16.3c0-0.6,0.2-1.3,0.7-1.7c1-1,2.4-1,3.4,0c0.4,0.4,0.7,1.1,0.7,1.7v16.3
		C237.5,132.8,237.2,133.5,236.8,133.9z"/>
	<path class="st9" d="M259.6,114.3c0.4,0.4,0.7,1.1,0.7,1.7v10c0.2,2.4-0.7,4.9-2.3,6.6c-1.6,1.6-3.8,2.4-6.7,2.4
		c-2.9,0-5.1-0.8-6.6-2.4c-1.7-1.8-2.4-4.2-2.3-6.6v-10.1c0-0.6,0.2-1.3,0.7-1.7c1-1,2.4-1,3.4,0c0.4,0.4,0.7,1.1,0.7,1.7v10
		c-0.1,1.3,0.3,2.5,1,3.6c0.9,0.9,2,1.2,3.2,1.1c1.2,0.1,2.3-0.3,3.2-1.1c0.8-1,1.1-2.3,1-3.6v-10c0-0.6,0.2-1.3,0.7-1.7
		C257.2,113.3,258.7,113.3,259.6,114.3L259.6,114.3z"/>
	<path class="st9" d="M284.2,106.2c0.4,0.4,0.7,1.1,0.7,1.7v24.3c0,0.6-0.2,1.3-0.7,1.7c-0.4,0.4-1,0.7-1.7,0.7
		c-0.6,0-1.2-0.3-1.7-0.7c-0.4-0.4-0.7-1-0.7-1.7c-1.6,1.7-3.8,2.7-6.2,2.8c-1.7,0-3.5-0.4-5-1.4c-1.5-1-2.7-2.3-3.5-3.9
		c-0.9-1.7-1.3-3.7-1.3-5.7c0-1.9,0.4-3.9,1.3-5.7c0.8-1.6,2-3,3.5-3.9c1.5-1,3.1-1.4,4.8-1.4c1.2,0,2.4,0.3,3.6,0.7
		c1,0.4,2,1,2.8,1.7v-7.8c0-0.6,0.2-1.3,0.7-1.7c0.4-0.4,1-0.7,1.7-0.7C283.1,105.4,283.7,105.7,284.2,106.2z M278.7,128.8
		c1.1-1.3,1.7-3,1.7-4.7c0.1-1.7-0.5-3.4-1.7-4.7c-2-2.3-5.5-2.5-7.7-0.5c-0.2,0.2-0.3,0.3-0.5,0.5c-2.2,2.8-2.2,6.6,0,9.4
		c1,1.2,2.5,1.9,4.2,1.8C276.1,130.7,277.6,130,278.7,128.8L278.7,128.8z"/>
	<path class="st9" d="M308.6,113.8c0.4,0.4,0.7,1.1,0.7,1.7v16.6c0,0.6-0.2,1.3-0.7,1.7c-0.4,0.4-1,0.7-1.7,0.7
		c-0.6,0-1.2-0.3-1.7-0.7c-0.4-0.4-0.7-1-0.7-1.7c-1.6,1.7-3.8,2.7-6.2,2.8c-1.7,0-3.5-0.4-5-1.4c-1.5-1-2.7-2.3-3.5-3.9
		c-0.9-1.7-1.3-3.7-1.2-5.7c0-1.9,0.4-3.9,1.3-5.7c0.8-1.6,2-3,3.5-3.9c1.5-1,3.1-1.4,4.8-1.4c1.2,0,2.4,0.3,3.6,0.7
		c1,0.4,2,1,2.8,1.7l0,0c0-0.6,0.2-1.3,0.7-1.7c0.4-0.4,1-0.7,1.7-0.7C307.6,113.1,308.2,113.4,308.6,113.8z M303.2,128.8
		c1.1-1.3,1.7-3,1.7-4.7c0.1-1.7-0.5-3.4-1.7-4.7c-2-2.3-5.5-2.5-7.7-0.5c-0.2,0.2-0.3,0.3-0.5,0.5c-2.2,2.8-2.2,6.6,0,9.4
		c1,1.2,2.5,1.9,4.2,1.8C300.6,130.7,302.2,130,303.2,128.8L303.2,128.8z"/>
	<path class="st9" d="M333.1,106.2c0.4,0.4,0.7,1.1,0.7,1.7v24.3c0,0.6-0.2,1.3-0.7,1.7c-0.4,0.4-1,0.7-1.7,0.7
		c-0.6,0-1.2-0.3-1.7-0.7c-0.4-0.4-0.7-1-0.7-1.7c-1.6,1.7-3.8,2.7-6.2,2.8c-1.7,0-3.5-0.4-5-1.4s-2.7-2.3-3.5-3.9
		c-0.9-1.7-1.3-3.7-1.3-5.7c0-1.9,0.4-3.9,1.3-5.7c0.8-1.6,2-3,3.5-3.9s3.1-1.4,4.8-1.4c1.2,0,2.4,0.3,3.6,0.7c1,0.4,2,1,2.8,1.7
		v-7.8c0-0.6,0.2-1.3,0.7-1.7c0.4-0.4,1-0.7,1.7-0.7C332.2,105.4,332.8,105.7,333.1,106.2z M327.7,128.8c1.1-1.3,1.7-3,1.7-4.7
		c0.1-1.7-0.5-3.4-1.7-4.7c-2-2.3-5.5-2.5-7.7-0.5c-0.2,0.2-0.3,0.3-0.5,0.5c-2.2,2.8-2.2,6.6,0,9.4c1,1.2,2.5,1.9,4.2,1.9
		C325.1,130.7,326.7,130,327.7,128.8L327.7,128.8z"/>
	<path class="st9" d="M1229,110.4c0,0.6-0.3,1.1-0.6,1.7c-0.3,0.5-1,0.9-1.6,0.9c-0.4,0-1-0.1-1.3-0.3c-1.3-0.6-2.7-0.9-4.2-0.9
		c-1.7,0-3.3,0.3-4.8,1.1c-1.3,0.8-2.4,1.9-3.1,3.3c-0.8,1.5-1.1,3.1-1.1,4.8c0,3.1,0.9,5.5,2.5,7c3,2.5,7.1,3.1,10.7,1.5
		c0.4-0.2,0.8-0.3,1.2-0.3c0.7,0,1.3,0.3,1.7,0.9c0.3,0.4,0.6,1,0.6,1.7c0,0.4-0.1,0.8-0.3,1.1c-0.2,0.3-0.5,0.6-0.9,0.8
		c-2,1-4.3,1.6-6.5,1.6c-2.4,0-4.9-0.5-7.1-1.7c-2.2-1-3.9-2.8-5.1-4.8c-1.3-2.3-2-5-1.9-7.7c0-2.5,0.6-5,1.8-7.2c1.2-2.1,3-3.8,5-5
		c2.3-1.2,4.7-1.8,7.3-1.8c2.3,0,4.5,0.5,6.5,1.6C1228.6,108.8,1229,109.6,1229,110.4z"/>
	<path class="st9" d="M1251.5,113.8c0.4,0.4,0.7,1.1,0.7,1.7v16.6c0,0.6-0.2,1.3-0.7,1.7c-0.4,0.4-1,0.7-1.7,0.7
		c-0.6,0-1.2-0.3-1.7-0.7c-0.4-0.4-0.7-1-0.7-1.7c-1.6,1.7-3.8,2.7-6.2,2.8c-1.7,0-3.5-0.4-5-1.4c-1.5-1-2.7-2.3-3.5-3.9
		c-0.9-1.7-1.3-3.7-1.3-5.7c0-1.9,0.4-3.9,1.2-5.7c0.8-1.6,2-3,3.5-3.9c1.5-1,3.1-1.4,4.8-1.4c1.2,0,2.4,0.3,3.6,0.7
		c1,0.4,2,1,2.8,1.7l0,0c0-0.6,0.2-1.3,0.7-1.7c0.4-0.4,1-0.7,1.7-0.7C1250.5,113.1,1251.1,113.4,1251.5,113.8z M1246,128.8
		c1.1-1.3,1.7-3,1.7-4.7c0.1-1.7-0.5-3.4-1.7-4.7c-2-2.3-5.5-2.5-7.7-0.5c-0.2,0.2-0.3,0.3-0.5,0.5c-2.2,2.8-2.2,6.6,0,9.4
		c1,1.2,2.5,1.9,4.2,1.8C1243.5,130.7,1245,130,1246,128.8z"/>
	<path class="st9" d="M1255.8,130.1c0.1-1.1,1-2.1,2.2-2.1c0.6,0,1.1,0.3,1.6,0.8c0.7,0.8,1.6,1.4,2.4,1.8c1,0.4,2,0.6,3.1,0.6
		c2.1-0.1,3-0.9,3-2.3c0-0.7-0.3-1.4-1-1.7c-1-0.5-2.1-1-3.2-1.2c-1.3-0.3-2.5-0.8-3.7-1.2c-1-0.4-1.8-1-2.4-1.9
		c-0.8-1-1.1-2.3-1-3.5c0-1.2,0.3-2.3,1.1-3.3s1.7-1.7,2.9-2.2c1.1-0.5,2.4-0.8,3.7-0.8c1.4,0,2.7,0.3,4,0.8
		c1.2,0.4,2.3,1.2,3.1,2.2c0.3,0.4,0.5,0.9,0.5,1.4c0,0.6-0.3,1.1-0.8,1.5c-0.3,0.3-0.8,0.4-1.2,0.4c-0.5,0-1-0.2-1.4-0.5
		c-0.5-0.6-1.1-1-1.8-1.4c-0.8-0.3-1.7-0.5-2.5-0.5c-2,0-3,0.7-3,2.2c0,0.5,0.2,1,0.5,1.4c0.4,0.3,0.9,0.7,1.4,0.9
		c0.6,0.2,1.4,0.4,2.3,0.7c1.2,0.3,2.3,0.7,3.6,1.2c1,0.4,1.7,1.1,2.4,1.9c0.7,1,1,2.2,1,3.4c0,1.2-0.3,2.4-1.1,3.4
		c-0.8,1-1.8,1.7-3,2.2c-1.1,0.5-2.4,0.8-3.7,0.8c-1.7,0-3.3-0.3-4.9-0.9c-1.5-0.5-2.7-1.6-3.7-2.8
		C1255.8,131,1255.7,130.5,1255.8,130.1z"/>
	<path class="st9" d="M1295.3,113.8c0.4,0.4,0.7,1.1,0.7,1.7v16.6c0,0.6-0.2,1.3-0.7,1.7c-0.4,0.4-1,0.7-1.7,0.7
		c-0.6,0-1.2-0.3-1.7-0.7c-0.4-0.4-0.7-1-0.7-1.7c-1.6,1.7-3.8,2.7-6.2,2.8c-1.7,0-3.5-0.4-5-1.4s-2.7-2.3-3.5-3.9
		c-0.9-1.7-1.3-3.7-1.3-5.7c0-1.9,0.4-3.9,1.2-5.7c0.8-1.6,2-3,3.5-3.9c1.5-1,3.1-1.4,4.8-1.4c1.2,0,2.4,0.3,3.6,0.7
		c1,0.4,2,1,2.8,1.7l0,0c0-0.6,0.3-1.3,0.7-1.7c0.4-0.4,1-0.7,1.7-0.7C1294.3,113.1,1294.9,113.4,1295.3,113.8z M1289.8,128.8
		c1.1-1.3,1.7-3,1.7-4.7c0.1-1.7-0.5-3.4-1.7-4.7c-2-2.3-5.5-2.5-7.7-0.5c-0.2,0.2-0.3,0.3-0.5,0.5c-2.2,2.8-2.2,6.6,0,9.4
		c1,1.2,2.5,1.9,4.2,1.8C1287.2,130.7,1288.8,130,1289.8,128.8z"/>
	<path class="st9" d="M1300.4,139.3c-0.4-0.3-0.7-0.9-0.7-1.4c0-0.3,0.1-0.7,0.3-1l16-32.7c0.2-0.3,0.4-0.6,0.7-0.9
		c0.3-0.2,0.6-0.3,1-0.3c0.5,0,1,0.2,1.4,0.6c0.4,0.3,0.7,0.9,0.7,1.4c0,0.3-0.1,0.7-0.3,1l-15.9,32.7c-0.2,0.3-0.4,0.6-0.7,0.9
		c-0.3,0.2-0.6,0.3-1,0.3C1301.3,139.8,1300.8,139.7,1300.4,139.3z"/>
	<path class="st9" d="M1345.6,107.8c0.4,0.4,0.7,1.1,0.7,1.7v22.7c0,0.7-0.3,1.3-0.7,1.7c-0.5,0.4-1.1,0.7-1.8,0.7
		c-0.6,0-1.2-0.3-1.7-0.7c-0.4-0.4-0.7-1-0.7-1.7v-9.1h-12.5v9.1c0,0.7-0.3,1.3-0.8,1.7c-0.4,0.4-1.1,0.7-1.7,0.7s-1.3-0.3-1.7-0.7
		c-0.4-0.4-0.7-1.1-0.7-1.7v-22.7c0-0.7,0.3-1.3,0.7-1.7c0.5-0.4,1.1-0.7,1.8-0.7c0.6,0,1.2,0.3,1.7,0.7c0.4,0.4,0.7,1,0.7,1.7v9
		h12.5v-9c0-0.7,0.3-1.3,0.8-1.7c0.4-0.4,1.1-0.7,1.7-0.7C1344.4,107,1345,107.2,1345.6,107.8z"/>
	<path class="st9" d="M1370.5,129.7c-0.9,1.7-2.3,3-3.9,3.9c-3.4,1.8-7.5,1.8-10.9,0c-1.7-0.9-3-2.3-3.8-3.9
		c-1.9-3.6-1.9-7.7,0-11.3c0.9-1.7,2.3-3,3.8-3.9c3.4-1.8,7.5-1.8,10.9,0c1.7,1,3,2.3,3.9,3.9
		C1372.4,121.9,1372.4,126.2,1370.5,129.7z M1366.4,120.6c-0.5-1-1.2-1.7-2.2-2.3c-1.8-1.1-4.2-1.1-6,0c-1,0.6-1.7,1.4-2.2,2.3
		c-0.5,1-0.9,2.3-0.8,3.5c0,1.2,0.3,2.3,0.8,3.4c0.5,1,1.2,1.7,2.2,2.3c1.8,1.1,4.2,1.1,6,0c1-0.5,1.7-1.4,2.2-2.3
		c0.5-1,0.9-2.3,0.8-3.4C1367.2,122.9,1367,121.7,1366.4,120.6L1366.4,120.6z"/>
	<path class="st9" d="M1394.9,113.8c0.4,0.4,0.7,1.1,0.7,1.7v17.5c0,3.2-1,5.6-3,7.1c-2.2,1.6-4.9,2.4-7.6,2.3
		c-1.1,0-2.2-0.2-3.2-0.3c-1-0.2-2-0.4-3-0.8c-1.3-0.6-1.9-1.3-1.9-2.3c0-0.2,0.1-0.4,0.1-0.6c0.1-0.5,0.4-1,0.8-1.3
		c0.3-0.3,0.8-0.4,1.2-0.4c0.3,0,0.5,0,0.8,0.1c0.1,0,0.8,0.3,1.9,0.7c1,0.4,2.1,0.7,3.2,0.7c1.6,0.1,3-0.3,4.3-1.1
		c1-0.8,1.5-2,1.5-3.3v-1.9c-0.7,1-1.6,1.7-2.6,2.2c-1.1,0.6-2.4,1-3.7,1c-1.7,0-3.5-0.4-5-1.4c-1.5-1-2.8-2.3-3.6-3.9
		c-0.9-1.7-1.3-3.7-1.3-5.7s0.4-3.9,1.3-5.7c0.8-1.6,2-3,3.5-3.9s3.2-1.4,5-1.4c1.3,0,2.6,0.3,3.7,0.9c1,0.5,2,1.1,2.8,2v-0.4
		c0-0.6,0.2-1.3,0.7-1.7c0.4-0.4,1-0.7,1.7-0.7C1393.9,113.1,1394.5,113.4,1394.9,113.8z M1389.5,128.8c1.1-1.3,1.7-3,1.7-4.7
		c0.1-1.7-0.5-3.4-1.7-4.7c-1.1-1.2-2.7-1.9-4.3-1.9c-1.7-0.1-3.2,0.6-4.3,1.9c-1.1,1.3-1.7,3-1.7,4.7c-0.1,1.7,0.5,3.4,1.7,4.7
		c1,1.2,2.6,1.9,4.3,1.8C1386.8,130.7,1388.3,130,1389.5,128.8z"/>
	<path class="st9" d="M1419.3,113.8c0.4,0.4,0.7,1.1,0.7,1.7v16.6c0,0.6-0.2,1.3-0.7,1.7c-0.4,0.4-1,0.7-1.7,0.7
		c-0.6,0-1.2-0.3-1.7-0.7c-0.4-0.4-0.7-1-0.7-1.7c-1.6,1.7-3.8,2.7-6.2,2.8c-1.7,0-3.5-0.4-5-1.4s-2.7-2.3-3.5-3.9
		c-0.9-1.7-1.3-3.7-1.3-5.7c0-1.9,0.4-3.9,1.2-5.7c0.8-1.6,2-3,3.5-3.9c1.5-1,3.1-1.4,4.8-1.4c1.2,0,2.4,0.3,3.6,0.7
		c1,0.4,2,1,2.8,1.7l0,0c0-0.6,0.3-1.3,0.7-1.7c0.4-0.4,1-0.7,1.7-0.7C1418.2,113.1,1418.9,113.4,1419.3,113.8z M1413.8,128.8
		c1.1-1.3,1.7-3,1.7-4.7c0.1-1.7-0.5-3.4-1.7-4.7c-2-2.3-5.5-2.5-7.7-0.5c-0.2,0.2-0.3,0.3-0.5,0.5c-2.2,2.8-2.2,6.6,0,9.4
		c1,1.2,2.5,1.9,4.2,1.8C1411.3,130.7,1412.8,130,1413.8,128.8z"/>
	<path class="st9" d="M1438,113.8c0.5,0.3,0.8,1,0.8,1.6c0.1,0.7-0.2,1.3-0.6,1.8c-0.4,0.4-1,0.6-1.5,0.6c-0.4,0-0.9-0.1-1.3-0.3
		l-0.5-0.2c-0.3-0.1-0.6-0.1-0.9-0.1c-0.7,0-1.4,0.3-2,0.6c-0.7,0.5-1.2,1.1-1.6,1.9c-0.4,1-0.6,2-0.6,3v9.3c0,0.6-0.2,1.3-0.7,1.7
		c-1,1-2.4,1-3.4,0c-0.4-0.4-0.7-1.1-0.7-1.7v-16.3c0-0.6,0.2-1.3,0.7-1.7c1-1,2.4-1,3.4,0c0.4,0.4,0.7,1.1,0.7,1.7v0.5
		c0.6-1,1.5-1.9,2.6-2.4c1.1-0.6,2.3-0.9,3.7-0.9C1436.8,113.1,1437.5,113.3,1438,113.8z"/>
	<path class="st9" d="M214.2,997c-0.4,0.4-1.1,0.7-1.7,0.7s-1.3-0.3-1.7-0.7c-0.4-0.4-0.7-1.1-0.7-1.7v-22.8c0-0.7,0.3-1.3,0.7-1.7
		c0.5-0.4,1.1-0.7,1.8-0.7c0.6,0,1.2,0.3,1.7,0.7c0.4,0.4,0.7,1,0.7,1.7v22.8C215,996,214.6,996.6,214.2,997z"/>
	<path class="st9" d="M237.2,978.6c1.1,2,1.7,4.3,1.6,6.6v10.1c0,0.6-0.2,1.3-0.7,1.7c-1,1-2.4,1-3.4,0c-0.4-0.4-0.7-1.1-0.7-1.7
		v-10.1c0.1-1.2-0.3-2.3-0.9-3.4c-0.8-0.9-1.9-1.4-3.1-1.2c-1.3-0.1-2.6,0.4-3.6,1.3c-0.9,0.9-1.3,2.1-1.3,3.3v10.1
		c0,0.6-0.2,1.3-0.7,1.7c-1,1-2.4,1-3.4,0c-0.4-0.4-0.7-1.1-0.7-1.7V979c0-0.6,0.2-1.3,0.7-1.7c1-1,2.4-1,3.4,0
		c0.4,0.4,0.7,1.1,0.7,1.7v0.7c0.8-1,1.7-1.8,2.8-2.4c1.1-0.7,2.4-1,3.7-1C234.3,976.2,236.2,977,237.2,978.6z"/>
	<path class="st9" d="M242.3,993.3c0.1-1.1,1-2.1,2.2-2.1c0.6,0,1.1,0.3,1.6,0.8c0.7,0.8,1.6,1.4,2.4,1.8c1,0.4,2,0.6,3,0.6
		c2.1-0.1,3-0.9,3-2.3c0-0.7-0.3-1.4-1-1.7c-1-0.5-2.1-1-3.2-1.2c-1.3-0.3-2.5-0.8-3.7-1.2c-1-0.4-1.8-1-2.5-1.9
		c-0.8-1-1.1-2.3-1-3.5c0-1.2,0.3-2.3,1-3.3c0.8-1,1.7-1.7,2.9-2.2c1.1-0.5,2.4-0.8,3.7-0.8c1.4,0,2.7,0.3,4,0.8
		c1.2,0.4,2.3,1.2,3.1,2.2c0.3,0.4,0.5,0.9,0.5,1.4c0,0.6-0.3,1.1-0.8,1.5c-0.3,0.3-0.8,0.4-1.3,0.4c-0.5,0-1-0.2-1.4-0.5
		c-0.5-0.6-1.1-1-1.8-1.4c-0.8-0.3-1.7-0.5-2.5-0.5c-2,0-3,0.7-3,2.2c0,0.5,0.2,1,0.5,1.4c0.4,0.3,0.9,0.7,1.4,0.9
		c0.6,0.2,1.4,0.4,2.3,0.7c1.2,0.3,2.3,0.7,3.6,1.2c1,0.4,1.7,1.1,2.4,1.9c0.7,1,1,2.2,1,3.4c0,1.2-0.3,2.4-1.1,3.4
		c-0.8,1-1.8,1.7-3,2.2c-1.1,0.5-2.4,0.8-3.7,0.8c-1.7,0-3.3-0.3-4.9-0.9c-1.5-0.5-2.7-1.6-3.7-2.8
		C242.4,994.2,242.3,993.7,242.3,993.3z"/>
	<path class="st9" d="M262.9,973.7c-0.4-0.4-0.6-1-0.5-1.6v-0.8c-0.1-0.6,0.2-1.1,0.6-1.6c1.2-0.6,2.6-0.6,3.8,0
		c0.4,0.4,0.6,1,0.5,1.6v0.8c0.1,0.6-0.2,1.1-0.6,1.6c-0.6,0.3-1.3,0.4-1.9,0.4C264.3,974.2,263.6,974,262.9,973.7z M266.6,997
		c-1,1-2.4,1-3.4,0c-0.4-0.4-0.7-1.1-0.7-1.7V979c0-0.6,0.2-1.3,0.7-1.7c1-1,2.4-1,3.4,0c0.4,0.4,0.7,1.1,0.7,1.7v16.3
		C267.3,996,267,996.6,266.6,997L266.6,997z"/>
	<path class="st9" d="M283.3,993.8c0.7,0.9,0.6,2.3-0.3,3c-0.1,0.1-0.3,0.2-0.3,0.3c-0.8,0.5-1.7,0.8-2.6,0.7
		c-1.5,0.1-2.9-0.3-4.1-1c-1.1-0.7-1.7-2.2-1.7-4.4v-10.9h-1.8c-1.2,0-2.2-0.9-2.2-2.1v-0.1c0-0.6,0.2-1.1,0.6-1.5
		c0.4-0.4,1-0.6,1.6-0.6h1.8v-2.5c0-1.3,1-2.3,2.3-2.4h0.1c0.6,0,1.2,0.3,1.7,0.7s0.7,1.1,0.7,1.7v2.5h2.8c1.2,0,2.2,0.9,2.2,2.1
		v0.1c0,0.6-0.2,1.1-0.6,1.5c-0.4,0.4-1,0.6-1.6,0.6H279v10.7c0,0.4,0.1,0.9,0.4,1.2c0.3,0.3,0.8,0.4,1.2,0.3c0.3,0,0.6-0.1,0.9-0.2
		s0.6-0.2,0.9-0.2C282.7,993.3,283,993.5,283.3,993.8z"/>
	<path class="st9" d="M305.5,977.4c0.4,0.4,0.7,1.1,0.7,1.7v9.9c0.2,2.4-0.7,4.9-2.3,6.7c-1.6,1.6-3.8,2.4-6.7,2.4
		c-2.9,0-5.1-0.8-6.6-2.4c-1.7-1.8-2.4-4.2-2.3-6.7v-10c0-0.6,0.2-1.3,0.7-1.7c1-1,2.4-1,3.4,0c0.4,0.4,0.7,1.1,0.7,1.7v10
		c-0.1,1.3,0.3,2.5,1,3.6c0.9,0.9,2,1.2,3.2,1.1c1.2,0.1,2.3-0.3,3.2-1.1c0.8-1,1.1-2.3,1-3.6v-10c0-0.6,0.2-1.3,0.7-1.7
		C303.1,976.4,304.6,976.4,305.5,977.4L305.5,977.4z"/>
	<path class="st9" d="M325.9,977.4c1.4,0.7,2.1,1.7,2.1,2.8c0,0.5-0.2,1-0.5,1.5c-0.3,0.4-0.8,0.7-1.3,0.7c-0.3,0-0.7-0.1-1-0.2
		c-0.3-0.1-0.5-0.3-0.8-0.4s-0.4-0.3-0.7-0.5c-0.3-0.2-0.8-0.3-1.1-0.3c-0.4-0.1-0.8-0.2-1.2-0.2c-1.7-0.1-3.4,0.6-4.6,1.8
		c-2.3,2.8-2.3,6.7,0,9.5c1.1,1.2,2.7,1.9,4.3,1.9c1,0.1,2-0.1,2.9-0.4c0.3-0.1,0.4-0.3,0.7-0.4c0.3-0.2,0.5-0.3,0.8-0.4
		s0.6-0.2,0.9-0.2c0.6,0,1.1,0.2,1.6,0.6c0.4,0.4,0.6,1,0.6,1.7c-0.1,0.7-0.5,1.4-1.1,1.7c-0.9,0.6-1.8,1-3,1.3
		c-1.2,0.3-2.5,0.5-3.8,0.5c-1.9,0-3.7-0.4-5.3-1.4s-2.8-2.3-3.6-3.9c-0.9-1.7-1.3-3.7-1.3-5.6c0-2,0.4-3.9,1.3-5.7
		c0.9-1.7,2.1-3,3.7-3.9c1.7-1,3.5-1.4,5.3-1.4C322.3,976.2,324.2,976.6,325.9,977.4z"/>
	<path class="st9" d="M331.7,973.7c-0.4-0.4-0.6-1-0.5-1.6v-0.8c-0.1-0.6,0.2-1.1,0.6-1.6c1.2-0.6,2.6-0.6,3.8,0
		c0.4,0.4,0.6,1,0.5,1.6v0.8c0.1,0.6-0.2,1.1-0.6,1.6c-0.6,0.3-1.3,0.4-1.9,0.4C332.9,974.2,332.2,974,331.7,973.7z M335.3,997
		c-1,1-2.4,1-3.4,0c-0.4-0.4-0.7-1.1-0.7-1.7V979c0-0.6,0.2-1.3,0.7-1.7c1-1,2.4-1,3.4,0c0.4,0.4,0.7,1.1,0.7,1.7v16.3
		C336.1,996,335.8,996.6,335.3,997L335.3,997z"/>
	<path class="st9" d="M359.6,992.9c-0.9,1.7-2.3,3-3.9,3.9c-3.4,1.8-7.5,1.8-10.9,0c-1.7-0.9-3-2.3-3.8-3.9c-1.9-3.6-1.9-7.7,0-11.3
		c0.9-1.7,2.3-3,3.8-3.9c3.4-1.8,7.5-1.8,10.9,0c1.7,1,3,2.3,3.9,3.9C361.5,985.1,361.5,989.4,359.6,992.9z M355.5,983.8
		c-0.5-1-1.2-1.7-2.2-2.3c-1.8-1.1-4.2-1.1-6,0c-1,0.6-1.7,1.4-2.2,2.3c-0.5,1-0.9,2.3-0.8,3.5c0,1.2,0.3,2.3,0.8,3.4
		c0.5,1,1.2,1.7,2.2,2.3c1.8,1.1,4.2,1.1,6,0c1-0.5,1.7-1.4,2.2-2.3c0.5-1,0.9-2.3,0.8-3.4C356.3,986.1,356.1,984.9,355.5,983.8z
		 M349.7,975c-0.3-0.3-0.4-0.6-0.4-1c0-0.3,0.1-0.5,0.3-0.8l2.3-4c0.3-0.4,0.5-0.9,1-1.1c0.3-0.3,0.8-0.4,1.2-0.4
		c0.6-0.1,1.1,0.2,1.6,0.5c0.3,0.3,0.5,0.9,0.5,1.4c-0.1,0.6-0.3,1.2-0.8,1.7l-3,3.3c-0.4,0.4-1.1,0.7-1.7,0.7
		C350.2,975.3,350,975.2,349.7,975L349.7,975z"/>
	<path class="st9" d="M381.8,978.6c1.1,2,1.7,4.3,1.6,6.6v10.1c0,0.6-0.2,1.3-0.7,1.7c-1,1-2.4,1-3.4,0c-0.4-0.4-0.7-1.1-0.7-1.7
		v-10.1c0.1-1.2-0.3-2.3-0.9-3.4c-0.8-0.9-1.9-1.4-3.1-1.2c-1.3-0.1-2.6,0.4-3.6,1.3c-0.9,0.9-1.3,2.1-1.3,3.3v10.1
		c0,0.6-0.2,1.3-0.7,1.7c-1,1-2.4,1-3.4,0c-0.4-0.4-0.7-1.1-0.7-1.7V979c0-0.6,0.2-1.3,0.7-1.7c1-1,2.4-1,3.4,0
		c0.4,0.4,0.7,1.1,0.7,1.7v0.7c0.8-1,1.7-1.8,2.8-2.4c1.1-0.7,2.4-1,3.7-1C378.9,976.2,380.7,977,381.8,978.6z"/>
	<path class="st9" d="M227.7,1020.4c-0.4,0.3-1,0.6-1.7,0.6h-13c0.3,1.5,1,2.7,2.2,3.7c1,0.9,2.4,1.3,3.8,1.3c0.9,0,1.7-0.1,2.5-0.3
		c0.5-0.2,1-0.3,1.4-0.6l0.7-0.4c0.4-0.3,0.9-0.3,1.3-0.3c0.5,0,1,0.2,1.4,0.6c0.3,0.3,0.6,0.9,0.6,1.4c0,0.8-0.4,1.5-1.1,1.9
		c-0.9,0.7-1.9,1.2-3,1.6c-3.1,1-6.6,0.8-9.5-0.8c-1.6-0.9-3-2.2-3.8-3.8c-0.9-1.7-1.4-3.6-1.3-5.5c-0.1-2.1,0.4-4.1,1.4-5.9
		c0.9-1.7,2.2-3,3.7-3.9c1.5-0.9,3.2-1.4,5-1.4c1.7,0,3.4,0.5,4.9,1.4c1.6,1,2.8,2.3,3.7,3.8c1,1.6,1.4,3.4,1.4,5.2
		C228.5,1019.5,228.2,1020.1,227.7,1020.4z M213.1,1017.1h10.3v-0.3c-0.1-1.1-0.7-2.2-1.7-2.9c-1-0.8-2.1-1.2-3.3-1.2
		C215.5,1012.8,213.7,1014.2,213.1,1017.1z"/>
	<path class="st9" d="M251.1,1001.5c0.4,0.4,0.7,1.1,0.7,1.7v24.3c0,0.6-0.2,1.3-0.7,1.7c-0.4,0.4-1,0.7-1.7,0.7
		c-0.6,0-1.2-0.3-1.7-0.7c-0.4-0.4-0.7-1-0.7-1.7c-1.6,1.7-3.8,2.7-6.2,2.8c-1.7,0-3.5-0.4-5-1.4c-1.5-1-2.7-2.3-3.5-3.9
		c-0.9-1.7-1.3-3.7-1.3-5.7c0-1.9,0.4-3.9,1.3-5.7c0.8-1.6,2-3,3.5-3.9c1.5-1,3.1-1.4,4.8-1.4c1.2,0,2.4,0.3,3.6,0.7
		c1,0.4,2,1,2.8,1.7v-7.7c0-0.6,0.2-1.3,0.7-1.7c0.4-0.4,1-0.7,1.7-0.7C250.1,1000.8,250.7,1001,251.1,1001.5z M245.6,1024.1
		c1.1-1.3,1.7-3,1.7-4.7c0.1-1.7-0.5-3.4-1.7-4.7c-2-2.3-5.5-2.5-7.7-0.5c-0.2,0.2-0.3,0.3-0.5,0.5c-2.2,2.8-2.2,6.6,0,9.4
		c1,1.2,2.5,1.9,4.2,1.9C243.1,1026,244.6,1025.3,245.6,1024.1L245.6,1024.1z"/>
	<path class="st9" d="M274.9,1009.5c0.4,0.4,0.7,1.1,0.7,1.7v9.9c0.2,2.4-0.7,4.9-2.3,6.7c-1.6,1.6-3.8,2.4-6.7,2.4
		c-2.9,0-5.1-0.8-6.6-2.4c-1.7-1.8-2.4-4.2-2.3-6.7v-10c0-0.6,0.2-1.3,0.7-1.7c1-1,2.4-1,3.4,0c0.4,0.4,0.7,1.1,0.7,1.7v10
		c-0.1,1.3,0.3,2.5,1,3.6c0.9,0.9,2,1.2,3.2,1.1c1.2,0.1,2.3-0.3,3.2-1.1c0.8-1,1.1-2.3,1-3.6v-10c0-0.6,0.2-1.3,0.7-1.7
		C272.4,1008.6,273.9,1008.6,274.9,1009.5L274.9,1009.5z"/>
	<path class="st9" d="M295.2,1009.5c1.4,0.7,2.1,1.7,2.1,2.8c0,0.5-0.2,1-0.5,1.5c-0.3,0.4-0.8,0.7-1.3,0.7c-0.3,0-0.7-0.1-1-0.2
		c-0.3-0.1-0.5-0.3-0.8-0.4s-0.4-0.3-0.7-0.5c-0.3-0.2-0.8-0.3-1.1-0.3c-0.4-0.1-0.8-0.2-1.2-0.2c-1.7-0.1-3.4,0.6-4.6,1.8
		c-2.3,2.8-2.3,6.7,0,9.5c1.1,1.2,2.7,1.9,4.3,1.9c1,0.1,2-0.1,2.9-0.4c0.3-0.1,0.4-0.3,0.7-0.4c0.3-0.2,0.5-0.3,0.8-0.4
		s0.6-0.2,0.9-0.2c0.6,0,1.1,0.2,1.6,0.6c0.4,0.4,0.6,1,0.6,1.7c-0.1,0.7-0.5,1.4-1.1,1.7c-0.9,0.6-1.8,1-3,1.3
		c-1.2,0.3-2.5,0.5-3.8,0.5c-1.9,0-3.7-0.4-5.3-1.4c-1.6-1-2.8-2.3-3.6-3.9c-0.9-1.7-1.3-3.7-1.3-5.6c0-2,0.4-3.9,1.3-5.7
		c0.9-1.7,2.1-3,3.7-3.9c1.7-1,3.5-1.4,5.3-1.4C291.6,1008.3,293.6,1008.8,295.2,1009.5z"/>
	<path class="st9" d="M319.6,1009.1c0.4,0.4,0.7,1.1,0.7,1.7v16.6c0,0.6-0.2,1.3-0.7,1.7c-0.4,0.4-1,0.7-1.7,0.7
		c-0.6,0-1.2-0.3-1.7-0.7c-0.4-0.4-0.7-1-0.7-1.7c-1.6,1.7-3.8,2.7-6.2,2.8c-1.7,0-3.5-0.4-5-1.4s-2.7-2.3-3.5-3.9
		c-0.9-1.7-1.3-3.7-1.3-5.7c0-1.9,0.4-3.9,1.3-5.7c0.8-1.6,2-3,3.5-3.9s3.1-1.4,4.8-1.4c1.2,0,2.4,0.3,3.6,0.7c1,0.4,2,1,2.8,1.7
		l0,0c0-0.6,0.2-1.3,0.7-1.7c0.4-0.4,1-0.7,1.7-0.7C318.6,1008.5,319.2,1008.7,319.6,1009.1z M314.2,1024.1c1.1-1.3,1.7-3,1.7-4.7
		c0.1-1.7-0.5-3.4-1.7-4.7c-2-2.3-5.5-2.5-7.7-0.5c-0.2,0.2-0.3,0.3-0.5,0.5c-2.2,2.8-2.2,6.6,0,9.4c1,1.2,2.5,1.9,4.2,1.9
		C311.6,1026,313.1,1025.4,314.2,1024.1L314.2,1024.1z"/>
	<path class="st9" d="M336.6,1026c0.7,0.9,0.6,2.3-0.3,3c-0.1,0.1-0.3,0.2-0.3,0.3c-0.8,0.5-1.7,0.8-2.6,0.7c-1.5,0.1-2.9-0.3-4.1-1
		c-1.1-0.7-1.7-2.2-1.7-4.4v-10.9h-1.8c-1.2,0-2.2-0.9-2.2-2.1v-0.1c0-0.6,0.2-1.1,0.6-1.5c0.4-0.4,1-0.6,1.6-0.6h1.8v-2.5
		c0-1.3,1-2.3,2.3-2.4h0.1c0.6,0,1.2,0.3,1.7,0.7s0.7,1.1,0.7,1.7v2.5h2.8c1.2,0,2.2,0.9,2.2,2.1v0.1c0,0.6-0.2,1.1-0.6,1.5
		c-0.4,0.4-1,0.6-1.6,0.6h-2.8v10.7c0,0.4,0.1,0.9,0.4,1.2c0.3,0.3,0.8,0.4,1.2,0.3c0.3,0,0.6-0.1,0.9-0.2c0.3-0.1,0.6-0.2,0.9-0.2
		C336,1025.5,336.3,1025.6,336.6,1026z"/>
	<path class="st9" d="M341.6,1005.9c-0.4-0.4-0.6-1-0.5-1.6v-0.8c-0.1-0.6,0.2-1.1,0.6-1.6c1.2-0.6,2.6-0.6,3.8,0
		c0.4,0.4,0.6,1,0.5,1.6v0.8c0.1,0.6-0.2,1.1-0.6,1.6c-0.6,0.3-1.3,0.4-1.9,0.4S342.2,1006.2,341.6,1005.9z M345.3,1029.2
		c-1,1-2.4,1-3.4,0c-0.4-0.4-0.7-1.1-0.7-1.7v-16.3c0-0.6,0.2-1.3,0.7-1.7c1-1,2.4-1,3.4,0c0.4,0.4,0.7,1.1,0.7,1.7v16.3
		C346,1028.1,345.7,1028.8,345.3,1029.2L345.3,1029.2z"/>
	<path class="st9" d="M368.6,1009.5c0.4,0.4,0.6,1,0.6,1.5c0,0.4-0.1,0.8-0.3,1.2l-7.4,16.2c-0.2,0.4-0.4,0.8-0.8,1
		c-0.3,0.3-0.8,0.4-1.2,0.4h-0.3c-0.4,0-0.9-0.2-1.2-0.4s-0.7-0.7-0.9-1.1l-7.3-16.2c-0.2-0.4-0.3-0.8-0.3-1.2c0-0.5,0.3-1,0.7-1.5
		s1-0.7,1.7-0.7c0.5,0,1,0.2,1.4,0.3c0.4,0.3,0.8,0.6,1,1.1l5.5,12.4l5.4-12.4c0.2-0.4,0.5-0.9,0.9-1.1c0.3-0.3,0.8-0.3,1.2-0.3
		C367.5,1008.8,368.1,1009.1,368.6,1009.5z"/>
	<path class="st9" d="M391.5,1009.1c0.4,0.4,0.7,1.1,0.7,1.7v16.6c0,0.6-0.2,1.3-0.7,1.7c-0.4,0.4-1,0.7-1.7,0.7
		c-0.6,0-1.2-0.3-1.7-0.7c-0.4-0.4-0.7-1-0.7-1.7c-1.6,1.7-3.8,2.7-6.2,2.8c-1.7,0-3.5-0.4-5-1.4c-1.5-1-2.7-2.3-3.5-3.9
		c-0.9-1.7-1.3-3.7-1.3-5.7c0-1.9,0.4-3.9,1.3-5.7c0.8-1.6,2-3,3.5-3.9c1.5-1,3.1-1.4,4.8-1.4c1.2,0,2.4,0.3,3.6,0.7
		c1,0.4,2,1,2.8,1.7l0,0c0-0.6,0.2-1.3,0.7-1.7c0.4-0.4,1-0.7,1.7-0.7C390.5,1008.5,391.1,1008.7,391.5,1009.1z M386.1,1024.1
		c1.1-1.3,1.7-3,1.7-4.7c0.1-1.7-0.5-3.4-1.7-4.7c-2-2.3-5.5-2.5-7.7-0.5c-0.2,0.2-0.3,0.3-0.5,0.5c-2.2,2.8-2.2,6.6,0,9.4
		c1,1.2,2.5,1.9,4.2,1.9C383.5,1026,385.1,1025.4,386.1,1024.1L386.1,1024.1z"/>
	<path class="st9" d="M1356.5,1001.4c1,1.2,1.4,2.8,1.3,4.3c0,3.1-0.9,5.3-2.7,6.5c-1.9,1.3-4.1,1.9-6.3,1.8h-9.8
		c-1.3,0-2.3-1-2.4-2.3v-0.1v-22.7c0-1.3,1-2.3,2.3-2.4h0.1h9.9c5,0,7.5,2.3,7.5,7c0,1.1-0.3,2.2-0.9,3.1s-1.4,1.7-2.4,2.2
		C1354.4,999.5,1355.6,1000.3,1356.5,1001.4z M1350.4,992.1c-0.6-0.6-1.4-0.9-2.3-0.8h-6.5v6.2h6.6c0.8,0,1.5-0.3,2.1-0.8
		c0.6-0.5,0.9-1.3,0.9-2.1C1351.3,993.6,1351,992.8,1350.4,992.1L1350.4,992.1z M1351.7,1008.7c0.7-0.8,1.1-1.8,1-2.9
		c0-1.6-0.4-2.5-1.2-3c-1-0.5-1.9-0.8-3-0.7h-6.8v7.6h7.1C1349.8,1009.7,1350.9,1009.4,1351.7,1008.7L1351.7,1008.7z"/>
	<path class="st9" d="M1380.7,993.4c0.4,0.4,0.7,1.1,0.7,1.7v16.6c0,0.6-0.2,1.3-0.7,1.7c-0.4,0.4-1,0.7-1.7,0.7
		c-0.6,0-1.2-0.3-1.7-0.7c-0.4-0.4-0.7-1-0.7-1.7c-1.6,1.7-3.8,2.7-6.2,2.8c-1.7,0-3.5-0.4-5-1.4c-1.5-1-2.7-2.3-3.5-3.9
		c-0.9-1.7-1.3-3.7-1.3-5.7c0-1.9,0.4-3.9,1.2-5.7c0.8-1.6,2-3,3.5-3.9c1.5-1,3.1-1.4,4.8-1.4c1.2,0,2.4,0.3,3.6,0.7
		c1,0.4,2,1,2.8,1.7l0,0c0-0.6,0.3-1.3,0.7-1.7c0.4-0.4,1-0.7,1.7-0.7C1379.6,992.8,1380.3,992.9,1380.7,993.4z M1375.2,1008.4
		c1.1-1.3,1.7-3,1.7-4.7c0.1-1.7-0.5-3.4-1.7-4.7c-2-2.3-5.5-2.5-7.7-0.5c-0.2,0.2-0.3,0.3-0.5,0.5c-2.2,2.8-2.2,6.6,0,9.4
		c1,1.2,2.5,1.9,4.2,1.9C1372.7,1010.3,1374.2,1009.6,1375.2,1008.4L1375.2,1008.4z"/>
	<path class="st9" d="M1399.4,993.4c0.5,0.3,0.8,1,0.8,1.6c0.1,0.7-0.2,1.3-0.6,1.8c-0.4,0.4-1,0.6-1.5,0.6c-0.4,0-0.9-0.1-1.3-0.3
		l-0.5-0.2c-0.3-0.1-0.6-0.1-0.9-0.1c-0.7,0-1.4,0.3-2,0.6c-0.7,0.5-1.2,1.1-1.6,1.9c-0.4,1-0.6,2-0.6,3v9.3c0,0.6-0.2,1.3-0.7,1.7
		c-1,1-2.4,1-3.4,0c-0.4-0.4-0.7-1.1-0.7-1.7v-16.3c0-0.6,0.2-1.3,0.7-1.7c1-1,2.4-1,3.4,0c0.4,0.4,0.7,1.1,0.7,1.7v0.5
		c0.6-1,1.5-1.9,2.6-2.4c1.1-0.6,2.3-0.9,3.7-0.9C1398.2,992.7,1398.9,992.9,1399.4,993.4z"/>
	<path class="st9" d="M1416.5,993.4c0.5,0.3,0.8,1,0.8,1.6c0.1,0.7-0.2,1.3-0.6,1.8c-0.4,0.4-1,0.6-1.5,0.6c-0.4,0-0.9-0.1-1.3-0.3
		l-0.5-0.2c-0.3-0.1-0.6-0.1-0.9-0.1c-0.7,0-1.4,0.3-2,0.6c-0.7,0.5-1.2,1.1-1.6,1.9c-0.4,1-0.6,2-0.6,3v9.3c0,0.6-0.2,1.3-0.7,1.7
		c-1,1-2.4,1-3.4,0c-0.4-0.4-0.7-1.1-0.7-1.7v-16.3c0-0.6,0.2-1.3,0.7-1.7c1-1,2.4-1,3.4,0c0.4,0.4,0.7,1.1,0.7,1.7v0.5
		c0.6-1,1.5-1.9,2.6-2.4c1.1-0.6,2.3-0.9,3.7-0.9C1415.2,992.7,1415.9,992.9,1416.5,993.4z"/>
	<path class="st9" d="M1420.8,990.2c-0.4-0.4-0.6-1-0.5-1.6v-0.8c-0.1-0.6,0.2-1.1,0.6-1.6c1.2-0.6,2.6-0.6,3.8,0
		c0.4,0.4,0.6,1,0.5,1.6v0.8c0.1,0.6-0.2,1.1-0.6,1.6c-0.6,0.3-1.3,0.4-1.9,0.4C1422,990.6,1421.4,990.4,1420.8,990.2z
		 M1424.4,1013.5c-1,1-2.4,1-3.4,0c-0.4-0.4-0.7-1.1-0.7-1.7v-16.3c0-0.6,0.2-1.3,0.7-1.7c1-1,2.4-1,3.4,0c0.4,0.4,0.7,1.1,0.7,1.7
		v16.3C1425.1,1012.4,1424.9,1013,1424.4,1013.5z"/>
	<path class="st9" d="M1448.7,1009.3c-0.9,1.7-2.3,3-3.9,3.9c-3.4,1.8-7.5,1.8-10.9,0c-1.7-0.9-3-2.3-3.8-3.9
		c-1.9-3.6-1.9-7.7,0-11.3c0.9-1.7,2.3-3,3.8-3.9c3.4-1.8,7.5-1.8,10.9,0c1.7,1,3,2.3,3.9,3.9
		C1450.6,1001.5,1450.6,1005.8,1448.7,1009.3z M1444.6,1000.2c-0.5-1-1.2-1.7-2.2-2.3c-1.8-1.1-4.2-1.1-6,0c-1,0.6-1.7,1.4-2.2,2.3
		c-0.5,1-0.9,2.3-0.8,3.5c0,1.2,0.3,2.3,0.8,3.4c0.5,1,1.2,1.7,2.2,2.3c1.8,1.1,4.2,1.1,6,0c1-0.5,1.7-1.4,2.2-2.3
		c0.5-1,0.9-2.3,0.8-3.4C1445.5,1002.5,1445.1,1001.3,1444.6,1000.2L1444.6,1000.2z"/>
</g>
</svg>
