<?xml version="1.0" encoding="utf-8"?>
<!-- Generator: Adobe Illustrator 19.2.1, SVG Export Plug-In . SVG Version: 6.00 Build 0)  -->
<svg version="1.1" id="Layer_1" xmlns="http://www.w3.org/2000/svg" xmlns:xlink="http://www.w3.org/1999/xlink" x="0px" y="0px"
	 viewBox="0 0 1984.3 1134.9" style="enable-background:new 0 0 1984.3 1134.9;" xml:space="preserve">
<style type="text/css">
	.st0{fill:#FFFFFF;}
	.st1{fill:none;}
	.st2{fill:none;stroke:#4CA1AE;stroke-width:4;stroke-miterlimit:10;}
	.st3{opacity:0.36;}
	.st4{fill:#4CA1AE;}
	.st5{opacity:0.36;fill:#7E6BB0;enable-background:new    ;}
	.st6{opacity:0.21;fill:#7E6BB0;enable-background:new    ;}
	.st7{fill:#7E6BB0;}
</style>
<title>paz</title>
<rect x="164.5" y="11.7" class="st0" width="1655.2" height="1114.6"/>
<path class="st1" d="M834.3,428.7"/>
<path class="st2" d="M960.5,23.7v257H602.8c-6.6,0-12,5.4-12,12v252.6H176.5c-6.6,0-12-5.4-12-12V23.7c0-6.6,5.4-12,12-12h772
	C955.1,11.7,960.5,17.1,960.5,23.7z"/>
<path class="st2" d="M960.5,309.5v223.8c0,6.6-5.4,12-12,12H615.2V321.5c0-6.6,5.4-12,12-12l0,0H960.5z"/>
<path class="st2" d="M960.1,605v180.5H627.2c-6.6,0-12-5.4-12-12V593h332.9C954.8,593,960.1,598.4,960.1,605z"/>
<path class="st2" d="M960.1,814.3v300c0,6.6-5.4,12-12,12H176.5c-6.6,0-12-5.4-12-12V605c0-6.6,5.4-12,12-12h414.3v209.3
	c0,6.6,5.4,12,12,12H960.1z"/>
<path class="st2" d="M1819.7,23.7v509.6c0,6.6-5.4,12-12,12h-421V292.8c0-6.6-5.4-12-12-12h-351v-257c0-6.6,5.4-12,12-12h772
	C1814.3,11.7,1819.7,17.1,1819.7,23.7z"/>
<path class="st2" d="M1362.3,321.5v223.8h-326.6c-6.6,0-12-5.4-12-12V309.5h326.6C1356.9,309.5,1362.3,314.9,1362.3,321.5z"/>
<path class="st2" d="M1819.7,600.3v514c0,6.6-5.4,12-12,12h-778.5c-6.6,0-12-5.4-12-12v-300h357.6c6.6,0,12-5.4,12-12v-214h421
	C1814.4,588.4,1819.7,593.7,1819.7,600.3z"/>
<path class="st2" d="M1362.3,588.3v185.2c0,6.6-5.4,12-12,12h-333.1V600.3c0-6.6,5.4-12,12-12H1362.3z"/>
<g class="st3">
	<path class="st4" d="M736.2,521.3c-0.6,0.5-1.3,0.8-2.1,0.8s-1.6-0.3-2.1-0.8c-0.6-0.5-0.9-1.3-0.8-2.1v-27.4
		c0-0.8,0.3-1.5,0.8-2.1c0.6-0.6,1.4-0.9,2.2-0.8c0.8,0,1.5,0.3,2,0.8c0.6,0.5,0.9,1.3,0.8,2.1v27.5
		C737.1,520,736.8,520.7,736.2,521.3z"/>
	<path class="st4" d="M764,499.1c1.2,1.9,1.8,4.6,1.8,8v12.2c0,0.8-0.3,1.5-0.8,2.1c-1.1,1.1-2.9,1.1-4.1,0
		c-0.5-0.6-0.8-1.3-0.8-2.1v-12.2c0.1-1.5-0.3-2.9-1.1-4.1c-0.9-1.1-2.3-1.6-3.8-1.5c-1.6-0.1-3.2,0.5-4.3,1.6c-1,1.1-1.6,2.5-1.6,4
		v12.2c0,0.8-0.3,1.5-0.8,2.1c-1.1,1.1-2.9,1.1-4.1,0c-0.5-0.6-0.8-1.3-0.8-2.1v-19.6c0-0.8,0.3-1.5,0.8-2.1c1.1-1.1,2.9-1.1,4.1,0
		c0.5,0.6,0.8,1.3,0.8,2.1v0.8c0.9-1.2,2.1-2.2,3.3-2.9c1.4-0.8,2.9-1.3,4.5-1.2C760.6,496.2,762.8,497.2,764,499.1z"/>
	<path class="st4" d="M794.7,487.8c0.5,0.6,0.8,1.3,0.8,2.1v29.3c0,0.8-0.3,1.5-0.8,2.1c-0.5,0.5-1.2,0.8-2,0.8s-1.5-0.3-2-0.8
		s-0.8-1.3-0.8-2c-1.9,2.1-4.6,3.3-7.5,3.3c-2.1,0-4.2-0.6-5.9-1.7c-1.8-1.2-3.2-2.8-4.2-4.7c-1.1-2.1-1.6-4.4-1.5-6.8
		c0-2.4,0.5-4.7,1.5-6.8c0.9-1.9,2.4-3.5,4.2-4.7c1.7-1.1,3.8-1.7,5.8-1.7c1.5,0,2.9,0.3,4.3,0.8c1.2,0.5,2.4,1.2,3.4,2.1v-9.3
		c0-0.8,0.3-1.5,0.8-2.1c0.5-0.5,1.2-0.8,2-0.8C793.4,487,794.1,487.3,794.7,487.8z M788.1,515.1c1.3-1.6,2-3.6,2-5.7
		c0.1-2.1-0.6-4.1-2-5.7c-2.4-2.8-6.6-3-9.4-0.6c-0.2,0.2-0.4,0.4-0.6,0.6c-2.6,3.4-2.6,8,0,11.4c1.2,1.5,3.1,2.3,5,2.3
		C785,517.4,786.8,516.6,788.1,515.1L788.1,515.1z"/>
	<path class="st4" d="M801.8,493.1c-0.5-0.5-0.7-1.2-0.7-1.8v-0.9c-0.1-0.7,0.2-1.4,0.7-1.8c1.5-0.7,3.2-0.7,4.6,0
		c0.5,0.5,0.7,1.2,0.7,1.8v0.9c0.1,0.7-0.2,1.4-0.7,1.9c-0.7,0.4-1.5,0.6-2.3,0.5C803.3,493.7,802.5,493.5,801.8,493.1z
		 M806.2,521.3c-1.1,1.1-2.9,1.1-4.1,0c-0.5-0.6-0.8-1.3-0.8-2.1v-19.6c0-0.8,0.3-1.5,0.8-2.1c1.1-1.1,2.9-1.1,4.1,0
		c0.5,0.6,0.8,1.3,0.8,2.1v19.6C807,520,806.8,520.7,806.2,521.3L806.2,521.3z"/>
	<path class="st4" d="M834.3,497.5c0.5,0.5,0.8,1.1,0.8,1.8c0,0.5-0.2,1-0.4,1.4l-8.9,19.6c-0.2,0.5-0.6,1-1,1.3s-0.9,0.5-1.5,0.5
		h-0.4c-0.5,0-1.1-0.2-1.5-0.5c-0.5-0.3-0.8-0.8-1.1-1.3l-8.8-19.6c-0.2-0.5-0.3-1-0.3-1.5c0-0.7,0.3-1.3,0.8-1.7
		c0.5-0.5,1.3-0.8,2-0.8c0.6,0,1.2,0.2,1.7,0.5s0.9,0.8,1.1,1.3l6.5,15l6.5-15c0.2-0.5,0.5-1,1-1.4c0.4-0.3,0.9-0.5,1.5-0.4
		C833.1,496.7,833.8,497,834.3,497.5z"/>
	<path class="st4" d="M839.7,493.1c-0.5-0.5-0.7-1.2-0.7-1.8v-0.9c-0.1-0.7,0.2-1.4,0.7-1.8c1.5-0.7,3.2-0.7,4.6,0
		c0.5,0.5,0.7,1.2,0.7,1.8v0.9c0.1,0.7-0.2,1.4-0.7,1.9c-0.7,0.4-1.5,0.6-2.3,0.5C841.2,493.7,840.4,493.5,839.7,493.1z
		 M844.1,521.3c-1.1,1.1-2.9,1.1-4.1,0c-0.5-0.6-0.8-1.3-0.8-2.1v-19.6c0-0.8,0.2-1.5,0.8-2.1c1.1-1.1,2.9-1.1,4.1,0
		c0.5,0.6,0.8,1.3,0.8,2.1v19.6C844.9,520,844.6,520.7,844.1,521.3L844.1,521.3z"/>
	<path class="st4" d="M873.3,487.8c0.5,0.6,0.8,1.3,0.8,2.1v29.3c0,0.8-0.3,1.5-0.8,2.1c-0.5,0.5-1.2,0.8-2,0.8s-1.5-0.3-2-0.8
		s-0.8-1.3-0.8-2c-1.9,2.1-4.6,3.3-7.5,3.3c-2.1,0-4.2-0.6-5.9-1.7c-1.8-1.2-3.2-2.8-4.2-4.7c-1.1-2.1-1.6-4.4-1.5-6.8
		c0-2.4,0.5-4.7,1.5-6.8c0.9-1.9,2.4-3.5,4.2-4.7c1.7-1.1,3.8-1.7,5.8-1.7c1.5,0,2.9,0.3,4.3,0.8c1.2,0.5,2.4,1.2,3.4,2.1v-9.3
		c0-0.8,0.3-1.5,0.8-2.1c0.5-0.5,1.2-0.8,2-0.8C872.1,487,872.8,487.3,873.3,487.8z M866.8,515.1c1.3-1.6,2-3.6,2-5.7
		c0.1-2.1-0.6-4.1-2-5.7c-2.4-2.8-6.6-3-9.4-0.6c-0.2,0.2-0.4,0.4-0.6,0.6c-2.6,3.4-2.6,8,0,11.4c1.2,1.5,3.1,2.3,5,2.3
		C863.7,517.4,865.5,516.6,866.8,515.1L866.8,515.1z"/>
	<path class="st4" d="M902,497.5c0.5,0.6,0.8,1.3,0.8,2.1v12.1c0,3.4-0.9,6.1-2.8,8c-1.9,1.9-4.6,2.9-8,2.9c-3.5,0-6.1-1-8-2.9
		s-2.8-4.6-2.8-8v-12c0-0.8,0.3-1.5,0.8-2.1c1.1-1.1,2.9-1.1,4.1,0c0.5,0.6,0.8,1.3,0.8,2.1v12.1c-0.1,1.5,0.3,3.1,1.3,4.3
		c1,1,2.4,1.5,3.8,1.4c1.4,0.1,2.9-0.4,3.9-1.4c0.9-1.2,1.4-2.8,1.3-4.3v-12.1c0-0.8,0.3-1.5,0.8-2.1
		C899.1,496.4,900.9,496.4,902,497.5L902,497.5z"/>
	<path class="st4" d="M931.6,497c0.5,0.6,0.8,1.3,0.8,2.1v20.1c0,0.8-0.3,1.5-0.8,2.1c-0.5,0.5-1.2,0.8-2,0.8s-1.5-0.3-2-0.8
		s-0.8-1.3-0.8-2c-1.9,2.1-4.6,3.3-7.5,3.3c-2.1,0-4.2-0.6-5.9-1.7c-1.8-1.2-3.2-2.8-4.2-4.7c-1.1-2.1-1.6-4.4-1.5-6.8
		c0-2.4,0.5-4.7,1.5-6.8c0.9-1.9,2.4-3.5,4.2-4.7c1.7-1.1,3.8-1.7,5.8-1.7c1.5,0,2.9,0.3,4.3,0.8c1.2,0.5,2.4,1.2,3.4,2.1l0,0
		c0-0.8,0.3-1.5,0.8-2.1c0.5-0.5,1.2-0.8,2-0.8C930.3,496.3,931,496.5,931.6,497z M925,515.1c1.3-1.6,2-3.6,2-5.7
		c0.1-2.1-0.6-4.1-2-5.7c-2.4-2.8-6.6-3-9.4-0.6c-0.2,0.2-0.4,0.4-0.6,0.6c-2.6,3.4-2.6,8,0,11.4c1.2,1.5,3.1,2.3,5,2.3
		C921.9,517.4,923.8,516.6,925,515.1z"/>
	<path class="st4" d="M943.9,521.3c-0.5,0.6-1.3,0.9-2.1,0.8c-0.8,0-1.5-0.3-2-0.8c-0.5-0.6-0.8-1.3-0.8-2.1v-29.3
		c0-1.6,1.2-2.9,2.8-2.9h0.1c0.8,0,1.5,0.3,2,0.8c0.5,0.6,0.8,1.3,0.8,2.1v29.3C944.7,520,944.4,520.7,943.9,521.3z"/>
</g>
<g class="st3">
	<path class="st4" d="M1047,521.3c-0.6,0.5-1.3,0.8-2.1,0.8c-0.8,0-1.6-0.3-2.1-0.8c-0.6-0.5-0.9-1.3-0.8-2.1v-27.4
		c0-0.8,0.3-1.5,0.9-2.1s1.4-0.9,2.2-0.8c0.8,0,1.5,0.3,2,0.8c0.6,0.5,0.9,1.3,0.8,2.1v27.5C1047.9,520,1047.6,520.7,1047,521.3z"/>
	<path class="st4" d="M1074.8,499.1c1.2,1.9,1.8,4.6,1.8,8v12.2c0,0.8-0.3,1.5-0.8,2.1c-1.1,1.1-2.9,1.1-4.1,0
		c-0.5-0.6-0.8-1.3-0.8-2.1v-12.2c0.1-1.5-0.3-2.9-1.1-4.1c-0.9-1.1-2.3-1.6-3.8-1.5c-1.6-0.1-3.2,0.5-4.3,1.6c-1,1.1-1.6,2.5-1.6,4
		v12.2c0,0.8-0.3,1.5-0.8,2.1c-1.1,1.1-2.9,1.1-4.1,0c-0.5-0.6-0.8-1.3-0.8-2.1v-19.6c0-0.8,0.3-1.5,0.8-2.1c1.1-1.1,2.9-1.1,4.1,0
		c0.5,0.6,0.8,1.3,0.8,2.1v0.8c0.9-1.2,2.1-2.2,3.3-2.9c1.4-0.8,2.9-1.3,4.5-1.2C1071.3,496.2,1073.6,497.2,1074.8,499.1z"/>
	<path class="st4" d="M1105.4,487.8c0.5,0.6,0.8,1.3,0.8,2.1v29.3c0,0.8-0.3,1.5-0.8,2.1c-0.5,0.5-1.2,0.8-2,0.8s-1.5-0.3-2-0.8
		s-0.8-1.3-0.8-2c-1.9,2.1-4.6,3.3-7.5,3.3c-2.1,0-4.2-0.6-5.9-1.7c-1.8-1.2-3.2-2.8-4.2-4.7c-1.1-2.1-1.6-4.4-1.5-6.8
		c0-2.4,0.5-4.7,1.5-6.8c0.9-1.9,2.4-3.5,4.2-4.7c1.7-1.1,3.8-1.7,5.8-1.7c1.5,0,2.9,0.3,4.3,0.8c1.2,0.5,2.4,1.2,3.4,2.1v-9.3
		c0-0.8,0.3-1.5,0.8-2.1c0.5-0.5,1.2-0.8,2-0.8C1104.1,487,1104.9,487.3,1105.4,487.8z M1098.8,515.1c1.3-1.6,2-3.6,1.9-5.7
		c0.1-2.1-0.6-4.1-1.9-5.7c-2.4-2.8-6.6-3-9.4-0.6c-0.2,0.2-0.4,0.4-0.6,0.6c-2.6,3.4-2.6,8,0,11.4c1.2,1.5,3.1,2.3,5,2.3
		C1095.7,517.4,1097.6,516.6,1098.8,515.1L1098.8,515.1z"/>
	<path class="st4" d="M1112.6,493.1c-0.5-0.5-0.7-1.2-0.7-1.8v-0.9c-0.1-0.7,0.2-1.4,0.7-1.8c1.5-0.7,3.2-0.7,4.6,0
		c0.5,0.5,0.7,1.2,0.7,1.8v0.9c0.1,0.7-0.2,1.4-0.7,1.9c-0.7,0.4-1.5,0.6-2.3,0.5C1114.1,493.7,1113.3,493.5,1112.6,493.1z
		 M1117,521.3c-1.1,1.1-2.9,1.1-4.1,0c-0.5-0.6-0.8-1.3-0.8-2.1v-19.6c0-0.8,0.3-1.5,0.8-2.1c1.1-1.1,2.9-1.1,4.1,0
		c0.5,0.6,0.8,1.3,0.8,2.1v19.6C1117.8,520,1117.5,520.7,1117,521.3L1117,521.3z"/>
	<path class="st4" d="M1145,497.5c0.5,0.5,0.8,1.1,0.8,1.8c0,0.5-0.2,1-0.4,1.4l-8.9,19.6c-0.2,0.5-0.6,1-1,1.3s-0.9,0.5-1.4,0.5
		h-0.4c-0.5,0-1.1-0.2-1.5-0.5c-0.5-0.3-0.8-0.8-1.1-1.3l-8.8-19.6c-0.2-0.5-0.3-1-0.3-1.5c0-0.7,0.3-1.3,0.8-1.7
		c0.5-0.5,1.3-0.8,2-0.8c0.6,0,1.2,0.2,1.7,0.5s0.9,0.8,1.1,1.3l6.6,15l6.5-15c0.2-0.5,0.5-1,1-1.4c0.4-0.3,0.9-0.5,1.5-0.4
		C1143.8,496.6,1144.5,497,1145,497.5z"/>
	<path class="st4" d="M1150.5,493.1c-0.5-0.5-0.7-1.2-0.7-1.8v-0.9c-0.1-0.7,0.2-1.4,0.7-1.8c1.5-0.7,3.2-0.7,4.6,0
		c0.5,0.5,0.7,1.2,0.7,1.8v0.9c0.1,0.7-0.2,1.4-0.7,1.9c-0.7,0.4-1.5,0.6-2.3,0.5C1152,493.7,1151.2,493.5,1150.5,493.1z
		 M1154.9,521.3c-1.1,1.1-2.9,1.1-4.1,0c-0.5-0.6-0.8-1.3-0.8-2.1v-19.6c0-0.8,0.3-1.5,0.8-2.1c1.1-1.1,2.9-1.1,4.1,0
		c0.5,0.6,0.8,1.3,0.8,2.1v19.6C1155.7,520,1155.4,520.7,1154.9,521.3L1154.9,521.3z"/>
	<path class="st4" d="M1184.1,487.8c0.5,0.6,0.8,1.3,0.8,2.1v29.3c0,0.8-0.3,1.5-0.8,2.1c-0.5,0.5-1.2,0.8-2,0.8s-1.5-0.3-2-0.8
		s-0.8-1.3-0.8-2c-1.9,2.1-4.6,3.3-7.5,3.3c-2.1,0-4.2-0.6-5.9-1.7c-1.8-1.2-3.2-2.8-4.2-4.7c-1.1-2.1-1.6-4.4-1.5-6.8
		c0-2.4,0.5-4.7,1.5-6.8c0.9-1.9,2.4-3.5,4.2-4.7c1.7-1.1,3.8-1.7,5.8-1.7c1.5,0,2.9,0.3,4.3,0.8c1.2,0.5,2.4,1.2,3.4,2.1v-9.3
		c0-0.8,0.3-1.5,0.8-2.1c0.5-0.5,1.2-0.8,2-0.8C1182.8,487,1183.6,487.3,1184.1,487.8z M1177.5,515.1c1.3-1.6,2-3.6,1.9-5.7
		c0.1-2.1-0.6-4.1-1.9-5.7c-2.4-2.8-6.6-3-9.4-0.6c-0.2,0.2-0.4,0.4-0.6,0.6c-2.6,3.4-2.6,8,0,11.4c1.2,1.5,3.1,2.3,5,2.3
		C1174.4,517.4,1176.3,516.6,1177.5,515.1L1177.5,515.1z"/>
	<path class="st4" d="M1212.7,497.5c0.5,0.6,0.8,1.3,0.8,2.1v12.1c0,3.4-0.9,6.1-2.8,8s-4.5,2.9-8,2.9s-6.1-1-8-2.9s-2.8-4.6-2.8-8
		v-12c0-0.8,0.3-1.5,0.8-2.1c1.1-1.1,2.9-1.1,4.1,0c0.5,0.6,0.8,1.3,0.8,2.1v12.1c-0.1,1.5,0.3,3.1,1.3,4.3c1,1,2.4,1.5,3.8,1.4
		c1.4,0.1,2.9-0.4,3.9-1.4c0.9-1.2,1.4-2.8,1.3-4.3v-12.1c0-0.8,0.3-1.5,0.8-2.1C1209.9,496.4,1211.7,496.4,1212.7,497.5
		L1212.7,497.5z"/>
	<path class="st4" d="M1242.3,497c0.5,0.6,0.8,1.3,0.8,2.1v20.1c0,0.8-0.3,1.5-0.8,2.1c-0.5,0.5-1.2,0.8-2,0.8s-1.5-0.3-2-0.8
		s-0.8-1.3-0.8-2c-1.9,2.1-4.6,3.3-7.5,3.3c-2.1,0-4.2-0.6-5.9-1.7c-1.8-1.2-3.2-2.8-4.2-4.7c-1.1-2.1-1.6-4.4-1.5-6.8
		c0-2.4,0.5-4.7,1.5-6.8c0.9-1.9,2.4-3.5,4.2-4.7c1.7-1.1,3.8-1.7,5.8-1.7c1.5,0,2.9,0.3,4.3,0.8c1.2,0.5,2.4,1.2,3.4,2.1l0,0
		c0-0.8,0.3-1.5,0.8-2.1c0.5-0.5,1.2-0.8,2-0.8C1241,496.3,1241.8,496.5,1242.3,497z M1235.7,515.1c1.3-1.6,2-3.6,1.9-5.7
		c0.1-2.1-0.6-4.1-1.9-5.7c-2.4-2.8-6.6-3-9.4-0.6c-0.2,0.2-0.4,0.4-0.6,0.6c-2.6,3.4-2.6,8,0,11.4c1.2,1.5,3.1,2.3,5,2.3
		C1232.6,517.4,1234.5,516.6,1235.7,515.1z"/>
	<path class="st4" d="M1254.6,521.3c-0.5,0.5-1.3,0.8-2.1,0.8c-0.8,0-1.5-0.3-2-0.8c-0.5-0.6-0.8-1.3-0.8-2.1v-29.3
		c0-1.6,1.2-2.9,2.8-2.9h0.1c0.8,0,1.5,0.3,2,0.8c0.5,0.6,0.8,1.3,0.8,2.1v29.3C1255.5,520,1255.2,520.7,1254.6,521.3z"/>
</g>
<g class="st3">
	<path class="st4" d="M736.2,771.8c-0.6,0.5-1.3,0.8-2.1,0.8s-1.6-0.3-2.1-0.8c-0.6-0.5-0.9-1.3-0.8-2.1v-27.4
		c0-0.8,0.3-1.5,0.8-2.1c0.6-0.6,1.4-0.9,2.2-0.8c0.8,0,1.5,0.3,2,0.8c0.6,0.5,0.9,1.3,0.8,2.1v27.5
		C737.1,770.6,736.8,771.3,736.2,771.8z"/>
	<path class="st4" d="M764,749.7c1.2,1.9,1.8,4.6,1.8,8v12.2c0,0.8-0.3,1.5-0.8,2.1c-1.1,1.1-2.9,1.1-4.1,0
		c-0.5-0.6-0.8-1.3-0.8-2.1v-12.2c0.1-1.5-0.3-2.9-1.1-4.1c-0.9-1.1-2.3-1.6-3.8-1.5c-1.6-0.1-3.2,0.5-4.3,1.6c-1,1.1-1.6,2.5-1.6,4
		v12.2c0,0.8-0.3,1.5-0.8,2.1c-1.1,1.1-2.9,1.1-4.1,0c-0.5-0.6-0.8-1.3-0.8-2.1v-19.6c0-0.8,0.3-1.5,0.8-2.1c1.1-1.1,2.9-1.1,4.1,0
		c0.5,0.6,0.8,1.3,0.8,2.1v0.8c0.9-1.2,2.1-2.2,3.3-2.9c1.4-0.8,2.9-1.3,4.5-1.2C760.6,746.8,762.8,747.8,764,749.7z"/>
	<path class="st4" d="M794.7,738.3c0.5,0.6,0.8,1.3,0.8,2.1v29.3c0,0.8-0.3,1.5-0.8,2.1c-0.5,0.5-1.2,0.8-2,0.8s-1.5-0.3-2-0.8
		s-0.8-1.3-0.8-2c-1.9,2.1-4.6,3.3-7.5,3.3c-2.1,0-4.2-0.6-6-1.7c-1.8-1.2-3.2-2.8-4.2-4.7c-1.1-2.1-1.6-4.4-1.5-6.8
		c0-2.4,0.5-4.7,1.5-6.8c0.9-1.9,2.4-3.5,4.2-4.7c1.7-1.1,3.8-1.7,5.8-1.7c1.5,0,2.9,0.3,4.3,0.8c1.2,0.5,2.4,1.2,3.4,2.1v-9.1
		c0-0.8,0.3-1.5,0.8-2.1c0.5-0.5,1.2-0.8,2-0.8C793.4,737.5,794.1,737.8,794.7,738.3z M788.1,765.7c1.3-1.6,2-3.6,1.9-5.7
		c0.1-2.1-0.6-4.1-2-5.7c-2.4-2.8-6.6-3-9.4-0.6c-0.2,0.2-0.4,0.4-0.6,0.6c-2.6,3.4-2.6,8,0,11.4c1.2,1.5,3.1,2.3,5,2.3
		C785,768,786.8,767.2,788.1,765.7z"/>
	<path class="st4" d="M801.8,743.7c-0.5-0.5-0.7-1.2-0.7-1.8V741c-0.1-0.7,0.2-1.4,0.7-1.8c1.5-0.7,3.2-0.7,4.6,0
		c0.5,0.5,0.7,1.2,0.7,1.8v0.9c0.1,0.7-0.2,1.4-0.7,1.9c-0.7,0.4-1.5,0.6-2.3,0.5C803.3,744.3,802.5,744.1,801.8,743.7z
		 M806.2,771.8c-1.1,1.1-2.9,1.1-4.1,0c-0.5-0.6-0.8-1.3-0.8-2.1v-19.6c0-0.8,0.3-1.5,0.8-2.1c1.1-1.1,2.9-1.1,4.1,0
		c0.5,0.6,0.8,1.3,0.8,2.1v19.6C807,770.6,806.8,771.3,806.2,771.8L806.2,771.8z"/>
	<path class="st4" d="M834.3,748.1c0.5,0.5,0.8,1.1,0.8,1.8c0,0.5-0.2,1-0.4,1.4l-8.9,19.6c-0.2,0.5-0.6,1-1,1.3s-0.9,0.5-1.5,0.5
		h-0.4c-0.5,0-1.1-0.2-1.5-0.5c-0.5-0.3-0.8-0.8-1.1-1.3l-8.8-19.6c-0.2-0.5-0.3-1-0.3-1.5c0-0.7,0.3-1.3,0.8-1.7
		c0.5-0.5,1.3-0.8,2-0.8c0.6,0,1.2,0.2,1.7,0.5s0.9,0.8,1.1,1.3l6.5,15l6.5-15c0.2-0.5,0.5-1,1-1.4c0.4-0.3,0.9-0.5,1.5-0.4
		C833.1,747.2,833.8,747.5,834.3,748.1z"/>
	<path class="st4" d="M839.7,743.7c-0.5-0.5-0.7-1.2-0.7-1.8V741c-0.1-0.7,0.2-1.4,0.7-1.8c1.5-0.7,3.2-0.7,4.6,0
		c0.5,0.5,0.7,1.2,0.7,1.8v0.9c0.1,0.7-0.2,1.4-0.7,1.9c-0.7,0.4-1.5,0.6-2.3,0.5C841.2,744.3,840.4,744.1,839.7,743.7z
		 M844.1,771.8c-1.1,1.1-2.9,1.1-4.1,0c-0.5-0.6-0.8-1.3-0.8-2.1v-19.6c0-0.8,0.3-1.5,0.8-2.1c1.1-1.1,2.9-1.1,4.1,0
		c0.5,0.6,0.8,1.3,0.8,2.1v19.6C844.9,770.6,844.6,771.3,844.1,771.8z"/>
	<path class="st4" d="M873.3,738.3c0.5,0.6,0.8,1.3,0.8,2.1v29.3c0,0.8-0.3,1.5-0.8,2.1c-0.5,0.5-1.2,0.8-2,0.8s-1.5-0.3-2-0.8
		s-0.8-1.3-0.8-2c-1.9,2.1-4.6,3.3-7.5,3.3c-2.1,0-4.2-0.6-5.9-1.7c-1.8-1.2-3.2-2.8-4.2-4.7c-1.1-2.1-1.6-4.4-1.5-6.8
		c0-2.4,0.5-4.7,1.5-6.8c0.9-1.9,2.3-3.5,4.1-4.7c1.7-1.1,3.8-1.7,5.8-1.7c1.5,0,2.9,0.3,4.3,0.8c1.2,0.5,2.4,1.2,3.4,2.1v-9.3
		c0-0.8,0.3-1.5,0.8-2.1c0.5-0.5,1.2-0.8,2-0.8C872,737.5,872.8,737.8,873.3,738.3z M866.8,765.7c1.3-1.6,2-3.6,2-5.7
		c0.1-2.1-0.6-4.1-2-5.7c-2.4-2.8-6.6-3-9.4-0.6c-0.2,0.2-0.4,0.4-0.6,0.6c-2.6,3.4-2.6,8,0,11.4c1.2,1.5,3.1,2.3,5,2.3
		S865.5,767.2,866.8,765.7z"/>
	<path class="st4" d="M902,748.1c0.5,0.6,0.8,1.3,0.8,2.1v12.1c0,3.4-0.9,6.1-2.8,8s-4.6,2.9-8,2.9c-3.5,0-6.1-1-8-2.9
		s-2.8-4.6-2.8-8v-12.1c0-0.8,0.3-1.5,0.8-2.1c1.1-1.1,2.9-1.1,4.1,0c0.5,0.6,0.8,1.3,0.8,2.1v12.1c-0.1,1.5,0.3,3.1,1.3,4.3
		c1,1,2.4,1.5,3.8,1.4c1.4,0.1,2.9-0.4,3.9-1.4c0.9-1.2,1.4-2.8,1.3-4.3v-12.1c0-0.8,0.3-1.5,0.8-2.1C899.1,747,900.9,747,902,748.1
		L902,748.1z"/>
	<path class="st4" d="M931.6,747.6c0.5,0.6,0.8,1.3,0.8,2.1v20.1c0,0.8-0.3,1.5-0.8,2.1c-0.5,0.5-1.2,0.8-2,0.8s-1.5-0.3-2-0.8
		s-0.8-1.3-0.8-2c-1.9,2.1-4.6,3.3-7.5,3.3c-2.1,0-4.2-0.6-5.9-1.7c-1.8-1.2-3.2-2.8-4.2-4.7c-1.1-2.1-1.6-4.4-1.5-6.8
		c0-2.4,0.5-4.7,1.5-6.8c0.9-1.9,2.4-3.5,4.2-4.7c1.7-1.1,3.7-1.7,5.7-1.7c1.5,0,2.9,0.3,4.3,0.8c1.2,0.5,2.4,1.2,3.4,2.1l0,0
		c0-0.8,0.3-1.5,0.8-2.1c0.5-0.5,1.2-0.8,2-0.8C930.2,746.8,931,747.1,931.6,747.6z M925,765.7c1.3-1.6,2-3.6,2-5.7
		c0.1-2.1-0.6-4.1-2-5.7c-2.4-2.8-6.6-3-9.4-0.6c-0.2,0.2-0.4,0.4-0.6,0.6c-2.6,3.4-2.6,8,0,11.4c1.2,1.5,3.1,2.3,5,2.3
		S923.8,767.2,925,765.7z"/>
	<path class="st4" d="M943.9,771.8c-0.5,0.6-1.3,0.9-2.1,0.8c-0.8,0-1.5-0.3-2-0.8c-0.5-0.6-0.8-1.3-0.8-2.1v-29.3
		c0-1.6,1.2-2.9,2.8-2.9h0.1c0.8,0,1.5,0.3,2,0.8c0.5,0.6,0.8,1.3,0.8,2.1v29.3C944.7,770.6,944.4,771.3,943.9,771.8z"/>
</g>
<g class="st3">
	<path class="st4" d="M1037,771.8c-0.6,0.5-1.3,0.8-2.1,0.8c-0.8,0-1.6-0.3-2.1-0.8c-0.6-0.5-0.9-1.3-0.8-2.1v-27.4
		c0-0.8,0.3-1.5,0.9-2.1s1.4-0.9,2.2-0.8c0.8,0,1.5,0.3,2,0.8c0.6,0.5,0.9,1.3,0.8,2.1v27.5C1037.9,770.6,1037.6,771.3,1037,771.8z"
		/>
	<path class="st4" d="M1064.8,749.7c1.2,1.9,1.8,4.6,1.8,8v12.2c0,0.8-0.3,1.5-0.8,2.1c-1.1,1.1-2.9,1.1-4.1,0
		c-0.5-0.6-0.8-1.3-0.8-2.1v-12.2c0.1-1.5-0.3-2.9-1.1-4.1c-0.9-1.1-2.3-1.6-3.8-1.5c-1.6-0.1-3.2,0.5-4.3,1.6c-1,1.1-1.6,2.5-1.6,4
		v12.2c0,0.8-0.3,1.5-0.8,2.1c-1.1,1.1-2.9,1.1-4.1,0c-0.5-0.6-0.8-1.3-0.8-2.1v-19.6c0-0.8,0.3-1.5,0.8-2.1c1.1-1.1,2.9-1.1,4.1,0
		c0.5,0.6,0.8,1.3,0.8,2.1v0.8c0.9-1.2,2.1-2.2,3.3-2.9c1.4-0.8,2.9-1.3,4.5-1.2C1061.3,746.8,1063.6,747.8,1064.8,749.7z"/>
	<path class="st4" d="M1095.4,738.3c0.5,0.6,0.8,1.3,0.8,2.1v29.3c0,0.8-0.3,1.5-0.8,2.1c-0.5,0.5-1.2,0.8-2,0.8s-1.5-0.3-2-0.8
		s-0.8-1.3-0.8-2c-1.9,2.1-4.6,3.3-7.5,3.3c-2.1,0-4.2-0.6-5.9-1.7c-1.8-1.2-3.2-2.8-4.2-4.7c-1.1-2.1-1.6-4.4-1.5-6.8
		c0-2.4,0.5-4.7,1.5-6.8c0.9-1.9,2.4-3.5,4.2-4.7c1.7-1.1,3.8-1.7,5.8-1.7c1.5,0,2.9,0.3,4.3,0.8c1.2,0.5,2.4,1.2,3.4,2.1v-9.1
		c0-0.8,0.3-1.5,0.8-2.1c0.5-0.5,1.2-0.8,2-0.8C1094.1,737.5,1094.9,737.8,1095.4,738.3z M1088.8,765.7c1.3-1.6,2-3.6,1.9-5.7
		c0.1-2.1-0.6-4.1-1.9-5.7c-2.4-2.8-6.6-3-9.4-0.6c-0.2,0.2-0.4,0.4-0.6,0.6c-2.6,3.4-2.6,8,0,11.4c1.2,1.5,3.1,2.3,5,2.3
		C1085.7,768,1087.6,767.2,1088.8,765.7L1088.8,765.7z"/>
	<path class="st4" d="M1102.6,743.7c-0.5-0.5-0.7-1.2-0.7-1.8V741c-0.1-0.7,0.2-1.4,0.7-1.8c1.5-0.7,3.2-0.7,4.6,0
		c0.5,0.5,0.7,1.2,0.7,1.8v0.9c0.1,0.7-0.2,1.4-0.7,1.9c-0.7,0.4-1.5,0.6-2.3,0.5C1104.1,744.3,1103.3,744.1,1102.6,743.7z
		 M1107,771.8c-1.1,1.1-2.9,1.1-4.1,0c-0.5-0.6-0.8-1.3-0.8-2.1v-19.6c0-0.8,0.3-1.5,0.8-2.1c1.1-1.1,2.9-1.1,4.1,0
		c0.5,0.6,0.8,1.3,0.8,2.1v19.6C1107.8,770.5,1107.5,771.3,1107,771.8L1107,771.8z"/>
	<path class="st4" d="M1135,748.1c0.5,0.5,0.8,1.1,0.8,1.8c0,0.5-0.2,1-0.4,1.4l-8.9,19.6c-0.2,0.5-0.6,1-1,1.3s-0.9,0.5-1.4,0.5
		h-0.4c-0.5,0-1.1-0.2-1.5-0.5c-0.5-0.3-0.8-0.8-1.1-1.3l-8.8-19.6c-0.2-0.5-0.3-1-0.3-1.5c0-0.7,0.3-1.3,0.8-1.7
		c0.5-0.5,1.3-0.8,2-0.8c0.6,0,1.2,0.2,1.7,0.5s0.9,0.8,1.1,1.3l6.6,15l6.5-15c0.2-0.5,0.5-1,1-1.4c0.4-0.3,0.9-0.5,1.5-0.4
		C1133.8,747.2,1134.5,747.5,1135,748.1z"/>
	<path class="st4" d="M1140.5,743.7c-0.5-0.5-0.7-1.2-0.7-1.8V741c-0.1-0.7,0.2-1.4,0.7-1.8c1.5-0.7,3.2-0.7,4.6,0
		c0.5,0.5,0.7,1.2,0.7,1.8v0.9c0.1,0.7-0.2,1.4-0.7,1.9c-0.7,0.4-1.5,0.6-2.3,0.5C1142,744.3,1141.2,744.1,1140.5,743.7z
		 M1144.9,771.8c-1.1,1.1-2.9,1.1-4.1,0c-0.5-0.6-0.8-1.3-0.8-2.1v-19.6c0-0.8,0.3-1.5,0.8-2.1c1.1-1.1,2.9-1.1,4.1,0
		c0.5,0.6,0.8,1.3,0.8,2.1v19.6C1145.7,770.6,1145.4,771.3,1144.9,771.8L1144.9,771.8z"/>
	<path class="st4" d="M1174.1,738.3c0.5,0.6,0.8,1.3,0.8,2.1v29.3c0,0.8-0.3,1.5-0.8,2.1c-0.5,0.5-1.2,0.8-2,0.8s-1.5-0.3-2-0.8
		s-0.8-1.3-0.8-2c-1.9,2.1-4.6,3.3-7.5,3.3c-2.1,0-4.2-0.6-5.9-1.7c-1.8-1.2-3.2-2.8-4.2-4.7c-1.1-2.1-1.6-4.4-1.5-6.8
		c0-2.4,0.5-4.7,1.5-6.8c0.9-1.9,2.4-3.5,4.2-4.7c1.7-1.1,3.8-1.7,5.8-1.7c1.5,0,2.9,0.3,4.3,0.8c1.2,0.5,2.4,1.2,3.4,2.1v-9.1
		c0-0.8,0.3-1.5,0.8-2.1c0.5-0.5,1.2-0.8,2-0.8C1172.8,737.5,1173.6,737.8,1174.1,738.3z M1167.5,765.7c1.3-1.6,2-3.6,1.9-5.7
		c0.1-2.1-0.6-4.1-1.9-5.7c-2.4-2.8-6.6-3-9.4-0.6c-0.2,0.2-0.4,0.4-0.6,0.6c-2.6,3.4-2.6,8,0,11.4c1.2,1.5,3.1,2.3,5,2.3
		S1166.3,767.2,1167.5,765.7z"/>
	<path class="st4" d="M1202.7,748.1c0.5,0.6,0.8,1.3,0.8,2.1v12.1c0,3.4-0.9,6.1-2.8,8s-4.5,2.9-8,2.9s-6.1-1-8-2.9s-2.8-4.6-2.8-8
		v-12.1c0-0.8,0.3-1.5,0.8-2.1c1.1-1.1,2.9-1.1,4.1,0c0.5,0.6,0.8,1.3,0.8,2.1v12.1c-0.1,1.5,0.3,3.1,1.3,4.3c1,1,2.4,1.5,3.8,1.4
		c1.4,0.1,2.9-0.4,3.9-1.4c0.9-1.2,1.4-2.8,1.3-4.3v-12.1c0-0.8,0.3-1.5,0.8-2.1C1199.9,747,1201.7,747,1202.7,748.1L1202.7,748.1z"
		/>
	<path class="st4" d="M1232.3,747.6c0.5,0.6,0.8,1.3,0.8,2.1v20.1c0,0.8-0.3,1.5-0.8,2.1c-0.5,0.5-1.2,0.8-2,0.8s-1.5-0.3-2-0.8
		s-0.8-1.3-0.8-2c-1.9,2.1-4.6,3.3-7.5,3.3c-2.1,0-4.2-0.6-6-1.7c-1.8-1.2-3.2-2.8-4.2-4.7c-1.1-2.1-1.6-4.4-1.5-6.8
		c0-2.4,0.5-4.7,1.5-6.8c0.9-1.9,2.4-3.6,4.2-4.7c1.7-1.1,3.8-1.7,5.8-1.7c1.5,0,2.9,0.3,4.3,0.8c1.2,0.5,2.4,1.2,3.4,2.1l0,0
		c0-0.8,0.3-1.5,0.8-2.1c0.5-0.5,1.2-0.8,2-0.8C1231,746.8,1231.8,747.1,1232.3,747.6z M1225.7,765.7c1.3-1.6,2-3.6,1.9-5.7
		c0.1-2.1-0.6-4.1-1.9-5.7c-2.4-2.8-6.6-3-9.4-0.6c-0.2,0.2-0.4,0.4-0.6,0.6c-2.6,3.4-2.6,8,0,11.4c1.2,1.5,3.1,2.3,5,2.3
		S1224.5,767.2,1225.7,765.7z"/>
	<path class="st4" d="M1244.6,771.8c-0.5,0.5-1.3,0.8-2.1,0.8c-0.8,0-1.5-0.3-2-0.8c-0.5-0.6-0.8-1.3-0.8-2.1v-29.3
		c0-1.6,1.2-2.9,2.8-2.9h0.1c0.8,0,1.5,0.3,2,0.8c0.5,0.6,0.8,1.3,0.8,2.1v29.3C1245.5,770.6,1245.2,771.3,1244.6,771.8z"/>
</g>
<g class="st3">
	<path class="st4" d="M763.3,48c1.6,0.8,2.5,2,2.5,3.4c0,0.7-0.2,1.3-0.6,1.8c-0.4,0.5-1,0.8-1.6,0.8c-0.4,0-0.8-0.1-1.2-0.2
		c-0.3-0.2-0.6-0.3-0.9-0.6c-0.3-0.2-0.6-0.4-0.9-0.6c-0.4-0.2-0.9-0.3-1.4-0.4c-0.5-0.1-1-0.2-1.5-0.2c-2.1-0.1-4.1,0.7-5.6,2.2
		c-1.4,1.6-2.1,3.7-2,5.8c-0.1,2.1,0.6,4.1,2,5.7c1.3,1.5,3.2,2.3,5.2,2.3c1.2,0.1,2.4-0.1,3.5-0.6c0.3-0.1,0.5-0.3,0.8-0.5
		s0.6-0.4,0.9-0.6c0.3-0.1,0.7-0.2,1-0.2c0.7,0,1.4,0.2,1.9,0.8c0.5,0.5,0.7,1.2,0.7,1.9c-0.1,0.9-0.6,1.7-1.3,2.1
		c-1,0.7-2.2,1.3-3.4,1.6c-1.5,0.4-3.1,0.6-4.7,0.6c-2.3,0-4.5-0.5-6.4-1.7c-1.9-1.1-3.3-2.8-4.3-4.7c-1-2.1-1.6-4.4-1.5-6.7
		c0-2.4,0.5-4.7,1.6-6.8c1-1.9,2.6-3.6,4.4-4.7c2-1.1,4.2-1.7,6.5-1.7C759,46.7,761.3,47.1,763.3,48z"/>
	<path class="st4" d="M792.9,66.8c-1.1,2-2.7,3.6-4.7,4.7c-4.1,2.2-9,2.2-13.1,0c-2-1.1-3.6-2.7-4.7-4.7c-2.3-4.3-2.3-9.4,0-13.6
		c1.1-2,2.7-3.6,4.7-4.7c4.1-2.2,9-2.2,13.1,0c2,1.1,3.6,2.7,4.7,4.7C795.1,57.4,795.1,62.5,792.9,66.8z M787.9,55.8
		c-0.6-1.2-1.5-2.1-2.6-2.8c-2.2-1.3-5-1.3-7.3,0c-1.1,0.7-2,1.7-2.6,2.8c-0.7,1.3-1,2.7-1,4.2c0,1.4,0.3,2.9,1,4.1
		c0.6,1.2,1.5,2.1,2.6,2.8c2.2,1.3,5,1.3,7.3,0c1.1-0.7,2-1.6,2.6-2.8c0.7-1.3,1-2.7,1-4.1C788.9,58.5,788.6,57.1,787.9,55.8
		L787.9,55.8z"/>
	<path class="st4" d="M804.7,71.8c-0.5,0.6-1.3,0.9-2.1,0.8c-0.8,0-1.5-0.3-2-0.8c-0.5-0.6-0.8-1.3-0.8-2.1V40.3
		c0-1.6,1.2-2.9,2.8-2.9h0.1c0.8,0,1.5,0.3,2,0.8c0.5,0.6,0.8,1.3,0.8,2.1v29.3C805.5,70.5,805.2,71.3,804.7,71.8z"/>
	<path class="st4" d="M833.6,61.2c-0.6,0.5-1.3,0.7-2,0.7h-15.7c0.3,1.7,1.2,3.3,2.6,4.4c1.3,1,2.9,1.6,4.6,1.6c1,0,2-0.1,3-0.4
		c0.6-0.2,1.2-0.4,1.7-0.8l0.9-0.6c0.5-0.3,1-0.4,1.6-0.4s1.3,0.2,1.7,0.7c0.5,0.4,0.7,1,0.7,1.7c-0.1,0.9-0.5,1.8-1.3,2.3
		c-1.1,0.8-2.3,1.5-3.6,1.9c-3.8,1.3-7.9,0.9-11.5-0.9c-1.9-1.1-3.5-2.6-4.6-4.6s-1.6-4.3-1.6-6.6c-0.1-2.5,0.5-5,1.7-7.2
		c1-2,2.6-3.6,4.5-4.7c1.8-1.1,3.9-1.6,6-1.6s4.1,0.6,5.9,1.7c1.8,1.1,3.4,2.7,4.4,4.6c1.1,1.9,1.7,4.1,1.7,6.3
		C834.4,60.1,834.1,60.7,833.6,61.2z M815.9,57.2h12.4v-0.3c-0.1-1.4-0.9-2.6-2-3.4c-1.1-0.9-2.5-1.4-4-1.4
		C818.8,52,816.6,53.7,815.9,57.2L815.9,57.2z"/>
	<path class="st4" d="M856.8,48c1.6,0.8,2.5,2,2.5,3.4c0,0.7-0.2,1.3-0.6,1.8c-0.4,0.5-1,0.8-1.6,0.8c-0.4,0-0.8-0.1-1.2-0.2
		c-0.3-0.2-0.6-0.3-0.9-0.6c-0.3-0.2-0.6-0.4-0.9-0.6c-0.4-0.2-0.9-0.3-1.4-0.4c-0.5-0.1-1-0.2-1.5-0.2c-2.1-0.1-4.1,0.7-5.6,2.2
		c-1.4,1.6-2.1,3.7-2,5.8c-0.1,2.1,0.6,4.1,2,5.7c1.3,1.5,3.2,2.3,5.2,2.3c1.2,0.1,2.4-0.1,3.5-0.6c0.3-0.1,0.5-0.3,0.8-0.5
		s0.6-0.4,0.9-0.6c0.3-0.1,0.7-0.2,1-0.2c0.7,0,1.4,0.2,1.9,0.8c0.5,0.5,0.7,1.2,0.7,1.9c-0.1,0.9-0.6,1.7-1.3,2.1
		c-1.1,0.7-2.3,1.3-3.5,1.6c-1.5,0.4-3.1,0.6-4.7,0.6c-2.3,0-4.5-0.5-6.4-1.7c-1.9-1.1-3.3-2.8-4.3-4.7c-1-2.1-1.6-4.4-1.5-6.7
		c0-2.4,0.5-4.7,1.6-6.8c1-1.9,2.6-3.6,4.4-4.7c2-1.1,4.2-1.7,6.5-1.7C852.5,46.7,854.7,47.1,856.8,48z"/>
	<path class="st4" d="M877.1,67.9c0.9,1.1,0.7,2.7-0.4,3.6c-0.1,0.1-0.3,0.2-0.4,0.3c-0.9,0.6-2,0.9-3.2,0.9c-1.8,0.1-3.5-0.4-5-1.3
		c-1.3-0.8-2-2.6-2-5.3V53h-2.2c-1.4,0-2.6-1.1-2.7-2.5v-0.1c0-0.7,0.3-1.4,0.8-1.8c0.5-0.5,1.2-0.8,1.9-0.7h2.2v-3
		c0-1.6,1.2-2.9,2.8-2.9h0.1c0.8,0,1.5,0.3,2,0.8c0.5,0.6,0.8,1.3,0.8,2.1v3h3.4c1.4,0,2.6,1.1,2.7,2.5v0.1c0,0.7-0.3,1.4-0.8,1.8
		c-0.5,0.5-1.2,0.8-1.9,0.7h-3.4v12.9c-0.1,0.5,0.1,1.1,0.5,1.4c0.4,0.3,0.9,0.5,1.4,0.4c0.3,0,0.7-0.1,1-0.2
		c0.3-0.2,0.7-0.2,1.1-0.2C876.4,67.3,876.8,67.5,877.1,67.9z"/>
	<path class="st4" d="M883.3,43.6c-0.5-0.5-0.7-1.2-0.7-1.9v-0.9c-0.1-0.7,0.2-1.4,0.7-1.9c1.5-0.7,3.2-0.7,4.6,0
		c0.5,0.5,0.7,1.2,0.7,1.9v0.9c0.1,0.7-0.2,1.4-0.7,1.9c-0.7,0.4-1.5,0.6-2.3,0.5C884.8,44.2,884,44,883.3,43.6z M887.6,71.8
		c-1.1,1.1-2.9,1.1-4.1,0c-0.5-0.6-0.8-1.3-0.8-2.1V50.1c0-0.8,0.3-1.5,0.8-2.1c1.1-1.1,2.9-1.1,4.1,0c0.5,0.6,0.8,1.3,0.8,2.1v19.6
		C888.5,70.5,888.2,71.3,887.6,71.8L887.6,71.8z"/>
	<path class="st4" d="M915.7,48c0.5,0.5,0.8,1.1,0.8,1.8c0,0.5-0.2,1-0.4,1.4l-8.9,19.6c-0.2,0.5-0.6,1-1,1.3s-0.9,0.5-1.5,0.5h-0.4
		c-0.5,0-1.1-0.2-1.5-0.5c-0.5-0.3-0.8-0.8-1.1-1.4l-8.8-19.5c-0.2-0.5-0.3-1-0.3-1.5c0-0.7,0.3-1.3,0.8-1.7c0.5-0.5,1.3-0.8,2-0.8
		c0.6,0,1.2,0.2,1.7,0.5s0.9,0.8,1.1,1.3l6.5,15l6.5-15c0.2-0.5,0.5-1,1-1.4c0.4-0.3,0.9-0.5,1.5-0.4
		C914.5,47.2,915.2,47.5,915.7,48z"/>
	<path class="st4" d="M943.4,66.8c-1.1,2-2.7,3.6-4.7,4.7c-4.1,2.2-9,2.2-13.1,0c-2-1.1-3.6-2.7-4.7-4.7c-2.3-4.3-2.3-9.4,0-13.6
		c1.1-2,2.7-3.6,4.7-4.7c4.1-2.2,9-2.2,13.1,0c2,1.1,3.6,2.7,4.7,4.7C945.7,57.4,945.7,62.5,943.4,66.8z M938.4,55.8
		c-0.6-1.2-1.5-2.1-2.6-2.8c-2.2-1.3-5-1.3-7.3,0c-1.1,0.7-2,1.7-2.6,2.8c-0.7,1.3-1,2.7-1,4.2c0,1.4,0.3,2.9,1,4.1
		c0.6,1.2,1.5,2.1,2.6,2.8c2.2,1.3,5,1.3,7.3,0c1.1-0.7,2-1.6,2.6-2.8c0.7-1.3,1-2.7,1-4.1C939.5,58.5,939.1,57.1,938.4,55.8
		L938.4,55.8z"/>
</g>
<g class="st3">
	<path class="st4" d="M1068.7,48c1.6,0.8,2.5,2,2.5,3.4c0,0.7-0.2,1.3-0.6,1.8s-1,0.8-1.6,0.8c-0.4,0-0.8-0.1-1.2-0.2
		c-0.3-0.2-0.6-0.3-0.9-0.6c-0.3-0.2-0.6-0.4-0.9-0.6c-0.4-0.2-0.9-0.3-1.4-0.4c-0.5-0.1-1-0.2-1.5-0.2c-2.1-0.1-4.1,0.7-5.6,2.2
		c-1.4,1.6-2.1,3.7-2,5.8c-0.1,2.1,0.6,4.1,2,5.7c1.3,1.5,3.2,2.3,5.2,2.3c1.2,0.1,2.4-0.1,3.5-0.6c0.3-0.1,0.5-0.3,0.8-0.5
		s0.6-0.4,0.9-0.6c0.3-0.1,0.7-0.2,1-0.2c0.7,0,1.4,0.2,1.9,0.8c0.5,0.5,0.7,1.2,0.7,1.9c-0.1,0.9-0.6,1.7-1.3,2.1
		c-1.1,0.7-2.3,1.3-3.5,1.6c-1.5,0.4-3.1,0.6-4.7,0.6c-2.3,0-4.5-0.5-6.4-1.7c-1.9-1.1-3.3-2.8-4.3-4.7c-1-2.1-1.6-4.4-1.5-6.7
		c0-2.4,0.5-4.7,1.6-6.8c1-1.9,2.6-3.6,4.4-4.7c2-1.1,4.2-1.7,6.5-1.7C1064.4,46.7,1066.6,47.1,1068.7,48z"/>
	<path class="st4" d="M1098.3,66.8c-1.1,2-2.7,3.6-4.7,4.7c-4.1,2.2-9,2.2-13.1,0c-2-1.1-3.6-2.7-4.7-4.7c-2.3-4.3-2.3-9.4,0-13.6
		c1.1-2,2.7-3.6,4.7-4.7c4.1-2.2,9-2.2,13.1,0c2,1.1,3.6,2.7,4.7,4.7C1100.6,57.4,1100.6,62.5,1098.3,66.8z M1093.3,55.8
		c-0.6-1.2-1.5-2.1-2.6-2.8c-2.2-1.3-5-1.3-7.3,0c-1.1,0.7-2,1.7-2.6,2.8c-0.7,1.3-1,2.7-1,4.2c0,1.4,0.3,2.9,1,4.1
		c0.6,1.2,1.5,2.1,2.6,2.8c2.2,1.3,5,1.3,7.3,0c1.1-0.7,2-1.6,2.6-2.8c0.7-1.3,1-2.7,1-4.1C1094.3,58.5,1094,57.1,1093.3,55.8
		L1093.3,55.8z"/>
	<path class="st4" d="M1110.1,71.8c-0.5,0.6-1.3,0.9-2.1,0.8c-0.8,0-1.5-0.3-2-0.8c-0.5-0.6-0.8-1.3-0.8-2.1V40.3
		c0-1.6,1.2-2.9,2.8-2.9h0.1c0.8,0,1.5,0.3,2,0.8c0.5,0.6,0.8,1.3,0.8,2.1v29.3C1110.9,70.5,1110.6,71.3,1110.1,71.8z"/>
	<path class="st4" d="M1139,61.2c-0.6,0.5-1.3,0.7-2,0.7h-15.7c0.3,1.7,1.2,3.3,2.6,4.4c1.3,1,2.9,1.6,4.6,1.6c1,0,2-0.1,3-0.4
		c0.6-0.2,1.2-0.4,1.7-0.8l0.9-0.6c0.5-0.3,1.1-0.4,1.6-0.4c0.6,0,1.3,0.2,1.7,0.7c0.5,0.4,0.7,1,0.7,1.7c-0.1,0.9-0.5,1.8-1.3,2.3
		c-1.1,0.8-2.3,1.5-3.6,1.9c-3.8,1.3-7.9,0.9-11.5-0.9c-1.9-1.1-3.5-2.6-4.6-4.6s-1.6-4.3-1.6-6.6c-0.1-2.5,0.5-5,1.7-7.2
		c1-2,2.6-3.6,4.5-4.7c1.8-1.1,3.9-1.6,6-1.6s4.1,0.6,5.9,1.7c1.8,1.1,3.4,2.7,4.4,4.6c1.1,1.9,1.7,4.1,1.7,6.3
		C1139.9,60.1,1139.6,60.7,1139,61.2z M1121.4,57.2h12.4v-0.3c-0.1-1.4-0.9-2.6-1.9-3.4c-1.1-0.9-2.5-1.4-4-1.4
		C1124.2,52,1122,53.7,1121.4,57.2L1121.4,57.2z"/>
	<path class="st4" d="M1162.2,48c1.6,0.8,2.5,2,2.5,3.4c0,0.7-0.2,1.3-0.6,1.8s-1,0.8-1.6,0.8c-0.4,0-0.8-0.1-1.2-0.2
		c-0.3-0.2-0.6-0.3-0.9-0.6c-0.3-0.2-0.6-0.4-0.9-0.6c-0.4-0.2-0.9-0.3-1.4-0.4c-0.5-0.1-1-0.2-1.5-0.2c-2.1-0.1-4.1,0.7-5.6,2.2
		c-1.4,1.6-2.1,3.7-2,5.8c-0.1,2.1,0.6,4.1,2,5.7c1.3,1.5,3.2,2.3,5.2,2.3c1.2,0.1,2.4-0.1,3.5-0.6c0.3-0.1,0.5-0.3,0.8-0.5
		s0.6-0.4,0.9-0.6c0.3-0.1,0.7-0.2,1-0.2c0.7,0,1.4,0.2,1.9,0.8c0.5,0.5,0.7,1.2,0.7,1.9c-0.1,0.9-0.6,1.7-1.3,2.1
		c-1.1,0.7-2.3,1.3-3.5,1.6c-1.5,0.4-3.1,0.6-4.7,0.6c-2.3,0-4.5-0.5-6.4-1.7c-1.9-1.1-3.3-2.8-4.3-4.7c-1-2.1-1.6-4.4-1.5-6.7
		c0-2.4,0.5-4.7,1.6-6.8c1-1.9,2.6-3.6,4.4-4.7c2-1.1,4.2-1.7,6.5-1.7C1157.9,46.7,1160.1,47.1,1162.2,48z"/>
	<path class="st4" d="M1182.5,67.9c0.9,1.1,0.7,2.7-0.4,3.6c-0.1,0.1-0.3,0.2-0.4,0.3c-0.9,0.6-2,0.9-3.2,0.9
		c-1.8,0.1-3.5-0.4-5-1.3c-1.3-0.8-2-2.6-2-5.3V53h-2.2c-1.4,0-2.6-1.1-2.7-2.5v-0.1c0-0.7,0.3-1.4,0.8-1.8c0.5-0.5,1.2-0.8,1.9-0.7
		h2.2v-3c0-1.6,1.2-2.9,2.8-2.9h0.1c0.8,0,1.5,0.3,2,0.8c0.5,0.6,0.8,1.3,0.8,2.1v3h3.4c1.4,0,2.6,1.1,2.7,2.5v0.1
		c0,0.7-0.3,1.4-0.8,1.8c-0.5,0.5-1.2,0.8-1.9,0.7h-3.4v12.9c-0.1,0.5,0.1,1.1,0.5,1.4c0.4,0.3,0.9,0.5,1.4,0.4c0.3,0,0.7-0.1,1-0.2
		c0.3-0.2,0.7-0.2,1.1-0.2C1181.8,67.3,1182.2,67.5,1182.5,67.9z"/>
	<path class="st4" d="M1188.7,43.6c-0.5-0.5-0.7-1.2-0.7-1.9v-0.9c-0.1-0.7,0.2-1.4,0.7-1.9c1.5-0.7,3.2-0.7,4.6,0
		c0.5,0.5,0.7,1.2,0.7,1.9v0.9c0.1,0.7-0.2,1.4-0.7,1.9c-0.7,0.4-1.5,0.6-2.3,0.5C1190.2,44.2,1189.4,44,1188.7,43.6z M1193.1,71.8
		c-1.1,1.1-2.9,1.1-4.1,0c-0.5-0.6-0.8-1.3-0.8-2.1V50.1c0-0.8,0.3-1.5,0.8-2.1c1.1-1.1,2.9-1.1,4.1,0c0.5,0.6,0.8,1.3,0.8,2.1v19.6
		C1193.9,70.5,1193.6,71.3,1193.1,71.8L1193.1,71.8z"/>
	<path class="st4" d="M1221.1,48c0.5,0.5,0.8,1.1,0.8,1.8c0,0.5-0.2,1-0.4,1.4l-8.9,19.6c-0.2,0.5-0.6,1-1,1.3s-0.9,0.5-1.4,0.5
		h-0.4c-0.5,0-1.1-0.2-1.5-0.5c-0.5-0.3-0.8-0.8-1.1-1.4l-8.8-19.6c-0.2-0.5-0.3-1-0.3-1.5c0-0.7,0.3-1.3,0.8-1.7
		c0.5-0.5,1.3-0.8,2-0.8c0.6,0,1.2,0.2,1.7,0.5s0.9,0.8,1.1,1.3l6.6,15l6.5-15c0.2-0.5,0.5-1,1-1.4c0.4-0.3,0.9-0.5,1.5-0.4
		C1219.9,47.2,1220.6,47.5,1221.1,48z"/>
	<path class="st4" d="M1248.8,66.8c-1.1,2-2.7,3.6-4.7,4.7c-4.1,2.2-9,2.2-13.1,0c-2-1.1-3.6-2.7-4.7-4.7c-2.3-4.3-2.3-9.4,0-13.6
		c1.1-2,2.7-3.6,4.7-4.7c4.1-2.2,9-2.2,13.1,0c2,1.1,3.6,2.7,4.7,4.7C1251.1,57.4,1251.1,62.5,1248.8,66.8z M1243.8,55.8
		c-0.6-1.2-1.5-2.1-2.6-2.8c-2.2-1.3-5-1.3-7.3,0c-1.1,0.7-2,1.7-2.6,2.8c-0.7,1.3-1,2.7-1,4.2c0,1.4,0.3,2.9,1,4.1
		c0.6,1.2,1.5,2.1,2.6,2.8c2.2,1.3,5,1.3,7.3,0c1.1-0.7,2-1.6,2.6-2.8c0.7-1.3,1-2.7,1-4.1C1244.9,58.5,1244.5,57.1,1243.8,55.8
		L1243.8,55.8z"/>
</g>
<g class="st3">
	<path class="st4" d="M763.3,1082.9c1.6,0.8,2.5,2,2.5,3.3c0,0.7-0.2,1.3-0.6,1.8c-0.4,0.5-1,0.8-1.6,0.8c-0.4,0-0.8-0.1-1.2-0.2
		c-0.3-0.2-0.6-0.3-0.9-0.6c-0.3-0.2-0.6-0.4-0.9-0.6c-0.4-0.2-0.9-0.3-1.4-0.4s-1-0.2-1.5-0.2c-2.1-0.1-4.1,0.7-5.6,2.2
		c-1.4,1.6-2.1,3.7-2,5.8c-0.1,2.1,0.6,4.1,2,5.7c1.3,1.5,3.2,2.3,5.2,2.3c1.2,0.1,2.4-0.1,3.5-0.6c0.3-0.1,0.5-0.3,0.8-0.5
		s0.6-0.4,0.9-0.6c0.3-0.1,0.7-0.2,1-0.2c0.7,0,1.4,0.2,1.9,0.8c0.5,0.5,0.7,1.2,0.7,1.9c-0.1,0.9-0.6,1.7-1.3,2.1
		c-1.1,0.7-2.3,1.3-3.5,1.6c-1.5,0.4-3.1,0.6-4.7,0.6c-2.3,0-4.5-0.5-6.4-1.7c-1.9-1.1-3.3-2.8-4.3-4.7c-1-2.1-1.6-4.4-1.5-6.7
		c0-2.4,0.5-4.7,1.6-6.8c1-1.9,2.6-3.6,4.4-4.7c2-1.1,4.2-1.7,6.5-1.7C759,1081.6,761.2,1082,763.3,1082.9z"/>
	<path class="st4" d="M792.9,1101.7c-1.1,2-2.7,3.6-4.7,4.7c-4.1,2.2-9,2.2-13.1,0c-2-1.1-3.6-2.7-4.7-4.7c-2.3-4.3-2.3-9.4,0-13.6
		c1.1-2,2.7-3.6,4.7-4.7c4.1-2.2,9-2.2,13.1,0c2,1.1,3.6,2.7,4.7,4.7C795.1,1092.3,795.1,1097.4,792.9,1101.7z M787.9,1090.7
		c-0.6-1.2-1.5-2.1-2.6-2.8c-2.2-1.3-5-1.3-7.3,0c-1.1,0.7-2,1.7-2.6,2.8c-0.7,1.3-1,2.7-1,4.2c0,1.4,0.3,2.9,1,4.1
		c0.6,1.2,1.5,2.1,2.6,2.8c2.2,1.3,5,1.3,7.3,0c1.1-0.7,2-1.6,2.6-2.8c0.7-1.3,1-2.7,1-4.1C788.9,1093.4,788.6,1092,787.9,1090.7
		L787.9,1090.7z"/>
	<path class="st4" d="M804.7,1106.7c-0.5,0.6-1.3,0.9-2.1,0.8c-0.8,0-1.5-0.3-2-0.8c-0.5-0.6-0.8-1.3-0.8-2.1v-29.3
		c0-1.6,1.2-2.9,2.8-2.9h0.1c0.8,0,1.5,0.3,2,0.8c0.5,0.6,0.8,1.3,0.8,2.1v29.3C805.5,1105.4,805.2,1106.2,804.7,1106.7z"/>
	<path class="st4" d="M833.6,1096.1c-0.6,0.5-1.3,0.7-2,0.7h-15.7c0.3,1.7,1.2,3.3,2.6,4.4c1.3,1,2.9,1.6,4.6,1.6c1,0,2-0.1,3-0.4
		c0.6-0.2,1.2-0.4,1.7-0.8l0.9-0.6c0.5-0.3,1-0.4,1.6-0.4s1.3,0.2,1.7,0.7c0.5,0.4,0.7,1,0.7,1.7c-0.1,0.9-0.5,1.8-1.3,2.3
		c-1.1,0.8-2.3,1.4-3.6,1.8c-3.8,1.3-7.9,0.9-11.5-0.9c-1.9-1.1-3.5-2.6-4.6-4.6s-1.6-4.3-1.6-6.6c-0.1-2.5,0.5-5,1.7-7.2
		c1-2,2.6-3.6,4.5-4.7c1.8-1.1,3.9-1.6,6-1.6s4.1,0.6,5.9,1.7c1.8,1.1,3.4,2.7,4.4,4.6c1.1,1.9,1.7,4.1,1.7,6.3
		C834.4,1095,834.1,1095.7,833.6,1096.1z M815.9,1092.1h12.4v-0.3c-0.1-1.4-0.9-2.6-2-3.4c-1.1-0.9-2.5-1.4-4-1.4
		C818.8,1086.9,816.6,1088.6,815.9,1092.1L815.9,1092.1z"/>
	<path class="st4" d="M856.8,1082.9c1.6,0.8,2.5,2,2.5,3.3c0,0.7-0.2,1.3-0.6,1.8c-0.4,0.5-1,0.8-1.6,0.8c-0.4,0-0.8-0.1-1.2-0.2
		c-0.3-0.2-0.6-0.3-0.9-0.6c-0.3-0.2-0.6-0.4-0.9-0.6c-0.4-0.2-0.9-0.3-1.4-0.4s-1-0.2-1.5-0.2c-2.1-0.1-4.1,0.7-5.6,2.2
		c-1.4,1.6-2.1,3.7-2,5.8c-0.1,2.1,0.6,4.1,2,5.7c1.3,1.5,3.2,2.3,5.2,2.3c1.2,0.1,2.4-0.1,3.5-0.6c0.3-0.1,0.5-0.3,0.8-0.5
		s0.6-0.4,0.9-0.6c0.3-0.1,0.7-0.2,1-0.2c0.7,0,1.4,0.2,1.9,0.8c0.5,0.5,0.7,1.2,0.7,1.9c-0.1,0.9-0.6,1.7-1.3,2.1
		c-1.1,0.7-2.3,1.3-3.5,1.6c-1.5,0.4-3.1,0.6-4.7,0.6c-2.3,0-4.5-0.5-6.4-1.7c-1.9-1.1-3.3-2.8-4.3-4.7c-1-2.1-1.6-4.4-1.5-6.7
		c0-2.4,0.5-4.7,1.6-6.8c1-1.9,2.6-3.6,4.4-4.7c2-1.1,4.2-1.7,6.5-1.7C852.5,1081.6,854.7,1082,856.8,1082.9z"/>
	<path class="st4" d="M877.1,1102.8c0.9,1.1,0.7,2.7-0.4,3.6c-0.1,0.1-0.3,0.2-0.4,0.3c-0.9,0.6-2,0.9-3.2,0.9
		c-1.8,0.1-3.5-0.4-5-1.3c-1.3-0.8-2-2.6-2-5.3v-13.1h-2.2c-1.4,0-2.6-1.1-2.7-2.5v-0.1c0-0.7,0.3-1.4,0.8-1.8
		c0.5-0.5,1.2-0.8,1.9-0.7h2.2v-3c0-1.6,1.2-2.9,2.8-2.9h0.1c0.8,0,1.5,0.3,2,0.8c0.5,0.6,0.8,1.3,0.8,2.1v3h3.4
		c1.4,0,2.6,1.1,2.7,2.5v0.1c0,0.7-0.3,1.4-0.8,1.8c-0.5,0.5-1.2,0.8-1.9,0.7h-3.4v12.9c-0.1,0.5,0.1,1.1,0.5,1.4s0.9,0.5,1.4,0.4
		c0.3,0,0.7-0.1,1-0.2c0.3-0.2,0.7-0.2,1.1-0.2C876.4,1102.2,876.8,1102.4,877.1,1102.8z"/>
	<path class="st4" d="M883.3,1078.5c-0.5-0.5-0.7-1.2-0.7-1.8v-0.9c-0.1-0.7,0.2-1.4,0.7-1.8c1.5-0.7,3.2-0.7,4.6,0
		c0.5,0.5,0.7,1.2,0.7,1.8v0.9c0.1,0.7-0.2,1.4-0.7,1.9c-0.7,0.4-1.5,0.6-2.3,0.5C884.8,1079.1,884,1078.9,883.3,1078.5z
		 M887.6,1106.7c-1.1,1.1-2.9,1.1-4.1,0c-0.5-0.6-0.8-1.3-0.8-2.1V1085c0-0.8,0.3-1.5,0.8-2.1c1.1-1.1,2.9-1.1,4.1,0
		c0.5,0.6,0.8,1.3,0.8,2.1v19.6C888.5,1105.4,888.2,1106.2,887.6,1106.7L887.6,1106.7z"/>
	<path class="st4" d="M915.7,1082.9c0.5,0.5,0.8,1.1,0.8,1.8c0,0.5-0.2,1-0.4,1.4l-8.9,19.6c-0.2,0.5-0.6,1-1,1.3s-0.9,0.5-1.5,0.5
		h-0.4c-0.5,0-1.1-0.2-1.5-0.5c-0.5-0.3-0.8-0.8-1.1-1.3l-8.8-19.5c-0.2-0.5-0.3-1-0.3-1.5c0-0.7,0.3-1.3,0.8-1.7
		c0.5-0.5,1.3-0.8,2-0.8c0.6,0,1.2,0.2,1.7,0.5s0.9,0.8,1.1,1.3l6.5,15l6.5-15c0.2-0.5,0.5-1,1-1.4c0.4-0.3,0.9-0.5,1.5-0.4
		C914.5,1082.1,915.2,1082.4,915.7,1082.9z"/>
	<path class="st4" d="M943.4,1101.7c-1.1,2-2.7,3.6-4.7,4.7c-4.1,2.2-9,2.2-13.1,0c-2-1.1-3.6-2.7-4.7-4.7c-2.3-4.3-2.3-9.4,0-13.6
		c1.1-2,2.7-3.6,4.7-4.7c4.1-2.2,9-2.2,13.1,0c2,1.1,3.6,2.7,4.7,4.7C945.7,1092.3,945.7,1097.4,943.4,1101.7z M938.4,1090.7
		c-0.6-1.2-1.5-2.1-2.6-2.8c-2.2-1.3-5-1.3-7.3,0c-1.1,0.7-2,1.7-2.6,2.8c-0.7,1.3-1,2.7-1,4.2c0,1.4,0.3,2.9,1,4.1
		c0.6,1.2,1.5,2.1,2.6,2.8c2.2,1.3,5,1.3,7.3,0c1.1-0.7,2-1.6,2.6-2.8c0.7-1.3,1-2.7,1-4.1C939.5,1093.4,939.1,1092,938.4,1090.7
		L938.4,1090.7z"/>
</g>
<g class="st3">
	<path class="st4" d="M1068.7,1082.9c1.6,0.8,2.5,2,2.5,3.3c0,0.7-0.2,1.3-0.6,1.8s-1,0.8-1.6,0.8c-0.4,0-0.8-0.1-1.2-0.2
		c-0.3-0.2-0.6-0.3-0.9-0.6c-0.3-0.2-0.6-0.4-0.9-0.6c-0.4-0.2-0.9-0.3-1.4-0.4s-1-0.2-1.5-0.2c-2.1-0.1-4.1,0.7-5.6,2.2
		c-1.4,1.6-2.1,3.7-2,5.8c-0.1,2.1,0.6,4.1,2,5.7c1.3,1.5,3.2,2.3,5.2,2.3c1.2,0.1,2.4-0.1,3.5-0.6c0.3-0.1,0.5-0.3,0.8-0.5
		s0.6-0.4,0.9-0.6c0.3-0.1,0.7-0.2,1-0.2c0.7,0,1.4,0.2,1.9,0.8c0.5,0.5,0.7,1.2,0.7,1.9c-0.1,0.9-0.6,1.7-1.3,2.1
		c-1.1,0.7-2.3,1.3-3.5,1.6c-1.5,0.4-3.1,0.6-4.7,0.6c-2.3,0-4.5-0.5-6.4-1.7c-1.9-1.1-3.3-2.8-4.3-4.7c-1-2.1-1.6-4.4-1.5-6.7
		c0-2.4,0.5-4.7,1.6-6.8c1-1.9,2.6-3.6,4.4-4.7c2-1.1,4.2-1.7,6.5-1.7C1064.4,1081.6,1066.6,1082,1068.7,1082.9z"/>
	<path class="st4" d="M1098.3,1101.7c-1.1,2-2.7,3.6-4.7,4.7c-4.1,2.2-9,2.2-13.1,0c-2-1.1-3.6-2.7-4.7-4.7c-2.3-4.3-2.3-9.4,0-13.6
		c1.1-2,2.7-3.6,4.7-4.7c4.1-2.2,9-2.2,13.1,0c2,1.1,3.6,2.7,4.7,4.7C1100.6,1092.3,1100.6,1097.4,1098.3,1101.7z M1093.3,1090.7
		c-0.6-1.2-1.5-2.1-2.6-2.8c-2.2-1.3-5-1.3-7.3,0c-1.1,0.7-2,1.7-2.6,2.8c-0.7,1.3-1,2.7-1,4.2c0,1.4,0.3,2.9,1,4.1
		c0.6,1.2,1.5,2.1,2.6,2.8c2.2,1.3,5,1.3,7.3,0c1.1-0.7,2-1.6,2.6-2.8c0.7-1.3,1-2.7,1-4.1C1094.3,1093.4,1094,1092,1093.3,1090.7
		L1093.3,1090.7z"/>
	<path class="st4" d="M1110.1,1106.7c-0.5,0.6-1.3,0.9-2.1,0.8c-0.8,0-1.5-0.3-2-0.8c-0.5-0.6-0.8-1.3-0.8-2.1v-29.3
		c0-1.6,1.2-2.9,2.8-2.9h0.1c0.8,0,1.5,0.3,2,0.8c0.5,0.6,0.8,1.3,0.8,2.1v29.3C1110.9,1105.4,1110.6,1106.2,1110.1,1106.7z"/>
	<path class="st4" d="M1139,1096.1c-0.6,0.5-1.3,0.7-2,0.7h-15.7c0.3,1.7,1.2,3.3,2.6,4.4c1.3,1,2.9,1.6,4.6,1.6c1,0,2-0.1,3-0.4
		c0.6-0.2,1.2-0.4,1.7-0.8l0.9-0.6c0.5-0.3,1.1-0.4,1.6-0.4c0.6,0,1.3,0.2,1.7,0.7c0.5,0.4,0.7,1,0.7,1.7c-0.1,0.9-0.5,1.8-1.3,2.3
		c-1.1,0.8-2.3,1.4-3.6,1.8c-3.8,1.3-7.9,0.9-11.5-0.9c-1.9-1.1-3.5-2.6-4.6-4.6s-1.6-4.3-1.6-6.6c-0.1-2.5,0.5-5,1.7-7.2
		c1-2,2.6-3.6,4.5-4.7c1.8-1.1,3.9-1.6,6-1.6s4.1,0.6,5.9,1.7s3.4,2.7,4.4,4.6c1.1,1.9,1.7,4.1,1.7,6.3
		C1139.9,1095,1139.6,1095.7,1139,1096.1z M1121.4,1092.1h12.4v-0.3c-0.1-1.4-0.9-2.6-1.9-3.4c-1.1-0.9-2.5-1.4-4-1.4
		C1124.2,1086.9,1122,1088.6,1121.4,1092.1L1121.4,1092.1z"/>
	<path class="st4" d="M1162.2,1082.9c1.6,0.8,2.5,2,2.5,3.3c0,0.7-0.2,1.3-0.6,1.8s-1,0.8-1.6,0.8c-0.4,0-0.8-0.1-1.2-0.2
		c-0.3-0.2-0.6-0.3-0.9-0.6c-0.3-0.2-0.6-0.4-0.9-0.6c-0.4-0.2-0.9-0.3-1.4-0.4s-1-0.2-1.5-0.2c-2.1-0.1-4.1,0.7-5.6,2.2
		c-1.4,1.6-2.1,3.7-2,5.8c-0.1,2.1,0.6,4.1,2,5.7c1.3,1.5,3.2,2.3,5.2,2.3c1.2,0.1,2.4-0.1,3.5-0.6c0.3-0.1,0.5-0.3,0.8-0.5
		s0.6-0.4,0.9-0.6c0.3-0.1,0.7-0.2,1-0.2c0.7,0,1.4,0.2,1.9,0.8c0.5,0.5,0.7,1.2,0.7,1.9c-0.1,0.9-0.6,1.7-1.3,2.1
		c-1.1,0.7-2.3,1.3-3.5,1.6c-1.5,0.4-3.1,0.6-4.7,0.6c-2.3,0-4.5-0.5-6.4-1.7c-1.9-1.1-3.3-2.8-4.3-4.7c-1-2.1-1.6-4.4-1.5-6.7
		c0-2.4,0.5-4.7,1.6-6.8c1-1.9,2.6-3.6,4.4-4.7c2-1.1,4.2-1.7,6.5-1.7C1157.9,1081.6,1160.1,1082,1162.2,1082.9z"/>
	<path class="st4" d="M1182.5,1102.8c0.9,1.1,0.7,2.7-0.4,3.6c-0.1,0.1-0.3,0.2-0.4,0.3c-0.9,0.6-2,0.9-3.2,0.9
		c-1.8,0.1-3.5-0.4-5-1.3c-1.3-0.8-2-2.6-2-5.3v-13.1h-2.2c-1.4,0-2.6-1.1-2.7-2.5v-0.1c0-0.7,0.3-1.4,0.8-1.8
		c0.5-0.5,1.2-0.8,1.9-0.7h2.2v-3c0-1.6,1.2-2.9,2.8-2.9h0.1c0.8,0,1.5,0.3,2,0.8c0.5,0.6,0.8,1.3,0.8,2.1v3h3.4
		c1.4,0,2.6,1.1,2.7,2.5v0.1c0,0.7-0.3,1.4-0.8,1.8c-0.5,0.5-1.2,0.8-1.9,0.7h-3.4v12.9c-0.1,0.5,0.1,1.1,0.5,1.4s0.9,0.5,1.4,0.4
		c0.3,0,0.7-0.1,1-0.2c0.3-0.2,0.7-0.2,1.1-0.2C1181.8,1102.2,1182.2,1102.4,1182.5,1102.8z"/>
	<path class="st4" d="M1188.7,1078.5c-0.5-0.5-0.7-1.2-0.7-1.8v-0.9c-0.1-0.7,0.2-1.4,0.7-1.8c1.5-0.7,3.2-0.7,4.6,0
		c0.5,0.5,0.7,1.2,0.7,1.8v0.9c0.1,0.7-0.2,1.4-0.7,1.9c-0.7,0.4-1.5,0.6-2.3,0.5C1190.2,1079.1,1189.4,1078.9,1188.7,1078.5z
		 M1193.1,1106.7c-1.1,1.1-2.9,1.1-4.1,0c-0.5-0.6-0.8-1.3-0.8-2.1V1085c0-0.8,0.3-1.5,0.8-2.1c1.1-1.1,2.9-1.1,4.1,0
		c0.5,0.6,0.8,1.3,0.8,2.1v19.6C1193.9,1105.4,1193.6,1106.2,1193.1,1106.7L1193.1,1106.7z"/>
	<path class="st4" d="M1221.1,1082.9c0.5,0.5,0.8,1.1,0.8,1.8c0,0.5-0.2,1-0.4,1.4l-8.9,19.6c-0.2,0.5-0.6,1-1,1.3s-0.9,0.5-1.4,0.5
		h-0.4c-0.5,0-1.1-0.2-1.5-0.5c-0.5-0.3-0.8-0.8-1.1-1.3l-8.8-19.6c-0.2-0.5-0.3-1-0.3-1.5c0-0.7,0.3-1.3,0.8-1.7
		c0.5-0.5,1.3-0.8,2-0.8c0.6,0,1.2,0.2,1.7,0.5s0.9,0.8,1.1,1.3l6.6,15l6.5-15c0.2-0.5,0.5-1,1-1.4c0.4-0.3,0.9-0.5,1.5-0.4
		C1219.9,1082.1,1220.6,1082.4,1221.1,1082.9z"/>
	<path class="st4" d="M1248.8,1101.7c-1.1,2-2.7,3.6-4.7,4.7c-4.1,2.2-9,2.2-13.1,0c-2-1.1-3.6-2.7-4.7-4.7c-2.3-4.3-2.3-9.4,0-13.6
		c1.1-2,2.7-3.6,4.7-4.7c4.1-2.2,9-2.2,13.1,0c2,1.1,3.6,2.7,4.7,4.7C1251.1,1092.3,1251.1,1097.4,1248.8,1101.7z M1243.8,1090.7
		c-0.6-1.2-1.5-2.1-2.6-2.8c-2.2-1.3-5-1.3-7.3,0c-1.1,0.7-2,1.7-2.6,2.8c-0.7,1.3-1,2.7-1,4.2c0,1.4,0.3,2.9,1,4.1
		c0.6,1.2,1.5,2.1,2.6,2.8c2.2,1.3,5,1.3,7.3,0c1.1-0.7,2-1.6,2.6-2.8c0.7-1.3,1-2.7,1-4.1C1244.9,1093.4,1244.5,1092,1243.8,1090.7
		L1243.8,1090.7z"/>
</g>
<circle class="st5" cx="219.7" cy="67.2" r="34.9"/>
<circle class="st6" cx="226.8" cy="64.6" r="34.9"/>
<path class="st0" d="M219.8,47.3c0.6,0.6,1,1.5,0.9,2.4v31.5c0,0.9-0.3,1.8-1,2.4c-0.7,0.7-1.6,1-2.6,1c-0.9,0-1.8-0.3-2.5-1
	c-0.7-0.6-1-1.5-1-2.4V55.4l-3.4,2.1c-0.5,0.3-1.1,0.5-1.8,0.5c-0.9,0-1.7-0.3-2.3-1c-0.6-0.6-1-1.4-1-2.3c0-0.6,0.2-1.1,0.5-1.6
	s0.7-0.9,1.2-1.2L215,47c0.7-0.4,1.5-0.5,2.4-0.5C218.4,46.3,219.2,46.6,219.8,47.3z"/>
<path class="st0" d="M228.9,83.6c-0.6-0.7-0.9-1.5-0.9-2.4v-0.9c-0.2-1.6,1.1-3.1,2.7-3.3c0.2,0,0.4,0,0.6,0h0.7
	c1.6-0.2,3.1,1.1,3.3,2.7c0,0.2,0,0.4,0,0.6v0.9c0.2,1.6-1.1,3.1-2.7,3.3c-0.2,0-0.4,0-0.6,0h-0.7C230.4,84.5,229.5,84.2,228.9,83.6
	z"/>
<circle class="st5" cx="219.7" cy="1075.3" r="34.9"/>
<circle class="st6" cx="226.8" cy="1072.7" r="34.9"/>
<path class="st0" d="M226.4,1070.1c1.5,1.1,2.8,2.6,3.6,4.3c0.8,1.8,1.3,3.7,1.3,5.7c0.1,2.5-0.6,4.9-1.8,7c-1.2,2-3,3.6-5.1,4.6
	c-2.4,1.1-5,1.6-7.6,1.6c-1.3,0-2.6-0.2-3.9-0.5c-1.2-0.3-2.4-0.7-3.4-1.3c-1.2-0.5-2-1.7-2-2.9c0-0.9,0.3-1.7,0.9-2.4
	c0.5-0.7,1.4-1.1,2.2-1.1s1.7,0.3,2.4,0.8c1.5,1.2,3.3,1.8,5.2,1.8c2.4,0,4.5-1.3,5.7-3.3c0.7-1.1,1-2.4,1-3.7
	c0.1-1.7-0.5-3.4-1.8-4.6c-1.2-1.1-2.7-1.7-4.3-1.6c-0.6,0-1.3,0.1-1.9,0.2l-1,0.3c-0.8,0.3-1.5,0.4-2.4,0.4c-0.7,0-1.4-0.3-1.9-0.8
	c-0.5-0.6-0.7-1.3-0.7-2.1c0-0.5,0.1-0.9,0.3-1.4s0.6-0.9,0.9-1.3l8.4-9.2h-10.8c-1.7,0-3-1.3-3.1-2.9v-0.1c0-0.8,0.3-1.6,0.9-2.1
	c0.6-0.6,1.4-0.9,2.2-0.8h16.7c0.9-0.1,1.8,0.3,2.5,0.9c0.6,0.6,0.9,1.5,0.9,2.4c-0.1,1-0.5,2-1.3,2.6l-7.3,8.1
	C223.1,1068.5,224.9,1069,226.4,1070.1z"/>
<path class="st0" d="M237.5,1091.7c-0.6-0.7-0.9-1.5-0.9-2.4v-0.9c-0.2-1.6,1.1-3.1,2.7-3.3c0.2,0,0.4,0,0.6,0h0.7
	c1.6-0.2,3.1,1.1,3.3,2.7c0,0.2,0,0.4,0,0.6v0.9c0.2,1.6-1.1,3.1-2.7,3.3c-0.2,0-0.4,0-0.6,0h-0.7
	C239,1092.6,238.1,1092.3,237.5,1091.7z"/>
<circle class="st5" cx="1748.1" cy="1075.3" r="34.9"/>
<circle class="st6" cx="1755.3" cy="1072.7" r="34.9"/>
<path class="st0" d="M1755.8,1077.1c0.6,0.6,0.9,1.4,0.9,2.2c0,0.8-0.3,1.6-0.9,2.1c-0.6,0.6-1.4,0.9-2.2,0.8h-2.3v7
	c0,1.8-1.4,3.3-3.2,3.3h-0.1c-0.9,0-1.7-0.4-2.3-1c-0.6-0.6-1-1.5-0.9-2.4v-7h-14.2c-0.8,0-1.7-0.4-2.2-1c-0.6-0.6-1-1.4-1-2.3
	c0-0.8,0.3-1.6,0.8-2.2l17.2-21.1c0.6-0.9,1.7-1.3,2.7-1.3c0.9,0,1.7,0.4,2.3,1c0.6,0.6,1,1.5,0.9,2.4v18.5h2.3
	C1754.5,1076.2,1755.2,1076.5,1755.8,1077.1z M1735.9,1076.2h8.8v-10.9L1735.9,1076.2z"/>
<path class="st0" d="M1765,1091.7c-0.6-0.7-0.9-1.5-0.8-2.4v-0.9c-0.2-1.6,1.1-3.1,2.7-3.3c0.2,0,0.4,0,0.6,0h0.7
	c1.6-0.2,3.1,1.1,3.3,2.7c0,0.2,0,0.4,0,0.6v0.9c0.2,1.6-1.1,3.1-2.7,3.3c-0.2,0-0.4,0-0.6,0h-0.7
	C1766.5,1092.6,1765.7,1092.3,1765,1091.7z"/>
<circle class="st5" cx="1744.5" cy="67.2" r="34.9"/>
<circle class="st6" cx="1751.7" cy="64.6" r="34.9"/>
<path class="st0" d="M1756.6,79.4c0.6,0.6,0.9,1.4,0.9,2.2c0,0.8-0.3,1.6-0.9,2.1c-0.6,0.6-1.4,0.9-2.2,0.9h-18.5
	c-0.8,0-1.7-0.3-2.2-0.9c-0.6-0.6-0.9-1.4-0.8-2.2c0-0.9,0.4-1.8,1-2.4l11.9-12.7c1.2-1.3,2.3-2.8,3.2-4.4c0.7-1.2,1.1-2.6,1.2-4.1
	c0-1.6-0.6-3.1-1.8-4.3c-1-1.1-2.5-1.8-4-1.8c-1.1,0-2.3,0.4-3.2,1.1c-1.1,0.8-2.1,1.7-2.9,2.8c-0.6,0.8-1.5,1.3-2.5,1.3
	c-0.8,0-1.6-0.3-2.2-0.9c-0.6-0.5-1-1.3-1-2.1c0-0.6,0.2-1.2,0.5-1.7c0.5-0.7,1-1.4,1.6-1.9c1.4-1.4,3-2.5,4.8-3.3
	c1.6-0.8,3.4-1.2,5.2-1.3c2.2,0,4.4,0.5,6.3,1.5c1.8,1,3.2,2.4,4.2,4.2c1,1.9,1.5,3.9,1.5,6.1c0,2.4-0.6,4.7-1.8,6.8
	c-1.3,2.5-2.9,4.7-4.8,6.7l-6.9,7.4h11.2C1755.2,78.5,1756,78.8,1756.6,79.4z"/>
<path class="st0" d="M1763.1,83.6c-0.6-0.7-0.9-1.5-0.8-2.4v-0.9c-0.2-1.6,1.1-3.1,2.7-3.3c0.2,0,0.4,0,0.6,0h0.7
	c1.6-0.2,3.1,1.1,3.3,2.7c0,0.2,0,0.4,0,0.6v0.9c0.2,1.6-1.1,3.1-2.7,3.3c-0.2,0-0.4,0-0.6,0h-0.7
	C1764.6,84.5,1763.7,84.2,1763.1,83.6z"/>
<path class="st7" d="M301.5,52.6c0,0.7-0.3,1.3-0.7,1.9c-0.4,0.6-1.1,1-1.9,1c-0.5,0-1.1-0.1-1.5-0.4c-1.5-0.7-3.1-1-4.8-1
	c-1.9,0-3.8,0.4-5.5,1.3c-1.5,0.9-2.8,2.2-3.6,3.8c-0.9,1.7-1.3,3.6-1.3,5.5c0,3.6,1,6.3,2.9,8.1c3.4,2.9,8.2,3.6,12.3,1.7
	c0.5-0.2,0.9-0.3,1.5-0.4c0.8,0,1.5,0.4,2,1c0.4,0.5,0.7,1.2,0.7,1.9c0,0.5-0.1,0.9-0.4,1.3c-0.2,0.4-0.6,0.7-1,0.9
	c-2.3,1.2-4.9,1.8-7.5,1.8c-2.8,0-5.6-0.6-8.1-1.9s-4.6-3.2-6-5.6c-1.5-2.7-2.3-5.8-2.2-8.9c0-2.9,0.7-5.8,2.1-8.3
	c1.4-2.4,3.4-4.4,5.8-5.7c2.6-1.4,5.4-2.1,8.4-2.1c2.6,0,5.2,0.6,7.5,1.8C301,50.7,301.6,51.7,301.5,52.6z"/>
<path class="st7" d="M306.1,52.8c-0.5-0.5-0.7-1.1-0.6-1.8v-0.9c-0.1-0.7,0.2-1.3,0.7-1.8c1.4-0.7,3-0.7,4.4,0
	c0.5,0.5,0.7,1.1,0.6,1.8V51c0.1,0.7-0.2,1.3-0.7,1.8c-0.7,0.4-1.5,0.5-2.2,0.5C307.5,53.4,306.7,53.2,306.1,52.8z M310.2,79.7
	c-1.1,1.1-2.8,1.1-3.9,0c-0.5-0.5-0.8-1.3-0.8-2V59c0-0.7,0.2-1.5,0.8-2c1.1-1.1,2.8-1.1,3.9,0c0.5,0.5,0.8,1.3,0.8,2v18.7
	C311,78.4,310.7,79.2,310.2,79.7z"/>
<path class="st7" d="M336.5,57.1c0.5,0.5,0.8,1.3,0.8,2v11.4c0.2,2.8-0.8,5.6-2.7,7.6c-1.8,1.8-4.4,2.8-7.7,2.8s-5.9-0.9-7.6-2.8
	c-1.9-2.1-2.8-4.8-2.7-7.6V59c0-0.7,0.2-1.5,0.8-2c1.1-1.1,2.8-1.1,3.9,0c0.5,0.5,0.8,1.3,0.8,2v11.5c-0.1,1.5,0.3,2.9,1.2,4.1
	c1,1,2.3,1.4,3.7,1.3c1.4,0.1,2.7-0.4,3.7-1.3c0.9-1.2,1.3-2.6,1.2-4.1V59c0-0.7,0.2-1.5,0.8-2C333.7,56,335.4,56,336.5,57.1
	L336.5,57.1z"/>
<path class="st7" d="M364.7,47.8c0.5,0.5,0.8,1.3,0.8,2v28c0,0.7-0.2,1.5-0.8,2c-0.5,0.5-1.2,0.8-2,0.8c-0.7,0-1.4-0.3-1.9-0.8
	s-0.8-1.2-0.8-2c-1.8,2-4.4,3.1-7.1,3.2c-2,0-4-0.5-5.7-1.6s-3.1-2.6-4-4.5c-1-2-1.5-4.2-1.5-6.5c0-2.2,0.5-4.5,1.5-6.5
	c0.9-1.8,2.3-3.4,4-4.5s3.6-1.6,5.5-1.6c1.4,0,2.8,0.3,4.1,0.8c1.2,0.5,2.3,1.1,3.2,2v-8.9c0-0.7,0.2-1.5,0.8-2
	c0.5-0.5,1.2-0.8,2-0.8C363.5,47,364.2,47.3,364.7,47.8z M358.4,73.8c1.3-1.5,1.9-3.4,1.9-5.4c0.1-2-0.6-3.9-1.9-5.4
	c-2.3-2.6-6.3-2.9-8.9-0.6c-0.2,0.2-0.4,0.4-0.6,0.6c-2.5,3.2-2.5,7.6,0,10.8c1.2,1.4,2.9,2.2,4.8,2.1
	C355.4,76,357.2,75.2,358.4,73.8L358.4,73.8z"/>
<path class="st7" d="M392.9,56.6c0.5,0.5,0.8,1.3,0.8,2v19.1c0,0.7-0.2,1.5-0.8,2c-0.5,0.5-1.2,0.8-2,0.8c-0.7,0-1.4-0.3-1.9-0.8
	s-0.8-1.2-0.8-2c-1.8,2-4.4,3.1-7.1,3.2c-2,0-4-0.5-5.7-1.6s-3.1-2.6-4-4.5c-1-2-1.5-4.2-1.5-6.5c0-2.2,0.5-4.5,1.5-6.5
	c0.9-1.8,2.3-3.4,4-4.5s3.6-1.6,5.5-1.6c1.4,0,2.8,0.3,4.1,0.8c1.2,0.5,2.3,1.1,3.2,2l0,0c0-0.7,0.2-1.5,0.8-2
	c0.5-0.5,1.2-0.8,2-0.8C391.7,55.8,392.4,56.1,392.9,56.6z M386.6,73.8c1.3-1.5,1.9-3.4,1.9-5.4c0.1-2-0.6-3.9-1.9-5.4
	c-2.3-2.6-6.3-2.9-8.9-0.6c-0.2,0.2-0.4,0.4-0.6,0.6c-2.5,3.2-2.5,7.6,0,10.8c1.2,1.4,2.9,2.2,4.8,2.1
	C383.6,76,385.4,75.2,386.6,73.8L386.6,73.8z"/>
<path class="st7" d="M421.1,47.8c0.5,0.5,0.8,1.3,0.8,2v28c0,0.7-0.2,1.5-0.8,2c-0.5,0.5-1.2,0.8-2,0.8c-0.7,0-1.4-0.3-1.9-0.8
	s-0.8-1.2-0.8-2c-1.8,2-4.4,3.1-7.1,3.2c-2,0-4-0.5-5.7-1.6s-3.1-2.6-4-4.5c-1-2-1.5-4.2-1.5-6.5c0-2.2,0.5-4.5,1.5-6.5
	c0.9-1.8,2.3-3.4,4-4.5s3.6-1.6,5.5-1.6c1.4,0,2.8,0.3,4.1,0.8c1.2,0.5,2.3,1.1,3.2,2v-8.9c0-0.7,0.2-1.5,0.8-2
	c0.5-0.5,1.2-0.8,2-0.8C419.9,47,420.6,47.3,421.1,47.8z M414.8,73.8c1.3-1.5,1.9-3.4,1.9-5.4c0.1-2-0.6-3.9-1.9-5.4
	c-2.3-2.6-6.3-2.9-8.9-0.6c-0.2,0.2-0.4,0.4-0.6,0.6c-2.5,3.2-2.5,7.6,0,10.8c1.2,1.4,2.9,2.2,4.8,2.1
	C411.8,76,413.6,75.2,414.8,73.8L414.8,73.8z"/>
<path class="st7" d="M1451.5,52.6c0,0.7-0.3,1.3-0.7,1.9c-0.4,0.6-1.1,1-1.8,1c-0.5,0-1.1-0.1-1.5-0.4c-1.5-0.7-3.1-1-4.8-1
	c-1.9,0-3.8,0.4-5.5,1.3c-1.5,0.9-2.8,2.2-3.6,3.8c-0.9,1.7-1.3,3.6-1.3,5.5c0,3.6,1,6.3,2.9,8.1c3.4,2.9,8.2,3.6,12.3,1.7
	c0.5-0.2,0.9-0.3,1.4-0.4c0.8,0,1.5,0.4,2,1c0.4,0.5,0.7,1.2,0.7,1.9c0,0.5-0.1,0.9-0.4,1.3c-0.2,0.4-0.6,0.7-1,0.9
	c-2.3,1.2-4.9,1.8-7.5,1.8c-2.8,0-5.6-0.6-8.2-1.9c-2.5-1.2-4.5-3.2-5.9-5.5c-1.5-2.7-2.3-5.8-2.2-8.9c0-2.9,0.7-5.8,2.1-8.3
	c1.4-2.4,3.4-4.4,5.8-5.7c2.6-1.4,5.4-2.1,8.4-2.1c2.6,0,5.2,0.6,7.5,1.8C1451,50.8,1451.6,51.7,1451.5,52.6z"/>
<path class="st7" d="M1477.4,56.6c0.5,0.5,0.8,1.3,0.8,2v19.1c0,0.7-0.2,1.5-0.8,2c-0.5,0.5-1.2,0.8-1.9,0.8c-0.7,0-1.4-0.3-1.9-0.8
	s-0.8-1.2-0.8-2c-1.8,2-4.4,3.1-7.1,3.2c-2,0-4-0.5-5.7-1.6s-3.1-2.6-4-4.5c-1-2-1.5-4.2-1.5-6.5c0-2.2,0.5-4.5,1.4-6.5
	c0.9-1.8,2.3-3.4,4-4.5s3.6-1.6,5.5-1.6c1.4,0,2.8,0.3,4.1,0.8c1.2,0.5,2.3,1.1,3.2,2l0,0c0-0.7,0.2-1.5,0.8-2
	c0.5-0.5,1.2-0.8,1.9-0.8C1476.2,55.8,1476.9,56.1,1477.4,56.6z M1471.1,73.8c1.3-1.5,1.9-3.4,1.9-5.4c0.1-2-0.6-3.9-1.9-5.4
	c-2.3-2.6-6.3-2.9-8.9-0.6c-0.2,0.2-0.4,0.4-0.6,0.6c-2.5,3.2-2.5,7.6,0,10.8c1.2,1.4,2.9,2.2,4.8,2.1
	C1468.2,76,1470,75.2,1471.1,73.8z"/>
<path class="st7" d="M1482.3,75.4c0.1-1.3,1.2-2.4,2.5-2.4c0.7,0,1.3,0.3,1.8,0.9c0.8,0.9,1.8,1.6,2.8,2.1c1.1,0.5,2.3,0.7,3.6,0.7
	c2.4-0.1,3.5-1,3.5-2.7c0-0.8-0.4-1.6-1.2-2c-1.2-0.6-2.4-1.1-3.7-1.4c-1.5-0.4-2.9-0.9-4.3-1.4c-1.1-0.5-2.1-1.2-2.8-2.2
	c-0.9-1.1-1.3-2.6-1.2-4c0-1.4,0.4-2.7,1.3-3.8s2-2,3.3-2.5c1.3-0.6,2.8-0.9,4.3-0.9c1.6,0,3.1,0.3,4.6,0.9c1.4,0.5,2.7,1.4,3.6,2.5
	c0.4,0.5,0.6,1,0.6,1.6c0,0.7-0.3,1.3-0.8,1.7c-0.4,0.3-0.9,0.5-1.4,0.5c-0.6,0-1.2-0.2-1.6-0.6c-0.6-0.7-1.3-1.2-2.1-1.6
	c-0.9-0.4-1.9-0.6-2.9-0.6c-2.3,0-3.4,0.8-3.4,2.5c0,0.6,0.2,1.2,0.6,1.6c0.5,0.4,1,0.8,1.6,1c0.7,0.2,1.6,0.5,2.7,0.8
	c1.4,0.4,2.7,0.8,4.1,1.4c1.1,0.5,2,1.3,2.8,2.2c0.8,1.2,1.2,2.5,1.1,3.9c0,1.4-0.4,2.8-1.3,3.9s-2.1,2-3.4,2.5
	c-1.3,0.6-2.8,0.9-4.2,0.9c-1.9,0-3.8-0.3-5.6-1c-1.7-0.6-3.1-1.8-4.2-3.2C1482.4,76.3,1482.3,75.8,1482.3,75.4z"/>
<path class="st7" d="M1527.8,56.6c0.5,0.5,0.8,1.3,0.8,2v19.1c0,0.7-0.2,1.5-0.8,2c-0.5,0.5-1.2,0.8-1.9,0.8c-0.7,0-1.4-0.3-1.9-0.8
	s-0.8-1.2-0.8-2c-1.8,2-4.4,3.1-7.1,3.2c-2,0-4-0.5-5.7-1.6s-3.1-2.6-4-4.5c-1-2-1.5-4.2-1.5-6.5c0-2.2,0.5-4.5,1.4-6.5
	c0.9-1.8,2.3-3.4,4-4.5s3.6-1.6,5.5-1.6c1.4,0,2.8,0.3,4.1,0.8c1.2,0.5,2.3,1.1,3.2,2l0,0c0-0.7,0.3-1.5,0.8-2s1.2-0.8,1.9-0.8
	C1526.6,55.8,1527.3,56.1,1527.8,56.6z M1521.5,73.8c1.3-1.5,1.9-3.4,1.9-5.4c0.1-2-0.6-3.9-1.9-5.4c-2.3-2.6-6.3-2.9-8.9-0.6
	c-0.2,0.2-0.4,0.4-0.6,0.6c-2.5,3.2-2.5,7.6,0,10.8c1.2,1.4,2.9,2.2,4.8,2.1C1518.6,76,1520.3,75.2,1521.5,73.8z"/>
<path class="st7" d="M1533.7,85.9c-0.5-0.4-0.8-1-0.8-1.6c0-0.4,0.1-0.8,0.3-1.1l18.4-37.6c0.2-0.4,0.5-0.7,0.8-1
	c0.3-0.2,0.7-0.4,1.2-0.4c0.6,0,1.2,0.2,1.6,0.7c0.5,0.4,0.8,1,0.8,1.6c0,0.4-0.1,0.8-0.3,1.1l-18.3,37.6c-0.2,0.4-0.5,0.7-0.8,1
	c-0.3,0.2-0.7,0.4-1.2,0.4C1534.7,86.5,1534.1,86.3,1533.7,85.9z"/>
<path class="st7" d="M1585.6,49.6c0.5,0.5,0.8,1.3,0.8,2v26.2c0,0.8-0.3,1.5-0.8,2c-0.6,0.5-1.3,0.8-2.1,0.8c-0.7,0-1.4-0.3-1.9-0.8
	s-0.8-1.2-0.8-2V67.2h-14.4v10.5c0,0.8-0.3,1.5-0.9,2c-0.5,0.5-1.3,0.8-2,0.8s-1.5-0.3-2-0.8s-0.8-1.3-0.8-2V51.5
	c0-0.8,0.3-1.5,0.8-2c0.6-0.5,1.3-0.8,2.1-0.8c0.7,0,1.4,0.3,1.9,0.8s0.8,1.2,0.8,2v10.4h14.4V51.5c0-0.8,0.3-1.5,0.9-2
	c0.5-0.5,1.3-0.8,2-0.8C1584.3,48.7,1585,49,1585.6,49.6z"/>
<path class="st7" d="M1614.3,74.9c-1,1.9-2.6,3.4-4.5,4.5c-3.9,2.1-8.6,2.1-12.5,0c-1.9-1-3.4-2.6-4.4-4.5c-2.2-4.1-2.2-8.9,0-13
	c1-1.9,2.6-3.4,4.4-4.5c3.9-2.1,8.6-2.1,12.5,0c1.9,1.1,3.4,2.6,4.5,4.5C1616.5,65.9,1616.5,70.8,1614.3,74.9z M1609.6,64.4
	c-0.6-1.1-1.4-2-2.5-2.7c-2.1-1.3-4.8-1.3-6.9,0c-1.1,0.7-1.9,1.6-2.5,2.7c-0.6,1.2-1,2.6-0.9,4c0,1.4,0.3,2.7,0.9,3.9
	c0.6,1.1,1.4,2,2.5,2.7c2.1,1.3,4.8,1.3,6.9,0c1.1-0.6,1.9-1.6,2.5-2.7c0.6-1.2,1-2.6,0.9-3.9C1610.5,67,1610.2,65.7,1609.6,64.4
	L1609.6,64.4z"/>
<path class="st7" d="M1642.5,56.6c0.5,0.5,0.8,1.3,0.8,2v20.1c0,3.7-1.1,6.4-3.4,8.2c-2.5,1.8-5.6,2.8-8.7,2.6
	c-1.3,0-2.5-0.2-3.7-0.5c-1.2-0.2-2.3-0.5-3.4-0.9c-1.5-0.7-2.2-1.5-2.2-2.6c0-0.2,0.1-0.5,0.1-0.7c0.1-0.6,0.5-1.1,0.9-1.5
	c0.4-0.3,0.9-0.5,1.4-0.5c0.3,0,0.6,0,0.9,0.1c0.1,0,0.9,0.3,2.2,0.8c1.2,0.5,2.4,0.8,3.7,0.8c1.8,0.1,3.5-0.3,5-1.3
	c1.1-0.9,1.7-2.3,1.7-3.8v-2.2c-0.8,1.1-1.8,1.9-3,2.5c-1.3,0.7-2.8,1.1-4.3,1.1c-2,0-4-0.5-5.8-1.6c-1.7-1.1-3.2-2.6-4.1-4.5
	c-1-2-1.5-4.2-1.5-6.5c0-2.3,0.5-4.5,1.5-6.5c0.9-1.8,2.3-3.4,4-4.5s3.7-1.6,5.7-1.6c1.5,0,3,0.3,4.3,1c1.2,0.6,2.3,1.3,3.2,2.3
	v-0.5c0-0.7,0.2-1.5,0.8-2c0.5-0.5,1.2-0.8,1.9-0.8C1641.2,55.8,1641.9,56.1,1642.5,56.6z M1636.1,73.8c1.3-1.5,2-3.4,1.9-5.4
	c0.1-2-0.6-3.9-1.9-5.4c-1.3-1.4-3.1-2.2-5-2.2c-1.9-0.1-3.7,0.7-4.9,2.2c-1.3,1.5-2,3.4-1.9,5.4c-0.1,2,0.6,3.9,1.9,5.4
	c1.2,1.4,3,2.2,4.9,2.1C1633,76,1634.8,75.2,1636.1,73.8z"/>
<path class="st7" d="M1670.4,56.6c0.5,0.5,0.8,1.3,0.8,2v19.1c0,0.7-0.2,1.5-0.8,2c-0.5,0.5-1.2,0.8-1.9,0.8c-0.7,0-1.4-0.3-1.9-0.8
	s-0.8-1.2-0.8-2c-1.8,2-4.4,3.1-7.1,3.2c-2,0-4-0.5-5.7-1.6s-3.1-2.6-4-4.5c-1-2-1.5-4.2-1.5-6.5c0-2.2,0.5-4.5,1.4-6.5
	c0.9-1.8,2.3-3.4,4-4.5s3.6-1.6,5.5-1.6c1.4,0,2.8,0.3,4.1,0.8c1.2,0.5,2.3,1.1,3.2,2l0,0c0-0.7,0.3-1.5,0.8-2s1.2-0.8,1.9-0.8
	C1669.2,55.8,1669.9,56.1,1670.4,56.6z M1664.1,73.8c1.3-1.5,1.9-3.4,1.9-5.4c0.1-2-0.6-3.9-1.9-5.4c-2.3-2.6-6.3-2.9-8.9-0.6
	c-0.2,0.2-0.4,0.4-0.6,0.6c-2.5,3.2-2.5,7.6,0,10.8c1.2,1.4,2.9,2.2,4.8,2.1C1661.2,76,1663,75.2,1664.1,73.8z"/>
<path class="st7" d="M1691.9,56.6c0.6,0.4,0.9,1.1,0.9,1.8c0.1,0.8-0.2,1.5-0.7,2.1c-0.5,0.5-1.1,0.7-1.7,0.7c-0.5,0-1-0.1-1.5-0.3
	l-0.6-0.2c-0.3-0.1-0.7-0.1-1-0.1c-0.8,0-1.6,0.3-2.3,0.7c-0.8,0.6-1.4,1.3-1.8,2.2c-0.5,1.1-0.7,2.3-0.7,3.5v10.7
	c0,0.7-0.2,1.5-0.8,2c-1.1,1.1-2.8,1.1-3.9,0c-0.5-0.5-0.8-1.3-0.8-2V59c0-0.7,0.2-1.5,0.8-2c1.1-1.1,2.8-1.1,3.9,0
	c0.5,0.5,0.8,1.3,0.8,2v0.6c0.7-1.2,1.7-2.2,3-2.8c1.3-0.7,2.7-1,4.2-1C1690.5,55.8,1691.3,56,1691.9,56.6z"/>
<path class="st7" d="M284.2,1072.5c-0.5,0.5-1.3,0.8-2,0.8s-1.5-0.3-2-0.8s-0.8-1.3-0.8-2v-26.2c0-0.8,0.3-1.5,0.8-2
	c0.6-0.5,1.3-0.8,2.1-0.8c0.7,0,1.4,0.3,2,0.8c0.5,0.5,0.8,1.2,0.8,2v26.2C285.1,1071.3,284.8,1072,284.2,1072.5z"/>
<path class="st7" d="M310.7,1051.4c1.3,2.3,1.9,4.9,1.8,7.6v11.5c0,0.7-0.2,1.5-0.8,2c-1.1,1.1-2.8,1.1-3.9,0
	c-0.5-0.5-0.8-1.3-0.8-2v-11.6c0.1-1.4-0.3-2.7-1-3.9c-0.9-1-2.2-1.6-3.6-1.4c-1.5-0.1-3,0.5-4.1,1.5c-1,1-1.5,2.4-1.5,3.8v11.6
	c0,0.7-0.2,1.5-0.8,2c-1.1,1.1-2.8,1.1-3.9,0c-0.5-0.5-0.8-1.3-0.8-2v-18.7c0-0.7,0.2-1.5,0.8-2c1.1-1.1,2.8-1.1,3.9,0
	c0.5,0.5,0.8,1.3,0.8,2v0.8c0.9-1.1,2-2.1,3.2-2.8c1.3-0.8,2.8-1.2,4.3-1.2C307.4,1048.6,309.5,1049.6,310.7,1051.4z"/>
<path class="st7" d="M316.5,1068.2c0.1-1.3,1.2-2.4,2.5-2.4c0.7,0,1.3,0.3,1.8,0.9c0.8,0.9,1.8,1.6,2.8,2.1c1.1,0.5,2.3,0.7,3.5,0.7
	c2.4-0.1,3.5-1,3.5-2.7c0-0.8-0.4-1.6-1.2-2c-1.2-0.6-2.4-1.1-3.7-1.4c-1.5-0.4-2.9-0.9-4.3-1.4c-1.1-0.5-2.1-1.2-2.9-2.2
	c-0.9-1.1-1.3-2.6-1.2-4c0-1.4,0.4-2.7,1.2-3.8c0.9-1.1,2-1.9,3.3-2.5s2.8-0.9,4.3-0.9c1.6,0,3.1,0.3,4.6,0.9
	c1.4,0.5,2.7,1.4,3.6,2.5c0.4,0.5,0.6,1,0.6,1.6c0,0.7-0.3,1.3-0.9,1.7c-0.4,0.3-0.9,0.5-1.5,0.5s-1.2-0.2-1.6-0.6
	c-0.6-0.7-1.3-1.2-2.1-1.6c-0.9-0.4-1.9-0.6-2.9-0.6c-2.3,0-3.4,0.8-3.4,2.5c0,0.6,0.2,1.2,0.6,1.6c0.5,0.4,1,0.8,1.6,1
	c0.7,0.2,1.6,0.5,2.7,0.8c1.4,0.4,2.7,0.8,4.1,1.4c1.1,0.5,2,1.3,2.8,2.2c0.8,1.2,1.2,2.5,1.1,3.9c0,1.4-0.4,2.8-1.3,3.9
	s-2.1,2-3.4,2.5c-1.3,0.6-2.8,0.9-4.2,0.9c-1.9,0-3.8-0.3-5.6-1c-1.7-0.6-3.1-1.8-4.2-3.2C316.7,1069.2,316.5,1068.7,316.5,1068.2z"
	/>
<path class="st7" d="M340.4,1045.7c-0.5-0.5-0.7-1.1-0.6-1.8v-0.9c-0.1-0.7,0.2-1.3,0.7-1.8c1.4-0.7,3-0.7,4.4,0
	c0.5,0.5,0.7,1.1,0.6,1.8v0.9c0.1,0.7-0.2,1.3-0.7,1.8c-0.7,0.4-1.5,0.5-2.2,0.5C341.8,1046.2,341,1046,340.4,1045.7z M344.5,1072.5
	c-1.1,1.1-2.8,1.1-3.9,0c-0.5-0.5-0.8-1.3-0.8-2v-18.7c0-0.7,0.2-1.5,0.8-2c1.1-1.1,2.8-1.1,3.9,0c0.5,0.5,0.8,1.3,0.8,2v18.7
	C345.3,1071.2,345,1072,344.5,1072.5L344.5,1072.5z"/>
<path class="st7" d="M363.7,1068.8c0.8,1,0.7,2.6-0.4,3.4c-0.1,0.1-0.3,0.2-0.4,0.3c-0.9,0.6-1.9,0.9-3,0.8
	c-1.7,0.1-3.3-0.4-4.7-1.2c-1.3-0.8-1.9-2.5-1.9-5.1v-12.5h-2.1c-1.4,0-2.5-1-2.5-2.4v-0.1c0-0.7,0.2-1.3,0.7-1.7
	c0.5-0.5,1.1-0.7,1.8-0.7h2.1v-2.9c0-1.5,1.2-2.7,2.7-2.8h0.1c0.7,0,1.4,0.3,1.9,0.8s0.8,1.3,0.8,2v2.9h3.2c1.4,0,2.5,1,2.5,2.4v0.1
	c0,0.7-0.2,1.3-0.7,1.7c-0.5,0.5-1.1,0.7-1.8,0.7h-3.2v12.3c0,0.5,0.1,1,0.5,1.4c0.4,0.3,0.9,0.5,1.4,0.4c0.3,0,0.7-0.1,1-0.2
	s0.7-0.2,1-0.2C363,1068.2,363.4,1068.4,363.7,1068.8z"/>
<path class="st7" d="M389.3,1049.9c0.5,0.5,0.8,1.3,0.8,2v11.5c0.2,2.8-0.8,5.6-2.7,7.7c-1.8,1.8-4.4,2.8-7.7,2.8s-5.9-0.9-7.7-2.8
	c-1.9-2.1-2.8-4.8-2.7-7.7v-11.5c0-0.7,0.2-1.5,0.8-2c1.1-1.1,2.8-1.1,3.9,0c0.5,0.5,0.8,1.3,0.8,2v11.5c-0.1,1.5,0.3,2.9,1.2,4.1
	c1,1,2.3,1.4,3.7,1.3c1.4,0.1,2.7-0.4,3.7-1.3c0.9-1.2,1.3-2.6,1.2-4.1v-11.5c0-0.7,0.2-1.5,0.8-2
	C386.4,1048.8,388.2,1048.8,389.3,1049.9L389.3,1049.9z"/>
<path class="st7" d="M412.7,1049.8c1.6,0.8,2.4,1.9,2.4,3.2c0,0.6-0.2,1.2-0.6,1.7s-0.9,0.8-1.5,0.8c-0.4,0-0.8-0.1-1.2-0.2
	c-0.3-0.1-0.6-0.3-0.9-0.5s-0.5-0.4-0.8-0.6c-0.4-0.2-0.9-0.3-1.3-0.4c-0.5-0.1-0.9-0.2-1.4-0.2c-2-0.1-3.9,0.7-5.3,2.1
	c-2.6,3.2-2.6,7.7,0,10.9c1.3,1.4,3.1,2.2,5,2.2c1.1,0.1,2.3-0.1,3.3-0.5c0.3-0.1,0.5-0.3,0.8-0.5s0.6-0.4,0.9-0.5s0.7-0.2,1-0.2
	c0.7,0,1.3,0.2,1.8,0.7s0.7,1.2,0.7,1.9c-0.1,0.8-0.6,1.6-1.3,2c-1,0.7-2.1,1.2-3.4,1.5c-1.4,0.4-2.9,0.6-4.4,0.6
	c-2.2,0-4.3-0.5-6.1-1.6c-1.8-1.1-3.2-2.6-4.1-4.5c-1-2-1.5-4.2-1.5-6.4c0-2.3,0.5-4.5,1.5-6.5c1-1.9,2.4-3.4,4.2-4.5
	c1.9-1.1,4-1.6,6.1-1.6C408.6,1048.5,410.7,1049,412.7,1049.8z"/>
<path class="st7" d="M419.4,1045.7c-0.5-0.5-0.7-1.1-0.6-1.8v-0.9c-0.1-0.7,0.2-1.3,0.7-1.8c1.4-0.7,3-0.7,4.4,0
	c0.5,0.5,0.7,1.1,0.6,1.8v0.9c0.1,0.7-0.2,1.3-0.7,1.8c-0.7,0.4-1.5,0.5-2.2,0.5C420.8,1046.2,420.1,1046,419.4,1045.7z
	 M423.6,1072.5c-1.1,1.1-2.8,1.1-3.9,0c-0.5-0.5-0.8-1.3-0.8-2v-18.7c0-0.7,0.2-1.5,0.8-2c1.1-1.1,2.8-1.1,3.9,0
	c0.5,0.5,0.8,1.3,0.8,2v18.7C424.4,1071.2,424.1,1072,423.6,1072.5L423.6,1072.5z"/>
<path class="st7" d="M451.5,1067.7c-1,1.9-2.6,3.4-4.5,4.5c-3.9,2.1-8.6,2.1-12.5,0c-1.9-1-3.4-2.6-4.4-4.5c-2.2-4.1-2.2-8.9,0-13
	c1-1.9,2.6-3.4,4.4-4.5c3.9-2.1,8.6-2.1,12.5,0c1.9,1.1,3.4,2.6,4.5,4.5C453.7,1058.8,453.7,1063.7,451.5,1067.7z M446.8,1057.3
	c-0.6-1.1-1.4-2-2.5-2.7c-2.1-1.3-4.8-1.3-6.9,0c-1.1,0.7-1.9,1.6-2.5,2.7c-0.6,1.2-1,2.6-0.9,4c0,1.4,0.3,2.7,0.9,3.9
	c0.6,1.1,1.4,2,2.5,2.7c2.1,1.3,4.8,1.3,6.9,0c1.1-0.6,1.9-1.6,2.5-2.7c0.6-1.2,1-2.6,0.9-3.9
	C447.8,1059.9,447.4,1058.5,446.8,1057.3z M440.1,1047.2c-0.3-0.3-0.5-0.7-0.5-1.1c0-0.3,0.1-0.6,0.3-0.9l2.6-4.6
	c0.3-0.5,0.6-1,1.1-1.3c0.4-0.3,0.9-0.5,1.4-0.5c0.7-0.1,1.3,0.2,1.8,0.6c0.4,0.4,0.6,1,0.6,1.6c-0.1,0.7-0.4,1.4-0.9,1.9l-3.4,3.8
	c-0.5,0.5-1.3,0.8-2,0.8C440.7,1047.5,440.4,1047.4,440.1,1047.2L440.1,1047.2z"/>
<path class="st7" d="M477,1051.4c1.3,2.3,1.9,4.9,1.8,7.6v11.5c0,0.7-0.2,1.5-0.8,2c-1.1,1.1-2.8,1.1-3.9,0c-0.5-0.5-0.8-1.3-0.8-2
	v-11.6c0.1-1.4-0.3-2.7-1-3.9c-0.9-1-2.2-1.6-3.6-1.4c-1.5-0.1-3,0.5-4.1,1.5c-1,1-1.5,2.4-1.5,3.8v11.6c0,0.7-0.2,1.5-0.8,2
	c-1.1,1.1-2.8,1.1-3.9,0c-0.5-0.5-0.8-1.3-0.8-2v-18.7c0-0.7,0.2-1.5,0.8-2c1.1-1.1,2.8-1.1,3.9,0c0.5,0.5,0.8,1.3,0.8,2v0.8
	c0.9-1.1,2-2.1,3.2-2.8c1.3-0.8,2.8-1.2,4.3-1.2C473.7,1048.6,475.8,1049.6,477,1051.4z"/>
<path class="st7" d="M299.8,1099.4c-0.5,0.4-1.2,0.7-1.9,0.7H283c0.3,1.7,1.2,3.1,2.5,4.2c1.2,1,2.8,1.5,4.4,1.5c1,0,2-0.1,2.9-0.3
	c0.6-0.2,1.1-0.4,1.6-0.7l0.8-0.5c0.5-0.3,1-0.4,1.5-0.4c0.6,0,1.2,0.2,1.6,0.7c0.4,0.4,0.7,1,0.7,1.6c0,0.9-0.5,1.7-1.3,2.2
	c-1,0.8-2.2,1.4-3.4,1.8c-3.6,1.2-7.6,0.9-10.9-0.9c-1.8-1-3.4-2.5-4.4-4.4s-1.6-4.1-1.5-6.3c-0.1-2.4,0.5-4.7,1.6-6.8
	c1-1.9,2.5-3.4,4.3-4.5c1.7-1,3.7-1.6,5.7-1.6s3.9,0.6,5.6,1.6c1.8,1.1,3.2,2.6,4.2,4.4c1.1,1.8,1.6,3.9,1.6,6
	C300.7,1098.3,300.3,1099,299.8,1099.4z M283,1095.6h11.9v-0.3c-0.1-1.3-0.8-2.5-1.9-3.3c-1.1-0.9-2.4-1.4-3.8-1.4
	C285.7,1090.6,283.7,1092.3,283,1095.6z"/>
<path class="st7" d="M326.7,1077.6c0.5,0.5,0.8,1.3,0.8,2v28c0,0.7-0.2,1.5-0.8,2c-0.5,0.5-1.2,0.8-2,0.8c-0.7,0-1.4-0.3-1.9-0.8
	s-0.8-1.2-0.8-1.9c-1.8,2-4.4,3.1-7.1,3.2c-2,0-4-0.5-5.7-1.6s-3.1-2.6-4-4.5c-1-2-1.5-4.2-1.5-6.5c0-2.2,0.5-4.5,1.5-6.5
	c0.9-1.8,2.3-3.4,4-4.5s3.6-1.6,5.5-1.6c1.4,0,2.8,0.3,4.1,0.8c1.2,0.5,2.3,1.1,3.2,2v-8.9c0-0.7,0.2-1.5,0.8-2
	c0.5-0.5,1.2-0.8,2-0.8C325.5,1076.8,326.2,1077.1,326.7,1077.6z M320.4,1103.6c1.3-1.5,1.9-3.4,1.9-5.4c0.1-2-0.6-3.9-1.9-5.4
	c-2.3-2.6-6.3-2.9-8.9-0.6c-0.2,0.2-0.4,0.4-0.6,0.6c-2.5,3.2-2.5,7.6,0,10.8c1.2,1.4,2.9,2.2,4.8,2.2
	C317.5,1105.8,319.3,1105,320.4,1103.6L320.4,1103.6z"/>
<path class="st7" d="M354,1086.9c0.5,0.5,0.8,1.3,0.8,2v11.5c0.2,2.8-0.8,5.6-2.7,7.7c-1.8,1.8-4.4,2.8-7.7,2.8s-5.9-0.9-7.6-2.8
	c-1.9-2.1-2.8-4.8-2.7-7.7v-11.5c0-0.7,0.2-1.5,0.8-2c1.1-1.1,2.8-1.1,3.9,0c0.5,0.5,0.8,1.3,0.8,2v11.5c-0.1,1.5,0.3,2.9,1.2,4.1
	c1,1,2.3,1.4,3.7,1.3c1.4,0.1,2.7-0.4,3.7-1.3c0.9-1.2,1.3-2.6,1.2-4.1v-11.5c0-0.7,0.2-1.5,0.8-2
	C351.2,1085.8,352.9,1085.8,354,1086.9L354,1086.9z"/>
<path class="st7" d="M377.4,1086.8c1.6,0.8,2.4,1.9,2.4,3.2c0,0.6-0.2,1.2-0.6,1.7s-0.9,0.8-1.5,0.8c-0.4,0-0.8-0.1-1.2-0.2
	c-0.3-0.1-0.6-0.3-0.9-0.5s-0.5-0.4-0.8-0.6c-0.4-0.2-0.9-0.3-1.3-0.4c-0.5-0.1-0.9-0.2-1.4-0.2c-2-0.1-3.9,0.7-5.3,2.1
	c-2.6,3.2-2.6,7.7,0,10.9c1.3,1.4,3.1,2.2,5,2.2c1.1,0.1,2.3-0.1,3.3-0.5c0.3-0.1,0.5-0.3,0.8-0.5s0.6-0.4,0.9-0.5s0.7-0.2,1-0.2
	c0.7,0,1.3,0.2,1.8,0.7s0.7,1.2,0.7,1.9c-0.1,0.8-0.6,1.6-1.3,2c-1,0.7-2.1,1.2-3.4,1.5c-1.4,0.4-2.9,0.6-4.4,0.6
	c-2.2,0-4.3-0.5-6.1-1.6c-1.8-1.1-3.2-2.6-4.1-4.5c-1-2-1.5-4.2-1.5-6.4c0-2.3,0.5-4.5,1.5-6.5c1-1.9,2.4-3.4,4.2-4.5
	c1.9-1.1,4-1.6,6.1-1.6C373.3,1085.5,375.5,1086,377.4,1086.8z"/>
<path class="st7" d="M405.5,1086.4c0.5,0.5,0.8,1.3,0.8,2v19.1c0,0.7-0.2,1.5-0.8,2c-0.5,0.5-1.2,0.8-2,0.8c-0.7,0-1.4-0.3-1.9-0.8
	s-0.8-1.2-0.8-1.9c-1.8,2-4.4,3.1-7.1,3.2c-2,0-4-0.5-5.7-1.6s-3.1-2.6-4-4.5c-1-2-1.5-4.2-1.5-6.5c0-2.2,0.5-4.5,1.5-6.5
	c0.9-1.8,2.3-3.4,4-4.5s3.6-1.6,5.5-1.6c1.4,0,2.8,0.3,4.1,0.8c1.2,0.5,2.3,1.1,3.2,2l0,0c0-0.7,0.2-1.5,0.8-2
	c0.5-0.5,1.2-0.8,2-0.8C404.3,1085.6,405,1085.9,405.5,1086.4z M399.2,1103.6c1.3-1.5,1.9-3.4,1.9-5.4c0.1-2-0.6-3.9-1.9-5.4
	c-2.3-2.6-6.3-2.9-8.9-0.6c-0.2,0.2-0.4,0.4-0.6,0.6c-2.5,3.2-2.5,7.6,0,10.8c1.2,1.4,2.9,2.2,4.8,2.2
	C396.3,1105.8,398,1105.1,399.2,1103.6z"/>
<path class="st7" d="M425,1105.8c0.8,1,0.7,2.6-0.4,3.4c-0.1,0.1-0.3,0.2-0.4,0.3c-0.9,0.6-1.9,0.9-3,0.8c-1.7,0.1-3.3-0.4-4.7-1.2
	c-1.3-0.8-1.9-2.5-1.9-5.1v-12.5h-2.1c-1.4,0-2.5-1-2.5-2.4v-0.1c0-0.7,0.2-1.3,0.7-1.7c0.5-0.5,1.1-0.7,1.8-0.7h2.1v-2.9
	c0-1.5,1.2-2.7,2.7-2.8h0.1c0.7,0,1.4,0.3,1.9,0.8s0.8,1.3,0.8,2v2.9h3.2c1.4,0,2.5,1,2.5,2.4v0.1c0,0.7-0.2,1.3-0.7,1.7
	c-0.5,0.5-1.1,0.7-1.8,0.7H420v12.3c0,0.5,0.1,1,0.5,1.4c0.4,0.3,0.9,0.5,1.4,0.4c0.3,0,0.7-0.1,1-0.2s0.7-0.2,1-0.2
	C424.3,1105.2,424.7,1105.4,425,1105.8z"/>
<path class="st7" d="M430.9,1082.7c-0.5-0.5-0.7-1.1-0.6-1.8v-0.9c-0.1-0.7,0.2-1.3,0.7-1.8c1.4-0.7,3-0.7,4.4,0
	c0.5,0.5,0.7,1.1,0.6,1.8v0.9c0.1,0.7-0.2,1.3-0.7,1.8c-0.7,0.4-1.5,0.5-2.2,0.5C432.3,1083.2,431.5,1083,430.9,1082.7z M435,1109.5
	c-1.1,1.1-2.8,1.1-3.9,0c-0.5-0.5-0.8-1.3-0.8-2v-18.7c0-0.7,0.2-1.5,0.8-2c1.1-1.1,2.8-1.1,3.9,0c0.5,0.5,0.8,1.3,0.8,2v18.7
	C435.8,1108.2,435.5,1109,435,1109.5z"/>
<path class="st7" d="M461.8,1086.8c0.5,0.5,0.7,1.1,0.7,1.7c0,0.5-0.1,0.9-0.4,1.4l-8.5,18.6c-0.2,0.5-0.5,0.9-0.9,1.2
	c-0.4,0.3-0.9,0.5-1.4,0.5h-0.4c-0.5,0-1-0.2-1.4-0.5s-0.8-0.8-1-1.3l-8.4-18.6c-0.2-0.5-0.3-0.9-0.3-1.4c0-0.6,0.3-1.2,0.8-1.7
	s1.2-0.8,1.9-0.8c0.6,0,1.1,0.2,1.6,0.4c0.5,0.3,0.9,0.7,1.1,1.3l6.3,14.3l6.2-14.3c0.2-0.5,0.6-1,1-1.3s0.9-0.4,1.4-0.4
	C460.6,1086.1,461.3,1086.4,461.8,1086.8z"/>
<path class="st7" d="M488.2,1086.4c0.5,0.5,0.8,1.3,0.8,2v19.1c0,0.7-0.2,1.5-0.8,2c-0.5,0.5-1.2,0.8-2,0.8c-0.7,0-1.4-0.3-1.9-0.8
	s-0.8-1.2-0.8-1.9c-1.8,2-4.4,3.1-7.1,3.2c-2,0-4-0.5-5.7-1.6s-3.1-2.6-4-4.5c-1-2-1.5-4.2-1.5-6.5c0-2.2,0.5-4.5,1.5-6.5
	c0.9-1.8,2.3-3.4,4-4.5s3.6-1.6,5.5-1.6c1.4,0,2.8,0.3,4.1,0.8c1.2,0.5,2.3,1.1,3.2,2l0,0c0-0.7,0.2-1.5,0.8-2
	c0.5-0.5,1.2-0.8,2-0.8C487,1085.6,487.7,1085.9,488.2,1086.4z M481.9,1103.6c1.3-1.5,1.9-3.4,1.9-5.4c0.1-2-0.6-3.9-1.9-5.4
	c-2.3-2.6-6.3-2.9-8.9-0.6c-0.2,0.2-0.4,0.4-0.6,0.6c-2.5,3.2-2.5,7.6,0,10.8c1.2,1.4,2.9,2.2,4.8,2.2
	C479,1105.8,480.8,1105.1,481.9,1103.6z"/>
<path class="st7" d="M1598.2,1077.6c1.1,1.4,1.6,3.2,1.5,5c0,3.6-1,6.1-3.1,7.5c-2.2,1.5-4.7,2.2-7.3,2.1H1578
	c-1.5,0-2.7-1.2-2.8-2.7v-0.1v-26.1c-0.1-1.5,1.1-2.7,2.6-2.8h0.1h11.4c5.7,0,8.6,2.7,8.6,8.1c0,1.3-0.3,2.5-1,3.6s-1.6,1.9-2.8,2.5
	C1595.8,1075.2,1597.2,1076.2,1598.2,1077.6z M1591.2,1066.8c-0.7-0.7-1.6-1-2.6-0.9h-7.5v7.1h7.6c0.9,0,1.7-0.3,2.4-0.9
	c0.7-0.6,1-1.5,1-2.4C1592.2,1068.6,1591.9,1067.6,1591.2,1066.8L1591.2,1066.8z M1592.6,1085.9c0.8-0.9,1.3-2.1,1.2-3.3
	c0-1.8-0.5-2.9-1.4-3.5c-1.1-0.6-2.2-0.9-3.4-0.8h-7.8v8.7h8.2C1590.5,1087.1,1591.7,1086.7,1592.6,1085.9L1592.6,1085.9z"/>
<path class="st7" d="M1626,1068.3c0.5,0.5,0.8,1.3,0.8,2v19.2c0,0.7-0.2,1.5-0.8,2c-0.5,0.5-1.2,0.8-1.9,0.8c-0.7,0-1.4-0.3-1.9-0.8
	s-0.8-1.2-0.8-1.9c-1.8,2-4.4,3.1-7.1,3.2c-2,0-4-0.5-5.7-1.6s-3.1-2.6-4-4.5c-1-2-1.5-4.2-1.5-6.5c0-2.2,0.5-4.5,1.4-6.5
	c0.9-1.8,2.3-3.4,4-4.5s3.6-1.6,5.5-1.6c1.4,0,2.8,0.3,4.1,0.8c1.2,0.5,2.3,1.1,3.2,2l0,0c0-0.7,0.3-1.5,0.8-2s1.2-0.8,1.9-0.8
	C1624.8,1067.6,1625.5,1067.8,1626,1068.3z M1619.7,1085.5c1.3-1.5,1.9-3.4,1.9-5.4c0.1-2-0.6-3.9-1.9-5.4c-2.3-2.6-6.3-2.9-8.9-0.6
	c-0.2,0.2-0.4,0.4-0.6,0.6c-2.5,3.2-2.5,7.6,0,10.8c1.2,1.4,2.9,2.2,4.8,2.2C1616.8,1087.7,1618.5,1086.9,1619.7,1085.5
	L1619.7,1085.5z"/>
<path class="st7" d="M1647.5,1068.3c0.6,0.4,0.9,1.1,0.9,1.8c0.1,0.8-0.2,1.5-0.7,2.1c-0.5,0.5-1.1,0.7-1.7,0.7
	c-0.5,0-1-0.1-1.5-0.3l-0.6-0.2c-0.3-0.1-0.7-0.1-1-0.1c-0.8,0-1.6,0.3-2.3,0.7c-0.8,0.6-1.4,1.3-1.8,2.2c-0.5,1.1-0.7,2.3-0.7,3.5
	v10.8c0,0.7-0.2,1.5-0.8,2c-1.1,1.1-2.8,1.1-3.9,0c-0.5-0.5-0.8-1.3-0.8-2v-18.7c0-0.7,0.2-1.5,0.8-2c1.1-1.1,2.8-1.1,3.9,0
	c0.5,0.5,0.8,1.3,0.8,2v0.6c0.7-1.2,1.7-2.2,3-2.8c1.3-0.7,2.7-1,4.2-1C1646.1,1067.5,1646.9,1067.8,1647.5,1068.3z"/>
<path class="st7" d="M1667.2,1068.3c0.6,0.4,0.9,1.1,0.9,1.8c0.1,0.8-0.2,1.5-0.7,2.1c-0.5,0.5-1.1,0.7-1.7,0.7
	c-0.5,0-1-0.1-1.5-0.3l-0.6-0.2c-0.3-0.1-0.7-0.1-1-0.1c-0.8,0-1.6,0.3-2.3,0.7c-0.8,0.6-1.4,1.3-1.8,2.2c-0.5,1.1-0.7,2.3-0.7,3.5
	v10.8c0,0.7-0.2,1.5-0.8,2c-1.1,1.1-2.8,1.1-3.9,0c-0.5-0.5-0.8-1.3-0.8-2v-18.7c0-0.7,0.2-1.5,0.8-2c1.1-1.1,2.8-1.1,3.9,0
	c0.5,0.5,0.8,1.3,0.8,2v0.6c0.7-1.2,1.7-2.2,3-2.8c1.3-0.7,2.7-1,4.2-1C1665.7,1067.5,1666.5,1067.8,1667.2,1068.3z"/>
<path class="st7" d="M1672.1,1064.6c-0.5-0.5-0.7-1.1-0.6-1.8v-0.9c-0.1-0.7,0.2-1.3,0.7-1.8c1.4-0.7,3-0.7,4.4,0
	c0.5,0.5,0.7,1.1,0.6,1.8v0.9c0.1,0.7-0.2,1.3-0.7,1.8c-0.7,0.4-1.5,0.5-2.2,0.5C1673.5,1065.1,1672.8,1064.9,1672.1,1064.6z
	 M1676.3,1091.4c-1.1,1.1-2.8,1.1-3.9,0c-0.5-0.5-0.8-1.3-0.8-2v-18.7c0-0.7,0.2-1.5,0.8-2c1.1-1.1,2.8-1.1,3.9,0
	c0.5,0.5,0.8,1.3,0.8,2v18.8C1677.1,1090.2,1676.8,1090.9,1676.3,1091.4z"/>
<path class="st7" d="M1704.3,1086.6c-1,1.9-2.6,3.4-4.5,4.5c-3.9,2.1-8.6,2.1-12.5,0c-1.9-1-3.4-2.6-4.4-4.5c-2.2-4.1-2.2-8.9,0-13
	c1-1.9,2.6-3.4,4.4-4.5c3.9-2.1,8.6-2.1,12.5,0c1.9,1.1,3.4,2.6,4.5,4.5C1706.4,1077.7,1706.4,1082.6,1704.3,1086.6z M1699.5,1076.2
	c-0.6-1.1-1.5-2-2.5-2.7c-2.1-1.3-4.8-1.3-6.9,0c-1.1,0.7-1.9,1.6-2.5,2.7c-0.6,1.2-1,2.6-0.9,4c0,1.4,0.3,2.7,0.9,3.9
	c0.6,1.1,1.4,2,2.5,2.7c2.1,1.3,4.8,1.3,6.9,0c1.1-0.6,1.9-1.6,2.5-2.7c0.6-1.2,1-2.6,0.9-3.9
	C1700.5,1078.8,1700.2,1077.4,1699.5,1076.2z"/>
</svg>
