<svg id="Layer_1" data-name="Layer 1" xmlns="http://www.w3.org/2000/svg" viewBox="0 0 165 30.5"><defs><style>.cls-1{fill:#4ca2ae;}.cls-2{fill:#fff;}</style></defs><title>siguiente</title><rect class="cls-1" width="165" height="30.5" rx="14.53" ry="14.53"/><path class="cls-2" d="M58.39,18.75a3.05,3.05,0,0,1-1.07-.62.72.72,0,0,1-.28-.54.58.58,0,0,1,.17-.41.56.56,0,0,1,.42-.18.55.55,0,0,1,.35.12,3,3,0,0,0,.8.49,2.53,2.53,0,0,0,.92.15,1.85,1.85,0,0,0,1-.26.74.74,0,0,0,.42-.64.82.82,0,0,0-.41-.72,3.48,3.48,0,0,0-1.3-.39q-2.24-.33-2.24-2.09a1.9,1.9,0,0,1,.34-1.12,2.13,2.13,0,0,1,.92-.73,3.24,3.24,0,0,1,1.3-.25,3.72,3.72,0,0,1,1.21.19,2.91,2.91,0,0,1,.95.51.68.68,0,0,1,.3.54.57.57,0,0,1-.18.41.54.54,0,0,1-.41.18.46.46,0,0,1-.28-.09,2.65,2.65,0,0,0-.74-.4,2.45,2.45,0,0,0-.85-.18,1.76,1.76,0,0,0-1,.24.76.76,0,0,0,0,1.3,3.46,3.46,0,0,0,1.14.37,5.87,5.87,0,0,1,1.41.39,1.8,1.8,0,0,1,.79.66,2,2,0,0,1,.27,1.1A1.84,1.84,0,0,1,62,17.93a2.32,2.32,0,0,1-1,.75,3.22,3.22,0,0,1-1.3.26A4.29,4.29,0,0,1,58.39,18.75Z"/><path class="cls-2" d="M64.6,18.66a.64.64,0,0,1-.45.18.62.62,0,0,1-.45-.18.6.6,0,0,1-.18-.45V12.29a.59.59,0,0,1,.18-.44.65.65,0,0,1,.47-.18.61.61,0,0,1,.44.18.59.59,0,0,1,.18.44v5.92A.58.58,0,0,1,64.6,18.66Z"/><path class="cls-2" d="M72.05,15.14a.61.61,0,0,1,.18.44v2.17a.62.62,0,0,1-.32.55,4.1,4.1,0,0,1-2.2.62,3.75,3.75,0,0,1-3.24-1.84,3.65,3.65,0,0,1,0-3.7,3.75,3.75,0,0,1,3.24-1.84,3.61,3.61,0,0,1,1.76.41.55.55,0,0,1,.31.5.65.65,0,0,1-.17.44.54.54,0,0,1-.42.19.84.84,0,0,1-.34-.08,2.9,2.9,0,0,0-1.15-.24,2.31,2.31,0,0,0-1.21.33,2.48,2.48,0,0,0,0,4.25,2.31,2.31,0,0,0,1.21.33,4,4,0,0,0,.61-.05,3.58,3.58,0,0,0,.57-.13V16.19h-1a.61.61,0,0,1-.44-.17.63.63,0,0,1,0-.88.61.61,0,0,1,.44-.17h1.68A.59.59,0,0,1,72.05,15.14Z"/><path class="cls-2" d="M79,11.83a.64.64,0,0,1,.16.45V16a3.09,3.09,0,0,1-.36,1.5,2.58,2.58,0,0,1-1,1,2.92,2.92,0,0,1-1.47.37,3,3,0,0,1-1.48-.37,2.57,2.57,0,0,1-1-1,3.07,3.07,0,0,1-.36-1.5V12.28a.6.6,0,0,1,.18-.45.65.65,0,0,1,.47-.18.62.62,0,0,1,.61.62V16a1.74,1.74,0,0,0,.22.87,1.49,1.49,0,0,0,.58.59,1.56,1.56,0,0,0,.78.21,1.72,1.72,0,0,0,.82-.21,1.55,1.55,0,0,0,.61-.59A1.65,1.65,0,0,0,78,16V12.28a.66.66,0,0,1,.15-.45.53.53,0,0,1,.42-.17A.57.57,0,0,1,79,11.83Z"/><path class="cls-2" d="M81.76,18.66a.64.64,0,0,1-.45.18.62.62,0,0,1-.45-.18.6.6,0,0,1-.18-.45V12.29a.59.59,0,0,1,.18-.44.65.65,0,0,1,.47-.18.61.61,0,0,1,.44.18.59.59,0,0,1,.18.44v5.92A.58.58,0,0,1,81.76,18.66Z"/><path class="cls-2" d="M88,17.84a.57.57,0,0,1,.18.42.54.54,0,0,1-.18.42.64.64,0,0,1-.45.16H84.11a.61.61,0,0,1-.62-.62V12.29a.61.61,0,0,1,.62-.62h3.43a.63.63,0,0,1,.45.17.57.57,0,0,1,.18.44.53.53,0,0,1-.18.42.64.64,0,0,1-.45.16H84.77v1.74h2.31a.62.62,0,0,1,.44.17.58.58,0,0,1,.18.44.54.54,0,0,1-.18.42.64.64,0,0,1-.45.16H84.77v1.89h2.78A.61.61,0,0,1,88,17.84Z"/><path class="cls-2" d="M95.18,11.83a.58.58,0,0,1,.15.41v6a.61.61,0,0,1-.62.62.89.89,0,0,1-.28,0,.4.4,0,0,1-.2-.13l-3.76-4.77v4.37a.56.56,0,0,1-.16.41.55.55,0,0,1-.41.16.52.52,0,0,1-.4-.16.58.58,0,0,1-.15-.41v-6a.61.61,0,0,1,.62-.62.76.76,0,0,1,.3.06.48.48,0,0,1,.22.16l3.73,4.75v-4.4a.57.57,0,0,1,.16-.41.54.54,0,0,1,.4-.16A.53.53,0,0,1,95.18,11.83Z"/><path class="cls-2" d="M102,11.83a.56.56,0,0,1,.18.43.55.55,0,0,1-.18.43.64.64,0,0,1-.45.16H100v5.36a.58.58,0,0,1-.19.45.69.69,0,0,1-.48.18.65.65,0,0,1-.47-.18.6.6,0,0,1-.18-.45V12.85H97a.63.63,0,0,1-.45-.16.56.56,0,0,1-.18-.43.55.55,0,0,1,.18-.42.64.64,0,0,1,.45-.16h4.55A.63.63,0,0,1,102,11.83Z"/><path class="cls-2" d="M107.78,17.84a.57.57,0,0,1,.18.42.54.54,0,0,1-.18.42.64.64,0,0,1-.45.16H103.9a.61.61,0,0,1-.62-.62V12.29a.61.61,0,0,1,.62-.62h3.43a.63.63,0,0,1,.45.17.57.57,0,0,1,.18.44.53.53,0,0,1-.18.42.64.64,0,0,1-.45.16h-2.78v1.74h2.31a.62.62,0,0,1,.44.17.58.58,0,0,1,.18.44.54.54,0,0,1-.18.42.64.64,0,0,1-.45.16h-2.31v1.89h2.78A.61.61,0,0,1,107.78,17.84Z"/></svg>